<?xml version="1.0" encoding="UTF-8"?>
<svg version="1.1" viewBox="0 0 640 140" xmlns="http://www.w3.org/2000/svg">
<path d="M61.1,131.23C26.05,130.67-.53,103.29,0,68.31,.52,34.88,28.57,8.23,62.66,8.77c33.44,.53,60.36,28.5,59.77,62.13-.58,33.5-28.4,60.86-61.34,60.34Zm-5.64-69.47c-1.44,1.23-2.88,2.27-4.07,3.55-.81,.87-1.82,2.05-1.83,3.11-.12,11.21-.12,22.41,0,33.62,.03,2.98,1.74,4.36,5.11,4.43,4.36,.1,8.73,.07,13.09,.01,3.57-.05,5.04-1.42,5.14-5.05,.13-4.36-.08-8.73,.09-13.09,.13-3.14-.29-5.55-3.37-7.47-3.47-2.16-3.19-2.46-.03-5.21,1.27-1.1,3.15-2.53,3.18-3.84,.23-11.3,.11-22.6,.05-33.91-.01-2.69-1.51-4.32-4.18-4.39-4.95-.13-9.9-.17-14.85,0-2.95,.1-4.34,1.99-4.32,4.94,.03,3.37,.26,6.77-.05,10.11-.46,5.05,.15,9.43,5.23,11.98,.23,.11,.33,.47,.8,1.2Z" fill="#17255f"/>
<path d="M422.31,93.1c3.33-13.91,6.66-27.81,10.04-41.91h15.54c3.56,13.84,7.12,27.67,10.68,41.49h.86c.85-3.98,1.74-7.94,2.55-11.91,1.83-8.93,3.69-17.85,5.41-26.8,.46-2.37,1.47-3.27,3.95-3.11,3.54,.23,7.1,.06,11.31,.06-4.63,18.85-9.13,37.15-13.64,55.49h-19.69c-2.92-12.38-5.86-24.84-9-38.18-.55,1.59-.86,2.3-1.03,3.04-2.55,10.8-5.14,21.58-7.57,32.4-.51,2.27-1.48,3.03-3.8,2.92-4.06-.2-8.16-.3-12.2,.05-3.06,.26-4.17-.96-4.81-3.69-3.14-13.39-6.4-26.76-9.62-40.14-.9-3.74-1.8-7.47-2.85-11.85,4.78,0,9.09-.09,13.38,.11,.61,.03,1.48,1.42,1.67,2.3,2.51,12.02,4.92,24.06,7.35,36.09,.23,1.16,.48,2.32,.73,3.48l.74,.16Z" fill="#17255f"/>
<path d="M625.14,57.5v-23.87h14.86V106.54c-4.24,0-8.47,.09-12.69-.1-.62-.03-1.59-1.29-1.69-2.07-.24-1.94-.08-3.94-.08-6.11-.46,.21-.79,.24-.91,.42-6.4,9.79-18.35,12.25-28.25,5.85-6.99-4.52-10.53-11.2-11.75-19.15-1.6-10.4-.14-20.18,7.01-28.47,6.15-7.14,17.73-9.67,26.1-5.38,2.68,1.38,4.81,3.83,7.4,5.96Zm-.28,21.27c-.13-.05,.13,.05,0,0-.24-1.97-.38-3.95-.73-5.89-1.05-5.82-5.13-9.74-10.7-10.4-5.16-.61-10,2.27-11.97,7.42-2.32,6.06-2.39,12.18,.17,18.23,1.9,4.51,5.54,6.81,10.22,6.9,4.88,.1,9.01-1.95,10.9-6.75,1.18-2.99,1.87-5.96,2.11-9.51Z" fill="#17255f"/>
<path d="M201.79,82.57v23.78h-15.67V32.89c12.12,.46,24.11-.05,35.81,1.6,13.24,1.86,20.68,13.75,18.67,26.98-1.98,13.03-11.1,20.76-25.01,21.07-4.45,.1-8.91,.02-13.8,.02Zm.02-13.41c5.41-.26,10.67-.11,15.79-.89,4.88-.74,7.29-4.92,7.21-10.78-.06-4.93-2.78-9.38-6.94-9.79-5.25-.51-10.6-.12-16.06-.12v21.58Z" fill="#17255f"/>
<path d="M293.23,106.38h-13.41c-.14-1.63-.26-3.06-.44-5.3-1.68,.99-2.96,1.56-4.02,2.41-7.25,5.78-18.99,5.93-26.34,.27-5.38-4.15-7.39-11.4-5.14-18.51,1.85-5.81,7.71-10.05,14.64-10.28,5.56-.18,11.12-.2,16.68-.04,2.43,.07,3.12-1,3.25-3.08,.24-3.93-2.01-7.8-5.38-9.13-4.27-1.69-8.62-.57-11.43,3.02-1.03,1.31-1.73,3.68-2.9,3.91-1.86,.36-4-.66-6.01-1.13-1.64-.38-3.25-.93-4.91-1.2-2.42-.39-2.55-1.53-1.62-3.53,3.65-7.79,9.77-12.5,18.17-13.73,3.95-.58,8.19-.49,12.11,.28,9.62,1.91,15.91,7.98,16.55,17.74,.83,12.62,.2,25.34,.2,38.29Zm-15.08-21.47c-5.21,0-10.42-.14-15.61,.06-2.58,.1-4.02,1.96-4.35,4.5-.33,2.61,.56,4.97,3.02,5.85,2.24,.79,4.82,1.09,7.19,.92,6.15-.44,10.53-5.79,9.74-11.32Z" fill="#17255f"/>
<path d="M512.31,107.85c-15.83,.32-28.52-12.04-28.55-28.67-.03-17.18,11.43-29.26,28.25-29.71,15.58-.42,28.29,12.38,28.54,28.52,.26,17.07-11.5,29.51-28.23,29.85Zm12.63-28.49c-.37-2.62-.52-4.61-.95-6.53-1.14-5.1-5.77-9.5-10.3-9.93-5.8-.55-10.24,2.16-12.57,7.91-1.97,4.87-1.98,9.87-.38,14.85,1.83,5.71,5.82,8.86,11.24,9,5.1,.13,9.43-2.92,11.38-8.39,.85-2.39,1.15-4.98,1.57-6.91Z" fill="#17255f"/>
<path d="M396.77,65.64c-4.28,.73-8.33,1.48-12.41,2.03-.55,.07-1.44-.79-1.83-1.43-2.94-4.77-6.76-6.59-12.3-5.68-2.78,.45-4.93,1.85-5.32,4.8-.37,2.84,1.61,4.49,3.95,5.26,3.84,1.27,7.87,1.95,11.7,3.25,3.9,1.33,8.13,2.44,11.36,4.81,7.78,5.71,7.21,18.02-.9,24.14-7.02,5.3-15.17,5.86-23.55,4.59-5.39-.82-10.36-2.63-14.2-6.75-.54-.58-1.07-1.18-1.52-1.82-3.44-4.93-3.15-5.71,2.58-7.28,.86-.23,1.74-.41,2.57-.73,3.23-1.25,5.59-1.09,7.89,2.29,2.74,4.02,10.72,5.16,14.97,2.48,1.42-.89,2.64-2.98,2.83-4.66,.13-1.1-1.5-3.06-2.76-3.54-3.49-1.32-7.24-1.93-10.8-3.09-4.03-1.31-8.32-2.32-11.86-4.5-9.18-5.67-9.2-19.38-.37-25.72,8.83-6.33,24.5-6.11,33.07,.46,2.91,2.23,5.19,5.79,6.87,11.08Z" fill="#17255f"/>
<path d="M345.93,65.72c-3.97,.69-7.92,1.48-11.91,1.97-.68,.08-1.76-1.02-2.25-1.82-3.07-5.05-7.85-6.74-13.57-4.89-2.46,.8-3.95,2.57-3.68,4.75,.2,1.61,1.72,3.84,3.18,4.39,5.07,1.89,10.38,3.15,15.59,4.68,9.2,2.7,13.62,7.48,13.55,14.65-.08,8.48-5.49,15.23-14.39,17.35-7.37,1.75-14.8,1.69-21.96-1.1-5.81-2.26-10.12-6.07-11.74-12.87,4.12-1.03,8.01-2.08,11.95-2.9,.54-.11,1.49,.75,1.95,1.38,3.67,4.93,10.18,6.96,15.9,4.82,2.23-.83,4.08-2.53,3.73-4.79-.25-1.57-1.94-3.61-3.45-4.15-4.64-1.66-9.51-2.67-14.27-3.99-1.52-.42-3.01-.97-4.49-1.53-13.26-4.95-12.35-20.19-4.64-26.86,8.79-7.61,28.19-6.91,35.89,1.74,2.11,2.38,3.51,5.39,5.23,8.12l-.61,1.05Z" fill="#17255f"/>
<path d="M172.71,106.42h-15.75V51.76h-10.81c0-4.11-.07-7.93,.09-11.74,.02-.47,1.22-1.24,1.91-1.28,4.75-.26,8.92-1.65,12.15-5.36,.44-.5,1.4-.75,2.13-.77,3.36-.08,6.72-.03,10.27-.03V106.42Z" fill="#17255f"/>
<path d="m562.69 106.5h-15.25v-55.26h13.8v9.89l0.73 0.27c1.61-4.33 4.01-7.99 8.19-10.06 4.08-2.03 8.3-2.41 12.99-0.6-0.82 4.81-1.65 9.65-2.49 14.53-2.45 0-4.62-0.01-6.79 0-7.56 0.04-11.11 3.53-11.16 11.13-0.06 8.73 0 17.47 0 26.2v3.9z" fill="#17255f"/>
<style>.ded48415725e1d4c0a5e1df704453370{height:31px}</style>
</svg>
