<?xml version="1.0" encoding="UTF-8"?>
<svg enable-background="new 0 0 449 106.8" version="1.1" viewBox="0 0 449 106.8" xml:space="preserve" xmlns="http://www.w3.org/2000/svg"> <style type="text/css"> .st0{fill:#1A1E3A;} .st1{fill:#4D8EF8;} .st2{fill:#FFFFFF;} </style> <path class="st0" d="m356.4 45.4-19.9 45.9h-10.5l-19.8-45.9h11.5l14 32.8 14.2-32.8h10.5z"/> <path class="st0" d="m391.6 47.5c3 1.4 5.3 3.3 6.9 5.7 1.6 2.5 2.5 5.4 2.5 8.9 0 3.4-0.8 6.3-2.5 8.9-1.6 2.5-3.9 4.4-6.9 5.7s-6.6 2-10.6 2h-9.3v12.8h-10.7v-46h20c4-0.1 7.6 0.6 10.6 2zm-3.9 20.5c1.6-1.4 2.5-3.4 2.5-5.9s-0.8-4.6-2.5-5.9c-1.6-1.4-4.1-2-7.3-2h-8.7v15.9h8.7c3.2 0 5.6-0.8 7.3-2.1z"/> <path class="st0" d="M449,45.4v45.9h-8.7l-22.9-27.9v27.9h-10.5V45.4h8.8l22.9,27.9V45.4H449z"/> <path class="st0" d="m181.7 58.1v33.3h-9.3v-3.9c-2.4 2.9-5.9 4.3-10.4 4.3-3.1 0-6-0.7-8.5-2.1s-4.5-3.4-6-6-2.1-5.6-2.1-9 0.7-6.5 2.1-9c1.5-2.6 3.4-4.6 6-6 2.5-1.4 5.4-2.1 8.5-2.1 4.3 0 7.5 1.3 10 4v-3.5h9.7zm-11.9 23.4c1.6-1.6 2.4-3.9 2.4-6.7s-0.8-5.1-2.4-6.7-3.6-2.5-6.1-2.5-4.5 0.8-6.1 2.5c-1.6 1.6-2.4 3.9-2.4 6.7s0.8 5.1 2.4 6.7 3.7 2.5 6.1 2.5c2.5-0.1 4.6-0.9 6.1-2.5z"/> <path class="st0" d="m218.4 45.4h9.7v46h-9.7v-46z"/> <path class="st0" d="m269.9 58.1v33.3h-9.3v-3.9c-2.4 2.9-5.9 4.3-10.4 4.3-3.1 0-6-0.7-8.5-2.1s-4.5-3.4-6-6-2.1-5.6-2.1-9 0.7-6.5 2.1-9c1.5-2.6 3.4-4.6 6-6 2.5-1.4 5.4-2.1 8.5-2.1 4.3 0 7.5 1.3 10 4v-3.5h9.7zm-11.9 23.4c1.6-1.6 2.4-3.9 2.4-6.7s-0.8-5.1-2.4-6.7-3.6-2.5-6.1-2.5-4.5 0.8-6.1 2.5c-1.6 1.6-2.4 3.9-2.4 6.7s0.8 5.1 2.4 6.7 3.7 2.5 6.1 2.5c2.5-0.1 4.6-0.9 6.1-2.5z"/> <path class="st0" d="m282.6 90.9c-2.6-0.7-4.8-1.6-6.3-2.5l3.2-7c1.5 1 3.3 1.7 5.4 2.3s4.2 0.9 6.2 0.9c4.1 0 6.2-1 6.2-3 0-1-0.6-1.6-1.6-2.1-1.1-0.4-2.8-0.7-5.2-1.1-2.7-0.4-5-0.9-6.7-1.4-1.8-0.6-3.3-1.5-4.6-2.9s-2-3.3-2-5.8c0-2.1 0.6-3.9 1.8-5.6 1.2-1.6 3-2.9 5.3-3.8s5.1-1.4 8.3-1.4c2.4 0 4.7 0.2 7.1 0.7 2.3 0.5 4.3 1.2 5.8 2.1l-3.2 6.9c-3-1.6-6.1-2.5-9.6-2.5-2 0-3.6 0.3-4.7 0.9s-1.6 1.3-1.6 2.2c0 1.1 0.6 1.7 1.6 2.1 1.1 0.4 2.9 0.8 5.3 1.1 2.7 0.5 4.9 0.9 6.7 1.5 1.7 0.5 3.3 1.5 4.5 2.8 1.3 1.4 1.9 3.3 1.9 5.7 0 2-0.7 3.9-1.9 5.5s-3 2.9-5.4 3.8-5.2 1.3-8.4 1.3c-2.7 0.3-5.4 0-8.1-0.7z"/> <path class="st0" d="m211 83c-1.1 0.7-2.5 1.3-3.9 1.3-1.3 0-2.4-0.4-3-1.1-0.7-0.7-1.1-1.9-1.1-3.3v-14.4h8.1v-7.5h-8.1v-12.6h-9.7v12.6h-5.2v7.5h5.2v14.4c0 3.9 1.1 6.9 3.3 8.9 2.1 2.1 5.2 3 9.2 3 1.6 0 3-0.2 4.3-0.5 0.3-0.1 0.7-0.2 1-0.2l-0.1-8.1z"/> <path class="st1" d="m54.2 104.2c-28.4 0-51.6-22.8-51.7-50.8 0-13.6 5.2-26.5 14.9-36.1 9.6-9.6 22.4-14.9 36-14.9h0.1c28 0.1 50.8 23.2 50.8 51.7v50.1h-50.1z"/> <path class="st2" d="m32.8 88.9c8.2 0 14.8-6.6 14.8-14.8s-6.6-14.8-14.8-14.8-14.8 6.5-14.8 14.7 6.6 14.9 14.8 14.9z"/> <path class="st0" d="m53.5 0h-0.2c-14.2 0-27.6 5.6-37.6 15.7-10.1 10-15.7 23.5-15.7 37.8 0.1 29.4 24.4 53.2 54.1 53.2h52.6v-52.5c0.1-29.8-23.8-54.1-53.2-54.2zm18.4 96.8h-14.6v-17.4c0-15.6-12.5-28.3-27.8-28.4-6.1 0-11.9 2-16.7 5.6 1.5-4.3 3.9-8.4 7.3-11.6 5.7-5.7 13.4-8.9 21.5-8.9h0.1c16.7 0.1 30.3 14 30.3 31.2v29.5zm-39.5-34.5c6.7 0 12.2 5.5 12.2 12.2s-5.5 12.2-12.2 12.2-12.2-5.5-12.2-12.2 5.5-12.2 12.2-12.2zm64.4 34.5h-15v-29.6c0-22.6-18-41.1-40.2-41.1h-0.1c-10.8 0.1-20.8 4.2-28.5 11.9-0.1 0.1-0.2 0.2-0.2 0.3 2.1-5.7 5.5-11.1 10-15.6 8.2-8.2 19.2-12.8 30.8-12.7 23.9 0.1 43.3 19.8 43.3 44.2l-0.1 42.6z"/> <style>.ea2c42e22106549a7ac5d7e9ad91d618{height:10px}</style>
</svg>
