<?xml version="1.0" encoding="UTF-8"?>
<svg fill="none" version="1.1" viewBox="0 0 74 24" xmlns="http://www.w3.org/2000/svg">
<path d="m3.4457 0h9.8692v2.3674h-9.8692v-2.3674zm28.608 18.658c0.2637-0.605 0.3974-1.2597 0.3974-1.946v-9.6188h2.3686v9.6188c0 1.9985-0.7874 3.846-2.2175 5.2021-0.687 0.6516-1.4901 1.1611-2.387 1.5142-0.9127 0.3594-1.8853 0.5416-2.8906 0.5416-1.0055 0-1.9779-0.1822-2.8906-0.5416-0.8969-0.3531-1.7-0.8626-2.387-1.5142-1.43-1.3562-2.2176-3.2036-2.2176-5.2021v-9.6099h2.3687v9.6099c0 0.6863 0.1336 1.341 0.3974 1.946 0.2527 0.58 0.6167 1.0976 1.0819 1.5388 0.9557 0.9064 2.251 1.4056 3.6472 1.4056 1.3961 0 2.6914-0.4992 3.6472-1.4056 0.4652-0.4412 0.8291-0.9588 1.0819-1.5388zm11.067 5.0162v-5.707h6.0986l2.9032 5.707h2.6571l-3.4446-6.7716c0.2136-0.1575 0.4163-0.3309 0.6071-0.5199 0.5026-0.4976 0.8976-1.0771 1.1741-1.7224 0.2876-0.6712 0.4335-1.3832 0.4335-2.1162 0-0.7326-0.1456-1.4451-0.4329-2.1178-0.2762-0.64675-0.6706-1.228-1.1721-1.7277-0.5011-0.49925-1.0837-0.89163-1.7317-1.1664-0.6731-0.28541-1.3857-0.43009-2.1179-0.43009h-7.3431v16.572h2.3687zm0-14.204h4.9744c0.8179 0 1.5912 0.32169 2.1775 0.9058 0.5859 0.5837 0.9085 1.3539 0.9085 2.1687 0 0.8123-0.3218 1.5782-0.9059 2.1567-0.5854 0.5796-1.3597 0.8988-2.1801 0.8988h-4.9744v-6.13zm17.526 14.204 4.9707-13.004 4.9708 13.004h2.5356l-6.3347-16.572h-2.3434l-6.3346 16.572h2.5356zm-53.443-16.572-6.3346 16.572h2.5356l4.9707-13.004 4.9708 13.004h2.5356l-6.3347-16.572h-2.3434z" clip-rule="evenodd" fill="#15181D" fill-rule="evenodd"/>
<style>.8089f1e4c439894e8b8a50c2df9a75de{height:44px}</style>
</svg>
