<?xml version="1.0" encoding="UTF-8"?>
<svg version="1.1" viewBox="0 0 339.81 85.6" xmlns="http://www.w3.org/2000/svg">
<defs>
<style>.cls-1{fill:#f47f28;}.cls-1,.cls-2,.cls-3{fill-rule:evenodd;}.cls-2{fill:#fff;}.cls-3,.cls-4{fill:#283055;}</style>
</defs>
<path class="cls-1" d="M89.41,57c-2.72-2.55-4.52-2.91-6.72-4.52a15.94,15.94,0,0,1-3.18-22,21,21,0,0,1,5.38-4.65A14.79,14.79,0,0,0,90,20.13,13.46,13.46,0,0,0,88.4,6.26,13.23,13.23,0,0,0,68.92,4.61c-2.12,1.9-2.67,3.85-5.1,6.24a17.37,17.37,0,0,1-13.9,5.23,16.77,16.77,0,0,1-7.61-2.33c-2.89-1.63-4-3.58-6.24-4.09a6.61,6.61,0,0,0-6.42,1.89c-2.1,2.41-1.83,4.66-.91,7.55a32.43,32.43,0,0,1,1.74,8.26,25.17,25.17,0,0,1-1,8.41c-1.48,5-5.11,9.65-8.58,12.73C18,51,16,51.44,14.18,53.21A9.4,9.4,0,0,0,11.23,60,9.49,9.49,0,0,0,19,69.3c3.44.63,6.72-.93,7.74-1.26A41.83,41.83,0,0,1,49.27,68a40.75,40.75,0,0,1,14.3,7.83c2.08,1.68,3.66,3.95,5.85,5.51A15.54,15.54,0,0,0,91,78.09c4.2-5.42,5.21-14.77-1.54-21.13"/>
<path class="cls-2" d="M62.71,27.74a2.79,2.79,0,0,0-2.9,2.86v2.22A10.91,10.91,0,0,0,50.75,28a10.68,10.68,0,0,0-8.33,3.93A13.88,13.88,0,0,0,39,41.4a13.87,13.87,0,0,0,3.45,9.47,10.64,10.64,0,0,0,8.33,4A11,11,0,0,0,59.81,50v2.39a2.86,2.86,0,0,0,5.71-.08V30.6a2.86,2.86,0,0,0-2.81-2.86M52.31,49.58c-4.36,0-7.5-4-7.5-8.27,0-4.52,3.23-8.24,7.5-8.24,4.61,0,7.51,4.13,7.51,8.24,0,4.36-3.09,8.27-7.51,8.27"/>
<path class="cls-3" d="M193.61,22.27a5,5,0,0,0-6.45,2.83L175.05,56.86,163,25.1a5,5,0,0,0-6.46-2.83,4.78,4.78,0,0,0-2.83,6.35l13.35,35c1.88,4.92,5.57,6,8,6s6.16-1,8-6c3.27-8.56,13.36-35,13.36-35a4.78,4.78,0,0,0-2.84-6.35"/>
<path class="cls-3" d="M142.28,21.91a4.86,4.86,0,0,0-5.06,5v3.87c-3.76-5.07-8.86-8.44-15.81-8.44a18.66,18.66,0,0,0-14.52,6.86,24.25,24.25,0,0,0-6,16.54,24.21,24.21,0,0,0,6,16.51q6,6.9,14.52,6.9c7.45,0,12.61-4.06,15.81-8.48V64.8a5,5,0,0,0,9.95-.14V26.88a5,5,0,0,0-4.89-5M124,60.12c-7.6,0-13.08-6.93-13.08-14.41,0-7.89,5.64-14.37,13.08-14.37,8,0,13.09,7.2,13.09,14.37,0,7.59-5.39,14.41-13.09,14.41"/>
<path class="cls-3" d="M240.13,21.91a4.85,4.85,0,0,0-5,5v3.87c-3.77-5.07-8.86-8.44-15.81-8.44a18.63,18.63,0,0,0-14.52,6.86,24.21,24.21,0,0,0-6,16.54,24.17,24.17,0,0,0,6,16.51,18.58,18.58,0,0,0,14.52,6.9c7.45,0,12.61-4.06,15.81-8.48V64.8a5,5,0,0,0,9.95-.14V26.88a5,5,0,0,0-4.9-5M221.85,60.12c-7.61,0-13.09-6.93-13.09-14.41,0-7.89,5.64-14.37,13.09-14.37,8,0,13.08,7.2,13.08,14.37,0,7.59-5.39,14.41-13.08,14.41"/>
<path class="cls-4" d="M253.41,64.13a4,4,0,0,1-2-3.66,4.23,4.23,0,0,1,4.27-4.28,4.61,4.61,0,0,1,2.27.62,24.34,24.34,0,0,0,13.26,4.44c4.54,0,7.15-1.91,7.15-5v-.17c0-3.58-4.88-4.63-10.29-6.28-6.81-1.92-14.4-4.89-14.4-13.7V36c0-8.72,7.24-14,16.41-14a31.62,31.62,0,0,1,14.48,3.75,4.47,4.47,0,0,1,2.53,4A4.25,4.25,0,0,1,282.73,34a4.15,4.15,0,0,1-2.1-.53c-3.75-1.92-7.59-3.14-10.82-3.14-4.1,0-6.45,1.92-6.45,4.54V35c0,3.41,5,4.63,10.38,6.37,6.72,2.1,14.31,5.32,14.31,13.61v.18c0,9.68-7.51,14.48-17.1,14.48A31.44,31.44,0,0,1,253.41,64.13Z"/>
<path class="cls-4" d="m297.61 56.21v-24h-2a4.52 4.52 0 1 1 0-9h2v-7.1a5 5 0 1 1 10 0v7.11h7.88a4.52 4.52 0 1 1 0 9h-7.88v22.33c0 4.09 2.39 5.74 6 5.74a25 25 0 0 0 2.61-0.26 4.44 4.44 0 0 1 4.44 4.35 4.53 4.53 0 0 1-2.78 4.09 21.08 21.08 0 0 1-7.23 1.21c-7.82 0-13.04-3.39-13.04-13.47z"/>
<style>.03d2f2ff4b072579b324c4d512574e61{height:90px}</style>
</svg>
