<?xml version="1.0" encoding="UTF-8"?>
<svg version="1.1" viewBox="0 0 429.5 85.6" xmlns="http://www.w3.org/2000/svg">
<defs>
<style>.cls-1{fill:#d40000;}</style>
</defs>
<path class="cls-1" d="M101.63,61.5a5.91,5.91,0,0,1-.22,8.4A6,6,0,0,1,93,69.68a9.29,9.29,0,0,1-.76-.78L61.56,36.82,52.87,45,84.73,78.35a18.06,18.06,0,0,0,12.9,4.76,17.44,17.44,0,0,0,11.47-4.77,17.9,17.9,0,0,0,5.74-13,17.32,17.32,0,0,0-4.39-11.63l-.26-.28Z"/>
<path class="cls-1" d="M100.58,15.16C81-3.21,50.14-4,30.93,14.44S9.34,62.82,27.45,84.09ZM31.37,64.7C14.71,35.44,49.58.38,80.86,18.05Z"/>
<path class="cls-1" d="M175.06,80.15l-2.49-11.62H154.8l-2.49,11.62h-16L156.1,5.6h15.17L191.1,80.15ZM163.69,27.49l-6,27.64h11.91Z"/>
<path class="cls-1" d="M226.72,80.15h-16L193.45,5.6h16.91l8.34,52.67L227.15,5.6h16.9Z"/>
<path class="cls-1" d="m255.92 5.6h15.38v74.55h-15.38z"/>
<path class="cls-1" d="M320.77,80.15l-9.43-29h-5.09v29H290.87V5.6h22c16.79,0,21.45,8.48,21.45,22.72,0,8-1.3,15.08-8.78,19.58L336.8,80.15Zm-8-61.14h-6.5V37.75h6.5c5.85,0,6.18-5.14,6.18-9.43S318.6,19,312.75,19"/>
<path class="cls-1" d="M383.35,80.15l-2.5-11.62H363.09l-2.5,11.62h-16L364.39,5.6h15.16l19.83,74.55ZM372,27.49l-6,27.64h11.92Z"/>
<style>.06480386fa3818e145ebd645c2b25c1a{height:19px}</style>
</svg>
