<?xml version="1.0" encoding="UTF-8"?>
<svg clip-rule="evenodd" fill-rule="evenodd" image-rendering="optimizeQuality" shape-rendering="geometricPrecision" text-rendering="geometricPrecision" version="1.1" viewBox="0 0 800 208" xmlns="http://www.w3.org/2000/svg">
<path d="m75.5-0.5h56c17.666 1.0862 34.332 5.9196 50 14.5 13.703 11.566 21.537 26.4 23.5 44.5 3.333 30 3.333 60 0 90-3.386 28.705-18.886 46.872-46.5 54.5-9.09 1.843-18.09 3.343-27 4.5h-56c-13.215-1.212-26.215-4.045-39-8.5-15.388-6.389-25.555-17.556-30.5-33.5-3.0458-10.965-5.2124-21.965-6.5-33v-57c1.2119-13.215 4.0452-26.215 8.5-39 6.3895-15.388 17.556-25.555 33.5-30.5 11.284-3.1532 22.618-5.3199 34-6.5zm8 39c8.3708 0.5391 13.538 4.8724 15.5 13 0.6667 10 0.6667 20 0 30-1.4579 5.5589-4.9579 7.3923-10.5 5.5-2.37-3.108-4.37-6.4413-6-10-4.0814-0.923-6.0814 0.7437-6 5 2.9406 12.387 10.441 16.553 22.5 12.5 0.6667 6 0.6667 12 0 18-10.065-3.812-17.399-0.812-22 9-0.7772 2.929-0.6105 5.763 0.5 8.5 2.0787 0.808 4.0787 0.641 6-0.5 0.8992-8.43 5.2325-11.264 13-8.5 1.3932 1.171 2.2265 2.671 2.5 4.5 0.9091 11.392 0.5757 22.725-1 34-8.6187 11.976-17.285 11.976-26 0-0.6667-2.667-0.6667-5.333 0-8 2.9239-1.234 5.5905-2.901 8-5 0.5854-3.756-1.0813-5.756-5-6-5.1573 0.824-8.9906 3.49-11.5 8-11.624 0.525-16.457-5.142-14.5-17 2.7629-3.966 6.5962-6.133 11.5-6.5 1.4817-2.592 1.1483-4.925-1-7-11.573 1.561-18.573-3.272-21-14.5 2.4014-11.218 9.4014-16.052 21-14.5 1.8959-1.8083 2.3959-3.975 1.5-6.5-12.368-2.0689-15.701-8.7356-10-20 2.6547-2.98 5.9881-4.6466 10-5 2.4925 2.7351 5.3258 5.2351 8.5 7.5 2.906 1.3185 5.906 1.6518 9 1 2.9212-5.1481 1.2545-8.1481-5-9-3.3041-4.0898-3.1374-8.2565 0.5-12.5 2.5509-3.1809 5.7176-5.1809 9.5-6zm48 9c12.683-0.8259 17.517 4.8408 14.5 17-4.117 5.2696-9.117 6.603-15 4-3.167 3.1667-6.333 6.3333-9.5 9.5-4.655 0.4992-9.321 0.6658-14 0.5v-7c7.229 1.6093 13.063-0.3907 17.5-6-2.027-7.5962 0.139-13.596 6.5-18zm23 28c10.992 0.8085 15.158 6.4751 12.5 17-7.824 8.375-14.99 7.875-21.5-1.5-3-0.6667-6-0.6667-9 0-2.333 2.3333-4.667 4.6667-7 7-7.326 0.4997-14.659 0.6663-22 0.5v-6c6.342 0.1662 12.675-5e-4 19-0.5 2.333-2.3333 4.667-4.6667 7-7 3.881-1.1901 7.881-1.8568 12-2 1.997-3.8413 4.997-6.3413 9-7.5zm-47 33c7.341-0.166 14.674 0 22 0.5 6.85 9.513 13.85 9.846 21 1 9.744-3.461 15.744-0.127 18 10-2.94 10.304-9.273 13.304-19 9-1.713-1.378-3.047-3.045-4-5-7.717 1.141-13.717-1.526-18-8-6.658-0.5-13.325-0.666-20-0.5v-7zm0 20c4.346-0.166 8.679 1e-3 13 0.5 3.799 2.797 7.299 5.964 10.5 9.5 9.383-3.043 14.883 0.457 16.5 10.5-1.735 8.876-7.069 12.209-16 10-6.501-4.176-8.667-10.01-6.5-17.5-4.437-5.609-10.271-7.609-17.5-6v-7z" fill="#ec4a12" opacity=".997"/>
<path d="m614.5 41.5c8.941-0.0557 14.274 4.2776 16 13-1.955 10.117-7.955 13.95-18 11.5-10.955-9.0088-10.288-17.175 2-24.5z" fill="#0d061c" opacity=".989"/>
<path d="m676.5 44.5c9.481-1.0846 18.481 0.4154 27 4.5 0.522 0.5613 0.855 1.228 1 2-2.025 5.2194-4.692 10.053-8 14.5-5.396-3.6388-10.23-3.3055-14.5 1-1.367 4.1996-1.867 8.5329-1.5 13h20v17h-20v63h-22v-63h-13v-17h13c-2.28-12.41 1.054-22.91 10-31.5 2.658-1.478 5.325-2.6446 8-3.5z" fill="#0d061c" opacity=".993"/>
<path d="m296.5 46.5c12.752-0.9092 24.752 1.5908 36 7.5 12.518 11.255 15.018 24.422 7.5 39.5-1.833 3.1667-4.333 5.6667-7.5 7.5 14.019 8.372 18.853 20.538 14.5 36.5-3.596 10.596-10.762 17.429-21.5 20.5-19.279 1.45-38.612 1.95-58 1.5v-112c9.848 0.3271 19.514-0.0062 29-1zm-7 19c8.085-0.4011 16.085 0.0989 24 1.5 6.986 4.4334 9.153 10.6 6.5 18.5-1.167 2.5-3 4.3333-5.5 5.5-8.249 1.4057-16.583 1.9057-25 1.5v-27zm0 46c9.082-0.414 18.082 0.086 27 1.5 8.005 4.867 10.172 11.7 6.5 20.5-1.543 1.878-3.376 3.378-5.5 4.5-9.252 1.417-18.585 1.917-28 1.5v-28z" fill="#0d061c" opacity=".996"/>
<path d="m365.5 47.5h22v112h-22v-112z" fill="#0d061c" opacity=".998"/>
<path d="m437.5 77.5c18.621-3.0766 33.788 2.5901 45.5 17 7.039 13.416 8.372 27.416 4 42-7.418 16.884-20.418 25.217-39 25-20.2 0.077-33.867-9.256-41-28-5.386-19.991-0.22-36.491 15.5-49.5 4.867-2.7741 9.867-4.9407 15-6.5zm6 21c12.757-0.5413 20.257 5.459 22.5 18-0.396 20.606-10.229 27.439-29.5 20.5-8.534-9.7-9.701-20.2-3.5-31.5 3.154-3.012 6.654-5.345 10.5-7z" fill="#0d071c" opacity=".994"/>
<path d="m530.5 77.5c13.626-2.6265 24.792 1.3735 33.5 12 0.498-3.3168 0.665-6.6501 0.5-10h22c0.167 25.336 0 50.669-0.5 76-2.795 25.292-16.961 38.292-42.5 39-9.959-0.326-19.625-2.16-29-5.5-2.71-1.015-5.043-2.515-7-4.5 2.745-5.825 5.745-11.492 9-17 12.529 7.516 25.529 8.682 39 3.5 7.45-6.865 10.283-15.365 8.5-25.5-4.008 5.925-9.508 9.758-16.5 11.5-20.492 3.178-34.659-4.655-42.5-23.5-2.476-12.194-1.81-24.194 2-36 4.984-10.161 12.818-16.828 23.5-20zm13 19c12.987 1.1571 19.654 8.324 20 21.5-1.77 18.204-11.104 24.204-28 18-10.308-10.207-11.474-21.373-3.5-33.5 3.575-2.7024 7.408-4.7024 11.5-6z" fill="#0d061c" opacity=".996"/>
<path d="m606.5 79.5h22v80h-22v-80z" fill="#0d061c"/>
<path d="m799.5 79.5v2c-14.174 33.36-28.674 66.694-43.5 100-8.437 11.577-19.603 15.077-33.5 10.5-3.279-0.973-6.279-2.473-9-4.5 2.811-5.454 5.477-10.954 8-16.5 11.978 5.006 19.312 1.006 22-12-11.454-26.575-23.454-52.908-36-79 8.353-0.8317 16.687-0.6651 25 0.5 6.89 17.448 14.057 34.781 21.5 52 7.535-17.077 14.535-34.41 21-52 8.081-0.9825 16.248-1.3158 24.5-1z" fill="#0d061c" opacity=".995"/>
<style>.9862e46432066fd0689118626b62bd2e{height:50px}</style>
</svg>
