<?xml version="1.0" encoding="UTF-8"?>
<svg viewBox="0 0 136 24" xmlns="http://www.w3.org/2000/svg">
<path d="m49.7 1v22.29h-1.51v-22.29h1.51zm-15.127 0.016v9.576c1.2894-1.1549 2.957-1.7976 4.688-1.807 3.146 0 6.182 2.156 6.182 7.356 0 5.374-3.413 7.4-7.063 7.4-1.8907-0.0153-3.7449-0.5226-5.38-1.472v-21.053h1.573zm39.818 7.811h0.261c3.73 0.093 6.3 3.049 5.925 7.4l-0.026 0.268h-11.357c-0.0272 1.4878 0.5497 2.9231 1.5989 3.9784 1.0492 1.0552 2.4812 1.6402 3.9691 1.6216 0.096 4e-3 0.1917 6e-3 0.287 6e-3 1.3427-0.0173 2.6632-0.3452 3.858-0.958l0.275-0.142 0.55 1.332c-1.4409 0.792-3.0558 1.214-4.7 1.228-0.1153 0-0.2317-0.0023-0.349-7e-3 -4.75-0.154-7.183-3.91-7.03-7.921-0.038-1.8046 0.6574-3.5475 1.9273-4.8303 1.27-1.2827 3.0058-1.9956 4.8107-1.9757zm55.033 0.195v-4.788l-1.573 4e-3v4.788h-2.532v1.348h2.532v7.911c0 3.663 2.03 5.232 4.578 5.232 1.079-0.0098 2.147-0.2249 3.146-0.634l-0.456-1.4c-0.83 0.3922-1.741 0.5824-2.659 0.555-2.061-0.079-3.036-1.568-3.036-3.868v-7.8h4.688v-1.348h-4.688zm-24.68-0.222c3.649 0 6.811 2.727 6.811 7.34 0 4.724-3.178 7.372-6.811 7.372-4.074 0-6.811-3.3-6.811-7.372 0-4.328 3.02-7.34 6.811-7.34zm-49.8 8.922v-8.7l-1.574-1e-3v8.862c0 4.344 2.139 5.628 4.373 5.628 2.1706-0.0616 4.1764-1.1726 5.38-2.98v2.759h1.577v-14.272h-1.58v9.893c-1.321 1.95-3.02 3.123-4.876 3.123-1.648 0-3.3-0.919-3.3-4.312zm64.146-8.89c1.375 0.01588 2.726 0.36995 3.932 1.031l-0.6 1.252c-1.011-0.5452-2.14-0.8336-3.288-0.84-2.344 0-3.4 1.157-3.4 2.362 0 1.4134 1.461 2.0093 3.395 2.7981 0.171 0.0696 0.345 0.1406 0.522 0.2139 3.413 1.348 4.137 2.886 4.137 4.2 0 2.235-2.076 3.646-4.829 3.646-1.59-0.0184-3.145-0.4677-4.5-1.3l0.676-1.363c1.112 0.7647 2.426 1.1823 3.775 1.2 1.479 0 3.319-0.618 3.3-2.124 0-1.284-1.353-2.283-3.523-3.139-2.407-0.967-4.514-1.855-4.514-4.138s2.132-3.8 4.916-3.8l1e-3 1e-3zm-33.41 2.984v-10.8h-1.574v22.277h1.573v-9.8c0.961-1.618 2.8-3.234 4.861-3.218 1.699 0.015 3.272 1.109 3.272 4.2v8.815h1.558v-9.147c0-3.187-1.669-5.343-4.5-5.343-2.1293 0.06102-4.0828 1.1962-5.19 3.016zm-51.107 0.645c1.1406-1.3399 2.7879-2.144 4.546-2.219 2.658 0 4.735 2.158 4.75 5.916 0 4.265-2.69 5.977-5.584 5.977-1.2939-0.0135-2.5661-0.334-3.712-0.935v-8.739zm70.171-2.187c-3.382 0-5.222 2.7-5.222 5.866 0 3.155 1.825 5.9 5.222 5.9 3.288 0 5.238-2.759 5.238-5.9 0-3.171-1.935-5.866-5.238-5.866zm-35.466 4.694c0.1868-2.6527 2.3917-4.7101 5.0509-4.713 0.0604 0 0.1214 1e-3 0.1831 3e-3 1.271 0.0251 2.4771 0.5664 3.3405 1.4995 0.8634 0.933 1.3099 2.1774 1.2365 3.4465h-9.831l0.02-0.236zm5.0509-4.713h1e-4 -1e-3 9e-4z" clip-rule="evenodd" fill="#196BDE" fill-rule="evenodd"/>
<path d="M23.772 6.691V0H17.131V6.691H23.772ZM23.772 8.654V15.346H17.131V8.654H23.772ZM6.638 24V17.308H0V24H6.638ZM15.205 17.308V24H8.564V17.308H15.205ZM23.772 17.308V24H17.131V17.308H23.772ZM15.205 15.346V8.654H8.564V15.346H15.205ZM6.638 8.654V15.346H0V8.654H6.638ZM15.2 0V6.691H8.564V0H15.2ZM6.638 6.691V0H0V6.691H6.638Z" clip-rule="evenodd" fill="#196BDE" fill-rule="evenodd"/>
<style>.2187548249bca15350e6d8b18871dba8{height:58px}</style>
</svg>
