<svg xmlns="http://www.w3.org/2000/svg" viewBox="0 0 600 150"><defs><style>.a{fill:#1269e0;}</style></defs><path class="a" d="M103.87,94.27A27.41,27.41,0,0,1,93.13,84a28.59,28.59,0,0,1-3.88-14.83,28.3,28.3,0,0,1,3.92-14.82A27.74,27.74,0,0,1,104,44,31.53,31.53,0,0,1,119.3,40.3a31.91,31.91,0,0,1,12.58,2.41,25.52,25.52,0,0,1,9.61,7L134.76,56a19.62,19.62,0,0,0-15-6.57A21,21,0,0,0,109.44,52a18.2,18.2,0,0,0-7.13,7,21.45,21.45,0,0,0,0,20.36,18.14,18.14,0,0,0,7.13,7,21,21,0,0,0,10.34,2.53,19.5,19.5,0,0,0,15-6.66l6.73,6.42a25.64,25.64,0,0,1-9.65,7A32.36,32.36,0,0,1,119.22,98,31.53,31.53,0,0,1,103.87,94.27Z"></path><path class="a" d="M181,56.79q5.22,4.73,5.22,14.25V97.2h-9.86V91.77a12.15,12.15,0,0,1-5.48,4.47,21.4,21.4,0,0,1-8.56,1.54,21,21,0,0,1-8.78-1.71,13.58,13.58,0,0,1-5.81-4.76,12.09,12.09,0,0,1-2-6.9,11.81,11.81,0,0,1,4.47-9.65q4.47-3.65,14.09-3.64h11.53v-.67c0-3.12-.93-5.51-2.8-7.19s-4.64-2.5-8.31-2.5a24,24,0,0,0-7.4,1.17,18,18,0,0,0-6.14,3.26L147,57.58a25.24,25.24,0,0,1,8.44-4.09,37.48,37.48,0,0,1,10.45-1.43Q175.74,52.06,181,56.79Zm-9.53,31.59a9.76,9.76,0,0,0,4.3-5.14V78.06H165q-9,0-9,5.93a5.35,5.35,0,0,0,2.26,4.52,10.36,10.36,0,0,0,6.27,1.67A13.49,13.49,0,0,0,171.44,88.38Z"></path><path class="a" d="M267.18,57q4.94,4.89,4.93,14.67V97.2H261.67V73c0-3.9-.87-6.84-2.59-8.82s-4.21-3-7.44-3a10.93,10.93,0,0,0-8.45,3.47Q240,68.12,240,74.55V97.2H229.57V73q0-5.85-2.59-8.82c-1.73-2-4.21-3-7.44-3a10.94,10.94,0,0,0-8.48,3.43q-3.13,3.44-3.14,10V97.2H197.47V52.57h9.95v5.68a16.2,16.2,0,0,1,6.27-4.6,21.26,21.26,0,0,1,8.36-1.59A20.11,20.11,0,0,1,231,54a14.39,14.39,0,0,1,6.14,5.55A18.61,18.61,0,0,1,244.2,54a23,23,0,0,1,9.61-2Q262.26,52.06,267.18,57Z"></path><path class="a" d="M319.8,54.91a20.45,20.45,0,0,1,8.06,8,23.81,23.81,0,0,1,2.93,11.95,24,24,0,0,1-2.93,12,20.36,20.36,0,0,1-8.06,8.06,23.63,23.63,0,0,1-11.66,2.84q-9,0-14.29-6v21.65H283.4V52.57h9.94v5.85a16.17,16.17,0,0,1,6.4-4.77,21.53,21.53,0,0,1,8.4-1.59A23.64,23.64,0,0,1,319.8,54.91ZM316.46,85a14,14,0,0,0,3.72-10.12,14,14,0,0,0-3.72-10.11A12.66,12.66,0,0,0,307,60.92a13.44,13.44,0,0,0-6.77,1.72,12.34,12.34,0,0,0-4.77,4.89,16.33,16.33,0,0,0,0,14.71,12.34,12.34,0,0,0,4.77,4.89A13.44,13.44,0,0,0,307,88.84,12.65,12.65,0,0,0,316.46,85Z"></path><path class="a" d="M370.2,56.79q5.22,4.73,5.22,14.25V97.2h-9.86V91.77a12.17,12.17,0,0,1-5.47,4.47,21.45,21.45,0,0,1-8.57,1.54,21.06,21.06,0,0,1-8.78-1.71,13.64,13.64,0,0,1-5.81-4.76,12.16,12.16,0,0,1-2-6.9,11.81,11.81,0,0,1,4.47-9.65q4.47-3.65,14.08-3.64H365v-.67a9.19,9.19,0,0,0-2.8-7.19q-2.81-2.5-8.32-2.5a24,24,0,0,0-7.4,1.17,18.05,18.05,0,0,0-6.14,3.26l-4.1-7.61a25.29,25.29,0,0,1,8.45-4.09,37.41,37.41,0,0,1,10.44-1.43Q365,52.06,370.2,56.79Zm-9.53,31.59A9.78,9.78,0,0,0,365,83.24V78.06H354.19q-9,0-9,5.93a5.34,5.34,0,0,0,2.25,4.52,10.4,10.4,0,0,0,6.27,1.67A13.46,13.46,0,0,0,360.67,88.38Z"></path><path class="a" d="M387.21,43.41a6.16,6.16,0,0,1,0-8.94,6.7,6.7,0,0,1,4.76-1.8,6.93,6.93,0,0,1,4.77,1.72,5.51,5.51,0,0,1,1.92,4.3,6.31,6.31,0,0,1-1.88,4.64A6.53,6.53,0,0,1,392,45.21,6.7,6.7,0,0,1,387.21,43.41Zm-.5,9.16h10.45V97.2H386.71Z"></path><path class="a" d="M453.07,52.57V90.43Q453.07,114,429,114a44.5,44.5,0,0,1-12.2-1.63,26,26,0,0,1-9.53-4.72L412,99.79a22.31,22.31,0,0,0,7.4,3.89,29.11,29.11,0,0,0,9.06,1.46q7.36,0,10.79-3.34t3.42-10.2V89.26a17.07,17.07,0,0,1-6.52,4.43,23,23,0,0,1-8.44,1.5,24.23,24.23,0,0,1-11.49-2.71,20.39,20.39,0,0,1-8.11-7.65,21.44,21.44,0,0,1-3-11.28,21.24,21.24,0,0,1,3-11.25,20.17,20.17,0,0,1,8.11-7.56,24.57,24.57,0,0,1,11.49-2.68,23.55,23.55,0,0,1,8.82,1.59,16.25,16.25,0,0,1,6.64,4.85V52.57ZM439,82.78a12.06,12.06,0,0,0,3.8-9.23,11.87,11.87,0,0,0-3.8-9.12,15.38,15.38,0,0,0-19.56,0,11.84,11.84,0,0,0-3.8,9.12,12,12,0,0,0,3.8,9.23,15.25,15.25,0,0,0,19.56,0Z"></path><path class="a" d="M503.56,57q5.08,4.92,5.09,14.62V97.2H498.21V73q0-5.85-2.76-8.82c-1.84-2-4.46-3-7.86-3a12.08,12.08,0,0,0-9.11,3.47q-3.35,3.48-3.34,10V97.2H464.69V52.57h9.95v5.76a16.24,16.24,0,0,1,6.52-4.68A23.38,23.38,0,0,1,490,52.06Q498.46,52.06,503.56,57Z"></path><path class="a" d="M562.06,78.23H527A12.14,12.14,0,0,0,531.85,86a15.76,15.76,0,0,0,9.65,2.88,16.27,16.27,0,0,0,12.12-4.84l5.6,6.43a18.86,18.86,0,0,1-7.6,5.44,27.85,27.85,0,0,1-10.37,1.83,27.56,27.56,0,0,1-13-2.92,21,21,0,0,1-8.65-8.15,22.94,22.94,0,0,1-3.06-11.83,23.33,23.33,0,0,1,3-11.74A21.07,21.07,0,0,1,527.79,55a24.06,24.06,0,0,1,11.87-2.93A23.42,23.42,0,0,1,551.32,55a20.35,20.35,0,0,1,8,8.11,24.6,24.6,0,0,1,2.88,12.07C562.23,75.86,562.17,76.89,562.06,78.23ZM531.18,63.39a12.49,12.49,0,0,0-4.22,7.9h25.32a12.33,12.33,0,0,0-4.09-7.86,13.59,13.59,0,0,0-17,0Z"></path><path class="a" d="M596,52.06V62a13,13,0,0,0-2.42-.25q-6.11,0-9.53,3.55t-3.43,10.24V97.2H570.17V52.57h10v6.52Q584.64,52.05,596,52.06Z"></path><polygon class="a" points="34.74 72.44 2 56.85 2 91.32 34.74 72.44"></polygon><path class="a" d="M2,99.07H73.09a6.22,6.22,0,0,0,6.46-6V52.65Zm66.35-7.75H30.44l41.36-25V87.87A3.46,3.46,0,0,1,68.35,91.32Z"></path><path class="a" d="M2,41.34v7.78L40.78,68.05,79.55,44.79V41.34ZM40.78,59.43,19.23,49.09H58Z"></path><style>.08f1757fb024d4f6235e19ac92486909{height:67px}</style>
</svg>