<?xml version="1.0" encoding="UTF-8"?>
<svg clip-rule="evenodd" fill-rule="evenodd" image-rendering="optimizeQuality" shape-rendering="geometricPrecision" text-rendering="geometricPrecision" version="1.1" viewBox="0 0 2648 494" xmlns="http://www.w3.org/2000/svg">
<path d="m204.5 102.5c56.055-2.17 102.22 17.83 138.5 60 4.837 7.004 9.171 14.337 13 22 1.843 3.515 2.843 7.182 3 11-20.887 10.68-42.053 20.68-63.5 30-8.62-24.454-24.953-41.621-49-51.5-36.102-11.608-69.102-5.941-99 17-21.899 20.304-33.733 45.471-35.5 75.5-3.061 29.698 2.939 57.365 18 83 26.326 34.895 61.159 48.395 104.5 40.5 29.928-8.092 50.594-26.592 62-55.5 20.667 10 41.333 20 62 30 0.333 0.667 0.667 1.333 1 2-14.747 36.58-40.413 62.414-77 77.5-56.755 21.598-111.42 17.264-164-13-47.076-31.957-73.243-76.457-78.5-133.5-5.0002-59.352 13.5-109.85 55.5-151.5 31.412-26.75 67.746-41.25 109-43.5z" fill="#f24e1d" opacity=".992"/>
<path d="m977.5 102.5h70v349h-70v-349z" fill="#f24e1c" opacity=".986"/>
<path d="m1378.5 102.5h70c-0.17 39.001 0 78.001 0.5 117 24.54-20.063 52.71-28.229 84.5-24.5 56.48 8.473 93.31 39.973 110.5 94.5 11.48 48.402 1.15 91.402-31 129-40.21 38.112-86.71 48.279-139.5 30.5-11.09-4.625-20.92-11.125-29.5-19.5-0.5 7.326-0.67 14.659-0.5 22h-65v-349zm124 155c45.87-0.448 70.53 21.885 74 67 0.4 28.043-11.26 49.21-35 63.5-22.72 9.705-44.72 8.371-66-4-18.39-14.785-27.39-34.118-27-58 0.28-37.152 18.28-59.986 54-68.5z" fill="#f14e1d" opacity=".991"/>
<path d="m2237.5 102.5h70c-0.17 62.001 0 124 0.5 186 28.2-29.198 56.03-58.698 83.5-88.5 28.67-0.833 57.34-0.667 86 0.5-30.15 33.982-60.48 67.816-91 101.5 30.38 49.251 60.38 98.751 90 148.5-26.33 1.167-52.66 1.333-79 0.5-21.04-35.25-42.21-70.416-63.5-105.5-8.43 9.855-17.1 19.522-26 29-0.5 25.665-0.67 51.331-0.5 77h-70v-349z" fill="#f24e1d" opacity=".991"/>
<path d="m399.5 108.5h70v70h-70v-70z" fill="#f24e1d" opacity=".972"/>
<path d="m805.5 194.5c44.177-4.003 81.677 9.664 112.5 41 8.809 10.327 15.309 21.993 19.5 35-0.74 2.394-2.407 3.894-5 4.5-18.24 7.704-36.407 15.538-54.5 23.5-16.298-35.892-43.465-48.058-81.5-36.5-20.478 9.824-32.645 25.991-36.5 48.5-4.279 23.624 0.721 44.958 15 64 19.813 19.669 42.98 24.835 69.5 15.5 16.401-7.563 27.734-19.73 34-36.5 19.882 9.108 39.882 17.941 60 26.5-12.217 33.218-34.884 56.218-68 69-45.47 15.171-88.47 10.171-129-15-48.413-38.573-64.913-88.073-49.5-148.5 19.3-53.468 57.133-83.801 113.5-91z" fill="#f24e1d" opacity=".991"/>
<path d="m1200.5 194.5c33.05-2.961 63.39 4.539 91 22.5 35.78 30.098 51.28 68.598 46.5 115.5-0.23 4.326-1.06 8.493-2.5 12.5-58.67 0.167-117.34 0.667-176 1.5 6.39 33.057 26.39 49.723 60 50 22.47 0.351 39.97-8.649 52.5-27 18.59 8.713 37.09 17.546 55.5 26.5-16.68 32.986-43.34 52.653-80 59-36.14 6.643-70.14 0.976-102-17-38.71-27.238-58.04-64.738-58-112.5 0.88-60.01 28.88-101.51 84-124.5 9.62-2.993 19.29-5.16 29-6.5zm5 56c22.16-2.497 39.66 5.17 52.5 23 3.68 6.546 5.85 13.546 6.5 21-34.34 0.333-68.67 0-103-1 5.54-23.874 20.21-38.207 44-43z" fill="#f24e1d" opacity=".992"/>
<path d="m1783.5 194.5c30.92-2.934 59.59 3.566 86 19.5 20.87 15.232 33.04 35.732 36.5 61.5 0.5 58.666 0.67 117.33 0.5 176h-65c0.17-7.341 0-14.674-0.5-22-15.18 14.74-33.35 23.574-54.5 26.5-27.01 4.224-52.67 0.224-77-12-21.22-13.933-31.89-33.767-32-59.5 0.49-27.831 12.49-48.998 36-63.5 12.51-7.171 25.85-12.171 40-15 27.61-4.934 55.27-9.434 83-13.5 0.8-20.704-8.87-33.537-29-38.5-30.72-4.144-52.72 7.689-66 35.5-18.49-8.744-36.82-17.744-55-27 11.6-28.761 31.93-48.595 61-59.5 11.85-4.065 23.85-6.898 36-8.5zm47 150h6c1.34 32.527-13.66 52.693-45 60.5-9.17 1.136-18.17 0.469-27-2-12.11-5.729-16.61-15.229-13.5-28.5 4.55-10.878 12.71-17.378 24.5-19.5 18.51-3.304 36.84-6.804 55-10.5z" fill="#f24e1d" opacity=".991"/>
<path d="m2065.5 194.5c46.15-3.907 84.65 11.093 115.5 45 7.19 9.553 12.69 20.053 16.5 31.5-0.32 1.653-1.32 2.653-3 3-19.04 8.069-38.04 16.236-57 24.5-12.37-29.857-34.7-43.357-67-40.5-30.01 7.016-47.18 25.85-51.5 56.5-3.87 26.743 3.97 49.243 23.5 67.5 24.42 16.278 49.09 16.612 74 1 9.59-8.031 16.59-17.864 21-29.5 20.45 8.393 40.45 17.56 60 27.5-17.59 43.234-49.59 68.234-96 75-60.7 7.557-107.2-14.277-139.5-65.5-16.02-31.491-20.02-64.491-12-99 17.7-57.211 56.2-89.545 115.5-97z" fill="#f24e1d" opacity=".991"/>
<path d="m637.5 197.5h30v60c-9.006-0.166-18.006 0-27 0.5-21.337 1.348-36.837 11.514-46.5 30.5-1.802 4.875-3.135 9.875-4 15-0.5 49.332-0.667 98.666-0.5 148h-70v-252h65c-0.167 11.671 0 23.338 0.5 35 3.586-9.575 9.419-17.408 17.5-23.5 10.821-6.991 22.487-11.491 35-13.5z" fill="#f14e1d" opacity=".994"/>
<path d="m399.5 199.5h70v252h-70v-252z" fill="#f24e1d" opacity=".986"/>
<path d="m2573.5 359.5c28.44-3.025 46.94 8.975 55.5 36 3.51 28.46-8.32 46.96-35.5 55.5-28.46 3.513-46.96-8.321-55.5-35.5-3.3-28.486 8.53-47.152 35.5-56z" fill="#4262ff" opacity=".987"/>
<style>.43c3f87da6eaa682db314bb534ee1fda{height:34px}</style>
</svg>
