<?xml version="1.0" encoding="UTF-8"?>
<svg fill="none" viewBox="0 0 216 30" xmlns="http://www.w3.org/2000/svg">
<path d="M24.008.5H4.632C2.074.5 0 2.6 0 5.19v19.62c0 2.59 2.074 4.69 4.632 4.69h19.376c2.558 0 4.632-2.1 4.632-4.69V5.19C28.64 2.6 26.566.5 24.008.5" fill="#6B30C7"/>
<path d="M19.572 14.806c2.622 0 4.748-2.152 4.748-4.808S22.194 5.19 19.572 5.19s-4.748 2.153-4.748 4.808c0 1.328.53 2.53 1.39 3.4l-1.39 1.408h4.632v-.001z" clip-rule="evenodd" fill="url(#e)" fill-rule="evenodd"/>
<path d="M16.511 24.799a.465.465 0 0 1-.457.396H8.782a.465.465 0 0 1-.458-.396l-2.2-14.242a.467.467 0 0 1 .458-.541h11.67c.285 0 .502.257.458.541z" fill="url(#c)"/>
<path d="M13.434 14.807H9.959a.233.233 0 0 0-.231.234v.938c0 .13.104.235.231.235h3.475a.233.233 0 0 0 .231-.235v-.938a.233.233 0 0 0-.231-.234m2.316 3.049H9.96a.233.233 0 0 0-.232.234v.938c0 .13.104.235.231.235h5.79a.233.233 0 0 0 .232-.235v-.938a.233.233 0 0 0-.231-.235m0 3.049H9.96a.233.233 0 0 0-.232.235v.938c0 .13.104.234.231.234h5.79a.233.233 0 0 0 .232-.234v-.938a.233.233 0 0 0-.231-.235" fill="#fff"/>
<mask id="d" x="0" y="0" width="13" height="16" style="mask-type:alpha" maskUnits="userSpaceOnUse">
<path d="M16.511 24.799a.465.465 0 0 1-.457.396H8.782a.465.465 0 0 1-.458-.396l-2.2-14.242a.467.467 0 0 1 .458-.541h11.67c.285 0 .502.257.458.541z" fill="url(#c)"/>
</mask>
<g mask="url(#d)">
<path d="M19.572 14.806c2.622 0 4.748-2.152 4.748-4.808S22.194 5.19 19.572 5.19s-4.749 2.153-4.749 4.808c0 1.328.532 2.53 1.391 3.4l-1.39 1.408h4.632v-.001z" clip-rule="evenodd" fill="#fff" fill-rule="evenodd"/>
</g>
<path d="M36.488 15.154c0-4.825 3.296-8.68 8.284-8.68 3.763 0 6.59 2.119 7.414 5.569l-3.05.856c-.557-2.232-1.982-3.584-4.364-3.584-3.274 0-5.122 2.705-5.122 5.84 0 3.156 1.76 5.839 5.1 5.839 2.426 0 4.03-1.376 4.542-3.563l3.05.857c-1.024 3.562-3.807 5.546-7.593 5.546-5.21 0-8.26-3.81-8.26-8.68m23.092-3.089c3.43 0 5.946 2.503 5.946 5.885 0 3.405-2.516 5.885-5.946 5.885-3.428 0-5.945-2.48-5.945-5.885 0-3.382 2.517-5.885 5.945-5.885m0 2.616c-1.825 0-3.005 1.308-3.005 3.27 0 1.983 1.18 3.29 3.005 3.29 1.804 0 3.007-1.307 3.007-3.29 0-1.963-1.203-3.27-3.007-3.27m8.34 8.929V12.312h2.538l.178 1.128c.869-.902 2.004-1.376 3.273-1.376 2.36 0 4.387 1.624 4.387 4.735v6.81h-2.806V17.25c0-1.69-.957-2.548-2.27-2.548-1.18 0-2.472.632-2.472 2.548v6.358zm11.859-9.628 4.164-4.239h.757v2.57h3.874v2.48h-3.874v4.803c0 1.172.579 1.623 1.58 1.623.49 0 .958-.135 1.515-.383l.623 2.345a6.15 6.15 0 0 1-2.76.654c-2.36 0-3.764-1.33-3.764-3.585v-5.456H79.78zm15.614 9.853c-3.696 0-5.9-2.458-5.9-5.817 0-3.427 2.382-5.953 5.767-5.953 3.273 0 5.544 2.233 5.544 5.48 0 .405-.044.856-.134 1.284h-8.305c.29 1.759 1.425 2.548 3.028 2.548 1.47 0 2.316-.654 2.695-1.623l2.605.541c-.668 2.232-2.605 3.54-5.3 3.54m-.133-9.402c-1.292 0-2.405.699-2.806 2.21h5.389c-.245-1.444-1.158-2.21-2.583-2.21m8.017 9.177V12.312h2.538l.178 1.128c.869-.902 2.005-1.376 3.274-1.376 2.36 0 4.386 1.624 4.386 4.735v6.81h-2.805V17.25c0-1.69-.958-2.548-2.272-2.548-1.18 0-2.471.632-2.471 2.548v6.358zm11.859-9.628 4.164-4.239h.757v2.57h3.874v2.48h-3.874v4.803c0 1.172.579 1.623 1.581 1.623.49 0 .957-.135 1.514-.383l.623 2.345a6.15 6.15 0 0 1-2.761.654c-2.36 0-3.763-1.33-3.763-3.585v-5.456h-2.115zm22.806-3.089-3.073.811c-.334-1.533-1.425-2.525-3.14-2.525-1.892 0-2.983.79-2.983 2.097 0 1.556 1.736 1.894 3.696 2.345 2.583.564 5.544 1.398 5.544 5.005 0 3.202-2.538 5.208-6.257 5.208-3.741 0-5.99-1.736-6.813-4.824l3.095-.857c.467 2.074 1.826 2.93 3.741 2.93 1.736 0 3.117-.698 3.117-2.344 0-1.6-1.693-1.939-3.629-2.367-2.606-.564-5.656-1.24-5.656-4.96 0-2.887 2.738-4.938 6.168-4.938 3.273 0 5.455 1.578 6.19 4.419m2.605 12.717V6.7h2.829v6.628a4.45 4.45 0 0 1 3.161-1.263c2.361 0 4.387 1.624 4.387 4.735v6.81h-2.806v-6.36c0-1.691-.958-2.548-2.271-2.548-1.18 0-2.471.654-2.471 2.548v6.358zm20.143 0-.178-1.579c-.824 1.127-2.094 1.804-3.674 1.804-2.005 0-3.608-1.173-3.608-3.337 0-2.323 1.96-3.224 4.32-3.765l2.85-.654c-.244-1.15-1.024-1.624-2.16-1.624-1.291 0-2.115.564-2.405 1.737l-2.671-.497c.534-2.142 2.315-3.63 5.121-3.63 2.962 0 4.899 1.579 4.899 4.735v6.81zm-4.587-3.293c0 .767.512 1.173 1.336 1.173 1.492 0 3.028-.97 3.028-3.021v-.27l-2.761.698c-.957.226-1.603.564-1.603 1.42m17.229-8.004h3.362l-4.364 5.05 4.408 6.246h-3.273l-3.384-4.87h-1.047v4.87h-2.827V6.7h2.827v9.312h1.203zm9.628 11.522c-3.697 0-5.901-2.458-5.901-5.817 0-3.427 2.382-5.953 5.767-5.953 3.273 0 5.544 2.233 5.544 5.48 0 .405-.044.856-.133 1.284h-8.306c.29 1.759 1.426 2.548 3.029 2.548 1.469 0 2.315-.654 2.694-1.623l2.605.541c-.668 2.232-2.605 3.54-5.299 3.54m-.134-9.402c-1.291 0-2.405.699-2.806 2.21h5.389c-.245-1.444-1.158-2.21-2.583-2.21m11.596 9.177 6.391-16.91h3.295l6.368 16.91h-3.228l-1.826-5.074h-6.057l-1.848 5.073zm5.923-7.802h4.075l-2.026-5.614zm12.604 7.802V6.7H216v16.91z" fill="#000"/>
<defs>
<linearGradient id="e" x1="16.214" x2="23.013" y1="13.397" y2="6.683" gradientUnits="userSpaceOnUse">
<stop stop-color="#FF90EB" offset=".031"/>
<stop stop-color="#FFC7F5" offset=".969"/>
</linearGradient>
<linearGradient id="c" x1="15.891" x2="12.822" y1="25.195" y2="12.954" gradientUnits="userSpaceOnUse">
<stop stop-color="#A2EFD3" offset="0"/>
<stop stop-color="#45E0A8" offset="1"/>
</linearGradient>
</defs>
<style>.9862e46432066fd0689118626b62bd2e{height:48px}</style>
</svg>
