<?xml version="1.0" encoding="UTF-8"?>
<svg version="1.1" viewBox="0 0 486.67 68.133" xmlns="http://www.w3.org/2000/svg">
<g transform="matrix(1.3333 0 0 -1.3333 0 68.133)">
<g transform="scale(.1)">
<path d="m665.84 443.59h135.82c132.02 0 242.19-56.035 242.19-206.1 0-132.97-108.27-203.25-230.79-203.25h-147.22zm90.227-326.72h46.539c83.578 0 147.21 32.293 147.21 125.37 0 80.731-64.586 117.77-140.57 117.77h-53.187v-243.14" fill="#212e3f"/>
<path d="m1090.4 314.42h86.43v-45.586h0.95c18.04 34.191 42.74 52.234 80.73 52.234 9.5 0 20.89-0.949 28.49-2.847v-78.832c-12.34 3.8-24.69 5.699-37.04 5.699-65.53 0-74.08-37.988-74.08-94.027v-117.77h-86.43v281.13h0.95" fill="#212e3f"/>
<path d="m1583.3 82.68c-27.54-35.141-73.13-56.035-118.72-56.035-86.43 0-156.71 57.934-156.71 147.21 0 89.278 69.33 147.21 156.71 147.21 80.73 0 132.02-57.933 132.02-147.21v-27.543h-201.35c6.64-33.242 32.29-54.136 65.53-54.136 28.49 0 47.49 14.246 61.73 34.191zm-74.08 123.47c0.95 28.497-21.85 53.188-53.19 53.188-37.99 0-58.88-25.645-61.73-53.188h114.92" fill="#212e3f"/>
<path d="m1815 69.383h-0.95c-18.99-30.391-54.13-41.789-89.28-41.789-52.23 0-99.72 30.394-99.72 86.429 0 96.875 117.77 98.774 189.95 98.774 0 30.394-25.64 50.34-56.03 50.34-28.5 0-52.24-12.348-70.29-33.242l-46.53 47.488c32.29 30.39 77.88 45.59 123.46 45.59 101.63 0 128.22-51.289 128.22-145.32v-143.41h-79.78v35.141zm-20.89 87.379c-26.6 0-85.48-1.899-85.48-40.84 0-20.895 21.84-30.391 40.84-30.391 34.19 0 65.53 18.043 65.53 52.235v18.996h-20.89" fill="#212e3f"/>
<path d="m1949.9 314.42h83.58v-37.988h0.95c11.4 21.843 39.89 45.589 82.63 45.589 38.94 0 72.18-16.148 86.43-50.339 19.94 36.089 47.48 50.339 89.27 50.339 75.99 0 99.73-54.136 99.73-122.52v-166.21h-86.43v164.31c0 25.644-9.5 48.437-37.99 48.437-39.89 0-52.24-28.492-52.24-62.684v-149.11h-88.32v148.16c0 20.895 0.95 62.684-38.95 62.684-45.58 0-52.23-35.141-52.23-72.184v-139.61h-86.43v281.13" fill="#212e3f"/>
<path d="m2446.6 443.59h90.22v-152.91h175.71v152.91h90.23v-410.3h-90.23v177.6h-175.71v-177.6h-90.22v410.3" fill="#212e3f"/>
<path d="m2997.5 322.02c86.43 0 156.71-57.937 156.71-147.21 0-89.278-69.33-147.22-156.71-147.22-86.43 0-156.71 57.938-156.71 147.22 0.95 89.277 70.28 147.21 156.71 147.21m0-219.4c43.69 0 69.33 28.492 69.33 71.234 0 41.789-25.64 71.231-69.33 71.231s-69.33-28.492-69.33-71.231c0-41.793 26.59-71.234 69.33-71.234" fill="#212e3f"/>
<path d="m3352.7 231.79c-12.34 15.195-29.44 23.746-50.33 23.746-14.25 0-32.3-6.648-32.3-22.797 0-41.789 146.27-6.648 146.27-113.02 0-72.184-69.33-92.129-130.12-92.129-38.94 0-82.63 9.5-110.17 37.992l52.23 58.883c16.15-19.946 35.15-30.391 61.74-30.391 19.94 0 38.94 4.75 38.94 19.945 0 45.59-146.26 6.649-146.26 113.97 0 65.531 58.88 94.977 117.77 94.977 37.04 0 77.88-9.5 104.47-37.043l-52.24-54.137" fill="#212e3f"/>
<path d="m3650 245.09h-75.98v-94.027c0-30.391 3.8-52.235 40.84-52.235 9.5 0 27.54 0.9492 35.14 8.5469v-72.184c-19-6.6484-40.84-8.5469-60.78-8.5469-57.94 0-102.58 23.746-102.58 85.476v132.97h-56.04v69.332h56.04v83.582h86.43v-83.582h75.98v-69.332h0.95" fill="#212e3f"/>
<path d="m511.02 127.32c-41.789-23.746-90.226-36.093-142.46-35.14-152.91 2.8476-273.53 126.32-270.68 276.38 0.9492 50.339 16.145 97.828 41.789 137.72-81.68-45.589-137.71-131.07-139.61-229.84-2.8516-149.11 117.77-272.58 270.68-276.38 100.67-1.8984 189.95 49.387 240.29 127.27" fill="#212e3f"/>
<path d="m365.71 124.47h4.746c39.891 0 78.832 9.5 113.97 28.496 20.894 35.14 32.293 75.98 32.293 119.67 0 132.02-106.38 238.39-237.44 238.39-41.789 0-80.73-10.445-113.97-29.441-21.844-35.141-34.192-75.98-35.141-117.77-1.898-129.17 103.52-236.49 235.54-239.34" fill="#4d95c3"/>
</g>
</g>
<style>.3c08106fcd51bbb09c4b372f5f52316f{height:19px}</style>
</svg>
