<?xml version="1.0" encoding="UTF-8"?>
<svg version="1.1" viewBox="66.85 557.47 3705.5 1044.8" xmlns="http://www.w3.org/2000/svg">
<path transform="translate(421.81 957.72)" d="m0 0c5.089 0.0025081 10.178-0.0065956 15.267-0.014037 9.9176-0.01263 19.835-0.014556 29.753-0.0122 8.0593 0.0017937 16.119 1.12e-5 24.178-0.0042244 1.1533-5.9519e-4 2.3066-0.0011904 3.4949-0.0018036 2.3437-0.0012119 4.6874-0.002426 7.0311-0.0036424 21.877-0.010827 43.755-0.0087341 65.632-0.0026152 20.006 0.0051856 40.012-0.006138 60.018-0.025098 20.593-0.019366 41.186-0.027638 61.78-0.023877 11.542 0.0019112 23.084-5.6944e-4 34.626-0.014715 9.8061-0.011898 19.612-0.013335 29.418-0.0012098 4.9997 0.0058948 9.9993 0.0069707 14.999-0.0050024 4.5773-0.010835 9.1543-0.0077845 13.732 0.0062617 1.654 0.0026532 3.308 2.6094e-4 4.962-0.0077359 19.336-0.086991 19.336-0.086991 26.305 6.011 2.7298 4.6065 3.5882 9.1711 2.6099 14.5-0.63783 2.1424-1.3741 4.2155-2.1685 6.3047-0.56406 1.5816-1.1277 3.1633-1.6909 4.7451-0.29187 0.79982-0.58374 1.5996-0.88446 2.4237-1.3706 3.8007-2.6323 7.6363-3.9012 11.472-0.50404 1.5093-1.0086 3.0184-1.5137 4.5273-0.24951 0.74653-0.49903 1.4931-0.7561 2.2622-0.5063 1.5139-1.0131 3.0275-1.5205 4.541-2.6249 7.8319-5.2136 15.668-7.6394 23.564-2.9941 9.7117-6.4477 19.259-9.8784 28.823-3.215 8.9772-6.2345 17.952-8.8583 27.121-1.9648 6.809-4.3468 13.443-6.7985 20.091-2.7066 7.4481-5.3904 14.859-7.5 22.5-2.4642 8.922-5.6728 17.578-8.8477 26.268-2.4732 6.7973-4.7141 13.594-6.6641 20.561-1.7885 4.8348-4.706 6.586-9.2957 8.7693-3.0945 1.0371-5.5735 1.1526-8.8357 1.1529-1.243 0.0049987-2.4861 0.0099974-3.7668 0.015148-1.3767-0.0045404-2.7534-0.0092571-4.13-0.014131-1.4648 0.0021386-2.9295 0.0051641-4.3943 0.0090004-4.0263 0.0080464-8.0525 0.0037301-12.079-0.0025188-4.3425-0.0045303-8.6849 0.0025049-13.027 0.0083041-7.5279 0.0086384-15.056 0.01044-22.584 0.0080528-10.903-0.0030977-21.805 0.0085425-32.708 0.02455-17.713 0.025975-35.426 0.045985-53.139 0.059454-1.0604 8.1037e-4 -2.1207 0.0016207-3.2132 0.0024557-15.027 0.011206-30.053 0.016499-45.08 0.019387-1.0567 2.0399e-4 -2.1134 4.0798e-4 -3.2022 6.1815e-4 -1.0554 1.9994e-4 -2.1109 3.9987e-4 -3.1983 6.0587e-4 -17.632 0.0037396-35.264 0.022873-52.895 0.054488-10.866 0.01887-21.732 0.024904-32.598 0.014183-7.4578-0.0063436-14.916 0.00179-22.373 0.021054-4.2958 0.01063-8.5913 0.014923-12.887 0.0015285-23.608-0.32172-23.608-0.32172-46.582 4.5273-1.0646 0.33159-2.1292 0.66319-3.2261 1.0048-6.4997 2.0859-12.106 5.2313-17.774 8.9952-0.90879 0.58652-1.8176 1.173-2.7539 1.7773-7.0753 4.812-12.185 10.357-17.246 17.223-0.40364 0.52553-0.80728 1.0511-1.2231 1.5925-3.3221 4.4344-5.6949 9.0231-7.9019 14.095-0.51929 1.1831-0.51929 1.1831-1.0491 2.3901-2.6438 6.1767-4.6359 12.295-5.8259 18.922-0.12891 0.68836-0.25781 1.3767-0.39062 2.0859-0.30671 1.9774-0.4864 3.9167-0.60938 5.9141-0.079277 1.2839-0.079277 1.2839-0.16016 2.5938-0.40976 13.255 2.4448 25.506 8.1602 37.406 0.46535 1.0196 0.9307 2.0393 1.4102 3.0898 3.8718 8.1876 8.5454 15.018 15.027 21.348l2.5625 2.5625v2c0.57363 0.26555 1.1473 0.53109 1.7383 0.80469 2.3631 1.2489 4.3233 2.7024 6.4492 4.3203 16.962 11.966 36.038 17.027 56.599 17.02 1.1712 0.0035268 2.3424 0.0070537 3.5491 0.010687 3.2331 0.0087981 6.4662 0.013239 9.6994 0.015843 3.4935 0.0039118 6.987 0.013548 10.481 0.022557 6.048 0.014905 12.096 0.026464 18.144 0.035948 8.7498 0.013899 17.5 0.035089 26.249 0.058429 14.204 0.037876 28.409 0.072854 42.613 0.1046 0.84948 0.0019005 1.699 0.003801 2.5742 0.0057591 12.066 0.026855 24.132 0.050727 36.198 0.073385 0.85039 0.0015973 1.7008 0.0031946 2.5769 0.0048403 0.84935 0.0015935 1.6987 0.0031869 2.5738 0.0048287 14.156 0.026756 28.312 0.061146 42.468 0.10183 8.7297 0.024779 17.459 0.043104 26.189 0.053156 5.9776 0.0073845 11.955 0.021901 17.933 0.042064 3.4497 0.011402 6.8994 0.019525 10.349 0.018992 3.7376 0.0010781 7.475 0.014286 11.213 0.030584 1.6392-0.0039253 1.6392-0.0039253 3.3115-0.0079299 1.0013 0.0068488 2.0025 0.013698 3.0342 0.020754 0.86256 0.0017362 1.7251 0.0034725 2.6138 0.0052614 5.6354 0.5845 8.7649 3.0617 12.446 7.2537 2.7947 8.384 0.41552 15.427-2.6602 23.41-1.2114 3.2456-2.1536 6.4287-3.0273 9.7773-2.3318 8.4889-5.5345 16.658-8.696 24.868-1.9712 5.1859-3.7754 10.266-5.0266 15.675-1.9366 8.2261-5.0218 16.05-7.9648 23.957-3.5914 9.6577-7.0029 19.283-9.8283 29.195-1.9761 6.8831-4.38 13.588-6.8592 20.305-2.5302 6.8621-4.9545 13.685-6.9023 20.738-2.2713 8.1706-5.2518 16.048-8.2534 23.97-3.0039 7.9515-5.6397 15.807-7.6118 24.081-2.0552 5.3112-6.1087 8.6208-11.17 11.023-3.0768 0.43438-6.124 0.40483-9.2272 0.38095-1.3989 0.00702-1.3989 0.00702-2.8261 0.014182-3.1277 0.011973-6.255 0.0024829-9.3828-0.0069491-2.2426 0.0040653-4.4852 0.0094069-6.7278 0.01593-6.1005 0.013702-12.201 0.0083585-18.301-0.0011372-6.4042-0.0076023-12.808-5.4749e-4 -19.213 0.0041585-11.47 0.0058148-22.94-0.0035236-34.41-0.018778-10.343-0.013333-20.686-0.011135-31.029 0.0027563-12.044 0.016168-24.087 0.021966-36.131 0.013163-6.3618-0.0046395-12.724-0.0054073-19.085 0.0046095-51.443 0.069931-51.443 0.069931-72.667-3.4089-1.3323-0.21234-1.3323-0.21234-2.6915-0.42898-5.294-0.85294-10.553-1.8187-15.809-2.8835-0.76029-0.1509-1.5206-0.3018-2.3039-0.45728-11.667-2.324-23.049-5.0141-34.196-9.2302-0.76925-0.28907-1.5385-0.57814-2.3311-0.87598-4.4943-1.702-8.9618-3.4631-13.421-5.2554-2.5231-0.97483-5.0726-1.8549-7.6272-2.7437-5.6294-2.0332-10.805-4.6504-16.059-7.5-1.838-0.98281-3.6765-1.9646-5.5156-2.9453-0.87076-0.46567-1.7415-0.93135-2.6387-1.4111-2.9998-1.5802-6.0383-3.0532-9.0957-4.5186-4.5231-2.2392-8.5353-4.858-12.609-7.8281-3.2062-2.2795-6.5054-4.3804-9.8281-6.4844-11.799-7.5235-11.799-7.5235-14.875-10.438v-2l-2-0.5625c-3.4114-1.6346-5.6885-3.6297-8.4688-6.1641-2.0138-1.8087-4.0494-3.5611-6.125-5.2969-0.63237-0.53125-1.2647-1.0625-1.9163-1.6099-1.273-1.0677-2.5495-2.1313-3.8296-3.1904-4.5487-3.8412-4.5487-3.8412-5.6604-7.1763l-1.9375-0.9375c-2.563-1.3203-2.8032-2.544-4.0625-5.0625-0.59168-0.27586-1.1834-0.55172-1.793-0.83594-2.8251-1.4901-4.4239-3.3845-6.5195-5.7891-0.78891-0.90105-1.5778-1.8021-2.3906-2.7305-1.137-1.309-1.137-1.309-2.2969-2.6445-0.61359-0.67676-1.2272-1.3535-1.8594-2.0508-4.0239-4.4577-7.5665-9.166-11.051-14.055-2.0729-2.8711-4.2316-5.6594-6.4023-8.457-10.12-13.493-18.13-28.399-25.688-43.438-0.427-0.84466-0.854-1.6893-1.2939-2.5596-5.8762-11.704-10.841-23.455-14.875-35.915-0.83212-2.5291-1.7133-5.0366-2.6045-7.5454-15.546-44.776-18.666-96.32-11.227-142.98 0.20399-1.2796 0.40799-2.5591 0.61816-3.8774 2.8398-17.436 6.5424-34.415 12.382-51.123 0.34966-1.0053 0.69932-2.0106 1.0596-3.0464 4.2598-12.1 8.9494-23.763 14.97-35.091 0.9922-1.9035 1.9326-3.8255 2.8613-5.7607 7.5311-15.648 16.716-30.204 27.109-44.102 0.41637-0.56058 0.83273-1.1212 1.2617-1.6987 5.55-7.4477 11.422-14.486 17.738-21.301 0.81855-0.91008 1.6371-1.8202 2.4805-2.7578 5.2699-5.8382 10.676-11.525 16.207-17.117 0.60538-0.61835 1.2108-1.2367 1.8345-1.8738 3.6739-3.6814 7.4901-6.8697 11.695-9.929 2.1286-1.5782 4.0473-3.3142 5.9709-5.1348 5.0195-4.5288 10.516-8.2708 16.114-12.033 1.6933-1.1509 3.3658-2.3269 5.0342-3.5137 5.7147-4.0561 11.451-7.796 17.664-11.047 2.2807-1.2116 4.5168-2.4559 6.75-3.75 7.4815-4.3268 14.886-8.1695 22.895-11.445 3.3064-1.378 6.5076-2.899 9.7305-4.4609 6.6493-3.0918 13.468-5.2164 20.479-7.2856 2.1715-0.65946 4.3228-1.3645 6.4746-2.0854 17.517-5.8327 35.727-10.794 54.196-12.158 2.8345-0.21025 5.6685-0.4236 8.5017-0.65112 22.274-1.7711 44.444-2.0538 66.779-2.0331z" fill="#1156CF"/>
<path transform="translate(3485.1 837.93)" d="m0 0c13.551-0.39837 27.061 0.73699 40.561 1.8062 2.0268 0.15995 4.0541 0.31454 6.082 0.45898 20.59 1.4755 40.489 6.7261 60.146 12.806 0.66374 0.20311 1.3275 0.40622 2.0113 0.61548 9.0565 2.7908 17.583 6.2564 26.114 10.385 1.6894 0.77392 3.3807 1.5438 5.0742 2.3086 7.5379 3.4586 14.798 6.824 21.438 11.859 3.8542 2.8377 7.9404 5.314 12.021 7.8125 1.5228 0.95493 3.0002 1.9814 4.4675 3.0195v2c0.51949 0.2127 1.039 0.42539 1.5742 0.64453 3.4498 1.9277 6.2658 4.4546 9.2383 7.043 0.62656 0.54237 1.2531 1.0847 1.8987 1.6436 4.2747 3.7253 8.4406 7.4984 12.289 11.669 0.53367 0.57492 1.0673 1.1498 1.6172 1.7422 14.494 16.097 27.565 34.635 36.527 54.382 0.84366 1.8485 1.7235 3.676 2.6099 5.5044 12.92 27.299 19.883 58.892 20.684 89.059 0.034563 0.74298 0.069126 1.486 0.10474 2.2515 0.030377 3.9653-0.48373 6.4766-2.9446 9.5181-3.4216 3.3496-4.8362 3.6681-9.4741 3.6969-1.0305 0.0086005-2.0609 0.017201-3.1226 0.026062-1.7026 0.0063899-1.7026 0.0063899-3.4397 0.012909-1.1919 0.0081775-2.3839 0.016355-3.612 0.02478-3.9584 0.024885-7.9167 0.041527-11.875 0.055786-1.3626 0.0053597-2.7251 0.010737-4.0877 0.016132-5.6678 0.021628-11.336 0.040365-17.003 0.051622-8.1232 0.01624-16.246 0.049418-24.369 0.1064-5.7113 0.038699-11.423 0.058232-17.134 0.06352-3.4114 0.0036537-6.8223 0.015675-10.234 0.048103-3.8069 0.0315-7.6127 0.03171-11.42 0.024281-1.6935 0.024608-1.6935 0.024608-3.4213 0.049713-7.6522-0.06127-7.6522-0.06127-11.582-3.0447-2.4798-3.5205-3.0048-5.7651-3.4173-10.045-2.1771-22.231-9.7208-42.573-24.406-59.544-0.86046-1.0473-1.7198-2.0955-2.5781-3.1445-6.5707-7.7471-14.972-13.339-23.422-18.855-1.048-0.6948-2.096-1.3896-3.1758-2.1055-31.315-19.389-76.448-21.955-111.82-13.895-0.66645 0.14985-1.3329 0.29971-2.0195 0.4541-4.3806 1.0174-8.6782 2.2402-12.98 3.5459-1.2427 0.35836-2.4853 0.71672-3.7656 1.0859-15.645 4.7965-31.296 13.447-42.016 26-0.94359 1.1021-0.94359 1.1021-1.9062 2.2266-0.87205 1.0461-0.87205 1.0461-1.7617 2.1133-0.51176 0.51949-1.0235 1.039-1.5508 1.5742h-2l-0.6875 2.375c-1.0647 2.9405-2.2207 5.39-3.6875 8.125-4.4845 8.7965-7.1877 18.624-7.625 28.5-0.051562 0.73992-0.10312 1.4798-0.15625 2.2422-0.68052 17.296 5.5295 34.076 17.156 46.758 0.77924 0.89912 0.77924 0.89912 1.5742 1.8164 10.294 11.176 23.547 17.661 37.426 23.184 0.60553 0.24533 1.2111 0.49067 1.8349 0.74344 12.067 4.8819 24.283 9.012 36.728 12.819 1.3847 0.42645 1.3847 0.42645 2.7974 0.86151 11.23 3.4522 22.447 6.7429 33.914 9.3257 11.386 2.5653 22.648 5.5989 33.928 8.5921 2.6095 0.69237 5.2195 1.383 7.8298 2.0722 1.2728 0.33635 1.2728 0.33635 2.5714 0.67949 5.325 1.3958 10.666 2.6764 16.034 3.8947 9.0344 2.0678 17.839 4.7956 26.676 7.5742 3.0781 0.96383 6.1576 1.9234 9.2383 2.8789 0.73831 0.22989 1.4766 0.45978 2.2373 0.69664 4.1446 1.276 8.2848 2.3942 12.513 3.3698 6.4991 1.5641 12.467 4.1234 18.574 6.8047 1.1411 0.49347 2.2823 0.98694 3.458 1.4954 2.237 0.9675 4.4728 1.938 6.707 2.9119 2.4125 1.0435 4.8306 2.0621 7.2646 3.0537 7.6871 3.155 14.808 6.966 21.937 11.199 1.7616 1.0294 3.5399 2.0199 5.3291 3.0005 6.9881 3.848 13.416 8.0333 19.711 12.949 2.8283 2.1619 5.7409 4.1288 8.7188 6.0781 2.375 1.625 2.375 1.625 4 3v2l6 3v2l1.6875 0.75c5.1413 2.7791 8.7047 6.6786 12.441 11.074 1.2072 1.4038 2.4428 2.7839 3.7109 4.1328 19.092 20.419 31.524 47.86 37.16 75.043 0.20754 0.98291 0.41508 1.9658 0.62891 2.9785 1.1351 5.4063 2.2465 10.818 3.3203 16.236 0.26817 1.3476 0.26817 1.3476 0.54175 2.7224 1.1998 7.2191 1.6748 14.332 1.7122 21.645 0.0057001 0.89426 0.0114 1.7885 0.017273 2.7099 0.009392 1.8867 0.015961 3.7733 0.019836 5.66 0.0096106 2.8152 0.04065 5.6296 0.072266 8.4446 0.099557 16.854-2.0783 32.99-6.125 49.354-0.38684 1.5794-0.38684 1.5794-0.78149 3.1907-3.5056 13.894-8.7941 26.379-15.406 39.059-0.30664 0.6343-0.61327 1.2686-0.9292 1.9221-2.3098 4.7738-4.9502 9.1433-7.9458 13.515-0.88302 1.3019-1.7658 2.604-2.6484 3.9062-0.42378 0.62262-0.84756 1.2452-1.2842 1.8867-2.0697 3.0715-4.0541 6.1995-6.0361 9.3281-0.38156 0.47566-0.76312 0.95133-1.1562 1.4414h-2l-0.75 1.6875c-1.4792 2.7366-3.1847 4.989-5.25 7.3125h-2c-0.40799 0.88172-0.40799 0.88172-0.82422 1.7812-11.622 21.931-41.412 38.666-62.301 50.469-0.70383 0.40058-1.4077 0.80115-2.1328 1.2139-6.0491 3.3498-12.334 5.956-18.742 8.5361-1.0806 0.44376-2.1611 0.88752-3.2744 1.3447-13.492 5.5265-26.866 10.872-41.125 14.071-3.0144 0.67761-6.0194 1.3919-9.0259 2.104-13.765 3.2094-27.516 5.9461-41.574 7.4805-0.82202 0.094263-1.644 0.18853-2.491 0.28564-10.451 1.0428-20.954 0.95812-31.447 0.96436-1.0211 6.7474e-4 -2.0421 0.0013495-3.0941 0.0020447-25.891-0.0271-50.633-2.7678-75.968-8.252-1.4151-0.29777-1.4151-0.29777-2.8589-0.60156-26.195-5.5567-53.883-15.527-76.239-30.469-2.2441-1.492-4.3779-2.7349-6.7773-3.9297-6.8592-3.7382-12.939-8.7101-19.11-13.468-1.417-1.0771-2.8492-2.1344-4.292-3.1768-0.73235-0.53093-1.4647-1.0619-2.2192-1.6089-0.67088-0.47897-1.3418-0.95793-2.033-1.4514-0.48541-0.42724-0.97083-0.85449-1.4709-1.2947v-2c-0.54656-0.22945-1.0931-0.45891-1.6562-0.69531-13.44-7.4816-26.006-23.388-35.344-35.305-0.66516-0.81598-1.3303-1.632-2.0156-2.4727-3.6362-4.6311-6.7763-9.5945-9.9844-14.527-0.63035-0.95648-1.2607-1.913-1.9102-2.8984-9.1433-14.306-17.153-29.828-22.09-46.102-0.26764-0.85787-0.53528-1.7157-0.81104-2.5996-6.7502-21.733-10.919-42.661-12.189-65.4-0.070093-1.1594-0.070093-1.1594-0.1416-2.3423-0.57944-10.544-0.57944-10.544 1.915-14.396 2.6788-2.7211 4.685-4.0883 8.5136-4.519 1.2659-0.0050275 1.2659-0.0050275 2.5574-0.010157 1.4593-0.012795 1.4593-0.012795 2.9481-0.025848 1.0609 9.0637e-4 2.1218 0.0018127 3.2148 0.0027466 1.6835-0.010076 1.6835-0.010076 3.4011-0.020355 3.7155-0.01902 7.4308-0.022906 11.146-0.025055 2.5807-0.006425 5.1613-0.013153 7.742-0.020172 5.412-0.011983 10.824-0.015765 16.236-0.014496 6.2485 0.0012012 12.497-0.019898 18.745-0.051487 6.0185-0.02934 12.037-0.036488 18.056-0.035293 2.5573-0.0023612 5.1145-0.011214 7.6718-0.026665 3.5765-0.019586 7.1522-0.01385 10.729-0.0017891 1.0568-0.011239 2.1137-0.022478 3.2025-0.034058 5.9992 0.051432 9.5217 0.47279 14.064 4.5199 2.4288 3.6432 2.3225 6.4703 2.4375 10.688 1.1378 24.864 9.7488 49.6 26.562 68.312 0.82113 0.96293 1.6423 1.9259 2.4883 2.918 6.4341 7.4233 13.457 13.452 21.512 19.082 0.67499 0.47655 1.35 0.9531 2.0454 1.4441 19.96 13.742 42.263 20.12 65.955 23.556 0.6969 0.10603 1.3938 0.21205 2.1118 0.32129 7.7873 1.0378 15.671 0.92164 23.513 0.92871 0.77512 0.0010071 1.5502 0.0020142 2.3488 0.0030518 13.209-0.011568 26.01-0.87688 39.026-3.2531 0.78536-0.1339 1.5707-0.2678 2.3799-0.40576 23.261-4.047 44.698-14.071 62.671-29.25 2.9492-2.3438 2.9492-2.3438 4.9492-2.3438 0.23461-0.55172 0.46922-1.1034 0.71094-1.6719 1.6155-2.9177 3.6797-5.1016 5.9141-7.5781 14.918-17.352 20.013-40.281 18.375-62.75-2.0592-16.271-9.2158-31.339-20.875-42.777-2.125-2.2227-2.125-2.2227-2.125-4.2227-0.53109-0.23461-1.0622-0.46922-1.6094-0.71094-2.4787-1.3366-4.658-2.9211-6.9041-4.6133-8.0399-6.0223-16.376-10.503-25.487-14.676-0.83644-0.39188-1.6729-0.78375-2.5347-1.1875-14.051-6.5532-28.252-11.504-43.127-15.827-3.4007-1.0039-6.7841-2.053-10.166-3.1182-1.1282-0.35433-2.2563-0.70866-3.4187-1.0737-2.1132-0.66502-4.2254-1.333-6.3364-2.0049-6.485-2.02-13.015-3.6671-19.632-5.1828-8.8774-2.0537-17.635-4.5309-26.41-6.9807-3.5502-0.98662-7.1011-1.9706-10.652-2.9531-0.85727-0.23732-1.7145-0.47464-2.5978-0.71915-6.4182-1.7712-12.857-3.4473-19.312-5.0777-12.287-3.1271-24.355-6.9779-36.435-10.815-3.3427-1.0488-6.697-2.0523-10.053-3.0559-5.945-1.8251-11.659-4.0279-17.387-6.4414-1.927-0.80478-3.8541-1.6095-5.7812-2.4141-0.90105-0.37802-1.8021-0.75604-2.7305-1.1455-1.9106-0.78993-3.8374-1.5406-5.7695-2.2764-8.7393-3.34-16.66-8.1656-24.719-12.867-3.6215-2.1125-7.2757-4.1198-11-6.0469-6.1163-3.3038-11.463-7.5559-16.938-11.812-1.5449-1.1428-1.5449-1.1428-3.1211-2.3086-6.3505-4.7338-12.314-9.748-18.129-15.129-0.9848-0.90528-0.9848-0.90528-1.9895-1.8289-0.91012-0.85622-0.91012-0.85622-1.8386-1.7297-0.54044-0.50717-1.0809-1.0143-1.6377-1.5369-1.2842-1.467-1.2842-1.467-2.2842-4.467h-2c-2.8003-3.2408-5.2433-6.7537-7.728-10.239-1.1911-1.6488-2.4274-3.2648-3.6665-4.8779-9.1002-12.249-14.27-26.711-19.605-40.883-0.31373-0.8279-0.62745-1.6558-0.95068-2.5088-17.578-47.879-10.291-107.58 10.617-152.8 5.9583-12.433 13.26-23.69 22.205-34.187 2.8506-3.3475 5.5227-6.827 8.207-10.309 2.1073-2.4028 4.395-4.2429 6.9219-6.1914l2.25-2.25c9.6559-9.6559 20.398-18.182 31.75-25.75 0.63486-0.42797 1.2697-0.85594 1.9238-1.2969 16.132-10.804 33.445-20.158 52.016-26.037 2.4949-0.80659 4.969-1.6678 7.4468-2.5254 24.091-8.1961 48.217-12.856 73.613-14.141 1.8751-0.10979 3.7501-0.22044 5.625-0.33203 5.8183-0.32963 11.637-0.5411 17.461-0.73877z" fill="#002EA6"/>
<path transform="translate(2593.1 847.61)" d="m0 0c1.1225-0.005257 2.245-0.010514 3.4015-0.01593 3.7101-0.013202 7.4198-0.0044601 11.13 0.0056763 2.5792-0.0020208 5.1585-0.0049323 7.7377-0.0086975 5.4061-0.0044238 10.812 0.0017226 16.218 0.016022 6.2411 0.016318 12.482 0.011043 18.723-0.0054792 6.0138-0.01528 12.027-0.01363 18.041-0.0048548 2.5545 0.0020009 5.1089-4.5331e-4 7.6634-0.0074387 3.5715-0.0076225 7.1425 0.0040022 10.714 0.020702 1.0553-0.0060727 2.1105-0.012145 3.1978-0.018402 5.3434 0.046264 9.6071 0.095001 14.052 3.4066 2.9023 4.6533 3.4288 8.6303 3.3764 13.991 0.0042511 0.79109 0.0085022 1.5822 0.012882 2.3972 0.010622 2.6553-1.266e-4 5.3101-0.010723 7.9654 0.0032904 1.9213 0.0079038 3.8427 0.013728 5.764 0.012232 5.2838 0.005836 10.567-0.003505 15.851-0.0067874 5.6977 0.003732 11.395 0.012284 17.093 0.012578 9.8775 0.014535 19.755 0.0096436 29.632-0.0068056 14.303 0.0057061 28.606 0.023507 42.909 0.0082276 6.668 0.015633 13.336 0.022719 20.004 7.105e-4 0.66758 0.001421 1.3352 0.002153 2.023 0.01669 15.891 0.023976 31.783 0.0297 47.674 2.5391e-4 0.69527 5.0782e-4 1.3905 7.6942e-4 2.1069 0.0038484 10.571 0.0072081 21.142 0.010461 31.713 0.0034628 11.248 0.0071101 22.496 0.01123 33.745 2.5029e-4 0.69277 5.0057e-4 1.3855 7.5845e-4 2.0993 0.0057722 15.836 0.014249 31.672 0.031094 47.508 7.0827e-4 0.66688 0.0014165 1.3338 0.0021463 2.0209 0.0078401 7.319 0.01639 14.638 0.025483 21.957 0.017147 14.257 0.02378 28.514 0.016694 42.772-0.0041928 9.7827 0.0022138 19.565 0.016799 29.348 0.008025 5.6368 0.011225 11.274 0.0011777 16.91-0.0091438 5.1734-0.0042432 10.347 0.011214 15.52 0.0031569 1.8588 0.0013895 3.7177-0.0061654 5.5765-0.10001 26.525 4.4908 52.594 16.39 76.418 0.3561 0.73235 0.71221 1.4647 1.0791 2.2192 4.98 10.2 10.71 19.036 17.921 27.781 0.72961 0.94359 1.4592 1.8872 2.2109 2.8594 8.2972 10.604 17.868 18.713 28.789 26.453 0.80607 0.57468 1.6121 1.1494 2.4426 1.7415 34.203 23.685 77.796 31.228 118.5 24.331 28.357-5.3127 55.924-18.762 76.581-38.982 1.848-1.7954 3.6697-3.4086 5.6641-5.0234 2.9269-2.2569 2.9269-2.2569 4.8086-5.3789h2c0.27385-0.58306 0.54769-1.1661 0.82983-1.7668 1.1423-2.18 2.4018-4.0095 3.8928-5.9636 7.502-9.9947 13.914-19.981 19.277-31.27 0.31663-0.64131 0.63325-1.2826 0.95947-1.9434 4.5225-9.267 7.1427-18.749 9.353-28.807 0.24259-1.0929 0.48517-2.1858 0.73511-3.3118 3.5183-17.117 4.2527-34.468 4.2039-51.893 0.0021455-1.912 0.0051761-3.8239 0.0090004-5.7359 0.0079458-5.1876 0.003779-10.375-0.0025188-15.563-0.0045728-5.6194 0.0025261-11.239 0.0083041-16.858 0.0085943-9.7152 0.010451-19.43 0.0080528-29.146-0.0031081-14.052 0.0085762-28.103 0.02455-42.155 0.025903-22.81 0.045988-45.62 0.059454-68.43 4.0603e-4 -0.68103 8.1207e-4 -1.3621 0.0012304-2.0637 0.0094411-15.912 0.016299-31.824 0.018728-47.736 1.5985e-4 -1.0289 1.5985e-4 -1.0289 3.2292e-4 -2.0786 5.3325e-4 -3.4596 0.001048-6.9193 0.0015614-10.379 1.0221e-4 -0.68388 2.0442e-4 -1.3678 3.0972e-4 -2.0724 2.0556e-4 -1.3804 4.0812e-4 -2.7607 6.0767e-4 -4.1411 0.0034745-23.438 0.022125-46.877 0.054795-70.315 0.01893-14.024 0.024866-28.048 0.014183-42.072-0.0063041-9.5932 0.0016789-19.186 0.021054-28.78 0.010712-5.5379 0.014783-11.076 0.0015285-16.614-0.012001-5.0648-0.0057795-10.129 0.015192-15.194 0.0043219-1.8359 0.0018213-3.6719-0.0080412-5.5078-0.012402-2.4884-3.8126e-4 -4.9755 0.017908-7.4638-0.0094754-0.71886-0.018951-1.4377-0.028713-2.1784 0.071198-4.7793 1.1486-7.2039 4.5309-10.562 2.4418-1.2209 4.0321-1.1365 6.7625-1.1539 1.0052-0.0086005 2.0104-0.017201 3.0461-0.026062 1.6606-0.0063899 1.6606-0.0063899 3.3547-0.012909 1.1627-0.0081775 2.3254-0.016355 3.5233-0.02478 3.861-0.024884 7.7219-0.041377 11.583-0.055786 1.9737-0.0079855 1.9737-0.0079855 3.9874-0.016132 5.5288-0.021628 11.058-0.040365 16.586-0.051622 7.9236-0.016239 15.847-0.049417 23.77-0.1064 5.5712-0.038702 11.142-0.058232 16.714-0.06352 3.3276-0.0036533 6.6545-0.018167 9.982-0.048103 3.7136-0.031505 7.4259-0.03171 11.14-0.024281 1.101-0.016405 2.2019-0.032811 3.3363-0.049713 7.4457 0.061101 7.4457 0.061101 11.375 2.9822 3.012 4.3383 2.9836 8.0381 2.9692 13.126 0.001753 0.77172 0.0035061 1.5434 0.0053122 2.3386 0.0046825 2.6074 0.0021887 5.2148-2.3392e-4 7.8222 0.0018669 1.88 0.0041671 3.7601 0.0068653 5.6401 0.0061406 5.1839 0.0059817 10.368 0.0048056 15.552-2.0347e-4 5.5854 0.00531 11.171 0.010058 16.756 0.0083225 10.956 0.011056 21.912 0.011612 32.868 4.7497e-4 8.9156 0.0025288 17.831 0.0057006 26.747 0.0073797 21.176 0.013524 42.351 0.013001 63.527-1.558e-5 0.67781-3.116e-5 1.3556-4.721e-5 2.054-8.31e-5 3.4353-1.8214e-4 6.8706-2.8471e-4 10.306-2.991e-5 1.0233-2.991e-5 1.0233-6.044e-5 2.0674-4.043e-5 1.3796-8.223e-5 2.7593-1.2539e-4 4.1389-6.1117e-4 21.409 0.0068627 42.819 0.020573 64.228 0.015408 24.071 0.023951 48.142 0.023037 72.213-3.3095e-4 12.736 0.0023702 25.473 0.013178 38.209 0.0091557 10.859 0.011239 21.718 0.0044906 32.577-0.0032415 5.5305-0.0034092 11.061 0.0053532 16.591 0.042138 28.374-0.31188 56.504-4.4394 84.64-0.10443 0.72639-0.20887 1.4528-0.31647 2.2012-2.8276 19.381-8.5819 37.556-15.643 55.788-0.6098 1.6174-1.1935 3.2448-1.7598 4.8779-2.3046 6.6231-5.1381 12.717-8.4678 18.883-0.48968 0.91781-0.97937 1.8356-1.4839 2.7812-0.95741 1.792-1.9177 3.5824-2.8813 5.3711-1.0136 1.8889-2.0071 3.7885-2.9941 5.6914-3.5023 6.6898-7.6873 12.794-12.062 18.942-1.2606 1.7948-2.4892 3.6084-3.7119 5.4292-0.61041 0.90323-0.61041 0.90323-1.2332 1.8247-1.1401 1.6893-2.2758 3.3814-3.4114 5.0737-0.60973 0.78762-1.2195 1.5752-1.8477 2.3867h-2c-0.23848 0.54527-0.47695 1.0905-0.72266 1.6523-5.2013 9.5596-14.352 17.602-21.965 25.223-0.79527 0.79608-1.5905 1.5922-2.4099 2.4124-9.0665 8.9818-18.747 17.006-28.903 24.713-0.64083 0.48662-1.2817 0.97324-1.9419 1.4746-11.68 8.7737-24.091 15.832-37.058 22.525-0.79849 0.41645-1.597 0.8329-2.4197 1.262-14.87 7.6191-31.017 14.734-47.401 18.256-2.6748 0.59141-5.3315 1.2478-7.9922 1.8999-59.312 14.228-130.68 15.177-187.91-9.4434-2.5548-1.0955-5.1296-2.1353-7.7065-3.1777-30.215-12.445-56.562-29.991-80.543-52.02-2.1014-1.9249-2.1014-1.9249-5.0234-3.7773v-2c-0.57492-0.23848-1.1498-0.47695-1.7422-0.72266-2.7331-1.5462-4.326-3.343-6.3828-5.7148-3.2693-3.731-6.5724-7.4174-9.9375-11.062-7.3145-8.0505-13.818-16.517-19.938-25.5-0.73863-1.0416-1.4773-2.0831-2.2383-3.1562-22.881-32.717-37.373-71.805-43.449-111.09-0.10309-0.65995-0.20619-1.3199-0.31241-1.9998-0.75555-4.9066-1.3915-9.8234-2.0001-14.75-0.089977-0.70407-0.17995-1.4081-0.27266-2.1335-2.5573-20.906-2.0206-42.008-2.0035-63.029 0.0024891-5.7162-0.0065731-11.432-0.014037-17.149-0.012683-11.163-0.014549-22.327-0.0122-33.49 0.0017884-9.0693 2.236e-5 -18.139-0.0042244-27.208-5.9519e-4 -1.2943-0.0011904-2.5886-0.0018036-3.9221-0.0012118-2.6297-0.0024259-5.2595-0.0036424-7.8892-0.0077727-17.623-0.011716-35.246-0.0076833-52.869 2.3457e-4 -1.0309 2.3457e-4 -1.0309 4.7387e-4 -2.0825 8.0568e-4 -3.4825 0.0016515-6.965 0.0025133-10.448 1.7109e-4 -0.69155 3.4218e-4 -1.3831 5.1845e-4 -2.0956 3.4666e-4 -1.3985 6.9519e-4 -2.7969 0.0010456-4.1954 0.005369-21.808-0.002614-43.617-0.021034-65.425-0.020703-24.541-0.031416-49.082-0.027425-73.622 0.0019141-12.982-5.972e-4 -25.963-0.014715-38.945-0.01188-11.035-0.013355-22.071-0.0012098-33.106 0.0059087-5.6311 0.0069327-11.262-0.0050024-16.893-0.010789-5.1498-0.0078396-10.299 0.0062617-15.449 0.002666-1.8668 2.2124e-4 -3.7337-0.0077359-5.6005-0.010039-2.5298-0.0017424-5.0589 0.011277-7.5887-0.0073094-0.73112-0.014619-1.4622-0.02215-2.2155 0.047152-4.3951 0.74119-7.1272 3.3969-10.644 4.6262-4.1521 10.254-3.4219 16.121-3.3882z" fill="#002EA6"/>
<path transform="translate(1106.7 1030.8)" d="m0 0c1.4587 9.0637e-4 1.4587 9.0637e-4 2.947 0.001831 13.893 0.023423 27.585 0.28681 41.366 2.1857 0.99451 0.12359 1.989 0.24718 3.0137 0.37451 20.599 2.5764 40.182 7.6101 59.486 15.247 2.1935 0.86418 4.4006 1.6953 6.625 2.4766 10.823 3.8517 20.803 9.4273 30.875 14.902 0.78431 0.42354 1.5686 0.84708 2.3767 1.2834 4.8874 2.67 9.5719 5.5371 14.186 8.6541 0.60779 0.40412 1.2156 0.80824 1.8418 1.2246 4.6539 3.1206 9.1398 6.4417 13.596 9.8379 0.014583-1.0341 0.029165-2.0681 0.044189-3.1335 0.058119-3.8488 0.13535-7.6971 0.21826-11.545 0.033185-1.6633 0.061237-3.3267 0.083984-4.9902 0.033664-2.3959 0.085984-4.7908 0.14185-7.1863 0.0063899-0.73978 0.01278-1.4796 0.019363-2.2417 0.16831-5.9552 1.6175-8.9326 5.6567-13.177 3.7229-2.2655 6.972-2.3282 11.207-2.335 0.84614-0.016763 1.6923-0.033526 2.5641-0.050797 2.8342-0.05016 5.6678-0.0709 8.5023-0.089828 2.0041-0.025285 4.0082-0.051596 6.0122-0.078857 4.4049-0.054242 8.8097-0.092168 13.215-0.11987 5.1497-0.032511 10.299-0.082571 15.448-0.14551 7.0312-0.085282 14.062-0.14497 21.094-0.18884 2.771-0.017764 5.5418-0.043887 8.3127-0.076904 3.918-0.045538 7.8357-0.057136 11.754-0.065796 1.169-0.017448 2.338-0.034895 3.5425-0.052872 6.3163 0.016546 12.138 0.2655 17.184 4.4787 2.723 3.8693 2.2795 8.2205 2.2573 12.753 0.0035061 0.89766 0.0070121 1.7953 0.010624 2.7202 0.0093572 3.0296 0.0043796 6.0591-4.6783e-4 9.0887 0.0037341 2.1853 0.0083346 4.3706 0.013731 6.556 0.012275 6.0222 0.011964 12.044 0.0096112 18.067-4.0702e-4 6.4882 0.01062 12.976 0.020115 19.465 0.017071 12.718 0.022137 25.435 0.023225 38.153 9.1843e-4 10.334 0.0050316 20.667 0.011401 31.001 0.001795 2.9725 0.0035747 5.945 0.0053498 8.9175 6.6315e-4 1.1084 6.6315e-4 1.1084 0.0013397 2.2392 0.012311 20.79 0.020201 41.579 0.019313 62.369-3.116e-5 0.7841-6.232e-5 1.5682-9.442e-5 2.3761-1.6622e-4 3.9743-3.643e-4 7.9486-5.6941e-4 11.923-5.984e-5 1.184-5.984e-5 1.184-1.2088e-4 2.3919-8.088e-5 1.5962-1.6447e-4 3.1925-2.5079e-4 4.7887-0.0012257 24.84 0.013791 49.679 0.041145 74.519 0.030706 27.895 0.047933 55.789 0.046074 83.684-1.4927e-4 2.9731-2.4668e-4 5.9462-3.0863e-4 8.9193-3.497e-5 1.0981-3.497e-5 1.0981-7.064e-5 2.2184-6.16e-5 11.793 0.012722 23.585 0.029935 35.378 0.016935 11.847 0.018603 23.694 0.0057814 35.541-0.006551 6.4209-0.0065702 12.842 0.010706 19.263 0.015642 5.8735 0.012959 11.747-0.0045683 17.62-0.0030896 2.1292 6.3551e-4 4.2584 0.01172 6.3875 0.014037 2.8865 0.0036012 5.7719-0.013112 8.6583 0.0099364 0.8334 0.019873 1.6668 0.03011 2.5254-0.065008 5.283-1.0419 8.2753-4.5279 12.479-2.8599 1.9791-5.1491 2.2518-8.5854 2.2607-0.91542 0.0070848-1.8308 0.01417-2.774 0.021469-0.99699-0.0024774-1.994-0.0049548-3.0212-0.0075073-1.0557 0.0051109-2.1114 0.010222-3.1991 0.015488-3.493 0.013911-6.9859 0.012938-10.479 0.010635-2.4261 0.003886-4.8522 0.0082205-7.2783 0.012985-5.0867 0.0074654-10.173 0.0071685-15.26 0.0019074-6.5215-0.0057959-13.043 0.011138-19.564 0.034345-5.0108 0.014725-10.022 0.015611-15.032 0.01249-2.4046 5.1382e-4 -4.8092 0.0057628-7.2137 0.015812-3.3611 0.012323-6.7216 0.0055974-10.083-0.0060062-0.99497 0.0076437-1.9899 0.015287-3.0151 0.023163-4.9687-0.037955-8.5007-0.091747-12.495-3.3955-4.1499-4.8261-4.5998-8.5959-4.6094-14.68-0.016536-0.81276-0.033073-1.6255-0.05011-2.4629-0.048305-2.5775-0.069811-5.1545-0.090515-7.7324-0.028174-1.7552-0.058104-3.5104-0.089844-5.2656-0.0737-4.2864-0.12338-8.5725-0.16016-12.859-5.3958 3.375-10.742 6.7752-15.91 10.492-5.6104 3.9677-11.521 7.3061-17.527 10.633-1.0551 0.59426-2.1102 1.1885-3.1973 1.8008-10.762 6.0005-21.799 10.751-33.303 15.137-1.6349 0.63132-1.6349 0.63132-3.3027 1.2754-11.688 4.4794-23.167 8.231-35.447 10.725-1.886 0.38515-1.886 0.38515-3.8101 0.77808-12.103 2.3972-24.217 4.0556-36.502 5.1594-0.77263 0.070576-1.5453 0.14115-2.3413 0.21387-33.179 2.8215-66.205 1.105-98.659-6.2139-0.86931-0.19465-1.7386-0.3893-2.6343-0.58984-25.824-5.9189-51.656-17.236-73.366-32.41l-2.4688-1.6562c-12.397-8.4302-25.032-17.611-35.531-28.344-1.2927-1.2841-2.5871-2.5665-3.8828-3.8477-1.4141-1.4049-2.8282-2.8098-4.2422-4.2148-0.71543-0.70705-1.4309-1.4141-2.168-2.1426-0.68965-0.68643-1.3793-1.3729-2.0898-2.0801-0.62278-0.61754-1.2456-1.2351-1.8872-1.8713-4.73-5.0404-4.73-5.0404-4.73-7.8435h-2c-20.893-21.784-35.825-51.86-46.562-79.688-0.29537-0.764-0.59073-1.528-0.89505-2.3152-5.5855-14.531-10.018-29.043-13.105-44.31-0.22686-1.1152-0.22686-1.1152-0.45831-2.253-8.6412-42.726-8.6002-84.659 0.020813-127.43 0.22172-1.1242 0.44344-2.2484 0.67188-3.4067 3.0583-15.236 7.4645-29.492 13.263-43.901 0.97303-2.4589 1.8882-4.9284 2.7764-7.4189 7.3096-20.262 18.719-39.107 31.132-56.638 1.1539-1.6317 2.2979-3.2705 3.4419-4.9092 0.71027-1.0029 1.4205-2.0058 2.1523-3.0391 0.63809-0.90363 1.2762-1.8073 1.9336-2.7383 0.53754-0.64324 1.0751-1.2865 1.6289-1.9492h2c0.24363-0.54914 0.48727-1.0983 0.73828-1.6641 3.7453-6.934 9.4664-12.993 15.594-17.887 1.8799-1.6334 3.3907-3.4084 4.9805-5.3242 3.3565-3.9511 7.1206-7.0257 11.215-10.188 2.2438-1.7582 4.3601-3.588 6.4727-5.5 4.4033-3.8869 9.1399-7.1508 14-10.438 1.0325-0.72832 2.0651-1.4566 3.1289-2.207 20.144-14.058 41.789-23.754 64.871-31.793 0.78826-0.28843 1.5765-0.57686 2.3887-0.87402 10.243-3.7439 20.871-5.2684 31.611-6.876 0.71312-0.10746 1.4262-0.21491 2.161-0.32562 17.824-2.643 35.527-3.1326 53.527-3.1119zm-102.69 166.19c-0.992 0.92088-1.9855 1.8401-2.9805 2.7578-7.7624 7.2944-13.766 15.459-19.687 24.288-1.2927 1.8959-2.6368 3.7433-3.9968 5.5913-6.5941 9.1906-10.358 20.809-14.336 31.363-0.55688 1.4657-0.55688 1.4657-1.125 2.9609-13.922 40.569-8.6741 87.401 9.7175 125.49 3.2855 6.5593 7.0613 12.631 11.407 18.545 0.74379 1.0274 1.4876 2.0548 2.2539 3.1133 5.7492 7.8116 11.794 15.118 18.746 21.887 0.88688 0.92812 1.7738 1.8562 2.6875 2.8125 2.0241 2.4166 2.0241 2.4166 4.3125 2.1875v2c2.449 2.2567 5.2881 4.0736 8 6 0.88688 0.66258 1.7738 1.3252 2.6875 2.0078 9.8277 7.1405 20.446 12.606 31.312 17.992 1.5527 0.79084 1.5527 0.79084 3.1367 1.5977 6.768 3.1462 13.954 4.8165 21.176 6.5898 1.02 0.25048 2.0399 0.50096 3.0908 0.75903 13.206 3.0882 26.231 4.4268 39.784 4.366 0.67259-0.0024875 1.3452-0.004975 2.0381-0.0075378 25.213-0.14326 50.89-4.8141 73.048-17.345 1.6844-0.9368 3.4065-1.805 5.1284-2.6709 7.715-3.9079 14.262-8.581 20.958-13.999 1.8128-1.4273 3.6748-2.7744 5.5415-4.1304 4.3069-3.2162 8.0751-6.8413 11.848-10.66 0.64582-0.63809 1.2916-1.2762 1.957-1.9336 3.6138-3.6286 6.5357-7.2261 9.293-11.566 1.5729-1.9875 3.1568-3.9663 4.75-5.9375 5.3995-6.9052 9.4912-14.162 13.25-22.062 0.33773-0.69803 0.67547-1.3961 1.0234-2.1152 10.819-22.716 15.421-47.755 15.352-72.822-3.1723e-4 -1.0663-3.1723e-4 -1.0663-6.4087e-4 -2.1541-0.1067-36.251-11.28-70.116-33.374-98.908-0.58137-0.80824-1.1627-1.6165-1.7617-2.4492-0.53238-0.73863-1.0648-1.4773-1.6133-2.2383-0.69223-0.96486-0.69223-0.96486-1.3984-1.9492-0.40477-0.44988-0.80953-0.89977-1.2266-1.3633h-2c-0.19852-0.53367-0.39703-1.0673-0.60156-1.6172-2.0261-3.4522-4.8233-5.8371-7.7734-8.5078-0.5775-0.53754-1.155-1.0751-1.75-1.6289-2.7936-2.5576-5.3069-4.8224-8.875-6.2461v-2c-2.2818-1.6715-4.5605-3.2247-6.9375-4.75-1.3882-0.90338-2.7762-1.807-4.1641-2.7109-1.0118-0.655-1.0118-0.655-2.0439-1.3232-2.2581-1.4804-4.4592-3.0366-6.667-4.5908-3.6017-2.3945-7.2217-3.9962-11.27-5.4961-2.9263-1.1321-5.7582-2.3974-8.6118-3.6985-59.581-26.961-134.32-10.339-180.31 34.57z" fill="#002FA6"/>
<path transform="translate(2242 1030.8)" d="m0 0c0.73589-0.0013394 1.4718-0.0026788 2.23-0.0040588 14.741 0.0057571 29.161 1.227 43.77 3.2541 0.85433 0.11215 1.7087 0.2243 2.5889 0.33984 18.505 2.4684 36.227 7.7672 53.454 14.873 2.8304 1.1388 5.7095 2.1368 8.5825 3.1626 5.7828 2.2113 11.021 5.0876 16.359 8.1892 4.306 2.5006 8.6402 4.7415 13.141 6.8733 7.5904 3.7303 14.155 8.4769 20.875 13.562 0.77602 0.57363 1.552 1.1473 2.3516 1.7383 17.229 13.003 33.494 28.124 46.648 45.262 0.51941 0.65871 1.0388 1.3174 1.574 1.9961 10.847 13.791 19.928 28.381 27.989 43.941 0.33716 0.64528 0.67432 1.2906 1.0217 1.9554 4.5879 8.8215 8.2338 17.668 11.416 27.107 0.74471 2.0392 1.4933 4.077 2.2461 6.1133 4.4882 12.527 7.8623 24.871 10.191 37.949 0.11947 0.66585 0.23894 1.3317 0.36203 2.0177 0.81775 4.6291 1.5345 9.2671 2.2005 13.92 0.14827 1.0011 0.14827 1.0011 0.29953 2.0225 1.8651 12.932 1.9778 25.789 1.9063 38.838-0.018374 3.4639-0.020508 6.9275-0.020264 10.391-0.049631 31.904-0.049631 31.904-4.1855 39.748-4.3926 3.5849-7.378 4.4999-13.003 4.4994-1.0262 0.0081074-1.0262 0.0081074-2.0732 0.016379-2.2916 0.013251-4.5821-0.0019545-6.8737-0.017013-1.6598 0.0037272-3.3196 0.0092167-4.9794 0.016317-4.5603 0.014459-9.1203 0.0040759-13.681-0.010283-4.9183-0.011107-9.8365 8.7615e-4 -14.755 0.010186-8.5221 0.013096-17.044 0.011922-25.566 0.0014057-12.327-0.01493-24.654-0.0050327-36.981 0.011519-20.007 0.026467-40.013 0.03732-60.02 0.036269-1.7963-8.748e-5 -1.7963-8.748e-5 -3.6289-1.7673e-4 -4.8525-2.6586e-4 -9.705-5.8315e-4 -14.557-9.6326e-4 -13.361-9.6645e-4 -26.721 3.6182e-4 -40.082 0.0030931-1.1964 2.3989e-4 -2.3927 4.7978e-4 -3.6254 7.2695e-4 -19.933 0.0044032-39.865 0.020623-59.798 0.044494-12.3 0.014088-24.599 0.016935-36.899 0.0053771-8.423-0.0073107-16.846-0.0042803-25.269 0.0069584-4.8634 0.0060863-9.7266 0.0071263-14.59-0.0048773-4.4491-0.010916-8.898-0.0081798-13.347 0.0055435-1.6123 0.002503-3.2246-1.1298e-4 -4.8368-0.0082739-2.1868-0.010357-4.3728-0.0023555-6.5595 0.010302-1.216-2.6969e-4 -2.4321-5.3938e-4 -3.6849-8.1724e-4 -3.5043 0.41108-5.3778 1.2863-8.1917 3.3744-2.461 3.6003-2.0956 6.2882-1.5122 10.444 0.94231 4.7017 2.4711 9.1686 4.0747 13.681 0.53246 1.5124 0.53246 1.5124 1.0757 3.0554 3.0539 8.4288 6.8088 16.117 11.362 23.82 0.50145 0.90621 1.0029 1.8124 1.5195 2.7461 5.9543 10.514 14.278 19.454 22.48 28.254 0.83145 0.90879 1.6629 1.8176 2.5195 2.7539 6.2891 6.6206 12.716 11.47 20.563 16.102 1.4092 0.84048 2.805 1.7034 4.1929 2.5786 6.0052 3.741 12.059 6.604 18.662 9.1277 1.5022 0.57633 1.5022 0.57633 3.0347 1.1643 40.697 15.282 92.8 16.381 132.9-1.4143 2.3821-1.0895 4.7527-2.2017 7.125-3.3125 1.1679-0.4834 2.3358-0.9668 3.5391-1.4648 3.527-1.5645 6.6889-3.3691 9.9609-5.4102 0.56243-0.34934 1.1249-0.69867 1.7043-1.0586 3.0716-1.9238 6.0614-3.9226 8.9832-6.0664 2.8125-2 2.8125-2 4.8125-2l1-3c1.6449-1.6882 3.3134-3.3535 5-5 0.55688-0.76312 1.1138-1.5262 1.6875-2.3125 0.43312-0.55688 0.86625-1.1138 1.3125-1.6875h2c0.27457-0.57105 0.54914-1.1421 0.83203-1.7305 1.175-2.2832 2.4864-4.4103 3.8555-6.582 3.0566-5.0195 5.5091-10.222 7.864-15.597 1.8953-4.2389 3.3024-6.9282 7.3997-9.1474 4.4744-1.3842 8.7771-1.2296 13.435-1.2178 1.0445-0.0051109 2.089-0.010222 3.1651-0.015488 3.4503-0.013892 6.9004-0.01294 10.351-0.010635 2.3999-0.003887 4.7997-0.0082217 7.1996-0.012985 5.0294-0.0074614 10.059-0.0071714 15.088-0.0019074 6.444 0.0057958 12.888-0.01114 19.332-0.034345 4.956-0.014734 9.9119-0.01561 14.868-0.01249 2.3758-5.1336e-4 4.7517-0.0057538 7.1275-0.015812 3.3225-0.01234 6.6444-0.005587 9.9668 0.0060062 0.98045-0.0076437 1.9609-0.015287 2.9711-0.023163 6.1324 0.047282 10.748 0.69512 15.357 5.1455 3.3605 6.3673 1.8357 12.149-0.125 18.625-0.26635 0.90049-0.53271 1.801-0.80713 2.7288-5.1282 16.74-11.546 33.053-20.88 47.896l-1.7812 3.0938c-14.528 24.871-35.169 45.882-58.219 62.906-0.59281 0.43909-1.1856 0.87817-1.7964 1.3306-1.8119 1.3358-3.6309 2.661-5.4536 3.9819-0.54181 0.39639-1.0836 0.79277-1.6418 1.2012-3.7825 2.7071-7.7078 5.0029-11.792 7.2253-2.2532 1.2268-4.4833 2.4876-6.7104 3.761-8.3656 4.7502-16.621 9.0239-25.605 12.5-1.4702 0.61771-2.9388 1.2391-4.4062 1.8633-26.731 11.252-56.646 17.942-85.594 20.137-1.0788 0.08395-2.1576 0.1679-3.269 0.25439-32.667 2.3749-64.845 0.46785-96.731-7.2544-1.5713-0.37101-1.5713-0.37101-3.1743-0.74951-16.329-3.9062-31.532-9.3516-46.826-16.25-0.94988-0.4241-1.8998-0.8482-2.8784-1.2852-18.764-8.4321-36.162-18.74-52.39-31.369-1.4574-1.1324-2.9273-2.2488-4.3999-3.3613-8.2986-6.3942-15.784-13.738-23.332-20.984-0.89719-0.85417-0.89719-0.85417-1.8125-1.7256-8.2247-7.8555-15.39-16.163-22.188-25.274-0.69609-0.91266-1.3922-1.8253-2.1094-2.7656-5.3482-7.1452-10.036-14.679-14.687-22.288-0.80597-1.3033-1.6255-2.5983-2.458-3.8848-3.1982-4.9645-5.7817-10.074-8.2456-15.437-0.78797-1.6971-1.577-3.3937-2.3672-5.0898-0.37093-0.79648-0.74186-1.593-1.124-2.4136-1.1386-2.3945-2.3737-4.7266-3.6338-7.0591-5.8848-11.689-9.3628-24.782-13.188-37.25-0.28988-0.94319-0.57976-1.8864-0.87842-2.8582-11.783-39.068-13.824-85.487-6.7148-125.58 0.40726-2.3852 0.72802-4.7684 1.0269-7.1694 3.3981-26.268 12.822-52.877 25.305-76.181 1.1887-2.2423 2.3357-4.5035 3.4805-6.7686 4.9131-9.6459 10.236-18.5 16.594-27.258 1.5883-2.3546 3.1524-4.7233 4.7109-7.0977 2.7366-4.0386 2.7366-4.0386 4.2891-5.9023h2l2-5h2c0.21012-0.70254 0.42023-1.4051 0.63672-2.1289 1.7354-3.6547 4.278-6.072 7.1758-8.8086 3.099-2.9688 6.1229-5.9022 8.8398-9.2305 1.9392-2.3393 3.7859-4.2608 6.0977-6.207 2.8363-2.4145 5.6211-4.8668 8.375-7.375 8.4922-7.5405 17.38-14.599 27.078-20.527 1.9522-1.2024 3.8778-2.4485 5.7812-3.7266 7.2564-4.8521 14.729-9.1159 22.453-13.184 1.3743-0.73029 1.3743-0.73029 2.7764-1.4753 12.294-6.3746 25.237-10.991 38.358-15.325 2.1276-0.70379 4.2517-1.4172 6.3757-2.1316 12.43-4.1531 24.507-7.175 37.543-8.7612 2.008-0.24448 4.0145-0.49948 6.021-0.75635 13.191-1.6538 26.194-2.5988 39.488-2.6133zm-49 119.25c-1.2012 0.27288-1.2012 0.27288-2.4268 0.55127-10.66 2.4334-20.116 6.143-29.687 11.414-1.8337 1.0063-3.6831 1.9759-5.5386 2.9414-10.867 5.7842-19.721 13.354-28.348 22.094-0.66902 0.64582-1.338 1.2916-2.0273 1.957-13.709 13.317-27.951 34.155-30.41 53.48 0.51228 3.0005 1.292 4.417 3.4375 6.5625 2.8316 0.94385 4.5617 1.1269 7.4938 1.1314 0.92599 0.0038412 1.852 0.0076823 2.806 0.01164 1.019-8.6648e-4 2.0379-0.001733 3.0877-0.0026257 1.0812 0.0029711 2.1624 0.0059422 3.2763 0.0090034 3.6412 0.0087067 7.2824 0.010197 10.924 0.011688 2.6031 0.0046267 5.2063 0.0096512 7.8094 0.015045 7.0846 0.013585 14.169 0.019608 21.254 0.024011 4.4225 0.0027618 8.845 0.006999 13.267 0.011504 12.241 0.012192 24.483 0.022492 36.724 0.025875 0.78355 2.1957e-4 1.5671 4.3913e-4 2.3744 6.6535e-4 0.78544 2.1828e-4 1.5709 4.3656e-4 2.3801 6.6145e-4 1.5916 4.4347e-4 3.1833 8.9003e-4 4.7749 0.0013397 1.1843 3.3214e-4 1.1843 3.3214e-4 2.3924 6.7099e-4 12.797 0.0039492 25.594 0.021407 38.391 0.044689 13.134 0.023702 26.268 0.036175 39.403 0.037342 7.3761 9.1733e-4 14.752 0.0066842 22.128 0.02482 6.9357 0.016992 13.871 0.018662 20.807 0.009861 2.549-7.7318e-4 5.098 0.0036091 7.6469 0.013458 3.473 0.012635 6.9456 0.0068882 10.419-0.003582 1.0145 0.0080564 2.029 0.016113 3.0742 0.024413 6.8005-0.010322 6.8005-0.010322 12.567-3.3919 3.3499-9.8402-2.4498-20.76-6.6758-29.564-12.934-25.987-33.806-45.123-59.324-58.436-1.0016-0.52336-2.0032-1.0467-3.0352-1.5859-20.301-9.3879-43.818-11.839-65.902-11.789-1.286 3.1723e-4 -1.286 3.1723e-4 -2.598 6.4087e-4 -13.846 0.034011-26.979 1.0508-40.465 4.3744z" fill="#002EA6"/>
<path transform="translate(388.75 557.61)" d="m0 0c2.3842-0.0041854 4.7684-0.0096694 7.1527-0.01632 5.8005-0.012823 11.601-0.012015 17.401-0.0050376 6.9629 0.0075904 13.926-0.0024105 20.889-0.012703 13.633-0.01956 27.266-0.022036 40.899-0.016805 11.92 0.004571 23.84 0.0039406 35.759-0.0018403 1.6037-7.5688e-4 3.2074-0.0015129 4.8111-0.002268 2.4169-0.0011453 4.8339-0.0022952 7.2508-0.0034592 22.433-0.010686 44.865-0.015449 67.298-0.0075298 0.84363 2.9717e-4 1.6873 5.9435e-4 2.5565 9.0052e-4 6.8496 0.0024486 13.699 0.0050603 20.549 0.0076841 26.763 0.01012 53.526 0.0017059 80.289-0.021495 30.109-0.026059 60.218-0.038926 90.327-0.031812 3.2079 7.1603e-4 6.4158 0.0013904 9.6236 0.0020404 1.1847 2.5472e-4 1.1847 2.5472e-4 2.3933 5.1458e-4 11.924 0.0023033 23.848-0.0056747 35.771-0.018806 13.544-0.01489 27.089-0.015781 40.633 0.0020709 6.9113 0.0087343 13.822 0.011108 20.734-0.0046516 6.3218-0.013767 12.643-0.0091867 18.965 0.010239 2.2907 0.0037844 4.5815 7.684e-4 6.8722-0.0096116 3.1065-0.01308 6.212-0.0016666 9.3184 0.015998 0.89536-0.0096505 1.7907-0.019301 2.7132-0.029244 5.8401 0.068485 9.2567 1.1259 14.043 4.5298 3.6777 4.715 4.6457 8.3996 4.3867 14.355-0.54829 3.7494-1.7991 7.0196-3.2031 10.527-1.3166 3.4676-2.3171 6.9854-3.3086 10.555-2.2604 7.9876-5.0442 15.761-7.875 23.562-2.7027 7.4498-5.3903 14.858-7.5 22.5-2.4642 8.922-5.6728 17.578-8.8477 26.268-2.3871 6.5607-4.5751 13.138-6.5916 19.821-2.2445 7.2174-4.7925 14.336-7.2791 21.473-2.7098 7.7872-5.3195 15.58-7.7095 23.473-1.9926 6.4406-4.1442 12.829-6.2812 19.223-0.79196 2.3705-1.5807 4.7421-2.3691 7.1138-9.023 27.087-9.023 27.087-15.087 30.73-3.8601 1.6192-6.6382 1.7765-10.817 1.7808-0.73614 0.0048503-1.4723 0.0097006-2.2307 0.014698-2.4686 0.012621-4.9366 0.0039139-7.4052-0.0046672-1.7875 0.0047231-3.5749 0.010762-5.3624 0.018004-4.9146 0.016114-9.829 0.013589-14.744 0.0080787-5.3013-0.0026787-10.603 0.011906-15.904 0.024439-9.1948 0.019409-18.39 0.027964-27.584 0.029301-13.338 0.002042-26.675 0.021529-40.013 0.045398-21.697 0.038443-43.394 0.064221-65.09 0.081414-20.978 0.016663-41.956 0.036809-62.935 0.063477-1.9306 0.0024501-1.9306 0.0024501-3.9003 0.0049498-14.099 0.018026-28.197 0.037423-42.296 0.058304-1.2454 0.0018414-2.4909 0.0036828-3.774 0.0055801-4.9846 0.0073853-9.9693 0.014781-14.954 0.022344-14.508 0.021972-29.015 0.039846-43.523 0.049953-9.1357 0.0064588-18.271 0.016062-27.407 0.027969-5.2464 0.0066798-10.493 0.011845-15.739 0.012586-20.252 0.0037519-40.491 0.1149-60.738 0.62993-0.83361 0.021175-1.6672 0.04235-2.5261 0.064166-11.919 0.31017-23.818 0.74249-35.704 1.7121-0.80405 0.063134-1.6081 0.12627-2.4365 0.19131-39.938 3.1725-80.021 9.7562-118.05 22.512-4.077 1.3337-8.1894 2.5202-12.311 3.708-11.225 3.2588-21.785 7.4733-32.438 12.259-2.2715 1.0006-4.5551 1.9471-6.8599 2.8682-10.529 4.2209-20.689 9.0997-30.84 14.148-0.66956 0.3309-1.3391 0.66179-2.029 1.0027-8.0843 4.0051-15.916 8.2705-23.612 12.981-3.7024 2.2612-7.4216 4.3022-11.333 6.1701-3.5506 1.8173-6.8327 4.0799-10.151 6.2842-4.4624 2.9472-8.9374 5.831-13.543 8.5508-5.1662 3.0771-10.104 6.426-15.02 9.8867-0.86593 0.60731-1.7319 1.2146-2.624 1.8403-6.3859 4.516-12.526 9.2209-18.438 14.347-6.7457-6.7457-3.2479-28.488-3.251-37.681 0.022245-15.348 0.61071-30.172 3.251-45.319 0.20399-1.2396 0.40799-2.4792 0.61816-3.7563 3.5588-21.578 8.4251-42.476 16.925-62.705 1.0293-2.5 1.9861-4.97 2.8828-7.5156 2.5958-7.3525 5.4562-14.027 9.4744-20.735 2.5902-4.3268 4.8454-8.7488 7.0374-13.289 3.7862-7.7427 8.238-14.87 13.062-22 0.83347-1.2538 1.6668-2.5077 2.5-3.7617 4.534-6.7361 4.534-6.7361 6.5-9.2383h2l1-4h2c0.23332-0.71543 0.46664-1.4309 0.70703-2.168 1.5302-3.3516 3.4524-5.4694 5.9805-8.1445 0.89848-0.96293 1.797-1.9259 2.7227-2.918 0.85465-0.91395 1.7093-1.8279 2.5898-2.7695 1.216-1.3683 2.4253-2.7425 3.625-4.125 0.55043-0.63035 1.1009-1.2607 1.668-1.9102 1.2158-1.3994 2.4262-2.8036 3.6328-4.2109 3.694-4.2535 7.4572-8.122 11.762-11.754 2.3442-2.0275 4.5942-4.131 6.8477-6.2578 9.7952-9.2163 20.352-17.171 31.465-24.742 1.0261-0.72445 2.0522-1.4489 3.1094-2.1953 17.02-11.852 36.011-22.106 55.328-29.68 1.2908-0.50817 1.2908-0.50817 2.6077-1.0266 1.7807-0.69772 3.5625-1.3925 5.3455-2.0842 1.6818-0.65366 3.3617-1.3125 5.0391-1.9775 11.409-4.5177 22.794-7.8533 34.789-10.435 2.8603-0.61855 5.7133-1.2654 8.5669-1.9141 22.595-5.0331 44.843-7.1425 67.965-7.0752z" fill="#F16524"/>
<path transform="translate(1728,1033)" d="m0 0c1.0967 0.12359 2.1933 0.24718 3.3232 0.37451 30.882 3.5733 62.089 12.085 88.677 28.625 1.9102 1.0329 3.8267 2.0543 5.75 3.0625 5.3904 2.9302 10.297 6.3268 15.25 9.9375 1.2024 0.84737 2.4056 1.6937 3.6094 2.5391 7.0076 4.9697 13.346 9.9907 19.242 16.27 2.1076 2.2507 2.1076 2.2507 4.6211 4.0977 2.9134 2.4136 5.1003 5.1387 7.3398 8.1562 0.43522 0.58016 0.87044 1.1603 1.3188 1.7581 0.88303 1.1794 1.7636 2.3606 2.6416 3.5437 1.0535 1.4043 2.1392 2.7844 3.231 4.1592 4.7505 6.129 8.5054 12.696 12.246 19.477 0.50773 0.91386 1.0155 1.8277 1.5386 2.7693 3.3738 6.2374 5.9655 12.51 8.2114 19.231 0.27119 0.7881 0.54237 1.5762 0.82178 2.3882 2.8367 8.3353 5.4385 16.738 7.2407 25.362 0.38865 1.8485 0.38865 1.8485 0.78516 3.7344 0.19027 4.3909-0.6287 6.7322-2.8477 10.516-5.3074 4.7139-10.033 4.5718-16.775 4.5176-1.6108 0.010514-1.6108 0.010514-3.2542 0.02124-3.5425 0.017575-7.0842 0.0059581-10.627-0.0075684-2.4657 0.002695-4.9314 0.0065775-7.3971 0.011597-5.1648 0.0058945-10.329-0.0026667-15.494-0.021362-6.6179-0.022789-13.235-0.0096657-19.853 0.01429-5.0907 0.014459-10.181 0.0098514-15.272-5.1117e-4 -2.44-0.002667-4.8801 6.0139e-4 -7.3201 0.0099182-3.4112 0.010167-6.8213-0.0053389-10.232-0.027603-1.0069 0.0080969-2.0139 0.016194-3.0513 0.024536-5.8674-0.070891-9.2644-0.61352-13.724-4.5421-1.25-2.4102-1.25-2.4102-2-5.0625-2.9467-9.107-7.4691-16.722-13.582-24.062-1.418-1.875-1.418-1.875-2.418-4.875-1.3145-0.70299-2.6517-1.3641-4-2-1.4359-1.1854-2.8505-2.3968-4.25-3.625-13.941-11.284-33.025-18.556-50.75-20.375-0.63728-0.08395-1.2746-0.1679-1.9312-0.25439-22.134-2.8089-47.605-2.4433-68.069 7.2544-1.5527 0.71543-1.5527 0.71543-3.1367 1.4453-3.0041 1.4399-5.9376 2.9622-8.8633 4.5547-0.80309 0.42668-1.6062 0.85336-2.4336 1.293-9.3259 5.5115-16.258 15.448-19.566 25.707-2.9527 11.669-1.9747 24.541 4 35 6.6267 10.309 15.171 16.566 26 22 1.4289 0.73477 1.4289 0.73477 2.8867 1.4844 5.9692 2.7589 12.113 4.3275 18.488 5.8047 0.9119 0.2141 1.8238 0.42819 2.7633 0.64877 2.9529 0.69167 5.9071 1.3775 8.8617 2.0622 1.4742 0.34273 1.4742 0.34273 2.9782 0.69238 6.0944 1.4161 12.191 2.8215 18.29 4.2197 3.126 0.71726 6.2512 1.4377 9.3765 2.1582 14.869 3.4185 29.681 6.636 44.793 8.8047 29.822 4.4856 59.22 11.1 86.562 24.125 0.75265 0.35626 1.5053 0.71253 2.2808 1.0796 8.1591 3.8934 16.073 8.0884 23.719 12.92l3.2969 1.9844c8.4873 5.1813 15.61 11.038 22.703 18.016 0.84434 0.82242 1.6887 1.6448 2.5586 2.4922 4.1296 4.2419 7.7647 8.8735 11.441 13.508 0.51176 0.64453 1.0235 1.2891 1.5508 1.9531 2.2041 2.9206 3.8775 5.8257 5.3359 9.1836 0.34635 0.79406 0.69271 1.5881 1.0496 2.4062 0.52654 1.2162 0.52654 1.2162 1.0637 2.457 0.4985 1.1312 0.4985 1.1312 1.0071 2.2852 9.3855 21.342 14.05 42.411 14.993 65.715 0.04125 0.90621 0.0825 1.8124 0.125 2.7461 0.75991 33.484-6.8053 67.176-27.125 94.254-0.55688 0.82113-1.1138 1.6423-1.6875 2.4883-13.003 18.916-30.507 33.822-49.548 46.342-1.4866 0.98518-2.9525 2.0016-4.4131 3.0249-13.914 9.4784-30.222 16.484-46.352 21.145-1.6033 0.49352-3.2061 0.9884-4.8086 1.4844-9.061 2.7525-18.123 5.0618-27.441 6.7656-0.82508 0.1509-1.6502 0.3018-2.5002 0.45728-2.745 0.47291-5.4934 0.891-8.2498 1.2927-1.1932 0.17878-2.3864 0.35755-3.6157 0.54175-12.402 1.7299-24.755 1.8144-37.259 1.7708-1.0825-0.0018228-2.165-0.0036456-3.2803-0.0055237-28.829-0.081708-57.209-2.9027-84.892-11.428-2.8255-0.84092-5.6327-1.4584-8.5156-2.0664-8.6357-2.1245-16.68-5.9744-24.762-9.6128-2.4967-1.1196-5.0042-2.2102-7.5151-3.2974-12.654-5.6051-23.854-12.967-35.16-20.902-0.7135-0.48275-1.427-0.96551-2.1621-1.4629-1.648-1.129-3.2491-2.3262-4.8379-3.5371v-2c-0.87979-0.40412-0.87979-0.40412-1.7773-0.81641-15.429-8.216-28.157-26.688-37.223-41.184-0.50829-0.80776-0.50829-0.80776-1.0269-1.6318-13.97-22.315-26.808-50.595-27.223-77.431-0.025781-1.0016-0.051562-2.0032-0.078125-3.0352 0.48683-4.3062 1.965-6.7896 5.3132-9.5229 4.3554-1.9928 8.3133-1.7981 13.05-1.7677 1.5106-0.0078854 1.5106-0.0078854 3.0517-0.01593 3.3254-0.013192 6.6502-0.0044644 9.9756 0.0056763 2.3126-0.002021 4.6252-0.0049326 6.9377-0.0086975 4.8454-0.0044223 9.6905 0.0020049 14.536 0.016022 6.211 0.017092 12.422 0.00725 18.633-0.010717 4.7749-0.01084 9.5498-0.0073904 14.325 3.8337e-4 2.2901 0.0020013 4.5803-4.5493e-4 6.8704-0.0074387 3.2006-0.0076182 6.4005 0.0039954 9.601 0.020702 0.94665-0.0060727 1.8933-0.012145 2.8686-0.018402 4.8661 0.047061 8.247 0.1908 12.167 3.4066 3.2239 4.0864 4.7676 7.9025 6.1875 12.875 7.2082 22.757 21.925 38 42.95 48.946 8.1251 4.0311 16.044 7.0557 24.863 9.1792 1.4794 0.37814 2.9585 0.75708 4.4375 1.1367 30.894 7.7126 72.35 7.3097 100.66-9.0447 1.6488-1.0053 3.2746-2.0481 4.8992-3.092 1.0016-0.60457 2.0032-1.2091 3.0352-1.832 11.552-7.5474 18.119-19.104 21.965-32.168 3.0174-14.835 0.54311-28.312-7.4087-41.058-5.5409-8.0662-13.259-13.061-21.591-17.942-0.60892-0.35917-1.2178-0.71833-1.8452-1.0884-21.51-12.362-47.467-16.524-71.493-21.196-10.731-2.0964-21.45-4.2582-32.169-6.4157-3.4769-0.69874-6.9547-1.3923-10.436-2.0692-16.877-3.2819-33.365-7.2605-49.822-12.25-3.0544-0.92576-6.1146-1.8291-9.1763-2.7305-11.727-3.521-22.776-7.9442-33.827-13.208-2.2477-1.0496-4.5179-2.0295-6.7979-3.0068-4.4246-1.9569-8.4783-4.3209-12.559-6.9102-0.9958-0.61295-0.9958-0.61295-2.0117-1.2383-4.6578-2.9259-8.7548-6.2406-12.863-9.8867-0.67547-0.54785-1.3509-1.0957-2.0469-1.6602-4.304-3.5439-7.972-7.4829-11.578-11.715-0.44312-0.51699-0.88623-1.034-1.3428-1.5667-24.882-29.787-30.704-69.021-27.528-106.6 1.7275-17.485 5.631-32.693 13.496-48.461 0.57082-1.2408 1.1384-2.483 1.7031-3.7266 9.4911-20.5 24.252-38.683 42.552-51.991 2.0542-1.5105 3.9487-3.1695 5.8694-4.8452 12.644-10.214 28.159-18.792 43.438-24.375 0.68836-0.25378 1.3767-0.50757 2.0859-0.76904 2.1141-0.77345 4.2317-1.5361 6.3516-2.2935 0.63921-0.22865 1.2784-0.45729 1.937-0.69287 4.326-1.5315 8.6801-2.9476 13.063-4.3071 1.1125-0.34934 2.2249-0.69867 3.3711-1.0586 9.443-2.6581 19.039-3.9189 28.754-5.1289 0.6786-0.084766 1.3572-0.16953 2.0564-0.25687 26.595-3.279 53.191-3.6951 79.819-0.55563z" fill="#002EA6"/>
<style>.a9ce9d55181c9c0771f03123ff8635d2{height:81px}</style>
</svg>
