<?xml version="1.0" encoding="UTF-8"?>
<svg version="1.1" viewBox="0 0 690 145" xmlns="http://www.w3.org/2000/svg">
<style>tspan { white-space:pre }
		.shp0 { fill: #da3940 }</style>
<path class="shp0" d="m257.58 85.63c-5.5 8.1-10.82 9.66-21.03 9.66h-5.67v-21.49l17.89 1.73 0.52-0.17 1.83-6.44-0.43-0.35-19.81 1.22v-20.11h6.02c12.56 0 15.1 1.04 16.84 8.62h1.92l2.7-12.28-0.96-0.95h-43.01v1.91l5.32 3.66v43.69l-5.32 3.66v1.92h41.1l4.01-13.58-1.92-0.7zm425.18-40.56h-17.27v1.91l6.28 3.66v36.03l-30.02-41.6h-16.49v1.91l6.11 3.49v43.86l-5.32 3.66v1.92h17.28v-1.92l-6.29-3.66v-37.51l31.24 43.09h8.46l0.7-0.7v-48.57l5.32-3.66v-1.91zm-89.87 36.12c0.44 0.09 1.14 0.09 1.92 0.09 17.37 0 29.06-8.18 29.06-20.2 0-10.53-8.29-16.01-24.34-16.01h-23.04v1.91l5.32 3.66v43.69l-5.32 3.66v1.92h22.68v-1.92l-6.28-3.66v-13.14zm-20.76-36.12h-17.8v1.91l5.58 3.66-13.09 39.86h-0.61l-15.53-39.78 5.5-3.74v-1.91h-22.51v1.91l5.58 3.83 19.11 49.1h10.38l17.98-49.36 5.41-3.57v-1.91zm20.76 5.65c2.01-0.95 4.71-1.56 7.07-1.56 8.38 0 12.56 4.09 12.56 12.19 0 9.83-7.41 15.66-19.63 15.32v-25.95zm-231.74 26.47c0-12.01-7.16-21.07-17.54-21.07-5.58 0-10.99 2.7-14.39 7.05v-6.09l-1.58-1.05-14.39 2.88v1.91l5.41 3.23v47.69l-5.41 3.66v1.91h22.25v-1.91l-6.28-3.66v-13.4c3.05 1.3 6.19 2.26 9.94 2.26 12.83 0 21.99-9.75 21.99-23.41zm38.22-19.24c-1.57-1.13-3.49-1.74-5.76-1.74-4.89 0-9.78 3.22-12.57 7.75v-6.88l-1.57-1.05-14.48 2.88v1.91l5.41 3.23v30.28l-5.41 3.66v1.92h22.51v-1.92l-6.46-3.66v-26.37c2.71-2.35 5.76-3.57 8.99-3.57 1.48 0 2.97 0.44 4.36 1.31h1.92l3.06-7.75zm29.75 19.76c3.84 0 6.63 0 8.37-0.09l1.32-1.3c0.08-6.01-1.49-10.88-4.72-14.63-3.23-3.74-7.76-5.66-13.78-5.66-13 0-21.55 9.93-21.55 22.72 0 13.41 8.63 22.2 21.46 22.2 8.38 0 14.83-3.74 17.71-10.62l-1.83-1.39c-2.88 2.44-6.28 3.74-11.52 3.74-8.72 0-14.04-5.65-15-15.4 7.15 0.26 13.69 0.43 19.54 0.43zm13.52 18.37c4.63 2.87 11 4.52 17.28 4.52 10.21 0 16.93-5.22 16.93-13.57 0-5.31-2.97-9.41-9.77-12.02l-4.45-1.74c-6.72-2.61-8.99-4.53-8.99-7.66 0-2.87 2.44-4.96 6.19-4.96 4.19 0 7.77 2.26 10.65 6.7h1.74l4.19-7.14c-4.1-2.43-9.69-3.82-15.53-3.82-10.12 0-16.93 5.57-16.93 12.79 0 5.83 4.45 10.27 11.87 13.06l3.92 1.48c5.24 2 7.34 3.91 7.34 7.48 0 3.13-2.36 5.14-6.2 5.14-4.28 0-9.25-3.22-12.65-8.79h-1.84l-3.75 8.53zm38.31 0c4.62 2.87 10.99 4.52 17.27 4.52 10.21 0 16.93-5.22 16.93-13.57 0-5.31-2.97-9.41-9.77-12.02l-4.45-1.74c-6.72-2.61-8.99-4.53-8.99-7.66 0-2.87 2.44-4.96 6.2-4.96 4.19 0 7.76 2.26 10.64 6.7h1.75l4.18-7.14c-4.1-2.43-9.68-3.82-15.53-3.82-10.12 0-16.92 5.57-16.92 12.79 0 5.83 4.45 10.27 11.86 13.06l3.93 1.48c5.24 2 7.33 3.91 7.33 7.48 0 3.13-2.36 5.14-6.2 5.14-4.27 0-9.24-3.22-12.65-8.79h-1.83l-3.75 8.53zm-177.21-33.43 5.32-3.57v-1.91h-17.27v1.91l5.05 3.4-8.37 11.75-8.64-11.75 4.45-3.4v-1.91h-21.64v1.91l4.89 3.83 12.74 16.19-12.48 15.32-5.32 3.57v1.92h17.27v-1.92l-5.06-3.39 8.38-11.84 8.73 11.84-4.54 3.39v1.92h21.72v-1.92l-4.8-3.66-12.82-16.45 12.39-15.23zm105.66 10.54c0.26-7.32 3.75-12.45 8.99-12.45 4.8 0 8.37 3.65 9.33 11.31l-18.32 1.14zm-58.72 8.44c0 8.79-4.19 14.01-10.82 14.01-4.45 0-8.2-1.83-10.64-5.57v-22.89c2.96-2.18 6.02-3.22 9.16-3.22 7.59 0 12.3 8.01 12.3 17.67zm-300.39 55.37h55.19c11.87 0 22.36-9.44 22.36-20.24 0-9.44-8.08-16.81-18.57-16.81h-63.28c-5.85 0-8.6-3.95-6.19-8.92h79.44c26.83 0 50.04-20.25 50.04-45.47 0-21.26-17.54-37.56-41.27-37.56h-41.1c-12.55 0-24.07 7.38-29.4 18.7l-8.6 18.35h97.84c2.76 0 4.65 2.06 4.65 4.46s-1.89 4.46-4.65 4.46h-120.88l-17.37 37.06h18.92c-5.33 11.49-6.71 17.15-6.71 21.78 0 14.07 11.52 24.19 29.58 24.19z" fill-rule="evenodd"/>
<style>.d932fe6a3c64e56926c9b8b213ac4d2b{height:68px}</style>
</svg>
