<?xml version="1.0" encoding="UTF-8"?>
<svg version="1.1" viewBox="0 0 650 250" xmlns="http://www.w3.org/2000/svg">
<path transform="translate(128.06 -.375)" d="m0 0c0.77752 5.4382e-4 1.555 0.0010876 2.3561 0.001648 11.655 0.037525 22.446 0.66147 33.581 4.3734 0.67434 0.21962 1.3487 0.43925 2.0435 0.66553 31.891 10.551 58.203 31.624 74.095 61.473 7.4284 14.844 12.929 31.208 13.1 47.908 0.0080718 0.77007 0.016143 1.5401 0.02446 2.3336 0.013784 1.6305 0.024532 3.261 0.032425 4.8915 0.011406 1.6306 0.031673 3.2612 0.061523 4.8916 0.61434 33.668-12.971 62.798-35.771 87.247-22.17 22.203-53.032 35.954-84.436 36.058-1.4874-0.0079219-2.9748-0.018216-4.4622-0.030762-0.76753-0.0030414-1.5351-0.0060828-2.3258-0.0092163-11.554-0.067657-22.339-0.76534-33.362-4.4283-0.98758-0.31348-0.98758-0.31348-1.9951-0.6333-31.416-10.097-58.053-31.731-73.501-61-5.0852-10.058-8.9902-20.374-11.504-31.367-0.27711-1.1762-0.27711-1.1762-0.55981-2.3762-1.5872-7.5441-1.7796-15-1.7559-22.674 0.0031439-2.1173-0.02033-4.2332-0.045654-6.3503-0.15512-33.059 14.367-62.51 37.174-85.85 23.494-23.241 54.414-35.211 87.25-35.125zm-58.062 55.375c-0.65484 0.50918-1.3097 1.0184-1.9844 1.543-16.174 13.101-26.741 34.643-29.699 55.004-2.2032 24.045 2.3747 48.303 17.621 67.641 1.3479 1.6094 2.7018 3.2139 4.0625 4.8125 0.81404 1.0325 0.81404 1.0325 1.6445 2.0859 9.8663 12.147 26.158 22.115 41.355 25.914 0.99-0.33 1.98-0.66 3-1-0.68965-0.46148-1.3793-0.92297-2.0898-1.3984-17.485-12.137-28.55-30.02-32.513-50.947-2.1646-14.476-1.9757-33.345 5.146-46.506 4.0944-5.1532 9.0201-7.543 15.461-8.4219 6.025-0.30656 11.252 1.0737 15.984 4.8672 5.0272 5.0792 6.9507 10.275 7.0117 17.406-0.92273 6.4488-3.9958 11.832-9 16-4.9577 2.8843-10.311 3.8264-16 3-3.0704-0.83346-6.0357-1.8472-9-3 3.6327 10.724 12.874 17.09 22.312 22.344 7.8349 3.7471 15.416 5.1954 24.062 5.0938 0.9183-0.0082983 1.8366-0.016597 2.7827-0.025146 14.179-0.3519 25.398-6.0169 35.655-15.725 10.04-10.613 15.355-24.052 15.188-38.688-1.1634-15.089-6.7872-28.543-18-38.938-6.6898-5.9049-6.6898-5.9049-15-8.0625v-2c25.576 2.1816 45.956 9.9532 63.125 29.836 1.5636 1.8047 3.1612 3.5038 4.875 5.1641-3.6352-19.346-16.43-37.272-32-49-35.383-24.1-80.371-25.086-114 3z" fill="#5FB0F9"/>
<path transform="translate(302,73)" d="m0 0h58v14h-41v23h37v13h-37v25h41v13h-58v-88z" fill="#01002F"/>
<path transform="translate(492.12 101.69)" d="m0 0c6.8182 5.4842 10.974 10.703 12.875 19.312v13h-47c2.9345 8.134 2.9345 8.134 9 13 4.0883 1.3628 7.8409 1.8775 11.941 0.21094 3.1986-1.7495 5.0202-3.1534 7.0586-6.2109 2.9506-0.22086 5.6837-0.28061 8.625-0.1875 1.2027 0.020303 1.2027 0.020303 2.4297 0.041016 1.9821 0.035394 3.9638 0.089202 5.9453 0.14648-0.82324 7.2424-4.371 12.06-9.9961 16.617-8.8383 5.8233-18.43 6.5679-28.75 4.9531-8.8898-2.2467-15.584-7.5704-20.281-15.383-4.1726-9.3841-4.5814-20.366-1.4102-30.125 4.0527-9.5701 11.17-15.482 20.625-19.375 10.499-1.8933 19.569-1.059 28.938 4zm-30.125 13.312-4 8h30c-2.2039-6.6118-2.7798-7.2713-8-11-6.3408-2.1136-12.881-1.4748-18 3z" fill="#01002F"/>
<path transform="translate(572,98)" d="m0 0h18c4.0908 8.7811 7.7461 17.686 11.312 26.688 0.55509 1.3953 1.1104 2.7905 1.666 4.1855 1.3433 3.3745 2.6833 6.7504 4.0215 10.127 7.6448-17.44 7.6448-17.44 14.93-35.033 1.9687-4.8657 1.9687-4.8657 3.0701-5.967 1.3427-0.086319 2.6897-0.10706 4.0352-0.097656 0.80889 0.0032227 1.6178 0.0064453 2.4512 0.0097656 0.85014 0.0083789 1.7003 0.016758 2.5762 0.025391 0.854 0.0045117 1.708 0.0090234 2.5879 0.013672 2.1166 0.011824 4.2331 0.02976 6.3496 0.048828-2.308 7.4483-5.3233 14.413-8.5625 21.5-1.1606 2.5598-2.3169 5.1216-3.4727 7.6836-0.30914 0.68457-0.61829 1.3691-0.9368 2.0744-3.8337 8.5042-7.5857 17.044-11.335 25.586-0.78747 1.794-1.5755 3.5878-2.3641 5.3813-4.2012 9.5555-8.3573 19.121-12.329 28.774h-19c2.8634-7.3192 5.9701-14.484 9.25-21.625 0.45891-1.0042 0.91781-2.0084 1.3906-3.043 1.1177-2.445 2.2375-4.889 3.3594-7.332-0.93062-0.13775-0.93062-0.13775-1.88-0.27829-2.12-0.72171-2.12-0.72171-3.206-2.2596-0.41254-0.9947-0.41254-0.9947-0.8334-2.0095-0.32068-0.75234-0.64137-1.5047-0.97177-2.2798-0.33239-0.82273-0.66477-1.6455-1.0072-2.4931-0.35744-0.85085-0.71489-1.7017-1.0832-2.5783-1.1454-2.7364-2.2695-5.4811-3.3934-8.2263-0.74864-1.7961-1.4986-3.5917-2.25-5.3867-1.8126-4.3423-3.6022-8.6935-5.3793-13.05-0.95176-2.3302-1.9112-4.6571-2.8717-6.9838-0.55486-1.3569-1.1093-2.714-1.6631-4.0713-0.71857-1.7535-0.71857-1.7535-1.4517-3.5425-1.0093-2.8403-1.0093-2.8403-1.0093-5.8403z" fill="#01002F"/>
<path transform="translate(368,98)" d="m0 0h18c2.5859 5.1717 4.9485 10.125 6.9805 15.492 0.25832 0.67201 0.51664 1.344 0.78279 2.0364 0.81187 2.114 1.6183 4.2301 2.4242 6.3464 0.81773 2.1373 1.6366 4.2742 2.4564 6.4107 0.50671 1.3216 1.012 2.6438 1.5158 3.9665 0.87659 2.2937 1.7414 4.55 2.8403 6.7478 4.2448-8.974 8.1246-18.033 11.812-27.25 0.96256-2.402 1.9273-4.8031 2.8945-7.2031 0.41741-1.0432 0.83483-2.0863 1.2649-3.1611 1.0281-2.3857 1.0281-2.3857 2.0281-3.3857 1.3427-0.086319 2.6897-0.10706 4.0352-0.097656 0.80889 0.0032227 1.6178 0.0064453 2.4512 0.0097656 0.85014 0.0083789 1.7003 0.016758 2.5762 0.025391 0.854 0.0045117 1.708 0.0090234 2.5879 0.013672 2.1166 0.011824 4.2331 0.02976 6.3496 0.048828-1.9354 6.151-4.2096 12.035-6.8516 17.914-0.37186 0.83701-0.74372 1.674-1.1268 2.5364-0.79809 1.7954-1.598 3.59-2.3996 5.3839-2.131 4.769-4.2486 9.5439-6.3681 14.318-0.43369 0.97587-0.86739 1.9517-1.3142 2.9572-4.591 10.338-9.1145 20.705-13.627 31.078-0.3732 0.85741-0.74641 1.7148-1.1309 2.5982-2.062 4.7374-4.1221 9.4757-6.1816 14.214h-19c4.4006-10.789 9.1852-21.391 14-32-0.61375-0.074071-1.2275-0.14814-1.8598-0.22446-2.1402-0.77554-2.1402-0.77554-3.3603-2.671-0.50605-1.2441-0.50605-1.2441-1.0223-2.5133-0.39043-0.93833-0.78086-1.8767-1.1831-2.8434-0.40742-1.0228-0.81484-2.0456-1.2346-3.0995-0.43115-1.0474-0.86229-2.0948-1.3065-3.1739-1.3797-3.3608-2.738-6.7298-4.0958-10.1-0.91851-2.2493-1.8384-4.498-2.7598-6.7461-2.0668-5.0475-4.1188-10.101-6.1607-15.159-0.89691-2.1786-1.838-4.3294-2.8-6.4797-1.217-2.9907-1.217-2.9907-1.217-5.9907z" fill="#01002F"/>
<path transform="translate(514,98)" d="m0 0h51c0 14 0 14-2.875 18.188-1.3606 1.2862-2.7372 2.5556-4.125 3.8125-1.6821 1.8192-3.348 3.6535-5 5.5l-2.5781 2.8281c-5.2533 5.7956-10.331 11.733-15.422 17.672l30 1v14h-51c0-15.585 0-15.585 3.7085-19.599 0.52932-0.50346 1.0586-1.0069 1.604-1.5256 0.80945-0.85284 0.80945-0.85284 1.6353-1.7229 1.1127-1.1687 2.2395-2.3243 3.3799-3.4661 2.1202-2.1376 4.1382-4.3574 6.1575-6.5898 1.3028-1.4376 2.6231-2.8593 3.9446-4.2798 2.9281-3.2085 5.7434-6.5184 8.5703-9.8164-9.57-0.33-19.14-0.66-29-1v-15z" fill="#01002F"/>
<style>.13b005ae5b5755237275b9ab60afff36{height:58px}</style>
</svg>
