<?xml version="1.0" encoding="UTF-8"?>
<svg data-name=" Шар 1" viewBox="0 0 1632.5 500.06" xmlns="http://www.w3.org/2000/svg">
<defs>
<style>.cls-1{fill:none;}.cls-2{fill:url(#f);}.cls-3{fill:url(#e);}.cls-4{fill:url(#d);}.cls-5{fill:url(#c);}.cls-6{fill:url(#b);}.cls-7{fill:url(#a);}.cls-8{fill:#3ab6ec;}</style>
<linearGradient id="f" x1="285" x2="281.53" y1="78.45" y2="-94.16" gradientTransform="matrix(1 0 0 -1 0 500)" gradientUnits="userSpaceOnUse">
<stop stop-color="#fff" offset="0"/>
<stop stop-color="#f5f5f5" offset=".08"/>
<stop stop-color="#dbdbdb" offset=".23"/>
<stop stop-color="#b0b0b0" offset=".41"/>
<stop stop-color="#757575" offset=".63"/>
<stop stop-color="#2b2b2b" offset=".87"/>
<stop offset="1"/>
</linearGradient>
<linearGradient id="e" x1="295.82" x2="295.82" y1="17.7" y2="33.78" gradientTransform="matrix(1 0 0 -1 0 500)" gradientUnits="userSpaceOnUse">
<stop stop-color="#bdbdbd" offset="0"/>
<stop stop-color="#d3d3d3" offset=".22"/>
<stop stop-color="#e9e9e9" offset=".49"/>
<stop stop-color="#f5f5f5" offset=".75"/>
<stop stop-color="#fafafa" offset="1"/>
</linearGradient>
<radialGradient id="d" cx="-158.11" cy="569.78" r="1087.9" gradientTransform="matrix(1 .01 0 -.31 -.98 305.49)" gradientUnits="userSpaceOnUse">
<stop stop-color="#ff72a5" offset=".08"/>
<stop stop-color="#ff6f9e" offset=".09"/>
<stop stop-color="#ff698d" offset=".1"/>
<stop stop-color="#ff5e71" offset=".11"/>
<stop stop-color="#ff565b" offset=".12"/>
<stop stop-color="#fb5761" offset=".14"/>
<stop stop-color="#f05a72" offset=".17"/>
<stop stop-color="#df5f8e" offset=".21"/>
<stop stop-color="#c766b5" offset=".25"/>
<stop stop-color="#a970e7" offset=".29"/>
<stop stop-color="#9c74fd" offset=".31"/>
<stop stop-color="#9576fc" offset=".37"/>
<stop stop-color="#857ffb" offset=".46"/>
<stop stop-color="#8285fb" offset=".51"/>
<stop stop-color="#7c96fc" offset=".58"/>
<stop stop-color="#76a9fd" offset=".63"/>
<stop stop-color="#75bdfe" offset=".79"/>
<stop stop-color="#75c4ff" offset=".83"/>
<stop stop-color="#7bc8fc" offset=".89"/>
<stop stop-color="#8cd6f7" offset=".97"/>
<stop stop-color="#95def4" offset="1"/>
</radialGradient>
<radialGradient id="c" cx="-156.94" cy="373.09" r="1087.9" gradientTransform="matrix(1 0 0 -1 0 500)" gradientUnits="userSpaceOnUse">
<stop stop-color="#ff565b" offset=".17"/>
<stop stop-color="#ff5761" offset=".18"/>
<stop stop-color="#ff5d72" offset=".21"/>
<stop stop-color="#ff668e" offset=".23"/>
<stop stop-color="#ff6894" offset=".23"/>
<stop stop-color="#ff6a98" offset=".31"/>
<stop stop-color="#f86b9c" offset=".32"/>
<stop stop-color="#e76daa" offset=".34"/>
<stop stop-color="#cb72c1" offset=".36"/>
<stop stop-color="#a479e1" offset=".38"/>
<stop stop-color="#857ffb" offset=".4"/>
<stop stop-color="#8285fb" offset=".47"/>
<stop stop-color="#7c96fc" offset=".56"/>
<stop stop-color="#76a9fd" offset=".63"/>
<stop stop-color="#75bdfe" offset=".79"/>
<stop stop-color="#75c4ff" offset=".83"/>
<stop stop-color="#7bc8fc" offset=".89"/>
<stop stop-color="#8cd6f7" offset=".97"/>
<stop stop-color="#95def4" offset="1"/>
</radialGradient>
<radialGradient id="b" cx="-156.95" cy="373.09" r="1087.9" gradientTransform="matrix(1 0 0 -1 0 500)" gradientUnits="userSpaceOnUse">
<stop stop-color="#0a9ee1" offset=".19"/>
<stop stop-color="#10a0e1" offset=".24"/>
<stop stop-color="#21a9e4" offset=".31"/>
<stop stop-color="#3db7e8" offset=".38"/>
<stop stop-color="#64caee" offset=".46"/>
<stop stop-color="#90e0f5" offset=".54"/>
</radialGradient>
<radialGradient id="a" cx="-157.01" cy="373.09" r="1088" gradientTransform="matrix(1 0 0 -1 0 500)" gradientUnits="userSpaceOnUse">
<stop stop-color="#ff72a5" offset=".01"/>
<stop stop-color="#ff6f9e" offset=".04"/>
<stop stop-color="#ff698d" offset=".08"/>
<stop stop-color="#ff5e71" offset=".12"/>
<stop stop-color="#ff565b" offset=".15"/>
<stop stop-color="#fb5761" offset=".17"/>
<stop stop-color="#f05a72" offset=".19"/>
<stop stop-color="#df5f8e" offset=".22"/>
<stop stop-color="#c766b5" offset=".26"/>
<stop stop-color="#a970e7" offset=".29"/>
<stop stop-color="#9c74fd" offset=".31"/>
<stop stop-color="#9576fc" offset=".37"/>
<stop stop-color="#857ffb" offset=".46"/>
<stop stop-color="#8285fb" offset=".51"/>
<stop stop-color="#7c96fc" offset=".58"/>
<stop stop-color="#76a9fd" offset=".63"/>
<stop stop-color="#75bdfe" offset=".79"/>
<stop stop-color="#75c4ff" offset=".83"/>
<stop stop-color="#7bc8fc" offset=".89"/>
<stop stop-color="#8cd6f7" offset=".97"/>
<stop stop-color="#95def4" offset="1"/>
</radialGradient>
</defs>
<path transform="translate(0)" d="M868,227.24v-9.66h27.5V330H868.06v-9.33c-1,.6-1.64.87-2.17,1.27-26.82,20.5-70,11.42-83.39-25.65-8.55-23.61-5.09-45.66,12-64.52,11.17-12.35,25.71-17.56,42.42-16.55a53.06,53.06,0,0,1,30.2,11.57,6.31,6.31,0,0,0,.94.44Zm-2.32,46.67h0c0-5.41.07-10.82-.06-16.22a5.57,5.57,0,0,0-1.23-3.29,35.29,35.29,0,0,0-16.73-10.76c-13.54-4-28.47.62-35.58,14.14a33.88,33.88,0,0,0-3.41,21.89c1.87,11.23,7.69,20,18.77,23.59,13.53,4.36,26,1.77,36.25-8.67a6.38,6.38,0,0,0,2-4.89c-.07-5.26,0-10.52,0-15.79Z"/>
<path transform="translate(0)" d="M774.3,167.33V194.8H707.85V229h52.34v27.87H707.81v73.38H676.38V167.33Z"/>
<path transform="translate(0)" d="m1427.4 330.33h-30.36v-112.8h27.83v9.88c0.91-0.58 1.43-0.86 1.89-1.22a51.59 51.59 0 0 1 66.5 2.14c8.37 7.62 12.71 17.42 14.14 28.46a162.25 162.25 0 0 1 1.1 18.58c0.21 17.63 0.2 35.25 0.27 52.88 0 0.71-0.06 1.42-0.1 2.12h-30.1v-2.71-60.34a38 38 0 0 0-1-8.89 21 21 0 0 0-18.56-15.87c-12.2-1.27-22.22 3-30.23 12.13a7.29 7.29 0 0 0-1.27 3.93 51.32 51.32 0 0 0 0.16 5.25q0 31.94 0 63.86c0 0.79-0.08 1.58-0.14 2.62z"/>
<path transform="translate(0)" d="M1553,281.32c1.65,10.34,6.18,18.06,15.35,22.43,13.87,6.6,32.72,3.09,43.46-7.95a11.25,11.25,0,0,1,1.12-.84l16.4,17.56a19.73,19.73,0,0,1-1.73,2.19,63.9,63.9,0,0,1-37,17.4c-12.91,1.56-25.29-.21-36.77-6.35-16.11-8.62-25.21-22.36-28.4-40.2-2.76-15.49-.4-30.2,7.41-43.79,10.6-18.43,27.09-26.87,48.06-26.57A48.28,48.28,0,0,1,1614.77,229a56.18,56.18,0,0,1,16,28.94,63.85,63.85,0,0,1,1.37,21.12c-.07.63-.24,1.25-.43,2.23H1553Zm49.39-20.9c-.74-7-3.6-12.72-9.39-16.57-8.51-5.65-17.61-5.44-26.42-1a21.61,21.61,0,0,0-12.34,17.62Z"/>
<path transform="translate(0)" d="M1139.13,312.42A55.7,55.7,0,0,1,1120,326.64a69.09,69.09,0,0,1-32.24,5.89c-26.45-1.26-48-20-52.53-46.12-2.61-15.13-1-29.78,6.53-43.36,10.84-19.54,27.77-28.74,49.92-27.73,20.45.93,35.08,11.37,44.14,29.5,5.45,10.91,7,22.68,6,34.79a12.16,12.16,0,0,1-.46,1.75h-78.54c.11,1.06.12,1.76.26,2.44,2.72,13.07,12.13,21.26,25.43,22.91,12.36,1.54,22.89-2.15,32.29-9.9.55-.46,1.13-.89,1.88-1.48l16.49,17.09Zm-75.35-52H1112a21.55,21.55,0,0,0-4.79-12.42c-5.57-6.87-13.1-8.61-21.43-8.08a24.29,24.29,0,0,0-21.57,17.52,26.84,26.84,0,0,0-.44,3Z"/>
<path transform="translate(0)" d="M1340.9,217.49h30.29V330.27h-27.83V320.19c-1.8,1.36-3.21,2.45-4.65,3.51-16.61,12.17-40.15,11.65-56.83-.53-11-8-16.86-19-18.8-32.2a126,126,0,0,1-1.26-17c-.18-18.36-.13-36.72-.16-55.07,0-.36,0-.71.08-1.3h30.19v2.56c0,20.7-.09,41.4,0,62.1,0,6.23,1.46,12.2,6.09,16.9,4.85,4.92,11,6.17,17.52,6,8.82-.26,16.11-4.22,22.45-10.15a8.57,8.57,0,0,0,3-6.71c-.13-21.58-.12-43.15-.16-64.73v-6Z"/>
<path transform="translate(0)" d="m1241.6 241.53h-33.55v2.54 48.72a32.28 32.28 0 0 0 0.58 5.88c0.86 4.62 4.4 7.37 10 8 5.78 0.66 11.14-0.88 16.84-3.28l9.64 21.27c-3.64 1.74-7 3.7-10.56 5a49.52 49.52 0 0 1-33.13 0.57c-13.37-4.51-20.66-14.27-22.65-28a87.51 87.51 0 0 1-0.58-12c-0.08-14.12 0-28.23-0.09-42.35 0-2-0.21-3.9-0.34-6.13h-26.57v-24.19h27v-36.28h29.78v36.21h33.67v24z"/>
<path transform="translate(0)" d="M1004.44,291.71l20.11,15.85c-2.56,2.89-4.79,5.77-7.39,8.28-20.32,19.63-54.27,22.43-77.56,6.48C902.76,297.08,906.89,241,947,221.41c24.36-11.89,52.5-6.79,71,12.88.94,1,1.8,2.07,2.87,3.32l-19,17.15c-.62-.55-1.21-1-1.76-1.57-8.52-8.1-18.52-11.82-30.27-9.87a30.77,30.77,0,0,0-25.68,30.75c.13,21.1,16.75,32.83,35.94,30.58,9.21-1.08,16.87-5.42,23.31-12,.25-.26.53-.49,1-.93Z"/>
<path class="cls-1" transform="translate(0)" d="M413,336.18a24.82,24.82,0,0,1,1,7.05,22.57,22.57,0,0,1-.27,3.51,21.89,21.89,0,0,1-.77,3.34,23.29,23.29,0,0,1-4.21,7.82c-.48.56-.95,1.09-1.46,1.6a21.59,21.59,0,0,1-2.49,2.18l0,0c-.58.43-1.19.83-1.81,1.23a0,0,0,0,0,0,0,22.45,22.45,0,0,1-4,1.92,22.74,22.74,0,0,1-7.87,1.41h-.05c-.7,0-1.41,0-2.13-.1a.39.39,0,0,0-.15,0,28.81,28.81,0,0,1-15.21-6.57,3.13,3.13,0,0,1-.61-.7,30.18,30.18,0,0,1-4.77-13.33c0-.2,0-.43-.05-.66s0-.48,0-.7,0-.66,0-1,0-.79,0-1.18v-.13a21.63,21.63,0,0,1,.22-2.16c0-.39.12-.77.2-1.14.15-.75.34-1.48.56-2.21s.43-1.31.68-2a1.55,1.55,0,0,1,.14-.29,17.8,17.8,0,0,1,.89-1.87s0,0,0,0c.34-.63.72-1.26,1.12-1.86a0,0,0,0,1,0,0,16.41,16.41,0,0,1,1.29-1.72c.22-.29.48-.58.73-.87a22.6,22.6,0,0,1,4.14-3.54,20.16,20.16,0,0,1,1.89-1.14,23.84,23.84,0,0,1,5.24-2c.75-.19,1.5-.32,2.26-.44a24.27,24.27,0,0,1,3.54-.27,22.69,22.69,0,0,1,16.45,6.49,21.39,21.39,0,0,1,4.31,6.25,23.18,23.18,0,0,1,1.17,3.15Z"/>
<path class="cls-1" transform="translate(0)" d="m441.4 404.85c0.66-1 1.31-1.82 1.91-2.59-0.61 0.87-1.26 1.74-1.91 2.59z"/>
<path class="cls-1" transform="translate(0)" d="M480.41,288.58a190.92,190.92,0,0,1-1.94,27.33v0a2.06,2.06,0,0,1-.07.48s0,.09,0,.14a190.82,190.82,0,0,1-23.26,67.52c-1.48,2.61-3,5.18-4.65,7.7a.46.46,0,0,0-.07.14c-.19.29-.37.6-.56.89.56-1.89,1.19-3.78,1.81-5.69,2.15-6.4,4.39-12.81,5.33-19.38,1.79-12.67,2.28-25.54,3.17-38.33.19-2.54,2.88-43.13-21-69.53-8.16-9-16.77-17.57-25.17-26.36-5.62,16.72-14.49,31.3-28.13,42.72-13.45,11.26-27.67,21.13-45,25.51s-34.26,10.11-51.75,13.13C271,318,252.37,318.38,234,320.42c-9.33,1-18.54,3.12-27.81,4.72C182.62,328.38,163,339.27,146.34,356,134.78,367.53,128,380.57,133,397.48c.54,1.84.31,3.92.44,5.89.78,1.29,1.57,2.57,2.35,3.87a192.39,192.39,0,0,1-25.41-43,.14.14,0,0,1,0-.09A191.52,191.52,0,0,1,95.93,308.3q-.15-1.5-.27-3c0-.34-.07-.68-.09-1s0-.56-.07-.83c0-.49-.07-1-.09-1.5,0-.27,0-.56-.07-.83s0-.46,0-.68c0-.51-.09-1-.1-1.52q0-.51,0-1c0-.36,0-.72-.05-1.07,0-.83-.07-1.69-.09-2.52,0-.36,0-.72,0-1.07a5.62,5.62,0,0,1,0-.58c0-.46,0-.94,0-1.4,0-.89,0-1.75,0-2.64v-.41A193.94,193.94,0,0,1,101,240.43c.22-.83.44-1.67.68-2.5a191.46,191.46,0,0,1,28.06-59.8q5-7.23,10.76-13.95c2.86-3.41,5.86-6.71,9-9.89,1.7-1.77,3.44-3.49,5.21-5.19q1.77-1.69,0,0a192.71,192.71,0,0,1,236.59-23l.26.14.46.31a193,193,0,0,1,82.06,112.88c.15.58.31,1.16.46,1.74q1.67,6.57,2.86,13.3v0c.66,3.64,1.21,7.34,1.63,11,.05.32.1.66.12,1a.25.25,0,0,1,0,.12,193.47,193.47,0,0,1,1.24,21.92Z"/>
<path class="cls-2" transform="translate(0)" d="M437.21,139.06A211.47,211.47,0,0,0,138.15,438.12l.49.48a211.41,211.41,0,0,0,297.42.63q.58-.54,1.14-1.11a211.49,211.49,0,0,0,0-299.06Zm41.26,176.88a2.06,2.06,0,0,1-.07.48s0,.09,0,.14a190.82,190.82,0,0,1-23.26,67.52c-1.48,2.61-3,5.18-4.65,7.7a.46.46,0,0,0-.07.14c-.19.29-.37.6-.56.89q-3,4.68-6.28,9.16c-.09.1-.17.2-.26.32-.61.87-1.26,1.74-1.91,2.59l-.09.1a192.39,192.39,0,0,1-153.63,76.36c-62.71,0-116.63-29-151.89-74.09a192.39,192.39,0,0,1-25.41-43,.14.14,0,0,1,0-.09,191.52,191.52,0,0,1-14.41-55.87q-.15-1.5-.27-3c-.07-.61-.12-1.23-.15-1.84s-.07-1-.09-1.5c0-.27,0-.56-.07-.83s0-.46,0-.68c0-.51-.09-1-.1-1.52q0-.51,0-1c0-.36,0-.72,0-1.07,0-.83-.07-1.69-.09-2.52,0-.36,0-.72,0-1.07a5.62,5.62,0,0,1,0-.58c0-.46,0-.94,0-1.4,0-.87,0-1.75,0-2.64v-.41A193.94,193.94,0,0,1,101,240.43c.22-.83.44-1.67.68-2.5a191.46,191.46,0,0,1,28.06-59.8q5-7.23,10.76-13.95c2.86-3.41,5.86-6.71,9-9.89,1.7-1.77,3.44-3.49,5.21-5.19q1.77-1.69,0,0a192.77,192.77,0,0,1,319.37,90.36c.15.58.31,1.16.46,1.74q1.67,6.57,2.86,13.3v0c.66,3.64,1.21,7.34,1.63,11,.05.32.1.66.12,1a.25.25,0,0,1,0,.12,193.47,193.47,0,0,1,1.24,21.92A190.92,190.92,0,0,1,478.46,316v0Z"/>
<path class="cls-3" transform="translate(0)" d="M439.17,259.86c-8.16-9-16.77-17.57-25.17-26.36-5.62,16.72-14.49,31.3-28.13,42.72-13.45,11.26-27.67,21.13-45,25.51s-34.26,10.11-51.75,13.13C271,318,252.37,318.37,234,320.41c-9.33,1-18.54,3.12-27.81,4.72C182.62,328.37,163,339.26,146.34,356,134.78,367.52,128,380.56,133,397.47c.54,1.84.31,3.92.44,5.89.78,1.29,1.57,2.57,2.35,3.87A192.73,192.73,0,0,0,441.3,405a.41.41,0,0,1,.09-.1c.66-.95,1.31-1.82,1.91-2.59.09-.12.17-.22.26-.32,2.18-3,4.27-6.05,6.28-9.16.56-1.89,1.19-3.78,1.81-5.69,2.15-6.4,4.39-12.81,5.33-19.38,1.79-12.67,2.28-25.54,3.17-38.33.19-2.54,2.88-43.13-21-69.53Zm-25.42,86.88a21.89,21.89,0,0,1-.77,3.34,23.29,23.29,0,0,1-4.21,7.82,19.73,19.73,0,0,1-1.46,1.6,21.59,21.59,0,0,1-2.49,2.18l0,0c-.58.44-1.19.85-1.81,1.23a0,0,0,0,0,0,0,22.45,22.45,0,0,1-4,1.92,22.74,22.74,0,0,1-7.87,1.41h-.05c-.7,0-1.41,0-2.13-.1a.39.39,0,0,0-.15,0,28.81,28.81,0,0,1-15.21-6.57,3.13,3.13,0,0,1-.61-.7,30.18,30.18,0,0,1-4.77-13.33c0-.2,0-.43-.05-.66s0-.46,0-.7,0-.66,0-1a22.06,22.06,0,0,1,.27-3.47c.05-.39.12-.77.2-1.14a16.25,16.25,0,0,1,.56-2.21c.19-.66.43-1.33.68-2a1.55,1.55,0,0,1,.14-.29,17.8,17.8,0,0,1,.89-1.87s0,0,0,0c.34-.63.72-1.26,1.12-1.86a0,0,0,0,1,0,0,16.41,16.41,0,0,1,1.29-1.72c.22-.29.48-.58.73-.87a22.6,22.6,0,0,1,4.14-3.54,20.16,20.16,0,0,1,1.89-1.14,23.84,23.84,0,0,1,5.24-2,18.07,18.07,0,0,1,2.26-.44,24.27,24.27,0,0,1,3.54-.27,22.69,22.69,0,0,1,16.45,6.49,21.39,21.39,0,0,1,4.31,6.25,23.18,23.18,0,0,1,1.17,3.15,24.82,24.82,0,0,1,1,7,22.57,22.57,0,0,1-.27,3.51Z"/>
<path class="cls-4" transform="translate(0)" d="M480,279.34c0-1.5-.1-3-.19-4.48.07,1.48.14,3,.17,4.48q-.76,18.78-1.55,37.56.76-18.78,1.57-37.56Zm-.19-4.48q-.22-4.47-.72-8.89C479.4,268.92,479.63,271.88,479.81,274.86Z"/>
<path class="cls-5" transform="translate(0)" d="M538.46,428.68c-11.36,16.64-22.89,32.66-43.73,38-23.52,6-45.74-4-57.51-25.44-.37-.66-.75-1.33-1.16-2-.63-1-1.28-2.06-1.92-3.1-.49-2.69-.83-5.43-1.5-8.09-1.74-6.93,4.09-16.69,8.67-23.07a.41.41,0,0,1,.09-.1c.66-.95,1.31-1.82,1.91-2.59.09-.12.17-.22.26-.32,1.35-1.77,2.37-3,2.67-3.39,0,0,2.26-3.42,3.41-5.14,0,0,0,.05,0,.07.27-.53.53-1.06.78-1.58a.37.37,0,0,1,.07-.14c.51-1,1-2,1.41-3,2.72-6,5-12.41,7.95-18.2A166.31,166.31,0,0,0,472.48,336c1.07-4.24,3.63-8.55,4.56-12.79a73.62,73.62,0,0,0,1.65-12.82c.43-10.35,0-20.72.41-31.08,0-1.5-.58-3.1-.66-4.58-.15-3-.9-5.84-1.23-8.79-.48-4.41-1.14-8.63-2-13-2.72-14.44-5.38-28.61-11.44-42.26-1-2.21-2-4.39-3.05-6.54-15.67-31.79-38.54-54.47-68.59-74.38-3.44-2-7.22-4.6-10.88-5.94-17.35-6.35-34.74-9.08-52.16-15.22-27.88-7.56-53.28-10-81.16-3-2.28.07-7,.07-9.28.15-11.31,4.58-22.63,5.6-33.94,10.18l-22.34,12.5L159,145.21c-1.41,1.29-2.84,2.59-4.27,3.87-1,.85-1,.85,0,0-.94.89-1.89,1.74-2.84,2.59q-1.17,1.31-2.37,2.61c-3,3.3-6,6.61-9,9.89q-3.63,4-7.25,8l-3.51,5.94q-3.37,5.74-6.79,11.44a198.07,198.07,0,0,0-21.27,48.36c-.24.83-.46,1.67-.68,2.5a173.18,173.18,0,0,0-5.24,29.49Q95,279.07,95,288.17v.41c0,.89,0,1.77,0,2.64,0,.46,0,.92,0,1.4a5.62,5.62,0,0,0,0,.58c0,.36,0,.72,0,1.07,0,.83,0,1.67.09,2.52,0,.36,0,.72,0,1.07s0,.68,0,1c0,.73.09,1.46.14,2.2s.09,1.55.15,2.33c0,.61.09,1.23.15,1.84,0,.14,0,.26,0,.39.1,1.12.2,2.25.32,3.37,0,.65.12,1.29.2,1.92q.3,2.86.7,5.7c.12.9.24,1.79.37,2.67.17,1.07.32,2.13.51,3.2s.36,2.21.56,3.3c.32,1.75.65,3.51,1,5.26.56,2.76,1.19,5.52,1.86,8.26a1,1,0,0,1,.05.24c.66,2.72,1.38,5.45,2.16,8.16.32,1.17.66,2.35,1,3.51.07.22.14.46.22.68s.15.51.24.77a49.64,49.64,0,0,0,2.21,5.57.16.16,0,0,1,0,.1c.65,1.38,1.36,2.72,2.13,4l1.09,1.84.31.51q11.34,19.33,22.75,38.6c.78,1.29,1.57,2.57,2.35,3.87.68,1.12,1.38,2.26,2.06,3.39a19.06,19.06,0,0,1,2.72,11.66c-.53,5.74-1.43,13.52-1.92,16.31a4,4,0,0,1-.27,1c-7.8,23.06-39.51,36-63.64,24.66a76.8,76.8,0,0,1-25-19.4c-16.42-19.41-26.26-42.61-33.75-66.77A257,257,0,0,1,.43,294.71c-2.16-36.46,3.93-71.79,16.36-105.87,25-68.45,83.15-121.85,100.4-134.4,20.57-16.42,43.88-27.84,68.32-37,10.3-3.88,21-6.86,31.47-10.11C227.67,4,259.79,0,301.92,0,359,0,409.71,19,455.74,51.24a272,272,0,0,1,82.11,91.66c1.07,1.94,91.27,153,.61,285.77Z"/>
<path class="cls-6" transform="translate(0)" d="M480,279.85v.32c0,8.68-.82,21.44-1.29,31,0,.7-.05,1.36-.09,2s-.07,1.26-.09,1.87c0,.12,0,.58-.1,1.36,0,0,0,.09,0,.14-.66,7.54-4.7,41.52-23.26,67.52-.61.87-1.24,1.72-1.89,2.57a13.63,13.63,0,0,0-1.35,2.15c-.53,1-1,2-1.41,3a.46.46,0,0,0-.07.14c-.26.53-.51,1.06-.78,1.58,0,0,0-.05,0-.07.07-.2.12-.43.2-.63.56-1.89,1.19-3.78,1.81-5.69,2.15-6.4,4.39-12.81,5.33-19.38,1.79-12.67,2.28-25.54,3.17-38.33.19-2.54,2.88-43.13-21-69.53-8.16-9-16.77-17.57-25.17-26.36-5.62,16.72-14.49,31.3-28.13,42.72-13.45,11.26-27.67,21.13-45,25.51s-34.26,10.11-51.75,13.13C271,318,252.37,318.36,234,320.4c-9.33,1-18.54,3.12-27.81,4.72C182.62,328.36,163,339.25,146.34,356,134.78,367.51,128,380.55,133,397.46c.54,1.84.31,3.92.44,5.89Q122,384,110.68,364.75c-.12-.2-.24-.39-.34-.6-1.11-1.89-2.15-3.85-3.18-5.79a.16.16,0,0,0,0-.1c-.37-.72-.77-1.45-1.16-2.16-.36-1.14-.72-2.26-1.06-3.41-.09-.26-.17-.51-.24-.77-.43-1.4-.83-2.79-1.23-4.19-.77-2.71-1.48-5.43-2.16-8.16a1,1,0,0,0-.05-.24c-.66-2.74-1.28-5.5-1.86-8.26-.36-1.75-.68-3.51-1-5.26-.19-1.11-.39-2.2-.56-3.3s-.34-2.13-.51-3.2c-.14-.89-.26-1.77-.37-2.67-.27-1.89-.49-3.8-.7-5.7-.09-.63-.15-1.28-.2-1.92,0-.24-.05-.49-.07-.73-.1-.89-.17-1.75-.26-2.64,0-.14,0-.26,0-.39,0-.34-.07-.68-.09-1-.07-.78-.12-1.55-.15-2.33,0-.27,0-.56-.07-.83s0-.46,0-.68c-.07-.85-.1-1.69-.14-2.54,0-.36,0-.72-.05-1.07,0-.83-.07-1.69-.09-2.52,0-.36,0-.72,0-1.07a5.62,5.62,0,0,1,0-.58c0-.46,0-.94,0-1.4,0-.89,0-1.75,0-2.64v-.41q0-9.09.82-18.27A173,173,0,0,1,101,240.43c.22-.83.44-1.67.68-2.5A197.91,197.91,0,0,1,123,189.57q3.42-5.7,6.79-11.44c1.16-2,2.33-4,3.51-5.94q3.63-4,7.25-8,4.5-4.94,9-9.89c.8-.87,1.58-1.74,2.37-2.61.95-.85,1.91-1.7,2.84-2.59.62-.59.63-.59,0,0,1.43-1.28,2.86-2.57,4.27-3.87l23.43-16.77L204.73,116c74.74-39.44,160-4.33,186.8,10.3,30.16,19.94,53.47,45.7,69.2,78,1.06,2.15,2.06,4.33,3,6.54a198.47,198.47,0,0,1,10.27,28.69c.15.58.31,1.16.46,1.74,1,3.87,1.87,7.75,2.62,11.68l.24,1.62v0l1.63,11,.07.43c0,.19,0,.39.05.58a.25.25,0,0,1,0,.12c.05.51.1,1,.14,1.52.2,2.21.34,4.44.51,6.68,0,.49.07,1,.09,1.57,0,.22,0,.43,0,.66,0,.07,0,.14,0,.22v.58c0,.63,0,1.28,0,2Z"/>
<path class="cls-7" transform="translate(0)" d="M413,336.18a24.59,24.59,0,0,0-1.17-3.15,21.39,21.39,0,0,0-4.31-6.25,22.69,22.69,0,0,0-16.45-6.49,24.27,24.27,0,0,0-3.54.27c-.77.12-1.52.26-2.26.44a23.64,23.64,0,0,0-5.24,2c-.65.36-1.28.73-1.89,1.14a24.14,24.14,0,0,0-4.14,3.54c-.26.29-.51.58-.73.87-.44.54-.89,1.12-1.29,1.72l0,0c-.39.6-.77,1.23-1.12,1.86,0,0,0,0,0,0-.32.61-.61,1.23-.89,1.87a2.59,2.59,0,0,0-.14.29c-.26.65-.48,1.29-.68,2s-.41,1.46-.56,2.21a10.43,10.43,0,0,0-.2,1.14,22.88,22.88,0,0,0-.24,4.48c0,.22,0,.46,0,.7s0,.46.05.66A30.18,30.18,0,0,0,373,358.86a3.37,3.37,0,0,0,.61.7,28.73,28.73,0,0,0,15.21,6.57.39.39,0,0,1,.15,0c.72.07,1.43.1,2.13.1h.05A22.89,22.89,0,0,0,403,362.92a0,0,0,0,1,0,0c.61-.39,1.23-.8,1.81-1.23l0,0a21.59,21.59,0,0,0,2.49-2.18c.51-.51,1-1,1.46-1.6a23.28,23.28,0,0,0,4.21-7.82,21.62,21.62,0,0,0,.77-3.34,21.41,21.41,0,0,0,.27-3.51,24.82,24.82,0,0,0-1-7.05Z"/>
<path class="cls-8" transform="translate(0)" d="M414,343.23a23.87,23.87,0,0,1-.26,3.51,26.55,26.55,0,0,1-.77,3.34,23.29,23.29,0,0,1-4.21,7.82c-.48.56-.95,1.09-1.46,1.6a22.46,22.46,0,0,1-2.49,2.18l0,0c-.58.43-1.19.83-1.81,1.23a0,0,0,0,0,0,0,24.74,24.74,0,0,1-4,1.92,22.74,22.74,0,0,1-7.87,1.41h-.05c-.72,0-1.43,0-2.13-.1a.39.39,0,0,0-.15,0,23.81,23.81,0,0,1-20.59-20.6c0-.2,0-.43-.05-.66s0-.48,0-.7,0-.66,0-1,0-.79,0-1.18v-.13a21.63,21.63,0,0,1,.22-2.16c.05-.39.12-.77.2-1.14.15-.75.34-1.48.56-2.21s.43-1.31.68-2a1.55,1.55,0,0,1,.14-.29,17.8,17.8,0,0,1,.89-1.87s0,0,0,0c.34-.63.72-1.26,1.12-1.86a0,0,0,0,1,0,0,16.41,16.41,0,0,1,1.29-1.72c.22-.29.48-.58.73-.87a22.6,22.6,0,0,1,4.14-3.54,20.16,20.16,0,0,1,1.89-1.14,23.84,23.84,0,0,1,5.24-2c.75-.19,1.5-.32,2.26-.44a24.27,24.27,0,0,1,3.54-.27,22.69,22.69,0,0,1,16.45,6.49,21.78,21.78,0,0,1,4.31,6.25,23.18,23.18,0,0,1,1.17,3.15,25.55,25.55,0,0,1,1,7Z"/>
<style>.504dd6586773467fd281d7e0ecb30ab7{height:70px}</style>
</svg>
