<?xml version="1.0" encoding="UTF-8"?>
<svg enable-background="new 0 0 652 652" version="1.1" viewBox="21.6 261.6 600 120.3" xml:space="preserve" xmlns="http://www.w3.org/2000/svg">
<style type="text/css">
	.st0{fill:#4D4D4D;}
	.st1{fill:#9B65C3;}
	.st2{fill:#BE63C5;}
	.st3{fill:#BF63C6;}
	.st4{fill:#3278B1;}
	.st5{fill:#3278B2;}
	.st6{fill:#45A4EC;}
	.st7{fill:#19BB7D;}
	.st8{fill:#08C7FB;}
	.st9{fill:#59F2F6;}
	.st10{fill:#FFA700;}
	.st11{fill:#DA3757;}
	.st12{fill:#D33C4E;}
	.st13{fill:#EE5A24;}
	.st14{fill:#8BDF55;}
	.st15{fill:#25C16F;}
	.st16{fill:#FFBB00;}
	.st17{fill:#FFA800;}
</style>
	<path class="st0" d="m167.8 264.7c-15.1 0-20.4 10.5-20.4 20.3v6h-3.2c-2.3 0-4.1 1.8-4.1 4.1s1.8 4.1 4.1 4.1h3.2v41.4c0 2.4 1.9 4.4 4.4 4.4 2.4 0 4.4-1.9 4.4-4.4v-41.4h9.7c2.3 0 4.1-1.8 4.1-4.1s-1.8-4.1-4.1-4.1h-9.7v-6c0-5.5 2-12 11.7-12 2.3 0 4.1-1.8 4.1-4.1-0.1-2.4-1.9-4.2-4.2-4.2"/>
	<path class="st0" d="m201.8 289.6c-6.5 0-12 2.7-15.1 7.1v-2.3c0-2.4-1.9-4.4-4.4-4.4-2.4 0-4.4 1.9-4.4 4.4v46.2c0 2.4 1.9 4.4 4.4 4.4 2.4 0 4.4-1.9 4.4-4.4v-25.5c0-10.7 5.7-17.1 15.1-17.1 2.3 0 4.2-1.9 4.2-4.2 0.1-2.3-1.8-4.2-4.2-4.2"/>
	<path class="st0" d="m255.3 312.3c0-2.5-0.4-9-4.2-14.4-3.9-5.6-10-8.5-18.3-8.5-15.4 0-24.2 10.2-24.2 28 0 18.4 8.8 28.2 25.3 28.2 11.1 0 17.2-5.5 18.3-6.6 0.7-0.7 1.5-1.6 1.5-3.1 0-2.2-1.8-4-4-4-1.1 0-1.8 0.3-2.5 0.8-3.2 2.4-6.9 4.8-13.2 4.8-9.9 0-16.2-6.5-16.5-17.1h32.5c5.3-0.1 5.3-4.9 5.3-8.1m-22.5-14.9c9 0 13.7 5.1 13.9 15.1h-29.1c0.8-9.7 6.2-15.1 15.2-15.1"/>
	<path class="st0" d="m284.7 313c-6.5-2.2-12.1-4.2-12.1-9 0-5.3 5.9-6.1 9.4-6.1 6.3 0 9.4 2.2 11.9 4.6 0.8 0.8 1.8 1.2 2.9 1.2 2.2 0 4-1.8 4-4 0-1.2-0.5-2-0.9-2.6-3.7-4.9-10-7.6-17.9-7.6-11.2 0-18.1 5.6-18.1 14.5 0 10.9 9.6 14.2 18 17 6.4 2.2 11.9 4 11.9 8.7 0 6.4-7.1 7.4-11.4 7.4-5.8 0-10.3-1.8-14-5.4-1.1-1.1-2.3-1.3-3-1.3-2.2 0-4 1.8-4 4 0 0.9 0.3 1.6 1 2.6 3.3 4.2 10.8 8.5 20 8.5 12.6 0 20.1-5.9 20.1-15.7 0-10.6-9.4-13.9-17.8-16.8"/>
	<path class="st0" d="m336.6 289.4c-6 0-11.4 2.4-14.4 6.2v-29.6c0-2.4-1.9-4.4-4.4-4.4-2.4 0-4.4 1.9-4.4 4.4v74.7c0 2.4 1.9 4.4 4.4 4.4 2.4 0 4.4-1.9 4.4-4.4v-28.1c0-10.1 4.9-15.2 14.4-15.2 9.2 0 13 4.2 13 14.4v28.9c0 2.4 1.9 4.4 4.4 4.4 2.4 0 4.4-1.9 4.4-4.4v-30.4c-0.2-13.9-7.5-20.9-21.8-20.9"/>
	<path class="st0" d="m431.1 290.1c-1.9 0-3.4 1.1-4.1 2.9l-12.5 35.6-10.2-35.6c-0.4-1.4-1.9-2.9-4.1-2.9s-3.7 1.5-4.1 2.9l-10.2 35.5-12.5-35.6c-0.7-1.8-2.2-2.8-4.1-2.8-2.4 0-4.4 1.9-4.4 4.4 0 0.6 0.1 1.2 0.4 1.8l16.7 45.9c0.7 1.8 2.2 2.8 4.1 2.8 2 0 3.7-1.3 4.2-3.1l9.8-33.7 9.8 33.7c0.5 1.8 2.3 3.1 4.2 3.1s3.4-1.1 4.1-2.9l16.7-45.9c0.3-0.6 0.4-1.3 0.4-1.9 0.1-2.3-1.8-4.2-4.2-4.2"/>
	<path class="st0" d="m462.9 289.4c-15.9 0-24.6 10-24.6 28 0 18.2 8.7 28.2 24.6 28.2s24.6-10 24.6-28.2c0-18.1-8.8-28-24.6-28m0 48.2c-10.6 0-15.8-6.6-15.8-20.1 0-13.3 5.3-20 15.8-20s15.8 6.7 15.8 20c0 13.5-5.2 20.1-15.8 20.1"/>
	<path class="st0" d="m521.3 289.6c-6.5 0-12 2.7-15.1 7.1v-2.3c0-2.4-1.9-4.4-4.4-4.4-2.4 0-4.4 1.9-4.4 4.4v46.2c0 2.4 1.9 4.4 4.4 4.4 2.4 0 4.4-1.9 4.4-4.4v-25.5c0-10.7 5.7-17.1 15.1-17.1 2.3 0 4.2-1.9 4.2-4.2s-1.9-4.2-4.2-4.2"/>
	<path class="st0" d="m554.5 312.4 18.1-14.5c1.5-1.2 1.7-2.7 1.7-3.5 0-2.4-1.9-4.4-4.4-4.4-0.7 0-1.9 0.1-3 1.1l-25.7 21v-46.1c0-2.4-1.9-4.4-4.4-4.4-2.4 0-4.4 1.9-4.4 4.4v74.7c0 2.4 1.9 4.4 4.4 4.4 2.4 0 4.4-1.9 4.4-4.4v-18l6.1-4.9 19.7 25.3c1.1 1.3 2.3 2 3.7 2 2.4 0 4.4-1.9 4.4-4.4 0-0.7-0.1-1.7-0.9-2.7l-19.7-25.6z"/>
	<path class="st0" d="m603.8 313c-6.5-2.2-12.1-4.2-12.1-9 0-5.3 5.9-6.1 9.4-6.1 6.3 0 9.4 2.2 11.9 4.6 0.8 0.8 1.8 1.2 2.9 1.2 2.2 0 4-1.8 4-4 0-1.3-0.7-2.2-0.9-2.6-3.7-4.9-10-7.6-17.9-7.6-11.2 0-18.1 5.6-18.1 14.5 0 10.9 9.6 14.2 18 17 6.4 2.2 11.9 4 11.9 8.7 0 6.4-7.1 7.4-11.4 7.4-5.8 0-10.3-1.8-14-5.4-1.1-1.1-2.2-1.3-3-1.3-2.2 0-4 1.8-4 4 0 0.9 0.3 1.6 1 2.6 3.3 4.2 10.8 8.5 20 8.5 12.6 0 20.1-5.9 20.1-15.7 0-10.6-9.4-13.9-17.8-16.8"/>
	<path class="st1" d="m22.2 338.2c1.7 11.1 6.9 21.1 14.4 28.6l17.5-17.5c0-17.7 9.2-34.9 25.6-44.4l-57.5 33.3z"/>
	<path class="st1" d="m54.1 349.3c-8.7 0-17.5-2.2-25.6-6.9-2.2-1.3-4.3-2.7-6.3-4.3 1.7 11.1 6.9 21.1 14.4 28.6l17.5-17.4z"/>
	<path class="st2" d="m54.1 349.3-17.5 17.5c7.6 7.6 17.5 12.8 28.6 14.4l33.2-57.5c-9.4 16.4-26.6 25.6-44.3 25.6"/>
	<path class="st3" d="m61 375c-4.7-8.1-6.9-16.9-6.9-25.6l-17.5 17.5c7.6 7.6 17.5 12.8 28.6 14.4-1.5-2-2.9-4.1-4.2-6.3"/>
	<path class="st4" d="m119.3 282.1-39.5 22.9c-16.4 9.5-35.9 8.8-51.2 0-4.4 7.5-6.9 16.3-6.9 25.6 0 2.6 0.2 5.1 0.6 7.6 2 1.6 4.1 3 6.3 4.3 8.1 4.7 16.9 6.9 25.6 6.9l66.2-66.2c-0.4-0.4-0.7-0.8-1.1-1.1"/>
	<path class="st5" d="m28.5 342.5c8.1 4.7 16.9 6.9 25.6 6.9 0-17.7 9.2-34.9 25.6-44.4l-57.6 33.2c2.1 1.5 4.2 3 6.4 4.3"/>
	<path class="st6" d="m28.5 305c-4.4 7.5-6.9 16.3-6.9 25.6 0 2.6 0.2 5.1 0.6 7.6l57.6-33.2c-16.5 9.4-36 8.8-51.3 0"/>
	<path class="st7" d="m120.4 283.1c-0.3-0.3-0.7-0.7-1.1-1-0.5-0.4-1-0.8-1.6-1.1-1.9-1.1-4.1-1.7-6.4-1.7h-38.4c-19 0-35.5 10.3-44.4 25.6 15.3 8.8 34.8 9.5 51.2 0-16.4 9.5-25.6 26.7-25.6 44.4 17.7 0 34.9-9.2 44.4-25.6l22.8-39.5c-0.3-0.4-0.6-0.8-0.9-1.1"/>
	<path class="st8" d="m79.8 305 39.5-22.8c-0.5-0.4-1-0.8-1.6-1.1l-89.2 23.9c15.3 8.8 34.8 9.4 51.3 0"/>
	<path class="st9" d="m111.3 279.3h-38.4c-19 0-35.5 10.3-44.4 25.6l89.2-23.9c-1.9-1-4-1.7-6.4-1.7"/>
	<path class="st10" d="m54.1 349.3"/>
	<path class="st11" d="m98.5 323.7 22.8-39.5c-0.3-0.4-0.6-0.7-1-1.1l-66.2 66.2c0 8.7 2.2 17.5 6.9 25.6 1.3 2.2 2.7 4.3 4.3 6.3 2.5 0.4 5 0.6 7.6 0.6 9.3 0 18.1-2.5 25.6-6.9-8.8-15.3-9.5-34.8 0-51.2"/>
	<path class="st12" d="m54.1 349.3c0 8.7 2.2 17.5 6.9 25.6 1.3 2.2 2.7 4.3 4.3 6.3l33.2-57.5c-9.5 16.4-26.7 25.6-44.4 25.6"/>
	<path class="st13" d="m98.5 323.7-33.2 57.6c2.5 0.4 5 0.6 7.6 0.6 9.3 0 18.1-2.5 25.6-6.9-8.8-15.4-9.5-34.9 0-51.3"/>
	<path class="st14" d="m122.4 285.8c-0.3-0.6-0.7-1.1-1.1-1.6-0.3-0.4-0.6-0.7-1-1.1-0.3-0.3-0.7-0.7-1.1-1l-39.4 22.9c-16.4 9.5-25.6 26.7-25.6 44.4 17.7 0 34.9-9.2 44.4-25.6-9.5 16.4-8.8 35.9 0 51.2 15.3-8.9 25.6-25.4 25.6-44.4v-38.4c-0.1-2.4-0.7-4.6-1.8-6.4"/>
	<path class="st15" d="m119.3 282.1-39.5 22.9c-16.4 9.5-25.6 26.7-25.6 44.4l66.2-66.2c-0.4-0.4-0.7-0.8-1.1-1.1"/>
	<path class="st14" d="m54.1 349.3c17.7 0 34.9-9.2 44.4-25.6l22.8-39.5c-0.3-0.4-0.6-0.7-1-1.1l-66.2 66.2z"/>
	<path class="st16" d="m121.3 284.2-22.8 39.5c-9.5 16.4-8.8 35.9 0 51.2l23.9-89.2c-0.3-0.5-0.7-1-1.1-1.5"/>
	<path class="st17" d="M98.5,375c15.3-8.9,25.6-25.4,25.6-44.4v-38.4c0-2.3-0.6-4.5-1.7-6.4L98.5,375z"/>
<style>.1f3fab5b8c769aaa8dbef5b5ee689e92{height:30px}</style>
</svg>
