<?xml version="1.0" encoding="UTF-8"?>
<svg fill="none" viewBox="0 0 102 36" xmlns="http://www.w3.org/2000/svg">
<g clip-path="url(#a)">
<path d="m1.5 8.6252v3l3.4406 3.33 4.0594 2.295 0.75-5.0494-0.75-4.7006-2.1-1.575c-2.2256-1.6688-5.4-0.08062-5.4 2.7z" fill="#C5221F"/>
<path d="m27 7.5002-0.75 4.7625 0.75 4.9875 3.6844-1.8244 3.8156-3.8006v-3c0-2.7806-3.1744-4.3688-5.4-2.7l-2.1 1.575z" fill="#FFBA00"/>
<path d="M3.75 30H9V17.25L1.5 11.625V27.75C1.5 28.9931 2.50687 30 3.75 30Z" fill="#2684FC"/>
<path d="M27 30H32.25C33.4931 30 34.5 28.9931 34.5 27.75V11.625L27 17.25V30Z" fill="#00AC47"/>
<path d="m18 14.25-9-6.75v9.75l9 6.75 9-6.75v-9.75l-9 6.75z" fill="#E94235"/>
</g>
<path d="m60.742 18.262c0 2.2-0.6527 3.9527-1.958 5.258-1.4667 1.5547-3.3953 2.332-5.786 2.332-2.288 0-4.224-0.792-5.808-2.376s-2.376-3.5347-2.376-5.852 0.792-4.268 2.376-5.852 3.52-2.376 5.808-2.376c1.1587 0 2.2513 0.20533 3.278 0.616 1.0267 0.4107 1.87 0.99 2.53 1.738l-1.452 1.452c-0.484-0.5867-1.1147-1.0413-1.892-1.364-0.7627-0.3373-1.584-0.506-2.464-0.506-1.716 0-3.168 0.594-4.356 1.782-1.1733 1.2027-1.76 2.706-1.76 4.51s0.5867 3.3073 1.76 4.51c1.188 1.188 2.64 1.782 4.356 1.782 1.5693 0 2.8747-0.44 3.916-1.32s1.6427-2.09 1.804-3.63h-5.72v-1.892h7.634c0.0733 0.4107 0.11 0.8067 0.11 1.188zm4.213 7.238h-2.024v-10.78h1.936v1.496h0.088c0.308-0.528 0.7773-0.968 1.408-1.32 0.6453-0.352 1.2833-0.528 1.914-0.528 0.792 0 1.4887 0.1833 2.09 0.55s1.0413 0.8727 1.32 1.518c0.8947-1.3787 2.134-2.068 3.718-2.068 1.2467 0 2.2073 0.3813 2.882 1.144s1.012 1.848 1.012 3.256v6.732h-2.024v-6.424c0-1.012-0.1833-1.738-0.55-2.178-0.3667-0.4547-0.9827-0.682-1.848-0.682-0.7773 0-1.43 0.33-1.958 0.99s-0.792 1.4373-0.792 2.332v5.962h-2.024v-6.424c0-1.012-0.1833-1.738-0.55-2.178-0.3667-0.4547-0.9827-0.682-1.848-0.682-0.7773 0-1.43 0.33-1.958 0.99s-0.792 1.4373-0.792 2.332v5.962zm18.159-3.3c0 0.528 0.22 0.968 0.66 1.32 0.4546 0.352 0.9826 0.528 1.584 0.528 0.8506 0 1.606-0.3153 2.266-0.946 0.6746-0.6307 1.012-1.3713 1.012-2.222-0.6307-0.4987-1.5107-0.748-2.64-0.748-0.8214 0-1.5107 0.198-2.068 0.594-0.5427 0.396-0.814 0.8873-0.814 1.474zm2.618-7.832c1.496 0 2.6766 0.4033 3.542 1.21 0.8653 0.792 1.298 1.8847 1.298 3.278v6.644h-1.936v-1.496h-0.088c-0.836 1.232-1.9507 1.848-3.344 1.848-1.188 0-2.1854-0.352-2.992-1.056-0.792-0.704-1.188-1.584-1.188-2.64 0-1.1147 0.418-2.002 1.254-2.662 0.8506-0.66 1.98-0.99 3.388-0.99 1.2026 0 2.1926 0.22 2.97 0.66v-0.462c0-0.704-0.2787-1.298-0.836-1.782-0.5574-0.4987-1.21-0.748-1.958-0.748-1.1294 0-2.024 0.4767-2.684 1.43l-1.782-1.122c0.9826-1.408 2.4346-2.112 4.356-2.112zm9.8226-3.366c0 0.396-0.1393 0.7333-0.418 1.012-0.2786 0.2787-0.616 0.418-1.012 0.418s-0.7333-0.1393-1.012-0.418c-0.2786-0.2787-0.418-0.616-0.418-1.012s0.1394-0.7333 0.418-1.012c0.2787-0.27867 0.616-0.418 1.012-0.418s0.7334 0.13933 1.012 0.418c0.2787 0.2787 0.418 0.616 0.418 1.012zm-0.418 3.718v10.78h-2.024v-10.78h2.024zm4.7398-4.972v15.752h-2.024v-15.752h2.024z" fill="#5F6368"/>
<defs>
<clipPath id="a">
<rect width="36" height="36" fill="#fff"/>
</clipPath>
</defs>
<style>.3f4e6b083c13444a7fcd4ae5b1769a83{height:26px}</style>
</svg>
