<?xml version="1.0" encoding="UTF-8"?>
<svg fill="none" viewBox="0 0 173 36" xmlns="http://www.w3.org/2000/svg">
<g clip-path="url(#a)">
<path d="m24.062 22.875 1.8919 4.4381 3.2606 4.485c0.5044-0.2906 0.9338-0.7125 1.2356-1.2356l3.465-6c0.3019-0.5212 0.4519-1.1044 0.4519-1.6875l-5.3212-0.5625-4.9838 0.5625z" fill="#EA4335"/>
<path d="m12.196 3.9431c0.0056-0.00375 0.0094-0.00937 0.015-0.01312-0.0056 0.00375-0.0094 0.00937-0.015 0.01312z" fill="#00832D"/>
<path d="m12.525 3.6656c-0.0056 0.00562-0.0131 0.00937-0.0187 0.01312 0.0056-0.00375 0.0131-0.0075 0.0187-0.01312z" fill="#00832D"/>
<path d="m11.923 4.2412c0.0018-0.00188 0.0037-0.00375 0.0056-0.00563-0.0019 0.00188-0.0038 0.00375-0.0056 0.00563z" fill="#00832D"/>
<path d="m23.152 3.4519c-0.5044-0.29062-1.0838-0.45187-1.6875-0.45187h-6.9282c-0.6 0-1.185 0.165-1.6875 0.45187l1.9613 4.5581 3.1762 4.3388 0.0132 0.0262 3.2025-4.3856 1.95-4.5375z" fill="#00832D"/>
<path d="m11.938 22.875-5.3119-0.75-4.9912 0.75c0 0.5812 0.15 1.1625 0.45 1.6856l3.465 6.0019c0.30187 0.5212 0.73125 0.9431 1.2356 1.2356l3.2044-4.2525 1.9481-4.6706z" fill="#0066DA"/>
<path d="m29.151 12.938-4.7625-8.25c-0.3018-0.52312-0.7312-0.945-1.2356-1.2356l-5.1525 8.9231 6.0619 10.5h10.303c0-0.5831-0.15-1.1644-0.4519-1.6875l-4.7625-8.25z" fill="#FFBA00"/>
<path d="m24.061 22.875h-12.124l-5.1525 8.9231c0.50437 0.2906 1.0838 0.4519 1.6875 0.4519h19.052c0.6038 0 1.1832-0.1613 1.6875-0.4519l-5.1506-8.9231z" fill="#2684FC"/>
<path d="m24.061 22.875h-12.124l-5.1525 8.9231c0.50437 0.2906 1.0838 0.4519 1.6875 0.4519h19.052c0.6038 0 1.1832-0.1613 1.6875-0.4519l-5.1506-8.9231z" fill="#2684FC"/>
<path d="m18 12.375-5.1507-8.9231c-0.5043 0.29062-0.9318 0.71062-1.2337 1.2319l-9.5306 16.509c-0.3 0.5213-0.45 1.1025-0.45 1.6819h10.303l6.0619-10.5z" fill="#00AC47"/>
</g>
<path d="m53.042 16.964h7.678c0.0293 0.1907 0.0587 0.396 0.088 0.616 0.0293 0.2053 0.044 0.4253 0.044 0.66 0 0.9387-0.1467 1.87-0.44 2.794s-0.792 1.7453-1.496 2.464c-0.7187 0.748-1.562 1.3273-2.53 1.738s-2.0753 0.616-3.322 0.616c-1.1293 0-2.2-0.2053-3.212-0.616-0.9973-0.4107-1.87-0.9827-2.618-1.716s-1.342-1.5987-1.782-2.596c-0.4253-1.012-0.638-2.112-0.638-3.3s0.2127-2.2807 0.638-3.278c0.44-1.012 1.034-1.8847 1.782-2.618s1.6207-1.3053 2.618-1.716c1.012-0.41067 2.0827-0.616 3.212-0.616 1.2027 0 2.31 0.21267 3.322 0.638 1.0267 0.4253 1.8847 1.0193 2.574 1.782l-1.738 1.738c-0.5133-0.572-1.122-1.012-1.826-1.32-0.6893-0.308-1.474-0.462-2.354-0.462-0.748 0-1.4667 0.1393-2.156 0.418s-1.298 0.6747-1.826 1.188c-0.528 0.4987-0.946 1.1073-1.254 1.826s-0.462 1.5253-0.462 2.42 0.154 1.7013 0.462 2.42 0.726 1.3347 1.254 1.848c0.528 0.4987 1.1367 0.8873 1.826 1.166s1.4153 0.418 2.178 0.418c1.012 0 1.826-0.154 2.442-0.462 0.6307-0.308 1.1587-0.6673 1.584-1.078 0.308-0.2933 0.5793-0.6747 0.814-1.144 0.2347-0.484 0.3887-1.012 0.462-1.584h-5.324v-2.244zm14.905-2.596c0.8213 0 1.5767 0.1467 2.266 0.44 0.6893 0.2787 1.2833 0.6747 1.782 1.188s0.8873 1.122 1.166 1.826 0.418 1.4667 0.418 2.288-0.1393 1.584-0.418 2.288-0.6673 1.3127-1.166 1.826-1.0927 0.9167-1.782 1.21c-0.6893 0.2787-1.4447 0.418-2.266 0.418s-1.5767-0.1393-2.266-0.418c-0.6893-0.2933-1.2833-0.6967-1.782-1.21s-0.8873-1.122-1.166-1.826-0.418-1.4667-0.418-2.288 0.1393-1.584 0.418-2.288 0.6673-1.3127 1.166-1.826 1.0927-0.9093 1.782-1.188c0.6893-0.2933 1.4447-0.44 2.266-0.44zm0 9.218c0.4107 0 0.8067-0.0807 1.188-0.242s0.7187-0.3887 1.012-0.682c0.308-0.2933 0.55-0.6527 0.726-1.078 0.176-0.44 0.264-0.9313 0.264-1.474s-0.088-1.0267-0.264-1.452c-0.176-0.44-0.418-0.8067-0.726-1.1-0.2933-0.2933-0.6307-0.5207-1.012-0.682s-0.7773-0.242-1.188-0.242-0.8067 0.0807-1.188 0.242-0.726 0.3887-1.034 0.682c-0.2933 0.2933-0.528 0.66-0.704 1.1-0.176 0.4253-0.264 0.9093-0.264 1.452s0.088 1.034 0.264 1.474c0.176 0.4253 0.4107 0.7847 0.704 1.078 0.308 0.2933 0.6527 0.5207 1.034 0.682s0.7773 0.242 1.188 0.242zm12.586-9.218c0.8214 0 1.5767 0.1467 2.266 0.44 0.6894 0.2787 1.2834 0.6747 1.782 1.188 0.4987 0.5133 0.8874 1.122 1.166 1.826 0.2787 0.704 0.418 1.4667 0.418 2.288s-0.1393 1.584-0.418 2.288c-0.2786 0.704-0.6673 1.3127-1.166 1.826-0.4986 0.5133-1.0926 0.9167-1.782 1.21-0.6893 0.2787-1.4446 0.418-2.266 0.418-0.8213 0-1.5766-0.1393-2.266-0.418-0.6893-0.2933-1.2833-0.6967-1.782-1.21-0.4986-0.5133-0.8873-1.122-1.166-1.826-0.2786-0.704-0.418-1.4667-0.418-2.288s0.1394-1.584 0.418-2.288c0.2787-0.704 0.6674-1.3127 1.166-1.826 0.4987-0.5133 1.0927-0.9093 1.782-1.188 0.6894-0.2933 1.4447-0.44 2.266-0.44zm0 9.218c0.4107 0 0.8067-0.0807 1.188-0.242 0.3814-0.1613 0.7187-0.3887 1.012-0.682 0.308-0.2933 0.55-0.6527 0.726-1.078 0.176-0.44 0.264-0.9313 0.264-1.474s-0.088-1.0267-0.264-1.452c-0.176-0.44-0.418-0.8067-0.726-1.1-0.2933-0.2933-0.6306-0.5207-1.012-0.682-0.3813-0.1613-0.7773-0.242-1.188-0.242-0.4106 0-0.8066 0.0807-1.188 0.242-0.3813 0.1613-0.726 0.3887-1.034 0.682-0.2933 0.2933-0.528 0.66-0.704 1.1-0.176 0.4253-0.264 0.9093-0.264 1.452s0.088 1.034 0.264 1.474c0.176 0.4253 0.4107 0.7847 0.704 1.078 0.308 0.2933 0.6527 0.5207 1.034 0.682 0.3814 0.1613 0.7774 0.242 1.188 0.242zm12.454 7.018c-0.748 0-1.4154-0.1027-2.002-0.308-0.572-0.1907-1.0707-0.44-1.496-0.748-0.4254-0.308-0.7774-0.6527-1.056-1.034-0.264-0.3813-0.462-0.748-0.594-1.1l2.332-0.946c0.2053 0.572 0.5573 1.034 1.056 1.386 0.4986 0.3667 1.0853 0.55 1.76 0.55 1.012 0 1.7966-0.308 2.354-0.924 0.572-0.616 0.858-1.4667 0.858-2.552v-0.88h-0.132c-0.3374 0.484-0.8067 0.8873-1.408 1.21-0.5867 0.3227-1.276 0.484-2.068 0.484-0.66 0-1.298-0.1393-1.914-0.418s-1.166-0.6673-1.65-1.166c-0.4694-0.4987-0.8434-1.1-1.122-1.804-0.2787-0.704-0.418-1.474-0.418-2.31s0.1393-1.5987 0.418-2.288c0.2786-0.704 0.6526-1.3053 1.122-1.804 0.484-0.4987 1.034-0.8873 1.65-1.166s1.254-0.418 1.914-0.418c0.792 0 1.4813 0.1613 2.068 0.484 0.6013 0.3227 1.0706 0.726 1.408 1.21h0.132v-1.342h2.354v10.164c0 0.924-0.1467 1.738-0.44 2.442-0.2787 0.7187-0.6674 1.32-1.166 1.804-0.484 0.484-1.0707 0.8507-1.76 1.1-0.6747 0.2493-1.408 0.374-2.2 0.374zm0.088-7.128c0.396 0 0.7846-0.0733 1.166-0.22 0.3813-0.1467 0.7113-0.3667 0.99-0.66 0.2933-0.2933 0.528-0.6527 0.704-1.078s0.264-0.9167 0.264-1.474c0-0.5427-0.088-1.0267-0.264-1.452-0.176-0.44-0.4107-0.7993-0.704-1.078-0.2787-0.2933-0.6087-0.5133-0.99-0.66-0.3814-0.1613-0.77-0.242-1.166-0.242-0.4107 0-0.8067 0.0807-1.188 0.242-0.3667 0.1467-0.6967 0.3667-0.99 0.66-0.2934 0.2933-0.528 0.6527-0.704 1.078s-0.264 0.9093-0.264 1.452 0.088 1.0267 0.264 1.452 0.4106 0.7847 0.704 1.078c0.2933 0.2933 0.6233 0.5207 0.99 0.682 0.3813 0.1467 0.7773 0.22 1.188 0.22zm8.0215 2.024v-15.752h2.442v15.752h-2.442zm14.861-2.574c-0.454 0.836-1.1 1.5327-1.936 2.09s-1.862 0.836-3.08 0.836c-0.806 0-1.554-0.1393-2.244-0.418-0.674-0.2933-1.261-0.6967-1.76-1.21-0.498-0.5133-0.887-1.1147-1.166-1.804-0.278-0.704-0.418-1.474-0.418-2.31 0-0.7773 0.132-1.5107 0.396-2.2 0.264-0.704 0.631-1.3127 1.1-1.826 0.484-0.528 1.064-0.946 1.738-1.254 0.675-0.308 1.423-0.462 2.244-0.462 0.836 0 1.577 0.1393 2.222 0.418 0.66 0.2787 1.218 0.6673 1.672 1.166 0.455 0.4987 0.8 1.1 1.034 1.804 0.25 0.704 0.374 1.474 0.374 2.31v0.198c-0.014 0.0733-0.022 0.1393-0.022 0.198-0.014 0.0587-0.022 0.1173-0.022 0.176h-8.294c0.044 0.5133 0.169 0.9607 0.374 1.342 0.206 0.3813 0.455 0.6967 0.748 0.946 0.308 0.2493 0.646 0.4327 1.012 0.55 0.367 0.1173 0.726 0.176 1.078 0.176 0.704 0 1.284-0.1687 1.738-0.506 0.455-0.3373 0.829-0.7553 1.122-1.254l2.09 1.034zm-2.266-4.158c-0.029-0.22-0.102-0.462-0.22-0.726-0.102-0.2787-0.271-0.528-0.506-0.748-0.22-0.2347-0.513-0.4327-0.88-0.594-0.352-0.1613-0.784-0.242-1.298-0.242-0.704 0-1.312 0.2127-1.826 0.638-0.498 0.4107-0.836 0.968-1.012 1.672h5.742zm9.638 6.732v-15.752h4.818c2.405 0 4.334 0.726 5.786 2.178 1.466 1.452 2.2 3.3513 2.2 5.698 0 2.3613-0.734 4.268-2.2 5.72-1.452 1.4373-3.381 2.156-5.786 2.156h-4.818zm2.024-13.816v11.88h2.794c1.833 0 3.278-0.5207 4.334-1.562 1.056-1.056 1.584-2.5153 1.584-4.378 0-1.848-0.528-3.3-1.584-4.356s-2.501-1.584-4.334-1.584h-2.794zm14.511 13.816h-2.024v-10.78h1.936v1.76h0.088c0.205-0.572 0.623-1.056 1.254-1.452 0.645-0.4107 1.276-0.616 1.892-0.616 0.586 0 1.085 0.088 1.496 0.264l-0.616 1.958c-0.25-0.1027-0.646-0.154-1.188-0.154-0.763 0-1.43 0.308-2.002 0.924-0.558 0.616-0.836 1.3347-0.836 2.156v5.94zm8.668-14.498c0 0.396-0.14 0.7333-0.418 1.012-0.279 0.2787-0.616 0.418-1.012 0.418s-0.734-0.1393-1.012-0.418c-0.279-0.2787-0.418-0.616-0.418-1.012s0.139-0.7333 0.418-1.012c0.278-0.27867 0.616-0.418 1.012-0.418s0.733 0.13933 1.012 0.418c0.278 0.2787 0.418 0.616 0.418 1.012zm-0.418 3.718v10.78h-2.024v-10.78h2.024zm7.951 10.78h-2.024l-4.356-10.78h2.2l3.168 8.36h0.044l3.212-8.36h2.156l-4.4 10.78zm10.321 0.352c-1.584 0-2.889-0.5427-3.916-1.628s-1.54-2.4567-1.54-4.114c0-1.6427 0.499-3.0067 1.496-4.092 0.997-1.1 2.273-1.65 3.828-1.65 1.599 0 2.867 0.5207 3.806 1.562 0.953 1.0267 1.43 2.4713 1.43 4.334l-0.022 0.22h-8.47c0.029 1.056 0.381 1.9067 1.056 2.552s1.481 0.968 2.42 0.968c1.291 0 2.303-0.6453 3.036-1.936l1.804 0.88c-0.484 0.9093-1.159 1.6207-2.024 2.134-0.851 0.5133-1.819 0.77-2.904 0.77zm-3.234-7.04h6.182c-0.059-0.748-0.367-1.364-0.924-1.848-0.543-0.4987-1.276-0.748-2.2-0.748-0.763 0-1.423 0.2347-1.98 0.704-0.543 0.4693-0.902 1.1-1.078 1.892z" fill="#5F6368"/>
<defs>
<clipPath id="a">
<rect width="36" height="36" fill="#fff"/>
</clipPath>
</defs>
<style>.75e5383ae86073dbf30d3e91ade40812{height:93px}</style>
</svg>
