<?xml version="1.0" encoding="UTF-8"?>
<svg version="1.1" viewBox="0 0 750 210" xml:space="preserve" xmlns="http://www.w3.org/2000/svg">
		<path d="m37.53 74.37c-20.22 0-37.23-16.39-37.23-36.53 0-20.13 17-36.53 37.23-36.53 11.19 0 19.15 4.37 25.15 10.07l-7.07 7.04c-4.3-4.01-10.11-7.13-18.08-7.13-14.76 0-26.31 11.85-26.31 26.55s11.55 26.55 26.31 26.55c9.58 0 15.03-3.83 18.53-7.31 2.86-2.85 4.74-6.95 5.46-12.56h-23.99v-9.98h33.74c0.36 1.78 0.54 3.92 0.54 6.24 0 7.48-2.06 16.75-8.68 23.34-6.45 6.69-14.68 10.25-25.6 10.25z" fill="#4285F4"/>
		<path d="m123.99 50.85c0 13.54-10.46 23.52-23.28 23.52s-23.29-9.97-23.29-23.52c0-13.63 10.46-23.52 23.28-23.52s23.29 9.89 23.29 23.52zm-10.19 0c0-8.46-6.06-14.25-13.09-14.25s-13.09 5.79-13.09 14.25c0 8.38 6.06 14.25 13.09 14.25 7.03 0.01 13.09-5.87 13.09-14.25z" fill="#EA4335"/>
		<path d="m176.19 50.85c0 13.54-10.46 23.52-23.29 23.52s-23.28-9.98-23.28-23.52c0-13.63 10.46-23.52 23.28-23.52 12.83 0 23.29 9.89 23.29 23.52zm-10.19 0c0-8.46-6.06-14.25-13.09-14.25s-13.09 5.79-13.09 14.25c0 8.38 6.06 14.25 13.09 14.25 7.03 0.01 13.09-5.87 13.09-14.25z" fill="#FBBC04"/>
		<path d="m227.08 28.76v42.23c0 17.37-10.29 24.5-22.46 24.5-11.45 0-18.34-7.66-20.94-13.9l9.04-3.74c1.61 3.83 5.55 8.37 11.9 8.37 7.78 0 12.62-4.81 12.62-13.81v-3.39h-0.36c-2.33 2.85-6.8 5.34-12.44 5.34-11.81 0-22.64-10.24-22.64-23.43 0-13.27 10.83-23.61 22.64-23.61 5.64 0 10.11 2.49 12.44 5.26h0.36v-3.83h9.84zm-9.12 22.18c0-8.28-5.55-14.34-12.62-14.34-7.16 0-13.16 6.06-13.16 14.34 0 8.2 6 14.17 13.16 14.17 7.07 0 12.62-5.97 12.62-14.17z" fill="#4285F4"/>
		<path d="M245.28,3.81v69.13H234.9V3.81H245.28z" fill="#34A853"/>
		<path d="m286.09 58.61 8.05 5.34c-2.59 3.83-8.86 10.42-19.69 10.42-13.42 0-23.12-10.33-23.12-23.52 0-13.99 9.78-23.52 21.95-23.52 12.26 0 18.26 9.71 20.22 14.97l1.07 2.67-31.57 13.01c2.42 4.72 6.18 7.13 11.45 7.13 5.28 0 8.95-2.58 11.64-6.5zm-24.79-8.47 21.12-8.73c-1.17-2.94-4.65-4.99-8.77-4.99-5.28 0-12.62 4.63-12.35 13.72z" fill="#EA4335"/>
		<path d="m388.66 8.33h8.66l-17.24 64.62h-8.48l-13.9-42.6h-0.36l-13.9 42.6h-8.48l-17.95-64.62h8.66l13.63 50.81h0.36l13.99-42.14h7.76l13.99 42.15h0.36l12.9-50.82z" fill="#5F6368"/>
		<path d="m397.99 50.84c0-6.8 2.13-12.42 6.41-16.88 4.33-4.45 9.78-6.68 16.33-6.68 6.56 0 11.97 2.23 16.25 6.68 4.33 4.45 6.49 10.08 6.49 16.88 0 6.86-2.16 12.48-6.49 16.88-4.27 4.45-9.69 6.68-16.25 6.68s-12-2.23-16.33-6.68c-4.27-4.46-6.41-10.08-6.41-16.88zm8.31 0c0 4.75 1.38 8.6 4.15 11.55s6.2 4.42 10.29 4.42 7.52-1.47 10.29-4.42 4.15-6.8 4.15-11.55c0-4.69-1.39-8.51-4.15-11.46-2.83-3.01-6.26-4.51-10.29-4.51s-7.46 1.51-10.29 4.51c-2.77 2.95-4.15 6.77-4.15 11.46z" fill="#5F6368"/>
		<path d="m458.84 72.95h-8.3v-44.22h7.94v7.22h0.36c0.84-2.35 2.57-4.35 5.19-6s5.19-2.48 7.72-2.48c2.41 0 4.45 0.36 6.13 1.08l-2.53 8.04c-1.02-0.42-2.65-0.63-4.87-0.63-3.13 0-5.85 1.26-8.17 3.79s-3.48 5.48-3.48 8.84v24.36z" fill="#5F6368"/>
		<path d="m521.76 72.95h-10.02l-13.8-20.85-6.77 6.68v14.17h-8.3v-64.62h8.3v39.8l19.13-19.4h10.65v0.36l-17.24 17.15 18.05 26.35v0.36z" fill="#5F6368"/>
		<path d="m558.91 60.68c0 3.85-1.69 7.1-5.05 9.75-3.37 2.64-7.61 3.97-12.73 3.97-4.45 0-8.36-1.16-11.73-3.48-3.37-2.31-5.78-5.37-7.22-9.16l7.4-3.16c1.08 2.65 2.66 4.71 4.74 6.18s4.35 2.21 6.81 2.21c2.65 0 4.86-0.57 6.63-1.72 1.77-1.14 2.66-2.49 2.66-4.06 0-2.83-2.16-4.9-6.49-6.23l-7.58-1.89c-8.6-2.17-12.91-6.32-12.91-12.46 0-4.03 1.64-7.27 4.92-9.7 3.28-2.44 7.48-3.66 12.59-3.66 3.91 0 7.45 0.93 10.61 2.8s5.37 4.36 6.63 7.49l-7.4 3.07c-0.84-1.86-2.21-3.32-4.1-4.38-1.9-1.05-4.02-1.58-6.36-1.58-2.16 0-4.1 0.54-5.82 1.62-1.71 1.08-2.57 2.41-2.57 3.97 0 2.53 2.38 4.33 7.13 5.41l6.68 1.72c8.77 2.18 13.16 6.61 13.16 13.29z" fill="#5F6368"/>
		<path d="m588.88 74.39c-3.25 0-6.21-0.69-8.89-2.08-2.68-1.38-4.74-3.22-6.18-5.51h-0.36l0.36 6.14v19.49h-8.3v-63.7h7.94v6.13h0.36c1.44-2.28 3.51-4.12 6.18-5.51 2.67-1.38 5.64-2.07 8.89-2.07 5.84 0 10.77 2.29 14.8 6.86 4.15 4.63 6.23 10.2 6.23 16.7 0 6.56-2.08 12.12-6.23 16.7-4.03 4.57-8.97 6.85-14.8 6.85zm-1.35-7.58c3.97 0 7.31-1.5 10.02-4.51 2.71-2.95 4.06-6.77 4.06-11.46 0-4.63-1.35-8.45-4.06-11.46s-6.05-4.51-10.02-4.51c-4.03 0-7.4 1.51-10.11 4.51-2.65 3.01-3.97 6.83-3.97 11.46 0 4.69 1.32 8.54 3.97 11.55 2.71 2.95 6.07 4.42 10.11 4.42z" fill="#5F6368"/>
		<path d="m633.8 27.29c6.14 0 10.98 1.64 14.53 4.92s5.33 7.78 5.33 13.49v27.26h-7.94v-6.14h-0.36c-3.43 5.05-8 7.58-13.72 7.58-4.87 0-8.95-1.44-12.23-4.33s-4.92-6.49-4.92-10.83c0-4.57 1.73-8.21 5.19-10.92s8.08-4.06 13.86-4.06c4.93 0 8.99 0.9 12.18 2.71v-1.9c0-2.89-1.14-5.34-3.43-7.35-2.29-2.02-4.96-3.02-8.03-3.02-4.63 0-8.3 1.95-11.01 5.87l-7.31-4.6c4.03-5.8 9.98-8.68 17.86-8.68zm-10.73 32.12c0 2.16 0.92 3.97 2.75 5.41s3.99 2.17 6.45 2.17c3.49 0 6.6-1.3 9.34-3.88 2.74-2.59 4.1-5.63 4.1-9.12-2.59-2.05-6.2-3.07-10.83-3.07-3.37 0-6.18 0.81-8.44 2.44-2.25 1.63-3.37 3.64-3.37 6.05z" fill="#5F6368"/>
		<path d="m682.95 74.39c-6.56 0-12.01-2.23-16.33-6.68-4.27-4.57-6.41-10.2-6.41-16.88 0-6.8 2.13-12.42 6.41-16.88 4.33-4.45 9.77-6.68 16.33-6.68 4.51 0 8.45 1.13 11.82 3.38s5.9 5.37 7.58 9.34l-7.58 3.16c-2.35-5.54-6.47-8.3-12.37-8.3-3.79 0-7.07 1.53-9.84 4.6-2.71 3.07-4.06 6.86-4.06 11.37s1.36 8.3 4.06 11.37c2.77 3.07 6.05 4.6 9.84 4.6 6.08 0 10.35-2.77 12.82-8.3l7.4 3.16c-1.62 3.97-4.17 7.09-7.63 9.34-3.45 2.27-7.47 3.4-12.04 3.4z" fill="#5F6368"/>
		<path d="m728.82 74.39c-6.5 0-11.85-2.23-16.06-6.68s-6.32-10.08-6.32-16.88c0-6.74 2.05-12.35 6.14-16.83s9.32-6.72 15.7-6.72c6.56 0 11.78 2.12 15.66 6.36s5.82 10.18 5.82 17.83l-0.09 0.9h-34.75c0.12 4.33 1.56 7.82 4.33 10.47s6.07 3.97 9.92 3.97c5.3 0 9.45-2.64 12.45-7.94l7.4 3.61c-1.98 3.73-4.74 6.65-8.26 8.76-3.51 2.1-7.49 3.15-11.94 3.15zm-13.27-28.88h25.36c-0.24-3.07-1.49-5.61-3.74-7.63-2.26-2.02-5.28-3.02-9.07-3.02-3.13 0-5.82 0.96-8.08 2.89s-3.75 4.51-4.47 7.76z" fill="#5F6368"/>
			<path d="m159.83 198.51h10.25v-24.89l-14.64-10.98v31.48c-0.01 2.43 1.96 4.39 4.39 4.39z" fill="#4285F4"/>
			<path d="m205.21 198.51h10.25c2.43 0 4.39-1.97 4.39-4.39v-31.48l-14.64 10.98v24.89z" fill="#34A853"/>
			<path d="m205.21 154.59v19.03l14.64-10.98v-5.86c0-5.43-6.2-8.53-10.54-5.27l-4.1 3.08z" fill="#FBBC04"/>
			<path d="m170.07 173.63v-19.03l17.57 13.18 17.57-13.18v19.03l-17.57 13.18-17.57-13.18z" clip-rule="evenodd" fill="#EA4335" fill-rule="evenodd"/>
			<path d="m155.43 156.79v5.86l14.64 10.98v-19.03l-4.1-3.07c-4.34-3.27-10.54-0.17-10.54 5.26z" fill="#C5221F"/>
			<path d="M295.97,160.45H266.7v29.28h29.28V160.45z" fill="#fff"/>
			<path d="m272.7 183.16c-1.09-0.74-1.85-1.82-2.27-3.25l2.54-1.05c0.23 0.88 0.63 1.56 1.21 2.04 0.57 0.48 1.27 0.72 2.08 0.72 0.83 0 1.54-0.25 2.14-0.76s0.9-1.15 0.9-1.93c0-0.8-0.31-1.45-0.94-1.95-0.63-0.51-1.42-0.76-2.36-0.76h-1.47v-2.51h1.32c0.81 0 1.5-0.22 2.05-0.66s0.83-1.04 0.83-1.8c0-0.68-0.25-1.22-0.75-1.63s-1.13-0.61-1.89-0.61c-0.75 0-1.34 0.2-1.78 0.6s-0.76 0.89-0.96 1.47l-2.51-1.05c0.33-0.94 0.94-1.78 1.84-2.5s2.04-1.08 3.43-1.08c1.03 0 1.95 0.2 2.77 0.6s1.46 0.95 1.93 1.65c0.46 0.71 0.7 1.5 0.7 2.38 0 0.9-0.22 1.65-0.65 2.28-0.43 0.62-0.96 1.1-1.59 1.43v0.15c0.83 0.35 1.51 0.88 2.04 1.59s0.8 1.57 0.8 2.56-0.25 1.88-0.76 2.66-1.2 1.39-2.09 1.84-1.89 0.67-3 0.67c-1.28 0.01-2.46-0.36-3.56-1.1z" fill="#4285F4"/>
			<path d="m288.3 170.56-2.79 2.02-1.39-2.12 5-3.61h1.92v17.02h-2.74v-13.31z" fill="#4285F4"/>
			<path d="M295.97,189.73H266.7v13.18h29.28V189.73z" fill="#34A853"/>
			<path d="m295.97 147.27h-38.06c-2.43 0-4.39 1.97-4.39 4.39v38.06h13.18v-29.28h29.28v-13.17z" fill="#4285F4"/>
			<path d="m253.52 189.73v8.78c0 2.43 1.97 4.39 4.39 4.39h8.78v-13.18h-13.17z" fill="#188038"/>
			<path d="m309.15 160.45h-13.18v29.28h13.18v-29.28z" fill="#FBBC04"/>
			<path d="m309.15 160.45v-8.78c0-2.43-1.97-4.39-4.39-4.39h-8.78v13.18h13.17z" fill="#1967D2"/>
			<path d="m295.97 202.9 13.18-13.18h-13.18v13.18z" fill="#EA4335"/>
			<path d="m347.91 194.74 2.82 4.87c0.59 1.02 1.43 1.83 2.42 2.42l10.06-17.42h-20.13c0 1.13 0.29 2.27 0.88 3.29l3.95 6.84z" fill="#1967D2"/>
			<path d="m375.03 164.11-10.06-17.42c-0.99 0.59-1.83 1.39-2.42 2.42l-18.59 32.21c-0.59 1.02-0.88 2.16-0.88 3.29h20.13l11.82-20.5z" fill="#34A853"/>
			<path d="m375.03 164.11 10.06-17.42c-0.99-0.59-2.12-0.88-3.29-0.88h-13.54c-1.17 0-2.31 0.33-3.29 0.88l10.06 17.42z" fill="#188038"/>
			<path d="m386.85 184.61h-23.64l-10.06 17.42c0.99 0.59 2.12 0.88 3.29 0.88h37.18c1.17 0 2.31-0.33 3.29-0.88l-10.06-17.42z" fill="#4285F4"/>
			<path d="m396.92 202.03c0.99-0.59 1.83-1.39 2.42-2.42l1.17-2.01 5.6-9.7c0.59-1.02 0.88-2.16 0.88-3.29h-20.09l10.02 17.42z" fill="#EA4335"/>
			<path d="m396.81 165.21-9.3-16.1c-0.59-1.02-1.43-1.83-2.42-2.42l-10.06 17.42 11.82 20.5h20.09c0-1.13-0.29-2.27-0.88-3.29l-9.25-16.11z" fill="#FBBC04"/>
			<path d="m461.4 191.19h-16.1v11.71c0 2.43 1.97 4.39 4.39 4.39h11.71v-16.1z" fill="#188038"/>
			<path d="m461.4 142.88h-11.71c-2.43 0-4.39 1.97-4.39 4.39v43.91h16.1v-32.2h14.64v-16.1h-14.64z" fill="#FBBC04"/>
			<path d="m492.15 191.19h-16.1v16.1h11.71c2.43 0 4.39-1.97 4.39-4.39v-11.71z" fill="#1967D2"/>
			<path d="m476.04 191.19h-14.64v16.1h14.64v-16.1z" fill="#34A853"/>
			<path d="m476.04 158.99v32.2h16.1v-32.2h-16.1z" fill="#4285F4"/>
			<path d="m476.04 142.88v16.1h16.1l-16.1-16.1z" fill="#EA4335"/>
			<path d="m566.81 175.09 6.24 7.14 8.4 5.37 1.46-12.45-1.46-12.18-8.56 4.71-6.08 7.41z" fill="#188038"/>
			<path d="m530.58 186.44v10.61c0 2.43 1.97 4.39 4.39 4.39h10.61l2.2-8.02-2.2-6.98-7.28-2.2-7.72 2.2z" fill="#1967D2"/>
			<path d="m545.58 148.74-15.01 15.01 7.72 2.2 7.28-2.2 2.16-6.89-2.15-8.12z" fill="#EA4335"/>
			<path d="m545.58 163.74h-15.01v22.69h15.01v-22.69z" fill="#4285F4"/>
			<path d="m591.03 155.09-9.59 7.87v24.63l9.63 7.89c1.44 1.13 3.55 0.1 3.55-1.73v-36.97c0-1.85-2.15-2.86-3.59-1.69z" fill="#34A853"/>
			<path d="m566.81 175.09v11.35h-21.23v15.01h31.48c2.43 0 4.39-1.97 4.39-4.39v-9.46l-14.64-12.51z" fill="#34A853"/>
			<path d="m577.06 148.74h-31.47v15.01h21.23v11.35l14.64-12.13v-9.83c-0.01-2.44-1.98-4.4-4.4-4.4z" fill="#FBBC04"/>
<g display="none">
	<g display="inline">
			<path d="m36.38 108.23 1.02 1.49h-0.63l-0.71-1.09-0.69 1.09h-0.63l1.01-1.49-0.99-1.45h0.61l0.71 1.04 0.67-1.04h0.63l-1 1.45z" fill="#fff"/>
	</g>
	<g display="inline">
		<g fill="#fff">
			<path d="m303.89 107.67c0-0.62 0.15-1.14 0.45-1.54s0.68-0.61 1.16-0.61c0.47 0 0.85 0.2 1.15 0.61 0.3 0.4 0.45 0.92 0.45 1.54s-0.15 1.13-0.45 1.54c-0.3 0.4-0.68 0.61-1.15 0.61s-0.86-0.2-1.16-0.61-0.45-0.92-0.45-1.54zm2.66 0c0-0.47-0.1-0.86-0.29-1.16s-0.45-0.46-0.76-0.46c-0.32 0-0.57 0.15-0.76 0.46-0.19 0.3-0.29 0.69-0.29 1.16s0.1 0.86 0.29 1.17c0.19 0.3 0.45 0.45 0.76 0.45 0.32 0 0.57-0.15 0.76-0.46 0.19-0.3 0.29-0.69 0.29-1.16z"/>
			<path d="m308.43 109.35c0 0.11-0.04 0.21-0.11 0.29s-0.17 0.12-0.28 0.12-0.2-0.04-0.28-0.12-0.12-0.18-0.12-0.29c0-0.12 0.04-0.21 0.12-0.29s0.17-0.12 0.28-0.12 0.21 0.04 0.28 0.12 0.11 0.18 0.11 0.29z"/>
			<path d="m311.37 108.86v0.86h-0.54v-0.86h-1.89v-0.42l1.85-2.82h0.58v2.72h0.51v0.52h-0.51zm-1.83-0.51h1.29v-1.91h-0.02l-1.27 1.91z"/>
			<path d="m313.82 108.23 1.02 1.49h-0.63l-0.71-1.09-0.69 1.09h-0.63l1.01-1.49-0.99-1.45h0.61l0.71 1.04 0.67-1.04h0.63l-1 1.45z"/>
		</g>
	</g>
	<g display="inline">
		<g fill="#fff">
			<path d="m455.21 107.99v1.74h-0.54v-4.3h1.42c0.36 0 0.67 0.12 0.92 0.37 0.26 0.25 0.38 0.55 0.38 0.91s-0.13 0.67-0.38 0.91-0.55 0.37-0.92 0.37h-0.88zm0-2.03v1.5h0.9c0.21 0 0.39-0.07 0.53-0.22s0.22-0.32 0.22-0.53c0-0.2-0.07-0.37-0.22-0.52-0.14-0.15-0.32-0.23-0.53-0.23h-0.9z"/>
			<path d="m458.41 109.73h-0.54v-2.94h0.51v0.48h0.02c0.05-0.16 0.17-0.29 0.33-0.4 0.17-0.11 0.34-0.17 0.5-0.17s0.29 0.02 0.4 0.07l-0.16 0.53c-0.07-0.03-0.17-0.04-0.31-0.04-0.2 0-0.38 0.08-0.53 0.25s-0.22 0.36-0.22 0.59v1.63z"/>
			<path d="m459.65 108.26c0-0.45 0.14-0.83 0.41-1.12 0.28-0.3 0.63-0.44 1.06-0.44 0.42 0 0.77 0.15 1.05 0.44 0.28 0.3 0.42 0.67 0.42 1.12 0 0.46-0.14 0.83-0.42 1.12-0.28 0.3-0.63 0.44-1.05 0.44s-0.78-0.15-1.06-0.44c-0.28-0.3-0.41-0.67-0.41-1.12zm0.53 0c0 0.32 0.09 0.57 0.27 0.77s0.4 0.29 0.67 0.29c0.26 0 0.48-0.1 0.66-0.29 0.18-0.2 0.27-0.45 0.27-0.77 0-0.31-0.09-0.57-0.27-0.76-0.18-0.2-0.4-0.3-0.66-0.3s-0.48 0.1-0.67 0.3c-0.18 0.19-0.27 0.44-0.27 0.76z"/>
			<path d="m464.27 109.82c-0.37 0-0.69-0.15-0.96-0.46s-0.4-0.68-0.4-1.11 0.13-0.8 0.4-1.11c0.27-0.3 0.59-0.46 0.96-0.46 0.21 0 0.4 0.05 0.57 0.14s0.31 0.21 0.4 0.37h0.02l-0.02-0.41v-1.36h0.54v4.3h-0.51v-0.41h-0.02c-0.09 0.15-0.23 0.27-0.4 0.37-0.18 0.1-0.37 0.14-0.58 0.14zm0.09-0.5c0.26 0 0.48-0.1 0.65-0.29 0.18-0.2 0.26-0.45 0.26-0.77 0-0.31-0.09-0.56-0.26-0.76s-0.39-0.3-0.65-0.3-0.47 0.1-0.65 0.3-0.26 0.45-0.26 0.76 0.09 0.57 0.26 0.76c0.17 0.2 0.39 0.3 0.65 0.3z"/>
			<path d="m468.94 109.73h-0.51v-0.41h-0.02c-0.08 0.14-0.21 0.26-0.38 0.36s-0.34 0.14-0.53 0.14c-0.35 0-0.62-0.1-0.81-0.31s-0.28-0.5-0.28-0.88v-1.85h0.54v1.81c0.01 0.48 0.25 0.72 0.71 0.72 0.21 0 0.39-0.09 0.54-0.27 0.14-0.18 0.22-0.39 0.22-0.64v-1.63h0.54v2.96z"/>
			<path d="m470.87 109.82c-0.42 0-0.78-0.15-1.06-0.44-0.28-0.3-0.41-0.68-0.41-1.12 0-0.45 0.14-0.83 0.41-1.12 0.28-0.3 0.63-0.44 1.06-0.44 0.29 0 0.54 0.08 0.76 0.23s0.38 0.36 0.49 0.62l-0.49 0.21c-0.15-0.37-0.42-0.55-0.8-0.55-0.25 0-0.46 0.1-0.64 0.31-0.17 0.2-0.26 0.46-0.26 0.76s0.09 0.55 0.26 0.76c0.18 0.2 0.39 0.31 0.64 0.31 0.39 0 0.67-0.18 0.83-0.55l0.48 0.21c-0.1 0.26-0.27 0.47-0.49 0.62-0.23 0.12-0.49 0.19-0.78 0.19z"/>
			<path d="m473.71 109.77c-0.23 0-0.43-0.07-0.58-0.22s-0.23-0.35-0.24-0.62v-1.64h-0.5v-0.5h0.5v-0.9h0.54v0.9h0.7v0.5h-0.7v1.46c0 0.2 0.04 0.33 0.11 0.4s0.16 0.11 0.25 0.11c0.04 0 0.08 0 0.12-0.02 0.04-0.01 0.08-0.02 0.11-0.04l0.17 0.49c-0.13 0.06-0.29 0.08-0.48 0.08z"/>
			<path d="m478.42 108.58c0 0.38-0.13 0.68-0.4 0.91-0.27 0.22-0.6 0.34-0.99 0.34-0.35 0-0.65-0.1-0.92-0.31-0.26-0.21-0.45-0.49-0.55-0.85l0.51-0.22c0.03 0.13 0.08 0.24 0.14 0.35 0.06 0.1 0.13 0.19 0.22 0.27s0.18 0.13 0.28 0.17 0.21 0.06 0.32 0.06c0.25 0 0.45-0.07 0.6-0.2s0.23-0.3 0.23-0.52c0-0.18-0.06-0.33-0.19-0.46-0.12-0.12-0.35-0.24-0.68-0.36s-0.54-0.21-0.62-0.25c-0.44-0.23-0.66-0.57-0.66-1.03 0-0.32 0.12-0.59 0.37-0.81s0.55-0.34 0.91-0.34c0.32 0 0.6 0.08 0.83 0.25 0.23 0.16 0.39 0.37 0.47 0.62l-0.5 0.22c-0.05-0.16-0.14-0.29-0.28-0.4s-0.3-0.16-0.5-0.16c-0.21 0-0.39 0.06-0.53 0.18-0.14 0.11-0.22 0.26-0.22 0.44 0 0.15 0.06 0.28 0.17 0.38 0.12 0.11 0.39 0.23 0.81 0.38s0.72 0.33 0.91 0.54c0.18 0.22 0.27 0.48 0.27 0.8z"/>
			<path d="m480.06 106.69c0.4 0 0.71 0.11 0.94 0.33s0.34 0.52 0.34 0.9v1.81h-0.51v-0.41h-0.02c-0.22 0.34-0.52 0.5-0.88 0.5-0.32 0-0.58-0.1-0.79-0.29s-0.32-0.43-0.32-0.72c0-0.3 0.11-0.55 0.34-0.73 0.22-0.18 0.52-0.27 0.89-0.27 0.32 0 0.58 0.06 0.79 0.18v-0.13c0-0.19-0.07-0.36-0.22-0.49s-0.32-0.2-0.52-0.2c-0.3 0-0.54 0.13-0.71 0.39l-0.47-0.31c0.24-0.37 0.63-0.56 1.14-0.56zm-0.7 2.14c0 0.14 0.06 0.26 0.18 0.36s0.26 0.14 0.42 0.14c0.23 0 0.43-0.09 0.6-0.26 0.18-0.17 0.27-0.37 0.27-0.61-0.17-0.14-0.4-0.2-0.7-0.2-0.22 0-0.4 0.05-0.54 0.16-0.16 0.11-0.23 0.25-0.23 0.41z"/>
			<path d="m481.94 106.79h0.51v0.41h0.02c0.08-0.14 0.21-0.26 0.38-0.36s0.34-0.14 0.53-0.14c0.35 0 0.62 0.1 0.81 0.31s0.28 0.5 0.28 0.88v1.85h-0.54v-1.81c-0.01-0.48-0.25-0.72-0.71-0.72-0.21 0-0.39 0.09-0.54 0.27-0.14 0.18-0.21 0.39-0.21 0.64v1.63h-0.54v-2.96z"/>
			<path d="m487.26 108.91c0 0.26-0.11 0.47-0.33 0.65s-0.49 0.26-0.82 0.26c-0.29 0-0.54-0.08-0.76-0.23s-0.37-0.36-0.47-0.61l0.48-0.21c0.07 0.18 0.17 0.31 0.3 0.41s0.28 0.15 0.44 0.15c0.17 0 0.31-0.04 0.43-0.11s0.17-0.17 0.17-0.27c0-0.19-0.14-0.33-0.42-0.41l-0.49-0.13c-0.56-0.14-0.83-0.42-0.83-0.83 0-0.27 0.11-0.48 0.32-0.64s0.48-0.24 0.81-0.24c0.25 0 0.48 0.06 0.69 0.19 0.2 0.12 0.35 0.29 0.43 0.5l-0.48 0.2c-0.05-0.12-0.14-0.22-0.27-0.29-0.12-0.07-0.26-0.1-0.41-0.1-0.14 0-0.27 0.04-0.38 0.11s-0.17 0.16-0.17 0.26c0 0.17 0.15 0.29 0.46 0.36l0.43 0.11c0.59 0.13 0.87 0.43 0.87 0.87z"/>
			<path d="m463.18 113.75c0 0.6-0.17 1.08-0.52 1.43-0.39 0.42-0.9 0.64-1.53 0.64-0.61 0-1.12-0.22-1.54-0.65s-0.63-0.96-0.63-1.6c0-0.63 0.21-1.16 0.63-1.6 0.42-0.43 0.93-0.65 1.54-0.65 0.31 0 0.6 0.06 0.87 0.17s0.5 0.27 0.67 0.47l-0.38 0.4c-0.13-0.16-0.29-0.29-0.5-0.38-0.2-0.09-0.42-0.14-0.66-0.14-0.46 0-0.84 0.16-1.15 0.49s-0.47 0.74-0.47 1.23 0.16 0.9 0.47 1.23c0.31 0.32 0.7 0.49 1.15 0.49 0.42 0 0.76-0.12 1.04-0.36s0.43-0.57 0.48-0.99h-1.52v-0.52h2.02c0.02 0.13 0.03 0.24 0.03 0.34z"/>
			<path d="m464.16 115.73h-0.54v-2.94h0.51v0.48h0.02c0.05-0.16 0.17-0.29 0.33-0.4 0.17-0.11 0.34-0.17 0.5-0.17s0.29 0.02 0.4 0.07l-0.16 0.53c-0.07-0.03-0.17-0.04-0.31-0.04-0.2 0-0.38 0.08-0.53 0.25s-0.22 0.36-0.22 0.59v1.63z"/>
			<path d="m466.84 115.82c-0.42 0-0.77-0.15-1.04-0.44-0.27-0.3-0.41-0.67-0.41-1.12s0.13-0.82 0.4-1.12 0.6-0.45 1.02-0.45 0.76 0.14 1.01 0.42 0.38 0.68 0.38 1.19l-0.01 0.06h-2.24c0.01 0.29 0.1 0.52 0.28 0.7s0.39 0.26 0.64 0.26c0.34 0 0.61-0.18 0.8-0.53l0.48 0.24c-0.13 0.25-0.3 0.44-0.53 0.58s-0.49 0.21-0.78 0.21zm-0.85-1.92h1.64c-0.02-0.2-0.1-0.37-0.24-0.51-0.15-0.13-0.34-0.2-0.59-0.2-0.2 0-0.38 0.06-0.52 0.19-0.15 0.13-0.25 0.31-0.29 0.52z"/>
			<path d="m471.18 112.79-1.79 4.24h-0.55l0.67-1.48-1.18-2.75h0.58l0.85 2.11h0.01l0.83-2.11h0.58z"/>
			<path d="m475.3 112.19-1.94 3.64-0.48-0.25 1.85-3.42h-2.02l0.01-0.53h2.57v0.56z"/>
			<path d="m475.73 113.67c0-0.62 0.15-1.14 0.45-1.54s0.68-0.61 1.15-0.61 0.86 0.2 1.15 0.61c0.3 0.4 0.45 0.92 0.45 1.54s-0.15 1.13-0.45 1.54c-0.3 0.4-0.68 0.61-1.15 0.61s-0.86-0.2-1.15-0.61c-0.3-0.41-0.45-0.92-0.45-1.54zm2.66 0c0-0.47-0.1-0.86-0.29-1.16s-0.45-0.46-0.76-0.46-0.57 0.15-0.76 0.46c-0.2 0.3-0.29 0.69-0.29 1.16s0.1 0.86 0.29 1.17c0.19 0.3 0.45 0.45 0.76 0.45s0.57-0.15 0.76-0.46c0.2-0.3 0.29-0.69 0.29-1.16z"/>
			<path d="m479.45 113.67c0-0.62 0.15-1.14 0.45-1.54s0.69-0.61 1.16-0.61 0.85 0.2 1.15 0.61c0.3 0.4 0.45 0.92 0.45 1.54s-0.15 1.13-0.45 1.54c-0.3 0.4-0.69 0.61-1.15 0.61-0.47 0-0.86-0.2-1.16-0.61s-0.45-0.92-0.45-1.54zm2.66 0c0-0.47-0.1-0.86-0.29-1.16s-0.45-0.46-0.76-0.46c-0.32 0-0.57 0.15-0.77 0.46-0.19 0.3-0.29 0.69-0.29 1.16s0.1 0.86 0.29 1.17c0.19 0.3 0.45 0.45 0.77 0.45s0.57-0.15 0.76-0.46c0.19-0.3 0.29-0.69 0.29-1.16z"/>
		</g>
	</g>
</g>
<style>.f009e6063aea8a329aa975dce020682b{height:30px}</style>
</svg>
