<?xml version="1.0" encoding="UTF-8"?>
<svg version="1.1" viewBox="0 0 120.11 28" xmlns="http://www.w3.org/2000/svg">
<g fill="none" fill-rule="evenodd">
<g fill-rule="nonzero">
<path d="m30.177 7.1814c0.25022-1.7015 0.62556-3.0527 1.101-4.0286 0.47542-0.97587 1.076-1.6765 1.8266-2.0769 0.75067-0.40036 1.7015-0.62556 2.8275-0.62556 0.37534 0 0.82574 0.025022 1.3762 0.075067l-0.12511 6.2306c-0.50045-0.050045-1.0509-0.050045-1.6014-0.050045-1.2511 0-2.227 0.15013-2.9276 0.42538-0.70063 0.27525-1.176 0.6756-1.4513 1.2261-0.27525 0.52547-0.40036 1.2261-0.40036 2.0518v8.1323h-6.4057v-18.016h5.8803l-0.72565 6.5559 0.62556 0.10009z" fill="#120036"/>
<path d="m40.686 16.615c-1.6265-1.5514-2.4272-3.9786-2.4272-7.2565 0-1.9768 0.42538-3.6533 1.3012-5.0545 0.85076-1.4013 2.0018-2.4522 3.4531-3.1778 1.4513-0.72565 3.0277-1.076 4.7292-1.076 3.353 0 5.8552 0.77569 7.5067 2.3521 1.6515 1.5764 2.4772 4.0036 2.4772 7.3315 0 1.9768-0.42538 3.6533-1.2761 5.0295-0.85076 1.3762-2.0018 2.4272-3.4531 3.1278-1.4513 0.70063-3.0777 1.0509-4.8794 1.0509-3.353 0.025022-5.8052-0.77569-7.4316-2.3271zm9.1332-3.2779c0.4504-0.2252 0.82574-0.62556 1.076-1.2011 0.25022-0.57551 0.40036-1.3762 0.40036-2.3771 0-1.5514-0.32529-2.6524-0.95085-3.328-0.62556-0.6756-1.4513-1.0009-2.5022-1.0009-0.6756 0-1.2511 0.12511-1.7265 0.35031-0.47542 0.2252-0.82574 0.62556-1.101 1.2011-0.27525 0.57551-0.40036 1.3762-0.40036 2.4272 0 1.5264 0.32529 2.6273 0.97587 3.3029s1.4763 1.0009 2.5022 1.0009c0.6756-0.025022 1.2511-0.15013 1.7265-0.37534z" fill="#120036"/>
<path d="m61.78 16.615c-1.6265-1.5514-2.4272-3.9786-2.4272-7.2565 0-1.9768 0.42538-3.6533 1.3012-5.0545 0.85076-1.4013 2.0018-2.4522 3.4531-3.1778 1.4263-0.72565 3.0027-1.076 4.7042-1.076 3.353 0 5.8552 0.77569 7.5067 2.3521 1.6515 1.5764 2.4772 4.0036 2.4772 7.3315 0 1.9768-0.42538 3.6533-1.2761 5.0295s-2.0018 2.4272-3.4531 3.1278c-1.4513 0.70063-3.0777 1.0509-4.8794 1.0509-3.3029 0.025022-5.7802-0.77569-7.4066-2.3271zm9.1332-3.2779c0.4504-0.2252 0.82574-0.62556 1.076-1.2011 0.25022-0.57551 0.40036-1.3762 0.40036-2.3771 0-1.5514-0.32529-2.6524-0.95085-3.328-0.62556-0.6756-1.4513-1.0009-2.5022-1.0009-0.6756 0-1.2511 0.12511-1.7265 0.35031-0.47542 0.2252-0.82574 0.62556-1.101 1.2011-0.27525 0.57551-0.40036 1.3762-0.40036 2.4272 0 1.5264 0.32529 2.6273 0.97587 3.3029 0.65058 0.6756 1.4763 1.0009 2.5022 1.0009 0.70063-0.025022 1.2511-0.15013 1.7265-0.37534z" fill="#120036"/>
<polygon points="90.055 14.238 93.083 0.50045 99.839 0.50045 95.235 18.492 84.075 18.492 79.471 0.50045 86.252 0.50045 89.28 14.238" fill="#120036"/>
<path d="m120.06 11.56c0.025022 0.27525 0.050045 0.55049 0.050045 0.80071 0 1.2761-0.35031 2.4021-1.0509 3.378-0.70062 0.97587-1.7766 1.7766-3.2279 2.3271-1.4513 0.57551-3.2529 0.85076-5.3798 0.85076-3.3029 0-5.7802-0.77569-7.4316-2.3521-1.6515-1.5514-2.4772-3.9786-2.4772-7.2565 0-1.9768 0.42538-3.6783 1.3012-5.0795 0.85076-1.4013 1.9768-2.4522 3.378-3.1778 1.4013-0.70063 2.8776-1.0509 4.429-1.0509 2.7024 0 4.8543 0.60054 6.4808 1.8266 1.6265 1.2261 2.5273 3.1028 2.7024 5.6801l-11.685 3.9285c0.2252 0.82574 0.62556 1.4263 1.176 1.7516 0.55049 0.35031 1.2761 0.50045 2.1519 0.50045 1.0509 0 1.8517-0.20018 2.4021-0.62556 0.55049-0.42538 0.85076-1.0009 0.85076-1.7516 0-0.17516-0.050045-0.32529-0.12511-0.47542l6.4558 0.72565zm-12.386-5.63c-0.52547 0.6756-0.77569 1.8016-0.77569 3.4281 0 0.20018 0 0.35031 0.025023 0.4504l5.555-1.8016c0-1.0009-0.27524-1.7516-0.77569-2.277-0.50045-0.52547-1.126-0.80071-1.8767-0.80071-0.92583 0-1.6515 0.32529-2.1519 1.0009z" fill="#120036"/>
<path d="m11.41 28c-2.252 0-4.479-0.60054-6.4808-1.7516l2.7274-4.6792c1.7516 1.0009 3.7784 1.2761 5.7301 0.77569 1.9517-0.52547 3.5782-1.7766 4.6041-3.5282l4.6792 2.7024c-1.7265 3.0027-4.529 5.1546-7.882 6.0304-1.126 0.30027-2.252 0.4504-3.378 0.4504z" fill="#5B38F4"/>
<path d="m22.395 0.52547c-0.70063 0-1.2511 0.12511-1.6515 0.37534-0.40036 0.25022-0.75067 0.6756-1.0009 1.3012-0.25022 0.60054-0.47542 1.4763-0.62556 2.6023l-0.55049-0.025022c-0.40036-0.92583-0.9008-1.7516-1.5514-2.3771-1.6765-1.5764-4.1787-2.3521-7.5567-2.3521-1.7015 0-3.2779 0.35031-4.7292 1.076-1.4513 0.72565-2.5773 1.7766-3.4281 3.1778-0.87578 1.4013-1.3012 3.0777-1.3012 5.0545 0 3.2779 0.80071 5.7051 2.4272 7.2565 1.6265 1.5514 4.0786 2.3271 7.4066 2.3271 1.8016 0 3.4281-0.35031 4.8794-1.0509 1.4513-0.70063 2.6023-1.7516 3.4531-3.1278s1.2761-3.0527 1.2761-5.0295c0-1.0009-0.10009-1.8767-0.25022-2.7274 0.65058-0.50045 1.6765-1.101 2.252-1.3512 0.50045-0.2252 1.0259-0.32529 1.5764-0.35031v-4.7292c-0.20018-0.025022-0.4504-0.050045-0.62556-0.050045zm-9.7587 11.61c-0.25022 0.57551-0.62556 0.97587-1.076 1.2011-0.4504 0.2252-1.0259 0.35031-1.7015 0.35031-1.0259 0-1.8517-0.32529-2.5022-1.0009-0.65058-0.6756-0.97587-1.7766-0.97587-3.3029 0-1.0259 0.12511-1.8266 0.40036-2.4272 0.27525-0.57551 0.62556-0.97587 1.101-1.2011 0.47542-0.2252 1.0509-0.35031 1.7265-0.35031 1.0259 0 1.8517 0.32529 2.5022 1.0009 0.65058 0.6756 0.95085 1.7766 0.95085 3.328-0.025022 1.0259-0.15013 1.8016-0.42538 2.4021z" fill="#120036"/>
</g>
</g>
<style>.dba49ae8506218a4d8e14b321217a82d{height:74px}</style>
</svg>
