<?xml version="1.0" encoding="UTF-8"?>
<svg enable-background="new -153 -46 652 652" version="1.1" viewBox="-131 160.7 599.9 228.2" xml:space="preserve" xmlns="http://www.w3.org/2000/svg">
<style type="text/css">
	.st0{fill:#F45D48;}
</style>
<path class="st0" d="m401.7 194.1c-37.1 0-67.3 30.2-67.3 67.5 0 37.2 30.2 67.5 67.3 67.5 37 0 67.2-30.3 67.2-67.5 0-37.3-30.2-67.5-67.2-67.5zm0 103c-19.5 0-35.4-15.9-35.4-35.5s15.9-35.5 35.4-35.5 35.4 15.9 35.4 35.5c-0.1 19.6-16 35.5-35.4 35.5zm-198-49.2-11.7-5.9c-5.1-2.5-8.3-4.5-9.6-6-1.2-1.3-1.9-3-1.9-4.8 0-2.3 1-4.2 3-5.7s4.8-2.3 8.5-2.3c6.6 0 13.9 4 22 12l19.8-19.9c-4.9-6.7-11.3-12-18.6-15.8-7.2-3.6-15.3-5.5-23.4-5.5-12.1 0-22.1 3.6-29.9 10.8s-11.7 15.9-11.7 26c0 15.7 10.3 28.8 31 39.3l10.8 5.4c9.3 4.7 13.9 9.5 13.9 14.5 0 2.7-1.3 5-3.8 7.1-2.6 2-6 3-10.2 3-3.9 0-8.4-1.4-13.4-4.1s-9.5-6.3-13.2-10.7l-19.7 21.6c11.1 14.6 26 22 44.6 22 14 0 25.2-3.8 33.5-11.5 8.3-7.6 12.5-17.1 12.5-28.5 0-8.6-2.3-16-6.9-22.4-4.8-6.2-13.3-12.4-25.6-18.6zm-199.6 66.5v-117.7h-31.9v7.9c-10.7-6.9-23.3-10.6-36-10.6-37 0-67.2 30.2-67.2 67.5 0 37.2 30.2 67.5 67.2 67.5 12.6 0 25-3.5 35.7-10.3v2.6c0 19.6-15.9 35.5-35.4 35.5-6.6 0-13.1-1.9-18.7-5.4l-15.8 27.8c10.4 6.3 22.4 9.7 34.6 9.7 37.1 0 67.7-30.3 67.7-67.5-0.2-1.4-0.1-5.6-0.2-7zm-68-17.3c-19.5 0-35.4-15.9-35.4-35.5s15.9-35.5 35.4-35.5 35.4 15.9 35.4 35.5-15.9 35.5-35.4 35.5zm195.1-100.4h-32.1v64.2c0 9.1 0 24.9-6.7 31.6-3.2 3.2-6.7 6.1-14.1 6.1s-10.9-2.9-14.1-6.1c-6.7-6.7-6.7-22.5-6.6-31.6v-64.2h-32v64c-0.1 13.2-0.2 37.7 15.8 54 9.4 9.5 20.6 14.4 36.9 14.4s27.5-4.8 36.9-14.4c16.1-16.3 15.9-40.8 15.8-54l0.2-64zm181.7 94.7c-2.6 2-8.8 6.3-15.8 5.3-5.8-0.8-10.5-5-11.2-19.2v-53.3h37.7v-27.6h-37.7v-35.9h-32v112.6c0 16.8 4.2 55.8 43.2 55.8 19.7-0.3 31.6-11 36.6-15.2l0.7-0.5-19.2-23.7c-0.1 0-1.4 1.1-2.3 1.7z"/>
<style>.bebfa4b5051ab8eb4ec593d16a9b9bc5{height:89px}</style>
</svg>
