<?xml version="1.0" encoding="UTF-8"?>
<!DOCTYPE svg PUBLIC "-//W3C//DTD SVG 1.1//EN" "http://www.w3.org/Graphics/SVG/1.1/DTD/svg11.dtd">
<svg xmlns="http://www.w3.org/2000/svg" version="1.1" width="24px" height="24px" style="shape-rendering:geometricPrecision; text-rendering:geometricPrecision; image-rendering:optimizeQuality; fill-rule:evenodd; clip-rule:evenodd" xmlns:xlink="http://www.w3.org/1999/xlink">
<g><path style="opacity:0.915" fill="#fec476" d="M 23.5,6.5 C 23.5,8.16667 23.5,9.83333 23.5,11.5C 20.9899,11.0535 18.9899,11.7202 17.5,13.5C 13.1667,13.5 8.83333,13.5 4.5,13.5C 4.78448,11.5853 4.45115,9.91866 3.5,8.5C 3.5,7.83333 3.5,7.16667 3.5,6.5C 7.02596,2.79957 10.6926,2.6329 14.5,6C 17.4816,6.49796 20.4816,6.66463 23.5,6.5 Z"/></g>
<g><path style="opacity:1" fill="#ed002d" d="M -0.5,6.5 C 0.833333,6.5 2.16667,6.5 3.5,6.5C 3.5,7.16667 3.5,7.83333 3.5,8.5C 3.5,11.8333 3.5,15.1667 3.5,18.5C 2.43236,19.4345 1.09903,19.7678 -0.5,19.5C -0.5,15.1667 -0.5,10.8333 -0.5,6.5 Z"/></g>
<g><path style="opacity:1" fill="#feb358" d="M 3.5,8.5 C 4.45115,9.91866 4.78448,11.5853 4.5,13.5C 8.83333,13.5 13.1667,13.5 17.5,13.5C 16.6394,15.3863 15.6394,17.2196 14.5,19C 10.7446,19.7554 7.0779,19.5887 3.5,18.5C 3.5,15.1667 3.5,11.8333 3.5,8.5 Z"/></g>
<style>.8a840866b76e5df35a78b43f7222cafa{height:92px}</style>
</svg>
