<?xml version="1.0" encoding="UTF-8"?>
<svg enable-background="new 0 0 800 600" version="1.0" viewBox="118.3 244.3 562.66 111.4" xml:space="preserve" xmlns="http://www.w3.org/2000/svg">
<style type="text/css">
	.st0{fill-rule:evenodd;clip-rule:evenodd;fill:#1292EE;}
	.st1{fill-rule:evenodd;clip-rule:evenodd;fill:#253642;}
</style>
	<path class="st0" d="m157.7 277.2-32.3 32.9c-4-4.1-6.6-9.8-7.1-16.4 0-6.2 3-12.3 7.1-16.4l32.8-32.9c4 4.1 6.6 10.3 6.6 16.4s-3 12.3-7.1 16.4zm14.2 45.6 32.6-32.9c4.1 4.6 6.6 10.3 6.6 16.4s-3.1 12.3-7.1 16.4l-32.6 32.9c-4.1-4.1-6.6-10.3-6.6-16.4 0-6.2 3.1-12.3 7.1-16.4zm-0.8-45.6 9.6-9.6 23.8-23.3c4.1 4 6.6 10.1 6.6 16.2s-3 12.1-7.1 16.2l-23.2 23.3-32.9 32.9-22.9 22.8c-4.1-4-6.6-10.1-6.6-16.2s3-12.1 7.1-16.2l22.8-22.8 9.1-9.6 13.7-13.7z"/>
	<path class="st1" d="m273.5 264.9c4.2-0.8 8.4-0.8 12.5 0l0.2 0.1v68.7l-0.2 0.1c-4.2 0.8-8.3 0.8-12.5 0l-0.2-0.1v-27.9h-28.3v27.9l-0.2 0.1c-2.1 0.4-4.2 0.6-6.3 0.6s-4.2-0.2-6.2-0.6l-0.2-0.1v-68.7l0.2-0.1c4.1-0.9 8.3-0.9 12.5 0l0.2 0.1v29.9h28.3v-29.9l0.2-0.1zm44 19.4c7.3 0 13.3 2.3 17.2 6.7 4.5 5 6.3 12.4 5.3 21.5v0.2h-34.5c0.1 9.3 4.2 13.7 12.3 13.7 5.9 0 9.9-2.9 10.7-7.7v-0.2h0.2c3.8-0.5 7-0.3 10.5 0.9l0.2 0.1v0.2c-0.9 8.1-7.9 16.2-21.6 16.2-8 0-14.2-2.5-18.2-7.4-3.8-4.5-5.6-10.9-5.6-19.1-0.2-15.7 8.7-25.1 23.5-25.1zm-0.2 8.9c-7.3 0-11.6 4.5-11.9 12.2h22.9c0.2-3.8-0.8-7-2.8-9.1-1.9-2.1-4.7-3.1-8.2-3.1zm31.1-28.3c3.9-0.9 7.9-0.9 11.7 0l0.2 0.1v68.7l-0.2 0.1c-1.9 0.4-3.9 0.6-5.9 0.6s-3.9-0.2-5.9-0.6l-0.2-0.1v-68.7l0.3-0.1zm45.8 19.4c14.1 0 22.1 9.4 22.1 25.8 0 16.1-8.1 25.7-21.6 25.7-4.9 0-9.2-1.3-13.3-3.9v22.9l-0.2 0.1c-1.9 0.4-3.9 0.6-5.9 0.6s-3.9-0.2-5.9-0.6l-0.2-0.1v-68.4l0.2-0.1c2.9-0.9 5.3-0.9 8.2 0l0.1 0.1 0.7 3.6c5.2-3.7 10.7-5.7 15.8-5.7zm-13 13.5v24.6c3.5 2.4 6.9 3.6 10.4 3.6 8.4 0 12.8-5.5 12.8-15.6 0-10.4-4.5-16.1-12.7-16.1-3.5-0.1-6.8 1.1-10.5 3.5zm86.8-1.1c9.6 3.7 19.5 7.5 19.5 19-0.1 17.4-16.5 20-26.5 20-10.1 0-18.1-2.6-22.9-7.8-3.6-3.8-5.3-8.7-4.9-14.3v-0.2l0.2-0.1c4.1-0.9 8.3-1 12.5-0.2l0.2 0.1v0.2c-0.4 3.1 0.4 5.6 2.2 7.6 2.5 2.7 6.8 4.2 12.5 4.2 5.2 0 9-1.1 11.3-3.4 1.5-1.6 2.3-3.6 2.2-6.2-0.1-5-5.7-6.9-15-10.1-1.9-0.6-4-1.4-6.3-2.2l-1.1-0.4c-6.8-2.5-18.2-6.6-18.1-18.9 0.2-12.4 10.2-19.9 26.9-19.9h0.3c9 0.1 16.1 2.5 20.5 7.2 3.6 3.8 5.3 8.8 5 14.5v0.2l-0.2 0.1c-4.5 1-8.6 1.1-12.6 0.3l-0.2-0.1v-0.2c0.2-3.4-0.6-6.2-2.5-8.1-2.2-2.4-5.9-3.6-10.6-3.6-4.8 0-8.8 1.3-11.1 3.7-1.6 1.6-2.3 3.6-2.3 6 0.2 5 5.8 7.1 15.1 10.4 1.9 0.7 3.8 1.4 5.9 2.2zm49.6-2.5c-8.4 0-12.4 5-12.4 15.8s3.9 15.8 12.4 15.8c2.2 0 9.4-0.5 10.6-8v-0.2h0.2c3.9-0.7 7.5-0.5 10.8 0.6l0.2 0.1v0.2c-0.4 4.5-2.4 8.6-5.7 11.7-3.9 3.7-9.6 5.6-16.2 5.6-15.5 0-24-9.1-24-25.7s8.6-25.8 24.3-25.8c6.6 0 12.1 1.9 16 5.5 3.4 3.1 5.5 7.5 5.8 12.3v0.2l-0.2 0.1c-3.5 1-7.1 1.2-10.9 0.6h-0.2v-0.2c-0.6-3.3-2.5-8.6-10.7-8.6zm51.4-9.9c15.4 0 23.9 9.1 23.9 25.8 0 16.6-8.4 25.7-23.9 25.7-15.4 0-23.9-9.1-23.9-25.7 0.1-16.6 8.5-25.8 23.9-25.8zm12.3 25.8c0-10.7-4-15.9-12.3-15.9-8.4 0-12.3 5-12.3 15.9 0 10.7 4 15.8 12.3 15.8s12.3-5.2 12.3-15.8zm50.2-23.7c3.9-1 7.9-1 11.7 0l0.2 0.1v47.2l-0.2 0.1c-2.8 0.8-5.7 0.8-8.6 0l-0.1-0.1-1.2-5.4c-5.5 5.1-10.6 7.4-16.5 7.4-11 0-17.3-6.7-17.3-18.4v-30.8l0.2-0.1c3.9-0.9 7.9-0.9 11.7 0l0.2 0.1v28.1c0 7.7 2.5 11 8.2 11 4.1 0 7.6-1.5 11.5-4.9v-34.3h0.2zm48.8 38.1c0.9 3.3 0.9 6.6-0.1 9.7l-0.1 0.1h-0.1c-3.3 0.6-6.3 1-8.9 1-4.2 0-7.3-0.9-9.6-2.7-4.1-3.4-4.5-9.4-4.5-15.2l-0.1-21h-6l-0.1-0.2c-0.8-3.3-0.8-6.6 0-9.8l0.1-0.2h6l-0.1-13 0.2-0.1c3.9-0.9 7.9-0.9 11.7 0l0.2 0.1v13h9.6l0.1 0.2c0.6 3.2 0.6 6.5 0 9.7l-0.1 0.2h-9.6v21.9c0 2.9 0.6 4.8 1.9 5.9 1.6 1.3 4.3 1.4 9 0.3l0.2-0.1 0.3 0.2z"/>
<style>.41213be37e566ee250da6d446b241fb9{height:77px}</style>
</svg>
