<?xml version="1.0" encoding="UTF-8"?>
<svg data-name="Group 6 Copy" viewBox="0 0 189 33" xmlns="http://www.w3.org/2000/svg">
<path transform="translate(59.722 7.233)" d="M99.318,22.964H96.242V3.774h2.1l.742,1.834a7.73,7.73,0,0,1,5.33-2.047,7.011,7.011,0,0,1,5.1,2.04,7.7,7.7,0,0,1,2.035,5.508,7.788,7.788,0,0,1-2.145,5.662,7.412,7.412,0,0,1-5.306,2.073A7.916,7.916,0,0,1,99.319,17.3v5.661h0Zm0-14.938v6.459a5.523,5.523,0,0,0,4.216,1.754,4.664,4.664,0,0,0,4.853-5c0-2.989-1.941-5.077-4.72-5.077A6.447,6.447,0,0,0,99.319,8.026ZM52.191,15.017V6.246H49.937V3.775h2.254V.212L55.267,0V3.775h3.819V6.246H55.267v8.027c0,1.329.636,1.967,1.67,1.967a11.854,11.854,0,0,0,2.148-.212v2.552A17.606,17.606,0,0,1,55.9,18.9,3.556,3.556,0,0,1,52.191,15.017ZM36.422,17.781l.636-2.286a11.682,11.682,0,0,0,4.322.984c2.6,0,3.262-.984,3.262-1.993,0-2.87-7.53-1.86-7.53-6.618,0-2.392,1.777-4.36,5.594-4.36a17.924,17.924,0,0,1,4.4.612l-.451,2.391a11.837,11.837,0,0,0-3.712-.637c-1.989,0-2.705.744-2.705,1.807,0,2.844,7.61,1.781,7.61,6.458,0,1.914-1.219,4.731-6.178,4.731A12.46,12.46,0,0,1,36.422,17.781ZM21.185,16.606a7.591,7.591,0,0,1-2.128-5.389,7.59,7.59,0,0,1,2.128-5.389,7.861,7.861,0,0,1,5.747-2.239,7.821,7.821,0,0,1,5.735,2.239,7.607,7.607,0,0,1,2.114,5.389,7.607,7.607,0,0,1-2.114,5.389,7.825,7.825,0,0,1-5.735,2.239A7.865,7.865,0,0,1,21.185,16.606Zm1-5.389a4.678,4.678,0,0,0,4.746,5.023c2.779,0,4.72-2.066,4.72-5.023s-1.941-5.024-4.72-5.024A4.679,4.679,0,0,0,22.187,11.217Zm93.839,5.731a7.342,7.342,0,0,1-2.048-5.466,8.348,8.348,0,0,1,1.975-5.705,6.832,6.832,0,0,1,5.237-2.216,7.892,7.892,0,0,1,5.171,1.913l.715-1.7h2.2V18.658h-2.1l-.662-1.674a7.342,7.342,0,0,1-5.144,1.86A7.542,7.542,0,0,1,116.026,16.948Zm1.107-5.546c0,3.074,1.759,4.838,4.826,4.838a4.888,4.888,0,0,0,4.243-2.1V8.159a6.028,6.028,0,0,0-4.322-1.993C119.041,6.166,117.133,8.27,117.133,11.4ZM79.309,16.948a7.342,7.342,0,0,1-2.048-5.466,8.348,8.348,0,0,1,1.975-5.705,6.832,6.832,0,0,1,5.237-2.216,7.892,7.892,0,0,1,5.171,1.913l.715-1.7h2.2V18.658h-2.1L89.8,16.984a7.342,7.342,0,0,1-5.144,1.86A7.54,7.54,0,0,1,79.309,16.948ZM80.416,11.4c0,3.074,1.759,4.838,4.826,4.838a4.888,4.888,0,0,0,4.243-2.1V8.159a6.03,6.03,0,0,0-4.322-1.993C82.324,6.166,80.416,8.27,80.416,11.4ZM65.627,18.659H62.5V.053h6.629A6.477,6.477,0,0,1,73.957,1.87a6.585,6.585,0,0,1,1.668,4.668c0,4.172-2.832,6.565-7.77,6.565H65.628v5.555h0Zm0-8.054h2.518c2.747,0,4.323-1.444,4.323-3.96A3.367,3.367,0,0,0,68.837,2.95H65.628ZM13.1,18.659V10.552H3.129v8.107H0V.053H3.129V7.788H13.1V.053h3.129V18.659Z" fill="#182c3a" data-name="Combined Shape"/>
<g data-name="Group 5">
<path transform="translate(7.169)" d="M5.954,33H.363A.362.362,0,0,1,0,32.639V26.225a15.236,15.236,0,0,0,2.6.219,19.067,19.067,0,0,0,3.711-.385v6.579A.362.362,0,0,1,5.954,33ZM0,17.221V.362A.362.362,0,0,1,.363,0H5.954a.362.362,0,0,1,.361.362V12.916l-.022.012-.11.063-.111.065-.111.066-.112.068-.113.068-.114.071-.115.072-.116.074-.118.076-.03.019-.03.019-.181.119-.122.081-.124.084-.127.085-.194.133-.132.091-.134.094-.137.1-.14.1-.142.1-.145.1-.224.16-.355.257-.534.388L2,15.859l-.355.255-.143.1-.212.148-.138.1-.136.094-.133.091-.131.089-.13.086L.5,16.9l-.126.082-.062.041L.184,17.1l-.122.077L0,17.22Z" fill="#182c3a" data-name="Combined Shape"/>
<path transform="translate(29.853)" d="M5.954,33H.362A.362.362,0,0,1,0,32.639V26.066a19.056,19.056,0,0,0,3.678.379,15.216,15.216,0,0,0,2.637-.225v6.419A.362.362,0,0,1,5.954,33Zm.362-15.758h0l-.057-.036-.119-.075-.122-.077-.122-.079-.124-.082-.127-.083-.128-.086-.131-.088-.2-.136-.136-.094-.207-.145-.14-.1-.03-.021-.041-.029-.352-.252-.347-.251-.7-.511-.534-.386-.23-.164-.148-.105-.147-.1-.143-.1-.141-.1-.139-.1-.136-.094-.134-.09-.132-.088-.13-.086L1.085,13.6l-.031-.02-.031-.02L.9,13.48.772,13.4l-.123-.077-.122-.075-.12-.074L.288,13.1l-.119-.07-.118-.068L0,12.936V.362A.362.362,0,0,1,.362,0H5.954a.362.362,0,0,1,.362.362v16.88Z" fill="#182c3a" data-name="Combined Shape"/>
<path transform="translate(0 13.11)" d="M21.367,8.093Q7.319,15.613,0,6.88C3.681,8.41,6.812,6.59,9.838,4.439l.355-.254.532-.385.53-.386.353-.256C13.9,1.5,16.188,0,18.659,0Q20.9,0,21.623,1.017l.028.041Q22.356,0,24.644,0c2.408,0,4.638,1.427,6.874,3.031l.53.383.708.514.355.256.355.254C36.491,6.59,39.622,8.41,43.3,6.88Q35.91,15.7,21.652,7.939Z" fill="#a5be00" data-name="Path Copy 20"/>
</g>
<style>.5358ed6d42fc03192f9e6d6f62283843{height:41px}</style>
</svg>
