<?xml version="1.0" encoding="UTF-8"?>
<svg preserveAspectRatio="xMidYMid" version="1.1" viewBox="0 0 512 92" xmlns="http://www.w3.org/2000/svg">
<path d="m307.59 13.623c13.6 0 25.494 6.3899 29.773 18.362l-14.478 4.197c-3.5568-6.946-9.4151-8.7717-15.294-8.7717-9.9277 0-17.481 7.8589-17.481 18.173 0 10.314 7.7308 18.267 17.931 18.267 8.0133 0 13.84-4.197 16.121-10.954h-18.673v-12.79h33.601c0.23729 1.8477 0.35957 3.7085 0.36614 5.5715 0 18.54-13.202 31.876-31.593 31.876-18.391 0-32.869-14.008-32.869-31.971 0-17.963 14.29-31.96 32.597-31.96zm-94.182 15.057c11.33 0 18.83 5.1833 20.661 13.095l-13.233 2.6336c-0.44983-2.8225-3.1384-5.3617-7.6158-5.3617-3.8916 0-5.8478 1.6368-6.2035 3.5465-0.24061 1.2486 0.35568 2.2874 4.4879 3.1478 1.0773 0.23306 3.0282 0.63381 4.9713 1.0288l0.55421 0.11255c2.6703 0.54179 5.1659 1.0411 5.1659 1.0411 8.6096 1.8152 12.553 6.9985 12.553 13.724 0 10.094-8.7037 15.372-20.671 15.372-10.691 0-19.876-3.9137-21.393-13.273l14.196-2.8854c0.62767 3.9137 4.1845 5.3722 8.0656 5.3722 3.8811 0 6.8521-1.6473 6.9358-3.6409 0.136-3.0218-2.2282-4.8161-5.5758-5.4666-2.3119-0.44069-9.2477-1.8152-9.2477-1.8152-8.4317-1.5424-13.233-3.9872-13.233-11.175 0-9.3593 8.0656-15.455 19.583-15.455zm151.19-0.77645c12.846 0.020985 20.943 6.5054 20.943 18.194v29.043h-14.018v-3.3786c-3.8143 3.2193-8.6798 4.912-13.662 4.7531-10.189 0-17.02-5.9388-17.02-14.983 0-9.0446 6.8312-14.773 18.998-14.773h11.654v-0.91285c0.095054-1.7352-0.55146-3.4288-1.7776-4.6566-1.2261-1.2278-2.9157-1.8735-4.6456-1.7753-4.3728 0-6.9253 1.7313-7.6472 5.7499l-13.746-2.833c1.9981-8.8557 10.011-14.427 20.922-14.427zm-105.26-13.955v15.351h13.474v11.542h-13.401v15.949c0 4.7426 2.2701 6.6628 6.0989 6.6628 2.3258-0.081655 4.6005-0.70681 6.6429-1.8257l3.3162 11.51c-3.7873 2.2082-8.089 3.3738-12.47 3.3786-11.382 0-18.234-6.2116-18.234-18.215v-17.407h-8.2644v-11.542h8.2644v-12.255l14.572-3.1478zm151.26 0v15.351h13.474v11.542h-13.495v15.949c0 4.7426 2.2805 6.6628 6.0989 6.6628 2.3293-0.080417 4.6076-0.7056 6.6533-1.8257l3.3685 11.51c-3.785 2.2046-8.0824 3.3699-12.459 3.3786-11.382 0-18.203-6.2116-18.203-18.267v-17.355h-8.2853v-11.542h8.2853v-12.255l14.562-3.1478zm-243.79 14.133c13.568 0.031478 25.044 9.7056 25.044 24.133 0 14.522-11.507 24.206-25.044 24.206-13.84 0-25.316-9.6846-25.316-24.206 0-14.522 11.507-24.133 25.316-24.133zm282.92 0c13.568 0.031478 25.034 9.7056 25.034 24.133 0 14.522-11.507 24.206-25.034 24.206-13.84 0-25.316-9.6846-25.316-24.206 0-14.522 11.507-24.133 25.316-24.133zm-352.57-14.133v23.839h25.682v-23.839h14.928v61.192h-14.928v-24.185h-25.682v24.185h-15.022v-61.192h15.022zm411.57 14.669c1.1084-0.014325 2.2136 0.12335 3.2848 0.40921l-0.63814 14.585h-2.6467c-10.189 0-15.744 5.2463-15.744 17.176v14.354h-14.572v-42.694l14.572-3.1478v8.7613c3.2744-5.4771 8.2853-9.4433 15.744-9.4433zm-137.2 27.396h-10.022c-3.6405 0-5.9106 1.9201-5.9106 4.7531 0 2.833 2.5421 4.7426 6.3709 4.7426 5.0109 0.04197 9.5616-3.3366 9.5616-8.4465v-1.0493zm-204.73-15.665c-3.0772 0.034697-6.0101 1.3143-8.1333 3.5486-2.1232 2.2343-3.2569 5.2339-3.1439 8.3184 0 7.2189 5.3666 11.878 11.288 11.878 5.6491 0 11.005-4.6587 11.005-11.878 0-7.1244-5.3666-11.867-11.016-11.867zm282.93 0c-3.0809 0.029074-6.0191 1.3062-8.1469 3.5412-2.1278 2.2349-3.2643 5.2377-3.1512 8.3259 0 7.2189 5.3771 11.878 11.298 11.878 5.6386 0 11.016-4.6587 11.016-11.878 0-7.1244-5.3771-11.867-11.016-11.867z" fill="#1F2044"/>
<path d="m49.48 66.065c-2.5525 2.4762-5.0946 5.8758-7.6681 8.3311 1.224 6.4529-1.1717 9.2859 1.7156 11.605 1.0461 0.82891 7.3229 2.6021 10.932 0.54561 0.073228-3.3471-1.747-4.3439-3.6928-5.5925-1.9772-4.197-1.2658-10.702-1.3077-14.889" fill="#2E93EE"/>
<path d="m50.944 87.491c-0.41929-1.9171-1.7716-3.4942-3.5987-4.197 1.4495 0.88865 2.306 2.4944 2.2387 4.197 0.46029 0.020985 0.91013 0.020985 1.36 0z" fill="#2E578B"/>
<path d="m53.989 86.798c-0.40812-1.9159-1.7542-3.4949-3.5777-4.197 1.8621 1.4375 2.4584 2.9799 2.1969 4.6587 0.4739-0.10944 0.93629-0.26403 1.3809-0.46167z" fill="#2E578B"/>
<path d="m46.498 32.657c-1.3181 1.9201-1.9039 5.9493 8.5782 11.857 0 0-4.4042 7.6281-5.7955 9.0236-1.3913 1.3955-2.2387 5.1099-0.87874 6.9775 0.70395 0.98227 1.5106 1.8863 2.4061 2.6966 0 0 3.4731 0.65054 4.9586-0.18887 1.8376-2.0379 2.252-4.993 1.0461-7.4602 0 0 8.8397-9.2754 8.2748-12.066-0.56491-2.791-14.416-16.924-18.59-10.839z" fill="#2E93EE"/>
<path d="m56.761 55.562s-3.5777 2.9589-4.4774 3.4625c0.7289-0.22125 1.4307-0.52394 2.0922-0.90236 0 0 1.5901 1.9516 0.42891 3.5989 0 0 2.0922-1.2276 0.7009-4.0501 0.48212-0.60944 0.9225-1.251 1.3181-1.9201l-0.062767-0.18887z" fill="#2E578B"/>
<g transform="translate(5.1975 48.857)" fill="#2E93EE">
<path d="m14.719 4.9839c-0.02544 0.68656-0.23505 1.3535-0.60675 1.9306-0.60675 0.95482-0.95197 0.84989 0.55444 1.6683 1.1218 0.56984 2.3313 0.94585 3.5777 1.1122 2.0922 0.34625 1.6215 0.11542 0.69044-1.8782-0.40932-0.89763-0.89586-1.7578-1.4541-2.5707-2.0922-2.8854-2.6781-2.6861-2.7618-0.2833"/>
<path d="m7.2078 3.9872c-0.77413 1.4375 0.40799 1.6683 1.9249 2.2034 0.56853 0.19843 1.1584 0.32874 1.7575 0.38822 1.7052 0.18887 1.2658-0.062955 0.5126-1.448-0.45363-0.85413-0.95663-1.681-1.5064-2.4762-3.0024-4.3229-1.5692-0.76595-2.6885 1.3326"/>
<path d="m0.72182 3.3471c0.025419 0.32827 0.025419 0.65803 0 0.9863-0.10461 1.1961-0.24061 0.99679 1.2344 1.1332 0.65698 0.074247 1.3202 0.074247 1.9772 0 1.883-0.2833 1.1926-0.94433 0.20922-2.046-0.33595-0.38391-0.70722-0.73521-1.1089-1.0493-3.7242-2.875-2.3224-0.84989-2.2701 0.9863"/>
</g>
<path d="m30.869 10.035s-10.681 5.5191-10.587 7.2713c0.094151 1.7523 3.0128 1.5109 4.1845 3.8612 0 0-6.5383 4.5328-6.1198 6.6103s4.6343 1.3221 5.6804 2.9694c0 0-1.0461 4.1341-0.094151 5.645 0.95197 1.5109 0.80551 0.20985 2.0922 2.0987 0.094151 0.041799-0.65906-15.382 4.8435-28.456z" fill="#2E93EE"/>
<path d="m28.631 15.05c3.766 3.5884 8.5154 5.8443 12.846 8.6249 2.9811 1.7876 5.6088 4.1101 7.7518 6.8516 2.5944 3.4835 1.0461 7.5861 1.6947 11.857 0.19876 1.448 0.29291 2.9169 0.35568 4.3859 0.11166 2.6707 0.034755 5.346-0.23015 8.0058-0.65906 6.3585-0.98336 11.542-5.4608 16.305-5.5863 5.9598-11.737 7.3448-18.715 2.1615-2.4593-1.6121-4.6993-3.5378-6.6638-5.7289-1.4332-1.6788-3.2116-2.749-4.7494-4.3124-1.9527-2.0762-4.2817-3.7605-6.8626-4.963-2.699-1.0493-4.5611 0.37773-5.8897 0.9863-0.67998 0.31478-1.6215 0.92334-2.3852 0.31478-0.2942-0.22112-0.40181-0.61398-0.26153-0.95482 0.39814-0.95621 1.0018-1.8125 1.7679-2.5077 4.1113-3.7773 10.754-3.8612 15.692-1.2066 1.8726 1.0493 3.9125 2.151 6.078 2.2874 1.5274 0.17827 3.0628-0.25957 4.2682-1.2171 0.93506-0.86138 1.551-2.0155 1.747-3.2737 0.34891-1.7501 0.22245-3.562-0.36614-5.2463-0.80551-2.4343-2.2492-4.6377-3.1907-7.0405-3.1384-8.1737-4.1845-17.491 0.91013-25.13l0.71136-1.0493 0.95197 0.84989z" fill="#2E93EE"/>
<path d="m9.4761 58.594c3.5987 1.8047 7.4275 5.8443 11.099 10.199 4.8017 5.7184 16.738 14.144 26.687 0.90236 9.321-12.465 4.9377-29.935 4.3937-31.918l-0.062767-0.20985c-0.31384-0.39872-8.62-11.038-16.236-12.591-2.0295 1.7627-2.427 4.879 0.27199 10.251 4.5506 9.0341 8.1911 22.202 0.10461 30.292-1.2041 1.2351-2.6803 2.1695-4.31 2.7281-5.7432 1.8991-8.7874-1.5949-12.386-4.9735-2.6193-2.5266-5.9641-4.1636-9.5616-4.6797z" fill="#FFCF00"/>
<path d="m48.381 68.1c-3.5016-0.39848-6.8251-1.7602-9.6034-3.9347 1.9846 2.903 5.0353 4.8989 8.4841 5.5505 0.39753-0.52463 0.82644-1.0702 1.1194-1.6158z" fill="#ECA93F"/>
<path d="m32.208 68.908c1.3662 2.9049 3.3433 5.4786 5.7955 7.5441 0.78334-0.18453 1.5471-0.44456 2.2805-0.77645-3.2892-1.4229-6.0951-3.7742-8.0761-6.7677z" fill="#ECA93F"/>
<path d="m19.99 68.121 0.58583 0.69251 0.27199 0.32527c-0.18649-0.85263-0.0948-1.7428 0.26153-2.5392-0.40794 0.48041-0.78197 0.98878-1.1194 1.5214z" fill="#ECA93F"/>
<path d="m24.028 72.161c0.41845 0.33576 0.84736 0.67152 1.2972 1.0493-0.30338-1.448-0.43937-2.9589 0.052306-3.7983-0.54982 0.86346-1.0024 1.7855-1.3495 2.749z" fill="#ECA93F"/>
<path d="m16.14 63.935 0.93105 0.95482c-0.015367-0.67422 0.05494-1.3477 0.20922-2.0041-0.40622 0.32007-0.78742 0.67084-1.1403 1.0493z" fill="#FF9144"/>
<path d="m41.351 57.251c3.6397-1.1014 7.5224-1.1014 11.162 0 0.094151-0.52463 0.17784-1.0493 0.25107-1.5529-7.3124-1.7418-11.413 1.5529-11.413 1.5529z" fill="#ECA93F"/>
<path d="m52.984 45.772c-0.052306-0.62955-0.11507-1.2276-0.17784-1.8047-7.7518-0.18887-11.748 3.5884-11.748 3.5884 3.676-1.8799 7.8629-2.5061 11.926-1.7837z" fill="#ECA93F"/>
<path d="m49.93 35.595c-0.30338-0.34625-0.63813-0.72398-1.0461-1.1227-8.233 0-10.461 3.8403-10.461 3.8403 3.4275-2.1648 7.4769-3.1211 11.507-2.7176z" fill="#ECA93F"/>
<path d="m52.88 44.587c-0.20274-1.8654-0.50656-3.7183-0.91013-5.5505l-0.59629-0.36724c-2.6258-1.7208-14.196-8.6983-17.585-10.797-0.058674 0.51596-0.058674 1.0369 0 1.5529 3.5568 4.9944 11.539 13.451 19.092 15.162z" fill="#ECA93F"/>
<path d="m26.643 64.774c1.0631-1.5678 2.8868-2.4383 4.7703-2.2769 5.2934 0.69251 3.6196 6.9775 2.3538 10.671-0.87932 2.6553-1.3863 5.4203-1.5064 8.2156 0 3.6514 1.3913 4.7531-0.30338 6.1801-2.6977 1.8955-5.9616 2.8065-9.2477 2.5812-2.9396-0.67152-3.0128-6.7362 1.6738-8.2786 1.2972-2.833 1.2449-5.7289 1.1403-8.7508-0.073229-2.0985-0.25107-6.2955 1.1194-8.394" fill="#2E93EE"/>
<path d="m25.503 90.114c0.41845-0.062955 0.8369-0.1364 1.2449-0.23084-0.36785-1.783 0.18245-3.632 1.4646-4.921-1.9249 1.1017-2.5525 2.9799-2.7095 5.1518z" fill="#2E578B"/>
<path d="m22.668 90.156c-0.43714-1.9473 0.088678-3.9865 1.4123-5.4771-1.6274 1.0095-2.6291 2.7817-2.6572 4.7006 0.32198 0.38513 0.7581 0.65714 1.2449 0.77645z" fill="#2E578B"/>
<path d="m25.388 57.094s-0.60675 3.515 1.7784 4.6902c2.0086 1.0493 4.4774 1.0493 5.7118-0.45118 1.7052-2.0985 4.1845-6.2955-2.6048-10.419-4.1845-2.5497-4.446 6.1066-4.446 6.1066l-0.43937 0.073448z" fill="#2E578B"/>
<path d="m25.973 40.243c0.8892 1.9411 1.6947 3.4415 1.7366 3.5779 0.041845 0.1364 5.5235-6.8726 4.4983-8.0058-1.0252-1.1332-5.3666 2.9064-6.2349 4.4278z" fill="#2E578B"/>
<path d="m31.351 30.191c5.9315 5.7394-6.3813 13.336-6.3813 13.336 1.339 0.84989 3.0338 3.7563 4.2996 5.8758 1.2658 2.1195 1.7679 1.7732 3.3162 3.536 1.5483 1.7627-2.8664 4.3964-2.8664 4.3964s-14.813-8.0268-14.771-13.168c0-0.64004 3.4419-6.3585 6.915-9.9049 1.747-1.7837 6.6533-6.8096 9.4883-4.0711z" fill="#2E93EE"/>
<path d="m25.597 54.481s-1.0461 5.4666 2.155 7.0615c0 0 2.6467 0.16788 3.9857-0.79743 0 0 3.3371-5.1413 0.84736-7.8064-2.4898-2.6651-6.9881 1.5424-6.9881 1.5424z" fill="#2E93EE"/>
<path d="m25.534 54.869s4.2786 2.2979 5.0214 2.5077c-0.74481 0.10282-1.5034-0.010039-2.1864-0.32527 0 0-1.0461 2.0985 0.17784 3.3996 0 0-1.9667-0.34625-1.2658-3.6409l-1.7889-1.8467 0.041845-0.094433z" fill="#2E578B"/>
<path d="m29.373 13.403s2.2282-13.179 7.6785-13.399c3.5882-0.15739 5.398 4.4278 5.398 4.4278 2.1978 0.0097428 4.3469 0.65057 6.193 1.8467 0 0 1.0461-1.8152 2.7095-1.2276 1.6633 0.58758 3.5568 4.4069 2.8768 10.681 1.6459 0.25354 3.0865 1.2464 3.9125 2.6966-0.44078 0.6345-1.114 1.0683-1.8726 1.2066-1.1298 0.094433-6.0047-1.6893-7.3229-0.52463-1.3426 0.94241-2.0229 2.5769-1.747 4.197 0 0-5.3875-0.54561-7.7832-3.6199s-4.4565-9.0341-10.043-6.285z" fill="#2E93EE"/>
<path d="m47.921 14.358s1.339-4.4278 3.9125-5.666c0.091359 2.1433 0.32552 4.278 0.7009 6.3899-1.5224-0.33131-3.0628-0.57305-4.6134-0.72398z" fill="#F1F1F2"/>
<path d="m36.267 5.2817s3.3162 1.6054 5.5444 8.4989c-2.4819-0.42374-4.9936-0.64829-7.5112-0.67152 1.234-2.4276 1.9063-5.1032 1.9667-7.8274z" fill="#F1F1F2"/>
<path d="m37.627 8.3455c0.80551 0 1.4646 0.90236 1.4646 2.0251 0 1.1227-0.65906 2.0146-1.4646 2.0146s-1.4646-0.90236-1.4646-2.0146c0-1.1122 0.6486-2.0251 1.4646-2.0251" fill="#2E578B"/>
<path d="m50.013 13.718c0.63813 0 1.1507-0.68201 1.1507-1.5319s-0.5126-1.5319-1.1507-1.5319c-0.12255 0.0068349-0.24295 0.035248-0.35568 0.08394-0.35156 0.40813-0.61831 0.88258-0.78459 1.3955-0.005156 0.034784-0.005156 0.070141 0 0.10493-0.010461 0.79743 0.50214 1.4794 1.1403 1.4794z" fill="#2E578B"/>
<path d="m36.581 16.687s-3.9753-3.1478-5.9943-0.90236c-2.4061 2.7071 0 6.9146 0 6.9146s0.29291-1.8047 1.1926-2.4028c0 0 0.35568 5.6974 9.6034 12.035 9.2477 6.3375 13.275 5.645 15.294 5.1099 2.019-0.53512 4.0694-1.9831 3.2953-3.6094-0.77413-1.6263-5.9943-6.0437-5.9943-6.0437s-1.9772 0.24133-6.0047-1.1752c-4.0276-1.4165-9.4151-4.197-12.888-9.0236 0.51385-0.27468 1.0132-0.57587 1.496-0.90236" fill="#FF9144"/>
<path d="m34.259 24.095c5.1788-1.246 10.634 0.22759 14.489 3.9137l-1.0461-0.5666s4.7494-0.23084 5.4085 0.43019c2.8182 1.9102 4.6251 4.9951 4.9168 8.394 0.136 1.6263-3.7033 2.5497-12.261-1.7208-5.3143-2.6861-11.507-10.451-11.507-10.451z" fill="#FF6B17"/>
<path d="m44.657 25.176 0.19876 0.10493-0.19876-0.10493z" fill="#FF9144"/>
<path d="m53.591 27.757s-1.1507 4.7321-2.9291 4.197c-0.59629-0.17837-0.35568-1.5214-0.59629-2.4448-0.24061-0.92334-0.93105-2.6861-0.93105-2.6861l4.4565 0.93383z" fill="#EBEEF2"/>
<path d="m62.389 25.962s-0.36614 4.858-2.2073 4.6272c-0.61721-0.073448-0.59629-1.4375-0.98336-2.3084-0.38707-0.87088-1.339-2.5077-1.339-2.5077l4.5297 0.18887z" fill="#EBEEF2"/>
<path d="m64.345 21.702c-0.23015-3.4206-4.7285-4.921-8.0342-2.5182-2.699-0.59807-5.6909-2.4028-8.369 0.30428-1.0949 0.91801-1.4345 2.4614-0.82644 3.7563 0 0-5.6072-0.90236-7.5425-3.7668-1.9353-2.8645-4.4669-6.7047-7.1764-6.9775-1.4436-0.1364-3.8811-0.34625-5.2934 2.4133s-2.0922 7.7435 8.369 15.634c10.461 7.8904 15.043 10.02 17.324 10.01 2.8978 0 3.0756-1.0493 6.4127-1.553 1.7052-0.24133 3.0024-3.1478 1.1298-5.666-1.5646-1.9741-3.4624-3.6574-5.6072-4.9735-0.10461 0.10493 4.059 3.452 4.8331 5.0784 0.77413 1.6263-1.5169 2.6546-3.5254 3.1478-2.0086 0.49315-4.5925 1.0493-13.83-5.2463-9.2373-6.2955-10.231-12.664-10.231-12.664-1.1717-0.17837-1.3077 2.3713-1.3077 2.3713s-1.3495-2.9484 0.46029-4.7111c2.1864-2.0985 4.446 0.49315 4.446 0.49315h-0.136c-1.3704-0.66103-1.5587 0.52463-1.5587 0.52463 3.6427 4.7034 8.4557 8.362 13.955 10.608 4.0276 1.4165 6.1407-0.17837 6.1407-0.17837 1.9126-0.013612 3.8217-0.16792 5.7118-0.46167 1.4436-0.38822 4.9795-0.99679 4.6552-5.624z" fill="#FFCF00"/>
<path d="m50.944 21.335c0.94151-0.29379 1.6633 0.9758 0.42891 1.5214-0.17784 0.47216 0.10461 0.9863 0.85782 1.1647-0.73953 0.35638-1.6271 0.043989-1.9824-0.69775-0.35532-0.74174-0.043858-1.6319 0.69567-1.9883" fill="#ECA93F"/>
<path d="m61.552 20.947c-0.77413-0.25182-1.3704 0.79743-0.34522 1.2591 0.136 0.38822-0.094151 0.80792-0.72182 0.95482 1.9876 0.40921 2.0922-1.8467 1.0461-2.2139" fill="#ECA93F"/>
<style>.3fce9f1f3f0c4c041f2e725dd1e1ca22{height:11px}</style>
</svg>
