<?xml version="1.0" encoding="UTF-8"?>
<svg version="1.1" viewBox="0 0 338.66 96" xml:space="preserve" xmlns="http://www.w3.org/2000/svg">
	<polygon points="36.677 54.332 11.809 54.332 11.809 80.529 0 80.529 0 15.891 11.809 15.891 11.809 42.971 36.677 42.971 36.677 15.891 48.484 15.891 48.484 80.529 36.677 80.529" fill="#213343"/>
	<path d="m86.269 59.636c0 5.3834-4.3853 9.7638-9.7676 9.7638-5.3837 0-9.7662-4.3803-9.7662-9.7638v-27.685h-11.182v27.685c0 11.55 9.3976 20.946 20.948 20.946 11.548 0 20.946-9.3953 20.946-20.946v-27.685h-11.178v27.685z" fill="#213343"/>
	<path d="m169.25 34.802c0-5.6762 3.757-7.4762 7.8702-7.4762 3.312 0 7.6947 2.5207 10.554 5.5836l7.3332-8.6444c-3.6645-4.9512-11.088-8.3741-17.171-8.3741-12.167 0-20.934 7.1142-20.934 18.911 0 21.88 26.748 14.945 26.748 27.194 0 3.7775-3.6664 7.1124-7.8693 7.1124-6.6217 0-8.7696-3.2417-11.81-6.664l-8.1418 8.4627c5.1912 6.3937 11.63 9.6374 19.324 9.6374 11.539 0 20.843-7.204 20.843-18.461 2e-5 -24.311-26.747-16.747-26.747-27.281z" fill="#213343"/>
	<path d="m334.72 70.203c-6.617 0-8.4951-2.861-8.4951-7.246v-19.41h10.285v-9.8389h-10.285v-12.973l-11.358 5.0983v39.539c0 10.109 6.9746 15.209 16.543 15.209 1.4312 0 3.4012-0.09248 4.4757-0.35766l2.7736-10.197c-1.2518 0.08637-2.6826 0.17558-3.9391 0.17558z" fill="#213343"/>
	<path d="m128.89 32.275c-5.5467 0-9.4183 1.61-13.157 5.28v-21.279h-11.218v39.435c0 14.76 10.672 24.87 22.662 24.87 13.329 0 25.008-10.289 25.008-24.152 0-13.688-10.769-24.154-23.295-24.154zm-0.06973 37.016c-7.0275 0-12.724-5.6964-12.724-12.724 0-7.0269 5.6962-12.724 12.724-12.724 7.0267 0 12.723 5.6966 12.723 12.724 0 7.0271-5.6966 12.724-12.723 12.724z" fill="#213343"/>
	<path d="m250.68 55.847c0-13.863-11.679-24.152-25.008-24.152-11.991 0-22.662 10.109-22.662 24.87v39.435h11.218v-21.279c3.7391 3.67 7.6106 5.28 13.157 5.28 12.525 0 23.295-10.467 23.295-24.154zm-10.641-0.13859c0 7.0269-5.6966 12.724-12.723 12.724-7.0275 0-12.724-5.6966-12.724-12.724 0-7.0271 5.6962-12.724 12.724-12.724 7.0267 1e-5 12.723 5.6964 12.723 12.724z" fill="#213343"/>
	<path d="m286.93 31.152v-11.268c2.9412-1.3895 5.002-4.3651 5.002-7.8185v-0.26038c0-4.7656-3.8994-8.6648-8.6648-8.6648h-0.26016c-4.7658 0-8.6652 3.8992-8.6652 8.6648v0.26038c0 3.4534 2.0613 6.4294 5.0024 7.8187v11.268c-4.3792 0.67656-8.3806 2.4827-11.682 5.1408l-30.939-24.068c0.20351-0.78377 0.34645-1.5913 0.34732-2.4387 0.00697-5.3979-4.3631-9.7793-9.7612-9.7863-5.3981-0.00675-9.7796 4.3636-9.7865 9.7615-0.00653 5.3979 4.3636 9.7793 9.7617 9.7861 1.7593 0.00218 3.3874-0.49745 4.8146-1.3091l30.435 23.676c-2.5886 3.9068-4.1042 8.5868-4.1042 13.625 0 5.2746 1.666 10.153 4.4821 14.166l-9.2557 9.2557c-0.73169-0.21942-1.4913-0.37304-2.2949-0.37304-4.4355 0-8.0316 3.5959-8.0316 8.0316s3.5961 8.0316 8.0316 8.0316c4.4359 0 8.0316-3.5959 8.0316-8.0316 0-0.80316-0.15338-1.563-0.37302-2.2946l9.1555-9.1553c4.1557 3.1726 9.3307 5.078 14.963 5.078 13.645 0 24.708-11.062 24.708-24.708 0-12.353-9.0749-22.558-20.915-24.387zm-3.7922 37.055c-6.9962 0-12.668-5.6714-12.668-12.668 0-6.9959 5.6722-12.668 12.668-12.668 6.9953 0 12.668 5.6716 12.668 12.668 0 6.9962-5.6722 12.668-12.668 12.668z" fill="#FF5C35"/>
<style>.f672aaa1eef7ce5a232c536feacf3786{height:21px}</style>
</svg>
