<?xml version="1.0" encoding="UTF-8"?>
<svg version="1.1" viewBox="0 0 27.315 7.874" xmlns="http://www.w3.org/2000/svg">
<defs>
<clipPath id="d">
<path d="m0 0h612v792h-612z"/>
</clipPath>
<clipPath id="c">
<path d="m0 0h612v792h-612z"/>
</clipPath>
</defs>
<g transform="translate(-105.16 -168.2)">
<g transform="translate(.13229 -.13228)">
<g transform="matrix(.35278 0 0 -.35278 91.965 211.93)" clip-path="url(#c)">
<g transform="translate(38.562 112.09)">
<path d="m0 0c-6e-3 -1.032-0.01-2.035-7e-3 -2.918h7.599c1e-3 0.883-2e-3 1.886-0.01 2.918z" fill="#abdd6f"/>
</g>
<g transform="translate(38.607 115.93)">
<path d="m0 0c-0.012-0.899-0.024-1.898-0.033-2.918h7.558c-9e-3 1.02-0.021 2.019-0.033 2.918z" fill="#99d658"/>
</g>
<g transform="translate(45.308 121.3)">
<path d="m0 0h-1.633v1.872c-0.433 0.018-0.871 0.028-1.323 0.028-0.449 0-0.888-0.01-1.321-0.028v-1.872h-1.632v1.763c-0.706-0.07-1.374-0.157-1.99-0.271-2e-3 -3e-3 -9e-3 -9e-3 -9e-3 -0.016 0-1.156 0.196-2.787 0.284-2.872l0.976-1.048s-0.014-0.8-0.03-2.009h7.449c-0.018 1.209-0.033 2.009-0.033 2.009l0.975 1.048c0.088 0.085 0.284 1.716 0.284 2.872 0 7e-3 -6e-3 0.013-8e-3 0.016-0.615 0.114-1.284 0.201-1.989 0.271z" fill="#7dcc33"/>
</g>
<g transform="translate(38.661 106.63)">
<path d="m0 0c0.9-0.282 2.393-0.503 3.691-0.503 0.963 0 2.795 0.242 3.695 0.503 0.052 0.016 0.081 0.647 0.094 1.627h-7.575c0.015-0.98 0.042-1.61 0.095-1.627" fill="#c2e690"/>
</g>
</g>
<path d="m110.66 174.42h0.69956v-4.2979h-0.69956z" fill="#393536"/>
<g transform="matrix(.35278 0 0 -.35278 91.965 211.93)" clip-path="url(#d)">
<g transform="translate(64.514 118.75)">
<path d="m0 0c-1.985 0-3.508-1.039-4.569-2.078v1.824h-2.009v-12.183h2.009v8.767c1.269 1.2 2.492 1.961 3.946 1.961 1.547 0 2.238-0.761 2.238-2.375v-8.353h1.985v8.789c0 2.31-1.269 3.648-3.6 3.648" fill="#393536"/>
</g>
<g transform="translate(73.674 122.83)">
<path d="m0 0h-1.984v-4.338h-2.123v-1.638h2.123v-7.591c0-2.126 0.831-3.117 3.392-3.117 0.624 0 1.384 0.071 1.731 0.14v1.637c-0.323-0.09-0.808-0.162-1.246-0.162-1.477 0-1.893 0.647-1.893 1.938v7.155h3.162v1.638h-3.162z" fill="#393536"/>
</g>
<g transform="translate(83.644 118.75)">
<path d="m0 0c-2.562 0-5.516-1.917-5.516-6.346 0-4.245 2.631-6.347 5.516-6.347 2.284 0 3.829 0.971 4.961 2.585l-1.153 1.016c-0.924-1.27-1.916-1.986-3.669-1.986-2.01 0-3.6 1.478-3.67 4.224h8.607v0.415c0 4.407-2.192 6.439-5.076 6.439m-3.485-5.308c0.276 2.515 1.823 3.646 3.461 3.646 2.008 0 3.046-1.478 3.209-3.646z" fill="#393536"/>
</g>
<g transform="translate(95.296 118.75)">
<path d="m0 0c-2.907 0-4.961-1.825-4.961-4.385 0-1.522 0.691-2.745 1.87-3.508-0.878-0.507-1.523-1.175-1.523-1.962 0-0.715 0.344-1.223 1.038-1.547-1.361-0.528-2.216-1.451-2.216-2.698 0-1.847 1.777-3.022 5.886-3.022 3.53 0 5.953 1.223 5.953 3.529 0 1.963-1.57 2.954-4.662 3.162l-2.493 0.207c-1.291 0.116-1.683 0.345-1.683 0.853 0 0.416 0.346 0.715 0.852 0.947 0.624-0.184 1.224-0.3 1.939-0.3 2.839 0 4.916 1.707 4.916 4.339 0 0.829-0.232 1.545-0.623 2.1 0.715 0.276 1.521 0.392 2.193 0.392v1.754c-0.993-0.115-2.147-0.576-2.885-1.131-0.855 0.762-2.101 1.27-3.601 1.27m-2.146-11.793c0.231-0.025 0.463-0.045 0.693-0.069l2.307-0.16c2.562-0.187 3.37-0.671 3.37-1.754 0-1.108-1.455-1.847-3.877-1.847-3.023 0-4.293 0.6-4.293 1.822 0 0.832 0.623 1.592 1.8 2.008m2.169 4.524c-1.868 0-3.091 1.083-3.091 2.838 0 1.753 1.177 2.885 3.068 2.885 1.962 0 3.069-1.108 3.069-2.885 0-1.755-1.175-2.838-3.046-2.838" fill="#393536"/>
</g>
<g transform="translate(108.43 118.75)">
<path d="m0 0c-2.999 0-5.677-2.145-5.677-6.346 0-4.177 2.7-6.347 5.677-6.347s5.654 2.17 5.654 6.347c0 4.201-2.677 6.346-5.654 6.346m0-11.006c-2.468 0-3.668 2.075-3.668 4.66 0 2.745 1.337 4.637 3.668 4.637 2.423 0 3.646-2.099 3.646-4.637 0-2.793-1.337-4.66-3.646-4.66" fill="#393536"/>
</g>
<g transform="translate(55.03 122.07)">
<path d="m0 0c0-0.573-0.465-1.039-1.039-1.039s-1.039 0.466-1.039 1.039 0.465 1.039 1.039 1.039 1.039-0.466 1.039-1.039" fill="#393536"/>
</g>
</g>
</g>
</g>
<style>.2f9c0b04110e9c40821abdf78461b6cd{height:90px}</style>
</svg>
