<?xml version="1.0" encoding="UTF-8"?>
<svg viewBox="0 0 110 12" xmlns="http://www.w3.org/2000/svg">
<path d="M2.37647 11.394H0V0H2.37647V11.394Z" fill="#21272A"/>
<path d="M17.5528 7.84562V0H19.913V11.394H17.4877L11.7581 3.53215V11.394H9.3817V0H11.807L17.5528 7.84562Z" fill="#21272A"/>
<path d="M26.0388 0H34.1938V2.09976H31.2963V11.394H28.9362V2.09976H26.0388V0Z" fill="#21272A"/>
<path d="m47.304 0v2.0998h-4.6227v2.4416h3.9879v2.0998h-3.9879v2.6532h4.6227v2.0997h-6.9992v-11.394h6.9992z" fill="#21272A"/>
<path d="m63.16 11.394h-2.881l-3.1904-4.6878h-0.765v4.6878h-2.3765v-11.394h4.5901c1.172 0 2.0673 0.31469 2.6858 0.94408 0.6294 0.62938 0.9441 1.4541 0.9441 2.4741 0 1.6603-0.8247 2.6749-2.4742 3.0438l3.4671 4.9319zm-6.8364-6.6248h1.8718c0.5209 0 0.917-0.10308 1.1883-0.30926 0.2821-0.21703 0.4232-0.56428 0.4232-1.0418 0-0.46661-0.1411-0.803-0.4232-1.0092-0.2713-0.20618-0.6674-0.30927-1.1883-0.30927h-1.8718v2.6695z" fill="#21272A"/>
<path d="M77.4765 7.84562V0H79.8367V11.394H77.4114L71.6818 3.53215V11.394H69.3053V0H71.7306L77.4765 7.84562Z" fill="#21272A"/>
<path d="m92.408 5.518 3.9395 5.876h-2.7352l-2.49-3.9065-2.4746 3.9065h-2.718l3.9232-5.8598-3.7114-5.5342h2.7017l2.2791 3.5647 2.2946-3.5647h2.7188l-3.7277 5.518z" fill="#21272A"/>
<path d="m101.56 0h8.155v2.0998h-2.897v9.2942h-2.361v-9.2942h-2.897v-2.0998z" fill="#21272A"/>
<style>.75e5383ae86073dbf30d3e91ade40812{height:18px}</style>
</svg>
