<?xml version="1.0" encoding="UTF-8"?>
<svg viewBox="0 0 2344.8 600" xmlns="http://www.w3.org/2000/svg">
<path d="M267.54 535.08c147.76 0 267.54-119.78 267.54-267.54S415.3 0 267.54 0 0 119.78 0 267.54s119.78 267.54 267.54 267.54Z" fill="#2ca01c"/>
<path d="M178.36 163.5c-57.49 0-104.04 46.61-104.04 104.04s46.55 104.04 104.04 104.04h14.86v-38.64h-14.86c-36.09 0-65.4-29.31-65.4-65.4s29.31-65.4 65.4-65.4h35.73v202.14c0 21.34 17.3 38.64 38.64 38.64V163.5h-74.38ZM356.78 371.58c57.49 0 104.04-46.61 104.04-104.04S414.27 163.5 356.78 163.5h-14.86v38.65h14.86c36.09 0 65.4 29.31 65.4 65.4s-29.31 65.4-65.4 65.4h-35.73V130.8c0-21.34-17.3-38.64-38.64-38.64v279.42h74.38Z" fill="#fff"/>
<path d="M789.12 600h-41.38V495.18h-.71c-10.7 16.53-31.75 26.87-54.82 26.87-50.36 0-81.39-40.01-81.39-88.29s33.11-86.92 80.32-86.92c30.32 0 48.99 14.8 57.25 27.94h1.01v-23.13h39.66v248.34h.06Zm-88.59-112.43c30.32 0 48.63-27.23 48.63-53.09s-18.25-53.8-48.63-53.8c-32.04 0-47.56 27.23-47.56 53.09-.06 25.86 15.46 53.81 47.56 53.81ZM974.97 517.24h-39.3v-26.58h-.71c-7.25 16.53-26.87 31.39-51.37 31.39-43.1 0-61.06-33.12-61.06-66.88V351.72h41.38v91.74c0 19.68 4.46 44.11 31.03 44.11s38.64-22.77 38.64-44.83v-91.02h41.38v165.52ZM1016.47 348.1h41.38v165.52h-41.38V348.1ZM1212.67 397.56c-6.54-9.33-20.69-16.23-34.13-16.23-30.32 0-45.54 27.23-45.54 53.09s15.52 53.09 46.91 53.09c12.78 0 26.87-5.17 34.84-14.8l25.86 26.22c-13.8 14.8-36.57 23.13-61.06 23.13-48.99 0-89.66-32.4-89.66-87.57s40.02-87.58 88.65-87.58c24.14 0 49.29 9.63 62.42 25.86l-28.29 24.79ZM1261.3 256.54h41.38v164.8h1.01l62.78-69.68h53.09l-71.7 74.85 76.22 90.67h-54.81l-65.52-84.84h-1.01v84.84h-41.38V256.54h-.06ZM1484.37 256.54v116.23h1.01c8.62-10.7 25.15-25.86 55.53-25.86 47.26 0 80.32 37.93 80.32 86.92s-31.04 88.29-81.39 88.29c-23.13 0-45.55-10.7-56.9-29.67h-.71v24.85h-39.3V256.54h41.44Zm47.26 124.14c-30.32 0-48.63 27.94-48.63 53.8s18.25 53.09 48.63 53.09c32.05 0 47.56-27.94 47.56-53.81s-15.51-53.09-47.56-53.09ZM1729.19 346.91c50 0 90.02 34.84 90.02 86.92s-40.02 88.29-90.02 88.29-90.01-36.21-90.01-88.29 40.01-86.92 90.01-86.92Zm0 140.67c32.76 0 47.92-27.94 47.92-53.81s-15.16-53.09-47.92-53.09-47.92 27.23-47.92 53.09 15.16 53.81 47.92 53.81ZM1927.17 346.91c50 0 90.01 34.84 90.01 86.92s-40.01 88.29-90.01 88.29-90.01-36.21-90.01-88.29 40.01-86.92 90.01-86.92Zm0 140.67c32.76 0 47.92-27.94 47.92-53.81s-15.16-53.09-47.92-53.09-47.92 27.23-47.92 53.09c-.06 25.86 15.16 53.81 47.92 53.81ZM2042.33 256.54h41.38v164.8h1.01l62.79-69.68h53.09l-71.7 74.85 76.22 90.67h-54.82l-65.52-84.84h-1.01v84.84h-41.38V256.54h-.06ZM2318.02 395.84c-7.26-9.63-21.05-17.95-36.21-17.95-13.08 0-26.58 4.82-26.58 17.95s12.79 16.23 35.85 21.7c24.5 5.89 53.45 16.89 53.45 49.29 0 40.37-32.76 55.17-68.96 55.17-25.51 0-52.08-9.63-67.96-27.23l27.23-25.51c8.98 11.71 24.5 20.69 42.39 20.69 12.07 0 26.58-4.82 26.58-19.68 0-13.79-12.79-17.95-37.93-23.78-24.5-5.89-48.99-15.87-48.99-46.91 0-36.92 33.11-52.73 65.87-52.73 23.78 0 48.63 8.26 62.07 25.15l-26.81 23.84ZM1064.21 125.74c0 41.97 33.59 72.65 76.28 72.65s76.34-30.62 76.34-72.65V29.37h-41.38v91.44c0 22.65-15.16 37.81-35.08 37.81s-35.08-15.16-35.08-37.81V29.37h-41.32l.24 96.37ZM1327.35 68.07h49.35v126.99h41.32V68.07h49.28v-38.7h-139.95v38.7ZM1300.6 29.37h-41.32v165.7h41.32V29.37ZM897.27 68.07h49.35v126.99h41.32V68.07h49.29v-38.7H897.28v38.7ZM680.44 29.37h-41.32v165.7h41.32V29.37ZM875.51 98.69c0-41.97-33.65-72.65-76.34-72.65s-76.34 30.62-76.34 72.65v96.37h41.32v-91.43c0-22.65 15.16-37.81 35.08-37.81s35.08 15.16 35.08 37.81v91.44h41.32l-.12-96.37Z"/>
<style>.ae5561780baff64df2a99981f9365c21{height:38px}</style>
</svg>
