<?xml version="1.0" encoding="UTF-8"?>
<svg version="1.1" viewBox="0 0 915 240" xmlns="http://www.w3.org/2000/svg">
<path transform="translate(28.274 9.4921)" d="m0 0c0.8176-0.00624 1.6352-0.01248 2.4776-0.018909 2.7316-0.015917 5.4622-0.003331 8.1938 0.0092654 1.9616-0.0054217 3.9231-0.012545 5.8847-0.02124 5.3223-0.018231 10.644-0.011167 15.967 0.0015163 5.5706 0.010129 11.141 7.3461e-4 16.712-0.0055447 9.3547-0.0072767 18.709 0.0023119 28.064 0.021362 10.814 0.021769 21.629 0.014717 32.443-0.0073056 9.2859-0.018153 18.572-0.020713 27.858-0.010245 5.5457 0.0062353 11.091 0.0070695 16.637-0.006146 5.2138-0.011557 10.427-0.0035357 15.641 0.019577 1.9132 0.005288 3.8264 0.0037718 5.7396-0.0050507 2.6123-0.010936 5.2234 0.0027837 7.8356 0.02272 0.75662-0.0089229 1.5132-0.017846 2.2928-0.027039 5.153 0.076251 8.0786 1.1888 11.981 4.535 3.9365 4.591 4.5771 8.4082 4.5079 14.274 0.00624 0.8176 0.01248 1.6352 0.018909 2.4776 0.015917 2.7316 0.003331 5.4622-0.0092654 8.1938 0.0054217 1.9616 0.012545 3.9231 0.02124 5.8847 0.018231 5.3223 0.011167 10.644-0.0015163 15.967-0.010129 5.5706-7.3461e-4 11.141 0.0055447 16.712 0.0072767 9.3547-0.0023119 18.709-0.021362 28.064-0.021769 10.814-0.014717 21.629 0.0073056 32.443 0.018153 9.2859 0.020713 18.572 0.010245 27.858-0.0062353 5.5457-0.0070695 11.091 0.006146 16.637 0.011557 5.2138 0.0035357 10.427-0.019577 15.641-0.005288 1.9132-0.0037718 3.8264 0.0050507 5.7396 0.010936 2.6123-0.0027837 5.2234-0.02272 7.8356 0.0089229 0.75662 0.017846 1.5132 0.027039 2.2928-0.076251 5.153-1.1888 8.0786-4.535 11.981-4.591 3.9365-8.4082 4.5771-14.274 4.5079-0.8176 0.00624-1.6352 0.01248-2.4776 0.018909-2.7316 0.015917-5.4622 0.003331-8.1938-0.0092654-1.9616 0.0054217-3.9231 0.012545-5.8847 0.02124-5.3223 0.018231-10.644 0.011167-15.967-0.0015163-5.5706-0.010129-11.141-7.3461e-4 -16.712 0.0055447-9.3547 0.0072767-18.709-0.0023119-28.064-0.021362-10.814-0.021769-21.629-0.014717-32.443 0.0073056-9.2859 0.018153-18.572 0.020713-27.858 0.010245-5.5457-0.0062353-11.091-0.0070695-16.637 0.006146-5.2138 0.011557-10.427 0.0035357-15.641-0.019577-1.9132-0.005288-3.8264-0.0037718-5.7396 0.0050507-2.6123 0.010936-5.2234-0.0027837-7.8356-0.02272-0.75662 0.0089229-1.5132 0.017846-2.2928 0.027039-5.153-0.076251-8.0786-1.1888-11.981-4.535-3.9365-4.591-4.5771-8.4082-4.5079-14.274-0.00624-0.8176-0.01248-1.6352-0.018909-2.4776-0.015917-2.7316-0.003331-5.4622 0.0092654-8.1938-0.0054217-1.9616-0.012545-3.9231-0.02124-5.8847-0.018231-5.3223-0.011167-10.644 0.0015163-15.967 0.010129-5.5706 7.3461e-4 -11.141-0.0055447-16.712-0.0072767-9.3547 0.0023119-18.709 0.021362-28.064 0.021769-10.814 0.014717-21.629-0.0073056-32.443-0.018153-9.2859-0.020713-18.572-0.010245-27.858 0.0062353-5.5457 0.0070695-11.091-0.006146-16.637-0.011557-5.2138-0.0035357-10.427 0.019577-15.641 0.005288-1.9132 0.0037718-3.8264-0.0050507-5.7396-0.010936-2.6123 0.0027837-5.2234 0.02272-7.8356-0.0089229-0.75662-0.017846-1.5132-0.027039-2.2928 0.076251-5.153 1.1888-8.0786 4.535-11.981 4.591-3.9365 8.4082-4.5771 14.274-4.5079z" fill="#F9541F"/>
<path transform="translate(199,59)" d="m0 0c-1.6725 5.1509-4.7466 9.2278-7.8125 13.625-1.3659 1.9822-2.7303 3.9653-4.0938 5.9492-0.38388 0.55787-0.76777 1.1157-1.1633 1.6905-5.9701 8.6863-11.851 17.434-17.743 26.173-0.61934 0.91812-1.2387 1.8362-1.8768 2.7822-10.247 15.193-20.435 30.424-30.572 45.69-4.8351 7.2779-9.6897 14.543-14.606 21.766-0.4287 0.63601-0.85741 1.272-1.2991 1.9273-3.0037 4.3887-6.3017 8.4227-9.8337 12.397-3.0553-0.32079-4.6287-0.64713-6.8867-2.793-0.59426-0.7902-1.1885-1.5804-1.8008-2.3945-0.69094-0.91137-1.3819-1.8227-2.0938-2.7617-3.1781-4.3699-6.342-8.7478-9.4609-13.16-2.9945-4.2345-6.0307-8.4384-9.0703-12.641-0.54527-0.75442-1.0905-1.5088-1.6523-2.2861-1.678-2.3215-3.3565-4.6428-5.0352-6.9639-1.1224-1.5521-2.2448-3.1041-3.3672-4.6562-0.55115-0.76208-1.1023-1.5242-1.6702-2.3093-1.0904-1.5096-2.1795-3.0201-3.2671-4.5317-2.5656-3.5653-5.1455-7.117-7.7698-10.639-0.47413-0.64356-0.94827-1.2871-1.4368-1.9502-0.88606-1.2021-1.78-2.3985-2.6831-3.5879-1.1731-1.6025-1.1731-1.6025-2.8059-4.3252l1-3c3.3235 0.5911 6.307 1.4035 9.4321 2.6741 0.84503 0.34028 1.6901 0.68055 2.5607 1.0311 0.90213 0.36669 1.8043 0.73339 2.7337 1.1112 1.9385 0.77237 3.8773 1.5438 5.8164 2.3145 3.0381 1.2115 6.0735 2.4282 9.103 3.6609 2.9369 1.1923 5.8826 2.3601 8.8306 3.5247 0.88999 0.36872 1.78 0.73743 2.6969 1.1173 6.3091 2.4619 12.058 3.3485 18.827 2.5663 5.1431-2.4141 9.1254-6.7563 13.297-10.578 2.6514-2.3755 5.3689-4.6261 8.1406-6.8594 4.7739-3.8608 9.2964-7.9369 13.812-12.094 3.5618-3.1976 7.2757-6.1826 11-9.1875 2.831-2.3484 5.5438-4.7903 8.25-7.2812 4.461-4.1057 9.0713-7.9564 13.789-11.762 3.6134-2.9834 7.0704-6.1223 10.52-9.293 5.5709-4.9453 5.5709-4.9453 8.1914-4.9453z" fill="#FEFCFC"/>
<path transform="translate(736.31 98.812)" d="m0 0c2.6711 1.4141 4.6279 2.9758 6.6875 5.1875l2.6875-2.375c4.5647-3.756 8.2832-5.0423 14.32-4.8828 3.8314 0.49582 6.7058 2.293 9.7422 4.5703 3.4327 4.6342 3.558 10.051 3.5508 15.605 0.0042851 0.73906 0.0085702 1.4781 0.012985 2.2396 0.0057129 1.5522 0.0062661 3.1044 0.0019074 4.6567-0.0031786 2.3768 0.020399 4.7525 0.045654 7.1292 0.0022714 1.5124 0.0029772 3.0247 0.0019531 4.5371 0.0092098 0.7094 0.018419 1.4188 0.027908 2.1497-0.02746 2.9146-0.054337 4.89-1.7576 7.3164-2.356 1.5194-3.8898 1.465-6.6335 1.0535-1.6309-1.1196-1.6309-1.1196-3-3-0.38477-2.9233-0.38477-2.9233-0.40625-6.4609-0.021914-1.2762-0.043828-2.5523-0.066406-3.8672-0.010794-1.3489-0.019893-2.6979-0.027344-4.0469-0.014625-2.6338-0.048616-5.2647-0.09375-7.8984-0.0070898-1.1697-0.01418-2.3393-0.021484-3.5444-0.4221-3.4909-1.2729-5.395-3.3848-8.1821-2.1192-0.78567-2.1192-0.78567-4.4375-0.625-0.76184-0.012891-1.5237-0.025781-2.3086-0.039062-3.3481 0.98643-4.355 2.7884-6.2539 5.6641-0.58804 3.1144-0.58804 3.1144-0.50391 6.4727-0.018691 1.2291-0.037383 2.4582-0.056641 3.7246-6.4453e-4 1.2755-0.0012891 2.5511-0.0019531 3.8652-0.0089312 2.5326-0.030514 5.0653-0.066406 7.5977-0.0010876 1.6804-0.0010876 1.6804-0.0021973 3.3948-0.40397 3.2251-1.1952 4.5845-3.3689 6.9451-3.375-0.3125-3.375-0.3125-7-1-2.4218-3.6327-2.265-5.4248-2.3086-9.75-0.025152-1.3438-0.05055-2.6875-0.076172-4.0312-0.028777-2.1133-0.052803-4.2265-0.071533-6.3398-0.021642-2.0434-0.061067-4.0858-0.10229-6.1289-0.013455-1.222-0.026909-2.4441-0.040771-3.7031-0.16384-3.0008-0.16384-3.0008-1.6821-4.9453-2.9955-1.9201-6.326-1.6145-9.7185-1.1016-3.2361 1.7425-3.824 2.4719-5 6-0.11579 2.1022-0.17846 4.2074-0.21094 6.3125-0.028359 1.2401-0.056719 2.4802-0.085938 3.7578-0.05208 2.6196-0.096352 5.2395-0.13281 7.8594-0.030938 1.2401-0.061875 2.4802-0.09375 3.7578-0.019819 1.1382-0.039639 2.2765-0.060059 3.4492-0.4165 2.8633-0.4165 2.8633-1.79 4.7344-2.3386 1.6232-3.8457 1.546-6.6265 1.1289-1.9918-1.5428-2.8891-2.4368-3.381-4.9351-0.0023868-0.73042-0.0047736-1.4608-0.0072327-2.2134-0.0094565-0.83096-0.018913-1.6619-0.028656-2.5181 0.0060727-0.8938 0.012145-1.7876 0.018402-2.7085-0.0028702-0.92087-0.0057404-1.8417-0.0086975-2.7905-0.0020413-1.9468 0.0034932-3.8936 0.016022-5.8403 0.016053-2.9829 1.5356e-4 -5.9644-0.019043-8.9473 0.0019824-1.8906 0.0058261-3.7813 0.011719-5.6719-0.0060727-0.8938-0.012145-1.7876-0.018402-2.7085 0.0094565-0.83096 0.018913-1.6619 0.028656-2.5181 0.0023868-0.73042 0.0047736-1.4608 0.0072327-2.2134 0.4974-2.5266 1.311-3.4324 3.381-4.9351 3.5625 0.125 3.5625 0.125 7 1l2 3 2.8125-1.9375c6.0666-3.9254 12.038-4.3736 18.5-1.25z" fill="#333"/>
<path transform="translate(819.05 98.836)" d="m0 0c5.9547 3.549 9.7073 9.2199 11.516 15.82 1.5525 8.317 0.5303 15.867-3.5625 23.344-4.8422 5.7488-9.8686 8.6175-17.375 9.3125-5.5665-0.47987-9.9927-2.2243-14.625-5.3125 0.010474 0.56509 0.020947 1.1302 0.031738 1.7124 0.04151 2.5542 0.067571 5.1082 0.093262 7.6626 0.016758 0.88945 0.033516 1.7789 0.050781 2.6953 0.0064453 0.85078 0.012891 1.7016 0.019531 2.5781 0.010474 0.78552 0.020947 1.571 0.031738 2.3804-0.22705 1.9712-0.22705 1.9712-2.2271 3.9712-3.5 0.3125-3.5 0.3125-7 0-2.2826-3.4239-2.2567-4.6822-2.2747-8.709-0.009532-1.1713-0.019064-2.3426-0.028885-3.5494 0.0013671-1.8985 0.0013671-1.8985 0.0027618-3.8353-0.0042851-1.2982-0.0085702-2.5964-0.012985-3.934-0.0074591-2.7472-0.007173-5.4942-0.0019074-8.2413 0.0057991-3.5209-0.011148-7.0413-0.034345-10.562-0.018269-3.3584-0.014552-6.7167-0.013263-10.075-0.0092098-1.2657-0.018419-2.5313-0.027908-3.8353 0.0062288-1.1713 0.012458-2.3426 0.018875-3.5494-6.2943e-4 -1.0324-0.0012588-2.0648-0.0019074-3.1285 0.37422-2.5804 0.37422-2.5804 1.6748-4.4451 1.6994-1.1354 1.6994-1.1354 5.2619-1.0104 3.4375 0.875 3.4375 0.875 5.4375 3.875l2.8125-1.9375c6.399-4.1406 13.314-4.142 20.234-1.2266zm-22.047 14.164c-2.4108 4.0545-2.5803 8.3844-2 13 1.6939 4.6359 3.6727 7.5541 8 10 3.8324 0.75798 7.3145 0.87133 10.844-0.95312 3.2798-2.5403 5.2228-5.0331 6.1562-9.0469 0.44719-5.6346 0.19721-9.1491-3-14-2.9138-3.2566-5.167-4.2969-9.4375-4.5625-5.0588 0.23608-7.1855 1.856-10.562 5.5625z" fill="#333"/>
<path transform="translate(650.88 82.562)" d="m0 0c0.69964 0.006123 1.3993 0.012246 2.1201 0.018555 7.1482 0.21541 11.902 2.1488 17.567 6.2939 1.9385 2.8657 1.8793 4.738 1.4375 8.125-2 2-2 2-4.625 2.375-3.2303-0.35892-4.3691-0.81537-7.0625-2.375-5.9572-3.2483-12.907-2.8409-19.312-1v8c5.2157 3.0425 10.188 4.5824 16.062 5.875 6.1019 1.4041 11.211 2.7924 14.938 8.125 2.5322 5.4865 2.6961 11.226 1 17-3.7263 6.0604-8.456 9.6116-15.25 11.688-9.2944 1.0562-18.102 0.37871-26.25-4.625-2.4378-2.0112-3.6744-3.0354-4.5-6.0625 0.1875-2.625 0.1875-2.625 1-5 3-2 3-2 5.3867-1.7852 2.7405 0.82338 4.94 1.9381 7.4258 3.3477 4.8335 2.4778 7.7955 3.1564 13.188 2.4375 3.7978-1.5341 3.7978-1.5341 7-4 0.14959-3.4595 0.14959-3.4595-1-7-4.2167-2.6834-8.5784-3.3479-13.438-4.375-6.7648-1.4946-11.863-3.5772-16.5-8.8125-2.1389-5.6618-2.6561-10.801-0.9375-16.625 5.0967-8.6644 11.948-11.771 21.75-11.625z" fill="#333"/>
<path transform="translate(588.75 101.81)" d="m0 0c5.2759 5.1293 7.9435 10.571 8.5625 17.875-0.3125 3.3125-0.3125 3.3125-1.3899 5.0012-2.9463 2.0095-5.469 1.6474-8.9968 1.6042-0.68383-0.0042448-1.3677-0.0084897-2.0722-0.012863-2.1808-0.016772-4.3606-0.054419-6.5411-0.092606-1.4798-0.015049-2.9596-0.028737-4.4395-0.041016-3.6247-0.033049-7.2488-0.08482-10.873-0.14648 2.3166 4.7653 2.3166 4.7653 5.957 8.418 5.766 1.6427 11.385 1.0162 16.918-1.1055 2.207-0.84375 2.207-0.84375 4.125-1.3125 2.5625 1.3125 2.5625 1.3125 4 3-0.125 2.75-0.125 2.75-1 6-5.726 4.908-12.272 6.4516-19.668 6.25-6.9421-0.74421-12.468-3.1601-17.332-8.25-4.5494-7.3198-6.3757-14.85-4.4688-23.375 2.3681-7.6191 5.6019-12.5 12.469-16.645 8.4476-4.1413 17.226-2.127 24.75 2.832zm-24.75 10.188-1 4h22c-2.2617-5.703-2.2617-5.703-4.9102-7.3516-6.1222-1.8996-11.666-1.6253-16.09 3.3516z" fill="#333"/>
<path transform="translate(894,100)" d="m0 0c6.8562 5.4301 10.003 11.249 11.18 19.852-0.24946 2.9827-1.0475 4.0462-3.1797 6.1484-3.1863 0.5459-3.1863 0.5459-7.0742 0.60938-1.0257 0.024804-1.0257 0.024804-2.0722 0.05011-2.1804 0.048518-4.3602 0.069857-6.5411 0.090515-1.4799 0.028157-2.9597 0.058084-4.4395 0.089844-3.6242 0.073916-7.2483 0.12347-10.873 0.16016 3.0389 5.1438 3.0389 5.1438 8 8 6.1781 0.82162 11.394-0.12007 17.09-2.5391 0.63035-0.15211 1.2607-0.30422 1.9102-0.46094 3 2 3 2 3.8125 3.875 0.23976 2.7172-0.37392 3.826-1.8125 6.125-1.8047 1.2305-1.8047 1.2305-3.875 2.1875-1.0171 0.48533-1.0171 0.48533-2.0547 0.98047-7.24 2.9097-14.677 2.5987-21.934-0.13672-6.0718-2.9305-10.026-7.1183-12.477-13.41-1.9745-7.8394-1.5578-15.575 2.2109-22.758 3.6439-6.0143 7.4894-9.0673 14.066-11.613 6.5992-0.7999 12.208-0.57513 18.062 2.75zm-23 13v3h21c-0.66515-3.9731-0.66515-3.9731-3-6.25-6.9326-4.044-12.795-2.4893-18 3.25z" fill="#333"/>
<path transform="translate(468,100)" d="m0 0c6.5964 4.3414 10.156 9.311 12 17 1.0789 7.2263-0.24963 13.721-4 20-4.907 5.7755-10.663 9.225-18.152 10.312-6.9878 0.39299-13.558-1.5225-18.93-6.0781-5.3163-5.6857-7.9667-11.334-8.3555-19.109 0.29076-7.5713 2.6116-13.838 8.1875-19.062 8.7417-6.8512 19.294-8.5606 29.25-3.0625zm-24 14c-1.7267 5.18-1.9097 10.797 0.1875 15.875 3.6882 4.3992 3.6882 4.3992 8.8906 6.582 4.6383 0.33919 7.3322-0.31848 10.922-3.332 3.621-3.4701 4.2299-5.7989 4.4375-10.812-0.016187-4.4891-0.36567-7.0585-3.3125-10.5-2.9663-2.9449-5.1319-4.0125-9.3125-4.25-5.3673 0.034684-8.4764 2.3568-11.812 6.4375z" fill="#333"/>
<path transform="translate(370,100)" d="m0 0c6.0043 8.2422 5.2383 18.395 5.3125 28.125 0.029004 1.2749 0.058008 2.5498 0.087891 3.8633 0.0083789 1.2233 0.016758 2.4466 0.025391 3.707 0.014583 1.1139 0.029165 2.2278 0.044189 3.3755-0.57664 3.594-1.5702 4.7871-4.47 6.9292-3.125-0.0625-3.125-0.0625-6-1-2.3854-3.5781-2.264-5.2457-2.3086-9.4961-0.025137-1.2807-0.050273-2.5614-0.076172-3.8809-0.028737-2.032-0.052765-4.0639-0.071533-6.0959-0.021696-1.9662-0.06177-3.9323-0.10229-5.8982-0.013455-1.1749-0.026909-2.3498-0.040771-3.5603-0.43279-3.3149-1.0682-4.716-3.4006-7.0686-3.0455-0.76277-5.9228-0.56758-9 0-2.5016 1.8762-3.6195 3.2389-5 6-0.11869 2.0694-0.1791 4.1423-0.21094 6.2148-0.028359 1.2433-0.056719 2.4866-0.085938 3.7676-0.052003 2.6327-0.096298 5.2655-0.13281 7.8984-0.030938 1.2446-0.061875 2.4892-0.09375 3.7715-0.019819 1.1446-0.039639 2.2892-0.060059 3.4685-0.4165 2.8792-0.4165 2.8792-1.79 4.7524-2.339 1.6203-3.8469 1.5436-6.6265 1.1267-1.9918-1.5428-2.8891-2.4368-3.381-4.9351-0.0023868-0.73042-0.0047736-1.4608-0.0072327-2.2134-0.0094565-0.83096-0.018913-1.6619-0.028656-2.5181 0.0060727-0.8938 0.012145-1.7876 0.018402-2.7085-0.0028702-0.92087-0.0057404-1.8417-0.0086975-2.7905-0.0020413-1.9468 0.0034932-3.8936 0.016022-5.8403 0.016053-2.9829 1.5356e-4 -5.9644-0.019043-8.9473 0.0019824-1.8906 0.0058261-3.7813 0.011719-5.6719-0.0060727-0.8938-0.012145-1.7876-0.018402-2.7085 0.0094565-0.83096 0.018913-1.6619 0.028656-2.5181 0.0023868-0.73042 0.0047736-1.4608 0.0072327-2.2134 0.49739-2.5265 1.3135-3.4295 3.381-4.9351 3.5625 0.0625 3.5625 0.0625 7 1 1.4375 2.0625 1.4375 2.0625 2 4l2.75-2.4375c6.5016-5.3525 15.209-4.8954 22.25-0.5625z" fill="#333"/>
<path transform="translate(544,100)" d="m0 0c2 2 2 2 2.2305 3.9102-0.11936 5.9787-0.11936 5.9787-1.2305 7.0898-5.3138 0.35425-5.3138 0.35425-7.9219-0.99219-3.5772-1.7348-7.1917-1.4389-11.078-1.0078-3.8065 1.4067-4.7785 2.6308-6.875 6.125-2.0139 5.401-1.1167 10.656 1.1875 15.812 2.3692 2.8957 4.4332 3.9278 8.1602 4.3281 0.85465-0.0051562 1.7093-0.010312 2.5898-0.015625 0.85723 0.0051562 1.7145 0.010312 2.5977 0.015625 2.6104-0.1157 2.6104-0.1157 5.3398-2.2656 3.0625-0.3125 3.0625-0.3125 6 0 2 3 2 3 2.625 5.375-0.77145 3.2401-1.5845 3.5974-4.3125 5.375-3.1274 1.7441-5.7015 2.9858-9.3125 3.25-0.66773 0.050273-1.3355 0.10055-2.0234 0.15234-7.2614 0.30979-12.897-1.3364-18.727-5.7148-5.6351-5.2483-7.4501-11.911-7.75-19.438 0.29988-7.5261 2.1149-14.189 7.75-19.438 9.3116-6.9788 20.269-7.4867 30.75-2.5625z" fill="#333"/>
<path transform="translate(388.32 97.633)" d="m0 0c4.3967 1.6353 4.6838 2.5296 6.6953 6.6094 0.95862 2.1991 1.8886 4.4108 2.793 6.6328 0.94249 2.2064 1.8864 4.4121 2.832 6.6172 0.40581 0.98339 0.81163 1.9668 1.2297 2.98 1.1144 2.693 1.1144 2.693 3.1257 5.5278 0.47627-1.1124 0.47627-1.1124 0.96216-2.2473 1.4427-3.3583 2.8964-6.7117 4.3503-10.065 0.49951-1.1672 0.99902-2.3345 1.5137-3.5371 0.48662-1.1183 0.97324-2.2365 1.4746-3.3887 0.44513-1.0317 0.89026-2.0633 1.3489-3.1262 1.2477-2.4351 2.2098-3.9615 4.3503-5.6355 2.8788-0.43182 4.3674-0.37957 6.875 1.125 1.721 2.8684 0.87245 4.6476 0.125 7.875-1.036 2.8439-2.2528 5.595-3.4922 8.3555-0.34661 0.78345-0.69321 1.5669-1.0503 2.3741-0.73127 1.6479-1.466 3.2943-2.2041 4.9391-1.1275 2.5167-2.2399 5.0397-3.3511 7.5637-0.71395 1.6039-1.4288 3.2074-2.1445 4.8105-0.33136 0.75315-0.66272 1.5063-1.0041 2.2823-1.5489 3.4273-2.8628 6.2385-5.7537 8.6748-2.875 0.6875-2.875 0.6875-6 0-5.0972-6.9802-8.295-14.999-11.75-22.875-0.59449-1.344-1.1895-2.6878-1.7852-4.0312-1.0827-2.4423-2.1614-4.8862-3.2373-7.3315-0.7117-1.6015-1.4438-3.1947-2.2275-4.7622-0.25-3.5-0.25-3.5 0-7 3-2 3-2 6.3242-2.3672z" fill="#333"/>
<path transform="translate(315.56 83.625)" d="m0 0c3.4375 0.375 3.4375 0.375 5.4375 2.375 0.2607 2.3843 0.2607 2.3843 0.27466 5.4119 0.009532 1.1313 0.019064 2.2627 0.028885 3.4283-9.1141e-4 1.2271-0.0018228 2.4541-0.0027618 3.7184 0.0042851 1.2552 0.0085702 2.5105 0.012985 3.8037 0.0057525 2.6591 0.0071681 5.3178 0.0019074 7.9768-0.0057934 3.4077 0.01113 6.8149 0.034345 10.222 0.018275 3.249 0.014552 6.498 0.013263 9.747 0.0092098 1.225 0.018419 2.4501 0.027908 3.7123-0.0062288 1.1345-0.012458 2.269-0.018875 3.4379 6.2943e-4 0.9999 0.0012588 1.9998 0.0019074 3.03-0.37422 2.5112-0.37422 2.5112-1.6748 4.3615-1.6994 1.1498-1.6994 1.1498-5.2619 1.0873-3.4375-0.9375-3.4375-0.9375-4.6352-2.6676-0.93197-2.6367-1.063-4.7293-1.077-7.5258-0.009532-1.0479-0.019064-2.0958-0.028885-3.1754 9.1141e-4 -1.1261 0.0018228-2.2522 0.0027618-3.4125-0.0042851-1.1612-0.0085702-2.3225-0.012985-3.5189-0.0057414-2.4545-0.006245-4.9089-0.0019074-7.3634 0.0031618-3.7596-0.020309-7.5184-0.045654-11.278-0.0022728-2.3841-0.0029766-4.7682-0.0019531-7.1523-0.0092098-1.1261-0.018419-2.2522-0.027908-3.4125 0.0062288-1.0479 0.012458-2.0958 0.018875-3.1754-6.2943e-4 -0.92059-0.0012588-1.8412-0.0019074-2.7897 0.71267-4.6966 2.2374-6.3465 6.9367-6.8412z" fill="#333"/>
<path transform="translate(848,80)" d="m0 0c1.632 1.1609 1.632 1.1609 3 3 0.38095 2.6184 0.38095 2.6184 0.38818 5.8008 0.0094565 1.1913 0.018913 2.3827 0.028656 3.6101-0.0060727 1.2875-0.012145 2.5751-0.018402 3.9016 0.002021 1.3337 0.0049328 2.6675 0.0086975 4.0012 0.004422 2.7943-0.0020031 5.5883-0.016022 8.3826-0.017092 3.5815-0.0072504 7.1622 0.010717 10.744 0.010842 2.7538 0.0073899 5.5075-3.8337e-4 8.2613-0.002974 1.9626 0.0061356 3.9252 0.015392 5.8878-0.0094565 1.1913-0.018913 2.3827-0.028656 3.6101-0.0023868 1.0502-0.0047736 2.1004-0.0072327 3.1824-0.38095 2.6184-0.38095 2.6184-1.6786 4.4927-1.7023 1.1257-1.7023 1.1257-5.3273 0.93823-1.1138-0.26812-2.2275-0.53625-3.375-0.8125-1.3311-2.6623-1.1418-4.706-1.1611-7.6873-0.0096076-1.1914-0.019215-2.3828-0.029114-3.6103-0.0042499-1.2927-0.0084998-2.5854-0.012878-3.9173-0.0057513-1.3352-0.011509-2.6703-0.017273-4.0055-0.010508-2.8002-0.016352-5.6003-0.019836-8.4005-0.0054886-3.5893-0.029525-7.1781-0.057972-10.767-0.018616-2.7581-0.023831-5.5161-0.025364-8.2742-0.0045023-1.9671-0.023153-3.9341-0.041969-5.9011 0.0030011-1.1946 0.0060022-2.3891 0.0090942-3.6199-0.0054684-1.5798-0.0054684-1.5798-0.011047-3.1915 0.36749-2.6251 0.36749-2.6251 1.7335-4.4652 2.3389-1.6603 3.8331-1.58 6.634-1.1599z" fill="#333"/>
<path transform="translate(493 97.438)" d="m0 0c3 0.5625 3 0.5625 4.6648 2.5564 1.7745 3.9952 1.7487 7.3441 1.6985 11.666 4.985e-4 0.82689 9.9701e-4 1.6538 0.0015106 2.5057-0.0023337 1.7423-0.01202 3.4847-0.02861 5.2269-0.023634 2.6643-0.020551 5.3276-0.013916 7.9919-0.005576 1.696-0.012685 3.3919-0.021484 5.0879 0.0013671 1.1923 0.0013671 1.1923 0.0027618 2.4087-0.094112 7.3491-0.094112 7.3491-2.3035 10.119-3.625 0.75-3.625 0.75-7 1-2.6028-2.5365-3.2279-4.5483-3.3882-8.0625-0.019759-1.6457-0.022127-3.2917-0.010254-4.9375-0.0028702-0.8727-0.0057404-1.7454-0.0086975-2.6445-0.0020387-1.8425 0.0034774-3.6849 0.016022-5.5273 0.016057-2.8182 1.449e-4 -5.635-0.019043-8.4531 0.0019825-1.7917 0.0058262-3.5833 0.011719-5.375-0.0060727-0.84176-0.012145-1.6835-0.018402-2.5508 0.042099-3.5064 0.095145-5.8413 1.7542-8.9766 1.6626-1.4727 1.6626-1.4727 4.6626-2.0352z" fill="#333"/>
<path transform="translate(690,98)" d="m0 0c1.9815 1.7656 2.8875 3.2409 3.2787 5.8816 0.11932 2.378 0.13687 4.7375 0.11969 7.1184 0.0043053 1.309 0.0043053 1.309 0.0086975 2.6445 0.0020387 1.8425-0.0034774 3.6849-0.016022 5.5273-0.016057 2.8182-1.449e-4 5.635 0.019043 8.4531-0.0019825 1.7917-0.0058262 3.5833-0.011719 5.375 0.009109 1.2626 0.009109 1.2626 0.018402 2.5508-0.070443 5.8671-0.070443 5.8671-1.9417 9.0117-0.48678 0.47438-0.97356 0.94875-1.4751 1.4375-3.375-0.25-3.375-0.25-7-1-2.873-3.5895-2.2878-8.1921-2.2656-12.562-0.0019134-0.8283-0.0038269-1.6566-0.0057983-2.51-0.0013588-1.7483 0.0023162-3.4966 0.010681-5.2449 0.010704-2.6731 9.446e-5 -5.3455-0.012695-8.0186 0.0013216-1.7005 0.0038842-3.401 0.0078125-5.1016-0.0040485-0.79801-0.0080969-1.596-0.012268-2.4182 0.059771-7.0878 0.059771-7.0878 2.2779-10.144 2.5745-1.2873 4.1471-1.3479 7-1z" fill="#333"/>
<path transform="translate(684.88 81.734)" d="m0 0 2.125 0.015625 2.125-0.015625c1.875 0.26562 1.875 0.26562 3.875 2.2656 0.25 3.5 0.25 3.5 0 7-2 2-2 2-3.875 2.2656l-2.125-0.015625-2.125 0.015625c-1.875-0.26562-1.875-0.26562-3.875-2.2656-0.25-3.5-0.25-3.5 0-7 2-2 2-2 3.875-2.2656z" fill="#333"/>
<path transform="translate(490.88 81.734)" d="m0 0 2.125 0.015625 2.125-0.015625c1.875 0.26562 1.875 0.26562 3.875 2.2656 0.25 3.5 0.25 3.5 0 7-2 2-2 2-3.875 2.2656l-2.125-0.015625-2.125 0.015625c-1.875-0.26562-1.875-0.26562-3.875-2.2656-0.25-3.5-0.25-3.5 0-7 2-2 2-2 3.875-2.2656z" fill="#333"/>
<style>.a94116071fe9cd9d44eec1426f74b35c{height:13px}</style>
</svg>
