<?xml version="1.0" encoding="UTF-8"?>
<svg version="1.1" viewBox="0 0 640 140" xmlns="http://www.w3.org/2000/svg">
<path d="M91.02,.52C53.11,.52,22.24,31.39,22.24,70s30.87,69.48,68.79,69.48,68.79-31.17,68.79-69.48C159.71,31.39,128.84,.52,91.02,.52Zm188.69,73.35h29.78l5.96-10.12h-35.73v-14h35.73l5.96-10.12h-53.3v60.35h54.39v-10.12h-42.78v-15.98m67.69,0h29.78l5.96-10.12h-35.73v-14h35.73l5.96-10.12h-53.3v60.35h54.39v-10.12h-42.78v-15.98m140.65,0h29.78l5.96-10.12h-35.73v-14h35.73l5.96-10.12h-53.3v60.35h54.39v-10.12h-42.78v-15.98M255.1,39.83h-15.39l-29.78,30.17,29.78,30.17h15.39c-7.35-7.35-24.52-24.91-29.78-30.17,5.26-5.26,22.43-23.13,29.78-30.17m-61.34,59.95h11.61V39.83h-11.61v59.95Zm393.86-24.12c8.73-.4,16.48-6.65,16.48-17.87,0-14.69-10.12-17.87-24.22-17.87h-35.73v60.35h11.61V49.75h22.43c9.43,0,14.39,1.39,14.39,8.44s-4.86,8.44-14.39,8.44h-12.31l-5.66,9.83h13.7l17.17,23.82h14.39l-17.87-24.62m-150.48-35.83h-33.35v60.35h11.61V50.05h24.22c6.65,0,12.61,.69,12.61,8.44s-5.96,8.44-12.61,8.44h-13.7l-5.96,10.12h17.17c10.12,0,26.7,0,26.7-18.26s-16.87-18.96-26.7-18.96m176.08-10.52l2.08,3.18h-1.09l-2.08-2.78h-1.39v2.78h-.99v-7.05h2.78c1.09,0,1.39,0,2.08,.4,.4,.4,.69,.69,.69,1.39s-.4,1.09-.69,1.39-.69,.4-1.39,.69h0Zm-.3-.99h.69c.4,0,.4-.4,.4-.4v-1.39l-.4-.4h-2.88v2.08h2.18v.1h.01Zm4.86,.31c0,.69,0,1.79-.4,2.48s-.69,1.39-1.39,1.79c-.4,.69-1.09,1.09-1.79,1.09s-1.39,.4-2.08,.4-1.39,0-2.08-.4-1.39-.69-1.79-1.09-1.09-1.09-1.39-1.79c-.4-.69-.4-1.39-.4-2.48,0-.69,0-1.39,.4-2.48,.4-.69,.69-1.39,1.39-1.79s1.09-1.09,1.79-1.09c.69-.4,1.39-.4,2.08-.4s1.39,0,2.08,.4,1.39,.69,1.79,1.09c.4,.4,1.09,1.09,1.39,1.79,.4,1.09,.4,1.79,.4,2.48Zm-1.09,0c0-.69,0-1.39-.4-2.08s-.69-1.09-1.09-1.39-1.09-.69-1.39-1.09c-.69-.4-1.09-.4-1.79-.4s-1.39,0-1.79,.4c-.69,.4-1.09,.69-1.39,1.09s-.69,1.09-1.09,1.39c-.69,1.09-.69,1.39-.69,2.08s0,1.39,.4,2.08,.69,1.09,1.09,1.39c.4,.4,1.09,.69,1.39,1.09,.69,.4,1.09,.4,1.79,.4s1.39,0,1.79-.4c.69-.4,1.09-.69,1.39-1.09,.4-.4,.69-1.09,1.09-1.39,.69-.69,.69-1.39,.69-2.08Z"/>
<path d="m145.32 87.87-21.74-18.26 21.74-18.26 6.65 8.44-11.91 9.83 11.91 9.83-6.65 8.44v-0.02zm-8.44 20.35-26.3-21.44h-21.74v43.48h-10.52v-54h36.13l29.08 23.52c0.1 0-6.65 8.44-6.65 8.44zm-15.39 14.39-11.91-9.83v15.09l-10.52 2.78v-33.35h8.73l22.43 18.96-8.73 6.35zm-53.7-9.13-10.52 9.43v-105.22l10.52 9.53v86.26zm-20.65-13-10.52-9.13v-40.71l10.52-9.83v59.67zm30.88-91.13h10.52v43.48h21.74l26.3-21.44 6.65 8.44-29.08 23.52h-36.13v-54zm21.04 1.39 10.52 2.78v15.09l11.91-9.83 8.73 6.35-22.43 18.96h-8.73v-33.35z" fill="#ffc700"/>
<style>.1a16f7a6c37af7d35e6ab8253c0b991a{height:36px}</style>
</svg>
