<?xml version="1.0" encoding="UTF-8"?>
<svg version="1.1" viewBox="0 0 640 140" xmlns="http://www.w3.org/2000/svg">
<path d="M.78,23.9c.52-.37,1.35-.56,2.48-.56H13.87c1.32,0,2.21,.16,2.69,.49,.47,.33,.71,1.15,.71,2.46V91.47c0,3.66,.92,6.24,2.76,7.74,1.84,1.5,4.36,2.25,7.57,2.25h24.81c1.04,0,2.23,.09,2.93,.68,.71,.59,.55,.96,1.02,2.48,.47,1.52,1.41,8.79,1.41,8.79,0,.74,0,1.29-.49,1.79-.48,.5-1.5,.9-2.31,1.12-.81,.22-2.37,.35-4.68,.35H24.91c-4.91,0-8.97-.71-12.17-2.11-3.21-1.41-5.76-3.29-7.64-5.64-1.89-2.35-3.24-5.09-3.96-8.02C.37,97.81-.01,94.65,0,91.47V26.29C0,25.07,.26,24.27,.78,23.9Z" fill-rule="evenodd"/>
<path d="m346.67 107.85c0 2.08-0.82 3.5-2.46 4.28-1.98 0.9-4.04 1.63-6.14 2.2-2.2 0.61-4.46 1.08-6.79 1.43-2.29 0.34-4.6 0.58-6.92 0.71-2.28 0.13-4.46 0.2-6.52 0.2-5.69 0-10.41-0.58-14.16-1.75s-6.72-2.72-8.92-4.67c-2.12-1.84-3.71-4.21-4.59-6.88-0.87-2.7-1.31-5.53-1.29-8.37 0-3.03 0.49-5.95 1.48-8.76 1-2.82 2.66-5.36 4.85-7.4 2.24-2.12 5.15-3.83 8.72-5.12 3.58-1.3 7.95-1.95 13.12-1.95h14.48v-2.21c0-1.64-0.17-3.16-0.52-4.54-0.33-1.37-1.02-2.62-2-3.64-1-1.04-2.36-1.84-4.08-2.4s-3.96-0.84-6.72-0.84c-2.93 0-6.82 0.77-8.98 1.47-0.95 0.26-1.64 0.3-2.07 0.13-0.43-0.18-0.73-0.65-0.9-1.43l-1.81-7.4c-0.34-1.38 0.04-2.29 1.16-2.72 3.62-1.39 11.26-2.63 15.05-2.63 8.96 0 15.53 1.99 19.71 5.97s6.27 9.78 6.27 17.39v38.93zm-15.25-24.53h-12.41c-1.47 0-3.04 0.09-4.72 0.26-1.67 0.17-3.29 0.65-4.78 1.42-1.51 0.78-2.76 1.91-3.75 3.38s-1.48 3.5-1.48 6.1c0 3.72 1.25 6.32 3.75 7.79s5.82 2.2 9.96 2.2c0.6 0 1.44-0.02 2.52-0.06s2.22-0.15 3.42-0.32c1.21-0.17 2.48-0.39 3.81-0.65s2.56-0.6 3.69-1.04v-19.08z" fill="#d32d27" fill-rule="evenodd"/>
<path d="M177.78,95.71c.06,3.46-.55,6.5-1.81,9.11-1.22,2.57-3.04,4.81-5.31,6.52-2.43,1.8-5.18,3.12-8.1,3.9-3.32,.91-6.74,1.38-10.18,1.41-4.61,.05-9.21-.31-13.75-1.06-2.36-.39-4.63-.93-6.82-1.64-2.1-.65-4.12-1.51-6.05-2.55-1.32-.67-1.64-1.7-.96-3.1l3-7.32c.42-.79,.84-1.29,1.28-1.51,.43-.23,1.12-.13,2.09,.28,3.16,1.42,6.65,2.5,10.49,3.25,3.84,.76,7.24,1.11,10.2,1.06,3.64-.07,6.37-.83,8.18-2.28,1.8-1.46,2.68-3.31,2.64-5.56-.04-2.51-1.25-4.48-3.63-5.91-2.37-1.43-5.92-2.96-10.64-4.61-3.19-1.08-6.33-2.33-9.39-3.73-2.67-1.24-4.89-2.66-6.66-4.23-1.7-1.48-3.08-3.29-4.07-5.32-.95-1.97-1.44-4.26-1.49-6.85-.08-2.7,.41-5.38,1.44-7.88,1.02-2.41,2.58-4.54,4.56-6.24,2.03-1.76,4.57-3.17,7.61-4.22,3.04-1.04,6.56-1.6,10.56-1.68,3.67-.06,7.34,.2,10.97,.78,3.66,.59,7.2,1.54,10.61,2.87,.7,.33,1.12,.76,1.26,1.28,.14,.6,.13,1.22-.04,1.82l-2.87,7.44c-.25,.7-.57,1.09-.96,1.19-.39,.09-.93,.01-1.64-.23-3.41-1.16-6.4-1.92-8.97-2.31-2.58-.39-5.34-.56-8.29-.5-3.22,.05-5.55,.77-7,2.13-1.45,1.37-2.17,2.87-2.14,4.52,.02,1.21,.28,2.24,.77,3.1,.49,.86,1.27,1.64,2.32,2.36,1.06,.71,2.44,1.45,4.15,2.2,1.71,.75,3.79,1.54,6.24,2.36,2.8,.99,5.53,2.04,8.21,3.17,2.67,1.12,5.04,2.49,7.11,4.09,2.07,1.61,3.76,3.53,5.06,5.76,1.3,2.23,1.98,4.94,2.03,8.14m47.61,19.03c-2.93,.93-5.96,1.49-9.03,1.67-3.01,.17-5.36,.26-7.04,.26-7.26,0-12.4-1.5-15.4-4.5-3.01-3-4.52-7.58-4.52-13.75l.35-36.48h-9.78c-.9,0-1.36-.22-1.73-.6-.37-.38-.56-.76-.39-1.39,.18-.62,2.6-6.8,2.6-6.8,.15-.23,.8-1.67,.96-1.88,.27-.34,.65-.58,1.7-.58h6.54v-12.44c0-1.7,.81-2,1.21-2.35,.4-.34,1.08-.68,2.06-1.03l9.51-2.56c.7-.17,1.28-.11,1.72,.19,.44,.3,.67,.92,.67,1.87v16.32h13.34c.97,0,1.57,.2,1.79,.58,.22,.39,.33,.88,.33,1.48v7c0,.77-.11,1.33-.33,1.67-.22,.34-.82,.52-1.79,.52h-13.35v34.55c0,2.74,.67,4.63,1.99,5.65,1.33,1.03,3.36,1.54,6.11,1.54,2.55-.03,5.1-.23,7.64-.58l2.32-.32c.88-.17,1.46-.15,1.72,.06,.27,.22,.44,.62,.53,1.22l1.46,8.22c.09,.52,.11,.97,.07,1.35-.04,.39-.46,.76-1.26,1.09Z" fill-rule="evenodd"/>
<path d="M250.92,113.75c0,1.3-.2,2.11-.6,2.43-.4,.32-2.05,.48-3.3,.48h-8.38c-.98,0-1.74-.19-2.28-.56-.53-.37-.8-1.16-.8-2.36V31.32c0-1.05,.23-2.85,.4-3.7,.26-1.24,.24-1.68,.88-2.47,.68-.85,1.72-1.43,3.11-1.74,.81-.18,1.23,0,2.27,0h25.47c4.46,0,8.53,.72,12.24,2.15,3.7,1.44,6.87,3.47,9.5,6.11,2.67,2.7,4.76,5.91,6.15,9.44,1.47,3.66,2.21,7.66,2.21,12,0,2.5-.38,5.48-1.14,8.96-.76,3.47-2.28,6.82-4.55,10.06-2.28,3.24-5.47,5.99-9.56,8.26-4.1,2.27-9.5,3.4-16.18,3.4h-15.43v29.97h0Zm30.84-64.66c-.49-1.85-1.34-3.54-2.54-5.07-1.2-1.52-2.88-2.79-5.01-3.81-2.14-1.02-4.86-1.52-8.16-1.52h-15.97v30.81h16.24c5.62,0,9.72-1.44,12.31-4.3,2.58-2.87,3.88-6.52,3.88-10.96,0-1.57-.25-3.28-.74-5.13h0Zm125.32,55.74c-1.22,2.57-3.04,4.8-5.31,6.52-2.43,1.8-5.18,3.12-8.1,3.9-3.32,.91-6.74,1.38-10.18,1.41-4.6,.05-9.2-.31-13.75-1.06-2.36-.39-4.64-.93-6.83-1.64-2.09-.65-4.12-1.51-6.05-2.55-1.32-.67-1.64-1.7-.96-3.1l3-7.32c.42-.79,.84-1.29,1.28-1.51,.43-.23,1.12-.13,2.09,.28,3.16,1.42,6.65,2.5,10.49,3.25,3.84,.76,7.24,1.11,10.19,1.06,3.65-.07,6.38-.83,8.18-2.28,1.8-1.46,2.68-3.31,2.64-5.56-.04-2.51-1.25-4.47-3.62-5.91-2.37-1.43-5.92-2.96-10.64-4.61-3.19-1.08-6.33-2.33-9.39-3.73-2.67-1.24-4.89-2.66-6.66-4.23-1.7-1.48-3.08-3.29-4.07-5.32-.95-1.97-1.44-4.26-1.49-6.85-.08-2.7,.41-5.38,1.44-7.88,1.02-2.41,2.58-4.54,4.56-6.24,2.03-1.76,4.57-3.17,7.61-4.22,3.04-1.04,6.56-1.6,10.56-1.68,3.67-.06,7.34,.2,10.97,.78,3.66,.59,7.2,1.54,10.61,2.87,.7,.33,1.12,.76,1.26,1.28,.14,.6,.13,1.22-.03,1.82l-2.87,7.44c-.24,.7-.57,1.09-.96,1.19-.39,.09-.93,.01-1.64-.23-3.41-1.16-6.4-1.92-8.97-2.31-2.57-.39-5.33-.56-8.29-.5-3.22,.05-5.55,.77-7,2.13-1.46,1.37-2.17,2.87-2.14,4.52,.02,1.21,.28,2.24,.77,3.1,.49,.86,1.27,1.64,2.32,2.36,1.06,.71,2.44,1.45,4.15,2.2,1.71,.75,3.79,1.54,6.24,2.36,2.8,.99,5.53,2.04,8.21,3.17,2.67,1.12,5.04,2.49,7.11,4.09,2.07,1.61,3.76,3.53,5.05,5.76,1.3,2.23,1.98,4.94,2.04,8.14,.06,3.46-.54,6.5-1.8,9.11h0Zm55.14-9.11c.06,3.46-.55,6.5-1.8,9.11-1.22,2.57-3.05,4.81-5.32,6.52-2.43,1.8-5.18,3.12-8.1,3.9-3.32,.91-6.74,1.38-10.18,1.41-4.6,.05-9.2-.31-13.75-1.06-2.31-.38-4.59-.93-6.83-1.64-2.09-.65-4.12-1.51-6.05-2.55-1.32-.67-1.64-1.7-.96-3.1l3-7.32c.42-.79,.84-1.29,1.28-1.51,.43-.23,1.12-.13,2.09,.28,3.16,1.42,6.65,2.5,10.49,3.25,3.84,.76,7.24,1.11,10.2,1.06,3.64-.07,6.37-.83,8.18-2.28,1.8-1.46,2.68-3.31,2.64-5.56-.04-2.51-1.25-4.47-3.63-5.91-2.37-1.43-5.92-2.96-10.64-4.61-3.19-1.08-6.33-2.33-9.39-3.73-2.67-1.24-4.89-2.66-6.66-4.23-1.7-1.48-3.08-3.29-4.07-5.32-.95-1.97-1.44-4.26-1.49-6.85-.08-2.7,.41-5.38,1.44-7.88,1.01-2.4,2.53-4.48,4.56-6.24,2.03-1.76,4.57-3.17,7.61-4.22,3.04-1.04,6.56-1.6,10.56-1.68,3.65-.06,7.31,.2,10.97,.78,3.66,.59,7.2,1.54,10.61,2.87,.7,.33,1.12,.76,1.26,1.28,.14,.6,.13,1.22-.04,1.82l-2.87,7.44c-.25,.7-.57,1.09-.96,1.19-.39,.09-.93,.01-1.64-.23-3.41-1.16-6.4-1.92-8.97-2.31-2.58-.39-5.34-.56-8.29-.5-3.21,.05-5.56,.77-7,2.13-1.45,1.37-2.17,2.87-2.14,4.52,.02,1.21,.28,2.24,.77,3.1,.49,.86,1.27,1.64,2.32,2.36,1.06,.71,2.44,1.45,4.15,2.2,1.71,.75,3.79,1.54,6.24,2.36,2.76,.98,5.5,2.04,8.2,3.17,2.67,1.12,5.04,2.49,7.11,4.09,2.07,1.61,3.76,3.53,5.06,5.76,1.3,2.23,1.98,4.94,2.03,8.14" fill="#d32d27" fill-rule="evenodd"/>
<path d="M115.56,107.84c0,2.08-.82,3.51-2.46,4.28-1.89,.87-3.94,1.6-6.13,2.2-2.2,.61-4.46,1.08-6.79,1.43-2.32,.34-4.63,.58-6.92,.71s-4.46,.2-6.52,.2c-5.69,0-10.4-.59-14.16-1.75-3.75-1.17-6.72-2.72-8.92-4.67-2.12-1.84-3.71-4.21-4.59-6.88-.87-2.7-1.31-5.53-1.29-8.37,0-3.03,.49-5.95,1.49-8.76,.99-2.82,2.66-5.36,4.84-7.4,2.24-2.12,5.15-3.83,8.72-5.12,3.57-1.3,7.95-1.95,13.12-1.95h14.48v-2.21c0-1.64-.17-3.16-.52-4.54-.34-1.37-1.03-2.62-2-3.64-1-1.04-2.36-1.84-4.08-2.4-1.72-.56-3.96-.84-6.72-.84-2.93,0-6.12,.26-9.56,.78-3.45,.52-6.25,1.12-8.4,1.82-.95,.25-1.64,.3-2.07,.12-.43-.17-.73-.65-.91-1.42l-1.81-7.4c-.35-1.38,.04-2.29,1.16-2.72,3.84-1.44,7.83-2.42,11.89-2.92,4.31-.56,8.35-.84,12.15-.84,8.96,0,15.53,1.99,19.72,5.97,4.18,3.98,6.27,9.78,6.27,17.39v38.93h0Zm-15.25-24.53h-12.41c-1.47,0-3.04,.09-4.72,.26s-3.28,.65-4.78,1.42c-1.51,.78-2.76,1.91-3.75,3.38-.99,1.47-1.48,3.5-1.48,6.1,0,3.72,1.24,6.32,3.75,7.79,2.5,1.47,5.82,2.2,9.96,2.2,.6,0,1.44-.02,2.52-.06,1.15-.05,2.29-.16,3.42-.32,1.21-.17,2.48-.39,3.81-.65s2.56-.6,3.69-1.04v-19.08h0Z" fill-rule="evenodd"/>
<path d="m631.11 45.56c0-2.45 1.97-4.44 4.44-4.44s4.44 2.02 4.44 4.44v66.66c0 2.45-1.97 4.44-4.44 4.44s-4.44-2.02-4.44-4.44v-66.66z" fill="#d32d27" fill-rule="evenodd"/>
<circle cx="497.78" cy="81.11" r="13.33" fill="#d32d27"/>
<circle cx="546.67" cy="81.11" r="13.33" fill="#d32d27"/>
<circle cx="595.56" cy="81.11" r="13.33" fill="#d32d27"/>
<style>.89ca4853cbf8debe436fa27f41e5683f{height:37px}</style>
</svg>
