<?xml version="1.0" encoding="UTF-8"?>
<svg version="1.1" viewBox="0 0 232 67" xmlns="http://www.w3.org/2000/svg">
<path transform="translate(0)" d="m0 0h232v67h-232v-67z" fill="#FCFCFC"/>
<path transform="translate(46,5)" d="m0 0h20v60c-3.2789 1.6395-6.9061 1.1203-10.508 1.0977-1.2609-0.0021224-1.2609-0.0021224-2.5473-0.0042877-2.69-0.0056062-5.3799-0.01816-8.0699-0.030869-1.8216-0.0050142-3.6432-0.0095772-5.4648-0.013672-4.4701-0.011037-8.9401-0.028306-13.41-0.048828 0.65154-2.7065 1.4008-5.3512 2.2593-7.999 0.25051-0.77471 0.50102-1.5494 0.75912-2.3476 0.26979-0.82921 0.53957-1.6584 0.81754-2.5128 0.28002-0.86321 0.56004-1.7264 0.84854-2.6158 0.59277-1.8259 1.1862-3.6515 1.7804-5.477 0.90208-2.773 1.8008-5.5471 2.6992-8.3213 0.57792-1.7787 1.156-3.5574 1.7344-5.3359 0.26574-0.82111 0.53148-1.6422 0.80527-2.4882 1.1977-3.6717 2.4309-7.3162 3.8026-10.927 1.6098-4.2848 3.0462-8.6333 4.4937-12.976z" fill="#4D56FB"/>
<path transform="translate(5,5)" d="m0 0h19c1.9958 4.946 3.9816 9.8951 5.9414 14.855 1.1437 2.8887 2.3203 5.7316 3.5859 8.5703 2.9945 6.9669 2.1829 10.668-0.52734 17.574-0.89012 2.7808-1.7218 5.579-2.5625 8.375-1.2223 4.031-2.4874 7.8791-4.4375 11.625-3.3125 0.028881-6.6249 0.046758-9.9375 0.0625-0.94553 0.0083789-1.8911 0.016758-2.8652 0.025391-1.3487 0.004834-1.3487 0.004834-2.7246 0.0097656-1.249 0.0078552-1.249 0.0078552-2.5232 0.015869-1.9495-0.11353-1.9495-0.11353-2.9495-1.1135-0.093864-1.8718-0.11744-3.7472-0.11353-5.6213 7.553e-5 -1.2012 1.5106e-4 -2.4023 2.2888e-4 -3.6399 0.0051613-1.3073 0.010323-2.6145 0.01564-3.9614 0.0018643-1.3438 0.0032881-2.6876 0.0042877-4.0314 0.0038245-3.5428 0.013654-7.0856 0.024704-10.628 0.010216-3.6128 0.014794-7.2255 0.019836-10.838 0.010736-7.0931 0.028332-14.186 0.048828-21.279z" fill="#FDA749"/>
<path transform="translate(90,18)" d="m0 0c10 0 10 0 12.656 2.4062l1.8438 3.0938c1.1399 1.8501 2.3 3.6883 3.5 5.5h2c1.5735-2.8259 3.033-5.6935 4.4648-8.5938 2.5352-2.4062 2.5352-2.4062 13.535-2.4062v36h-9l-1-20-8 12c-5.4138-2.7069-6.8033-5.9144-10-11l-1 19h-9v-36z" fill="#202B3D"/>
<path transform="translate(172.69 28.312)" d="m0 0c1.1814 0.14889 1.1814 0.14889 2.3867 0.30078 1.9258 0.38672 1.9258 0.38672 2.9258 1.3867l1-2h9c0.08739 4.3749 0.14052 8.7495 0.1875 13.125 0.025137 1.2375 0.050273 2.475 0.076172 3.75 0.009668 1.1988 0.019336 2.3977 0.029297 3.6328 0.01571 1.0997 0.031421 2.1995 0.047607 3.3325-0.52047 4.8286-2.2897 8.0804-5.6531 11.535-5.048 3.0749-12.041 2.2282-17.688 1.625l-3-2c0.875-5.75 0.875-5.75 2-8l1.5 0.5c3.5981 0.71962 6.8254 0.6778 10.5 0.5l2-2v-3c-0.56848 0.33-1.137 0.66-1.7227 1-3.8385 1.6855-7.3209 1.1757-11.277 0-3.4188-2.7211-4.6656-4.1579-5.4375-8.4102-0.27218-5.6392 0.55026-9.2707 4.4375-13.59 3.0905-1.9667 5.0871-2.1814 8.6875-1.6875z" fill="#242F41"/>
<path transform="translate(5,7)" d="m0 0c1.6463 2.4695 2.5322 4.1873 3.4805 6.9172 0.27368 0.78124 0.54737 1.5625 0.82935 2.3674 0.28964 0.84064 0.57927 1.6813 0.87769 2.5474 0.30317 0.86937 0.60634 1.7387 0.9187 2.6344 0.96857 2.7806 1.9312 5.5633 2.8938 8.346 0.64806 1.8628 1.2965 3.7254 1.9453 5.5879 4.9207 14.142 4.9207 14.142 7.0547 20.6l2.875-2.5c2.875-2.5 2.875-2.5 5.125-2.5-0.45295 1.7514-0.91259 3.5011-1.375 5.25-0.38285 1.4618-0.38285 1.4618-0.77344 2.9531-0.75054 2.4651-1.6712 4.5213-2.8516 6.7969-3.3125 0.028881-6.6249 0.046758-9.9375 0.0625-0.94553 0.0083789-1.8911 0.016758-2.8652 0.025391-1.3487 0.004834-1.3487 0.004834-2.7246 0.0097656-1.249 0.0078552-1.249 0.0078552-2.5232 0.015869-1.9495-0.11353-1.9495-0.11353-2.9495-1.1135-0.093761-1.8106-0.11744-3.6248-0.11353-5.4377 7.553e-5 -1.1611 1.5106e-4 -2.3223 2.2888e-4 -3.5186 0.0051613-1.2635 0.010323-2.527 0.01564-3.8288 0.001415-1.286 0.0028299-2.5719 0.0042877-3.8968 0.0038244-3.4244 0.013654-6.8488 0.024704-10.273 0.010216-3.4921 0.014794-6.9842 0.019836-10.476 0.010736-6.8561 0.027811-13.712 0.048828-20.568z" fill="#F11F51"/>
<path transform="translate(65,5)" d="m0 0h1v60c-3.3099 1.655-6.9912 1.1008-10.625 1.0625-0.8018-0.0045117-1.6036-0.0090234-2.4297-0.013672-1.9818-0.011796-3.9636-0.029732-5.9453-0.048828 1.7693-7.9871 4.1021-15.765 6.5625-23.562 0.45742-1.464 0.45742-1.464 0.92407-2.9575 0.29447-0.92281 0.58894-1.8456 0.89233-2.7964 0.26369-0.82959 0.52739-1.6592 0.79907-2.5139 0.82202-2.1697 0.82202-2.1697 2.822-5.1697 0.24508-1.9277 0.48568-3.8563 0.68701-5.7891 0.52401-3.7016 1.7052-7.1705 2.8755-10.711 0.35095-1.0905 0.35095-1.0905 0.70898-2.2031 0.56984-1.7677 1.1483-3.5326 1.7285-5.2969z" fill="#01A5FB"/>
<path transform="translate(148,28)" d="m0 0c3.4548 1.2156 5.3463 2.1964 7.6523 5.0312 1.8835 4.1492 1.6735 7.786 1.5352 12.281-0.020303 1.2539-0.020303 1.2539-0.041016 2.5332-0.035172 2.0517-0.088974 4.1031-0.14648 6.1543-0.77086-0.011602-1.5417-0.023203-2.3359-0.035156-1.0029-0.0090234-2.0058-0.018047-3.0391-0.027344-1.4966-0.017402-1.4966-0.017402-3.0234-0.035156-2.5859-0.08241-2.5859-0.08241-4.6016 1.0977-4.6479 0.41314-7.2444-0.21013-11-3-1.4443-2.8886-1.3769-4.7965-1-8 1.8125-2.875 1.8125-2.875 5-5 3.7052-0.41111 7.2888-0.29248 11 0l-2-3-3.6875 0.625c-3.6606 0.47464-5.9886 0.14081-9.3125-1.625 2.9753-7.1903 7.8146-7.9106 15-7z" fill="#252F41"/>
<path transform="translate(209,28)" d="m0 0c3.1258 1.6721 5.3928 3.7856 7 7 0.083422 1.4485 0.10733 2.9007 0.097656 4.3516-0.0032227 0.85078-0.0064453 1.7016-0.0097656 2.5781-0.0083789 0.88945-0.016758 1.7789-0.025391 2.6953-0.0045117 0.89719-0.0090234 1.7944-0.013672 2.7188-0.011802 2.2188-0.028267 4.4375-0.048828 6.6562h-10c-0.65613 0.11859-1.3123 0.23719-1.9883 0.35938-4.0235 0.67621-6.3055 0.97214-10.074-0.79688-2.3306-3.0824-2.6329-4.8667-2.3359-8.6562 0.39844-1.9062 0.39844-1.9062 1.7109-4.4062 4.3315-2.4176 8.8375-1.801 13.688-1.5l-2-3-3.6875 0.625c-3.6606 0.47464-5.9886 0.14081-9.3125-1.625 5.2453-6.4876 8.3923-8.2127 17-7z" fill="#242E40"/>
<path transform="translate(65,5)" d="m0 0h1v60h-1l-1-33c-3.6437 4.294-3.6437 4.294-5.3125 8.875-2.1211 7.0188-5.5176 13.533-8.6875 20.125-1.1917-3.5751-0.71181-4.8018 0.32812-8.3672 0.30551-1.0506 0.61102-2.1012 0.92578-3.1836 0.49307-1.6455 0.49307-1.6455 0.99609-3.3242 0.31324-1.0893 0.62648-2.1785 0.94922-3.3008 2.4149-8.1868 2.4149-8.1868 4.384-11.44 1.6318-2.7461 1.8441-5.0987 2.1389-8.2437 0.47786-3.6818 1.6786-7.126 2.8403-10.641 0.35095-1.0905 0.35095-1.0905 0.70898-2.2031 0.56984-1.7677 1.1483-3.5326 1.7285-5.2969z" fill="#1194FB"/>
<path transform="translate(221,28)" d="m0 0h9v26h-9v-26z" fill="#283344"/>
<path transform="translate(65,5)" d="m0 0h1v60h-1l-1-42-1 3c-0.99 0.33-1.98 0.66-3 1-1.3495-2.6989-0.66875-3.7212 0.21484-6.5703 0.27393-0.8959 0.54785-1.7918 0.83008-2.7148 0.44183-1.4057 0.44183-1.4057 0.89258-2.8398 0.29068-0.94488 0.58137-1.8898 0.88086-2.8633 0.72071-2.3393 1.4482-4.6764 2.1816-7.0117z" fill="#4193FC"/>
<path transform="translate(225.44 15.688)" d="m0 0c2.5625 0.3125 2.5625 0.3125 4.4375 1.5 1.125 1.8125 1.125 1.8125 0.9375 4.375-0.8125 2.4375-0.8125 2.4375-2.8125 4.4375-2.5 0.25-2.5 0.25-5 0-2-2-2-2-2.25-5 0.31075-3.729 0.9054-4.8276 4.6875-5.3125z" fill="#273243"/>
<path transform="translate(172,36)" d="m0 0c4.7059 0.70588 4.7059 0.70588 6 2 0.125 3 0.125 3 0 6-1 1-1 1-3.4375 1.1875-2.5625-0.1875-2.5625-0.1875-4.5625-2.1875 0.56818-5.5682 0.56818-5.5682 2-7z" fill="#ECEDEE"/>
<path transform="translate(64,21)" d="m0 0c0.94697 2.5568 1.0451 3.836 0.3125 6.5-1.3125 2.5-1.3125 2.5-3.3125 4.3125-2.4373 2.6658-2.7766 4.687-3.4961 8.1484-0.72079 2.9167-2.0627 5.4187-3.5039 8.0391-2.0404-5.5024 0.91983-10.851 3-16 1.1884-2.3087 2.3267-3.992 4-6h2l1-5z" fill="#2281FB"/>
<path transform="translate(31,51)" d="m0 0c-0.42611 1.7528-0.86639 3.5022-1.3125 5.25-0.24363 0.97453-0.48727 1.9491-0.73828 2.9531-0.94574 2.7866-2.0563 4.5699-3.9492 6.7969-1.1088-3.0058-1.9268-5.7834-2-9 1.7976-3.0683 4.2751-6 8-6z" fill="#E26468"/>
<path transform="translate(32,43)" d="m0 0c1 3 1 3 0.5625 5.3125-2.3152 3.9822-5.7946 6.1376-9.5625 8.6875 0-3.9389 1.2874-4.7355 3.9375-7.5625 2.8695-2.9838 2.8695-2.9838 5.0625-6.4375z" fill="#F07251"/>
<path transform="translate(29,57)" d="m0 0-3 9c-2-4-2-4-2-7 3-2 3-2 5-2z" fill="#D55381"/>
<path transform="translate(202,44)" d="m0 0h5l-1 4h-5l1-4z" fill="#E2E4E6"/>
<path transform="translate(143,44)" d="m0 0h5l-1 4h-5l1-4z" fill="#E1E2E4"/>
<path transform="translate(143,35)" d="m0 0c1.9375 0.3125 1.9375 0.3125 4 1l1 3h-7l2-4z" fill="#EAEBEC"/>
<style>.6560a7a44fcca71e8afd9ad7e3e373a9{height:69px}</style>
</svg>
