<?xml version="1.0" encoding="UTF-8"?>
<svg viewBox="0 0 400 124" xmlns="http://www.w3.org/2000/svg">
<path d="m104 0h-84c-11.046 0-20 8.9543-20 20v84c0 11.046 8.9543 20 20 20h84c11.046 0 20-8.954 20-20v-84c0-11.046-8.954-20-20-20z" fill="#FFD02F"/>
<path d="m84 20h-12l10 18-22-18h-12l11 22-23-22h-12l12 28-12 56h12l23-60-11 60h12l22-64-10 64h12l22-70-22-14z" clip-rule="evenodd" fill="#050038" fill-rule="evenodd"/>
<path d="m368 28c20 0 32 14.93 32 34 0 19-12 34-32 34s-32-14.93-32-34 12-34 32-34zm-90 4v62h-14v-60l14-2zm52-2v14l-8 1c-7 1-12 5-12 12.96v36.04h-14v-36.04c0-17.12 10-24.96 26-26.96l8-1zm-140 0c6 0 12.204 2.4795 16 8 3.81-5.0272 10-8 18-8 10 0 22 6 22 26v38h-14v-38c0-7-4.36-12-11-12s-11 5-11 12v38h-14v-38c0-7-4.361-12-11-12-6.758 0-11 5-11 12v38h-14v-60l14-2v6c3.912-4.8095 8-8 16-8zm178 12c-12 0-18 8.9562-18 20 0 11.044 6 20 18 20s18-9 18-20c0-11.03-6-20-18-20zm-97-36c5 0 9 3 9 9s-4 9-9 9-9-3-9-9c0-6 4-9 9-9z" clip-rule="evenodd" fill="#050038" fill-rule="evenodd"/>
<style>.ebbaedb359bd10b3267cd7ea445749e3{height:18px}</style>
</svg>
