<?xml version="1.0" encoding="UTF-8"?>
<svg fill="none" viewBox="6 21.3 386.77 98.03" xmlns="http://www.w3.org/2000/svg">
<path d="m102.54 66.418c0.133 1.8932-1.418 3.4338-3.3157 3.4338l-41.46 7e-4c-1.8979 1e-4 -3.449 1.5407-3.3155 3.4339 0.7058 10.003 4.4819 19.574 10.85 27.369 7.094 8.684 16.966 14.628 27.933 16.819 10.968 2.192 22.352 0.495 32.214-4.8s17.591-13.862 21.87-24.24 4.844-21.926 1.598-32.676-10.102-20.036-19.4-26.277c-9.297-6.241-20.462-9.0502-31.59-7.9492-3.3244 0.329-6.5842 1.0007-9.732 1.993-3.228 1.0089-6.3392 2.3545-9.2826 4.0126-0.1759 0.0991-0.3512 0.1993-0.526 0.3007 7.4082 4.2968 13.59 10.518 17.86 18.068l0.0134-0.2064c0.0326 0.0572 0.0651 0.1144 0.0975 0.1716 3.586 6.3423 5.6788 13.368 6.1858 20.546z" fill="#00A0A0"/>
<ellipse cx="54.334" cy="69.853" rx="48.334" ry="48.555" fill="#fff"/>
<ellipse cx="54.334" cy="69.853" rx="48.334" ry="48.555" fill="url(#b)"/>
<path d="m78.509 111.91c14.443-8.397 24.159-24.086 24.159-42.055 0.041-1.9609-0.123-3.4348-0.123-3.4348 0.092 1.8792-1.418 3.4337-3.3157 3.4338l-41.46 7e-4c-1.8979 0-3.449 1.5407-3.3155 3.4338 0.7058 10.003 4.4819 19.574 10.85 27.369 3.719 4.553 8.2015 8.352 13.205 11.253z" fill="url(#a)"/>
<path d="m305.14 35.728c3.829 0 7.089 1.7594 8.849 4.3985v-13.403h8.9v38.293h-8.9v-4.1399c-1.553 2.6392-4.606 4.5538-8.901 4.5538-7.089 0-12.678-5.7957-12.678-14.903s5.589-14.8 12.73-14.8zm-3.726 14.8c0 4.6055 2.95 7.1929 6.313 7.1929 3.364 0 6.313-2.5356 6.313-7.1412 0-4.6055-2.949-7.1411-6.313-7.1411-3.363 0-6.313 2.4838-6.313 7.0894zm46.945-10.298c-1.553-2.5356-4.606-4.502-8.952-4.502-7.09 0-12.679 5.6922-12.679 14.8s5.589 14.903 12.679 14.903c4.295 0 7.348-1.9664 8.952-4.502v4.0881h8.849v-28.875h-8.849v4.0881zm-6.313 17.491c-3.364 0-6.314-2.5874-6.314-7.1929 0-4.6056 2.95-7.0894 6.314-7.0894 3.363 0 6.313 2.5356 6.313 7.1411 0 4.6056-2.95 7.1412-6.313 7.1412zm24.331 17.594 5.33-12.212-11.695-26.961h9.832l6.675 17.439 6.831-17.439h9.418l-16.87 39.173h-9.521zm-159.12 19.174c-1.759-7.1929-7.969-12.057-16.818-12.057-9.729 0-17.439 7.6069-17.439 18.474 0 10.867 7.71 18.423 17.439 18.423 8.849 0 15.059-4.865 16.818-12.006h-3.829c-1.605 5.123-6.365 8.849-12.989 8.849-7.659 0-13.713-5.848-13.713-15.266 0-9.4695 6.054-15.317 13.713-15.317 6.624 0 11.384 3.7776 12.989 8.9006h3.829zm17.956-8.5901h-8.176v15.058h8.228c5.951 0 8.539-3.2083 8.539-7.6068 0-4.5538-2.484-7.4517-8.591-7.4517zm-11.798 33.118v-36.172h12.626c7.556 0 11.488 4.1398 11.488 10.505 0 5.1748-2.949 9.5218-9.676 10.401l10.66 15.266h-4.347l-10.35-15.11h-6.779v15.11h-3.622zm29.512-35.706h3.83l13.816 30.945 13.817-30.945h3.881v35.706h-3.622v-28.513l-12.73 28.513h-2.639l-12.73-28.409v28.409h-3.623v-35.706zm31.459-40.08c3.312 0 5.537 2.1734 5.537 6.1062v15.68h8.798v-16.87c0-7.7622-4.451-12.316-11.178-12.316-3.881 0-6.986 1.7077-8.745 4.1916v-3.8811h-8.849v28.875h8.849v-15.68c0-3.9328 2.173-6.1062 5.588-6.1062zm-33.389 22.458c-8.487 0-14.852-5.6923-14.852-15.11 0-9.418 6.52-15.11 15.007-15.11 8.486 0 15.007 5.6923 15.007 15.11 0 9.4181-6.624 15.11-15.162 15.11zm-5.9-15.11c0 4.8643 2.743 7.193 5.9 7.193 3.156 0 6.158-2.3287 6.158-7.193 0-4.916-2.95-7.1929-6.055-7.1929-3.157 0-6.003 2.2769-6.003 7.1929zm-52.472-14.438h-8.849v28.875h8.849v-15.68c0-3.7776 2.174-5.8475 5.589-5.8475 3.312 0 5.537 2.0699 5.537 5.8475v15.68h8.797v-15.68c0-3.7776 2.122-5.8475 5.537-5.8475 3.312 0 5.537 2.0699 5.537 5.8475v15.68h8.797v-16.87c0-7.7622-4.605-12.316-11.747-12.316-4.243 0-7.814 2.3287-9.728 5.3818-1.967-3.4671-5.485-5.3818-9.884-5.3818-3.726 0-6.727 1.6042-8.435 3.9846v-3.6741z" clip-rule="evenodd" fill="#000" fill-rule="evenodd"/>
<defs>
<linearGradient id="b" x1="20.719" x2="102.82" y1="40.705" y2="82.477" gradientUnits="userSpaceOnUse">
<stop stop-color="#00D2D2" offset="0"/>
<stop stop-color="#00D2D2" stop-opacity=".29" offset="1"/>
</linearGradient>
<linearGradient id="a" x1="107.91" x2="31.019" y1="94.91" y2="78.962" gradientUnits="userSpaceOnUse">
<stop stop-color="#00A0A0" offset="0"/>
<stop stop-color="#00D2D2" offset="1"/>
</linearGradient>
</defs>
<style>.e1356f47f3c56e4e4890560c35dd3cbc{height:67px}</style>
</svg>
