<?xml version="1.0" encoding="UTF-8"?>
<svg class="jsx-2259896579 jsx-261554344" width="467.01" height="85" version="1.1" viewBox="0 0 467.01 46.548" xmlns="http://www.w3.org/2000/svg">
<g transform="matrix(3.6957 0 0 3.6957 -.00037266 -19.226)" fill="none" fill-rule="evenodd">
<g transform="translate(0,5.552)" fill-rule="nonzero">
<path d="m2.62 12.627a2.63 2.63 0 0 1-2.292-1.33 2.543 2.543 0 0 1 0.072-2.618l4.72-7.412a2.632 2.632 0 0 1 2.33-1.266 2.627 2.627 0 0 1 2.255 1.39c0.44 0.832 0.385 1.833-0.142 2.614l-4.717 7.412a2.631 2.631 0 0 1-2.226 1.21z" fill="#f62b54"/>
<path d="m10.716 12.627c-0.952 0-1.828-0.509-2.288-1.327a2.535 2.535 0 0 1 0.072-2.611l4.711-7.395a2.628 2.628 0 0 1 2.332-1.293c0.96 0.021 1.83 0.558 2.27 1.398 0.437 0.84 0.373 1.847-0.17 2.626l-4.71 7.395a2.627 2.627 0 0 1-2.217 1.207z" fill="#fc0"/>
<ellipse cx="18.631" cy="10.31" rx="2.43" ry="2.379" fill="#00ca72"/>
</g>
<path d="m124.2 13.621c0.734 0 1.173 0.522 1.173 1.377v2.93h0.997v-2.997c0-1.454-0.685-2.297-1.973-2.297-0.504 0-1.304 0.138-1.781 1.065a1.633 1.633 0 0 0-1.337-1.01 2.3 2.3 0 0 0-0.56-0.033c-0.41 0.033-1.14 0.288-1.413 0.866v-0.777h-0.998v5.183h0.998v-2.797c0-1.088 0.712-1.51 1.425-1.51 0.668 0 1.107 0.511 1.107 1.366v2.941h0.992v-2.797c0-0.866 0.52-1.52 1.37-1.51zm-9.555 3.441c0.456 0.01 0.896-0.172 1.215-0.502 0.32-0.33 0.49-0.779 0.473-1.24 0-1.044-0.768-1.699-1.688-1.699-0.921 0-1.688 0.655-1.688 1.699-0.018 0.46 0.152 0.908 0.47 1.237 0.318 0.33 0.756 0.513 1.21 0.505zm0 0.972c-1.458 0-2.675-1.077-2.675-2.72s1.217-2.686 2.675-2.686 2.685 1.043 2.685 2.686-1.234 2.725-2.692 2.725zm-7.81-2.72-0.01 6e-3c0-1.643 1.249-2.686 2.717-2.692a2.635 2.635 0 0 1 1.973 0.832l-0.756 0.644a1.704 1.704 0 0 0-1.217-0.488c-0.92 0-1.72 0.655-1.72 1.698 0 0.705 0.419 1.34 1.062 1.61s1.383 0.12 1.875-0.378l0.767 0.644a2.651 2.651 0 0 1-1.984 0.844c-1.457 0-2.707-1.077-2.707-2.72zm-3.193 1.619a0.69 0.69 0 0 1 0.682-0.698 0.69 0.69 0 0 1 0.682 0.698 0.69 0.69 0 0 1-0.682 0.655 0.69 0.69 0 0 1-0.682-0.655z" fill="#333" fill-rule="nonzero"/>
<path d="m106.37 6.156h-3.551l-2.489 6.417-2.476-6.417h-3.551l4.317 10.14-2.685 6.704h3.525zm-21.596 5.64c0 1.62 1.416 2.686 2.807 2.686 1.367 0 2.71-0.992 2.71-2.687s-1.343-2.688-2.71-2.688c-1.391 0-2.807 1.067-2.807 2.688zm5.517 5.662v-1.283c-0.72 1.09-2.4 1.502-3.262 1.502-2.854 0-5.709-2.25-5.709-5.882 0-3.631 2.854-5.881 5.709-5.881 0.719 0 2.399 0.24 3.262 1.5v-1.254h3.31v11.3l-3.31-1e-3zm-9.913 0h-3.31v-1.404c-0.553 1.04-1.894 1.646-3.286 1.646-2.879 0-5.422-2.299-5.422-5.859 0-3.627 2.543-5.929 5.422-5.929 1.39 0 2.735 0.58 3.286 1.621v-7.533h3.31zm-3.382-5.688c0-1.694-1.223-2.687-2.59-2.687-1.416 0-2.592 1.065-2.592 2.687 0 1.674 1.176 2.734 2.591 2.734 1.393 2e-3 2.591-1.112 2.591-2.734zm-16.82-0.292c0-1.718 0.888-2.299 2.063-2.299 1.127 0 1.943 0.75 1.943 2.25v6.027h3.334v-6.752c0-3.218-1.584-4.792-4.103-4.792-1.319 0-2.638 0.75-3.238 1.888v-1.644h-3.332v11.3h3.333zm-10.103 6.172c-3.166 0-5.807-2.323-5.807-5.881 0-3.56 2.638-5.86 5.807-5.86s5.83 2.3 5.83 5.86-2.664 5.882-5.83 5.882zm0-3.29c1.39 0 2.543-1.018 2.543-2.59 0-1.525-1.152-2.566-2.543-2.566a2.468 2.468 0 0 0-1.802 0.741 2.513 2.513 0 0 0-0.717 1.825c1e-3 1.574 1.152 2.59 2.519 2.59zm-11.784-5.18c0.983 0 1.847 0.775 1.847 2.25v6.028h3.31v-6.418c0-3.412-1.659-5.13-4.318-5.13-0.79 0-2.278 0.24-3.358 2.008-0.624-1.307-1.823-1.985-3.595-1.985a3.203 3.203 0 0 0-2.926 1.864v-1.64h-3.336v11.3h3.333v-5.979c0-1.718 0.936-2.299 1.943-2.299 0.96 0 1.822 0.75 1.847 2.178v6.1h3.334v-5.979c0-1.643 0.864-2.297 1.919-2.297z" fill="#333"/>
</g>
<style>.e67e7236a700d5c006680ae3cff86e59{height:83px}</style>
</svg>
