<?xml version="1.0" encoding="UTF-8"?>
<svg fill="none" viewBox=".56 .1 397.48 104.31" xmlns="http://www.w3.org/2000/svg">
<path d="m179.05 21.125v28.875h8.849v-15.68c0-3.7775 2.173-5.8474 5.589-5.8474 3.312 0 5.537 2.0699 5.537 5.8474v15.68h8.797v-15.68c0-3.7775 2.121-5.8474 5.537-5.8474 3.312 0 5.537 2.0699 5.537 5.8474v15.68h8.797v-16.87c0-7.7622-4.606-12.316-11.747-12.316-4.243 0-7.814 2.3286-9.728 5.3818-1.967-3.4671-5.486-5.3818-9.884-5.3818-3.726 0-6.727 1.6042-8.435 3.9846v-3.6741h-8.849zm67.22 29.548c8.539 0 15.163-5.6922 15.163-15.11s-6.521-15.11-15.007-15.11c-8.487 0-15.007 5.6922-15.007 15.11s6.365 15.11 14.851 15.11zm-5.899-15.11c0-4.916 2.846-7.1929 6.003-7.1929 3.105 0 6.054 2.2769 6.054 7.1929 0 4.8643-3.001 7.1929-6.158 7.1929-3.156 0-5.899-2.3286-5.899-7.1929zm44.826-1.242v15.68h8.797v-16.87c0-7.7622-4.45-12.316-11.177-12.316-3.881 0-6.986 1.7077-8.745 4.1916v-3.8811h-8.849v28.875h8.849v-15.68c0-3.9328 2.173-6.1062 5.588-6.1062 3.312 0 5.537 2.1734 5.537 6.1062zm25.214-13.61c-7.141 0-12.73 5.6922-12.73 14.8s5.589 14.903 12.678 14.903c4.295 0 7.348-1.9147 8.901-4.5538v4.1398h8.9v-38.293h-8.9v13.403c-1.76-2.6392-5.02-4.3986-8.849-4.3986zm-3.726 14.8c0-4.6055 2.949-7.0894 6.313-7.0894s6.313 2.5356 6.313 7.1412c0 4.6055-2.949 7.1412-6.313 7.1412s-6.313-2.5874-6.313-7.193zm37.992-14.8c-7.089 0-12.678 5.6922-12.678 14.8s5.589 14.903 12.678 14.903c4.296 0 7.349-1.9664 8.953-4.5021v4.0881h8.849v-28.875h-8.849v4.0881c-1.553-2.5357-4.606-4.5021-8.953-4.5021zm-3.674 14.8c0-4.6055 2.95-7.0894 6.314-7.0894 3.363 0 6.313 2.5356 6.313 7.1412 0 4.6055-2.95 7.1412-6.313 7.1412-3.364 0-6.314-2.5874-6.314-7.193zm30.645 24.787h9.521l16.87-39.173h-9.418l-6.831 17.439-6.675-17.439h-9.832l11.695 26.96-5.33 12.212zm-179.82 15.034c-7.762 0-13.558 5.8475-13.558 14.489 0 8.5901 5.796 14.593 13.506 14.593 5.641 0 9.573-3.001 11.178-6.7272v6.3132h3.622v-38.293h-3.622v16.145c-1.812-3.7258-6.003-6.5202-11.126-6.5202zm-9.832 14.489c0-6.9859 4.657-11.333 10.453-11.333 5.847 0 10.505 4.4503 10.505 11.384s-4.658 11.384-10.505 11.384c-5.796 0-10.453-4.5017-10.453-11.436zm54.284-2.3286h-19.716c0.673-5.3818 4.657-9.0559 9.987-9.0559s9.522 3.8811 9.729 9.0559zm-23.545 2.3804c0 8.5383 5.847 14.541 14.127 14.541 6.21 0 11.384-3.622 12.885-9.1076h-3.881c-1.087 3.5706-4.657 6.0546-9.004 6.0546-6.106 0-10.401-4.4504-10.401-10.712v-0.0518h23.389c0.104-0.7244 0.156-1.1902 0.156-1.7594 0-7.7621-5.589-13.506-13.144-13.506-8.28 0-14.127 6.0027-14.127 14.541zm33.257-14.127h-3.881l11.333 28.254h4.088l11.332-28.254h-3.829l-9.522 24.735-9.521-24.735z" fill="#000"/>
<path d="m16 88.687h57.335c20.204 0 36.572-16.368 36.572-36.572s-16.368-36.572-36.572-36.572" stroke="url(#a)" stroke-linecap="round" stroke-linejoin="round" stroke-width="30.878"/>
<path d="m74.182 30.981c8.5267 0 15.439-6.9123 15.439-15.439s-6.9123-15.439-15.439-15.439v30.878zm47.937 73.145h15.439v-30.878h-15.439v30.878zm-47.937-104.02c-28.731 0-52.012 23.281-52.012 52.012h30.878c0-11.677 9.4562-21.134 21.134-21.134v-30.878zm-52.012 52.012c0 28.731 23.281 52.012 52.012 52.012v-30.878c-11.677 0-21.134-9.4562-21.134-21.134h-30.878zm52.012 52.012h47.937v-30.878h-47.937v30.878z" fill="#00CA72"/>
<path d="m151.27 85.008c2.058 2.0471 2.058 5.3783 0 7.4254l-10.246 10.189c-3.303 3.284-8.929 0.945-8.929-3.7126v-20.379c0-4.6578 5.626-6.9971 8.929-3.7127l10.246 10.189z" fill="#00CA72"/>
<defs>
<linearGradient id="a" x1="95.17" x2="85.902" y1="34.942" y2="78.038" gradientUnits="userSpaceOnUse">
<stop stop-color="#00CA72" offset="0"/>
<stop stop-color="#00CA72" stop-opacity=".6" offset=".90596"/>
</linearGradient>
</defs>
<style>.164ad3522133257cb723976c57a119c2{height:89px}</style>
<style>.976fabab131502288e348242b5dff4fc{height:64px}</style>
</svg>
