<?xml version="1.0" encoding="UTF-8"?>
<svg version="1.1" viewBox="0 0 640 140" xmlns="http://www.w3.org/2000/svg">
<path d="M613.13,26.42c-1.38,6.98-6.74,11.41-10.82,16.6-9.34,11.87-18.9,23.58-28.41,35.32-.74,.92-1,1.81-1,2.95,.03,12.14,.1,24.28,0,36.42-.08,9.11-4.58,15.89-12.66,19.48-14.82,6.59-30.27-4.49-30.54-18.8-.23-12.2-.09-24.41-.04-36.62,0-1.6-.45-2.83-1.44-4.04-11.25-13.92-22.31-27.98-33.74-41.75-6.15-7.41-6.4-15.09-2.4-23.25,6.55-13.35,22.47-16.1,33.62-5.97,5.05,4.59,8.84,10.26,13.18,15.45,3.74,4.47,7.36,9.04,10.94,13.64,.98,1.26,1.44,1.09,2.34-.03,6.77-8.38,13.58-16.73,20.43-25.04,3.68-4.47,8.01-8.11,13.79-9.57,10.59-2.67,21.83,3.82,25.5,14.67,.45,1.33,.83,2.68,1.25,4.02v6.51Z" fill="#43b9f1"/>
<path d="M162.34,73.26c-7.12-.75-13.33,1.78-18.48,7.38-2.88,3.13-5.76,6.31-9.21,8.88-10.23,7.61-25.6,7.13-35.3-1.16-.99-.85-2.05-1.56-3.24-2.06-3.81-1.6-7.36,.13-8.3,4.14-2.14,9.09-4.48,18.15-6.24,27.31-2.32,12.07-13.31,20.66-24.97,21.44-8.86,.6-16.85-1.54-23.05-8.29-5.81-6.33-7.93-13.86-5.94-22.22,5.15-21.59,10.49-43.14,15.76-64.7,1.7-6.97,3.5-13.91,5.12-20.9C52.13,7.37,66.69,.92,79.43,2.68c6.63,.92,12.2,3.8,16.86,8.6,4.58,4.72,9.23,9.38,13.87,14.04,4.27,4.28,10.15,4.28,14.45,0,5.47-5.46,10.51-11.38,16.47-16.31,12.59-10.42,31.65-8.08,41.19,4.85,1.79,2.43,3.11,5.1,3.82,8.02,1.72,7.1,3.46,14.2,5.02,21.34,2.94,13.47-6.95,27.57-20.62,29.65-2.57,.39-5.12,.48-8.15,.39Z" fill="#43b9f1"/>
<path d="M302.34,.9c11.26,.43,22.27,2.01,32.26,7.73,8.96,5.13,13.07,14.68,10.39,23.77-2.18,7.42-10.32,13.94-19.88,12.63-5.24-.72-10.03-2.76-15.05-4.09-4.96-1.31-9.81-3.19-15.05-3.08-1.63,.03-3.24,.22-4.8,.71-2.23,.71-3.67,2.34-3.6,4.13,.08,2.19,1.85,2.73,3.44,3.2,4.29,1.25,8.65,2.22,12.98,3.34,10.94,2.83,21.97,5.41,32.02,10.88,17.76,9.68,24.74,31.45,15.74,49.59-7.57,15.25-20.15,24.1-36.54,27.8-11.8,2.66-23.68,2.09-35.57,.54-7.42-.97-14.7-2.46-21.45-5.84-4.1-2.06-7.79-4.77-10.71-8.28-3.55-4.28-4.22-9.42-3.37-14.78,1.07-6.81,4.32-12.14,10.97-14.73,4.28-1.67,8.7-.97,13.01,.14,7.73,1.98,15.41,4.21,23.17,6.07,5.02,1.2,10.16,1.82,15.22-.1,.63-.24,1.26-.48,1.88-.77,1.65-.76,2.85-1.91,2.84-3.85,0-1.85-1.2-2.9-2.73-3.71-5.59-2.95-11.8-3.86-17.79-5.51-8.61-2.37-17.39-4.28-25.45-8.27-16.89-8.34-24.21-25.4-19.28-43.62,3.29-12.14,11.4-19.82,21.94-25.59,9.34-5.11,19.43-7.4,29.96-8.08,.95-.06,1.89-.2,2.84-.25,.88-.04,1.76,0,2.64,0Z" fill="#43b9f1"/>
<path d="m411.99 2.13c7.26 0.13 16.08-0.33 24.89 0.26 17.43 1.18 31.77 8.33 41.04 23.4 8.89 14.46 9.35 29.93 2.24 45.31-7.14 15.44-20.06 23.24-36.39 26.16-10.3 1.84-20.68 1.03-31.04 1.22-3.21 0.06-2.75-0.43-2.82 2.8-0.15 6.5 0.45 13.02-0.33 19.51-1.25 10.41-10.77 18.2-22.23 18.34-9.83 0.12-18.99-7.81-20.54-17.75-0.23-1.48-0.38-2.95-0.38-4.45v-90.94c0-6.97 1.87-13.25 6.99-18.26 4.35-4.26 9.77-5.59 15.64-5.6h22.91zm10.27 58.95v-0.03c3.59 0 7.18 0.1 10.77-0.02 5.54-0.2 10.24-6.18 9.25-11.62-0.95-5.24-4.95-8.54-10.69-8.62-6.64-0.09-13.27 0-19.91-0.04-1.25 0-1.81 0.25-1.79 1.67 0.07 5.69 0.06 11.38 0 17.06-0.01 1.23 0.35 1.66 1.61 1.63 3.59-0.07 7.18-0.03 10.77-0.03z" fill="#43b9f1"/>
<path d="M184.11,83.32c14.56-.37,27.87,12.73,27.75,28.36-.12,15.4-12.36,27.75-28.13,27.7-16.07-.04-27.75-12.86-27.62-27.92,.15-16.94,14.42-28.68,28-28.15Z" fill="#43b9f1"/>
<style>.244dcb9a5c9dc47f1a4e0cb78446c0b7{height:69px}</style>
</svg>
