<?xml version="1.0" encoding="UTF-8"?>
<svg version="1.1" viewBox="0 0 160 62" xmlns="http://www.w3.org/2000/svg">
<g fill="none" fill-rule="evenodd">
<g fill-rule="nonzero">
<path d="m12.291 41.633c0.55682 0.30965 0.93473 0.5994 1.1335 0.86905 0.19881 0.26985 0.29831 0.52955 0.29831 0.7793 0 0.30965-0.079602 0.66925-0.22866 1.0788-0.1592 0.40955-0.34806 0.80915-0.56677 1.2086l-0.58687 0.04c-0.47721-0.58925-1.1733-1.1089-2.0782-1.5383-0.91483-0.4396-1.8894-0.6593-2.9236-0.6593-0.36796 0-0.76577 0.04-1.2032 0.0999-0.43761 0.069851-0.84537 0.1998-1.2231 0.3797-0.37791 0.1797-0.69612 0.4394-0.94468 0.7791-0.24876 0.3395-0.37791 0.7592-0.37791 1.2687 0 0.89891 0.39781 1.5483 1.2032 1.9479 0.79562 0.38945 1.7899 0.72915 2.9634 1.0189 0.83522 0.1998 1.6507 0.4394 2.4362 0.7391 0.78567 0.2997 1.4818 0.6792 2.0784 1.1387 0.60657 0.46965 1.0838 1.049 1.4318 1.7582 0.34806 0.6993 0.52716 1.5783 0.52716 2.6171 0 1.0388-0.20896 1.9479-0.62667 2.7272-0.41751 0.7791-0.98428 1.4183-1.6804 1.9479-0.70607 0.5194-1.5214 0.919-2.4663 1.1787-0.94468 0.26965-1.9093 0.3996-2.9234 0.3996-0.98448 0-1.8697-0.08-2.6551-0.22985-0.78567-0.14985-1.442-0.34965-1.9789-0.56935-0.70607-0.2798-1.1932-0.56935-1.4716-0.86905-0.28836-0.2997-0.42766-0.5994-0.42766-0.90905 0-0.3596 0.099502-0.74925 0.29831-1.1387 0.19881-0.38965 0.44756-0.8392 0.75582-1.3487 0.19881 0.16995 0.46726 0.3797 0.81532 0.62945 0.34806 0.24975 0.76577 0.48935 1.2529 0.7192 0.48736 0.22965 1.0243 0.4195 1.6109 0.56935 0.58667 0.1598 1.2131 0.22965 1.8894 0.22965 0.49731 0 0.99443-0.04995 1.4619-0.14965 0.47721-0.0999 0.90488-0.2599 1.2828-0.48955 0.37791-0.22985 0.68617-0.5395 0.92478-0.92896 0.23861-0.3996 0.35801-0.88915 0.35801-1.4784 0-0.58945-0.12935-1.0788-0.37791-1.4585-0.24856-0.3795-0.58667-0.6991-1.0044-0.94886-0.41771-0.24975-0.88498-0.4595-1.4022-0.60935-0.51701-0.14985-1.044-0.28975-1.5711-0.3996-0.80537-0.16975-1.591-0.38965-2.3268-0.6593-0.73592-0.26965-1.3922-0.62925-1.969-1.0788-0.57672-0.44955-1.0342-1.0189-1.3823-1.6882-0.34806-0.6792-0.52697-1.4884-0.52697-2.4573 0-0.92896 0.19881-1.7483 0.58667-2.4675 0.38786-0.7192 0.92478-1.3085 1.601-1.7779 0.67622-0.4595 1.4418-0.8191 2.2971-1.0589 0.85512-0.2398 1.75-0.3596 2.6748-0.3596 1.0641 0 2.0386 0.10985 2.9236 0.3395 0.87502 0.22985 1.5811 0.4995 2.1182 0.80915z" fill="#000" fill-opacity=".6"/>
<path d="m36.216 50.803c0 1.3785-0.16915 2.7071-0.50726 3.9956-0.33791 1.2786-0.87502 2.4173-1.6207 3.4064-0.74587 0.98886-1.7005 1.7781-2.8838 2.3674-1.1835 0.58945-2.6054 0.88915-4.2959 0.88915-1.6806 0-3.1025-0.2798-4.2661-0.84915-1.1634-0.5594-2.1081-1.3286-2.844-2.2776-0.72597-0.95881-1.2629-2.0776-1.601-3.3562-0.33811-1.2786-0.50706-2.6273-0.50706-4.0356 0-1.4086 0.19881-2.7471 0.58667-4.0157s0.98448-2.3775 1.77-3.3164c0.78567-0.94905 1.7602-1.6981 2.9236-2.2575 1.1636-0.5594 2.5357-0.84915 4.1069-0.84915 1.6507 0 3.0529 0.2798 4.2064 0.84915 1.1536 0.5594 2.0884 1.3186 2.8143 2.2575 0.72577 0.93891 1.2629 2.0378 1.601 3.2764 0.34786 1.2287 0.51701 2.5373 0.51701 3.9158zm-3.7489 0c0-0.86905-0.079602-1.7381-0.22886-2.5972-0.159-0.8591-0.42746-1.6382-0.82527-2.3276-0.39781-0.68915-0.94468-1.2486-1.6507-1.6681-0.70607-0.4195-1.6209-0.6394-2.7445-0.6394-1.0641 0-1.959 0.20975-2.685 0.6394-0.71602 0.4195-1.2927 0.97891-1.7104 1.6681-0.42746 0.68935-0.72577 1.4685-0.91483 2.3276-0.17891 0.8591-0.27841 1.7282-0.27841 2.5972 0 0.879 0.079602 1.758 0.22866 2.6671 0.14925 0.8991 0.44756 1.7083 0.86527 2.4275 0.41751 0.7192 0.98448 1.3085 1.6903 1.7779 0.70607 0.4595 1.601 0.6993 2.7049 0.6993 1.1236 0 2.0585-0.22965 2.7843-0.6993 0.73592-0.4595 1.2927-1.0587 1.6905-1.7779 0.39781-0.7192 0.66627-1.5284 0.82527-2.4275 0.16915-0.90905 0.24876-1.7881 0.24876-2.6671z" fill="#000" fill-opacity=".6"/>
<path d="m57.735 58.365c0.75582 0 1.4519-0.0999 2.0884-0.3196 0.62647-0.20975 1.1733-0.46965 1.6209-0.78925 0.44736-0.30965 0.79542-0.6392 1.0539-0.99881 0.24876-0.34965 0.37791-0.66925 0.37791-0.959v-14.554h0.24856c0.049751 0 0.12935-0.0099502 0.22886-0.0199 0.099304-0.010149 0.18886-0.0201 0.27841-0.0201 0.78547 0 1.4517 0.20975 1.9988 0.60935 0.54687 0.40955 0.82527 1.1489 0.82527 2.2175v17.291h-3.5799v-1.8281c-0.55682 0.6394-1.3425 1.2088-2.3566 1.7083-1.0044 0.4993-2.317 0.74905-3.9081 0.74905-1.6308 0-2.8937-0.24975-3.7887-0.7592-0.90507-0.50925-1.5612-1.1487-1.9988-1.9479-0.43761-0.78905-0.69612-1.6581-0.77572-2.5972-0.079403-0.94886-0.12915-1.848-0.12915-2.727v-12.676h0.24856c0.059702 0 0.12935-0.0099502 0.22866-0.0199 0.099502-0.010149 0.18905-0.0201 0.26846-0.0201 0.78567 0 1.4519 0.1998 1.9988 0.58945 0.54687 0.3994 0.82547 1.1288 0.82547 2.1976v9.9592c0 1.0987 0.079403 1.9777 0.22866 2.6271 0.14905 0.64935 0.46726 1.1489 0.94468 1.4784 0.41771 0.30965 0.87502 0.5194 1.3624 0.6394 0.50706 0.1198 1.0738 0.16975 1.7102 0.16975z" fill="#000" fill-opacity=".6"/>
<path d="m72.661 58.285c-0.199-0.5393-0.31821-1.1188-0.35801-1.758-0.039801-0.62925-0.069652-1.2587-0.069652-1.878v-19.779h0.25851c0.059702 0 0.12935-0.0099503 0.22886-0.0199 0.099304-0.010149 0.18886-0.0201 0.26846-0.0201 0.75562 0 1.4219 0.1998 1.9789 0.58945 0.55682 0.38945 0.84517 1.1087 0.84517 2.1375v3.3564h6.2647v3.0868h-6.2647v10.908c0 2.3075 0.91483 3.4663 2.7345 3.4663 0.44756 0 0.86527-0.079801 1.2629-0.22965 0.38786-0.14985 0.74587-0.3397 1.0541-0.54945s0.56677-0.4195 0.77572-0.60935c0.20876-0.1998 0.34806-0.3397 0.39761-0.4195 0.33811 0.4195 0.62667 0.82905 0.86527 1.2287 0.23861 0.38945 0.35801 0.7791 0.35801 1.1387 0 0.24975-0.12935 0.52935-0.37791 0.8191-0.24856 0.2997-0.60657 0.56935-1.0541 0.82905-0.44736 0.24975-1.0044 0.46945-1.6607 0.6394-0.65632 0.16975-1.3821 0.24975-2.1678 0.24975-1.4617 0-2.6253-0.2798-3.4903-0.84915-0.86507-0.5793-1.4816-1.3485-1.8496-2.3375z" fill="#000" fill-opacity=".6"/>
<path d="m86.672 40.744h0.24876c0.059502 0 0.12915-0.0099502 0.22866-0.0199 0.099304-0.010149 0.18886-0.0201 0.27841-0.0201 0.78547 0 1.4517 0.20975 1.9988 0.60935 0.54687 0.40955 0.82527 1.1489 0.82527 2.2175v13.486c0 0.8191 0.1194 1.3984 0.35801 1.728 0.23861 0.3397 0.79542 0.50945 1.6607 0.50945v1.5184c-0.24876 0.08-0.59662 0.1598-1.0243 0.20975-0.43761 0.0599-0.86507 0.08995-1.2828 0.08995-0.81532 0-1.442-0.12995-1.8695-0.3797-0.43761-0.24955-0.75582-0.58925-0.96458-1.0088-0.20876-0.4195-0.33811-0.88915-0.37791-1.4185-0.039801-0.5194-0.059702-1.0388-0.059702-1.5383v-15.983h-0.0199z" fill="#000" fill-opacity=".6"/>
<path d="m113.46 50.803c0 1.3785-0.16896 2.7071-0.50706 3.9956-0.33811 1.2786-0.87502 2.4173-1.6209 3.4064-0.74587 0.98886-1.7005 1.7781-2.8838 2.3674-1.1733 0.58945-2.6054 0.88915-4.2858 0.88915-1.6806 0-3.1126-0.2798-4.2661-0.84915-1.1634-0.5594-2.1083-1.3286-2.834-2.2776-0.73592-0.95881-1.2629-2.0776-1.601-3.3562-0.33811-1.2786-0.50726-2.6273-0.50726-4.0356 0-1.4086 0.199-2.7471 0.58687-4.0157 0.39761-1.2687 0.98428-2.3775 1.77-3.3164 0.78567-0.94905 1.76-1.6981 2.9236-2.2575 1.1634-0.5594 2.5258-0.84915 4.0969-0.84915 1.6607 0 3.0527 0.2798 4.2064 0.84915 1.1534 0.5594 2.0882 1.3186 2.8241 2.2575 0.72597 0.93891 1.2629 2.0378 1.601 3.2764 0.32816 1.2287 0.49712 2.5373 0.49712 3.9158zm-3.7489 0c0-0.86905-0.079602-1.7381-0.22866-2.5972-0.1592-0.8591-0.42766-1.6382-0.82547-2.3276-0.39761-0.68915-0.94468-1.2486-1.6505-1.6681-0.70607-0.4195-1.6209-0.6394-2.7447-0.6394-1.0738 0-1.959 0.20975-2.6848 0.6394-0.71602 0.4195-1.2927 0.97891-1.7104 1.6681-0.41771 0.68935-0.72597 1.4685-0.90488 2.3276-0.1791 0.8591-0.27841 1.7282-0.27841 2.5972 0 0.879 0.079403 1.758 0.22866 2.6671 0.159 0.8991 0.44756 1.7083 0.86507 2.4275 0.41771 0.7192 0.98448 1.3085 1.6905 1.7779 0.70607 0.4595 1.6109 0.6993 2.7049 0.6993 1.1236 0 2.0583-0.22965 2.7843-0.6993 0.73572-0.4595 1.2927-1.0587 1.6905-1.7779 0.39761-0.7192 0.66607-1.5284 0.82527-2.4275 0.159-0.90905 0.23861-1.7881 0.23861-2.6671z" fill="#000" fill-opacity=".6"/>
<path d="m118.03 40.834c0.64637 0 1.2233 0.1598 1.7502 0.48935 0.51702 0.3198 0.83522 0.879 0.94468 1.6683 0.64637-0.64935 1.5214-1.2287 2.6253-1.7282 1.1136-0.50945 2.4163-0.7592 3.9377-0.7592 1.9095 0 3.3711 0.4195 4.3755 1.2687 1.0143 0.84915 1.6706 1.8979 1.9789 3.1666 0.1391 0.5594 0.22866 1.1887 0.24856 1.878 0.029851 0.68915 0.039801 1.3584 0.039801 2.0078v12.007h-3.57v-11.887c0-0.52935-0.00995-1.0488-0.019901-1.5383-0.00995-0.48935-0.089552-0.94886-0.22866-1.3785-0.199-0.72915-0.59682-1.2985-1.2133-1.6882-0.61652-0.38945-1.5313-0.58925-2.7345-0.58925-1.601 0-2.8738 0.3196-3.8285 0.94886-0.95463 0.6394-1.432 1.3186-1.432 2.0478v14.075h-3.5797v-19.948h0.20876c0.059702 0 0.12935-0.0099503 0.22866-0.0199 0.089552-0.0199 0.1791-0.0199 0.26846-0.0199z" fill="#000" fill-opacity=".6"/>
<path d="m149.88 41.633c0.55682 0.30965 0.94468 0.5994 1.1335 0.86905 0.18906 0.26985 0.29831 0.52955 0.29831 0.7793 0 0.30965-0.079602 0.66925-0.22866 1.0788-0.1592 0.40955-0.34806 0.80915-0.56677 1.2086l-0.58667 0.04c-0.47741-0.58925-1.1735-1.1089-2.0884-1.5383-0.91483-0.4396-1.8894-0.6593-2.9236-0.6593-0.36796 0-0.76557 0.04-1.2032 0.0999-0.43761 0.069851-0.84517 0.1998-1.2231 0.3797-0.37791 0.1797-0.69612 0.4394-0.94468 0.7791-0.25851 0.3395-0.37791 0.7592-0.37791 1.2687 0 0.89891 0.39781 1.5483 1.2032 1.9479 0.79562 0.38945 1.79 0.72915 2.9634 1.0189 0.84517 0.1998 1.6507 0.4394 2.4362 0.7391 0.78567 0.2997 1.4818 0.6792 2.0784 1.1387 0.60657 0.46965 1.0838 1.049 1.4318 1.7582 0.34806 0.6993 0.52716 1.5783 0.52716 2.6171 0 1.0388-0.20896 1.9479-0.63642 2.7272-0.41771 0.7791-0.98448 1.4183-1.6806 1.9479-0.70607 0.5194-1.5214 0.919-2.4661 1.1787-0.93473 0.26965-1.9192 0.3996-2.9236 0.3996-0.98448 0-1.8695-0.08-2.6452-0.22985-0.78567-0.14985-1.4418-0.34965-1.9789-0.56935-0.70607-0.2798-1.1932-0.56935-1.4716-0.86905s-0.41771-0.5994-0.41771-0.90905c0-0.3596 0.099502-0.74925 0.28836-1.1387 0.199-0.38965 0.44756-0.8392 0.75582-1.3487 0.19881 0.16995 0.46726 0.3797 0.81532 0.62945 0.34806 0.24975 0.76577 0.48935 1.2529 0.7192 0.48736 0.22965 1.0243 0.4195 1.6109 0.56935 0.58686 0.1598 1.2133 0.22965 1.8894 0.22965 0.49731 0 0.99443-0.04995 1.4619-0.14965 0.47721-0.0999 0.90488-0.2599 1.2828-0.48955 0.37791-0.22985 0.68617-0.5395 0.92478-0.92896 0.23861-0.3996 0.35801-0.88915 0.35801-1.4784 0-0.58945-0.12935-1.0788-0.37791-1.4585-0.24856-0.3795-0.58667-0.6991-1.0044-0.94886-0.41771-0.24975-0.88498-0.4595-1.402-0.60935-0.51721-0.14985-1.0442-0.28975-1.5713-0.3996-0.80537-0.16975-1.591-0.38965-2.3268-0.6593-0.74587-0.26965-1.3922-0.62925-1.969-1.0788-0.57672-0.44955-1.0342-1.0189-1.3823-1.6882-0.34806-0.6792-0.52696-1.4884-0.52696-2.4573 0-0.92896 0.19881-1.7483 0.58667-2.4675 0.39781-0.7192 0.92478-1.3085 1.601-1.7779 0.67622-0.4595 1.442-0.8191 2.2971-1.0589 0.85512-0.2398 1.75-0.3596 2.6748-0.3596 1.0641 0 2.0386 0.10985 2.9236 0.3395 0.88517 0.22985 1.591 0.4995 2.1282 0.80915z" fill="#000" fill-opacity=".6"/>
<path d="m50.148 25.92c-0.059502 0.079801-0.18886 0.2197-0.39761 0.4195-0.20896 0.1998-0.46746 0.3996-0.77572 0.60935-0.30826 0.20975-0.65632 0.3996-1.0541 0.54945-0.39761 0.1598-0.81532 0.22965-1.2629 0.22965-1.8197 0-2.7345-1.1588-2.7345-3.4663v-10.898h6.2647v-3.0868h-6.2647v-3.3562c0-1.039-0.27841-1.7483-0.84517-2.1377-0.55701-0.38965-1.2233-0.58945-1.9789-0.58945-0.089552 0-0.1791 0.0099502-0.27841 0.0201-0.099502 0.0099502-0.1791 0.0199-0.22886 0.0199h-0.24856v19.779c0 0.6193 0.0199 1.2488 0.059702 1.878 0.039801 0.6394 0.159 1.2187 0.35801 1.758 0.36796 0.98905 0.98448 1.7582 1.8496 2.3276 0.86507 0.5594 2.0287 0.84915 3.4903 0.84915 0.78567 0 1.5114-0.08995 2.1678-0.24975 0.65632-0.16995 1.2133-0.3797 1.6607-0.6394 0.44756-0.24975 0.79562-0.52935 1.0541-0.82905 0.24856-0.2997 0.37791-0.56935 0.37791-0.8191 0-0.36955-0.1194-0.74925-0.35801-1.1387-0.23861-0.3996-0.52716-0.80915-0.85532-1.2287z" fill="#61933F"/>
<path d="m40.323 31.125v25.572c0 0.50945 0.0199 1.0189 0.059702 1.5383s0.16896 0.999 0.37791 1.4185c0.20876 0.4195 0.53692 0.7592 0.96458 1.0189 0.43741 0.24975 1.0639 0.3795 1.8695 0.3795 0.41771 0 0.84517-0.029851 1.2828-0.089751 0.43741-0.0599 0.77552-0.12995 1.0342-0.20975v-1.5184c-0.50726 0-0.89512-0.04995-1.1536-0.14985-0.26846-0.0999-0.45731-0.24975-0.58667-0.4396-0.12935-0.1998-0.19881-0.4394-0.22866-0.7391-0.029851-0.2997-0.039801-0.6593-0.039801-1.0788v-23.205c0-0.24955-0.0199-0.4794-0.049751-0.68915-0.94468-0.1998-1.7799-0.52935-2.4959-0.999-0.37791-0.2396-0.71602-0.5194-1.0342-0.80896z" fill="#000" fill-opacity=".6"/>
<path d="m0.71602 10.197c0.64637 0 1.2231 0.1598 1.75 0.48955 0.51721 0.3196 0.83542 0.879 0.94468 1.6681 0.64637-0.64935 1.5216-1.2287 2.6253-1.7381 1.1039-0.50945 2.4165-0.7592 3.9379-0.7592 1.9093 0 3.3709 0.4195 4.3753 1.2687 1.0044 0.8392 1.6706 1.8979 1.9789 3.1666 0.1393 0.5594 0.21871 1.1887 0.24856 1.878 0.029851 0.68915 0.039801 1.3584 0.039801 2.0078v12.007h-3.5799v-11.877c0-0.5395-0.0099502-1.049-0.0199-1.5383-0.0099502-0.48955-0.089353-0.94905-0.22866-1.3785-0.19881-0.72935-0.60657-1.2987-1.2231-1.6882-0.61652-0.38965-1.5313-0.58945-2.7347-0.58945-1.601 0-2.8738 0.3196-3.8285 0.94905-0.95463 0.62925-1.4318 1.3184-1.4318 2.0478v14.075h-3.57v-19.948h0.20876c0.059701 0 0.12935-0.0099502 0.22886-0.0201 0.099303-0.0199 0.19881-0.0199 0.27841-0.0199z" fill="#007A33"/>
<path d="m29.633 27.738c0.81552 0 1.5216-0.079801 2.1282-0.24975 0.60657-0.16975 1.1236-0.3795 1.5512-0.62925 0.43761-0.24975 0.80537-0.50945 1.1136-0.7791s0.55701-0.5194 0.75582-0.7393c0.30826 0.3996 0.58667 0.8191 0.82527 1.2687 0.23881 0.44955 0.35801 0.7992 0.35801 1.0589 0 0.22985-0.069453 0.4595-0.20876 0.70925-0.1393 0.24975-0.37791 0.48935-0.71602 0.74925-0.64637 0.48935-1.4716 0.88896-2.486 1.2185-1.0044 0.32975-2.2275 0.48955-3.6595 0.48955-1.3224 0-2.5556-0.18985-3.729-0.56935-1.1634-0.3797-2.1877-0.98905-3.0627-1.838-0.87522-0.84915-1.5711-1.9479-2.0784-3.3164-0.51701-1.3686-0.76557-3.0368-0.76557-5.0046 0-1.7781 0.25851-3.3164 0.77552-4.605 0.51721-1.2987 1.2032-2.3574 2.0386-3.1966 0.83522-0.82905 1.7998-1.4384 2.8838-1.838 1.0838-0.3996 2.1976-0.58925 3.3411-0.58925 1.432 0 2.6551 0.2396 3.6794 0.7192 1.0243 0.4794 1.8595 1.1188 2.5059 1.928 0.64637 0.799 1.1236 1.7381 1.432 2.7869 0.31821 1.0289 0.47721 2.1278 0.47721 3.2466 0 0.3994-0.0099502 0.799-0.0199 1.2086-0.0099502 0.40955-0.049751 0.7992-0.099502 1.1588h-13.265c0.079602 2.0478 0.62647 3.686 1.6209 4.9347 0.99443 1.2486 2.5357 1.8778 4.604 1.8778zm3.5799-9.5097c0-0.7592-0.079602-1.4685-0.22866-2.1176-0.1592-0.64935-0.41771-1.2187-0.77572-1.7083-0.35801-0.48935-0.84517-0.879-1.4418-1.1586-0.60657-0.2798-1.3325-0.4197-2.1976-0.4197-1.4519 0-2.6452 0.4796-3.5799 1.4386-0.93473 0.95881-1.4619 2.2774-1.5711 3.9755h9.7948v-0.0099503z" fill="#007A33"/>
<path d="m101.81 20.167c0 1.3785-0.16915 2.717-0.50726 3.9956-0.33811 1.2888-0.87502 2.4175-1.6209 3.4064-0.74567 0.98886-1.7003 1.7781-2.8838 2.3674-1.1733 0.58945-2.6054 0.88915-4.2858 0.88915-1.6806 0-3.1027-0.2798-4.2661-0.84915-1.1634-0.5594-2.1081-1.3286-2.844-2.2876-0.72597-0.95881-1.2629-2.0776-1.601-3.3562-0.33811-1.2786-0.50706-2.6273-0.50706-4.0356 0-1.4086 0.19881-2.7471 0.58667-4.0157 0.39761-1.2687 0.98448-2.3775 1.77-3.3164 0.78567-0.94886 1.7602-1.6981 2.9236-2.2575s2.5258-0.84915 4.1069-0.84915c1.6507 0 3.0529 0.2798 4.2064 0.84915 1.1534 0.5594 2.0884 1.3186 2.8141 2.2575 0.73592 0.93891 1.2629 2.0378 1.601 3.2764 0.33811 1.2386 0.50726 2.5473 0.50726 3.9258zm-3.7491 0c0-0.86905-0.079403-1.7381-0.22866-2.5972-0.159-0.8591-0.42766-1.6382-0.82527-2.3274-0.38786-0.68935-0.93473-1.2488-1.6408-1.6683-0.70607-0.4195-1.6209-0.6392-2.7447-0.6392-1.0738 0-1.959 0.20975-2.6748 0.6392-0.71602 0.4195-1.2927 0.97891-1.7104 1.6683-0.42766 0.68915-0.72597 1.4683-0.90488 2.3274-0.18886 0.8591-0.27841 1.7282-0.27841 2.5972 0 0.879 0.079602 1.7582 0.22866 2.6671 0.1592 0.8991 0.44756 1.7083 0.86507 2.4275 0.42766 0.7192 0.98448 1.3085 1.6905 1.7781 0.70607 0.46945 1.601 0.6991 2.7049 0.6991 1.1236 0 2.0583-0.22965 2.7843-0.6991 0.73592-0.4595 1.2927-1.0589 1.6905-1.7781 0.39761-0.7192 0.66627-1.5284 0.82527-2.4275 0.1393-0.89891 0.21871-1.7881 0.21871-2.6671z" fill="#007A33"/>
<path d="m106.2 10.197c0.64637 0 1.233 0.1598 1.7502 0.48935 0.51702 0.3198 0.83522 0.86905 0.94468 1.6283 0.39781-0.58925 0.98448-1.1487 1.77-1.6681 0.78567-0.5196 1.7005-0.7793 2.7347-0.7793 0.30826 0 0.63642 0.03005 0.99443 0.08995 0.34806 0.0599 0.67622 0.14985 0.98448 0.26965 0.30826 0.12995 0.55682 0.2997 0.75562 0.52955 0.199 0.2197 0.29831 0.5194 0.29831 0.88896 0 0.44955-0.10925 0.9391-0.33811 1.4585-0.22866 0.5194-0.44736 0.94886-0.67602 1.2886-0.36796-0.3397-0.75582-0.5994-1.1835-0.7791-0.41771-0.1799-0.95463-0.2798-1.601-0.2798-0.47721 0-0.93473 0.08-1.3723 0.22985-0.43741 0.1598-0.82527 0.36955-1.1534 0.6392-0.33811 0.26965-0.60657 0.56935-0.79542 0.90905-0.199 0.3397-0.28856 0.68915-0.28856 1.0589v14.035h-3.5797v-19.968h0.29831c0.089353 0 0.16896-0.010149 0.25851-0.0201 0.069652-0.0199 0.1391-0.0199 0.19881-0.0199z" fill="#007A33"/>
<path d="m119.03 30.186v-29.968h0.25851c0.059702 0 0.12935-0.0099502 0.22866-0.0199 0.099502-0.0099502 0.18906-0.0199 0.26866-0.0199 0.78547 0 1.4517 0.1998 1.9986 0.60935 0.54706 0.40955 0.82547 1.1487 0.82547 2.2175v27.18h-3.5799zm4.5445-10.399v-1.3986l7.2392-7.232c0.78567-0.72935 1.591-1.0989 2.4066-1.0989 0.30826 0 0.58667 0.04995 0.83522 0.14985 0.25851 0.0999 0.47721 0.20975 0.67622 0.3196 0.21871 0.10985 0.43761 0.24975 0.63642 0.4197l-8.0746 7.9912 9.3276 11.208c-0.67622 0.24975-1.3723 0.3797-2.1081 0.3797-0.55702 0-1.1138-0.12-1.6607-0.3596-0.54706-0.2398-1.0442-0.62945-1.4917-1.1588l-7.7861-9.2199z" fill="#007A33"/>
<path d="m50.148 25.92c-0.059502 0.079801-0.18886 0.2197-0.39761 0.4195-0.20896 0.1998-0.46746 0.3996-0.77572 0.60935-0.30826 0.20975-0.65632 0.3996-1.0541 0.54945-0.39761 0.1598-0.81532 0.22965-1.2629 0.22965-1.8197 0-2.7345-1.1588-2.7345-3.4663v-10.898h6.2647v-3.0868h-6.2647v-3.3562c0-1.039-0.27841-1.7483-0.84517-2.1377-0.55701-0.38965-1.2233-0.58945-1.9789-0.58945-0.089552 0-0.1791 0.0099502-0.27841 0.0201-0.099502 0.0099502-0.1791 0.0199-0.22886 0.0199h-0.24856v19.779c0 0.6193 0.0199 1.2488 0.059702 1.878 0.039801 0.6394 0.159 1.2187 0.35801 1.758 0.36796 0.98905 0.98448 1.7582 1.8496 2.3276 0.86507 0.5594 2.0287 0.84915 3.4903 0.84915 0.78567 0 1.5114-0.08995 2.1678-0.24975 0.65632-0.16995 1.2133-0.3797 1.6607-0.6394 0.44756-0.24975 0.79562-0.52935 1.0541-0.82905 0.24856-0.2997 0.37791-0.56935 0.37791-0.8191 0-0.36955-0.1194-0.74925-0.35801-1.1387-0.23861-0.3996-0.52716-0.80915-0.85532-1.2287z" fill="#007A33"/>
<path d="m74.958 30.356h-3.5799l-3.9576-10.269-4.3357 10.269h-3.202l-6.8613-19.868c0.30826-0.08 0.60657-0.14985 0.90488-0.20995 0.28836-0.0599 0.60657-0.079801 0.94468-0.079801 1.3226 0 2.1976 0.72915 2.6452 2.1976l4.3355 13.945 4.0372-9.9294-2.1479-5.9634c0.53692-0.16995 1.0939-0.24975 1.6806-0.24975 1.2629 0 2.128 0.6792 2.6054 2.0279l5.0515 14.155 3.4505-13.396c0.19881-0.759 0.48736-1.4183 0.88498-1.9678 0.39781-0.54945 0.99443-0.82905 1.81-0.82905 0.55682 0 1.1335 0.10985 1.7301 0.3395l-5.9962 19.829z" fill="#007A33"/>
<path d="m160 43.861c0 0.4595-0.079602 0.8991-0.22866 1.3087-0.1592 0.40955-0.36796 0.76915-0.64637 1.0888-0.27861 0.30965-0.62647 0.5594-1.0143 0.7391-0.39781 0.1799-0.84537 0.26985-1.3325 0.26985-0.51701 0-0.97453-0.08995-1.3723-0.26985-0.39781-0.1797-0.73572-0.42945-1.0044-0.7391-0.26846-0.30965-0.47721-0.6792-0.61652-1.0888-0.1391-0.40955-0.21871-0.84915-0.21871-1.3087s0.069652-0.88896 0.21871-1.2985c0.14925-0.40975 0.36796-0.76935 0.64637-1.079 0.27841-0.30965 0.61652-0.54925 1.0143-0.72915 0.39781-0.1797 0.84517-0.26965 1.3425-0.26965 0.48716 0 0.93473 0.08995 1.3325 0.26965 0.39761 0.1799 0.73572 0.42965 1.0143 0.72915 0.28836 0.30965 0.49712 0.66925 0.64617 1.079 0.14925 0.40955 0.2189 0.84896 0.2189 1.2985zm-0.54687 0c0-0.3797-0.059701-0.7393-0.1791-1.0788-0.12915-0.34965-0.30826-0.64935-0.52696-0.90905-0.22886-0.26965-0.51721-0.4794-0.84537-0.62925-0.32816-0.1598-0.70587-0.2398-1.1136-0.2398-0.41771 0-0.78567 0.08-1.1138 0.2398-0.32816 0.14985-0.60657 0.36955-0.83522 0.62925s-0.40776 0.56935-0.52696 0.90905c-0.12935 0.34965-0.18906 0.70925-0.18906 1.0788 0 0.3795 0.059702 0.7391 0.1791 1.0888 0.1192 0.34965 0.28836 0.64935 0.51701 0.919 0.22866 0.26985 0.49731 0.4796 0.82527 0.6394 0.32816 0.1598 0.70607 0.2396 1.1337 0.2396 0.40776 0 0.78547-0.079801 1.1136-0.2396 0.33811-0.1598 0.61672-0.36955 0.84537-0.6394 0.22866-0.26965 0.40776-0.56935 0.52697-0.919 0.12935-0.34965 0.18905-0.70925 0.18905-1.0888zm-0.98448 1.838c-0.1791 0.08995-0.33811 0.12975-0.47741 0.12975-0.10945 0-0.21871-0.0199-0.31821-0.079801-0.099503-0.04995-0.17891-0.12995-0.24856-0.2398l-0.75582-1.2287h-0.35801v1.4685h-0.79542v-3.9258c0.16896-0.0099503 0.36796-0.03005 0.59662-0.04 0.22866-0.0099503 0.42766-0.0199 0.60657-0.0199 0.54687 0 0.95463 0.10985 1.2032 0.3397 0.24876 0.2197 0.37791 0.50925 0.37791 0.85891 0 0.1598-0.0199 0.30965-0.069651 0.42965-0.049552 0.12975-0.099304 0.2396-0.17891 0.32955-0.069651 0.0999-0.1592 0.1799-0.25851 0.24975-0.099503 0.0599-0.199 0.1198-0.29831 0.1598l0.97453 1.5684zm-1.0342-2.6772c0-0.40955-0.23861-0.6193-0.73592-0.6193h-0.21871c-0.059701 0-0.1194 0.010149-0.16915 0.010149v1.2486h0.43761c0.23861 0 0.41771-0.0599 0.52696-0.16975 0.099502-0.10985 0.1592-0.26985 0.1592-0.46965z" fill="#000" fill-opacity=".6"/>
</g>
</g>
<style>.2187548249bca15350e6d8b18871dba8{height:78px}</style>
</svg>
