<?xml version="1.0" encoding="UTF-8"?>
<svg enable-background="new 0 0 615 172.2" version="1.1" viewBox="0 0 615 172.2" xml:space="preserve" xmlns="http://www.w3.org/2000/svg">
<style type="text/css">
	.st0{fill:#F8B400;}
	.st1{fill:#0445A5;}
</style>
	<circle class="st0" cx="244.1" cy="33" r="32"/>
	<path class="st1" d="m60.5 72.3h-60.5v99.8h28.5v-78.4h24.9c5.9 0 10.7 4.8 10.7 10.7v67.8h28.5v-67.8c0.1-17.8-14.3-32.1-32.1-32.1z"/>
	<path class="st1" d="m374.2 150.6h-18.7c-5.5-0.4-9.9-5-9.9-10.7v-46.3h28.5v-21.4h-28.5v-35.7h-28.5v35.6h-12.5l-16 21.4h28.5v46.5c0 17.7 14.3 32 32 32h24.9v-11.9l0.2-9.5z"/>
	<polygon class="st1" points="297.6 72.3 265.5 72.3 244.2 100.8 222.8 72.3 190.6 72.3 228.1 122.1 190.6 172.1 222.8 172.1 244.2 143.5 265.5 172.1 297.6 172.1 260.2 122.1"/>
	<polygon class="st1" points="495.3 72.3 470.4 135.8 445.5 72.3 416.9 72.3 456.2 172.1 484.6 172.1 523.8 72.3"/>
		<rect class="st1" x="381.3" y="72.3" width="28.5" height="99.8"/>
		<rect class="st1" x="381.3" y="36.6" width="28.5" height="28.5"/>
	<path class="st1" d="m149.6 150.6c-9 0-16.6-7.4-19.8-17.8h68.6c0.7-3.4 1.2-7 1.2-10.7 0-27.6-22.4-49.9-49.9-49.9s-49.9 22.4-49.9 49.9 22.4 49.9 49.9 49.9h33.8l16-21.4h-49.9zm0-56.9c9 0 16.6 7.4 19.8 17.8h-39.7c3.3-10.5 11-17.8 19.9-17.8z"/>
	<path class="st1" d="m582.9 72.3h-52l-8.4 21.4h53.2c5.9 0 10.7 4.8 10.7 10.7v7.1h-42.7v0.1c-15.9 1-28.5 14.1-28.5 30.2s12.6 29.3 28.5 30.2v0.1h71.3v-67.8c-0.1-17.7-14.4-32-32.1-32zm-32.1 60.7c0.5-0.1 1.1-0.1 1.5-0.2h34.1v17.8h-34.1c-0.5 0-1.1-0.1-1.5-0.2-4-0.8-7.1-4.5-7.1-8.7 0.2-4.2 3-7.8 7.1-8.7z"/>
<style>.b0c08dcd87fa01412bf9ce4454e6b756{height:83px}</style>
</svg>
