<?xml version="1.0" encoding="UTF-8"?>
<svg enable-background="new -153 -46 652 652" version="1.1" viewBox="-130.52 221.28 600.12 109.22" xml:space="preserve" xmlns="http://www.w3.org/2000/svg">
<style type="text/css">
	.st0{fill-rule:evenodd;clip-rule:evenodd;fill:#8277F6;}
	.st1{fill-rule:evenodd;clip-rule:evenodd;}
</style>
<path class="st0" d="m-117.4 330.5c-20.7-28.5-16.5-68 9.7-91.6 26.2-23.5 65.9-23.5 92.1 0 26.2 23.6 30.3 63.1 9.7 91.6l-33-53.8-3.2 5.4 3.3 15-22.7-38.9-14 23.8 3.3 15.2-11.9-20.4-33.3 53.7z"/>
<path class="st1" d="m76.5 304.8-24.2-36.2v36.2h-10.8v-52.5h12.4l22.9 34.3v-34.3h10.7v52.5h-11zm17.4-17.8c0-10.7 8.8-18.8 19.6-18.8 10.9 0 19.5 7.9 19.5 18.6 0 10.8-8.8 18.8-19.6 18.8-10.7 0-19.5-7.8-19.5-18.6zm10.8-0.2c0 5.4 4 9.2 8.9 9.2s8.8-3.8 8.8-9.2c0.2-5-3.8-9.1-8.9-9.1-4.9 0-8.8 3.8-8.8 9.1zm54-17.8v10.3c-1.1-0.2-2.2-0.3-3.3-0.3-5 0-8.5 3.5-8.5 10.1v15.7h-10.3v-35.8h9.9v5.2h0.1c1.9-4.1 5.6-5.6 9.3-5.6 0.9 0 1.8 0.2 2.8 0.4zm30.2 35.8v-4.6h-0.1c-3.3 4.9-8.7 5.2-11.1 5.2-10.4 0-17-9-17-18.7 0-9.1 6.9-18.5 17.2-18.5 4.1-0.1 8 1.7 10.7 4.8h0.1v-22.9h10.4v54.6h-10.2zm0-18c0.2-5-3.8-9.2-8.9-9.2-5 0-9.1 4.2-8.9 9.2 0 5.4 4 9.2 8.9 9.2 5 0 8.9-3.7 8.9-9.2zm20.5-37.3h11.4v44.4h23.7v10.9h-35v-55.3zm59.7 16.7c11.4 0 20.5 8.3 20.5 19.6 0 11.4-9.2 19.8-20.7 19.8-11.4 0-20.5-8.3-20.5-19.6-0.1-11.2 9.2-19.8 20.7-19.8zm-0.1 29.4c5.2 0 9.2-4 9.2-9.7 0.2-5.3-4-9.6-9.3-9.6-5.2 0-9.3 4-9.3 9.6s4.2 9.7 9.4 9.7zm26.1-9.6c0-11.2 9-19.8 20.6-19.8 7.9 0 16.4 4.2 18.3 12.9l-10 3c-0.8-2.8-3.7-5.8-8.5-5.8-4.9 0-9 3.5-9 9.5 0 5.6 3.7 9.6 9.1 9.6 3.9 0.1 7.4-2.2 8.7-5.9l10 3c-2.4 8.7-10.7 13-18.9 13-11.9 0.2-20.3-8.2-20.3-19.5zm57.4 0.9v17.9h-11v-57.6h11v34.7l13.1-14.9h14l-15.2 17.3 15.6 20.3h-13.9l-13.4-17.8h-0.2zm39.5 2.1c0.7 4.7 4.7 7.4 9.3 7.4 3.2 0 6.7-1.9 8-5l9 3.1c-2.5 7.3-9.5 11.2-16.9 11.2-11.4 0-20.7-8-20.7-19.8 0-10.9 9.1-19.7 20-19.7 11.2 0 18.8 7.7 18.8 18.9 0 1.3 0 2.6-0.1 4l-27.4-0.1zm16.5-7.2c-0.2-2.8-2.5-6.6-8-6.6-3.9 0-7.3 2.8-8.2 6.6h16.2zm42.2-3.9c-1.2-0.2-2.4-0.3-3.5-0.3-5.3 0-9 3.7-9 10.7v16.5h-10.8v-37.7h10.4v5.5h0.1c2.1-4.3 5.9-5.9 9.7-5.9 1 0 2 0.2 3 0.4l0.1 10.8zm13.2-19.9h-1.2v1.7h1.2c0.5 0 1.1-0.2 1.1-0.8 0-0.7-0.5-0.9-1.1-0.9zm-1.1 5.4h-1.4v-6.7h2.7c1.3 0 2.4 0.7 2.4 2.1 0 0.8-0.5 1.6-1.3 1.9l1.4 2.7h-1.6l-1.2-2.4h-1v2.4zm-3.9-3.4c0 2.7 2.1 4.8 4.7 4.8s4.8-2.1 4.8-4.8-2.2-4.8-4.8-4.8-4.7 2.1-4.7 4.8zm-1.1 0c0-3.2 2.6-5.9 5.9-5.9s5.9 2.6 5.9 5.9-2.6 5.9-5.9 5.9-5.9-2.6-5.9-5.9z"/>
<style>.75e5383ae86073dbf30d3e91ade40812{height:88px}</style>
</svg>
