<?xml version="1.0" encoding="UTF-8"?>
<svg data-name="Capa 1" version="1.1" viewBox="0 0 640 140" xmlns="http://www.w3.org/2000/svg">
<path d="M119.47,71.31l-3.79,6.43a1.15,1.15,0,0,0,0,.89q1.88,8.64,3.74,17.29a.77.77,0,0,1,0,.53L91.19,48.24l-.94,1.53Q82.12,63.52,74,77.27a1.48,1.48,0,0,0-.17,1.18c1.25,5.71,2.47,11.41,3.7,17.12a.88.88,0,0,1-.09.65C72.58,88,67.76,79.73,62.86,71.36l-1.59,2.56L22.08,137.63c-.27.44-.41.84-.93.11A85.6,85.6,0,0,1,6.38,101.82,83.14,83.14,0,0,1,5.26,85.53a86.12,86.12,0,0,1,62-80.3A82.53,82.53,0,0,1,83.9,2.17,86,86,0,0,1,168,49.24a86.16,86.16,0,0,1-6.76,88.44c-.47.68-.63.49-1-.07q-15.35-25-30.71-49.92Z" fill="#4580fe"/>
<path d="M567.52,61.61v.91q0,21.72,0,43.45c0,.74-.17.93-.92.92q-6-.06-11.91,0c-.64,0-.78-.17-.78-.79q0-32.35,0-64.72c0-.59.15-.74.74-.74q7.1,0,14.2,0a1.27,1.27,0,0,1,1.21.65Q583.82,62,597.6,82.61a2.92,2.92,0,0,0,.79,1v-.95q0-20.55,0-41.09c0-.74.17-.93.92-.92,4,0,7.94,0,11.91,0,.57,0,.75.12.75.73q0,32.4,0,64.8c0,.61-.19.72-.76.71q-6.16,0-12.33,0a1.46,1.46,0,0,1-1.43-.74q-14.56-21.9-29.19-43.76c-.18-.28-.37-.55-.56-.82Z" fill="#2c3038"/>
<path d="M240,61.52v.93q0,21.74,0,43.45c0,.84-.23,1-1,1-3.92,0-7.83,0-11.75,0-.61,0-.85-.09-.85-.8q0-32.31,0-64.62c0-.69.21-.82.84-.82q7,0,14,0a1.4,1.4,0,0,1,1.35.72q13.78,20.74,27.61,41.46a1.58,1.58,0,0,0,.64.74V82.7q0-20.55,0-41.09c0-.73.13-1,.94-1,4,0,7.94,0,11.91,0,.57,0,.76.12.76.73q0,32.4,0,64.79c0,.63-.21.73-.77.72q-6.26,0-12.5,0a1.28,1.28,0,0,1-1.21-.68q-14.66-22-29.34-44C240.48,62,240.38,61.7,240,61.52Z" fill="#2c3038"/>
<path d="m498.71 73.76q0-16.07 0-32.14c0-0.72 0.11-1 0.93-1 8.42 0 16.84-0.05 25.26 0.09a24.14 24.14 0 0 1 15 5 18.51 18.51 0 0 1 7 12.58 24 24 0 0 1-1.74 13.44c-2.49 5.44-6.88 8.67-12.48 10.42a31.6 31.6 0 0 1-9.31 1.36h-10.06c-0.66 0-0.83 0.16-0.83 0.82v21.61c0 0.72-0.14 0.93-0.9 0.92h-11.92c-0.82 0-0.93-0.26-0.93-1q-0.01-16.01-0.02-32.1zm13.71-11.56v7.84c0 0.56 0.16 0.7 0.71 0.7h10a12.75 12.75 0 0 0 5.62-1.32 7.58 7.58 0 0 0 4.51-7.7 7.5 7.5 0 0 0-5-7 12.56 12.56 0 0 0-4.67-1h-10.56c-0.6 0-0.6 0.27-0.6 0.72 0 2.56-0.01 5.14-0.01 7.76z" fill="#2c3038"/>
<path d="m412 67v-25.56c0-0.6 0.1-0.81 0.76-0.8h11.66c0.63 0 0.79 0.15 0.79 0.78q0 32.37 0 64.72c0 0.59-0.15 0.75-0.74 0.75q-5.72 0-11.41 0c-0.62 0-0.74-0.19-0.73-0.76v-4.88h-0.19c-3.32 4.57-8 6.31-13.45 6.45-10.48 0.28-18.56-6.73-21.14-16.59-2.38-9.06-0.33-17.13 6.07-24 6.13-6.58 16.57-8.2 24.07-3.8a18.1 18.1 0 0 1 4.31 3.69zm-10.84 28.76a11.1 11.1 0 0 0 11.19-11.37c0-6.53-4.65-11.51-10.87-11.56a11 11 0 0 0-11.48 11.24c0 6.68 4.73 11.65 11.16 11.69z" fill="#2c3038"/>
<path d="M429.26,40.66h14.38c.52,0,.56.32.68.67l7.05,20.61q4.81,14.13,9.65,28.25c.06.19.15.36.26.63,1.33-3.88,2.64-7.66,3.94-11.45q6.52-19,13-38a.87.87,0,0,1,1-.7q6.5,0,13,0c.75,0,.8.16.56.83q-8.86,24.35-17.7,48.7c-1.93,5.32-3.88,10.64-5.79,16a.93.93,0,0,1-1.06.75q-7.14,0-14.28,0c-.57,0-.87-.1-1.09-.71q-11.7-32.44-23.46-64.86C429.39,41.12,429.34,40.94,429.26,40.66Z" fill="#2c3038"/>
<path d="m316.15 60.65c8.29 0.31 15.66 3.61 20.49 11.35a23.27 23.27 0 0 1-10.58 33.58c-9.74 4.14-19.11 3.14-27.39-3.66-6.2-5.09-8.59-12-7.88-19.91 1-10.8 9.4-19.09 20-20.92a37.57 37.57 0 0 1 5.36-0.44zm-0.75 35.12a11.05 11.05 0 0 0 11.07-11.38c0-6.6-4.7-11.63-10.9-11.64-6.56 0-11.32 4.79-11.35 11.44a11.15 11.15 0 0 0 11.18 11.58z" fill="#2c3038"/>
<path d="m358.86 68c0.83-1 1.49-2.13 2.39-3 3.11-3.16 6.94-4.11 11.21-3.59 1.79 0.22 1.78 0.29 1.78 2.07v10.38c0 0.71-0.17 0.88-0.9 0.77a15.07 15.07 0 0 0-6.78 0.26c-4.08 1.3-6.1 4.36-6.94 8.36a17 17 0 0 0-0.36 3.77v19.07c0 0.72-0.19 0.86-0.88 0.86h-11.32c-0.62 0-0.85-0.1-0.85-0.8q0-21.81 0-43.62c0-0.64 0.17-0.79 0.79-0.78h11.07c0.58 0 0.78 0.14 0.77 0.74 0 1.79 0.02 3.64 0.02 5.51z" fill="#2c3038"/>
<path d="m627.36 40.66a7.48 7.48 0 1 1-7.51 7.39 7.44 7.44 0 0 1 7.51-7.39zm-0.05 13.54a6.08 6.08 0 0 0 0-12.16 6.08 6.08 0 0 0 0 12.16z" fill="#2c3038"/>
<polygon points="77.6 96.45 77.65 96.43 77.64 96.49" fill="#4580fe"/>
<path d="M624.42,48.12c0-1.21,0-2.42,0-3.63,0-.43.05-.66.58-.64,1,0,2.08,0,3.12,0a2.67,2.67,0,0,1,1.53,4.91c-.37.26-.3.44-.13.74.42.79.82,1.6,1.25,2.38.19.35.17.48-.27.52-1.33.11-1.38.1-2-1.08l-.84-1.65a.6.6,0,0,0-.56-.39c-.6,0-1,0-.88.8a8.82,8.82,0,0,1,0,1.26,1.07,1.07,0,0,1-1.61,1c-.29-.13-.19-.37-.19-.58C624.41,50.59,624.42,49.35,624.42,48.12Zm2.73-.5a6.21,6.21,0,0,0,.75,0c.61-.07,1.1-.3,1.1-1s-.48-1-1.09-1a10.59,10.59,0,0,0-1.26,0c-.13,0-.38.06-.38.1a6,6,0,0,0,0,1.75C626.38,47.85,626.91,47.53,627.15,47.62Z" fill="#2c3038"/>
<style>.d932fe6a3c64e56926c9b8b213ac4d2b{height:81px}</style>
</svg>
