<?xml version="1.0" encoding="UTF-8"?>
<svg version="1.1" viewBox="0 0 640 140" xmlns="http://www.w3.org/2000/svg">
<path d="M162.53,139.61c-13.93-22.57-27.81-45.05-41.62-67.42-5.34,4.17-3.67,9.33-2.47,14.42,.7,2.98,1.38,5.96,2.06,8.94l-.81,.36c-9.22-15.72-18.45-31.44-28-47.72-4.22,7.1-7.67,14.17-12.31,20.34-5.12,6.81-5.65,13.6-2.97,21.21,.65,1.83,.84,3.82,.49,6.04-4.61-7.82-9.22-15.64-14.17-24.02-14.1,22.83-27.96,45.29-41.86,67.8C-1.02,112.85-5.01,62.42,27.49,28.38,62.13-7.92,118.32-9.02,153.4,25.71c34.96,34.61,31.81,85.52,9.13,113.9Z" fill="#43a5a1"/>
<path d="M226.27,41.67c4.76,0,9.28-.18,13.78,.12,1.2,.08,2.64,1.38,3.4,2.5,8.28,12.21,16.44,24.5,24.64,36.76,.65,.97,1.34,1.92,2.65,3.78V41.92h13.45V108.18c-4.2,0-8.44,.18-12.65-.13-1.06-.08-2.24-1.56-2.98-2.66-8.78-13.02-17.48-26.09-26.21-39.13-.63-.94-1.33-1.82-2.72-2.51v44.2h-13.35V41.67Z"/>
<path d="m454.66 84.18v24.62c-4.69 0-9.16 0.09-13.62-0.12-0.5-0.02-1.28-1.75-1.3-2.71-0.13-4.87-0.06-9.75-0.06-14.63v-52.91c1.15-0.11 1.95-0.27 2.74-0.26 9.87 0.16 19.8-0.3 29.58 0.69 12.14 1.23 19.5 10.12 19.6 21.94 0.11 12.09-7.11 20.69-19.45 22.45-5.6 0.8-11.33 0.63-17.49 0.93zm0.28-13.7c5.08-0.35 10.06-0.33 14.89-1.15 4.2-0.71 6.72-4.29 6.75-8.09 0.03-3.93-2.35-7.49-6.56-8.17-4.94-0.8-10.02-0.71-15.34-1.02v15.69c0 0.68 0.12 1.37 0.24 2.75z" fill="#43a5a1"/>
<path d="M426.45,108.04h-12.27l-.58-5.16c-5.04,5.67-11.14,6.85-17.77,5.86-5.01-.75-9.15-3.26-12.38-7.17-7.92-9.61-7.41-24,1.14-32.97,7.74-8.12,18.43-8.68,28.98-.94v-28.44h12.88V108.04Zm-12.58-22.64c-.03-6.62-4.95-11.57-11.44-11.5-6.44,.06-11.34,5.17-11.25,11.73,.1,6.57,5.13,11.66,11.47,11.58,6.38-.07,11.25-5.19,11.21-11.81Z"/>
<path d="M497.46,74.85c1.79-8.75,8.52-14.39,18.07-15.14,3.39-.27,6.91-.02,10.26,.62,7.21,1.37,12.82,5.78,13.39,12.98,.92,11.64,.25,23.41,.25,35.33h-12.5c-.11-1.59-.21-3.08-.28-4.14-3.41,1.56-6.81,3.69-10.51,4.69-6.79,1.83-14.14-1.14-17.64-6.44-4.25-6.43-2.39-15.54,4.39-19.16,3.15-1.69,6.87-2.47,10.43-3.21,2.41-.5,4.98-.2,7.48-.3,2.15-.09,4.63,.03,5.11-2.74,.48-2.74-1.33-4.43-3.64-5.5-4.69-2.2-9.13-.22-12.63,5.71-3.93-.87-7.95-1.75-12.18-2.68Zm28.29,13.93c-3.9,.31-7.57,.35-11.13,.99-2.38,.43-4.2,2.42-3.51,4.91,.44,1.59,2.11,3.59,3.61,4,6.12,1.68,11.17-2.73,11.03-9.9Z" fill="#43a5a1"/>
<path d="M342.5,85.32c.02,13.4-11.06,24.03-24.99,23.95-14.05-.07-24.81-10.37-24.76-23.7,.05-13.23,10.94-23.66,24.83-23.76,13.97-.1,24.9,10.21,24.92,23.51Zm-24.8-11.49c-6.46-.06-11.35,4.91-11.39,11.55-.04,6.57,4.85,11.72,11.22,11.82,6.34,.1,11.31-4.99,11.36-11.62,.05-6.66-4.75-11.69-11.19-11.75Z"/>
<path d="M588.35,72.99c-3.98,1.04-7.85,2.04-11.89,3.09-.5-.89-.92-1.71-1.41-2.48-1.8-2.83-5.44-4.12-8.38-2.59-1.16,.6-2.51,2.18-2.51,3.31,0,1.06,1.5,2.69,2.66,3.06,2.57,.82,5.37,.91,8.04,1.48,5.61,1.2,10.84,3.08,13.33,8.91,2.81,6.59,.56,14.18-5.34,18.35-7.44,5.27-20.74,4.83-27.83-.92-3.23-2.62-5.14-6.01-5.42-9.9,3.8-1.01,7.66-2.03,10.49-2.78,2.95,2.26,5.09,4.39,7.67,5.68,1.33,.67,3.57,.21,5.1-.44,1.05-.44,2.09-2.07,2.17-3.23,.06-.94-1.12-2.55-2.08-2.88-2.77-.94-5.7-1.5-8.6-2-9.85-1.71-15.31-8.17-14.05-16.77,.9-6.18,6.58-11.33,14.41-13.06,10-2.21,20.06,2.5,23.14,10.86,.24,.65,.3,1.35,.51,2.31Z" fill="#43a5a1"/>
<path d="M635.81,72.9c-4.44,1.15-8.31,2.15-12.36,3.19-1.49-3.56-3.78-6.27-7.77-5.51-1.71,.33-3.94,2-4.45,3.54-.82,2.52,1.75,3.24,3.75,3.66,3.59,.76,7.31,1.07,10.81,2.13,5.72,1.74,9.89,5.22,10.36,11.7,.55,7.69-2.32,12.85-8.75,16.01-8.79,4.32-21.59,2.31-27.33-4.55-1.68-2.01-2.72-4.56-4.41-7.47,4.77-1.28,8.7-2.33,12.8-3.43,.5,.96,.9,1.79,1.36,2.59,1.86,3.28,6.61,4.93,9.9,3.18,1.09-.58,2.32-2.05,2.36-3.16,.04-1.08-1.12-2.81-2.15-3.2-2.5-.96-5.26-1.24-7.88-1.92-2.4-.63-4.9-1.14-7.09-2.22-8.07-4.01-10.18-13.63-4.73-20.8,8.06-10.6,27.6-9.32,33.91,2.24,.61,1.11,.99,2.35,1.68,4.03Z" fill="#43a5a1"/>
<path d="m375.25 75.24c-12.71 0.93-15.13 3.59-15.14 16.03v16.64h-12.77v-44.82h12.15c0.1 1.73 0.19 3.37 0.29 5.22 1.95-1.58 3.55-3.41 5.56-4.35 2.07-0.97 4.53-1.23 6.85-1.54 2.14-0.28 3.25 0.65 3.11 3.08-0.19 3.18-0.05 6.37-0.05 9.74z"/>
<style>.1a16f7a6c37af7d35e6ab8253c0b991a{height:12px}</style>
</svg>
