<?xml version="1.0" encoding="UTF-8"?>
<svg version="1.1" viewBox="0 0 162 37" xmlns="http://www.w3.org/2000/svg">
<g fill-rule="evenodd">
<path d="m76.669 8.2507c1.954 0 3.7102 0.39694 5.2687 1.1908 1.558 0.79369 2.7861 1.9446 3.6841 3.4528 0.8975 1.508 1.3469 3.3207 1.3469 5.4373v0.63492c0 2.1172-0.4494 3.9291-1.3469 5.4373-0.89806 1.5082-2.1261 2.6591-3.6841 3.453-1.5586 0.79369-3.3147 1.1904-5.2687 1.1904-1.9548 0-3.7107-0.39675-5.2687-1.1904-1.5586-0.79388-2.7866-1.9448-3.6841-3.453-0.89824-1.5082-1.3469-3.3201-1.3469-5.4373v-0.63492c0-2.1166 0.44866-3.9293 1.3469-5.4373 0.8975-1.5082 2.1255-2.6591 3.6841-3.4528 1.558-0.79388 3.314-1.1908 5.2687-1.1908zm48.91 0c1.954 0 3.7102 0.39694 5.2687 1.1908 1.558 0.79369 2.7861 1.9446 3.6841 3.4528 0.8975 1.508 1.3469 3.3207 1.3469 5.4373v0.63492c0 2.1172-0.4494 3.9291-1.3469 5.4373-0.89806 1.5082-2.1261 2.6591-3.6841 3.453-1.5586 0.79369-3.3147 1.1904-5.2687 1.1904-1.9548 0-3.7107-0.39675-5.2687-1.1904-1.5586-0.79388-2.7866-1.9448-3.6841-3.453-0.89824-1.5082-1.3469-3.3201-1.3469-5.4373v-0.63492c0-2.1166 0.44866-3.9293 1.3469-5.4373 0.8975-1.5082 2.1255-2.6591 3.6841-3.4528 1.558-0.79388 3.314-1.1908 5.2687-1.1908zm-69.462 0.23816c1.5314 0 2.8722 0.3511 4.021 1.0518 1.1488 0.70145 2.0402 1.667 2.6739 2.8973 0.63392 1.2303 0.9507 2.6658 0.9507 4.3061v11.748h-4.9914v-11.351c0-1.4813-0.36328-2.5926-1.0893-3.3337-0.72674-0.7404-1.7628-1.1112-3.1099-1.1112-1.5318 0-2.7204 0.50969-3.5653 1.5279-0.84542 1.019-1.2677 2.4409-1.2677 4.2666v10.001h-4.9914v-19.685h4.9122v2.5797h0.71316c0.31678-0.68766 0.91108-1.3425 1.7825-1.9646 0.87164-0.62131 2.1918-0.93272 3.9615-0.93272zm52.911-5.7946v6.1121h5.3878v4.1276h-5.3878v10.24c0 0.79388 0.3696 1.1906 1.1094 1.1906h3.803v4.1276h-5.5461c-1.2943 0-2.3441-0.40309-3.1493-1.2104-0.80598-0.80692-1.2083-1.8852-1.2083-3.2348v-11.113h-5.1139c-1.4433 0.03224-2.3114 0.57547-3.1296 1.2501-0.81882 0.6748-1.228 1.7135-1.228 3.1157v11.192h-4.9914v-19.685h4.9122v2.2225h0.71316c0.29018-0.79369 0.80096-1.3278 1.4745-1.6986 0.67336-0.3701 1.4302-0.52385 2.3285-0.52385h5.0347v-6.1121h4.9914zm40.825 5.7946c1.5314 0 2.8722 0.3511 4.021 1.0518 1.1488 0.70145 2.0402 1.667 2.6739 2.8973 0.63392 1.2303 0.9507 2.6658 0.9507 4.3061v11.748h-4.9914v-11.351c0-1.4813-0.36328-2.5926-1.0895-3.3337-0.72656-0.7404-1.7628-1.1112-3.1097-1.1112-1.5318 0-2.7204 0.50969-3.5653 1.5279-0.84542 1.019-1.2677 2.4409-1.2677 4.2666v10.001h-4.9914v-19.685h4.9122v2.5797h0.71316c0.31678-0.68766 0.91108-1.3425 1.7825-1.9646 0.87164-0.62131 2.1918-0.93272 3.9615-0.93272zm-73.185 4.207c-1.532 0-2.7996 0.49608-3.803 1.4882-1.0041 0.99235-1.5054 2.4148-1.5054 4.2664v0.39694c0 1.8524 0.5013 3.2743 1.5054 4.2666 1.0033 0.99216 2.271 1.4882 3.803 1.4882 1.5314 0 2.7991-0.49608 3.803-1.4882 1.0033-0.99235 1.5054-2.4143 1.5054-4.2666v-0.39694c0-1.8516-0.49516-3.2741-1.4855-4.2664-0.99051-0.99216-2.2649-1.4882-3.8229-1.4882zm48.91 0c-1.532 0-2.7996 0.49608-3.803 1.4882-1.0041 0.99235-1.5054 2.4148-1.5054 4.2664v0.39694c0 1.8524 0.5013 3.2743 1.5054 4.2666 1.0033 0.99216 2.271 1.4882 3.803 1.4882 1.5314 0 2.7991-0.49608 3.803-1.4882 1.0033-0.99235 1.5054-2.4143 1.5054-4.2666v-0.39694c0-1.8516-0.49516-3.2741-1.4855-4.2664-0.9905-0.99216-2.2649-1.4882-3.8229-1.4882zm34.635-3.8991 0.43099 1.8915h0.10249l0.43099-1.8915h0.82086v2.2821h-0.43099v-1.8915h-0.10249l-0.43099 1.8915h-0.67726l-0.43099-1.8915h-0.10249v1.8915h-0.43099v-2.2821h0.82086zm-1.1287 0v0.3906h-0.75929v1.8915h-0.43099v-1.8915h-0.7593v-0.3906h1.9496z" fill="#242424"/>
<path d="m36.931 18.501c0 10.201-8.2832 18.499-18.465 18.499-10.183 0-18.466-8.2986-18.466-18.499 0-10.202 8.2834-18.501 18.466-18.501 2.8142 0 5.483 0.63343 7.8723 1.7665l-3.0669 3.9584c-1.4955-0.56597-3.1144-0.87588-4.8054-0.87588-7.18 0-13.08 5.5913-13.59 12.657-0.010045 0.14256-0.017857 0.28606-0.023809 0.43048-0.0078124 0.1871-0.011905 0.37514-0.011905 0.5641 0 7.5269 6.1123 13.65 13.626 13.65 7.5128 0 13.625-6.1235 13.625-13.65 0-1.0063-0.10956-1.9881-0.31603-2.9321l3.5588-4.5928c1.0264 2.2998 1.5973 4.8471 1.5973 7.5249" fill="#FFE01A"/>
<path d="m33.167 7.3182-3.1105 4.0128-10.919 14.091-8.9077-7.9781 3.225-3.6149 5.0405 4.5145 8.2656-10.666 2.9663-3.8289c1.293 0.99962 2.4505 2.1673 3.4393 3.4696" fill="#242424"/>
</g>
<style>.04f7ba7dc45496e1d52a747e5f6c6f88{height:55px}</style>
</svg>
