<?xml version="1.0" encoding="UTF-8"?>
<svg enable-background="new 0 0 652 652" version="1.1" viewBox="25.2 223.73 600 203.64" xml:space="preserve" xmlns="http://www.w3.org/2000/svg">
<path d="m58.9 259.4c6.3 5.1 8.7 4.8 20.6 4l112.2-6.7c2.4 0 0.4-2.4-0.4-2.8l-18.6-13.5c-3.6-2.8-8.3-5.9-17.4-5.2l-108.6 7.9c-4 0.4-4.8 2.4-3.2 4l15.4 12.3zm6.7 26.1v118c0 6.3 3.2 8.7 10.3 8.3l123.3-7.1c7.1-0.4 7.9-4.8 7.9-9.9v-117.2c0-5.1-2-7.9-6.3-7.5l-128.8 7.5c-4.8 0.4-6.4 2.8-6.4 7.9zm121.7 6.4c0.8 3.6 0 7.1-3.6 7.5l-5.9 1.2v87.1c-5.2 2.8-9.9 4.4-13.9 4.4-6.3 0-7.9-2-12.7-7.9l-38.9-61v59l12.3 2.8s0 7.1-9.9 7.1l-27.3 1.6c-0.8-1.6 0-5.5 2.8-6.3l7.1-2v-78l-9.9-0.8c-0.8-3.6 1.2-8.7 6.7-9.1l29.3-2 40.4 61.8v-54.7l-10.3-1.2c-0.8-4.4 2.4-7.5 6.3-7.9l27.5-1.6zm-149.8-59.4 113-8.3c13.9-1.2 17.4-0.4 26.2 5.9l36.1 25.3c6 4.4 7.9 5.5 7.9 10.3v139c0 8.7-3.2 13.9-14.3 14.7l-131.2 7.9c-8.3 0.4-12.3-0.8-16.7-6.3l-26.6-34.5c-4.8-6.3-6.7-11.1-6.7-16.6v-123.6c0-7.1 3.2-13 12.3-13.8z"/>
	<path d="m329.2 393.4h-14l-40.4-76.3v76.3h-10.6v-85.3h17.6l36.9 69.6v-69.6h10.6v85.3z"/>
	<path d="m405.5 361.5c0 10.4-2.7 18.6-8 24.7-5.3 6-12.5 9-21.5 9s-16.2-3-21.6-9c-5.3-6-8-14.3-8-24.7s2.7-18.7 8-24.7 12.5-9.1 21.6-9.1c9 0 16.1 3 21.5 9.1 5.3 6 8 14.3 8 24.7zm-11.1 0c0-8.3-1.6-14.4-4.9-18.5-3.2-4-7.7-6-13.5-6s-10.4 2-13.6 6-4.8 10.2-4.8 18.5c0 8 1.6 14.1 4.9 18.2 3.2 4.1 7.8 6.2 13.6 6.2 5.7 0 10.2-2.1 13.5-6.2 3.2-4 4.8-10.1 4.8-18.2z"/>
	<path d="m455.4 392.9c-2 0.5-4.2 1-6.6 1.3s-4.5 0.5-6.4 0.5c-6.5 0-11.5-1.8-14.9-5.3s-5.1-9.1-5.1-16.9v-34h-7.3v-9h7.3v-18.4h10.8v18.4h22.2v9h-22.2v29.1c0 3.4 0.1 6 0.2 7.9 0.2 1.9 0.7 3.7 1.6 5.3 0.8 1.5 2 2.6 3.5 3.3s3.7 1.1 6.7 1.1c1.8 0 3.6-0.3 5.5-0.8s3.3-0.9 4.1-1.3h0.6v9.8z"/>
	<path d="m479.9 318.8h-12.1v-11.2h12.1v11.2zm-0.7 74.6h-10.8v-64h10.8v64z"/>
	<path d="m555.1 361.5c0 10.4-2.7 18.6-8 24.7-5.3 6-12.5 9-21.5 9s-16.2-3-21.6-9c-5.3-6-8-14.3-8-24.7s2.7-18.7 8-24.7 12.5-9.1 21.6-9.1c9 0 16.1 3 21.5 9.1 5.3 6 8 14.3 8 24.7zm-11.2 0c0-8.3-1.6-14.4-4.9-18.5-3.2-4-7.7-6-13.5-6s-10.4 2-13.6 6-4.8 10.2-4.8 18.5c0 8 1.6 14.1 4.9 18.2 3.2 4.1 7.8 6.2 13.6 6.2 5.7 0 10.2-2.1 13.5-6.2 3.2-4 4.8-10.1 4.8-18.2z"/>
	<path d="m625.2 393.4h-10.8v-36.4c0-2.9-0.2-5.7-0.5-8.3s-1-4.6-1.9-6c-1-1.6-2.3-2.8-4.1-3.6s-4.1-1.2-7-1.2-6 0.7-9.2 2.2-6.3 3.3-9.2 5.6v47.8h-10.8v-64h10.8v7.1c3.4-2.8 6.8-5 10.4-6.5 3.6-1.6 7.3-2.3 11.1-2.3 6.9 0 12.2 2.1 15.8 6.2 3.6 4.2 5.4 10.2 5.4 18v41.4z"/>
<style>.075c2a2a545cceab2672195855cd9d5e{height:26px}</style>
</svg>
