<?xml version="1.0" encoding="UTF-8"?>
<svg viewBox="0 0 180 26" xmlns="http://www.w3.org/2000/svg">
<path d="m44.078 22.343c-3.0034 0-5.0718-2.5039-5.0718-5.7635 0-3.2595 2.0684-5.7635 5.0718-5.7635s5.0719 2.504 5.0719 5.7635c0 3.2596-2.0364 5.7635-5.0719 5.7635zm0-14.287c-4.1753 0-8.0112 3.5733-8.0112 8.5107s3.8423 8.5107 8.0112 8.5107 8.0113-3.5669 8.0113-8.5107-3.8424-8.5107-8.0113-8.5107z" clip-rule="evenodd" fill="#1E2423" fill-rule="evenodd"/>
<path d="m73.785 8.0557c-1.0056-0.00282-1.9969 0.23806-2.8891 0.70201-0.8922 0.46394-1.6587 1.1371-2.234 1.962h-0.5635c-0.4504-0.75999-1.0782-1.3995-1.8297-1.864-0.7514-0.46441-1.6042-0.73988-2.4854-0.80282-0.8811-0.06294-1.7644 0.08852-2.5743 0.44141-0.8099 0.3529-1.5222 0.89673-2.076 1.585h-0.4675l-0.5699-1.8635h-1.9212v16.65h2.9394v-9.4841c0-3.0611 1.8699-4.7965 4.0344-4.7965 2.8754 0 3.2724 3.0354 3.2724 6.263v8.0176h2.9394v-9.7147c0.096-2.9329 1.9211-4.5659 4.0344-4.5659 2.8753 0 3.2724 3.0354 3.2724 6.263v8.0176h2.9393v-9.0294c0-4.598-2.0044-7.7935-5.8403-7.7935" clip-rule="evenodd" fill="#1E2423" fill-rule="evenodd"/>
<path d="m92.267 8.0555c-0.9161-0.03778-1.8292 0.12749-2.6739 0.48398-0.8448 0.35649-1.6002 0.89538-2.2123 1.5781h-0.397l-0.5956-1.9212h-1.9211v16.65h2.9201v-9.4649c0-2.9265 1.9981-4.7965 4.4828-4.7965 3.2851 0 3.7846 3.298 3.7846 6.263v8.0176h2.9202v-9.0294c0-4.63-2.0877-7.7935-6.3078-7.7935" clip-rule="evenodd" fill="#1E2423" fill-rule="evenodd"/>
<path d="m106.76 8.2227h-2.92v16.656h2.92v-16.656z" fill="#1E2423"/>
<path d="m105.3 4.8477c1.085 0 1.966-0.88018 1.966-1.966 0-1.0858-0.881-1.966-1.966-1.966-1.086 0-1.966 0.88021-1.966 1.966 0 1.0858 0.88 1.966 1.966 1.966z" fill="#1E2423"/>
<path d="m117.68 15.068c-1.633-0.4355-3.202-0.9734-3.202-2.504 0-1.3704 1.198-2.2413 2.735-2.2413 1.767 0 3.074 1.1399 3.074 2.3694h2.715c0-2.299-2.037-4.7388-5.764-4.7388-3.067 0-5.507 1.6714-5.507 4.6428 0 3.3364 3.106 4.2393 5.373 4.8413 1.838 0.4995 3.471 1.031 3.471 2.7344 0 1.7035-1.467 2.4015-3.036 2.4015-1.837 0-3.605-1.0695-3.605-3.1379h-2.702c0 3.0418 2.504 5.5457 6.339 5.5457 3.273 0 5.764-1.8379 5.764-4.9438 0-3.4388-3.106-4.3033-5.642-4.9693" clip-rule="evenodd" fill="#1E2423" fill-rule="evenodd"/>
<path d="m129.84 14.799c0.531-2.6704 2.401-4.3738 4.873-4.3738s4.182 1.8058 4.579 4.3738h-9.452zm4.911-6.8457c-4.175 0-7.921 3.2019-7.921 8.3826s3.746 8.6452 7.953 8.6452c1.543-0.0054 3.049-0.4684 4.328-1.3302s2.273-2.0837 2.858-3.5111h-3.074c-0.437 0.6865-1.047 1.2454-1.769 1.6199s-1.53 0.5514-2.343 0.5126c-2.875 0-4.809-1.9212-5.078-5.0399h12.629c0.333-6.3078-3.574-9.2791-7.583-9.2791z" clip-rule="evenodd" fill="#1E2423" fill-rule="evenodd"/>
<path d="m154.26 8.0555c-0.915-0.03817-1.827 0.12695-2.671 0.48349-0.844 0.35655-1.598 0.89566-2.209 1.5786h-0.403l-0.596-1.9212h-1.921v16.65h2.927v-9.4649c0-2.9265 1.991-4.7965 4.482-4.7965 3.292 0 3.785 3.298 3.785 6.263v8.0176h2.927v-9.0294c0-4.63-2.094-7.7935-6.315-7.7935" clip-rule="evenodd" fill="#1E2423" fill-rule="evenodd"/>
<path d="m172.39 22.305c-2.491 0-4.982-2.1645-4.982-5.7634 0-3.599 2.491-5.7635 4.982-5.7635 2.197 0 4.784 1.6714 4.784 5.7635 0 4.092-2.562 5.7634-4.784 5.7634zm4.784-21.133v9.5033c-0.535-0.83907-1.278-1.5254-2.156-1.9923-0.879-0.46684-1.864-0.69825-2.858-0.67169-4.22 0-7.685 3.5606-7.685 8.498 0 4.9373 3.458 8.4979 7.685 8.4979 0.918 0.0272 1.83-0.1675 2.657-0.5677 0.827-0.4003 1.546-0.9942 2.094-1.7313h0.525l0.641 2.1325h1.921v-23.669h-2.824z" clip-rule="evenodd" fill="#1E2423" fill-rule="evenodd"/>
<path d="m19.711 1.2491h-15.581c-0.54212-8.4e-4 -1.0791 0.1052-1.5802 0.31208-0.5011 0.20688-0.95649 0.51053-1.3401 0.89357-0.38363 0.38304-0.68799 0.83796-0.89564 1.3387-0.20766 0.50078-0.31454 1.0376-0.31454 1.5797v15.581c-6.5357e-7 0.5421 0.10688 1.0789 0.31454 1.5797s0.51201 0.9557 0.89564 1.3387c0.38364 0.3831 0.83903 0.6867 1.3401 0.8936 0.50109 0.2069 1.0381 0.3129 1.5802 0.3121h7.0955v-3.4133c0-3.2916-0.4099-5.8147-2.8562-6.5447v-2.696c3.9768 0.3586 5.9492 3.3171 5.9492 8.1777v4.4827h5.3921c1.0938 0 2.1427-0.4345 2.9161-1.2079 0.7735-0.7735 1.208-1.8224 1.208-2.9162v-15.587c0-1.0938-0.4345-2.1428-1.208-2.9162-0.7734-0.77341-1.8223-1.2079-2.9161-1.2079zm-7.6847 8.6068c-0.4524 0.00126-0.895-0.13173-1.2718-0.38217s-0.6709-0.60705-0.84487-1.0247c-0.17402-0.41763-0.2202-0.8775-0.13272-1.3214 0.08749-0.4439 0.30469-0.85186 0.62419-1.1722s0.7268-0.53873 1.1705-0.62747c0.4436-0.08873 0.9036-0.04384 1.3217 0.12901 0.4182 0.17284 0.7756 0.46587 1.0271 0.84197s0.3857 0.81835 0.3857 1.2708c0 0.60523-0.24 1.1858-0.6673 1.6143-0.4274 0.42855-1.0072 0.67017-1.6125 0.67187z" fill="#1E2423"/>
<style>.4255911e815d7ffa21b12d026a52ae33{height:69px}</style>
</svg>
