<?xml version="1.0" encoding="UTF-8"?>
<svg fill="none" viewBox="0 0 160 30" xmlns="http://www.w3.org/2000/svg">
<path d="m14.289 29.632-13.431-6.179c-1.1441-0.5394-1.1441-1.3731 0-1.8635l4.676-2.1577 8.7053 4.0212c1.1442 0.5395 2.9847 0.5395 4.0791 0l8.7053-4.0212 4.6761 2.1577c1.1441 0.5395 1.1441 1.3732 0 1.8635l-13.431 6.179c-1.0447 0.4904-2.8852 0.4904-3.9796 0z" clip-rule="evenodd" fill="url(#c)" fill-rule="evenodd"/>
<path d="m14.289 22.031-13.431-6.179c-1.1441-0.5395-1.1441-1.3731 0-1.8635l4.5765-2.1087 8.8546 4.0703c1.1441 0.5394 2.9847 0.5394 4.0791 0l8.8545-4.0703 4.5765 2.1087c1.1442 0.5394 1.1442 1.3731 0 1.8635l-13.431 6.179c-1.1442 0.5394-2.9847 0.5394-4.0791 0z" clip-rule="evenodd" fill="url(#b)" fill-rule="evenodd"/>
<path d="m14.289 14.626-13.431-6.179c-1.1441-0.53943-1.1441-1.3731 0-1.8635l13.431-6.179c1.1441-0.53944 2.9847-0.53944 4.0791 0l13.431 6.179c1.1442 0.53944 1.1442 1.3731 0 1.8635l-13.431 6.179c-1.1442 0.4904-2.9847 0.4904-4.0791 0z" clip-rule="evenodd" fill="url(#a)" fill-rule="evenodd"/>
<path d="m38.791 14.666c0-2.5555 0.7392-4.4842 2.2669-5.7378 1.4784-1.3018 3.2525-1.9287 5.273-1.9287 2.0204 0 3.7453 0.62682 5.2237 1.9287 1.4784 1.3018 2.2176 3.1823 2.2176 5.786 0 2.5555-0.7392 4.4842-2.2176 5.7378-1.4784 1.3019-3.2525 1.9287-5.2237 1.9287-2.0205 0-3.7453-0.6268-5.273-1.9287s-2.2669-3.2305-2.2669-5.786zm3.2525 0c0 1.784 0.345 3.0376 0.9856 3.8573 0.6899 0.8197 1.4291 1.3501 2.2176 1.543 0.1971 0.0482 0.345 0.0964 0.5421 0.0964 0.1478 0 0.3449 0.0482 0.4928 0.0482 0.1971 0 0.3449 0 0.5421-0.0482 0.1971 0 0.3449-0.0482 0.542-0.0964 0.7885-0.1929 1.5277-0.7233 2.1684-1.543 0.6406-0.8197 0.9856-2.1215 0.9856-3.8091 0-1.7358-0.345-2.9894-0.9856-3.8091-0.6407-0.8197-1.3799-1.3501-2.1684-1.543-0.1971-0.04822-0.3942-0.09644-0.542-0.09644-0.1972 0-0.345-0.04821-0.5421-0.04821s-0.345 0-0.4928 0.04821c-0.1479 0-0.345 0.04822-0.5421 0.09644-0.7885 0.19286-1.5277 0.72327-2.2176 1.543-0.6406 0.7232-0.9856 2.0251-0.9856 3.7609z" fill="#666"/>
<path d="m55.398 7.1443h4.041l5.3222 9.4505 0.7885 2.0733h0.0493l-0.0493-2.7001v-8.8237h3.1046v15.044h-4.0409l-5.3223-9.8362-0.7884-1.6876h-0.0493l0.0493 2.6519v8.8719h-3.1047v-15.044z" fill="#666"/>
<path d="m71.858 7.1443h3.1047v12.488h6.1107v2.5555h-9.2154v-15.044z" fill="#666"/>
<path d="m79.151 7.1443h3.5974l3.1539 5.2556 0.4928 1.0608h0.0986l0.4928-1.0608 3.2032-5.2556h3.3018l-5.5687 8.9201v6.1235h-3.1046v-6.1717l-5.6672-8.8719z" fill="#666"/>
<path d="m93.098 14.666c0-2.5555 0.7392-4.4842 2.2668-5.7378 1.4784-1.3018 3.2525-1.9287 5.2735-1.9287 2.02 0 3.745 0.62682 5.223 1.9287 1.479 1.3018 2.218 3.1823 2.218 5.786 0 2.5555-0.739 4.4842-2.218 5.7378-1.478 1.3019-3.252 1.9287-5.223 1.9287-2.021 0-3.7458-0.6268-5.2735-1.9287-1.4784-1.3019-2.2668-3.2305-2.2668-5.786zm3.2524 0c0 1.784 0.345 3.0376 0.9856 3.8573 0.69 0.8197 1.3799 1.3501 2.2176 1.543 0.1972 0.0482 0.345 0.0964 0.5417 0.0964 0.148 0 0.345 0.0482 0.493 0.0482 0.197 0 0.345 0 0.542-0.0482 0.197 0 0.345-0.0482 0.542-0.0964 0.789-0.1929 1.528-0.7233 2.169-1.543 0.64-0.8197 0.985-2.1215 0.985-3.8091 0-1.7358-0.345-2.9894-0.985-3.8091-0.641-0.8197-1.38-1.3501-2.169-1.543-0.197-0.04822-0.394-0.09644-0.542-0.09644-0.197 0-0.345-0.04821-0.542-0.04821s-0.345 0-0.493 0.04821c-0.1474 0-0.3445 0.04822-0.5417 0.09644-0.7884 0.19286-1.5276 0.72327-2.2176 1.543-0.6406 0.7232-0.9856 2.0251-0.9856 3.7609z" fill="#333"/>
<path d="m110.25 7.1443h8.575v2.5073h-5.47v3.6644h5.223v2.5555h-5.223v6.3164h-3.105v-15.044z" fill="#333"/>
<path d="m121.14 7.1443h8.575v2.5073h-5.47v3.6644h5.223v2.5555h-5.223v6.3164h-3.105v-15.044z" fill="#333"/>
<path d="m131.54 22.188v-15.044h3.105v15.044h-3.105z" fill="#333"/>
<path d="m148.32 7.4819v2.6037c-0.542-0.19283-1.084-0.33748-1.675-0.43392-0.591-0.09643-1.281-0.14465-1.971-0.14465-1.626 0-2.858 0.48217-3.746 1.4948-0.887 0.9643-1.33 2.2179-1.33 3.7127 0 1.4465 0.394 2.6519 1.232 3.6162 0.838 0.9644 2.02 1.4947 3.548 1.4947 0.542 0 1.084-0.0482 1.725-0.0964 0.641-0.0964 1.281-0.2411 1.971-0.5304l0.197 2.5555c-0.098 0.0482-0.246 0.0964-0.394 0.1447-0.197 0.0482-0.394 0.0964-0.641 0.1446-0.394 0.0964-0.887 0.1447-1.478 0.2411-0.591 0.0482-1.183 0.0964-1.823 0.0964h-0.247-0.246c-1.774-0.0964-3.401-0.7714-4.879-1.9286-1.478-1.2055-2.218-3.0859-2.218-5.5932 0-2.4591 0.74-4.3877 2.169-5.7378 1.429-1.3501 3.4-2.0251 5.815-2.0251 0.64 0 1.232 0 1.725 0.04822 0.542 0.04822 1.034 0.14465 1.577 0.24108 0.098 0.04822 0.246 0.04822 0.345 0.09644 0.098-0.04822 0.197 0 0.344 0z" fill="#333"/>
<path d="m150.78 7.1444h9.216v2.3626h-6.062v3.7609h5.47v2.3145h-5.47v4.243h6.062v2.3627h-9.216v-15.044z" fill="#333"/>
<defs>
<linearGradient id="c" x1="16.317" x2="16.317" y1="35.489" y2="12.93" gradientUnits="userSpaceOnUse">
<stop stop-color="#FCC2B1" offset="0"/>
<stop stop-color="#D9420B" offset=".8848"/>
</linearGradient>
<linearGradient id="b" x1="16.317" x2="16.317" y1="25.722" y2="10.886" gradientUnits="userSpaceOnUse">
<stop stop-color="#DEEDC9" offset="0"/>
<stop stop-color="#8BBA25" offset=".6606"/>
</linearGradient>
<linearGradient id="a" x1="16.317" x2="16.317" y1="19.714" y2="-.47465" gradientUnits="userSpaceOnUse">
<stop stop-color="#C2EBFA" offset="0"/>
<stop stop-color="#26A8DE" offset="1"/>
</linearGradient>
</defs>
<style>.91b109b9ba3cc94b9be15eea8569a403{height:82px}</style>
</svg>
