<?xml version="1.0" encoding="UTF-8"?>
<svg version="1.1" viewBox="0 0 1571 305" xmlns="http://www.w3.org/2000/svg">
<path transform="translate(149.73 -.39111)" d="m0 0c2.2705 0.016113 4.5392 1.561e-5 6.8096-0.019043 13.876-0.020931 27.254 2.0104 40.523 6.1602 1.2518 0.38732 1.2518 0.38732 2.5288 0.78247 20.567 6.5464 38.407 17.016 54.409 31.468 0.81855 0.68707 1.6371 1.3741 2.4805 2.082 5.9687 5.0441 10.738 10.756 15.52 16.918 0.7309 0.90363 1.4618 1.8073 2.2148 2.7383 24.553 31.198 34.39 72.043 29.835 111.2-5.348 40.372-25.969 77.669-58.355 102.64-33.029 24.72-74.001 35.582-114.93 30.16-27.156-4.0296-52.424-14.376-73.762-31.746-0.56993-0.4631-1.1399-0.92619-1.7271-1.4033-31.025-25.386-50.375-60.69-55.273-100.6-0.11202-2.6623-0.18692-5.2987-0.20312-7.9609-0.0057001-0.74883-0.0114-1.4977-0.017273-2.2692-0.0093995-1.5816-0.015964-3.1633-0.019836-4.745-0.0095989-2.3589-0.040625-4.717-0.072266-7.0757-0.27355-38.981 16.296-75.292 43.312-102.95 0.78633-0.8482 1.5727-1.6964 2.3828-2.5703 16.446-17.315 38.792-29.712 61.492-36.68 0.75297-0.23413 1.5059-0.46825 2.2817-0.70947 13.391-3.9057 26.667-5.5484 40.573-5.4316zm-42.729 94.391c-0.76957 0.60586-1.5391 1.2117-2.332 1.8359-13.785 11.507-23.257 28.868-24.912 46.805-1.3432 21.819 3.5102 39.959 17.908 56.796 13.574 14.891 31.376 23.353 51.457 24.785 21.765 0.61272 39.97-7.671 55.566-22.41 13.689-14.177 20.742-32.823 20.681-52.433-0.51427-17.937-7.3449-34.079-19.369-47.38-0.62648-0.7077-1.253-1.4154-1.8984-2.1445-12.758-13.618-31.017-20.853-49.414-21.849-17.585-0.51749-33.913 5.0018-47.688 15.993z" fill="#007AFF"/>
<path transform="translate(518,9)" d="m0 0c6.4368 4.8298 12.479 10.536 16.125 17.812 0.46793 0.90686 0.46793 0.90686 0.94531 1.832 2.6171 6.6307 3.2229 12.765 3.1971 19.81 0.0045311 0.92055 0.0090622 1.8411 0.013731 2.7895 0.012606 3.0681 0.011026 6.136 0.0093712 9.2041 0.0059877 2.2067 0.012794 4.4133 0.020355 6.62 0.017644 5.9837 0.022355 11.967 0.023632 17.951 0.0014232 3.7423 0.0056961 7.4846 0.010994 11.227 0.017542 12.393 0.026841 24.786 0.025339 37.179-7.991e-5 0.66712-1.5983e-4 1.3342-2.4216e-4 2.0216-8.176e-5 0.66794-1.6352e-4 1.3359-2.4776e-4 2.0241-8.1225e-4 10.816 0.018313 21.631 0.046524 32.447 0.028794 11.128 0.042171 22.255 0.040812 33.383-5.0879e-4 6.2384 0.0051286 12.477 0.026356 18.715 0.019433 5.8713 0.019472 11.742 0.0049667 17.613-0.002083 2.1473 0.002582 4.2946 0.014721 6.4419 0.086671 16.402-0.77 30.263-12.504 42.929-10.579 9.4208-21.732 11.89-35.527 11.383-5.4209-0.35802-9.7857-1.6137-14.473-4.3828-0.77473-0.4357-1.5495-0.87141-2.3477-1.3203-9.8589-6.024-15.987-14.466-19.203-25.584-0.45371-2.1167-0.57793-3.9876-0.58353-6.1496-0.0044578-0.80236-0.0089157-1.6047-0.013509-2.4314 1.8436e-4 -0.87576 3.6872e-4 -1.7515 5.5867e-4 -2.6538-0.0036767-0.93487-0.0073534-1.8697-0.011141-2.833-0.011035-3.1404-0.01488-6.2808-0.018689-9.4212-0.0062649-2.2487-0.012912-4.4974-0.019913-6.7462-0.021042-7.3925-0.031403-14.785-0.041367-22.177-0.0040477-2.5455-0.0081646-5.0911-0.01235-7.6366-0.01687-10.59-0.031504-21.18-0.038749-31.77-0.0019098-2.7469-0.0038301-5.4938-0.005786-8.2407-4.8374e-4 -0.68269-9.6748e-4 -1.3654-0.0014659-2.0688-0.0082938-11.05-0.03362-22.1-0.066115-33.15-0.03312-11.356-0.050754-22.711-0.054278-34.067-0.0023491-6.3714-0.011291-12.743-0.036461-19.114-0.02331-5.9976-0.027502-11.995-0.017239-17.992 4.9477e-4 -2.1965-0.0058081-4.3931-0.019556-6.5896-0.094019-15.917 1.025-28.736 12.268-40.991 13.654-12.956 35.951-15.52 52.223-6.0625z" fill="#007AFF"/>
<path transform="translate(403.75,10.75)" d="m0 0c9.0219 6.4603 14.91 15.333 17.25 26.25 0.088698 1.349 0.13072 2.7016 0.13422 4.0535 0.0044578 0.80236 0.0089157 1.6047 0.013509 2.4314-1.8436e-4 0.87576-3.6872e-4 1.7515-5.5867e-4 2.6538 0.0036767 0.93487 0.0073534 1.8697 0.011141 2.833 0.011035 3.1404 0.01488 6.2808 0.018689 9.4212 0.0062649 2.2487 0.012912 4.4974 0.019913 6.7462 0.021042 7.3925 0.031403 14.785 0.041367 22.177 0.0040477 2.5455 0.0081646 5.0911 0.01235 7.6366 0.01687 10.59 0.031504 21.18 0.038749 31.77 0.0019098 2.7469 0.0038301 5.4938 0.005786 8.2407 4.8374e-4 0.68269 9.6748e-4 1.3654 0.0014659 2.0688 0.0082938 11.05 0.03362 22.1 0.066115 33.15 0.03312 11.356 0.050754 22.711 0.054278 34.067 0.0023491 6.3714 0.011291 12.743 0.036461 19.114 0.02331 5.9976 0.027502 11.995 0.017239 17.992-4.9477e-4 2.1965 0.0058081 4.3931 0.019556 6.5896 0.093379 15.809-0.90339 29.009-12.373 41.026-4.2725 3.9458-8.719 6.8619-14.117 9.0273-0.88043 0.35707-1.7609 0.71414-2.668 1.082-10.492 2.8906-23.797 2.2254-33.332-3.082-11.08-6.5691-17.554-14.59-21.183-26.941-1.9536-8.4756-1.3707-17.436-1.3349-26.075-0.0054285-2.2074-0.012555-4.4148-0.02124-6.6222-0.01815-5.9628-0.0112-11.925 0.0015163-17.888 0.010171-6.2586 7.2296e-4 -12.517-0.0055447-18.776-0.0077289-11.179 0.0046531-22.359 0.025037-33.538 0.017868-10.112 0.014763-20.224-0.003675-30.336-0.021463-11.776-0.029344-23.552-0.017551-35.328 0.0062161-6.2215 0.0071224-12.443-0.006146-18.664-0.011608-5.8508-0.003443-11.701 0.019577-17.552 0.0052609-2.1392 0.0038186-4.2785-0.0050507-6.4178-0.055442-14.738 0.028843-28.368 10.531-39.862 0.50145-0.60328 1.0029-1.2066 1.5195-1.8281 14.141-15.827 38.131-15.905 55.23-5.4219z" fill="#007AFF"/>
<path transform="translate(754.81 65.625)" d="m0 0c9.0121 7.0253 15.093 16.84 16.562 28.296 0.14095 3.1238 0.16655 6.2259 0.14319 9.3528 0.0070093 1.1739 0.014019 2.3477 0.02124 3.5572 0.017486 3.8484 0.0059898 7.696-0.0075684 11.544 8.931e-4 2.6932 0.0065772 5.3864 0.011597 8.0796 0.0072499 5.6318-0.0022409 11.263-0.021362 16.895-0.021764 6.4843-0.014711 12.968 0.0073056 19.452 0.01823 5.5961 0.020675 11.192 0.010245 16.788-0.0061934 3.3298-0.0055852 6.6591 0.006146 9.9889 0.010221 3.7161-0.0054145 7.4312-0.027603 11.147 0.0080969 1.084 0.016194 2.1679 0.024536 3.2847-0.13102 11.915-4.2535 22.133-12.319 30.926-9.897 9.391-21.365 11.656-34.531 11.395-11.597-0.56921-19.943-5.9982-27.691-14.332-2.3742-2.8153-4.4742-5.5179-6.125-8.8125-0.31195-0.60457-0.62391-1.2091-0.94531-1.832-2.8965-7.3387-3.2226-14.135-3.2043-21.937-0.0051109-1.136-0.010222-2.2721-0.015488-3.4425-0.013852-3.7394-0.012943-7.4787-0.010635-11.218-0.0038894-2.6102-0.0082246-5.2204-0.012985-7.8306-0.0081952-5.4655-0.007317-10.931-0.0019074-16.396 0.0060365-6.2962-0.0062694-12.592-0.02757-18.888-0.019813-6.0826-0.022781-12.165-0.019265-18.248-5.1201e-4 -2.5763-0.005727-5.1526-0.015812-7.7288-0.012393-3.6087-0.0055548-7.2169 0.0060062-10.826-0.011466-1.5823-0.011466-1.5823-0.023163-3.1966 0.088284-12.524 4.101-23.23 12.708-32.456 3.8119-3.5606 7.9746-5.9956 12.688-8.1875 0.9958-0.48146 0.9958-0.48146 2.0117-0.97266 13.46-5.5122 29.118-2.2437 40.801 5.5977z" fill="#007AFF"/>
<path transform="translate(635.16 105.29)" d="m0 0c10.012 6.9122 16.968 16.391 19.388 28.421 0.80834 5.8419 0.681 11.726 0.69604 17.614 0.00965 2.2779 0.040693 4.5548 0.072266 6.8325 0.10352 14.181-1.9699 27.373-11.746 38.375-9.5923 9.0182-20.57 12.845-33.598 12.688-10.969-0.7938-21.123-5.5436-28.969-13.215-9.6312-12.142-11.202-24.245-11.24-39.32-0.00965-2.2779-0.040693-4.5548-0.072266-6.8325-0.11093-15.125 2.4539-27.59 12.938-39.098 13.734-13.071 36.407-15.075 52.531-5.4648z" fill="#007AFF"/>
<path transform="translate(1059.6 96.879)" d="m0 0c8.7382 7.2941 14.42 16.559 18.441 27.121 0.32098 0.83145 0.64195 1.6629 0.97266 2.5195 5.4209 17.221 3.3159 38.296-4.6602 54.293-3.3769 5.7305-7.6278 10.495-12.312 15.188-0.56461 0.57621-1.1292 1.1524-1.7109 1.7461-12.367 11.613-29.771 14.754-46.105 14.457-15.663-0.58795-30.842-6.8535-42.074-17.859-13.238-14.709-18.015-31.849-17.457-51.332 0.95945-17.982 8.3672-32.759 21.348-45.012 23.369-19.843 59.375-18.88 83.559-1.1211zm-71.746 21.371c-8.9759 11.079-11.098 23.904-9.8125 37.75 1.9163 10.989 7.1616 20.431 15.938 27.438 9.8721 6.7372 19.234 8.4277 31.062 7.5625 11.453-2.2714 19.634-8.2961 26.496-17.594 7.0912-11.346 8.3287-24.97 5.8203-37.941-3.4978-11.248-10.299-21.019-20.754-26.816-17.199-7.8639-35.888-4.2719-48.75 9.6016z" fill="#05294B"/>
<path transform="translate(1500.2 129.75)" d="m0 0 2.8125 2.25 1-8h20v86h-19l-1-9c-0.49629 0.47051-0.99258 0.94102-1.5039 1.4258-8.5595 7.8449-16.389 9.9783-27.953 9.8477-11.008-0.8496-20.585-5.1978-28.316-13.082-9.4694-11.56-11.421-25.77-10.227-40.191 1.5521-8.3726 4.6405-15.395 10-22 0.50145-0.6252 1.0029-1.2504 1.5195-1.8945 13.231-14.776 36.741-16.514 52.668-5.3555zm-38.102 20.734c-5.0152 8.0338-6.4503 15.619-4.5898 25.023 1.9766 6.5887 5.0677 11.208 11.066 14.805 6.4213 3.1523 13.192 4.0758 20.102 1.8164 6.6091-3.045 11.483-6.7526 14.363-13.555 3.082-9.3596 2.2818-16.741-2.0273-25.574-2.9893-4.5062-6.5807-8.7973-11.863-10.59-10.626-2.0397-20.142-0.89355-27.051 8.0742z" fill="#05294B"/>
<path transform="translate(1267.3 122.69)" d="m0 0c0.74838 0.0056396 1.4968 0.011279 2.2678 0.01709 10.887 0.23804 20.205 3.7816 28.427 11.077 7.5399 7.9643 11.468 18.322 11.992 29.219l-1 12-61 1c3.8986 7.7973 6.204 11.602 13.75 15.375 8.7517 1.683 16.403 1.0426 24.25-3.375 1.9602-1.5584 3.3872-3.0646 5-5 3.7573 1.6282 6.6168 4.014 9.75 6.625 0.98484 0.81727 1.9697 1.6345 2.9844 2.4766 1.1215 0.93973 1.1215 0.93973 2.2656 1.8984-0.73988 4.5692-3.1149 6.387-6.5586 9.2578-11.76 8.3918-25.576 10.313-39.656 8.2773-11.645-2.5329-21.606-8.7938-28.285-18.777-6.7404-12.237-8.0652-26.352-4.7422-39.832 3.7568-11.318 10.643-20.629 21.305-26.238 6.2572-3.0259 12.387-4.0543 19.25-4zm-15.094 25.477c-2.2193 3.2138-3.9808 6.1221-5.2188 9.8359h41c-1.2438-6.219-3.3507-10.076-8.4375-13.875-8.563-4.9457-20.967-3.7082-27.344 4.0391z" fill="#05294B"/>
<path transform="translate(1125,94)" d="m0 0v30h25v18h-25c0.11997 6.1749 0.24266 12.35 0.37231 18.524 0.043272 2.0999 0.084952 4.1998 0.125 6.2998 0.05789 3.021 0.12153 6.0419 0.18628 9.0627 0.016712 0.93664 0.033425 1.8733 0.050644 2.8383 0.095157 4.201 0.21294 8.1798 1.2658 12.275 5.2048 1.5066 8.7801 0.38714 13.73-1.3086 2.2695-0.69141 2.2695-0.69141 5.2695-0.69141 0.86501 2.601 1.7173 5.2051 2.5625 7.8125 0.24686 0.73799 0.49371 1.476 0.74805 2.2363 1.8027 5.6113 1.8027 5.6113 0.68945 8.9512-9.4813 4.5214-21.478 6.1808-31.562 2.75-6.0274-3.0685-9.818-6.4173-12.438-12.75-1.9507-6.9914-2.2734-13.822-2.1953-21.039 0.0028299-1.0069 0.0056598-2.0137 0.0085754-3.0511 0.011089-3.1784 0.036172-6.3565 0.061737-9.5348 0.010044-2.1706 0.019168-4.3411 0.027344-6.5117 0.02191-5.2879 0.056361-10.576 0.097656-15.863h-10v-18h10v-28c12-2 12-2 21-2z" fill="#05294B"/>
<path transform="translate(1189,94)" d="m0 0v30h25v18h-25c0.11988 6.3356 0.24252 12.671 0.37231 19.006 0.043312 2.1552 0.08499 4.3105 0.125 6.4658 0.057792 3.0979 0.12146 6.1957 0.18628 9.2935 0.016712 0.96367 0.033425 1.9273 0.050644 2.9202 0.019945 0.90063 0.03989 1.8013 0.06044 2.7292 0.023316 1.1858 0.023316 1.1858 0.047104 2.3956 0.15679 2.1697 0.56438 4.1008 1.1582 6.1894 5.2048 1.5066 8.7801 0.38714 13.73-1.3086 2.2695-0.69141 2.2695-0.69141 5.2695-0.69141 0.83679 2.6239 1.6696 5.249 2.5 7.875 0.23848 0.74637 0.47695 1.4927 0.72266 2.2617 1.7773 5.6367 1.7773 5.6367 1.7773 7.8633-1.3707 0.65489-2.7468 1.2984-4.125 1.9375-1.1486 0.53947-1.1486 0.53947-2.3203 1.0898-8.2901 3.1563-18.726 3.3524-27.055 0.34766-5.8587-2.7062-8.3586-6.0922-11.25-11.875-2.4215-6.7802-2.3845-13.254-2.3477-20.367 0.001415-1.0347 0.0028299-2.0694 0.0042877-3.1355 0.0055781-3.2908 0.018127-6.5815 0.030869-9.8723 0.0050178-2.237 0.0095802-4.474 0.013672-6.7109 0.011-5.4714 0.02825-10.943 0.048828-16.414h-10v-18h10v-28c12-2 12-2 21-2z" fill="#05294B"/>
<path transform="translate(1379,123)" d="m0 0v23h-9c-2.8644 0.5121-2.8644 0.5121-5.3125 1.375-1.2008 0.38285-1.2008 0.38285-2.4258 0.77344-4.2735 1.4629-4.2735 1.4629-7.3242 4.5391l-0.9375 2.3125-1.5625 3.375c-2.5335 6.3889-2.6262 12.617-2.7539 19.398-0.020781 0.92374-0.041562 1.8475-0.062973 2.7992-0.065082 2.934-0.12419 5.8682-0.18312 8.8023-0.043225 1.9961-0.08684 3.9922-0.13086 5.9883-0.10747 4.8788-0.20685 9.7577-0.30664 14.637h-20v-86h20l1 11c0.99-1.0725 1.98-2.145 3-3.25 7.7807-7.7965 14.979-8.75 26-8.75z" fill="#05294B"/>
<path transform="translate(1549,124)" d="m0 0h21v86h-21v-86z" fill="#05294B"/>
<path transform="translate(1413.4 186.62)" d="m0 0c3.9471 3.5712 5.3921 6.5454 6.0625 11.812-0.53003 4.316-1.6509 7.2237-4.4375 10.562-4.3362 2.9872-7.7925 3.5579-13 3-4.6299-1.7249-7.6272-3.6195-10-8-0.8371-4.6618-1.1118-9.0064 1.2461-13.234 5.3437-6.4498 12.546-7.7918 20.129-4.1406z" fill="#05294B"/>
<path transform="translate(1568.2 87.488)" d="m0 0c2.9941 2.6665 3.253 2.9823 3.6172 6.6992 0.015883 1.6042-7.6567e-4 3.2089-0.046875 4.8125 0.023203 0.80695 0.046406 1.6139 0.070312 2.4453-0.023226 2.3458-0.16185 4.3022-0.82031 6.5547-3.6053 3.3709-6.597 4.5695-11.5 4.5625-3.7116-0.13635-6.1285-0.48403-9.0625-2.8125-3.8604-4.3554-4.8653-6.8031-4.6875-12.793 0.53532-4.1906 2.6768-6.4279 5.6875-9.207 5.5904-3.8178 10.655-3.1108 16.742-0.26172z" fill="#05294B"/>
<style>.43c3f87da6eaa682db314bb534ee1fda{height:13px}</style>
</svg>
