<svg xmlns="http://www.w3.org/2000/svg" version="1.1" viewBox="20.22 2.72 333.27 80.1">
<defs>
<style>.cls-1,.cls-2{fill:#0868b2;}.cls-1{fill-opacity:1;}.cls-3{fill:#7bb1e0;}.cls-4{fill:#5588c7;}.cls-5{fill:#272a67;}</style>
</defs>
<path class="cls-1" d="m145.78 22.47a39.77 39.77 0 0 0-7.18 0.9h-12.45v58.23l15.23 0.22v-19.56c28.62 8.4 37.45-40.79 4.4-39.79zm1.5 12.33a7.38 7.38 0 1 1-7.37 7.38 7.4 7.4 0 0 1 7.37-7.38z"/>
<path class="cls-1" d="M293.15,2.72V22.5c-34.45-6.3-37.75,49.38,1.51,38.71H308V2.72Zm40.67,18.62C304.25,21.29,302,71.1,341.49,62l12,.45-.42-40.21-11.17.22A31.35,31.35,0,0,0,333.82,21.34Zm-93.29.37a27.68,27.68,0,0,0-7.71,1.13l-12.34.75V61.4H235.3V42.55c-.14-9.83,12.67-8.47,12.27,0V61.4h14.82V39.92C261.07,28.64,251.46,21.74,240.53,21.71Zm-48.22.23c-29.2.2-25.94,49.71,8.61,39.91h13.13V23.59H202.43A33.69,33.69,0,0,0,192.31,21.94Zm.45,13.16a7.4,7.4,0,1,1-7.37,7.38A7.37,7.37,0,0,1,192.76,35.1Zm94.56.46A7.37,7.37,0,1,1,280,42.93,7.39,7.39,0,0,1,287.32,35.56Zm45.14,0a7.37,7.37,0,1,1-7.37,7.37A7.39,7.39,0,0,1,332.46,35.56Z"/>
<path class="cls-2" d="M42.58,14.91A11.18,11.18,0,1,1,31.4,3.73,11.17,11.17,0,0,1,42.58,14.91Z"/>
<path class="cls-3" d="m64.25 3.72a39.13 39.13 0 0 0-39.13 39.13v0.36h22.41v-0.69a16.92 16.92 0 0 1 16.72-16.92v-21.88z"/>
<path class="cls-2" d="M109,15.25A11.18,11.18,0,1,1,97.81,4.07,11.18,11.18,0,0,1,109,15.25Z"/>
<path class="cls-4" d="m64.33 3.72a39.13 39.13 0 0 1 39.13 39.13v0.36h-22.41v-0.68a16.92 16.92 0 0 0-16.72-16.93v-21.88z"/>
<path class="cls-5" d="m64.26 82.82a39.13 39.13 0 0 1-39.13-39.13v-0.36h22.41v0.69a16.91 16.91 0 0 0 16.72 16.92v21.88z"/>
<path class="cls-2" d="m64.34 82.82a39.13 39.13 0 0 0 39.13-39.13v-0.36h-22.41v0.68a16.92 16.92 0 0 1-16.72 16.93v21.88z"/>
<style>.b8be77e39bce877bdd7acf3d77a9dfa2{height:23px}</style>
<style>.04f7ba7dc45496e1d52a747e5f6c6f88{height:15px}</style>
</svg>