<?xml version="1.0" encoding="UTF-8"?>
<svg fill="none" viewBox="0 0 191 39" xmlns="http://www.w3.org/2000/svg">
<g clip-path="url(#a)" fill="#FF3924">
<path d="m6.3009 39c3.0608 0 5.5421-2.4993 5.5421-5.5825 0-3.0831-2.4813-5.5825-5.5421-5.5825s-5.5421 2.4994-5.5421 5.5825c0 3.0832 2.4813 5.5825 5.5421 5.5825z"/>
<path d="m18.615 30.555c1.8416-2.4626-0.6984-7.519-5.6733-11.294-4.9749-3.7748-10.501-4.8385-12.342-2.3759-1.8416 2.4626 0.69842 7.519 5.6733 11.294 4.9749 3.7748 10.501 4.8385 12.342 2.3759z"/>
<path d="m26.788 29.126c2.7184-1.9216 0.4452-9.9053-5.0773-17.832-5.5225-7.9268-12.203-12.795-14.921-10.873-2.7184 1.9216-0.44526 9.9053 5.0773 17.832 5.5225 7.9268 12.203 12.795 14.922 10.873z"/>
<path d="m47.905 19.5c0 4.481-2.9657 6.8039-5.9314 6.8039-1.8672 0-3.2955-0.8293-4.1187-2.268v7.4408h-3.4592v-18.476h3.0748l0.3025 2.1306c0.796-1.5211 2.2789-2.4053 4.2006-2.4053 2.9657 0 5.9314 2.2954 5.9314 6.7764v-0.0025zm-3.4319 0c0-2.268-1.4555-3.7067-3.3773-3.7067-1.5647 0-3.2682 1.2714-3.2682 3.7067 0 2.5727 1.6465 3.7341 3.2682 3.7341 1.9218 0 3.3773-1.4112 3.3773-3.7341z"/>
<path d="m59.619 13.001h2.7599v13.001h-2.869l-0.3224-1.8883c-0.7191 1.3338-2.3557 2.1905-4.3593 2.1905-2.9929 0-5.9859-2.3229-5.9859-6.8038 0-4.481 2.993-6.7765 5.9859-6.7765 2.0309 0 3.6972 0.8892 4.3866 2.2205l0.4067-1.9432h-0.0025zm-0.5902 6.4992c0-2.3779-1.7035-3.7067-3.2955-3.7067-1.949 0-3.4591 1.4387-3.4591 3.7067 0 2.2679 1.5374 3.7341 3.4591 3.7341 1.6465 0 3.2955-1.2164 3.2955-3.7341z"/>
<path d="m89.76 13.001h2.7599v13.001h-2.869l-0.3224-1.8883c-0.7191 1.3338-2.3557 2.1905-4.3592 2.1905-2.993 0-5.986-2.3229-5.986-6.8038 0-4.481 2.993-6.7765 5.986-6.7765 2.0308 0 3.6972 0.8892 4.3865 2.2205l0.4067-1.9432h-0.0025zm-0.5902 6.4992c0-2.3779-1.7035-3.7067-3.2955-3.7067-1.949 0-3.4591 1.4387-3.4591 3.7067 0 2.2679 1.5374 3.7341 3.4591 3.7341 1.6466 0 3.2955-1.2164 3.2955-3.7341z"/>
<path d="m117.17 13.001h2.76v13.001h-2.869l-0.323-1.8883c-0.719 1.3338-2.355 2.1905-4.359 2.1905-2.993 0-5.986-2.3229-5.986-6.8038 0-4.481 2.993-6.7765 5.986-6.7765 2.031 0 3.697 0.8892 4.387 2.2205l0.406-1.9432h-2e-3zm-0.59 6.4992c0-2.3779-1.704-3.7067-3.296-3.7067-1.949 0-3.459 1.4387-3.459 3.7067 0 2.2679 1.537 3.7341 3.459 3.7341 1.647 0 3.296-1.2164 3.296-3.7341z"/>
<path d="m77.946 19.5c0 4.481-2.9657 6.8039-5.9314 6.8039-1.8672 0-3.2955-0.8293-4.1187-2.268v7.4408h-3.4592v-18.476h3.0748l0.3025 2.1306c0.796-1.5211 2.2789-2.4053 4.2006-2.4053 2.9657 0 5.9314 2.2954 5.9314 6.7764v-0.0025zm-3.4319 0c0-2.268-1.4555-3.7067-3.3773-3.7067-1.5647 0-3.2682 1.2714-3.2682 3.7067 0 2.5727 1.6465 3.7341 3.2682 3.7341 1.9218 0 3.3773-1.4112 3.3773-3.7341z"/>
<path d="m103.15 13.001h3.789l-7.0568 18.476h-3.8708l2.3607-5.4502-5.0263-13.028h3.8708l2.4449 7.4409c0.248 0.7193 0.3845 1.3837 0.4935 2.1855h0.055c0.109-0.8018 0.275-1.4662 0.493-2.1855l2.445-7.4409 2e-3 0.0025z"/>
<path d="m134.97 13.028h2.527v12.309c0 4.5909-3.268 6.3893-6.37 6.3893-3.625 0-6.013-1.7709-6.509-4.8407h2.938c0.384 1.4113 1.676 2.268 3.571 2.268 1.894 0 3.514-1.1065 3.514-3.8166v-1.2988c-0.935 1.3837-2.527 2.1581-4.313 2.1581-3.129 0-6.095-2.3779-6.095-6.7215s2.966-6.7215 6.095-6.7215c1.84 0 3.487 0.8018 4.394 2.2955l0.248-2.0182v-0.0025zm-0.275 6.4442c0-2.6277-1.867-4.1213-3.762-4.1213-2.06 0-3.843 1.5486-3.843 4.1213s1.785 4.1213 3.843 4.1213c1.895 0 3.762-1.4937 3.762-4.1213z"/>
<path d="m139.4 25.999v-18.836h2.884v18.836h-2.884z"/>
<path d="m143.58 19.527c0-3.8166 2.856-6.7764 6.727-6.7764s6.755 2.9598 6.755 6.7764-2.857 6.7489-6.755 6.7489-6.727-2.9323-6.727-6.7489zm10.6 0c0-2.4328-1.646-4.1763-3.87-4.1763-2.225 0-3.844 1.7435-3.844 4.1763s1.619 4.1488 3.844 4.1488c2.224 0 3.87-1.7435 3.87-4.1488z"/>
<path d="m171.66 19.528c0 4.3436-2.966 6.7489-6.095 6.7489-1.895 0-3.487-0.8018-4.34-2.2679l-0.22 1.9907h-2.582v-18.836h2.884v7.7455c0.878-1.3837 2.418-2.158 4.255-2.158 3.13 0 6.095 2.4053 6.095 6.7764h3e-3zm-2.884 0c0-2.6277-1.703-4.1488-3.762-4.1488-1.949 0-3.761 1.4937-3.761 4.1488s1.812 4.1488 3.761 4.1488c2.061 0 3.762-1.5212 3.762-4.1488z"/>
<path d="m183.67 13.028h2.291v12.973h-2.348l-0.323-2.0956c-0.877 1.4662-2.628 2.3729-4.498 2.3729-3.156 0-6.122-2.4054-6.122-6.749s2.966-6.7764 6.122-6.7764c1.867 0 3.618 0.9067 4.498 2.4004l0.377-2.1231 3e-3 -0.0025zm-0.481 6.4991c0-2.6001-1.895-4.1487-3.789-4.1487-2.061 0-3.844 1.5486-3.844 4.1487 0 2.6002 1.786 4.1488 3.844 4.1488 1.922 0 3.789-1.4936 3.789-4.1488z"/>
<path d="m188.12 25.999v-18.836h2.884v18.836h-2.884z"/>
</g>
<defs>
<clipPath id="a">
<rect width="191" height="39" fill="#fff"/>
</clipPath>
</defs>
<style>.10bc782bdd3222de5958d8dfd61ed769{height:83px}</style>
</svg>
