<?xml version="1.0" encoding="UTF-8"?>
<svg version="1.1" viewBox="0 0 640 140" xmlns="http://www.w3.org/2000/svg">
<path d="m640 49.11c-5.56 0-11.12 0-16.67-0.12-1.14 0-1.32 0.44-1.31 1.43v45.22c0 1.21-0.33 1.59-1.53 1.51a34.39 34.39 0 0 0-4.54 0c-1.22 0.09-1.52-0.34-1.52-1.52v-45.07c0-1.1-0.24-1.46-1.41-1.44-5.05 0.06-10.11 0-15.16 0-1 0-1.48-0.2-1.39-1.32a23 23 0 0 0 0-3.62c-0.1-1.16 0.33-1.44 1.45-1.43 7.83 0.05 15.66 0 23.5 0h18.58z" fill="#868686"/>
<path d="m156.79 70.07v-25.72c0-1.21 0.21-1.64 1.53-1.62 8.67 0.1 17.33-0.24 26 0.06 9.66 0.34 13.5 6.68 14.39 13.94 0.45 3.65 0.41 7.25-1.2 10.64-2.86 6-7.75 9-14.31 9.19-4.54 0.15-9.09 0.09-13.63 0-1.32 0-1.55 0.38-1.54 1.59 0.06 5.95 0 11.9 0.05 17.85 0 1.07-0.3 1.35-1.35 1.32-2.78-0.07-5.56-0.08-8.34 0-1.23 0-1.61-0.24-1.6-1.55 0.03-8.56 0-17.13 0-25.7zm11.45-10.57v6.8c0 0.79 0.24 1 1 1 2.52 0 5 0.07 7.55 0.09 3.06 0 5.89-0.6 8.22-2.78 3.24-3 3.36-6.89 0.23-9.92a9.31 9.31 0 0 0-6.33-2.84c-3.28-0.1-6.56 0-9.84 0-0.84 0-0.85 0.42-0.85 1 0.03 2.21 0.02 4.43 0.02 6.65z" fill="#1f5da7"/>
<path d="M219.57,70.37c.16,4.1.35,8.47,2.54,12.45,2.51,4.55,6.72,6,11.55,6.05,4.37,0,7.34-2.4,9.36-6.12a22.39,22.39,0,0,0,1.85-4.44c.2-.72.45-1.08,1.33-.78,2.86,1,5.74,1.85,8.63,2.71.88.25.92.69.75,1.45-2.81,12.07-12.9,17.81-24.1,16.9-5.77-.47-11-2.25-15.4-6.22a24.88,24.88,0,0,1-7.57-14.43,38.41,38.41,0,0,1,1.38-20.24c3.63-10.13,11.53-15.85,22.32-16.13,5.43-.15,10.69.58,15.35,3.65a18.59,18.59,0,0,1,7.9,11.71c.18.74,0,1-.65,1.1-3,.68-6,1.35-9,2.13-.89.23-.91-.36-1.12-.8a14.89,14.89,0,0,0-5-6.48c-6.5-4.32-16.4-.47-18.88,7.35A36.71,36.71,0,0,0,219.57,70.37Z" fill="#1f5da7"/>
<path d="M351.15,72.66c8.86,6.4,12.71,16.16,19,24.58-2.55,0-4.84-.13-7.11.05a2.86,2.86,0,0,1-3.2-2A117.14,117.14,0,0,0,353.38,83a40.51,40.51,0,0,0-3.27-4.35,14.29,14.29,0,0,0-11.55-5.31c-2.83,0-5.64.22-8.46.45-1.07.09-1.3.49-1.3,1.49.05,6.75,0,13.51.06,20.27,0,1.37-.38,1.74-1.69,1.64a36.36,36.36,0,0,0-4.55,0c-1.08.06-1.46-.38-1.43-1.39,0-.81-.05-1.61-.05-2.42,0-16.24,0-32.47,0-48.71,0-1.37.34-1.81,1.75-1.81,8.29,0,16.57-.22,24.86,0,2.27.05,4.55.16,6.8.42,5.45.65,8.79,3.86,10.17,9,1.59,5.94,1.17,11.54-3.77,16a18.89,18.89,0,0,1-7.8,3.86Zm-21.1-15.15c0,2.59,0,5.17,0,7.76,0,.71.09,1.12,1,1.11,5.65,0,11.3.32,16.95,0,5-.32,7.86-2.59,8.56-6.71a15.14,15.14,0,0,0,.1-3.23c-.24-4.69-3.15-7.24-8.16-7.55-5.75-.36-11.5,0-17.25,0-1,0-1.26.34-1.25,1.23C330.09,52.53,330.05,55,330.05,57.51Z" fill="#868686"/>
<path d="m429.26 70c0 7.12-1.51 13.71-6 19.32-6 7.53-14.11 10.14-23.43 9.18-14-1.44-23.17-13.27-23.52-26.58-0.21-7.83 1.35-15.15 6.35-21.38 5.82-7.25 13.66-9.94 22.72-9.17 13.91 1.19 21.93 11.25 23.52 23.44 0.26 1.78 0.28 3.53 0.36 5.19zm-45 1a24.43 24.43 0 0 0 1.32 8.38c2.59 7.81 8.87 12.57 16.76 12.75 8.32 0.19 14.67-4 17.63-11.89a30 30 0 0 0 1.21-15.92 20.51 20.51 0 0 0-4.9-10.7c-4.58-5-10.43-6.18-16.87-5.25-7 1-11.44 5.07-13.66 11.68a34 34 0 0 0-1.53 10.95z" fill="#868686"/>
<path d="m490.09 70v-25.56c0-1.26 0.21-1.72 1.62-1.71q18.12 0.09 36.23 0c1.38 0 1.79 0.38 1.65 1.69a16 16 0 0 0 0 3.17c0.11 1.19-0.4 1.44-1.49 1.43h-29.12c-1.3 0-1.59 0.39-1.57 1.62 0.07 4.58 0.06 9.17 0 13.76 0 1.12 0.27 1.44 1.42 1.44 9 0 18.09 0 27.14-0.06 1.28 0 1.68 0.35 1.56 1.6a16.74 16.74 0 0 0 0 3.32c0.13 1.32-0.28 1.71-1.65 1.7-8.63-0.07-17.27 0-25.91 0a6.74 6.74 0 0 1-0.9 0c-1.11-0.15-1.49 0.26-1.48 1.42q0.09 7.71 0 15.42c0 1.2 0.35 1.54 1.53 1.53h30.31c1 0 1.48 0.19 1.4 1.32a30.16 30.16 0 0 0 0 3.92c0.06 1-0.28 1.31-1.28 1.29-3-0.05-6 0-8.94 0h-28.95c-1.29 0-1.6-0.37-1.59-1.61 0.05-8.69 0.02-17.18 0.02-25.69z" fill="#868686"/>
<path d="m268.1 70v-25.71c0-1.27 0.36-1.57 1.6-1.57 8.58 0 17.16-0.37 25.75 0.07 8 0.42 13.81 5.5 14.59 13.06 1.15 11.2-5.18 18.5-16.56 19.28-5.5 0.38-11 0.36-16.5 0.31-1.28 0-1.58 0.37-1.57 1.6 0.06 6.25 0 12.5 0.06 18.75 0 1.24-0.38 1.55-1.53 1.47a33.84 33.84 0 0 0-4.39 0c-1.14 0.07-1.45-0.28-1.44-1.42 0.05-8 0-16 0-24zm7.34-11.29v8.31c0 0.76 0.09 1.2 1 1.19 5.65 0 11.3 0.34 16.95 0 4.95-0.35 7.86-2.77 8.56-7.19a16.77 16.77 0 0 0 0.09-3.47c-0.23-5-3.14-7.75-8.15-8.09-5.76-0.39-11.5 0-17.25 0-1 0-1.27 0.37-1.25 1.32 0.09 2.57 0.05 5.22 0.05 7.91z" fill="#868686"/>
<path d="M548.34,70.2A28.31,28.31,0,0,0,551.75,84C557.2,93.48,571,95,578.05,86.9A19.82,19.82,0,0,0,582,79.31c.3-1,.7-1.24,1.7-.9a30.18,30.18,0,0,0,4.39,1.16c1.13.2,1.2.74,1,1.67C587,90,581.65,95.62,573,97.93c-9,2.4-22-.37-28.15-10.79A29.13,29.13,0,0,1,540.94,75c-.65-6.65-.22-13.2,2.62-19.38,3.79-8.23,10.16-12.91,19.26-13.84,5.77-.59,11.3,0,16.41,2.9a18.75,18.75,0,0,1,8.83,11.61c.31,1.05,0,1.57-1.07,1.78-1.53.29-3.15,1.19-4.53.9s-1.83-2.34-2.77-3.56C577,52,574.07,48.9,569.61,47.9c-6.78-1.54-14.61,2.22-18.14,8.66A27.93,27.93,0,0,0,548.34,70.2Z" fill="#868686"/>
<path d="m462.25 73.17v22.68c0 1.14-0.31 1.48-1.43 1.42a35.1 35.1 0 0 0-4.7 0c-1.31 0.1-1.56-0.41-1.55-1.62q0.06-22.31 0-44.6c0-2.22 0.25-2-1.91-2h-14.55c-1.14 0-1.52-0.3-1.42-1.44a19.15 19.15 0 0 0 0-3.47c-0.12-1.23 0.36-1.49 1.52-1.48h40.77c0.83 0 1.21 0.19 1.13 1.08-0.16 1.64 0.69 3.74-0.36 4.8s-3 0.24-4.53 0.25h-11.52c-1.18 0-1.54 0.28-1.53 1.5 0.11 7.71 0.08 15.27 0.08 22.88z" fill="#868686"/>
<path d="M26.32,68.14l7-5.68L49.66,75.19s1.06.91,2.12-.76S68.31,51.09,87.71,39l3.79,7.28S68.23,66.17,55,96.34Z" fill="#005bbd"/>
<path d="M59.25,126.41l-1.47-1c-6.51-4.29-39.13-26.81-43.32-48.29a190.55,190.55,0,0,1-3.65-42l0-1.44L12.1,33C25,25.09,49.36,11.76,59.25,11.76L62.9,6.9,59.25,1C51.85,1,40.38,5.2,24.17,13.77,12.63,19.88,3.22,25.86,2.82,26.1L.61,27.51.36,30.12C.28,31-1.57,51,4,79.2c2.48,12.72,12.18,26.43,28.81,40.72a193.8,193.8,0,0,0,23.73,17.4L59.25,139l3.65-7.13-3.65-5.44Z" fill="#59626f"/>
<path d="M118.14,30.12l-.25-2.61-2.22-1.41c-.39-.24-9.79-6.23-21.34-12.33C78.12,5.2,66.65,1,59.25,1V11.76c9.9,0,34.31,13.33,47.16,21.21l1.24.75,0,1.44a189.21,189.21,0,0,1-3.65,42c-4.2,21.48-36.82,44-43.31,48.29l-1.48,1V139L62,137.32a193.28,193.28,0,0,0,23.72-17.4c16.64-14.29,26.35-28,28.83-40.72C120.06,51,118.22,31,118.14,30.12Z" fill="#979797"/>
<style>.2b068851a4462a89b7de071abc65be05{height:93px}</style>
<style>.04f7ba7dc45496e1d52a747e5f6c6f88{height:83px}</style>
</svg>
