<?xml version="1.0" encoding="UTF-8"?>
<svg fill="none" viewBox="0 0 116 32" xmlns="http://www.w3.org/2000/svg">
<g clip-path="url(#a)">
<path d="M6.96663 0L53.3397 0.0117838L46.3754 31.9882L0 32L6.96663 0Z" clip-rule="evenodd" fill="#CF2127" fill-rule="evenodd"/>
<path d="m13.474 18.764v5.4983h-4.6359v-15.13h6.359c1.5863 0 2.7899 0.18618 3.6155 0.55383 0.8256 0.37002 1.4796 0.93562 1.9643 1.6968 0.4824 0.7613 0.7259 1.6144 0.7259 2.5595 0 1.44-0.494 2.6042-1.4842 3.4927-0.988 0.8861-2.3076 1.3292-3.9588 1.3292h-2.5858zm-0.0649-3.2476h1.5259c1.3451 0 2.0177-0.502 2.0177-1.506 0-0.9474-0.6215-1.4187-1.8646-1.4187h-1.679v2.9247z" fill="#fff"/>
<path d="m20.977 24.263v-15.13h5.7583c2.5024 0 4.3739 0.75416 5.6169 2.2602 1.2431 1.5083 1.8646 3.2523 1.8646 5.232 0 2.2601-0.6679 4.0984-2.0014 5.5148-1.3335 1.414-3.0659 2.1234-5.1971 2.1234h-6.0413zm4.5709-3.4809h1.1874c0.7561 0 1.3938-0.3724 1.9133-1.1195s0.7792-1.7628 0.7792-3.0473c0-1.1006-0.2319-2.0503-0.6934-2.8493-0.4615-0.7989-1.1294-1.1972-2.0014-1.1972h-1.1874v8.2133h0.0023z" fill="#fff"/>
<path d="m43.3 18.6h-4.8539v5.6633h-4.4504v-15.13h10.765v3.6034h-6.3149v2.4605h4.8539v3.4031z" fill="#fff"/>
<path d="m54.063 23.334 1.2083-2.748c1.0158 0.8202 2.1614 1.2279 3.4369 1.2279 1.2756 0 1.9829-0.4784 1.9829-1.4353 0-0.5609-0.1995-1.0228-0.5983-1.381-0.3989-0.3583-1.1735-0.7825-2.3238-1.2703-2.5093-1.0582-3.7639-2.5406-3.7639-4.4472 0-1.2797 0.48-2.2766 1.4401-2.9907 0.9602-0.71413 2.187-1.07 3.6828-1.07s2.936 0.34409 4.2672 1.0346l-0.9787 2.6796c-0.7421-0.6433-1.7764-0.9662-3.0983-0.9662-1.1874 0-1.7811 0.4784-1.7811 1.4352 0 0.3771 0.1948 0.7189 0.5844 1.0229s1.2222 0.7117 2.5 1.2231c1.2779 0.5114 2.1962 1.1313 2.7575 1.8571 0.5612 0.7283 0.8418 1.6074 0.8418 2.6373 0 1.3716-0.5009 2.451-1.5005 3.2381-1.0018 0.7872-2.3632 1.1808-4.0839 1.1808-0.9694 0-1.7463-0.0802-2.3308-0.2428-0.5844-0.1602-1.3335-0.4902-2.2495-0.9875l0.0069 0.0024z" fill="#202020"/>
<path d="m76.322 24.3v-1.242c-0.48 0.4148-1.141 0.7683-1.9828 1.0629-0.8419 0.2946-1.6164 0.443-2.3238 0.443-3.3789 0-5.0696-1.8217-5.0696-5.4676v-9.5967h3.3976v9.3351c0 1.8971 0.8372 2.8446 2.5139 2.8446 0.7699 0 1.4865-0.2027 2.1475-0.6081 0.6609-0.4053 1.1016-0.8743 1.3172-1.4093v-10.162h3.3975v14.803h-3.3975v-0.0023z" fill="#202020"/>
<path d="m84.298 24.286v-11.958h-1.8623v-2.8304h5.2992v14.789h-3.4369zm1.7533-20.52c0.5426 0 1.0065 0.19561 1.3937 0.58683 0.385 0.39122 0.5775 0.86258 0.5775 1.4164 0 0.55384-0.1925 1.0252-0.5775 1.4164-0.3849 0.39122-0.8488 0.58683-1.3937 0.58683-0.545 0-1.0089-0.19561-1.3938-0.58683-0.385-0.39122-0.5775-0.86257-0.5775-1.4164 0-0.55383 0.1925-1.0252 0.5775-1.4164 0.3849-0.39122 0.8488-0.58683 1.3938-0.58683z" fill="#202020"/>
<path d="m92.208 12.272h-1.686v-2.7763h1.686v-3.0096l3.3975-1.2703v4.2799h3.9959v2.7763h-3.9959v6.4763c0 1.0582 0.1624 1.8077 0.4894 2.2437 0.327 0.4383 0.8975 0.6551 1.7115 0.6551s1.577-0.2262 2.2824-0.6763v3.1769c-0.7889 0.2757-1.9114 0.4147-3.3701 0.4147s-2.5626-0.4171-3.3418-1.249c-0.7793-0.832-1.1689-2.0174-1.1689-3.5564v-7.485z" fill="#202020"/>
<path d="m115.72 17.949h-10.394c0.062 1.1784 0.461 2.0951 1.196 2.748 0.733 0.6528 1.721 0.9804 2.962 0.9804 1.549 0 2.727-0.4101 3.532-1.2279l1.317 2.6372c-1.197 0.9851-2.98 1.4777-5.355 1.4777-2.219 0-3.975-0.6599-5.267-1.982-1.291-1.3198-1.936-3.1652-1.936-5.5313 0-2.3662 0.71-4.2163 2.127-5.661 1.417-1.4446 3.119-2.1682 5.102-2.1682 2.11 0 3.805 0.63868 5.081 1.9184 1.275 1.2797 1.915 2.9083 1.915 4.8879 0 0.4242-0.095 1.0629-0.285 1.9184l5e-3 0.0024zm-10.274-2.5972h7.148c-0.237-2.1635-1.413-3.2452-3.532-3.2452-1.939 0-3.145 1.0817-3.616 3.2452z" fill="#202020"/>
</g>
<defs>
<clipPath id="a">
<rect width="116" height="32" fill="#fff"/>
</clipPath>
</defs>
<style>.13624f3a8cb2c1792685dffcdefedfc1{height:81px}</style>
</svg>
