<?xml version="1.0" encoding="UTF-8"?>
<svg enable-background="new 0 0 965 603" version="1.0" viewBox="116.5 214.2 732 174.6" xml:space="preserve" xmlns="http://www.w3.org/2000/svg">
<style type="text/css">
	.st0{fill:url(#a);}
	.st1{fill:#FFFFFF;}
	.st2{fill:none;}
</style>
<linearGradient id="a" x1="215.32" x2="215.32" y1="290.68" y2="465.32" gradientTransform="translate(-11.5 -76.5)" gradientUnits="userSpaceOnUse">
	<stop stop-color="#414C9A" offset="0"/>
	<stop stop-color="#364295" offset="1"/>
</linearGradient>
<path class="st0" d="m156.3 214.2h95c22 0 39.8 17.8 39.8 39.8v95c0 22-17.8 39.8-39.8 39.8h-95c-22 0-39.8-17.8-39.8-39.8v-95c0-22 17.8-39.8 39.8-39.8z"/>
<path class="st1" d="m203.7 347.8h-43.5v-43.6h49.9v0.2c-3.7 0.9-6.4 4.3-6.4 8.1v35.3z"/>
<path class="st1" d="m160.2 299.5h87.3v-43.7h-87.3v43.7z"/>
<path d="m409.2 228.1h-11.6l-10.7 43.7-13.2-43.7h-11.2l-13.2 43.6-10.7-43.6h-12.1l16.7 61.1h11.3l13.4-44.6 13.5 44.6h11.1l16.7-61.1zm21.8 15.4c-13.1 0-22.3 8.7-22.3 23.3s9.2 23.4 22.3 23.4 22.4-8.7 22.4-23.4-9.2-23.3-22.4-23.3zm-0.1 10c6.5 0 11.4 4.3 11.4 13.3 0 8.5-4.1 13.4-11.1 13.4-6.5 0-11.4-4.3-11.4-13.4 0-8.4 4.1-13.3 11.1-13.3zm54.3-10c-7.5 0-11.2 3.1-13.7 7.3v-6.5h-10.7v45h10.8v-24.4c0-7.3 3.4-11.8 9.9-11.8 5.3 0 8.4 3 8.4 8v28h10.8v-29c0-10.6-5.3-16.6-15.5-16.6zm67.5-16.3h-10.8v23.1c-2.7-4.4-8.2-6.7-14-6.7-11 0-20.2 7.7-20.2 23.2 0 15.8 9.2 23.5 20.2 23.5 6.2 0 11.8-2.7 14.2-7.9v6.9h10.7l-0.1-62.1zm-22.3 53.1c-6.3 0-11.7-4.5-11.7-13.5s5.4-13.6 11.7-13.6c5.8 0 11.8 4.4 11.8 13.6s-6 13.4-11.8 13.5zm71.5-10.2v-4.5c0-14.9-9.3-22.1-20.2-22.1-11.4 0-21.7 7.9-21.7 23.6s10 23.1 21.4 23.1c9.2 0 17.8-5 20.1-14.5h-10.1c-1.6 3.6-5.2 5.1-9.5 5.1-6.5 0-11.1-3.5-11.3-10.8l31.3 0.1zm-20.2-17.2c5.8 0 9.6 3.3 9.6 9.2h-20.4c0.9-6.6 5.6-9.3 10.8-9.2zm53.1-9.1h-3c-5.2 0-9.4 2.3-11.7 7.2v-6.6h-10.7v45h10.8v-22c0-8.8 4.1-12.9 11.7-12.9h2.9v-10.7zm23.6 18.7c-5.5-0.8-9.4-1.5-9.4-5 0-2.6 2.1-5 7.4-5 4.6 0 7.8 1.7 8.2 6.2h10.6c-0.6-10-8.4-15.2-18.9-15.2-9.3 0-17.9 4.1-17.9 14.3 0 11.1 10 12.6 18.9 14.1 6.2 1 8.3 1.8 8.3 4.5 0 3.4-3.2 4.9-7.9 4.9-5.1 0-9-1.9-9.8-6.5h-10.9c0.8 11.4 10.8 15.4 20.2 15.4 10 0 19-4.8 19-14.9 0-10.5-9.7-11.7-17.8-12.8zm49.3-19c-7.6 0-11.1 3.1-13.6 7.4v-23.8h-10.8v62.1h10.8v-24.3c0-7.3 3.4-11.8 9.9-11.8 5.3 0 8.4 3 8.4 8v28h10.8v-29c0-10.6-5.3-16.6-15.5-16.6zm44.6 0c-11.2 0-19.1 5.1-20.9 15.5h10.3c1-3.4 2.9-6.6 9.6-6.6 3.8 0 7.4 1.2 7.4 4.6 0 3.8-3.5 4.5-5.2 4.7l-9.1 1.3c-4.1 0.6-14.3 2.5-14.3 13.8 0 9.5 7.3 13.4 14.5 13.4 4.8 0 10.7-1.8 14.2-7.5v6.5h10.6v-31.2c0-10.5-7.2-14.5-17.1-14.5zm-4.8 37.7c-3.8 0-6.5-1.7-6.5-5.2 0-5 5.3-5.8 7.2-6l4.5-0.7c2-0.2 3.9-0.6 5.8-1.3v2.5c0.1 5.9-4.7 10.7-10.6 10.8 0-0.1-0.2-0.1-0.4-0.1zm57.4-37.5h-3c-5.2 0-9.4 2.3-11.7 7.2v-6.6h-10.7v45h10.8v-22c0-8.8 4.1-12.9 11.7-12.9h2.9v-10.7zm43.6 26.3v-4.5c0-14.9-9.3-22.1-20.2-22.1-11.4 0-21.7 7.9-21.7 23.6s10 23.1 21.4 23.1c9.2 0 17.8-5 20.1-14.5h-10.1c-1.6 3.6-5.2 5.1-9.5 5.1-6.5 0-11.1-3.5-11.3-10.8h31.3zm-20.3-17.2c5.8 0 9.6 3.3 9.6 9.2h-20.4c1-6.5 5.7-9.2 10.8-9.2zm-470.8 62.6h-25.7v61.1h11.3v-22.5h13.3c14 0 21.2-9.4 21.2-19.9 0-10-6.7-18.7-20.1-18.7zm-0.8 28h-13.6v-17.4h14.1c6.1 0 9 3.7 9 8.6s-3 8.9-9.5 8.8zm49.2-28h-20.8v61.1h19.4c21.9 0 32-16.3 32-31.8-0.1-15.1-9.8-29.3-30.6-29.3zm-1.4 50.5h-8.1v-39.8h9.9c13.2 0 18.7 9 18.7 18.7 0 10.3-6.3 21.1-20.5 21.1zm52.5-14.9h27.3v-10.7h-27.3v-14.2h29.7v-10.6h-41v61.1h11.4l-0.1-25.6zm73.3 6.3v-4.5c0-14.9-9.3-22.1-20.2-22.1-11.4 0-21.6 7.9-21.6 23.6s10 23.1 21.4 23.1c9.2 0 17.8-5 20.1-14.5h-10.1c-1.6 3.6-5.2 5.1-9.5 5.1-6.5 0-11.1-3.5-11.4-10.8h31.3zm-20.3-17.2c5.9 0 9.6 3.3 9.6 9.3h-20.4c0.9-6.6 5.6-9.3 10.8-9.3zm38.5-25.6h-10.8v62h10.8v-62zm49.3 42.9v-4.5c0-14.9-9.3-22.1-20.2-22.1-11.4 0-21.7 7.9-21.7 23.6s10 23.1 21.4 23.1c9.2 0 17.8-5 20.1-14.5h-10.1c-1.6 3.6-5.2 5.1-9.5 5.1-6.5 0-11.1-3.5-11.4-10.8h31.4zm-20.3-17.2c5.9 0 9.6 3.3 9.6 9.3h-20.4c1-6.7 5.7-9.4 10.8-9.3zm76-9.4c-8.1 0-11.5 4.2-13.3 7.4-2.1-4.7-6.5-7.4-12.6-7.4-6.8 0-10.4 3.8-11.8 7.4v-6.6h-10.6v45h10.9v-25.4c0-7.4 3.5-10.6 8.6-10.6 4.5 0 7.2 2.4 7.2 7.8v28.2h10.8v-25.2c0-7.6 3.5-10.7 8.7-10.7 4.6 0 7.2 2.4 7.2 7.8v28.2h10.8v-30.3c-0.1-9.9-6.2-15.6-15.9-15.6zm64.6 26.6v-4.5c0-14.9-9.3-22.1-20.2-22.1-11.4 0-21.7 7.9-21.7 23.6s10 23.1 21.4 23.1c9.2 0 17.8-5 20.1-14.5h-10.2c-1.6 3.6-5.2 5.1-9.5 5.1-6.5 0-11.1-3.5-11.3-10.8h31.4zm-20.2-17.2c5.8 0 9.6 3.3 9.6 9.3h-20.4c0.9-6.7 5.6-9.4 10.8-9.3zm52.1-9.4c-7.5 0-11.2 3.1-13.7 7.3v-6.5h-10.7v45h10.8v-24.3c0-7.3 3.4-11.8 9.9-11.8 5.3 0 8.4 3 8.4 8v28h10.8v-29c0-10.7-5.3-16.7-15.5-16.7zm48.9 36.2h-4.6c-4.5 0-5.4-2.3-5.4-5.4v-20.2h9v-9.8h-9v-13.1l-10.8 3v10.1h-8.2v9.8h8.2v20.6c0 12 5.3 14.6 13.8 14.6h7.1v-9.6z"/>
<rect class="st2" width="777" height="243"/>
<style>.d618eb741bf14ce211bbefa7f8704985{height:96px}</style>
</svg>
