<?xml version="1.0" encoding="UTF-8"?>
<svg viewBox="0 0 787 182" xmlns="http://www.w3.org/2000/svg">
<path d="M63.483 33.69c33.48 0 48.848 20.118 48.848 57.977 0 34.383-15.917 57.245-48.848 57.245-11.721 0-22.024-3.47-30.027-9.237l-1.806-1.37-.366.365.329 32.652a4.814 4.814 0 0 1-2.817 4.428l-.766.273-21.984 5.817a4.816 4.816 0 0 1-5.968-3.788L0 177.187V40.592a4.815 4.815 0 0 1 3.95-4.735l.864-.078h16.327c1.85 0 3.51 1.056 4.313 2.673l.289.726 2.248 7.315C36.59 38.446 47.567 33.69 63.483 33.69ZM227.493.862a4.815 4.815 0 0 1 4.737 3.948l.077.865V142.27a4.815 4.815 0 0 1-3.949 4.735l-.865.078h-16.327a4.815 4.815 0 0 1-4.313-2.673l-.289-.726-2.248-7.315c-8.599 8.047-19.576 12.803-35.492 12.803-33.48 0-48.848-20.118-48.848-57.977 0-34.383 15.917-57.245 48.848-57.245 11.722 0 22.024 3.47 30.027 9.237l1.806 1.371.366-.366-.328-32.652a4.814 4.814 0 0 1 2.816-4.427l.766-.274 21.984-5.817c.402-.106.816-.16 1.232-.16Zm416.672 34.272c31.477 0 51.739 17.912 51.739 51.565l-.054 2.315c-.072 1.73-.217 3.836-.433 6.316a4.814 4.814 0 0 1-4.796 4.395h-69.612c1.628 16.103 12.482 23.16 33.648 23.16l4.057-.02c5.919-.083 8.25-.493 16.391-2.443.855-.205 1.892-.561 3.112-1.07a4.817 4.817 0 0 1 5.891 1.824l.421.809 5.74 14.13c1 2.463-.185 5.27-2.649 6.27l-.436.153c-15.046 4.484-27.155 6.617-36.326 6.4-42.863-1.016-62.05-21.53-62.05-58.078 0-33.11 17.91-55.726 55.357-55.726ZM775 35.697c2.117 0 4.124.138 5.978.37l2.117.343a4.813 4.813 0 0 1 3.816 5.636l-.154.594-6.508 19.769a4.815 4.815 0 0 1-5.74 3.165L773 65.232a18.84 18.84 0 0 0-.648-.116c-1.954-.313-4.037-.47-6.395-.47-17.005 0-22.975 11.398-22.975 30.215v47.475a4.814 4.814 0 0 1-4.814 4.813H716.68a4.814 4.814 0 0 1-4.815-4.813v-98.93a4.814 4.814 0 0 1 4.815-4.814h15.904a4.814 4.814 0 0 1 4.746 4.007l2.395 14.086h.543c7.598-13.75 19.899-20.988 34.733-20.988Zm-330.22 6.052.823.143 22.394 5.992a4.632 4.632 0 0 1 3.37 3.701l.065.772v90.161a4.632 4.632 0 0 1-3.8 4.556l-.832.075h-22.395a4.633 4.633 0 0 1-4.557-3.798l-.075-.833V46.365a4.63 4.63 0 0 1 4.194-4.61l.812-.006ZM424.183 0a4.816 4.816 0 0 1 4.773 5.445l-.192.847-6.52 20.185a4.815 4.815 0 0 1-3.703 3.254l-.878.08h-49.358v27.617H413.8c2.408.025 4.361 1.747 4.746 3.997l.069.866-.19 18.173a4.815 4.815 0 0 1-3.954 4.687l-.86.076h-45.305v57.043a4.815 4.815 0 0 1-3.95 4.735l-.865.078h-21.76a4.815 4.815 0 0 1-4.738-3.948l-.077-.865V12.83c0-6.67 5.09-12.15 11.599-12.772L349.75 0h74.433ZM304.977.664c3.206 0 6.524.222 9.72.599 1.532.18 3.403.48 5.612.9l.582.15a4.631 4.631 0 0 1 3.143 5.031l-.19.814-3.222 9.8a4.632 4.632 0 0 1-4.765 3.17l-.59-.042a66.579 66.579 0 0 0-4.07-.12c-12.688 0-17.615 4.126-18.076 10.654l-.036 1.05v3.475h22.994a4.815 4.815 0 0 1 4.737 3.948l.077.865v12.687a4.815 4.815 0 0 1-3.949 4.735l-.865.078h-22.994v83.812a4.815 4.815 0 0 1-3.95 4.735l-.865.078h-21.838a4.815 4.815 0 0 1-4.737-3.948l-.077-.865V58.458h-11.651a4.815 4.815 0 0 1-4.737-3.948l-.078-.865V40.958a4.815 4.815 0 0 1 3.95-4.735l.865-.078h11.468V32.67c0-17.009 12.806-32.006 43.542-32.006Zm241.175 14.449c.422 0 .843.055 1.251.165l21.849 5.88a4.813 4.813 0 0 1 3.563 4.647v116.442A4.814 4.814 0 0 1 568 147.06h-21.848a4.814 4.814 0 0 1-4.815-4.813V19.925a4.814 4.814 0 0 1 4.815-4.812Zm-50.648 0c.422 0 .843.055 1.251.165l21.849 5.88a4.813 4.813 0 0 1 3.563 4.647v116.442a4.814 4.814 0 0 1-4.815 4.813h-21.848a4.814 4.814 0 0 1-4.815-4.813V19.925a4.814 4.814 0 0 1 4.815-4.812ZM177.97 60.835c-18.478 0-25.43 8.962-25.43 31.64 0 23.41 5.672 32.555 25.43 32.555 11.663 0 18.663-4.5 22.055-8.83l.63-.863V69.98c-4.207-5.304-12.257-9.145-22.685-9.145ZM54.336 57.832c-11.663 0-18.663 4.5-22.055 8.83l-.63.863v45.357c4.207 5.304 12.257 9.145 22.685 9.145 18.478 0 25.43-8.962 25.43-31.64 0-23.41-5.672-32.555-25.43-32.555Zm590.693 2.09c-16.1 0-22.613 6.694-24.06 20.806h47.216c-.362-14.112-9.046-20.807-23.156-20.807ZM444.759 3.865l.824.143L467.957 10a4.632 4.632 0 0 1 3.37 3.702l.064.771V27.08a4.63 4.63 0 0 1-5.007 4.616l-.824-.143-22.374-5.99a4.632 4.632 0 0 1-3.37-3.702l-.064-.771V8.482a4.63 4.63 0 0 1 4.195-4.611l.812-.005Z" fill="#E8501F" fill-rule="evenodd"/>
<style>.a9ce9d55181c9c0771f03123ff8635d2{height:13px}</style>
</svg>
