<?xml version="1.0" encoding="UTF-8"?>
<svg data-name=" Шар 1" viewBox="0 0 329.47 106.2" xmlns="http://www.w3.org/2000/svg" xmlns:xlink="http://www.w3.org/1999/xlink">
<defs>
<style>.cls-1{fill:#744fef;}.cls-10,.cls-2,.cls-3,.cls-4,.cls-5,.cls-6,.cls-7,.cls-8,.cls-9{fill-rule:evenodd;}.cls-2{fill:url(#i);}.cls-3{fill:url(#h);}.cls-4{fill:url(#g);}.cls-5{fill:url(#f);}.cls-6{fill:url(#e);}.cls-7{fill:url(#d);}.cls-8{fill:url(#c);}.cls-9{fill:url(#a);}.cls-10{fill:url(#b);}</style>
<linearGradient id="i" x1="51.11" x2="51.11" y1="17.56" y2="-47.09" gradientTransform="translate(0 40.14)" gradientUnits="userSpaceOnUse">
<stop stop-color="#6d46eb" offset="0"/>
<stop stop-color="#8d68f6" offset=".59"/>
<stop stop-color="#a582ff" offset="1"/>
</linearGradient>
<linearGradient id="h" x1="30.6" x2="30.6" y1="28.55" y2="-16.24" gradientTransform="translate(0 40.14)" gradientUnits="userSpaceOnUse">
<stop stop-color="#fcfaff" offset="0"/>
<stop stop-color="#eddfff" offset=".53"/>
<stop stop-color="#d4bfff" offset="1"/>
</linearGradient>
<radialGradient id="g" cx="-123.23" cy="-375.38" r="1" gradientTransform="matrix(20.85 -13.31 16.27 25.48 8708.5 7982.5)" gradientUnits="userSpaceOnUse">
<stop stop-color="#ebe0ff" offset=".39"/>
<stop stop-color="#e8dbff" offset=".54"/>
<stop stop-color="#decdff" offset=".71"/>
<stop stop-color="#cdb4ff" offset=".9"/>
</radialGradient>
<linearGradient id="f" x1="27.57" x2="27.57" y1="65.35" y2="-25" gradientTransform="translate(0 40.14)" gradientUnits="userSpaceOnUse">
<stop stop-color="#7e54ff" offset="0"/>
<stop stop-color="#a380ff" offset="1"/>
</linearGradient>
<linearGradient id="e" x1="32" x2="61.62" y1="55.32" y2="16.02" gradientTransform="translate(0 40.14)" gradientUnits="userSpaceOnUse">
<stop stop-color="#6d46eb" offset="0"/>
<stop stop-color="#8d68f6" offset=".65"/>
<stop stop-color="#a07cfd" offset="1"/>
</linearGradient>
<linearGradient id="d" x1="2.23" x2="16.92" y1="28.51" y2="18.94" gradientTransform="translate(0 40.14)" gradientUnits="userSpaceOnUse">
<stop stop-color="#fff" stop-opacity="0" offset="0"/>
<stop stop-color="#e8dfff" stop-opacity=".09" offset=".25"/>
<stop stop-color="#af8fff" stop-opacity=".28" offset=".8"/>
<stop stop-color="#9870ff" stop-opacity=".35" offset="1"/>
</linearGradient>
<linearGradient id="c" x1="30.58" x2="30.58" y1="27.29" y2="12.44" gradientTransform="translate(0 40.14)" gradientUnits="userSpaceOnUse">
<stop stop-color="#653fe5" stop-opacity=".9" offset="0"/>
<stop stop-color="#724cec" stop-opacity=".77" offset=".15"/>
<stop stop-color="#8760f6" stop-opacity=".51" offset=".44"/>
<stop stop-color="#946cfd" stop-opacity=".25" offset=".73"/>
<stop stop-color="#9870ff" stop-opacity="0" offset="1"/>
</linearGradient>
<linearGradient id="a" x1="46.26" x2="46.26" y1="16.56" y2="5.72" gradientTransform="translate(0 40.14)" gradientUnits="userSpaceOnUse">
<stop stop-color="#7e54ff" offset="0"/>
<stop stop-color="#9f7aff" offset="1"/>
</linearGradient>
<linearGradient id="b" x1="8.94" x2="20.9" y1="11.15" y2="11.15" xlink:href="#a"/>
</defs>
<path class="cls-1" transform="translate(0)" d="M113.73,51V64.91h-6.57V30.84h12.75c4.77,0,7.69,1.56,9.54,4a9.88,9.88,0,0,1,2,6.08,10,10,0,0,1-2,6.14c-1.85,2.43-4.77,4-9.54,4h-6.18Zm5.36-5.75c2.78,0,4-.59,4.77-1.51a4.28,4.28,0,0,0,1.07-2.87,4.15,4.15,0,0,0-1.07-2.82c-.78-.92-2-1.51-4.77-1.51h-5.35v8.71Z"/>
<path class="cls-1" transform="translate(0)" d="M134.9,64.9V30.35h6.32V43a11,11,0,0,1,6.57-2.19,10.47,10.47,0,0,1,8.08,3.65c1.56,1.85,2.39,4.38,2.39,8.42v12h-6.33V52.29c0-2.34-.53-3.55-1.41-4.43A5,5,0,0,0,147,46.55a7.53,7.53,0,0,0-5.74,2.92V64.9H134.9Z"/>
<path class="cls-1" transform="translate(0)" d="m174.5 40.82a12.29 12.29 0 1 1-12.41 12.31 12.2 12.2 0 0 1 12.41-12.31zm0 18.83c3.7 0 6.08-3 6.08-6.52s-2.39-6.57-6.08-6.57-6.08 3-6.08 6.57 2.39 6.52 6.08 6.52z"/>
<path class="cls-1" transform="translate(0)" d="M200,56.72a3.49,3.49,0,0,0,.63,2.48,3.05,3.05,0,0,0,2.19.73,6.34,6.34,0,0,0,2.92-.78l2,4.48a9.93,9.93,0,0,1-5.89,1.75,8.1,8.1,0,0,1-6.38-2.48c-1.17-1.36-1.85-3.16-1.85-6.08V46.4H188V41.29h5.59V33.75h6.32v7.54H207V46.4h-7.06V56.72h0Z"/>
<path class="cls-1" transform="translate(0)" d="m221.46 40.82a12.29 12.29 0 1 1-12.41 12.31 12.2 12.2 0 0 1 12.41-12.31zm0 18.83c3.7 0 6.08-3 6.08-6.52s-2.39-6.57-6.08-6.57-6.08 3-6.08 6.57 2.39 6.52 6.08 6.52z"/>
<path class="cls-1" transform="translate(0)" d="M244.43,64.9h-6.32V30.35h6.32Z"/>
<path class="cls-1" transform="translate(0)" d="M270.76,61.15a13.17,13.17,0,0,1-9.88,4.23c-6.95,0-12.17-4.91-12.17-12.26,0-6.57,4.33-12.31,11.49-12.31,6.77,0,11.14,5.5,11.14,12.07a10.08,10.08,0,0,1-.15,1.8h-16.4c.34,3.31,3.07,5.35,6.42,5.35a8.9,8.9,0,0,0,6-2.58l3.51,3.7ZM265,50.3A4.69,4.69,0,0,0,260.19,46,5.13,5.13,0,0,0,255,50.3h10Z"/>
<path class="cls-1" transform="translate(0)" d="m299.26 41.3v23.6h-5.84v-2a10.9 10.9 0 0 1-7.15 2.53c-6.42 0-11.58-5.11-11.58-12.31s5.11-12.26 11.49-12.26a11.38 11.38 0 0 1 7.25 2.53v-2h5.83zm-12 18.34a7.15 7.15 0 0 0 5.7-2.77v-7.54a7.52 7.52 0 0 0-5.79-2.77 6.23 6.23 0 0 0-6.17 6.52 6.32 6.32 0 0 0 6.23 6.57z"/>
<path class="cls-1" transform="translate(0)" d="m310.73 41.3v2a11.34 11.34 0 0 1 7.27-2.49c6.38 0 11.49 5.11 11.49 12.26s-5.15 12.31-11.58 12.31a10.77 10.77 0 0 1-6.67-2.14v12.61h-6.33v-34.55zm6.27 5.26a7.52 7.52 0 0 0-5.79 2.77v7.54a7.1 7.1 0 0 0 5.7 2.77 6.27 6.27 0 0 0 6.23-6.57 6.17 6.17 0 0 0-6.14-6.52z"/>
<path class="cls-2" transform="translate(0)" d="M93.48.13a1.82,1.82,0,0,0-1.76.22C73.18,14,38.87-11.45,12.36,8.61a21.21,21.21,0,0,0-5.25,5.47l0,0C13.35,18.73,20,24.32,24.71,30.77a.05.05,0,0,0,.05,0q2.91-.15,5.82-.15t5.82.15s0,0,.05,0C41,24.56,47.3,19.16,53.29,14.64l6.8,37.18A44.43,44.43,0,0,0,95,11.56c0-.08.7-10.54-1.55-11.45"/>
<path class="cls-3" transform="translate(0)" d="m0 40.34a91.67 91.67 0 0 0 1.08 11.51 151.69 151.69 0 0 0 27.11 15.15c-1.65-6-3.38-12.91-7.41-18.65-1.94-2.76-3.22-3.93-6.57-6.44 0.12-6.2-1.23-11.64-2.73-17.19a64.26 64.26 0 0 0-4.37-10.63c-3.9 5.27-5.5 11.42-6.56 17.91a40.23 40.23 0 0 0-0.55 8.33m61.13 0a91.67 91.67 0 0 1-1 11.51 152 152 0 0 1-27.13 15.16c1.65-6.1 3.38-13 7.41-18.69 1.94-2.76 3.22-3.93 6.57-6.44-0.13-6.2 1.23-11.64 2.73-17.19a64.26 64.26 0 0 1 4.34-10.54c3.9 5.27 5.51 11.42 6.57 18a40.22 40.22 0 0 1 0.51 8.29"/>
<path class="cls-4" transform="translate(0)" d="M60.1,51.85A151.69,151.69,0,0,1,33,67H28.18q-6.57-2.82-12.83-6.25a44,44,0,0,0,5.24,9.23,46.2,46.2,0,0,0,7.63,8,42.18,42.18,0,0,0,7,4.7c.78.42,1.56.82,2.37,1.21a55.94,55.94,0,0,1,13-23.18,54.78,54.78,0,0,1,9.53-8.79"/>
<path class="cls-5" transform="translate(0)" d="m32.54 105.77a2 2 0 0 0 3.28-1.8 56.08 56.08 0 0 1 1.79-20.15c-0.8-0.38-1.59-0.78-2.37-1.21a41.67 41.67 0 0 1-7-4.7 45.12 45.12 0 0 1-7.63-8 43.54 43.54 0 0 1-5.24-9.23 155.64 155.64 0 0 1-14.28-8.84c0.49 3.16 1.14 6.26 1.91 9.38a83.74 83.74 0 0 0 29.53 44.55m17.21-81.14c-1.51 5.55-2.85 11-2.73 17.19-3.34 2.5-4.62 3.68-6.57 6.44-4.06 5.79-5.8 12.64-7.44 18.74h-4.81c-1.65-6.1-3.38-13-7.41-18.69-1.94-2.76-3.22-3.93-6.57-6.44 0.12-6.2-1.23-11.64-2.73-17.19a64.26 64.26 0 0 0-4.37-10.59c6.24 4.65 12.89 10.24 17.6 16.69a0.05 0.05 0 0 0 0.05 0q2.91-0.15 5.82-0.15t5.82 0.15s0 0 0.05 0c4.75-6.46 11.36-12 17.56-16.66a64.64 64.64 0 0 0-4.34 10.54"/>
<path class="cls-6" transform="translate(0)" d="m35.59 98.17a67.66 67.66 0 0 0 24.52-46.32 54.78 54.78 0 0 0-9.53 8.79 56 56 0 0 0-15 37.53z"/>
<path class="cls-7" transform="translate(0)" d="M15.36,60.71A155.64,155.64,0,0,1,1.08,51.85C1.57,55,2.22,58.12,3,61.23a84,84,0,0,0,7.85,19.34A21.17,21.17,0,0,1,28.19,67q-6.57-2.82-12.83-6.25"/>
<path class="cls-8" transform="translate(0)" d="M30.59,67H33c1.26-4.62,2.57-9.69,4.9-14.4a37.47,37.47,0,0,0-14.62,0c2.34,4.7,3.65,9.78,4.9,14.4h2.42Z"/>
<path class="cls-9" transform="translate(0)" d="M50.8,45.78a10.71,10.71,0,0,0-4.27,1.6,2.3,2.3,0,0,1-1.44,4.1,2.27,2.27,0,0,1-1.79-.87,19.84,19.84,0,0,0-3,6.19l5.77-.71a8.62,8.62,0,0,0,1.32-.28,7,7,0,0,0,4.18-3.32,6,6,0,0,0-.77-6.71"/>
<path class="cls-10" transform="translate(0)" d="M10.38,45.78a10.77,10.77,0,0,1,4.27,1.6,2.3,2.3,0,0,0,1.44,4.1,2.27,2.27,0,0,0,1.79-.87,19.84,19.84,0,0,1,3,6.19l-5.77-.71a8.62,8.62,0,0,1-1.32-.28,7,7,0,0,1-4.18-3.32,6,6,0,0,1,.77-6.71"/>
<style>.5592b0854af48c52c3e90617351ba81d{height:78px}</style>
</svg>
