<?xml version="1.0" encoding="UTF-8"?>
<svg fill="none" viewBox="0 0 1000 274" xmlns="http://www.w3.org/2000/svg">
<g clip-path="url(#a)" fill="#017737">
<path d="m191.44 72.37c9.958 0 18.03-8.0723 18.03-18.03s-8.072-18.03-18.03-18.03-18.03 8.0723-18.03 18.03 8.072 18.03 18.03 18.03z"/>
<path d="M207.63 81.4H175.26V192.46H207.63V81.4Z"/>
<path d="m712.37 72.37c9.958 0 18.03-8.0723 18.03-18.03s-8.072-18.03-18.03-18.03-18.03 8.0723-18.03 18.03 8.072 18.03 18.03 18.03z"/>
<path d="M728.56 81.4H696.19V192.46H728.56V81.4Z"/>
<path d="m963.96 133.27c0-31.7-25.27-54.31-55.64-54.31-34.14 0-58.97 23.72-58.97 57.86 0 33.7 23.28 57.86 58.97 57.86 30.37 0 50.54-18.84 54.31-39.68h-31.26c-3.55 9.09-13.97 14.19-23.72 14.19-13.08-0.22-22.83-7.98-25.71-24.83h81.8l0.22-11.09zm-81.36-9.09c3.55-16.4 15.74-20.39 25.71-20.39 10.2 0 22.17 5.1 23.72 20.39h-49.43z"/>
<path d="m825.41 81.4h33.25l-45.23 111.06h-34.13l-45.23-111.06h34.81l28.15 73.59 28.38-73.59z"/>
<path d="m647.4 99.13c7.54-11.75 19.51-19.29 33.25-19.29 2.44 0 5.54 0.22 7.54 0.89v30.37c-2.66-0.44-5.54-0.66-8.2-0.66-20.84 0-31.7 15.3-31.7 37.24v44.78h-32.14v-81.8c0-1.77-0.67-2.22-2.66-2.22h-11.09v-27.04h27.93c11.31 0 17.07 5.32 17.07 15.3v2.43z"/>
<path d="m596.63 165.41c-1.77 0-2.22-0.44-2.22-2.22v-110.83c0-11.08-5.76-16.18-17.51-16.18h-28.15v26.82h10.42c1.99 0 2.66 0.66 2.66 2.44v26.16c-4.21-5.54-15.96-12.64-31.7-12.64-31.26 0-54.09 23.72-54.09 57.86 0 34.8 21.95 57.86 53.2 57.86 17.51 0 29.93-8.87 34.58-16.18 0.44 4.88 3.77 13.97 15.74 13.97h28.6v-27.04h-11.53v-0.02zm-60.74 2.66c-15.52 0-26.82-11.97-26.82-31.26 0-18.4 11.53-30.81 27.04-30.81 17.51 0 26.38 15.52 26.38 30.59 0 23.5-14.18 31.48-26.6 31.48z"/>
<path d="m468.94 133.27c0-31.7-25.27-54.31-55.64-54.31-34.14 0-58.97 23.72-58.97 57.86 0 33.7 23.28 57.86 58.97 57.86 30.37 0 50.54-18.84 54.31-39.68h-31.26c-3.55 9.09-13.97 14.19-23.72 14.19-13.08-0.22-22.83-7.98-25.71-24.83h81.8l0.22-11.09zm-81.35-9.09c3.55-16.4 15.74-20.39 25.71-20.39 10.2 0 22.17 5.1 23.72 20.39h-49.43z"/>
<path d="m294.93 78.96c-18.18 0-31.04 9.53-35.91 17.73-0.89-4.66-3.99-15.3-16.4-15.3h-27.04v27.05h11.08c1.99 0 2.44 0.44 2.44 2.22v127.24h32.37v-49.21l-0.22-7.98c4.65 7.76 17.07 13.97 32.14 13.97 31.7 0 53.87-23.5 53.87-57.86-0.02-34.59-21.08-57.86-52.33-57.86zm-8.21 89.11c-17.51 0-25.94-15.74-25.94-30.81 0-23.05 13.97-31.26 26.38-31.26 15.07 0 27.04 12.64 27.04 31.03 0.01 21.73-14.62 31.04-27.48 31.04z"/>
<path d="m167.68 136.82c0 34.36-22.17 57.86-53.87 57.86-15.07 0-27.49-6.21-32.14-13.97l0.22 7.98v49.21h-32.36v-127.24c0-1.77-0.44-2.22-2.44-2.22h-11.09v-27.04h27.05c12.41 0 15.52 10.64 16.4 15.3 4.88-8.2 17.73-17.73 35.91-17.73 31.26-0.01 52.32 23.26 52.32 57.85zm-33.03 0.22c0-18.4-11.97-31.03-27.05-31.03-12.41 0-26.38 8.2-26.38 31.26 0 15.07 8.42 30.81 25.94 30.81 12.86-0.01 27.49-9.32 27.49-31.04z"/>
</g>
<defs>
<clipPath id="a">
<rect width="1e3" height="274" fill="#fff"/>
</clipPath>
</defs>
<style>.1f7356157a769081f9c25e837acbae6a{height:76px}</style>
</svg>
