<?xml version="1.0" encoding="UTF-8"?>
<svg enable-background="new 0 0 221.9 63.5" version="1.1" viewBox="0 0 221.9 63.5" xml:space="preserve" xmlns="http://www.w3.org/2000/svg">
<style type="text/css">
	.st0{fill:url(#Path_28986_00000122722191368557582300000004399655728496679077_);}
	.st1{fill:url(#Subtraction_31_00000003077389657784687720000001567156126111299456_);}
	.st2{fill:#373944;}
	.st3{fill:#1E811F;}
	.st4{fill:#56B14E;}
	.st5{fill:url(#Subtraction_32_00000164484284197038721750000013190944706707603088_);}
	.st6{fill:url(#Subtraction_30_00000091707916151065654450000009365260676785662365_);}
</style>
<g transform="translate(-530.5 -321)">
		<linearGradient id="e" x1="-25.723" x2="-25.719" y1="724.24" y2="723.28" gradientTransform="matrix(38.634 0 0 -25.575 1548 18844)" gradientUnits="userSpaceOnUse">
		<stop stop-color="#56B14E" offset="0"/>
		<stop stop-color="#4A9E41" offset=".539"/>
		<stop stop-color="#357C2A" offset="1"/>
	</linearGradient>
	<path d="m554.7 321h-0.7c-10.5 0-19 8.5-19 19v5.1c0 0.8 0.7 1.5 1.5 1.5h4.1c0.8 0 1.5-0.7 1.5-1.5v-5.4c0-6.6 5.3-11.9 11.9-11.9h0.6c6.6 0 11.9 5.3 11.9 11.9v5.4c0 0.8 0.7 1.5 1.5 1.5h4.1c0.8 0 1.5-0.7 1.5-1.5v-5.1c0.1-10.5-8.4-19-18.9-19z" fill="url(#e)"/>
		<linearGradient id="g" x1="-28.421" x2="-28.421" y1="728.45" y2="729.41" gradientTransform="matrix(47.275 0 0 -40.924 1897.7 30195)" gradientUnits="userSpaceOnUse">
		<stop stop-color="#4A9E41" offset="0"/>
		<stop stop-color="#56B14E" offset="1"/>
	</linearGradient>
	<path d="m568.2 384.5h-5.3c-1.8 0-3.4-1-4.2-2.6h-9.7c-0.8 1.6-2.4 2.6-4.2 2.6h-5.3c-1.9 0-3.5-1.1-4.3-2.8-2.8-0.8-4.7-3.3-4.7-6.2v-24.3c0-1.1 0.3-2.3 0.9-3.2 0-2.5 2-4.4 4.5-4.4h8.6c1.2 0 2.3 0.5 3.1 1.3h13.2c0.8-0.8 2-1.3 3.1-1.3h8.6c2.5 0 4.5 2 4.5 4.5 0.5 1 0.8 2.1 0.8 3.2v24.3c0 3.1-2.3 5.8-5.3 6.3-0.8 1.6-2.5 2.6-4.3 2.6zm-14.1-31.6h-0.6c-2.9 0.3-4.9 2.9-4.6 5.8 0.2 1.5 1 2.9 2.3 3.7 0.3 0.2 0.4 0.5 0.3 0.8l-1.3 8.7c0 0.2 0 0.5 0.2 0.7s0.4 0.3 0.6 0.3h6.1c0.2 0 0.5-0.1 0.6-0.3 0.2-0.2 0.2-0.4 0.2-0.7l-1.3-8.7c0-0.3 0.1-0.6 0.3-0.8 2.4-1.6 3-4.9 1.4-7.3-0.8-1.3-2.4-2.2-4.2-2.2z" fill="url(#g)"/>
	<path class="st2" d="m609.4 376.2h-11.4l-2.3 7.1c-0.3 0.1-0.6 0.2-0.9 0.3-0.4 0.1-0.7 0.1-1.1 0.1-0.7 0-1.3-0.1-1.9-0.5-0.5-0.3-0.8-0.9-0.7-1.5 0-0.3 0-0.7 0.1-1s0.2-0.7 0.4-1.1c0.4-1.3 1-3 1.7-5 0.7-2.1 1.5-4.2 2.3-6.5s1.6-4.5 2.5-6.7c0.8-2.2 1.6-4.1 2.2-5.7 0.5-0.2 0.9-0.4 1.4-0.5 0.7-0.2 1.3-0.3 2-0.3 0.8 0 1.6 0.1 2.4 0.4 0.7 0.2 1.2 0.7 1.4 1.3 0.7 1.8 1.4 3.8 2.2 6s1.6 4.5 2.4 6.9 1.6 4.7 2.3 7 1.4 4.4 2 6.2c-0.3 0.3-0.7 0.6-1.1 0.8-0.5 0.2-1.1 0.3-1.6 0.3-0.6 0.1-1.3-0.1-1.8-0.5-0.4-0.5-0.8-1-0.9-1.6l-1.6-5.5zm-5.7-17.1c-0.3 0.8-0.6 1.8-1 2.8l-1.2 3.3c-0.4 1.2-0.8 2.3-1.2 3.5s-0.8 2.3-1.2 3.5h9.1c-0.4-1.2-0.8-2.5-1.2-3.7-0.4-1.3-0.8-2.4-1.2-3.6l-1.1-3.2c-0.3-1-0.6-1.9-0.8-2.6h-0.2zm38.2-0.7c0 0.5-0.1 1-0.4 1.4s-0.6 0.7-1 0.9c-0.9-0.6-1.8-1.1-2.8-1.5-1.2-0.5-2.6-0.7-3.9-0.7s-2.5 0.2-3.7 0.7c-1.1 0.5-2.1 1.2-2.9 2-0.9 1-1.5 2.1-1.9 3.3-0.5 1.5-0.7 3-0.7 4.6 0 3.5 0.9 6.1 2.6 7.9 1.8 1.8 4.3 2.8 6.9 2.7 1.3 0 2.7-0.2 3.9-0.6 1-0.4 2-0.9 2.9-1.5 0.4 0.2 0.7 0.6 0.9 0.9 0.3 0.4 0.4 0.9 0.4 1.4 0 0.4-0.1 0.8-0.3 1.2-0.3 0.4-0.7 0.8-1.1 1-0.9 0.5-1.8 0.9-2.8 1.2-1.5 0.4-3 0.5-4.5 0.5-1.9 0-3.7-0.3-5.5-0.9-1.7-0.6-3.2-1.5-4.5-2.7-1.3-1.3-2.3-2.9-3-4.6-0.8-2.1-1.1-4.3-1.1-6.5s0.3-4.4 1.1-6.4c0.7-1.7 1.7-3.3 3-4.6 1.2-1.2 2.7-2.2 4.4-2.8s3.5-1 5.3-1c1.2 0 2.4 0.1 3.6 0.3 0.9 0.2 1.9 0.5 2.7 0.9 0.7 0.3 1.3 0.7 1.8 1.3 0.3 0.6 0.5 1.1 0.6 1.6zm26.1 0c0 0.5-0.1 1-0.4 1.4s-0.6 0.7-1 0.9c-0.9-0.6-1.8-1.1-2.8-1.5-1.2-0.5-2.6-0.7-3.9-0.7s-2.5 0.2-3.7 0.7c-1.1 0.5-2.1 1.2-2.9 2-0.9 1-1.5 2.1-1.9 3.3-0.5 1.5-0.7 3-0.7 4.6 0 3.5 0.9 6.1 2.6 7.9 1.8 1.8 4.3 2.8 6.9 2.7 1.3 0 2.7-0.2 3.9-0.6 1-0.4 2-0.9 2.9-1.5 0.4 0.2 0.7 0.6 0.9 0.9 0.3 0.4 0.4 0.9 0.4 1.4 0 0.4-0.1 0.8-0.3 1.2-0.3 0.4-0.7 0.8-1.1 1-0.9 0.5-1.8 0.9-2.8 1.2-1.5 0.4-3 0.5-4.5 0.5-1.9 0-3.7-0.3-5.5-0.9-1.7-0.6-3.2-1.5-4.4-2.7-1.3-1.3-2.3-2.9-3-4.6-0.8-2.1-1.1-4.3-1.1-6.5s0.3-4.4 1.1-6.4c0.7-1.7 1.7-3.3 3-4.6 1.2-1.2 2.7-2.2 4.4-2.8s3.5-1 5.3-1c1.2 0 2.4 0.1 3.6 0.3 0.9 0.2 1.9 0.5 2.7 0.9 0.7 0.3 1.3 0.7 1.8 1.3 0.3 0.6 0.5 1.1 0.5 1.6zm8.7 24.9c-0.7 0-1.4-0.2-1.9-0.7s-0.8-1.2-0.7-1.9v-22.9c0-0.7 0.2-1.4 0.7-1.9s1.2-0.7 1.9-0.7h15.3c0.2 0.2 0.3 0.5 0.4 0.8 0.1 0.4 0.2 0.7 0.2 1.1 0 0.6-0.1 1.1-0.5 1.6-0.3 0.4-0.8 0.6-1.3 0.6h-11.9v7.7h11.7c0.2 0.2 0.3 0.5 0.4 0.8 0.1 0.4 0.2 0.7 0.2 1.1 0 0.6-0.1 1.1-0.5 1.6-0.3 0.3-0.8 0.5-1.3 0.5h-10.5v8.4h13.3c0.2 0.2 0.3 0.5 0.4 0.8 0.1 0.4 0.2 0.7 0.2 1.1 0 0.6-0.1 1.1-0.5 1.6-0.3 0.4-0.8 0.6-1.3 0.5l-14.3-0.1zm30-3.5c1.5 0.1 3.1-0.3 4.3-1.2 0.9-0.8 1.4-1.9 1.4-3.1 0-1-0.3-2-1.1-2.7-1-0.8-2.1-1.4-3.4-1.7l-3.5-1.1c-1-0.3-2-0.7-2.9-1.2-0.8-0.4-1.6-0.9-2.2-1.6-0.6-0.6-1.1-1.3-1.4-2.1-0.3-0.9-0.5-1.9-0.5-2.9-0.1-2.3 0.9-4.4 2.7-5.8 2.1-1.5 4.7-2.3 7.3-2.1 1.2 0 2.4 0.1 3.5 0.3 1 0.2 1.9 0.4 2.8 0.8 0.7 0.3 1.3 0.7 1.9 1.3 0.4 0.4 0.7 1 0.7 1.6 0 0.5-0.1 1-0.4 1.4s-0.6 0.7-1 0.9c-0.9-0.7-1.9-1.2-3-1.5-1.3-0.4-2.7-0.6-4.1-0.6-1.4-0.1-2.8 0.3-3.9 1-0.9 0.6-1.4 1.6-1.4 2.7 0 0.9 0.3 1.7 1 2.2 1 0.7 2 1.2 3.2 1.5l2.7 0.8c2.2 0.6 4.3 1.7 6 3.2 1.5 1.4 2.3 3.4 2.2 5.5 0 1.2-0.2 2.3-0.7 3.4-0.5 1-1.2 1.9-2.1 2.7-1 0.8-2.1 1.4-3.4 1.7-1.5 0.4-3 0.6-4.6 0.6-1.3 0-2.6-0.1-3.9-0.4-1-0.2-2.1-0.5-3-1-0.7-0.3-1.4-0.8-2-1.4-0.4-0.4-0.7-1-0.7-1.7 0-0.6 0.2-1.1 0.6-1.6 0.4-0.4 0.8-0.8 1.3-1 0.9 0.8 1.9 1.4 3 1.9 1.4 0.9 3 1.2 4.6 1.2zm24.6 0c1.5 0.1 3.1-0.3 4.3-1.2 0.9-0.8 1.4-1.9 1.4-3.1 0-1-0.3-2-1.1-2.7-1-0.8-2.1-1.4-3.4-1.7l-3.5-1.1c-1-0.3-2-0.7-2.9-1.2-0.8-0.4-1.6-0.9-2.2-1.6-0.6-0.6-1.1-1.3-1.4-2.1-0.3-0.9-0.5-1.9-0.5-2.9-0.1-2.3 0.9-4.4 2.7-5.8 2.1-1.5 4.7-2.3 7.3-2.1 1.2 0 2.4 0.1 3.5 0.3 1 0.2 1.9 0.4 2.8 0.8 0.7 0.3 1.3 0.7 1.9 1.3 0.4 0.4 0.7 1 0.7 1.6 0 0.5-0.1 1-0.4 1.4s-0.6 0.7-1 0.9c-0.9-0.7-1.9-1.2-3-1.5-1.3-0.4-2.7-0.6-4.1-0.6-1.4-0.1-2.8 0.3-3.9 1-0.9 0.6-1.4 1.6-1.4 2.7 0 0.9 0.3 1.7 1 2.2 1 0.7 2 1.2 3.2 1.5l2.7 0.8c2.2 0.6 4.3 1.7 6 3.2 1.5 1.4 2.3 3.4 2.2 5.5 0 1.2-0.2 2.3-0.7 3.4-0.5 1-1.2 1.9-2.1 2.7-1 0.8-2.1 1.4-3.4 1.7-1.5 0.4-3 0.6-4.6 0.6-1.3 0-2.6-0.1-3.9-0.4-1-0.2-2.1-0.5-3-1-0.7-0.3-1.4-0.8-2-1.4-0.4-0.4-0.7-1-0.7-1.7 0-0.6 0.2-1.1 0.6-1.6 0.4-0.4 0.8-0.8 1.3-1 0.9 0.8 1.9 1.4 3 1.9 1.5 0.9 3 1.2 4.6 1.2zm-72.1-32.9"/>
	<g transform="translate(591.64 330.49)">
		<path class="st2" d="m1.4 10.1v4.9c-0.1 0-0.2 0.1-0.4 0.1s-0.3 0.1-0.5 0.1c-0.7 0-1-0.3-1-0.8v-12.2c0-0.2 0.1-0.4 0.2-0.6s0.3-0.3 0.6-0.3c0.5-0.2 1-0.3 1.6-0.3 0.6-0.1 1.2-0.1 1.8-0.1 1.5-0.1 3 0.3 4.2 1.2 1 0.9 1.5 2.1 1.4 3.3 0.1 1.3-0.4 2.5-1.4 3.4-1.2 0.9-2.7 1.4-4.2 1.3h-2.3zm2.2-1.6c1 0.1 2-0.2 2.8-0.8 0.7-0.6 1.1-1.4 1-2.3 0.1-0.9-0.3-1.7-1-2.3-0.8-0.5-1.8-0.7-2.7-0.7-0.4 0-0.8 0-1.2 0.1-0.5 0-0.8 0.1-1.1 0.2v5.9l2.2-0.1zm9.5 6.5c-0.1 0-0.2 0.1-0.3 0.1-0.2 0-0.3 0.1-0.5 0.1-0.7 0-1-0.3-1-0.8v-7.8c0-0.3 0.1-0.6 0.2-0.8 0.2-0.2 0.4-0.5 0.7-0.6 0.5-0.3 1-0.5 1.6-0.7 0.8-0.2 1.5-0.3 2.3-0.3 1.2 0 1.8 0.3 1.8 0.9 0 0.1 0 0.3-0.1 0.4 0 0.1-0.1 0.2-0.2 0.3-0.2 0-0.4-0.1-0.6-0.1h-0.7c-0.6 0-1.2 0.1-1.9 0.2-0.5 0.1-0.9 0.3-1.3 0.5v8.6zm8.9 0c-0.1 0-0.2 0.1-0.3 0.1-0.2 0-0.3 0.1-0.5 0.1-0.7 0-1-0.3-1-0.8v-9.9c0.1 0 0.2-0.1 0.4-0.1s0.3-0.1 0.5-0.1c0.6 0 1 0.3 1 0.8l-0.1 9.9zm-2.1-13.9c0-0.3 0.1-0.6 0.3-0.8s0.5-0.3 0.8-0.3 0.6 0.1 0.8 0.3 0.3 0.5 0.3 0.8-0.1 0.6-0.3 0.8-0.5 0.3-0.8 0.3-0.6-0.1-0.9-0.3c-0.1-0.2-0.3-0.4-0.2-0.8zm13.6 3.2c0.2 0 0.4 0.1 0.6 0.2 0.2 0.2 0.3 0.4 0.2 0.6 0 0.3-0.1 0.6-0.2 0.9-0.1 0.4-0.3 0.9-0.5 1.5-0.1 0.5-0.4 1.2-0.6 1.8-0.3 0.7-0.5 1.4-0.8 2s-0.6 1.3-0.8 2c-0.4 0.7-0.6 1.2-0.9 1.7-0.1 0.1-0.3 0.1-0.4 0.2-0.2 0-0.4 0.1-0.6 0.1-0.6 0-0.9-0.2-1.1-0.5-0.1-0.3-0.3-0.6-0.5-1.1s-0.4-1-0.7-1.6c-0.2-0.6-0.5-1.2-0.8-1.9s-0.5-1.3-0.8-2-0.4-1.2-0.6-1.8-0.4-1.1-0.5-1.6c0.1-0.2 0.3-0.3 0.4-0.4 0.2-0.1 0.4-0.1 0.5-0.1 0.2 0 0.5 0.1 0.6 0.2 0.2 0.2 0.3 0.4 0.4 0.7l1.4 4.1 0.3 0.9c0.1 0.4 0.3 0.8 0.4 1.1 0.1 0.4 0.3 0.8 0.4 1.1 0.1 0.4 0.3 0.7 0.4 0.9h0.1c0.6-1.5 1.2-3.1 1.7-4.6s1-3 1.4-4.4h1zm6.8 9.6c0.5 0 1.1-0.1 1.6-0.2 0.3-0.1 0.6-0.2 0.9-0.4v-3.3l-2.8 0.3c-0.6 0-1.2 0.2-1.8 0.5-0.4 0.3-0.6 0.8-0.6 1.2 0 0.5 0.2 1 0.7 1.3 0.6 0.5 1.3 0.6 2 0.6zm0-9.7c1.1-0.1 2.2 0.3 3.2 0.9 0.8 0.7 1.3 1.7 1.2 2.8v5.4c0 0.3 0 0.5-0.2 0.8-0.2 0.2-0.4 0.4-0.6 0.5-0.5 0.2-0.9 0.4-1.5 0.6-0.7 0.2-1.4 0.2-2.1 0.2-1.2 0.1-2.3-0.2-3.3-0.8-0.8-0.6-1.2-1.5-1.2-2.4-0.1-0.9 0.3-1.7 1-2.3 0.8-0.6 1.8-0.9 2.8-0.9l3.3-0.3v-0.8c0.1-0.6-0.2-1.3-0.7-1.7s-1.2-0.6-1.9-0.5c-0.6 0-1.2 0.1-1.8 0.3l-1.5 0.6c-0.1-0.1-0.2-0.2-0.3-0.4-0.1-0.1-0.2-0.3-0.1-0.5 0-0.2 0-0.4 0.2-0.5 0.1-0.2 0.3-0.3 0.5-0.4 0.4-0.2 0.9-0.4 1.4-0.5 0.4-0.1 1-0.1 1.6-0.1zm11.3 11.2c-0.9 0-1.8-0.2-2.6-0.7-0.7-0.6-1.1-1.5-1-2.4v-10.9c0.1 0 0.2-0.1 0.4-0.1s0.3-0.1 0.5-0.1c0.6 0 1 0.3 1 0.8v2.6h3.8c0.1 0.1 0.1 0.2 0.1 0.3s0.1 0.3 0.1 0.4c0 0.5-0.2 0.8-0.7 0.8h-3.3v6c-0.1 0.5 0.1 1 0.5 1.3s0.9 0.4 1.5 0.4c0.3 0 0.6-0.1 0.9-0.1 0.3-0.1 0.5-0.2 0.8-0.3l0.3 0.3c0.1 0.1 0.1 0.3 0.1 0.5 0 0.4-0.3 0.7-0.6 0.8-0.7 0.3-1.3 0.4-1.8 0.4zm5.5-4.5c0.4 2 1.7 3 3.9 3 0.6 0 1.2-0.1 1.7-0.3 0.4-0.2 0.9-0.4 1.2-0.7 0.3 0.2 0.5 0.5 0.5 0.9 0 0.2-0.1 0.5-0.3 0.6-0.2 0.2-0.5 0.4-0.8 0.5-0.4 0.2-0.8 0.3-1.1 0.4-0.5 0.1-0.9 0.1-1.4 0.1-1.5 0.1-3-0.4-4.2-1.4-1.1-1.1-1.7-2.7-1.5-4.2 0-0.8 0.1-1.6 0.4-2.3 0.2-0.6 0.6-1.2 1.1-1.7s1-0.8 1.6-1.1 1.3-0.4 2-0.4c0.6 0 1.3 0.1 1.9 0.3s1.1 0.5 1.5 1c0.4 0.4 0.8 0.9 1 1.5 0.3 0.5 0.4 1.1 0.4 1.8 0 0.3-0.1 0.5-0.2 0.7-0.2 0.2-0.4 0.2-0.6 0.3l-7.1 1zm3.1-5.2c-0.9 0-1.7 0.3-2.3 1-0.7 0.8-1 1.8-1 2.8l6.3-0.9c0-0.8-0.4-1.5-0.9-2.1s-1.3-0.9-2.1-0.8z"/>
		<path class="st3" d="m75.4 15c-0.1 0-0.2 0.1-0.3 0.1-0.2 0-0.3 0.1-0.5 0.1-0.7 0-1-0.3-1-0.8v-13.2c0.1 0 0.2-0.1 0.4-0.1 0-0.1 0.2-0.1 0.4-0.1 0.7 0 1 0.3 1 0.8v13.2zm11.1-6.8c0.1-0.7-0.2-1.4-0.7-1.9-0.6-0.4-1.2-0.6-1.9-0.6-0.6 0-1.1 0.1-1.6 0.2-0.4 0.1-0.8 0.3-1.2 0.5v8.6c-0.1 0-0.2 0.1-0.3 0.1-0.2 0-0.3 0.1-0.5 0.1-0.7 0-1-0.3-1-0.8v-7.9c0-0.3 0.1-0.6 0.2-0.8 0.2-0.2 0.4-0.5 0.7-0.6 0.5-0.3 1-0.5 1.6-0.7 0.7-0.2 1.5-0.3 2.2-0.3 1.2-0.1 2.3 0.3 3.3 0.9 0.8 0.7 1.3 1.8 1.2 3v7c-0.1 0-0.2 0.1-0.4 0.1s-0.3 0.1-0.5 0.1c-0.7 0-1-0.3-1-0.8l-0.1-6.2zm8.9 7.2c-0.9 0-1.8-0.2-2.6-0.7-0.7-0.6-1.1-1.5-1-2.4v-10.9c0.1 0 0.2-0.1 0.4-0.1s0.3-0.1 0.5-0.1c0.6 0 1 0.3 1 0.8v2.6h3.8c0.1 0.1 0.1 0.2 0.1 0.3s0.1 0.3 0.1 0.4c0 0.5-0.2 0.8-0.7 0.8h-3.3v5.9c-0.1 0.5 0.1 1 0.5 1.3s0.9 0.4 1.5 0.4c0.3 0 0.6-0.1 0.9-0.1 0.3-0.1 0.5-0.2 0.8-0.3l0.3 0.3c0.1 0.1 0.1 0.3 0.1 0.5 0 0.4-0.3 0.7-0.6 0.8-0.7 0.4-1.3 0.5-1.8 0.5zm5.5-4.6c0.4 2 1.7 3 3.9 3 0.6 0 1.2-0.1 1.7-0.3 0.4-0.2 0.9-0.4 1.2-0.7 0.3 0.2 0.5 0.5 0.5 0.9 0 0.2-0.1 0.5-0.3 0.6-0.2 0.2-0.5 0.4-0.8 0.5-0.4 0.2-0.8 0.3-1.1 0.4-0.5 0.1-0.9 0.1-1.4 0.1-1.5 0.1-3-0.4-4.2-1.4-1.1-1.1-1.7-2.7-1.5-4.2 0-0.8 0.1-1.6 0.4-2.3 0.2-0.6 0.6-1.2 1.1-1.7s1-0.8 1.6-1.1 1.3-0.4 2-0.4c0.6 0 1.3 0.1 1.9 0.3s1.1 0.5 1.5 1c0.4 0.4 0.8 0.9 1 1.5s0.4 1.2 0.4 1.9c0 0.3-0.1 0.5-0.2 0.7-0.2 0.2-0.4 0.2-0.6 0.3l-7.1 0.9zm3.2-5.1c-0.9 0-1.7 0.3-2.3 1-0.7 0.8-1 1.8-1 2.8l6.3-0.9c0-0.8-0.4-1.5-0.9-2.1-0.6-0.6-1.3-0.9-2.1-0.8zm9.2 9.3c-0.1 0-0.2 0.1-0.3 0.1-0.2 0-0.3 0.1-0.5 0.1-0.7 0-1-0.3-1-0.8v-7.8c0-0.3 0.1-0.6 0.2-0.8 0.2-0.2 0.4-0.5 0.7-0.6 0.5-0.3 1-0.5 1.6-0.7 0.8-0.2 1.5-0.3 2.3-0.3 1.2 0 1.8 0.3 1.8 0.9 0 0.1 0 0.3-0.1 0.4 0 0.1-0.1 0.2-0.2 0.3-0.2 0-0.4-0.1-0.6-0.1h-0.7c-0.6 0-1.2 0.1-1.9 0.2-0.5 0.1-0.9 0.3-1.3 0.5v8.6zm14-6.8c0.1-0.7-0.2-1.4-0.7-1.9-0.6-0.4-1.2-0.6-1.9-0.6-0.6 0-1.1 0.1-1.6 0.2-0.4 0.1-0.8 0.3-1.2 0.5v8.6c-0.1 0-0.2 0.1-0.3 0.1-0.2 0-0.3 0.1-0.5 0.1-0.7 0-1-0.3-1-0.8v-7.9c0-0.3 0.1-0.6 0.2-0.8 0.2-0.2 0.4-0.5 0.7-0.6 0.5-0.3 1-0.5 1.6-0.7 0.7-0.2 1.5-0.3 2.2-0.3 1.2-0.1 2.3 0.3 3.3 0.9 0.8 0.7 1.3 1.8 1.2 3v7c-0.1 0-0.2 0.1-0.4 0.1s-0.3 0.1-0.5 0.1c-0.7 0-1-0.3-1-0.8l-0.1-6.2zm6.6 2.6c0.4 2 1.7 3 3.9 3 0.6 0 1.2-0.1 1.7-0.3 0.4-0.2 0.9-0.4 1.2-0.7 0.3 0.2 0.5 0.5 0.5 0.9 0 0.2-0.1 0.5-0.3 0.6-0.2 0.2-0.5 0.4-0.8 0.5-0.4 0.2-0.8 0.3-1.1 0.4-0.5 0.1-0.9 0.1-1.4 0.1-1.5 0.1-3-0.4-4.2-1.4-1.1-1.1-1.7-2.7-1.5-4.2 0-0.8 0.1-1.6 0.4-2.3 0.2-0.6 0.6-1.2 1.1-1.7s1-0.8 1.6-1.1 1.3-0.4 2-0.4c0.6 0 1.3 0.1 1.9 0.3s1.1 0.5 1.5 1c0.4 0.4 0.8 0.9 1 1.5s0.4 1.2 0.4 1.9c0 0.3-0.1 0.5-0.2 0.7-0.2 0.2-0.4 0.2-0.6 0.3l-7.1 0.9zm3.2-5.1c-0.9 0-1.7 0.3-2.3 1-0.7 0.8-1 1.8-1 2.8l6.3-0.9c0-0.8-0.4-1.5-0.9-2.1s-1.3-0.9-2.1-0.8zm11 9.7c-0.9 0-1.8-0.2-2.6-0.7-0.7-0.6-1.1-1.5-1-2.4v-10.9c0.1 0 0.2-0.1 0.4-0.1s0.3-0.1 0.5-0.1c0.6 0 1 0.3 1 0.8v2.6h3.8c0.1 0.1 0.1 0.2 0.1 0.3s0.1 0.3 0.1 0.4c0 0.5-0.2 0.8-0.7 0.8h-3.3v5.9c-0.1 0.5 0.1 1 0.5 1.3s0.9 0.4 1.5 0.4c0.3 0 0.6-0.1 0.9-0.1 0.3-0.1 0.5-0.2 0.8-0.3l0.3 0.3c0.1 0.1 0.1 0.3 0.1 0.5 0 0.4-0.3 0.7-0.6 0.8-0.7 0.4-1.2 0.5-1.8 0.5z"/>
	</g>
	<path class="st4" d="m551 336.3c0-1.2-1-2.1-2.2-2.1s-2.1 1-2.1 2.1c0 1.2 1 2.1 2.1 2.1 1.2 0 2.2-1 2.2-2.1m8.4-2.2c-1.2 0-2.1 1-2.1 2.1 0 1.2 1 2.1 2.1 2.1 1.2 0 2.1-1 2.1-2.1 0.1-1.1-0.9-2.1-2.1-2.1m-2.3 5.7c-1.7 1.5-4.3 1.5-6 0-0.2-0.2-0.6-0.2-0.8 0s-0.2 0.6 0 0.8c2.1 2 5.4 2 7.5 0 0.2-0.2 0.2-0.6 0-0.8-0.1-0.2-0.4-0.2-0.7 0"/>
	<g transform="translate(547.36 350.86)">
			<linearGradient id="h" x1="-548.57" x2="-548.59" y1="371.72" y2="372.4" gradientTransform="matrix(14.538 0 0 -24.1 7982.3 8979.3)" gradientUnits="userSpaceOnUse">
			<stop stop-color="#56B14E" offset="0"/>
			<stop stop-color="#4A9E41" offset=".3"/>
			<stop stop-color="#45973C" offset=".355"/>
			<stop stop-color="#3C8732" offset=".523"/>
			<stop stop-color="#367E2B" offset=".717"/>
			<stop stop-color="#357C2A" offset="1"/>
		</linearGradient>
		<path d="m9.8 24.1h-6.1c-1.6 0-2.9-1.3-2.9-2.9v-0.4l1.2-8c-3-2.6-3.4-7.2-0.8-10.2 1.2-1.5 2.9-2.3 4.8-2.6h0.8c4 0 7.3 3.3 7.3 7.3 0 2.1-0.9 4.1-2.6 5.5l1.2 8c0.2 1.6-0.9 3-2.4 3.3h-0.5zm-3-22.1h-0.6c-2.9 0.4-4.9 3-4.6 5.9 0.2 1.5 1 2.9 2.3 3.7 0.3 0.2 0.4 0.5 0.3 0.8l-1.3 8.7c-0.1 0.5 0.2 0.9 0.7 0.9h6.2c0.2 0 0.5-0.1 0.6-0.3 0.2-0.2 0.2-0.4 0.2-0.6l-1.3-8.7c0-0.3 0.1-0.6 0.4-0.8 2.4-1.6 3-4.9 1.4-7.3-1-1.4-2.6-2.3-4.3-2.3z" fill="url(#h)"/>
			<linearGradient id="f" x1="-548.57" x2="-548.59" y1="371.72" y2="372.4" gradientTransform="matrix(14.538 0 0 -24.1 7982.3 8979.3)" gradientUnits="userSpaceOnUse">
			<stop stop-color="#56B14E" stop-opacity=".153" offset="0"/>
			<stop stop-color="#9BF893" stop-opacity=".263" offset="1"/>
		</linearGradient>
		<path d="m9.8 24.1h-6.1c-1.6 0-2.9-1.3-2.9-2.9v-0.4l1.2-8c-3-2.6-3.4-7.2-0.8-10.2 1.2-1.5 2.9-2.4 4.8-2.6h0.8c4 0 7.3 3.3 7.3 7.3 0 2.1-0.9 4.1-2.6 5.5l1.2 8c0.2 1.6-0.9 3-2.4 3.3h-0.5zm-3-22.1h-0.6c-2.9 0.4-4.9 3-4.6 5.9 0.2 1.5 1 2.9 2.3 3.7 0.3 0.2 0.4 0.5 0.3 0.8l-1.3 8.7c0 0.2 0 0.5 0.2 0.6 0.1 0.2 0.4 0.3 0.6 0.3h6.1c0.5 0 0.8-0.4 0.8-0.8v-0.1l-1.3-8.7c0-0.3 0.1-0.6 0.3-0.8 2.4-1.6 3-4.9 1.4-7.3-0.9-1.4-2.5-2.3-4.2-2.3z" fill="url(#f)"/>
	</g>
	<path class="st2" d="m745 358c0-0.5 0.1-0.9 0.3-1.4 0.2-0.4 0.4-0.8 0.8-1.1 0.3-0.3 0.7-0.6 1.2-0.8 1-0.4 2-0.4 3 0 0.4 0.2 0.8 0.4 1.2 0.8 0.3 0.3 0.6 0.7 0.8 1.1 0.4 0.9 0.4 1.9 0 2.8-0.2 0.4-0.4 0.8-0.8 1.1-0.3 0.3-0.7 0.6-1.2 0.8-1 0.4-2 0.4-3 0-0.9-0.4-1.6-1-1.9-1.9-0.3-0.5-0.4-0.9-0.4-1.4zm0.8 0c0 0.4 0.1 0.8 0.2 1.1s0.3 0.6 0.6 0.9 0.6 0.5 0.9 0.6c0.8 0.3 1.6 0.3 2.4 0 0.3-0.1 0.7-0.3 0.9-0.6 0.3-0.3 0.5-0.6 0.6-0.9 0.3-0.7 0.3-1.6 0-2.3-0.1-0.3-0.3-0.6-0.6-0.9s-0.6-0.5-0.9-0.6c-0.8-0.3-1.6-0.3-2.4 0-0.3 0.1-0.7 0.3-0.9 0.6-0.3 0.3-0.5 0.6-0.6 0.9-0.1 0.4-0.2 0.8-0.2 1.2zm2.5 0.4v1.2h-0.4c-0.1 0-0.2 0-0.3-0.1-0.1 0-0.1-0.1-0.1-0.3v-2.7c0-0.1 0.1-0.2 0.3-0.3 0.1 0 0.3 0 0.4-0.1h0.4c0.4 0 0.8 0.1 1.1 0.3 0.4 0.3 0.5 1 0.2 1.4-0.1 0.2-0.3 0.3-0.5 0.3l0.8 1c0 0.1-0.1 0.2-0.1 0.2-0.1 0.1-0.2 0.1-0.3 0.1-0.2 0-0.4-0.1-0.5-0.3l-0.6-0.9-0.4 0.2zm0.4-0.6c0.4 0 0.6-0.2 0.6-0.5 0-0.1-0.1-0.3-0.2-0.3-0.1-0.1-0.3-0.1-0.5-0.1h-0.2s-0.1 0-0.2 0v0.9h0.5z"/>
</g>
<style>.d932fe6a3c64e56926c9b8b213ac4d2b{height:86px}</style>
</svg>
