<?xml version="1.0" encoding="UTF-8"?>
<svg enable-background="new 0 0 236 52" version="1.1" viewBox="0 0 236 52" xml:space="preserve" xmlns="http://www.w3.org/2000/svg" xmlns:i="ns_ai;" xmlns:x="ns_extend;">
 <style type="text/css">
  .st0{fill:#5700FF;}
 </style>
   <path class="st0" d="m38.7 40.1h0.5v11.9h-2c-12.8 0-20.1-7.2-20.1-19v-6.1l4.1-1c2.5-0.6 4.4-2.6 4.9-5.1s-0.4-5.1-2.4-6.6c-4.4-3.4-10.7-0.3-10.8 5.2v26h-12.9v-26.4c0-0.8 0.1-1.6 0.1-2.4 1.4-9.6 9.8-16.7 19.5-16.6 8.8-0.1 16.5 5.7 19 14.1 1.2 4.2 0.8 8.8-1.1 12.8-1.6 3.4-4.1 6.2-7.3 8.2 1.1 4.3 3.3 5.1 8.4 5.1m33.5-25.3v7.3h-1.2c-2.5 0-4.5 0.7-5.9 2.1-1.5 1.5-2.2 3.5-2.1 5.6v13.1h-7v-27.6h7v3.6c1.9-2.5 4.8-4 8-4h1.2zm30.3 16.8h-21.4c0.4 1.7 1.4 3.1 2.8 4.2 1.4 1 3.1 1.5 5.1 1.5 1.5 0 3-0.3 4.4-1 1.2-0.6 2.3-1.4 3.2-2.4l4.7 4.1c-1.5 1.8-3.3 3.2-5.4 4.1-2.2 1-4.6 1.5-7.1 1.4-2.7 0-5.4-0.6-7.9-1.9-4.7-2.5-7.6-7.3-7.5-12.6 0-2.6 0.6-5.1 1.9-7.4 1.3-2.2 3.1-4 5.3-5.2 2.3-1.3 4.9-1.9 7.5-1.9 3.9-0.1 7.7 1.4 10.4 4.1 2.8 2.7 4.2 6.5 4.1 10.4 0.1 1 0 1.8-0.1 2.6zm-10-9.3c-2.6-2.1-6.3-2.1-8.9 0-1.3 1.1-2.2 2.5-2.6 4.1h14.1c-0.3-1.6-1.2-3-2.6-4.1zm55.4-4.9c1.9 2 2.9 4.7 2.8 7.5v18h-7.1v-15.9c0-1.7-0.5-3.1-1.5-4.1s-2.5-1.6-3.9-1.5c-1.7 0-3.1 0.5-4.2 1.6s-1.7 2.6-1.6 4.1v15.8h-7v-15.9c0-1.7-0.5-3-1.5-4.1-1.1-1-2.5-1.6-4-1.5-1.5-0.1-3.1 0.5-4.2 1.6s-1.7 2.6-1.6 4.1v15.8h-7v-27.6h7v2.9c2.1-2.3 5.1-3.6 8.2-3.5 1.8 0 3.5 0.4 5.1 1.2 1.5 0.8 2.7 1.9 3.6 3.3 2.2-3 5.7-4.6 9.4-4.5 3.1-0.1 5.6 0.8 7.5 2.7zm36.5 11.7c0.1 3.9-1.4 7.6-4.2 10.3-2.8 2.8-6.7 4.3-10.6 4.1-4.2 0-7.7-1.4-10.6-4.1-2.8-2.7-4.4-6.4-4.3-10.3 0-4.1 1.4-7.6 4.3-10.3 2.8-2.8 6.6-4.3 10.6-4.1 4.2 0 7.7 1.4 10.6 4.1 2.8 2.6 4.3 6.4 4.2 10.3zm-9.4 5.4c1.4-1.5 2.2-3.4 2.1-5.5 0-2.2-0.7-4-2.1-5.5s-3.4-2.2-5.4-2.2c-2-0.1-4 0.7-5.4 2.2-2.9 3.1-2.9 7.8 0 10.9 1.4 1.5 3.4 2.3 5.4 2.2 2.2 0.1 4-0.6 5.4-2.1zm22.3-12.8v11.5c0 2.4 1.3 3.5 3.8 3.5 1.3 0 2.5-0.4 3.6-0.9v6.6c-1.6 0.8-3.4 1.2-5.2 1.2-3.1 0-5.4-0.8-7-2.5-1.6-1.9-2.5-4.3-2.3-6.8v-12.6h-4.4v-6.4h4.4v-4.6l7-2.4v7h7.5v6.4h-7.4zm38.7 9.9h-21.4c0.4 1.7 1.4 3.1 2.8 4.2 1.4 1 3.1 1.5 5.1 1.5 1.5 0 3-0.3 4.4-1 1.2-0.6 2.3-1.4 3.2-2.4l4.7 4.1c-1.5 1.8-3.3 3.1-5.4 4.1-2.2 1-4.6 1.5-7.1 1.4-2.7 0-5.4-0.6-7.9-1.9-4.7-2.4-7.6-7.3-7.5-12.6 0-2.6 0.7-5.1 1.9-7.4 1.3-2.2 3.1-4 5.3-5.2 2.3-1.3 4.9-1.9 7.5-1.9 4.1 0 7.6 1.4 10.4 4.1s4.3 6.5 4.1 10.4c0 1-0.1 1.8-0.1 2.6zm-10-9.3c-2.6-2.1-6.3-2.1-9 0-1.3 1.1-2.2 2.5-2.6 4.1h14.1c-0.3-1.6-1.2-3-2.5-4.1z">
   </path>
<style>.11aa1b522b0dd766f6a6b62cf3c7251d{height:49px}</style>
</svg>
