<?xml version="1.0" encoding="UTF-8"?>
<svg viewBox="0 0 961 146" xmlns="http://www.w3.org/2000/svg">
<path d="m174.67 17.639c0 2e-4 1e-3 2e-4 2e-3 2e-4 0.763 1.5345 2.386 2.335 3.98 2.1801 0.479-0.0517 0.944-0.1918 1.387-0.4058 1.981-1.007 2.781-3.4085 1.782-5.3931-0.273-0.6382-5.696-10.62-21.208-13.383-3.81-0.68244-7.241-0.73777-10.24-0.42053-9.761 1.0181-14.873 5.9649-15.264 6.3448-1.568 1.553-1.568 4.102 0 5.655 1.556 1.5715 4.098 1.5863 5.655 0.0148 0 0 0.048-0.0701 0.457-0.3541 1.169-0.9259 4.504-3.1319 9.982-3.7036 2.265-0.2324 4.906-0.20658 7.979 0.34306 6.249 1.1472 10.104 3.5671 12.48 5.6292 1.169 1.0513 1.969 1.9883 2.456 2.6449 0.236 0.321 0.399 0.5829 0.476 0.7304 0.039 0.0591 0.056 0.0886 0.065 0.1033 7e-3 0.0115 8e-3 0.014 0.011 0.0146zm751.51-16.61-20.355 117.35h33.915l20.363-117.35h-33.923zm-478.71 44.752c-0.044 0.3283-0.085 0.6861-0.085 1.0882h34.535c0.085-0.8226 0.151-1.5825 0.151-2.3092v-2.3166c0-12.933-3.987-22.963-11.933-30.05-7.964-7.0937-20.02-10.631-36.151-10.631-7.706 0-15.18 1.3612-22.432 4.0688-7.241 2.7334-13.785 6.6104-19.643 11.649-5.862 5.0316-10.845 11.14-14.955 18.334-4.12 7.2154-6.928 15.276-8.481 24.203-0.409 2.372-0.719 4.6554-0.922 6.8613-0.214 2.2023-0.31 4.3418-0.31 6.3854 0 7.1085 1.1 13.439 3.313 19.046 2.199 5.5924 5.452 10.351 9.705 14.254 4.272 3.906 9.484 6.879 15.649 8.934 6.167 2.058 13.257 3.084 21.27 3.084 7.3 0 14.205-1.051 20.738-3.158 6.519-2.095 12.432-5.138 17.718-9.082 5.293-3.951 9.875-8.7646 13.723-14.408 3.843-5.6551 6.798-12.081 8.856-19.278h-34.981c-1.642 5.3599-4.235 9.8271-7.776 13.413-3.56 3.5929-8.256 5.3857-14.114 5.3857-3.489 0-6.367-0.4758-8.628-1.4645-2.261-0.9664-4.087-2.3092-5.471-3.9987-1.387-1.7006-2.368-3.6852-2.932-5.9354-0.561-2.2502-0.838-4.718-0.838-7.3998 0-1.7486 0.085-3.5745 0.303-5.4743 0.203-1.885 0.513-3.8733 0.915-5.9391 1.848-10.768 5.05-18.865 9.565-24.269 4.508-5.3968 10.008-8.0786 16.497-8.0786 5.341 0 9.473 1.3796 12.401 4.1536 2.929 2.7667 4.401 6.7211 4.401 11.867 0 0.4132-0.029 0.771-0.088 1.0661zm103.65 17.834c0.103-0.5459 0.162-1.3501 0.162-2.442 0-3.486-1.202-6.4223-3.574-8.8016-2.398-2.3867-5.386-3.5782-8.975-3.5782-5.098 0-9.222 1.3169-12.38 3.9839-3.158 2.6708-5.164 6.2711-6.035 10.838h30.802zm-33.739 17.29c-0.103 0.5275-0.184 1.0772-0.236 1.6157-0.066 0.5386-0.081 1.0846-0.081 1.6379 0 4.1426 1.354 7.4146 4.065 9.8566 2.726 2.4531 6.091 3.6594 10.097 3.6594 2.726 0 5.349-0.6234 7.831-1.8555 2.501-1.2579 4.56-3.1097 6.186-5.6292h32.448c-2.394 5.323-5.515 9.7681-9.37 13.365-3.87 3.575-8.119 6.485-12.8 8.732-4.678 2.206-9.591 3.795-14.748 4.718-5.18 0.914-10.233 1.379-15.239 1.379-6.087 0-11.686-0.763-16.785-2.29-5.112-1.517-9.513-3.796-13.198-6.843-3.704-3.029-6.578-6.751-8.64-11.166-2.065-4.4082-3.109-9.4657-3.109-15.235 0-1.4165 0.099-2.8662 0.254-4.3307 0.144-1.4608 0.347-2.9363 0.565-4.4746 1.195-6.9461 3.534-13.284 7.016-18.983 3.471-5.6993 7.732-10.539 12.782-14.505 5.057-3.9729 10.705-7.0347 16.95-9.2185 6.26-2.1727 12.8-3.2535 19.64-3.2535 6.85 0 12.907 0.9812 18.182 2.9326 5.26 1.9477 9.709 4.6738 13.295 8.1524 3.571 3.4749 6.3 7.7208 8.137 12.719 1.852 4.9837 2.774 10.48 2.774 16.46 0 3.6963-0.439 7.8721-1.302 12.557h-64.714zm107.96-47.936h-30.954l-14.678 85.412h33.908l7.493-43.521c0.874-5.5407 2.501-9.8714 4.884-12.963 2.394-3.0913 6.219-4.6369 11.431-4.6369 3.686 0 6.205 0.9739 7.563 2.9326 1.361 1.9515 2.043 4.3935 2.043 7.3335 0 1.8592-0.162 3.7442-0.483 5.7067l-7.839 45.148h33.923l8.779-51.187c0.653-3.6962 0.993-7.2154 0.993-10.583 0-8.4771-2.232-14.958-6.688-19.4-4.464-4.4488-11.465-6.6879-21.034-6.6879-6.515 0-12.214 1.3391-17.105 3.9914-4.888 2.6855-9.724 6.6067-14.516 11.826l2.28-13.372zm109.98 84.768c-3.818 0.2-7.323 0.38-10.536 0.491-3.19 0.114-6.156 0.151-8.879 0.151-5.109 0-9.395-0.247-12.866-0.726-3.483-0.48-6.257-1.365-8.322-2.609-2.066-1.239-3.531-2.917-4.409-4.976-0.867-2.04-1.294-4.663-1.294-7.809 0-1.952 0.14-4.1575 0.409-6.6106 0.273-2.442 0.664-5.1459 1.214-8.0749l6.204-35.671h-12.073l3.272-19.577h12.542l4.736-26.575h33.403l-4.718 26.575h16.294l-3.269 19.577h-16.297l-5.367 31.09c-0.222 0.9887-0.377 1.8629-0.495 2.6671-0.114 0.8337-0.169 1.5604-0.169 2.217 0 2.0768 0.664 3.5487 1.958 4.434 1.321 0.8632 3.756 1.2911 7.345 1.2911h5.375l-4.058 24.136zm52.777-84.768h-30.817l-14.66 85.412h33.905l5.054-29.504c1.626-9.2111 4.481-15.704 8.558-19.396 4.08-3.6852 9.583-5.5407 16.537-5.5407 1.199 0 2.368 0.1181 3.519 0.321 0.225 0.0448 0.45 0.0893 0.674 0.1337l0.421 0.0831c0.758 0.1496 1.507 0.2976 2.232 0.4472l6.046-33.908c-0.716-0.0904-1.426-0.2037-2.086-0.3091v-2e-4l-0.119-0.019c-0.709-0.107-1.443-0.166-2.203-0.166-12.944 0-22.83 6.5773-29.658 19.724h-0.343l2.94-17.279zm61.163 66.167c2.918 0 5.511-0.5201 7.739-1.6083 2.225-1.0846 4.099-2.5822 5.611-4.5004 1.539-1.8961 2.712-4.1205 3.59-6.6843 0.877-2.5453 1.468-5.2787 1.8-8.2188-3.036 1.2985-6.12 2.2465-9.208 2.8626-3.087 0.5902-5.983 1.2431-8.639 1.9514-2.66 0.7046-4.965 1.7043-6.847 3.0138-1.914 1.2985-3.08 3.2942-3.511 6.035v0.9665c0 1.8665 0.778 3.3532 2.364 4.4856 1.572 1.151 3.947 1.6969 7.101 1.6969zm15.674 19.429-0.199-11.745c-5.526 4.544-10.996 7.625-16.389 9.196-5.364 1.564-11.259 2.361-17.681 2.361-3.578 0-7.013-0.402-10.263-1.203-3.257-0.815-6.086-2.091-8.473-3.847-2.401-1.734-4.305-3.862-5.718-6.445-1.398-2.534-2.113-5.618-2.113-9.2107 0-1.5161 0.151-3.1945 0.498-5.0353 1.08-6.426 3.449-11.443 7.082-15.091 3.641-3.6336 7.887-6.3744 12.723-8.2188 4.81-1.8555 9.945-3.1245 15.316-3.8438 2.309-0.3011 4.549-0.592 6.719-0.8738 2.883-0.3742 5.642-0.7325 8.277-1.0776 4.614-0.6087 8.539-1.3981 11.73-2.4457 3.195-1.0403 5.039-2.9032 5.46-5.6219 0-0.2139 0.04-0.4058 0.088-0.5681 0.048-0.166 0.074-0.3467 0.074-0.5644 0.011-1.3132-0.384-2.3461-1.14-3.0986-0.76-0.7525-1.66-1.3317-2.697-1.7264-1.021-0.3763-2.124-0.6345-3.327-0.8115-1.191-0.1624-2.184-0.2435-2.936-0.2435-1.21 0-2.472 0.0811-3.826 0.2435-1.357 0.177-2.648 0.557-3.84 1.1583-1.195 0.5976-2.298 1.4349-3.334 2.5195-1.03 1.0955-1.775 2.5563-2.206 4.4081h-32.599c0.764-4.5852 2.284-8.6208 4.571-12.155 2.279-3.5302 5.522-6.5293 9.69-8.9639 4.195-2.4457 9.315-4.3234 15.401-5.6218 6.087-1.3243 13.387-1.9514 21.846-1.9514 7.721 0 14.058 0.5127 18.979 1.553 4.954 1.0181 8.846 2.5195 11.661 4.4819 2.829 1.9404 4.791 4.2865 5.872 6.9978 1.081 2.715 1.642 5.7657 1.642 9.141 0 2.051-0.144 4.1758-0.413 6.3375-0.277 2.1801-0.639 4.4561-1.063 6.8539l-6.857 39.936c-0.299 1.844-0.476 3.368-0.476 4.552 0 1.214 0.206 2.265 0.649 3.184 0.432 0.922 1.262 1.992 2.442 3.19l-0.122 4.25h-35.048zm-700.23-91.81c-9e-3 0.0064-0.011 0.0039-0.028-0.0285-0.023-0.043-0.075-0.1387-0.211-0.3367l-7e-3 -0.0085c-0.263-0.3287-0.674-0.8448-1.321-1.4043-1.281-1.1214-3.42-2.4716-6.954-3.1319-1.741-0.3135-3.228-0.3283-4.467-0.1955-3.047 0.321-4.855 1.5346-5.471 2.0068-0.173 0.1328-0.162 0.1512-0.162 0.1512-1.299 1.2948-3.416 1.3059-4.729 0-1.306-1.3095-1.306-3.4196 0-4.7328 0.324-0.3283 3.563-3.4233 9.661-4.0651 1.866-0.1882 3.991-0.1439 6.341 0.2693v-0.0037c9.621 1.7153 13.103 7.9495 13.324 8.4807 0.827 1.6305 0.166 3.652-1.49 4.4746-0.365 0.1918-0.76 0.3098-1.158 0.3467-1.336 0.1402-2.693-0.5533-3.328-1.8223zm-11.551 15.584c4.788 0.0147 8.676-3.2831 8.702-7.3962 0.029-4.0872-3.844-7.4589-8.632-7.4847-4.803-0.0111-8.702 3.2942-8.709 7.4146-0.023 4.0873 3.843 7.4442 8.639 7.4663z" clip-rule="evenodd" fill="#FF7A00" fill-rule="evenodd"/>
<path d="m65.856 51.238h-15.146l3.8991-23.306h17.928c4.0172 0 7.2929 0.7894 9.7792 2.3572 2.5084 1.5862 3.7442 4.0503 3.7442 7.4146 0 1.0993-0.0443 1.9071-0.1586 2.4457-0.6456 4.1426-2.6634 7.0162-6.0387 8.6467-3.3642 1.6194-8.0307 2.442-14.007 2.442zm-26.729 66.661 7.0162-40.909h11.731c6.8392 0 11.539 0.8411 14.095 2.5158 2.5527 1.708 3.8401 4.6037 3.8401 8.7353 0 2.5047-0.332 5.5259-0.9886 9.1262-0.6493 3.582-1.1215 6.821-1.3871 9.68-0.2619 2.906-0.4094 5.253-0.4094 7.115 0 1.402 0.107 2.653 0.3357 3.737h38.954l0.479-3.578c-1.947 0-2.925-1.31-2.925-3.906 0-1.531 0.21-3.649 0.657-6.367 0.428-2.712 1.025-6.1424 1.789-10.281 0.763-4.4488 1.143-8.3479 1.143-11.727 0-3.2536-0.38-5.9133-1.143-7.9754-0.764-2.0731-1.819-3.8106-3.173-5.2234-1.364-1.4128-2.991-2.5785-4.902-3.5007-1.892-0.9259-4.043-1.8223-6.4297-2.704 7.1637-1.8333 12.79-5.3968 16.858-10.661 4.084-5.2787 6.714-11.284 7.909-18.02 0.543-3.0396 0.827-5.7177 0.827-7.9864 0-4.3492-0.845-8.0897-2.549-11.247-1.675-3.1614-4.39-5.7842-8.138-7.8979-3.752-2.1174-8.588-3.6889-14.508-4.7365-5.917-1.0218-13.184-1.5346-21.75-1.5346h-55.422l-20.377 117.35h38.467zm98.624-69.32-19.094 69.321h33.749l9.909-69.321h-24.564zm39.643-16.09h30.972l-2.287 13.372c4.78-5.2198 9.62-9.1374 14.504-11.826 4.899-2.6486 10.606-3.9914 17.124-3.9914 9.55 0 16.567 2.2391 21.023 6.6879 4.46 4.4414 6.68 10.923 6.68 19.4 0 3.3679-0.328 6.8871-0.97 10.583l-8.801 51.187h-33.916l7.832-45.148c0.324-1.9625 0.498-3.8475 0.498-5.7067 0-2.94-0.698-5.382-2.051-7.3334-1.354-1.9588-3.885-2.9327-7.577-2.9327-5.209 0-9.038 1.5456-11.41 4.6369-2.398 3.095-4.032 7.422-4.888 12.963l-7.503 43.522h-33.897l14.667-85.412zm133.31 21.555c1.848-0.9886 4.021-1.4719 6.515-1.4719h0.339c4.338 0 7.374 1.2838 9.108 3.8549 1.737 2.5564 2.623 5.6292 2.623 9.2406 0 1.8555-0.177 3.6594-0.487 5.4116-0.432 2.2908-1.1 4.5041-1.963 6.6326-0.863 2.1284-1.984 4.0135-3.335 5.655-1.361 1.6231-2.995 2.9511-4.891 3.8991-1.915 0.996-4.047 1.5014-6.444 1.5014h-0.805c-3.821-0.1033-6.551-1.3796-8.248-3.8586-1.667-2.4567-2.508-5.3709-2.519-8.7684 0-0.6382 0.018-1.2985 0.088-1.9588 0.044-0.6381 0.122-1.3612 0.24-2.1358 0.42-2.7187 1.059-5.2714 1.878-7.6876 0.804-2.4015 1.862-4.4746 3.168-6.2084 1.317-1.7485 2.889-3.1171 4.733-4.1057zm-13.693 67.145v-0.483h-34.063v1.125c0 3.061 0.742 5.998 2.191 8.809 1.472 2.84 3.77 5.334 6.935 7.518 3.151 2.165 7.286 3.891 12.388 5.205 5.112 1.302 11.35 1.947 18.739 1.947 10.546 0 19.02-1.173 25.438-3.489 6.404-2.339 11.462-5.574 15.151-9.71 3.692-4.131 6.385-8.971 8.082-14.504 1.671-5.548 3.054-11.528 4.154-17.921l11.896-68.794h-29.832l-1.785 11.166c-2.398-4.1094-5.637-7.4146-9.717-9.8898-4.057-2.479-8.702-3.711-13.929-3.711-7.071 0-13.224 1.2726-18.496 3.8179-5.271 2.5638-9.783 5.8653-13.527 9.9526-3.759 4.0762-6.754 8.7168-8.964 13.933-2.228 5.2235-3.785 10.432-4.648 15.652-0.232 1.5198-0.413 2.9806-0.564 4.3934-0.162 1.4129-0.251 2.8368-0.251 4.2349 0 4.4672 0.657 8.6393 1.955 12.553 1.302 3.9175 3.257 7.2822 5.876 10.118 2.605 2.815 5.836 5.05 9.684 6.666 3.855 1.619 8.351 2.453 13.449 2.453 6.201 0 11.392-0.929 15.575-2.778 4.183-1.837 7.676-4.028 10.513-6.521l-1.31 7.008c-1.084 6.105-2.888 10.392-5.378 12.889-2.508 2.494-6.194 3.733-11.078 3.733-3.486 0-5.821-0.693-7.016-2.102-0.981-0.993-1.468-2.07-1.468-3.272z" clip-rule="evenodd" fill="#0684BC" fill-rule="evenodd"/>
<style>.52bb690493af27bf58c60aa235e79845{height:52px}</style>
</svg>
