<?xml version="1.0" encoding="UTF-8"?>
<svg version="1.1" viewBox="0 0 640 140" xmlns="http://www.w3.org/2000/svg">
<defs>
<linearGradient id="a" x1="-2980.1" x2="-2931.1" y1="-1207" y2="-1207" gradientTransform="matrix(1 0 0 -1 3049.6 -1171.3)" gradientUnits="userSpaceOnUse">
<stop stop-color="#36c1a3" offset="0"/>
<stop stop-color="#36c1a3" stop-opacity="0" offset="1"/>
</linearGradient>
</defs>
<path d="m69.51 132.73a59.65 59.65 0 1 1 59.66-59.65 59.71 59.71 0 0 1-59.66 59.65zm0-111.45a51.8 51.8 0 1 0 51.8 51.8 51.82 51.82 0 0 0-51.8-51.8z" fill="#36c1a3"/>
<rect x="56.57" y="66.07" width="25.9" height="7.85" fill="#36c1a3"/>
<rect x="65.69" y="57.16" width="7.85" height="25.9" fill="#36c1a3"/>
<rect x=".95" y="66.07" width="25.9" height="7.85" fill="#36c1a3"/>
<rect x="65.69" y="112.78" width="7.85" height="25.9" fill="#36c1a3"/>
<rect x="112.18" y="66.07" width="25.9" height="7.85" fill="#36c1a3"/>
<rect x="65.69" y="1.54" width="7.85" height="25.9" fill="#36c1a3"/>
<path d="m118.55 21.92a68.25 68.25 0 0 0-49-20.59v68.78z" fill="url(#a)"/>
<path d="M187.92,53.31a12.78,12.78,0,0,1-1.19,1.48,3,3,0,0,1-1.63.45,3.64,3.64,0,0,1-1.93-.59c-.74-.45-1.48-.75-2.37-1.34s-1.93-.89-3-1.33a10,10,0,0,0-3.86-.6A8.14,8.14,0,0,0,168.48,53a5.53,5.53,0,0,0-1.78,4.31,3.69,3.69,0,0,0,1,2.81,7.8,7.8,0,0,0,2.82,1.93,22.18,22.18,0,0,0,4.16,1.49c1.63.44,3.11,1,4.74,1.48A32.66,32.66,0,0,1,184.21,67a19.23,19.23,0,0,1,4.15,3,11.92,11.92,0,0,1,2.82,4.3,17.74,17.74,0,0,1,1,6.08,20.6,20.6,0,0,1-1.33,7.42A17.5,17.5,0,0,1,180.5,97.82a23.21,23.21,0,0,1-8.75,1.48,24.18,24.18,0,0,1-5.49-.59,35.51,35.51,0,0,1-5.34-1.49,25,25,0,0,1-4.9-2.37,20.45,20.45,0,0,1-4-3.12l3.86-6.23a4.42,4.42,0,0,1,1.18-1.18,3,3,0,0,1,1.63-.45,5,5,0,0,1,2.38.74c.74.45,1.63,1,2.67,1.63a23.87,23.87,0,0,0,3.41,1.64,14.35,14.35,0,0,0,4.6.74A9.18,9.18,0,0,0,177.39,87c1.33-1,1.92-2.67,1.92-5a4.8,4.8,0,0,0-1-3.26,8.46,8.46,0,0,0-2.82-2.08,24.9,24.9,0,0,0-4-1.48c-1.48-.45-3.11-.89-4.6-1.34a24.46,24.46,0,0,1-4.6-1.93,15.78,15.78,0,0,1-4-3,11,11,0,0,1-2.82-4.6,17.59,17.59,0,0,1-1-6.68,15.22,15.22,0,0,1,1.34-6.23,15.45,15.45,0,0,1,3.85-5.49A18.52,18.52,0,0,1,165.81,42a23.77,23.77,0,0,1,8.31-1.49,30.32,30.32,0,0,1,5.19.45,36.63,36.63,0,0,1,4.75,1.18,36.9,36.9,0,0,1,4.16,1.93,15.72,15.72,0,0,1,3.41,2.52Z" fill="#36c1a3"/>
<path d="M239.54,84a1.84,1.84,0,0,1,.89.15,3.09,3.09,0,0,1,.9.59l5.19,5.49a22.51,22.51,0,0,1-8.61,6.82A30.8,30.8,0,0,1,225.6,99.3a29.37,29.37,0,0,1-11.72-2.23,25.3,25.3,0,0,1-14.24-15.28,32.54,32.54,0,0,1-1.93-11.57,32.84,32.84,0,0,1,2.08-11.72,25.45,25.45,0,0,1,5.78-9.19,27.74,27.74,0,0,1,9.05-6.09A29.85,29.85,0,0,1,226.19,41a27.66,27.66,0,0,1,6.09.59,29,29,0,0,1,5.34,1.63,45.29,45.29,0,0,1,4.6,2.38,15.09,15.09,0,0,1,3.7,3.11l-4.45,5.94a6.67,6.67,0,0,1-1,1,2.68,2.68,0,0,1-1.64.45,4.26,4.26,0,0,1-1.33-.3,6,6,0,0,1-1.34-.74,8.9,8.9,0,0,1-1.48-1c-.59-.29-1.19-.74-1.93-1a11.88,11.88,0,0,0-2.67-.74,24.4,24.4,0,0,0-3.56-.29,16.46,16.46,0,0,0-6.08,1.18,12.21,12.21,0,0,0-4.75,3.56,15.43,15.43,0,0,0-3.11,5.79,24.6,24.6,0,0,0-1,7.71,25.87,25.87,0,0,0,1.18,7.87A18.42,18.42,0,0,0,216,83.87a13.75,13.75,0,0,0,4.74,3.56,15.74,15.74,0,0,0,5.94,1.19,21.63,21.63,0,0,0,3.26-.15,16.51,16.51,0,0,0,2.82-.59,11.88,11.88,0,0,0,2.37-1,19.77,19.77,0,0,0,2.38-1.78,2.33,2.33,0,0,1,1-.6A1.34,1.34,0,0,1,239.54,84Z" fill="#36c1a3"/>
<path d="M304.82,98.85H294.58a5.28,5.28,0,0,1-2.82-.74A4.65,4.65,0,0,1,290.13,96l-3.41-9.94H264.91L261.5,96A4.52,4.52,0,0,1,260,98a4.24,4.24,0,0,1-2.82.89H246.81l22.11-57.11h13.65Zm-21.07-21.8-5.34-15.73c-.44-1-.74-2.22-1.18-3.56s-.89-2.82-1.34-4.3c-.44,1.63-.74,3.11-1.19,4.45s-.89,2.52-1.18,3.56l-5.2,15.58Z" fill="#36c1a3"/>
<path d="M360.3,41.74V98.85h-7a5.84,5.84,0,0,1-2.52-.44,5.6,5.6,0,0,1-2.08-1.78l-27-34.12a20.72,20.72,0,0,1,.15,3V98.85H310.16V41.74h7a4.56,4.56,0,0,1,1.49.15,2.2,2.2,0,0,1,1,.29,3,3,0,0,1,.89.6l1,1,27.15,34.27c-.15-1-.15-2.23-.3-3.27s-.14-2.08-.14-3V41.74Z" fill="#36c1a3"/>
<path d="M419.49,73.63V93.37a35.82,35.82,0,0,1-8.9,4.45,33.57,33.57,0,0,1-10.53,1.63,33.08,33.08,0,0,1-11.87-2.08,23.1,23.1,0,0,1-8.9-5.78,25.44,25.44,0,0,1-5.64-8.91A32.46,32.46,0,0,1,371.73,71a33.06,33.06,0,0,1,1.92-11.72,23,23,0,0,1,5.64-8.9A27.24,27.24,0,0,1,388,44.56a31.48,31.48,0,0,1,11.58-2.08,38.11,38.11,0,0,1,5.93.45,27.64,27.64,0,0,1,5,1.33,22.83,22.83,0,0,1,4.31,2.08,36.25,36.25,0,0,1,3.85,2.82l-1,1.78c-.29.59-.89.74-1.63.44a13.28,13.28,0,0,1-1.63-1,17.85,17.85,0,0,0-3-1.78,25.74,25.74,0,0,0-4.74-1.63,30.76,30.76,0,0,0-7-.74A26.08,26.08,0,0,0,390,48a21.69,21.69,0,0,0-7.42,4.9,20,20,0,0,0-4.74,7.86,32.38,32.38,0,0,0-1.63,10.38,33.39,33.39,0,0,0,1.63,10.54,18.76,18.76,0,0,0,4.89,7.86,19.94,19.94,0,0,0,7.72,5,27.31,27.31,0,0,0,10.23,1.78c1.64,0,3.12-.15,4.6-.29a19.92,19.92,0,0,0,4-.89A27.87,27.87,0,0,0,413,93.66a40.24,40.24,0,0,0,3.56-1.93v-15H405.85a1.15,1.15,0,0,1-.75-.3,1.16,1.16,0,0,1-.29-.59V73.63Z" fill="#36c1a3"/>
<path d="M454.21,96a17.94,17.94,0,0,0,7.12-1.34,15.26,15.26,0,0,0,5.34-3.86,18.72,18.72,0,0,0,3.41-5.78,22.7,22.7,0,0,0,1.19-7.27V43.37h4V77.64a23.24,23.24,0,0,1-1.48,8.6,21.85,21.85,0,0,1-4.15,7,17.94,17.94,0,0,1-6.68,4.6,21,21,0,0,1-8.75,1.63,23.13,23.13,0,0,1-8.75-1.63,21.49,21.49,0,0,1-6.68-4.6,19.44,19.44,0,0,1-4.15-7,23.25,23.25,0,0,1-1.49-8.6V43.37h4V77.64a23.41,23.41,0,0,0,1.18,7.27,18.42,18.42,0,0,0,3.27,5.78,15.26,15.26,0,0,0,5.34,3.86A16.75,16.75,0,0,0,454.21,96Z" fill="#36c1a3"/>
<path d="M533.13,98.85H530a1.55,1.55,0,0,1-.89-.29,1.52,1.52,0,0,1-.6-.74l-6.38-16.17H494.86l-6.53,16.17a1.55,1.55,0,0,1-.59.74,2.12,2.12,0,0,1-.89.29h-3.12l22.7-55.48h4ZM520.82,78.68l-11.28-28c-.44-.89-.74-2.08-1.18-3.26l-.45,1.78a15.18,15.18,0,0,1-.59,1.48L496,78.68Z" fill="#36c1a3"/>
<path d="M581.79,98.85h-3.41a3.07,3.07,0,0,1-1.19-.14,3.94,3.94,0,0,1-.89-.75L558.5,75.41a3.74,3.74,0,0,0-.59-.74c-.3-.15-.45-.44-.75-.44a9.06,9.06,0,0,0-1-.3,4.09,4.09,0,0,0-1.34-.15h-7.27V98.85h-4V43.37h14.24c6.38,0,11.12,1.19,14.39,3.71s4.74,6.08,4.74,10.83a14.93,14.93,0,0,1-1,5.79,14,14,0,0,1-3.12,4.59,15.53,15.53,0,0,1-5,3.27,22.34,22.34,0,0,1-6.53,1.63,5.62,5.62,0,0,1,1.63,1.63Zm-24.63-28a23.58,23.58,0,0,0,6.68-.89,15.42,15.42,0,0,0,4.9-2.53,10.41,10.41,0,0,0,3.11-4,11.66,11.66,0,0,0,1-5.19c0-4-1.34-6.83-3.86-8.76s-6.38-2.82-11.27-2.82H547.52V70.82Z" fill="#36c1a3"/>
<path d="m639.05 71.11a31.46 31.46 0 0 1-1.93 11.57 25.09 25.09 0 0 1-5.48 8.76 24.1 24.1 0 0 1-8.31 5.49 28.3 28.3 0 0 1-10.83 1.92h-20.33v-55.48h20.33a28.6 28.6 0 0 1 10.83 1.93 23.16 23.16 0 0 1 8.31 5.49 25 25 0 0 1 5.48 8.75 34.92 34.92 0 0 1 1.93 11.57zm-4.15 0a32.38 32.38 0 0 0-1.63-10.38 20.2 20.2 0 0 0-4.6-7.72 18.31 18.31 0 0 0-7.12-4.74 25.79 25.79 0 0 0-9-1.64h-16.37v49h16.32a25.17 25.17 0 0 0 9-1.63 20.7 20.7 0 0 0 7.12-4.75 23.28 23.28 0 0 0 4.6-7.71 32.44 32.44 0 0 0 1.68-10.43z" fill="#36c1a3"/>
<style>.4afbfbcc617187992a229bc79b873a5b{height:60px}</style>
</svg>
