<?xml version="1.0" encoding="UTF-8"?>
<svg fill="none" viewBox="0 0 117 22" xmlns="http://www.w3.org/2000/svg">
<g clip-path="url(#a)" clip-rule="evenodd" fill-rule="evenodd">
<path d="m64.344 7.2647c1.2648 0 2.2573 0.39432 2.9807 1.1842 0.7241 0.78864 1.1104 1.9142 1.1627 3.3748 0.011 0.1419 0.0168 0.333 0.0184 0.5738l5e-4 0.1505c0 0.3129-0.0057 0.5608-0.0189 0.7432-0.0523 1.4101-0.4437 2.5186-1.1721 3.3274-0.7304 0.8088-1.7217 1.2132-2.9713 1.2132-1.2648 0-2.21-0.4309-2.8345-1.2914v4.3242c0 0.1439-0.046 0.2612-0.1374 0.3521-0.0907 0.0921-0.2079 0.1375-0.3516 0.1375h-2.5213c-0.1425 0-0.2641-0.0454-0.3611-0.1375-0.0983-0.0909-0.1475-0.2082-0.1475-0.3521v-12.915c0-0.14321 0.0492-0.26119 0.1475-0.35141 0.097-0.09212 0.2186-0.13817 0.3611-0.13817h2.3259c0.1431 0 0.2609 0.04605 0.351 0.13817 0.0927 0.09022 0.1374 0.2082 0.1374 0.35141v0.70473c0.7045-0.92681 1.7134-1.3893 3.0305-1.3893zm-37.724-3.5226c1.1475 0 2.14 0.19873 2.9813 0.59684 0.84 0.3981 1.486 0.89337 1.934 1.4864 0.4506 0.59431 0.6875 1.1779 0.7146 1.752 0 0.11735-0.0403 0.21829-0.1178 0.30346-0.0782 0.08518-0.1752 0.12745-0.2924 0.12745h-2.7375c-0.2861 0-0.5079-0.11798-0.6636-0.35268-0.0781-0.27382-0.2816-0.50536-0.6062-0.69463-0.3258-0.18928-0.7297-0.28391-1.2124-0.28391-0.547 0-0.9699 0.09779-1.2705 0.29337-0.2993 0.19621-0.4486 0.48265-0.4486 0.86119 0 0.37918 0.194 0.67508 0.586 0.89085 0.3907 0.21514 1.1211 0.43407 2.188 0.65552 1.225 0.22208 2.1999 0.49905 2.9221 0.83152 0.724 0.3325 1.2584 0.7634 1.6038 1.2915 0.3453 0.5287 0.5186 1.1968 0.5186 2.0057 0 0.8877-0.2546 1.6574-0.7625 2.3091-0.5086 0.653-1.2118 1.152-2.1117 1.4971-0.8993 0.3458-1.9283 0.5187-3.0879 0.5187-1.2647 0-2.3398-0.183-3.2258-0.5477-0.886-0.3653-1.5578-0.8479-2.0121-1.4485-0.4569-0.5994-0.6989-1.2524-0.7241-1.9565 0-0.1174 0.0435-0.2151 0.1273-0.2934 0.0844-0.0788 0.1859-0.118 0.3025-0.118h2.6007c0.1556 0 0.2829 0.0259 0.38 0.0789 0.0989 0.0517 0.2054 0.1432 0.3226 0.2738 0.1689 0.313 0.4336 0.571 0.7928 0.7723 0.3573 0.2037 0.8362 0.3034 1.4361 0.3034 0.7027 0 1.244-0.1072 1.6221-0.3224 0.3775-0.2151 0.5665-0.5116 0.5665-0.8902 0-0.2744-0.097-0.499-0.2924-0.6751-0.196-0.1766-0.5092-0.3331-0.9383-0.4694-0.4298-0.1375-1.0499-0.2902-1.8571-0.4605-1.578-0.313-2.7564-0.7893-3.5372-1.429-0.7826-0.6385-1.174-1.5521-1.174-2.7388 0-0.80946 0.2256-1.53 0.6743-2.1628 0.4506-0.63217 1.0883-1.1249 1.9151-1.477 0.8293-0.35331 1.7897-0.5287 2.8837-0.5287zm73.298 3.5226c1.1211 0 2.0691 0.22461 2.8441 0.67508 0.776 0.44984 1.355 1.0694 1.74 1.8587 0.383 0.78995 0.576 1.6864 0.576 2.6914v0.4883c0 0.1439-0.048 0.2644-0.146 0.3628-0.097 0.0972-0.218 0.1464-0.362 0.1464h-6.1954v0.1173c0.0126 0.5874 0.15 1.0606 0.4109 1.419 0.259 0.3589 0.6314 0.5381 1.1129 0.5381 0.3136 0 0.5636-0.0618 0.7526-0.1867 0.189-0.123 0.369-0.2833 0.537-0.4795 0.118-0.1294 0.212-0.2107 0.283-0.2435 0.073-0.0329 0.187-0.0486 0.342-0.0486h2.562c0.117 0 0.218 0.0353 0.303 0.1072 0.085 0.072 0.126 0.1596 0.126 0.2638 0 0.34-0.192 0.7369-0.576 1.1943-0.385 0.4561-0.945 0.8479-1.681 1.1735-0.737 0.3261-1.606 0.4895-2.6083 0.4895-1.5912 0-2.8414-0.4277-3.7545-1.2813-0.9119-0.8549-1.3807-2.0972-1.4059-3.7287v-0.607c0.0504-1.5514 0.5324-2.7652 1.4456-3.6397 0.9118-0.87318 2.1432-1.3104 3.694-1.3104zm16.574-3.5225c0.144 0 0.265 0.04606 0.361 0.13691 0.098 0.09148 0.147 0.2082 0.147 0.35142v12.917c0 0.1438-0.049 0.2612-0.147 0.352-0.096 0.0915-0.217 0.1369-0.361 0.1369h-2.327c-0.13 0-0.243-0.0485-0.342-0.1463-0.096-0.0978-0.147-0.212-0.147-0.3426v-0.607c-0.702 0.8606-1.712 1.2915-3.028 1.2915-1.264 0-2.258-0.3981-2.981-1.1937-0.723-0.7955-1.111-1.9306-1.162-3.405l-0.021-0.6852 0.021-0.7034c0.051-1.4227 0.442-2.5413 1.172-3.3565 0.728-0.81513 1.719-1.2233 2.971-1.2233 1.173 0 2.117 0.37855 2.833 1.1344v-4.1684c0-0.14322 0.05-0.25994 0.146-0.35142 0.1-0.09085 0.214-0.13691 0.344-0.13691h2.521zm-79.179 3.7173c0.1431 0 0.2647 0.04606 0.3611 0.13817 0.0971 0.09022 0.1469 0.2082 0.1469 0.35142v9.1981c0 0.1438-0.0498 0.2612-0.1469 0.352-0.0964 0.0915-0.218 0.1363-0.3611 0.1363h-2.4431c-0.1305 0-0.2452-0.0479-0.3422-0.1457-0.0983-0.0978-0.1475-0.212-0.1475-0.3426v-9.1981c0-0.14322 0.0492-0.2612 0.1475-0.35142 0.097-0.09211 0.2117-0.13817 0.3422-0.13817h2.4431zm14.932-0.19495c1.0688 0 1.939 0.36151 2.6102 1.0864 0.6698 0.72365 1.0051 1.8032 1.0051 3.2379v5.5583c0 0.1306-0.0441 0.2448-0.1361 0.3426-0.0914 0.0978-0.2086 0.1457-0.3517 0.1457h-2.4035c-0.1436 0-0.264-0.0448-0.3629-0.1363-0.0971-0.0908-0.1462-0.2082-0.1462-0.352v-5.4214c0-0.5994-0.1273-1.0398-0.3807-1.3205-0.2545-0.2802-0.5961-0.42085-1.0259-0.42085-0.4039 0-0.7335 0.14065-0.9875 0.42085-0.2545 0.2807-0.3818 0.7211-0.3818 1.3205v5.4214c0 0.1306-0.0448 0.2448-0.1368 0.3426-0.0907 0.0978-0.2086 0.1457-0.3516 0.1457h-2.4035c-0.143 0-0.264-0.0448-0.3623-0.1363-0.0977-0.0908-0.1469-0.2082-0.1469-0.352v-5.4214c0-0.5994-0.1304-1.0398-0.3894-1.3205-0.2609-0.2802-0.5999-0.42085-1.0165-0.42085-0.4039 0-0.7367 0.14065-0.9975 0.42085-0.2603 0.2807-0.3907 0.7142-0.3907 1.3009v5.441c0 0.1306-0.0467 0.2448-0.1374 0.3426-0.0908 0.0978-0.208 0.1457-0.3517 0.1457h-2.462c-0.1305 0-0.2452-0.0479-0.3422-0.1457-0.0983-0.0978-0.1475-0.212-0.1475-0.3426v-9.1981c0-0.14322 0.0492-0.2612 0.1475-0.35142 0.097-0.09211 0.2117-0.13817 0.3422-0.13817h2.2667c0.143 0 0.2609 0.04606 0.351 0.13817 0.0914 0.09022 0.1374 0.2082 0.1374 0.35142v0.66498c0.3132-0.37792 0.7171-0.69716 1.2118-0.95836 0.4947-0.26056 1.0568-0.39116 1.6813-0.39116 1.433 0 2.4167 0.56088 2.9504 1.6826 0.3139-0.49527 0.7499-0.89968 1.3114-1.2126 0.5596-0.31357 1.1589-0.47003 1.7973-0.47003zm21.091-3.5226c0.1431 0 0.2603 0.04606 0.3517 0.13691 0.0901 0.09148 0.1367 0.20883 0.1367 0.35205v12.916c0 0.1306-0.0466 0.2448-0.1367 0.3426-0.0914 0.0984-0.2086 0.1463-0.3517 0.1463h-2.4438c-0.1424 0-0.264-0.0447-0.3604-0.1369-0.099-0.0908-0.1481-0.2082-0.1481-0.352v-12.916c0-0.14322 0.0491-0.26057 0.1481-0.35205 0.0964-0.09085 0.218-0.13691 0.3604-0.13691h2.4438zm5.6484 3.7175c0.143 0 0.264 0.04606 0.3611 0.13817 0.097 0.09022 0.1468 0.2082 0.1468 0.35142v9.1981c0 0.1438-0.0498 0.2612-0.1468 0.352-0.0971 0.0915-0.2181 0.1363-0.3611 0.1363h-2.4432c-0.1304 0-0.2451-0.0479-0.3422-0.1457-0.0983-0.0978-0.1474-0.212-0.1474-0.3426v-9.1981c0-0.14322 0.0491-0.2612 0.1474-0.35142 0.0971-0.09211 0.2118-0.13817 0.3422-0.13817h2.4432zm13.469-4.3043c0.1424 0 0.259 0.0448 0.351 0.13691 0.0908 0.09148 0.1368 0.20883 0.1368 0.35205v1.6833c0 0.1306-0.046 0.24416-0.1368 0.34195-0.092 0.09843-0.2086 0.14638-0.351 0.14638h-5.0237c-0.4185 0-0.7146 0.09526-0.8911 0.28391-0.1752 0.18927-0.2621 0.48012-0.2621 0.87128v0.48833h6.1769c0.1424 0 0.259 0.04669 0.351 0.13817 0.0908 0.09085 0.1368 0.20883 0.1368 0.35205v9.1974c0 0.1306-0.046 0.2448-0.1368 0.3426-0.092 0.0984-0.2086 0.1463-0.351 0.1463h-2.3871c-0.1424 0-0.2621-0.0447-0.3604-0.1369-0.0971-0.0908-0.1462-0.2082-0.1462-0.352v-7.0252h-3.2832v7.0252c0 0.1306-0.046 0.2448-0.1368 0.3426-0.0926 0.0984-0.2105 0.1463-0.3535 0.1463h-2.3846c-0.143 0-0.264-0.0447-0.3611-0.1369-0.0983-0.0908-0.1455-0.2082-0.1455-0.352v-7.0252h-1.4677c-0.1424 0-0.2641-0.0454-0.3605-0.13691-0.0989-0.09212-0.1462-0.20883-0.1462-0.35268v-1.6826c0-0.14322 0.0473-0.2612 0.1462-0.35205 0.0964-0.09148 0.2181-0.13817 0.3605-0.13817h1.4677v-0.58675c0-1.3041 0.3762-2.2498 1.1317-2.8366 0.7563-0.58801 1.837-0.88076 3.2454-0.88076h5.1813zm19.328 6.8298c-0.586 0-1.007 0.17222-1.26 0.51802-0.254 0.3457-0.401 0.8246-0.441 1.4378l-0.019 0.6069 0.019 0.607c0.04 0.6132 0.187 1.0927 0.441 1.4378 0.253 0.3464 0.674 0.5199 1.26 0.5199 0.559 0 0.978-0.1798 1.252-0.5388s0.423-0.812 0.448-1.3596c0.027-0.3659 0.04-0.6139 0.04-0.7445 0-0.1432-0.013-0.3842-0.04-0.723-0.025-0.5092-0.178-0.9306-0.458-1.2631-0.281-0.3325-0.695-0.49842-1.242-0.49842zm-48.572-5.1e-4c-0.5602 0-0.9768 0.17923-1.2503 0.53813-0.2735 0.3584-0.4228 0.8127-0.4499 1.3603-0.011 0.1414-0.0168 0.3367-0.0184 0.587l-5e-4 0.1568c0 0.313 0.0057 0.5546 0.0189 0.7237 0.0271 0.5091 0.1796 0.9293 0.4594 1.2618 0.2804 0.3331 0.6938 0.4997 1.2408 0.4997 0.5873 0 1.007-0.1729 1.2616-0.5193 0.2539-0.3451 0.4008-0.8252 0.4386-1.4378 0.0132-0.13 0.0208-0.3331 0.0208-0.6069 0-0.2745-0.0076-0.4764-0.0208-0.607-0.0378-0.6132-0.1847-1.0927-0.4386-1.4378-0.2546-0.3458-0.6743-0.51863-1.2616-0.51863zm36.708-0.50851c-0.4953 0-0.8765 0.17287-1.1425 0.51798-0.2672 0.34576-0.4008 0.83216-0.4008 1.4581v0.0391h3.1064v-0.0391c0-0.6259-0.136-1.1123-0.41-1.4581-0.274-0.34511-0.657-0.51798-1.1531-0.51798zm-62.605-6.2626c0.1431 0 0.2647 0.04921 0.3611 0.147 0.0971 0.09779 0.1469 0.21829 0.1469 0.36151v1.8202c0 0.14448-0.0498 0.26435-0.1469 0.36214-0.0964 0.09779-0.218 0.14701-0.3611 0.14701h-2.4431c-0.145 0-0.2609-0.04922-0.3536-0.14701-0.0901-0.09779-0.1361-0.21766-0.1361-0.36214v-1.8202c0-0.14322 0.0492-0.26372 0.1475-0.36151 0.097-0.09779 0.2117-0.147 0.3422-0.147h2.4431zm41.671 0c0.143 0 0.264 0.04921 0.3611 0.147 0.097 0.09779 0.1468 0.21829 0.1468 0.36151v1.8202c0 0.14448-0.0498 0.26435-0.1468 0.36214-0.0971 0.09779-0.2181 0.14701-0.3611 0.14701h-2.4432c-0.1449 0-0.2609-0.04922-0.3535-0.14701-0.0901-0.09779-0.1361-0.21766-0.1361-0.36214v-1.8202c0-0.14322 0.0491-0.26372 0.1474-0.36151 0.0971-0.09779 0.2118-0.147 0.3422-0.147h2.4432z" fill="#43464E"/>
<path d="m16.932 7.8774v7.1375l-0.4455 0.446-3.5649 3.5697-2.2277 2.2303c-0.98493 0.9855-2.5805 0.9855-3.5648 0-0.98433-0.9855-0.98433-2.5836 0-3.5691l2.2276-2.2309 3.5649-3.5684 0.4455-0.4461 3.5649-3.569zm-0.8909-0.8923-3.5649 3.569-0.4456 0.4461-3.5648 3.5691-0.44554 0.446h-7.1298l7.5753-7.5842 0.44553-0.44605h7.1298zm-9.8034-6.246c0.98433-0.98548 2.5806-0.98548 3.5649 0 0.98435 0.98549 0.98435 2.5836 0 3.5691l-6.2387 6.246-3.5642 3.5684v-7.1375l0.44553-0.44668 3.5642-3.5684 2.2283-2.2309z" fill="#FFAD00"/>
</g>
<defs>
<clipPath id="a">
<rect width="117" height="22" fill="#fff"/>
</clipPath>
</defs>
<style>.9862e46432066fd0689118626b62bd2e{height:73px}</style>
</svg>
