<?xml version="1.0" encoding="UTF-8"?>
<svg enable-background="new 0 0 534.7 143" version="1.1" viewBox="0 0 534.7 143" xml:space="preserve" xmlns="http://www.w3.org/2000/svg">
<style type="text/css">
	.st0{fill:#041C4E;}
</style>
		<path class="st0" d="m140.8 61.1c-0.9-1.1-2-2-3.2-2.7-1.3-0.7-2.9-1.1-4.7-1.1-1.7 0-3.3 0.4-4.6 1.1s-1.9 1.8-1.9 3.2c0 1.1 0.4 2.1 1.1 2.8s1.6 1.3 2.6 1.7 2.1 0.8 3.2 1 2.1 0.4 3 0.6c1.6 0.4 3.1 0.8 4.5 1.4 1.4 0.5 2.6 1.3 3.6 2.1 1 0.9 1.8 1.9 2.4 3.2s0.9 2.8 0.9 4.6c0 2.2-0.5 4.1-1.4 5.6-0.9 1.6-2.1 2.8-3.6 3.8s-3.2 1.7-5 2.1c-1.9 0.4-3.8 0.7-5.7 0.7-3.2 0-6.1-0.5-8.5-1.5s-4.6-2.8-6.5-5.4l5.6-4.6c1.2 1.2 2.5 2.3 4 3.2s3.3 1.4 5.4 1.4c0.9 0 1.9-0.1 2.8-0.3 1-0.2 1.8-0.5 2.5-0.9s1.3-0.9 1.8-1.6c0.5-0.6 0.7-1.4 0.7-2.2 0-1.1-0.3-2-1-2.7s-1.5-1.3-2.5-1.7-2-0.7-3-1c-1.1-0.2-2-0.5-2.8-0.6-1.6-0.4-3.1-0.8-4.5-1.3s-2.7-1.1-3.8-2c-1.1-0.8-2-1.9-2.6-3.1-0.7-1.3-1-2.8-1-4.7 0-2 0.4-3.8 1.3-5.3 0.8-1.5 2-2.7 3.4-3.7s3-1.7 4.8-2.2 3.6-0.7 5.4-0.7c2.6 0 5.1 0.5 7.5 1.5s4.3 2.6 5.7 4.9l-5.9 4.4z"/>
		<path class="st0" d="m151 51.3h6.9v6.1h0.2c0.2-0.5 0.6-1.2 1.3-2s1.6-1.6 2.6-2.3c1.1-0.7 2.3-1.4 3.8-1.9 1.4-0.5 3-0.8 4.8-0.8 2.9 0 5.3 0.6 7.3 1.8s3.6 3 4.8 5.4c1.3-2.4 3-4.2 5.3-5.4s4.6-1.8 7-1.8c3 0 5.5 0.5 7.4 1.5s3.4 2.3 4.5 3.9 1.8 3.4 2.3 5.5c0.4 2.1 0.6 4.2 0.6 6.4v22.6h-7.4v-21.6c0-1.5-0.1-2.9-0.3-4.3s-0.6-2.6-1.2-3.6-1.4-1.9-2.5-2.5-2.5-0.9-4.3-0.9c-3.6 0-6.1 1.1-7.6 3.3s-2.3 5-2.3 8.4v21.2h-7.4v-20.3c0-1.9-0.1-3.6-0.3-5.1s-0.6-2.9-1.1-4c-0.6-1.1-1.4-2-2.5-2.6s-2.5-0.9-4.3-0.9c-1.3 0-2.6 0.3-3.8 0.8s-2.3 1.3-3.2 2.3-1.7 2.4-2.2 4-0.8 3.5-0.8 5.7v20.2h-7.6v-39.1z"/>
		<path class="st0" d="m215.2 56.1c2.1-1.9 4.5-3.3 7.2-4.3s5.5-1.4 8.2-1.4c2.8 0 5.3 0.4 7.3 1.1s3.7 1.7 5 2.9 2.3 2.6 2.9 4.1c0.6 1.6 0.9 3.2 0.9 4.9v19.8c0 1.4 0 2.6 0.1 3.8 0.1 1.1 0.1 2.2 0.2 3.3h-6.6c-0.2-2-0.2-3.9-0.2-5.9h-0.2c-1.6 2.5-3.6 4.3-5.8 5.3s-4.8 1.6-7.8 1.6c-1.8 0-3.5-0.2-5.2-0.7-1.6-0.5-3.1-1.2-4.3-2.2s-2.2-2.2-2.9-3.6-1.1-3.1-1.1-5c0-2.5 0.6-4.6 1.7-6.3s2.7-3.1 4.6-4.1c1.9-1.1 4.2-1.8 6.8-2.3s5.4-0.7 8.3-0.7h5.4v-1.6c0-1-0.2-2-0.6-3s-1-1.9-1.7-2.7c-0.8-0.8-1.7-1.4-2.9-1.9-1.1-0.5-2.5-0.7-4.1-0.7-1.4 0-2.7 0.1-3.7 0.4-1.1 0.3-2 0.6-2.9 1s-1.7 0.9-2.4 1.4-1.4 1.1-2 1.6l-4.2-4.8zm20.8 15.4c-1.7 0-3.5 0.1-5.4 0.3-1.8 0.2-3.5 0.6-5 1.1s-2.7 1.3-3.7 2.3-1.4 2.2-1.4 3.8c0 2.2 0.8 3.9 2.3 4.8 1.5 1 3.5 1.5 6.1 1.5 2 0 3.7-0.3 5.2-1 1.4-0.7 2.6-1.6 3.4-2.7 0.9-1.1 1.5-2.3 1.9-3.6s0.6-2.7 0.6-4v-2.5h-4z"/>
		<path class="st0" d="m334.6 61.1c-0.9-1.1-2-2-3.2-2.7-1.3-0.7-2.9-1.1-4.7-1.1s-3.3 0.4-4.6 1.1-1.9 1.8-1.9 3.2c0 1.1 0.4 2.1 1.1 2.8s1.6 1.3 2.6 1.7 2.1 0.8 3.2 1 2.1 0.4 3 0.6c1.6 0.4 3.1 0.8 4.5 1.4 1.4 0.5 2.6 1.3 3.6 2.1 1 0.9 1.8 1.9 2.4 3.2s0.9 2.8 0.9 4.6c0 2.2-0.5 4.1-1.4 5.6-0.9 1.6-2.1 2.8-3.6 3.8s-3.2 1.7-5 2.1c-1.9 0.4-3.8 0.7-5.7 0.7-3.2 0-6.1-0.5-8.5-1.5s-4.6-2.8-6.5-5.4l5.6-4.6c1.2 1.2 2.5 2.3 4 3.2s3.3 1.4 5.4 1.4c0.9 0 1.9-0.1 2.8-0.3 1-0.2 1.8-0.5 2.5-0.9s1.3-0.9 1.8-1.6c0.5-0.6 0.7-1.4 0.7-2.2 0-1.1-0.3-2-1-2.7s-1.6-1.2-2.6-1.6-2-0.7-3-1c-1.1-0.2-2-0.5-2.8-0.6-1.6-0.4-3.1-0.8-4.5-1.3s-2.7-1.1-3.8-2c-1.1-0.8-2-1.9-2.6-3.1-0.7-1.3-1-2.8-1-4.7 0-2 0.4-3.8 1.3-5.3 0.8-1.5 2-2.7 3.4-3.7s3-1.7 4.8-2.2 3.6-0.7 5.4-0.7c2.6 0 5.1 0.5 7.5 1.5s4.3 2.6 5.7 4.9l-5.8 4.3z"/>
		<path class="st0" d="m345.1 28.2h7.4v29.1h0.2c0.9-2.1 2.5-3.8 4.8-5 2.3-1.3 4.9-1.9 8-1.9 1.9 0 3.6 0.3 5.4 0.9 1.7 0.6 3.2 1.5 4.5 2.7s2.3 2.7 3.1 4.6 1.1 4.1 1.1 6.7v25h-7.4v-23c0-1.8-0.2-3.3-0.7-4.6s-1.1-2.3-2-3.1c-0.8-0.8-1.8-1.4-2.8-1.7-1.1-0.4-2.2-0.5-3.3-0.5-1.5 0-3 0.2-4.3 0.7s-2.5 1.3-3.4 2.3c-1 1.1-1.8 2.4-2.3 4.1-0.5 1.6-0.8 3.6-0.8 5.8v20h-7.4l-0.1-62.1z"/>
		<path class="st0" d="m391.2 73.5c0 1.7 0.4 3.2 1.1 4.6s1.7 2.6 2.9 3.6 2.6 1.8 4.2 2.3 3.2 0.8 4.9 0.8c2.3 0 4.3-0.5 6-1.6s3.3-2.5 4.7-4.2l5.6 4.3c-4.1 5.3-9.8 8-17.2 8-3.1 0-5.8-0.5-8.3-1.6-2.5-1-4.6-2.5-6.3-4.3s-3-4-4-6.5c-0.9-2.5-1.4-5.2-1.4-8.1s0.5-5.6 1.5-8.1 2.4-4.6 4.2-6.5c1.8-1.8 3.9-3.3 6.4-4.3s5.1-1.6 8-1.6c3.4 0 6.4 0.6 8.7 1.8 2.4 1.2 4.3 2.8 5.9 4.7 1.5 1.9 2.6 4.1 3.3 6.6 0.7 2.4 1 4.9 1 7.4v2.6l-31.2 0.1zm23.2-5.9c-0.1-1.6-0.3-3.1-0.8-4.5s-1.2-2.6-2.1-3.6-2.1-1.8-3.5-2.4-3-0.9-4.9-0.9c-1.8 0-3.5 0.3-5 1s-2.8 1.6-3.8 2.7-1.8 2.3-2.4 3.6-0.9 2.7-0.9 4l23.4 0.1z"/>
		<path class="st0" d="m434.3 73.5c0 1.7 0.4 3.2 1.1 4.6s1.7 2.6 2.9 3.6 2.6 1.8 4.2 2.3 3.2 0.8 4.9 0.8c2.3 0 4.3-0.5 6-1.6s3.3-2.5 4.7-4.2l5.6 4.3c-4.1 5.3-9.8 8-17.2 8-3.1 0-5.8-0.5-8.3-1.6-2.5-1-4.6-2.5-6.3-4.3s-3-4-4-6.5c-0.9-2.5-1.4-5.2-1.4-8.1s0.5-5.6 1.5-8.1 2.4-4.6 4.2-6.5 3.9-3.3 6.4-4.3 5.1-1.6 8-1.6c3.4 0 6.4 0.6 8.7 1.8 2.4 1.2 4.3 2.8 5.9 4.7 1.5 1.9 2.6 4.1 3.3 6.6 0.7 2.4 1 4.9 1 7.4v2.6l-31.2 0.1zm23.3-5.9c-0.1-1.6-0.3-3.1-0.8-4.5s-1.2-2.6-2.1-3.6-2.1-1.8-3.5-2.4-3-0.9-4.9-0.9c-1.8 0-3.5 0.3-5 1s-2.8 1.6-3.8 2.7-1.8 2.3-2.4 3.6-0.9 2.7-0.9 4l23.4 0.1z"/>
			<path class="st0" d="m275.6 51.4s-4.4-0.6-6.7-0.4c-2.8 0.2-3.8 0.6-5.3 1.4-1 0.6-1.9 1.3-2.7 2.2-0.8 0.8-1.5 1.8-2 2.8h-0.2v-6h-7.4v38.9h7.4s-0.2-16 0-19.9 0.9-8 2.9-9.9c2.1-1.9 3.1-2.3 5.6-2.7 2.4-0.3 5.5 0 5.5 0l2.9-6.4z"/>
			<path class="st0" d="m302.8 84c-0.9 0.2-1.8 0.2-2.7 0.2-1.4 0-2.5-0.3-3.2-0.8s-1.3-1.2-1.6-2.1c-0.4-0.8-0.6-1.8-0.6-2.9-0.1-1.1-0.1-2.1-0.1-3.2v-17.6h10.6v-6.4h-10.6v-10.8h-7.4v10.9h-7.4l-2.8 6.4h10.2v20.3c0 1.6 0.1 3.2 0.2 4.7 0.1 1.6 0.6 3 1.3 4.2 0.7 1.3 1.9 2.3 3.4 3.1 1.6 0.8 3.8 1.2 6.6 1.2 0.8 0 1.8-0.1 3.2-0.3s2.5-0.5 3.4-1v-6.7c-0.7 0.4-1.6 0.7-2.5 0.8z"/>
			<path class="st0" d="m491.4 84c-0.9 0.2-1.8 0.2-2.7 0.2-1.4 0-2.5-0.3-3.2-0.8s-1.3-1.2-1.6-2.1c-0.4-0.8-0.6-1.8-0.6-2.9-0.1-1.1-0.1-2.1-0.1-3.2v-17.6h10.6v-6.4h-10.6v-10.8h-7.4v10.9h-7.4l-2.8 6.4h10.2v20.3c0 1.6 0.1 3.2 0.2 4.7 0.1 1.6 0.6 3 1.3 4.2 0.7 1.3 1.9 2.3 3.4 3.1 1.6 0.8 3.8 1.2 6.6 1.2 0.8 0 1.8-0.1 3.2-0.3s2.5-0.5 3.4-1v-6.7c-0.8 0.4-1.6 0.7-2.5 0.8z"/>
		<path class="st0" d="m49.9 65.7s2.6-3.7 6.1-3.8c5.4-0.1 9.8 9.6 10.5 11 6-13.4 15.9-24.7 23.9-32.3h-49.3c0 4.6 0.1 51.5 0.1 55.3 0 3-0.4 5.2-0.6 6.2 2.2-0.3 10.5-1.8 18.9-4.8 15-5.4 20.9-11.1 20.9-11.2l0.4-0.4 0.2 0.5s1.9 4.2 3.7 6.4c2.1 2.4 3.2 2.7 3.8 2.5 0.8-0.3 1.4-1.6 1.6-3.9 0.2-2.2 0.4-7.3 0.4-13.4v-32.9c-14.4 17.8-25.1 44.6-25.1 44.6s-7.1-24-15.5-23.8z"/>
<style>.ddcba02be003499b88926c88910eb29d{height:75px}</style>
</svg>
