<?xml version="1.0" encoding="UTF-8"?>
<svg viewBox="23.6 23.4 564.6 249.4" xmlns="http://www.w3.org/2000/svg">
<style>.st0{fill:#ff293d}.st1{fill:#221f1f}</style>
<path class="st0" d="M94 125.7l-18.1-3.9c-15.2-3.1-25.3-6-25.3-16.6 0-10.9 9.4-17.6 23.2-17.6 13.3 0 22.2 3.9 29.7 11.1l15.4-11.1C109 75.6 94 70.7 74.5 70.7c-26.3 0-45.4 15-45.4 37.6 0 17.9 13.3 27.5 34 31.4l14.7 2.9c16.6 3.1 24.4 6.5 24.4 18.6 0 13.3-14 19.5-27.7 19.5-15 0-26.8-5.3-35.7-15.2l-15.2 11.8c11.8 15.4 30.6 21 51.4 21 23.9 0 49.9-13.3 49.9-40.3 0-18-11.8-28.4-30.9-32.3zM190.6 71.2c-27.3 0-52.1 17.1-52.1 49.7v30.2c0 31.1 23.2 47.5 52.8 47.5 27.5 0 52.1-17.6 52.1-49.9v-28.2c.1-31-22.9-49.3-52.8-49.3zm30.7 78.9c0 20.5-12.3 29.9-29.9 29.9-19.3 0-30.9-11.6-30.9-29.2v-31.4c0-19.8 12.8-29.7 30.2-29.7 19.5 0 30.6 11.6 30.6 28.7v31.7zM340.8 90.7h-.7C334.5 78.9 320.8 71 306.3 71c-25.1 0-47.8 15-47.8 47.8v34.7c0 28.5 19.3 45.1 45.6 45.1 12.1 0 28.9-7.5 36.9-22h.2v18.8h21.2v-172h-21.7v67.3zm0 56.5c0 21.5-16.2 32.3-30.6 32.3-17.9 0-29.7-10.9-29.7-26.5v-35.7c0-19.8 15.2-28 28.9-28 17.1 0 31.4 11.8 31.4 30.9v27zM402.6 104.7c0-11.8 12.8-16.6 26.5-16.6 16.6 0 27.3 6 27.3 22v8.2h21.7V108c0-28.2-22.9-36.9-48.5-36.9-22.7 0-46.8 8.9-46.8 34.5v3.4h19.8v-4.3z"/>
<path class="st0" d="M558.3 141.2l-25 25 10.9 10.9 44-44-43.6-43.6-10.9 10.9 24.7 24.7h-136c-22 0-45.1 11.6-45.1 37.1 0 22.7 17.6 35.9 41.2 35.9 15.2 0 28-2.9 38.4-17.9h.5c.2 2.7.7 12.1 1.2 15.2h21.5c-1-4.1-1.9-22.2-1.9-28.5v-19.1h-21.7v2.9c0 17.1-8.2 29.9-32.1 29.9-14.5 0-25.6-6.5-25.6-19.8 0-15.7 12.5-19.8 27-19.8h132.5z"/>
<path class="st0" d="M31.9 228.3H52c9.8 0 15.5 6 15.5 14.2 0 7.3-4.5 14.7-15.3 14.7H43v15.3H31.9v-44.2zm18.3 20.5c4 0 6.5-2.4 6.5-5.9 0-3.8-2.5-5.8-6.5-5.8H43v11.7h7.2zM76.1 228.3h18.5c9.9 0 18.1 5.3 18.1 15.6v12.5c0 11-8.7 16.2-18 16.2H76.1v-44.3zM94 263.6c4 0 7.6-2.5 7.6-7.1v-12.2c0-4.3-3.5-6.9-7.9-6.9h-6.5v26.2H94zM122.3 228.3h32.1v9h-21v8.9h17.3v9h-17.3v17.3h-11.1v-44.2z"/>
<path class="st1" d="m195.7 228.2h4.7l16.3 44.4h-5.3l-4.5-12.9h-18.1l-4.7 12.9h-5l16.6-44.4zm9.8 27.4-7.5-21.3h-0.1l-7.6 21.3h15.2zm20.9-27.3h5l22.9 35.7h0.1v-35.7h4.8v44.4h-4.9l-23-36.2h-0.1v36.2h-4.7v-44.4zm56.4 25.9-14.3-25.8h5.5l11.4 21 11.2-21h5.5l-14.4 25.9v18.4h-4.8v-18.5zm25.1-25.9h5.2l8.8 36.6h0.1l9.4-36.6h4.5l9.3 36.6h0.1l8.9-36.6h5l-11.5 44.5h-4.7l-9.3-36.7h-0.1l-9.3 36.7h-4.8l-11.6-44.5zm60.6 0h5v19.2h22.4v-19.2h5v44.3h-5v-20.6h-22.4v20.7h-5v-44.4zm45.4 0h28.4v4.5h-23.4v14.8h19.7v4.4h-19.7v16.2h23.5v4.5h-28.6v-44.4zm40.1 0h15.7c8.4 0 14.5 4.8 14.5 13.2 0 6-3.5 11.4-10.8 12.8l12.9 18.3h-5.6l-12.5-17.9h-9.2v17.9h-5v-44.3zm14.6 22.3c6.7 0 10.6-2.9 10.6-9.1 0-6.1-4.2-8.9-10.7-8.9h-9.5v18.1h9.6zm27.3-22.3h28.4v4.5h-23.4v14.8h19.7v4.4h-19.7v16.2h23.5v4.5h-28.6v-44.4z"/>
<style>.61ce639fd2b93708ac668f062644608a{height:23px}</style>
</svg>
