<?xml version="1.0" encoding="UTF-8"?>
<svg data-name="Layer 1" viewBox="1.07 .36 127.01 27.49" xmlns="http://www.w3.org/2000/svg">
<defs>
<style>.cls-1{fill:none;}.cls-2{fill:url(#b);}.cls-3{fill:#3688cc;}.cls-4{clip-path:url(#c);}.cls-5{fill:url(#a);}.cls-6{fill:#26698e;}</style>
<linearGradient id="b" x1="2.92" x2="12.84" y1="21.07" y2="14.18" gradientUnits="userSpaceOnUse">
<stop stop-color="#3688cc" offset="0"/>
<stop stop-color="#264b60" offset=".89"/>
</linearGradient>
<clipPath id="c">
<path class="cls-1" d="M34,11v6.3L21.31,26.19H4.93l11.12-7.57V9.54a2.2,2.2,0,0,0-.93-1.8L5.19.77H21.31L33,8.93A2.52,2.52,0,0,1,34,11Z"/>
</clipPath>
<linearGradient id="a" x1="9.17" x2="35.85" y1="33.44" y2="11.87" gradientUnits="userSpaceOnUse">
<stop stop-color="#3688cc" offset="0"/>
<stop stop-color="#3587ca" offset=".32"/>
<stop stop-color="#3382c2" offset=".48"/>
<stop stop-color="#307ab4" offset=".61"/>
<stop stop-color="#2b70a1" offset=".73"/>
<stop stop-color="#246289" offset=".83"/>
<stop stop-color="#1f5675" offset=".89"/>
</linearGradient>
</defs>
<path class="cls-2" d="M1.07,26.19l12.71-8.91V11.93A1.17,1.17,0,0,0,12,11L1.07,18.58Z"/>
<path class="cls-3" d="M13.78,17.28,1.07,8.38V.77L12.72,8.93A2.52,2.52,0,0,1,13.78,11Z"/>
<path class="cls-3" d="M33,8.93,21.31.77H5.19l9.93,7a2.2,2.2,0,0,1,.93,1.8v9.08L4.93,26.19H21.31L34,17.28V11A2.52,2.52,0,0,0,33,8.93Zm-6.62,1.52A1.63,1.63,0,1,1,28,8.82,1.63,1.63,0,0,1,26.34,10.45Z"/>
<g class="cls-4">
<path class="cls-5" d="M4.93,26.19,32.31,7.62l4.58,3.52S33.15,17.74,33.6,23s-16.76,4.84-16.76,4.84Z"/>
</g>
<polygon class="cls-6" points="4.93 26.19 15.99 18.66 24.02 24.29 21.31 26.19"/>
<polygon class="cls-6" points="21.28 0.77 13.23 6.42 5.18 0.77"/>
<path d="M44.42,9.26A1.29,1.29,0,0,0,45.37,9,1.26,1.26,0,0,0,45.69,8a1.31,1.31,0,0,0-.31-1,1.31,1.31,0,0,0-1-.32H42.63c-2.06,0-3.08-1-3.08-3.11a3.1,3.1,0,0,1,.76-2.3A3.15,3.15,0,0,1,42.63.54h4.89V2.39H43.05A1.1,1.1,0,0,0,41.8,3.63a1.3,1.3,0,0,0,.31.93,1.25,1.25,0,0,0,.92.31h1.78a3.25,3.25,0,0,1,2.34.79A3.17,3.17,0,0,1,48,8a3.13,3.13,0,0,1-.8,2.33,3.2,3.2,0,0,1-2.33.78h-5V9.26Z"/>
<path d="M50.35,9.91A5.64,5.64,0,0,1,49,5.83a5.65,5.65,0,0,1,1.33-4.08A5.22,5.22,0,0,1,54.27.37a5.18,5.18,0,0,1,3.92,1.39,5.64,5.64,0,0,1,1.34,4.07,5.65,5.65,0,0,1-1.34,4.08,5.21,5.21,0,0,1-3.92,1.38A5.21,5.21,0,0,1,50.35,9.91Zm6.16-1.35a4.07,4.07,0,0,0,.76-2.73,4.1,4.1,0,0,0-.75-2.73,3.34,3.34,0,0,0-4.5,0,4.07,4.07,0,0,0-.76,2.73A4.12,4.12,0,0,0,52,8.56a2.85,2.85,0,0,0,2.26.87A2.81,2.81,0,0,0,56.51,8.56Z"/>
<path d="M61,11.11V4.57a4.12,4.12,0,0,1,1-3,4,4,0,0,1,3-1h3.18V2.39H65.58a3.46,3.46,0,0,0-1.42.24,1.45,1.45,0,0,0-.75.77,3.51,3.51,0,0,0-.24,1.43v.38H68V7.06H63.17v4.05Z"/>
<path d="M69.57,2.39V.54H78.5V2.39H75.11v8.72H73V2.39Z"/>
<path d="M85.06,11.11H82.55L79.45.54h2.31l2.11,7.85L86,.54h2.48l2.09,7.85L92.64.54h2.17l-3.1,10.57h-2.5L87.13,3.44Z"/>
<path d="M96.51,8.82l-.8,2.29H93.39l4-10.57h2.52l4,10.57H101.6l-.81-2.29ZM100.17,7,98.65,2.58,97.11,7Z"/>
<path d="M107.25,7.18v3.93h-2.14V.54h5.41a3.55,3.55,0,0,1,2.54.83,3.27,3.27,0,0,1,.87,2.48c0,1.75-.72,2.81-2.16,3.19l2.71,4.07h-2.59l-2.51-3.93Zm4-2.2a1.44,1.44,0,0,0,.39-1.11,1.5,1.5,0,0,0-.38-1.13,1.7,1.7,0,0,0-1.17-.35h-2.88V5.34h2.88A1.63,1.63,0,0,0,111.29,5Z"/>
<path d="M116.42,9.82a5.56,5.56,0,0,1-1.24-4,5.56,5.56,0,0,1,1.24-4,5.16,5.16,0,0,1,3.86-1.3h3V2.39h-2.61a5.11,5.11,0,0,0-1.73.25,2,2,0,0,0-1,.78,3.39,3.39,0,0,0-.47,1.45h5.68V6.72h-5.68a3.27,3.27,0,0,0,.45,1.47A2,2,0,0,0,119,9a4.78,4.78,0,0,0,1.75.26h2.76v1.85h-3.19A5.15,5.15,0,0,1,116.42,9.82Z"/>
<path d="M128.08,8.88v2.23H125.9V8.88Z"/>
<path class="cls-6" d="M39.36,26.21V19.67a4.11,4.11,0,0,1,1-3,4.08,4.08,0,0,1,3-1h3.17v1.85H43.9a3.44,3.44,0,0,0-1.41.24,1.47,1.47,0,0,0-.76.77,3.5,3.5,0,0,0-.23,1.43v.38h4.86v1.85H41.5v4.05Z"/>
<path class="cls-6" d="M50.49,15.64V26.21H48.35V15.64Z"/>
<path class="cls-6" d="M57.27,24.36a1.36,1.36,0,0,0,1-2.22,1.35,1.35,0,0,0-1-.32H55.48c-2,0-3.07-1-3.07-3.11a3.1,3.1,0,0,1,.76-2.3,3.14,3.14,0,0,1,2.31-.77h4.89v1.85H55.91a1.1,1.1,0,0,0-1.25,1.24,1.26,1.26,0,0,0,.31.93,1.23,1.23,0,0,0,.92.31h1.78a3.2,3.2,0,0,1,2.33.79,3.13,3.13,0,0,1,.8,2.34A3.13,3.13,0,0,1,60,25.43a3.2,3.2,0,0,1-2.33.78h-5V24.36Z"/>
<path class="cls-6" d="M64.86,21.79v4.42H62.72V15.64h2.14V20h4.83V15.64h2.16V26.21H69.71V21.79Z"/>
<style>.918502d58e9c42cf2ccd295586226772{height:42px}</style>
</svg>
