<?xml version="1.0" encoding="UTF-8"?>
<svg version="1.1" viewBox="0 0 829 196" xmlns="http://www.w3.org/2000/svg" xmlns:xlink="http://www.w3.org/1999/xlink">
<defs>
<polygon id="a" points="0.44101 0.39638 33.629 0.39638 33.629 50.881 0.44101 50.881"/>
</defs>
<g fill="none" fill-rule="evenodd">
<rect width="828" height="196" fill="#fff" opacity="0"/>
<g transform="translate(62 47)">
<path d="m26.155 54 39.498-39.981c2.6835-2.7164 6.2541-4.21 10.06-4.21 3.8032 0 7.3737 1.4922 10.054 4.2086l3.0773 3.115 6.156-6.2314-3.0773-3.115c-4.3231-4.376-10.08-6.786-16.213-6.786-6.1308 0.0014185-11.889 2.4114-16.212 6.7888l-39.498 39.98 6.1546 6.2314z" fill="#000"/>
<path d="m79 27.299-6.1851-6.2221-39.683 39.922c-5.5727 5.606-14.64 5.6074-20.211 0.0028327-5.5727-5.606-5.5727-14.729 0-20.335l34.243-34.446-6.1851-6.2207-34.241 34.446c-8.9827 9.0365-8.9827 23.741 0 32.776 4.3435 4.3695 10.127 6.7774 16.287 6.7774 6.1612 0 11.948-2.4093 16.291-6.7788l39.684-39.922z" fill="#000"/>
<path d="m118.26 34.776c-4.3421-4.3696-10.126-6.7761-16.289-6.7761-6.1612 0.0014164-11.948 2.4079-16.291 6.7789l-39.682 39.921 6.1823 6.2223 39.685-39.923c5.5741-5.6061 14.64-5.6047 20.211-0.0014164 2.6948 2.711 4.1788 6.32 4.1788 10.166 0 3.847-1.484 7.4574-4.1788 10.168l-34.241 34.447 6.1851 6.2208 34.24-34.446c8.9842-9.0367 8.9842-23.742 0-32.778" fill="#000"/>
<path d="m98.846 48-39.497 39.981c-5.5477 5.6129-14.571 5.6158-20.116 0.0014184l-3.0772-3.115-6.1559 6.2314 3.0772 3.115c4.323 4.376 10.08 6.786 16.214 6.786 6.1307-0.001418 11.887-2.4114 16.212-6.7888l39.497-39.98-6.1545-6.2314z" fill="#000"/>
<path d="m161.48 61.411c0.50948 2.5511 1.7034 4.5484 3.579 5.9874 1.8742 1.4419 4.3404 2.1614 7.3987 2.1614 3.0093 0 5.3356-0.70809 6.9802-2.1257 1.6446-1.4162 2.4662-3.2821 2.4662-5.5977 0-1.1335-0.21975-2.09-0.65925-2.8695-0.4409-0.77947-1.054-1.4405-1.8406-1.9844-0.78942-0.54106-1.7608-1.0036-2.9183-1.3805-1.1575-0.37832-2.455-0.77947-3.8911-1.2049l-3.7498-1.0621c-2.2241-0.61387-4.2158-1.3577-5.9752-2.2328-1.7608-0.8737-3.2655-1.9016-4.5154-3.0822s-2.2003-2.5383-2.8484-4.0744c-0.64805-1.5347-0.97278-3.3192-0.97278-5.3493 0-2.1257 0.41711-4.0858 1.2513-5.8818 0.83281-1.7931 2.0141-3.3306 3.5426-4.6055 1.5285-1.2749 3.3802-2.2785 5.5581-3.0123 2.1751-0.72951 4.6288-1.0964 7.3623-1.0964 5.141 0 9.2155 1.2392 12.228 3.7189 3.0093 2.4812 4.7687 5.7989 5.2796 9.9561l-8.3365 0.70809c-0.51088-2.1257-1.5285-3.7789-3.0569-4.9595s-3.6588-1.7717-6.391-1.7717c-2.5474 0-4.5392 0.60245-5.9738 1.8074-1.4375 1.2049-2.1555 2.7524-2.1555 4.6412 0 1.0864 0.20995 1.9944 0.62706 2.7267 0.4171 0.73379 1.0176 1.3705 1.8056 1.913 0.78662 0.54392 1.7482 1.0279 2.8819 1.4519 1.1351 0.42543 2.4201 0.87655 3.8561 1.3477l3.544 1.1335c2.2213 0.70809 4.2256 1.4519 6.0074 2.2314 1.7832 0.77947 3.3005 1.7131 4.5504 2.7995 1.2513 1.0864 2.2129 2.3855 2.8833 3.8974 0.67185 1.5118 1.0078 3.3777 1.0078 5.5977 0 2.3627-0.4633 4.5241-1.3885 6.4828-0.92799 1.9615-2.2227 3.6261-3.8911 4.9952-1.667 1.3705-3.6462 2.4341-5.9403 3.1879-2.2927 0.75521-4.8275 1.1349-7.6059 1.1349-5.141 0-9.4255-1.2277-12.852-3.6847-3.4278-2.4569-5.5343-6.1644-6.3224-11.125l8.4751-0.77947z" fill="#000"/>
<path d="m226.86 32.617c-2.499 0-4.7335 0.47036-6.7007 1.4082-1.9687 0.9393-3.6351 2.241-4.9993 3.9064-1.367 1.6669-2.4094 3.6393-3.1272 5.9129-0.71638 2.2779-1.0746 4.7533-1.0746 7.4277 0 2.6758 0.36939 5.1626 1.111 7.4633 0.73877 2.2992 1.7938 4.2929 3.1594 5.984 1.3642 1.6882 3.032 3.014 5.0007 3.9775 1.9659 0.96062 4.2004 1.4409 6.7007 1.4409s4.7335-0.45615 6.7021-1.3713c1.9659-0.91514 3.6337-2.1941 4.9993-3.8382 1.3656-1.6413 2.4192-3.6251 3.1594-5.947 0.74017-2.3234 1.111-4.8699 1.111-7.638 0-2.7227-0.37078-5.2337-1.111-7.5329-0.74017-2.2978-1.7938-4.2702-3.1594-5.9129-1.3656-1.6413-3.0446-2.933-5.0357-3.8723-1.9896-0.93788-4.2353-1.4082-6.7357-1.4082m0.069959-7.6167c3.7498 0 7.1764 0.64657 10.278 1.9397 3.1006 1.2931 5.7395 3.1021 7.9166 5.4298 2.1743 2.3291 3.8632 5.1143 5.0693 8.3585 1.2033 3.2442 1.805 6.794 1.805 10.649 0 3.9988-0.63663 7.6068-1.9085 10.827-1.2761 3.2215-3.0908 6.0067-5.4526 8.3571l6.6671 7.9706v2.4683h-8.4721l-4.6537-5.7822c-1.6203 0.75173-3.3581 1.3386-5.2078 1.7621-1.8525 0.42347-3.8436 0.6352-5.9717 0.6352-3.8436 0-7.3038-0.64799-10.382-1.9397-3.0796-1.2931-5.6961-3.1035-7.848-5.4312-2.1534-2.3276-3.8198-5.1001-4.9993-8.323-1.1809-3.2201-1.7714-6.7343-1.7714-10.544 0-3.8553 0.59046-7.3922 1.7714-10.615 1.1795-3.2186 2.8571-5.9939 5.0343-8.3216 2.1743-2.3276 4.802-4.1494 7.8816-5.4667 3.0796-1.3145 6.4936-1.9738 10.243-1.9738" fill="#000"/>
<path d="m286 69.703c3.5527 0 6.3204-1.1205 8.3045-3.3645 1.9827-2.2439 2.9755-5.6798 2.9755-10.309v-31.03h8.72v31.242c0 3.6842-0.46152 6.836-1.3846 9.4582-0.92443 2.6208-2.2379 4.7705-3.9445 6.4477-1.7066 1.6772-3.8065 2.9048-6.2967 3.6842-2.4916 0.77938-5.283 1.1676-8.3742 1.1676-3.1386 0-5.9412-0.38826-8.4077-1.1676-2.4693-0.77938-4.5566-2.007-6.2632-3.6842-1.7066-1.6772-3.0215-3.827-3.9459-6.4477-0.92303-2.6222-1.3832-5.774-1.3832-9.4582v-31.242h8.72v31.03c0 4.6292 0.99136 8.065 2.9755 10.309 1.9841 2.2439 4.7518 3.3645 8.3045 3.3645" fill="#000"/>
<path d="m330.98 54.203h16.686l-2.7462-7.9386c-1.0809-3.1092-1.9476-5.6404-2.6043-7.5892-0.65818-1.9503-1.2454-3.6676-1.7603-5.1535h-2.1816c-0.28228 0.78853-0.56456 1.5785-0.84542 2.367-0.28228 0.78993-0.5986 1.6725-0.95038 2.6462-0.3532 0.97514-0.73903 2.0892-1.1617 3.3435-0.42271 1.2515-0.93903 2.715-1.549 4.386l-2.8866 7.9386zm-15.982 19.36 17.954-47.563h13.307l17.74 47.563v2.4371h-8.7293l-5.0682-14.276h-21.896l-5.0682 14.276h-8.2385v-2.4371z" fill="#000"/>
<path d="m383.65 48.841h7.6003c3.3478 0 5.9847-0.61036 7.9136-1.8283 1.9289-1.2193 2.8954-3.2089 2.8954-5.9717 0-2.8062-0.97778-4.7608-2.9305-5.865-1.9513-1.1028-4.577-1.6557-7.8784-1.6557h-7.6003v15.321zm29.355 27.159h-8.4376l-15.269-19.638h-5.6475v19.638h-8.6455v-50h16.246c2.5554 0 4.9858 0.17399 7.2856 0.52196 2.3012 0.34797 4.3818 1.1492 6.2418 2.4021 3.9491 2.5986 5.9271 6.5217 5.9271 11.765 0 2.2759-0.33717 4.2599-1.0129 5.9548-0.67433 1.6936-1.5692 3.1318-2.6833 4.316-1.1169 1.1842-2.4065 2.1468-3.869 2.8876-1.4653 0.74365-2.9881 1.3007-4.5686 1.6711l14.434 18.043v2.4386z" fill="#000"/>
<polygon points="424 26 456.51 26 456.51 33.659 432.6 33.659 432.6 46.751 454.83 46.751 454.83 54.272 432.6 54.272 432.6 68.339 457 68.339 457 76 424 76" fill="#000"/>
<path d="m476.48 61.411c0.50807 2.5511 1.702 4.5484 3.5775 5.9874 1.8755 1.4419 4.3417 2.1614 7.3985 2.1614 3.0092 0 5.3354-0.70809 6.9814-2.1257 1.6432-1.4162 2.4662-3.2821 2.4662-5.5977 0-1.1335-0.21974-2.09-0.66063-2.8695-0.43948-0.77947-1.0539-1.4405-1.8405-1.9844-0.78799-0.54106-1.7607-1.0036-2.9168-1.3805-1.1589-0.37832-2.4564-0.77947-3.8924-1.2049l-3.7496-1.0621c-2.2226-0.61387-4.2157-1.3577-5.975-2.2328-1.7607-0.8737-3.2653-1.9016-4.5138-3.0822-1.2513-1.1806-2.2016-2.5383-2.8496-4.0744-0.64803-1.5347-0.97274-3.3192-0.97274-5.3493 0-2.1257 0.41709-4.0858 1.2513-5.8818 0.83278-1.7931 2.0141-3.3306 3.5425-4.6055 1.5284-1.2749 3.3801-2.2785 5.5579-3.0123 2.175-0.72951 4.63-1.0964 7.3621-1.0964 5.1408 0 9.2152 1.2392 12.227 3.7189 3.0092 2.4812 4.7699 5.7989 5.2794 9.9561l-8.3362 0.70809c-0.50947-2.1257-1.5284-3.7789-3.0554-4.9595-1.5284-1.1806-3.66-1.7717-6.3921-1.7717-2.5473 0-4.539 0.60245-5.9736 1.8074-1.436 1.2049-2.154 2.7524-2.154 4.6412 0 1.0864 0.20854 1.9944 0.62564 2.7267 0.41709 0.73379 1.0175 1.3705 1.8055 1.913 0.78659 0.54392 1.7481 1.0279 2.8832 1.4519 1.1351 0.42543 2.42 0.87655 3.8546 1.3477l3.5439 1.1335c2.2226 0.70809 4.2255 1.4519 6.0086 2.2314 1.7817 0.77947 3.3003 1.7131 4.5488 2.7995 1.2513 1.0864 2.2128 2.3855 2.8846 3.8974 0.67042 1.5118 1.0077 3.3777 1.0077 5.5977 0 2.3627-0.46328 4.5241-1.3898 6.4828-0.92796 1.9615-2.2226 3.6261-3.891 4.9952-1.667 1.3705-3.646 2.4341-5.9386 3.1879-2.294 0.75521-4.8287 1.1349-7.607 1.1349-5.1394 0-9.4251-1.2277-12.851-3.6847-3.4277-2.4569-5.5341-6.1644-6.3221-11.125l8.4762-0.77947z" fill="#000"/>
<path d="m527.86 49.259h8.5059c1.5595 0 2.9891-0.12628 4.2887-0.38023 1.2982-0.25255 2.4335-0.67769 3.4018-1.2768 0.9697-0.59771 1.7252-1.4031 2.2693-2.4161 0.54269-1.0116 0.81404-2.2547 0.81404-3.728 0-1.5181-0.27134-2.7935-0.81404-3.829-0.54412-1.0355-1.2896-1.8521-2.2336-2.4512-0.94542-0.59911-2.0679-1.0242-3.3661-1.2768-1.301-0.25255-2.7063-0.38023-4.2173-0.38023h-8.6488v15.738zm-8.8601-23.259h18.571c3.4489 0 6.3438 0.39426 8.683 1.1842 2.3393 0.78853 4.2287 1.8787 5.6711 3.2734 1.4396 1.3919 2.4807 3.0278 3.1176 4.9094 0.63695 1.8787 0.95685 3.9104 0.95685 6.0922 0 2.6013-0.43701 4.8631-1.311 6.7895-0.87402 1.9264-2.1379 3.5161-3.7917 4.7705-1.6552 1.2529-3.6632 2.193-6.0253 2.8202-2.3636 0.62717-5.0327 0.94006-8.009 0.94006h-9.0029v19.221h-8.8601v-50z" fill="#000"/>
<path d="m573.98 54.203h16.686l-2.7462-7.9386c-1.0809-3.1092-1.949-5.6404-2.6058-7.5892-0.65676-1.9503-1.244-3.6676-1.7589-5.1535h-2.183c-0.28086 0.78853-0.56314 1.5785-0.84541 2.367-0.28086 0.78993-0.5986 1.6725-0.95038 2.6462-0.35178 0.97514-0.73761 2.0892-1.1603 3.3435-0.42271 1.2515-0.93903 2.715-1.549 4.386l-2.8866 7.9386zm-15.982 19.36 17.954-47.563h13.305l17.741 47.563v2.4371h-8.7293l-5.0682-14.276h-21.896l-5.0696 14.276h-8.2371v-2.4371z" fill="#000"/>
<path d="m660 62.78c-0.79433 1.9521-1.836 3.7891-3.1208 5.5123-1.2876 1.7232-2.8424 3.233-4.6657 4.5222s-3.9406 2.3089-6.349 3.0588c-2.4084 0.74996-5.0854 1.1263-8.0324 1.1263-3.7413 0-7.1434-0.65165-10.206-1.9535-3.0629-1.2991-5.6777-3.101-7.843-5.4-2.1653-2.3018-3.8374-5.0419-5.0162-8.2257-1.1788-3.1824-1.7668-6.6331-1.7668-10.352 0-3.7161 0.58798-7.1667 1.7668-10.351 1.1788-3.1824 2.8607-5.9365 5.0501-8.2608 2.1894-2.3215 4.8169-4.1472 7.8797-5.4702 3.0629-1.3258 6.4875-1.9873 10.277-1.9873 5.5165 0 10.137 1.2794 13.854 3.8341 3.7187 2.5546 6.349 5.9477 7.8925 10.176l-8.9087 1.7415c-1.2169-2.5546-2.913-4.5658-5.0868-6.0292-2.1752-1.4634-4.8056-2.1951-7.8925-2.1951-2.4777 0-4.6883 0.47469-6.6289 1.4241s-3.5773 2.2569-4.9102 3.9239c-1.3328 1.6656-2.3505 3.6332-3.0515 5.9028-0.70105 2.2681-1.0516 4.6978-1.0516 7.2903 0 2.6389 0.36183 5.0812 1.0869 7.3269 0.72366 2.2471 1.7767 4.1894 3.1561 5.834 1.3795 1.6432 3.0515 2.9268 5.0162 3.8523 1.9632 0.92692 4.2091 1.3904 6.7335 1.3904 3.2749 0 5.9745-0.79069 8.1031-2.3707 2.1286-1.58 3.7766-3.5082 4.9455-5.7862l8.7688 1.4648z" fill="#000"/>
<g transform="translate(671 25)">
<mask id="b" fill="white">
<use xlink:href="#a"/>
</mask>
<polygon points="0.44101 0.39638 33.136 0.39638 33.136 8.13 9.0898 8.13 9.0898 21.349 31.449 21.349 31.449 28.942 9.0898 28.942 9.0898 43.146 33.629 43.146 33.629 50.881 0.44101 50.881" fill="#000" mask="url(#b)"/>
</g>
</g>
</g>
<style>.fed6a05c57a1032c38e122f715088da8{height:10px}</style>
</svg>
