<?xml version="1.0" encoding="UTF-8"?>
<svg clip-rule="evenodd" fill-rule="evenodd" image-rendering="optimizeQuality" shape-rendering="geometricPrecision" text-rendering="geometricPrecision" version="1.1" viewBox="0 0 1920 348" xmlns="http://www.w3.org/2000/svg">
<path d="m67.5-0.5h211c37.44 8.2745 59.94 31.274 67.5 69 0.667 11 0.667 22 0 33-11.997 4.208-24.163 7.874-36.5 11 0.167-13.671 0-27.337-0.5-41-5.72-20.721-19.22-32.554-40.5-35.5-63.667-0.6667-127.33-0.6667-191 0-21.21 2.5125-34.71 14.012-40.5 34.5-1.2904 38.638-1.9571 77.304-2 116-1.2299 6.305-4.7299 10.805-10.5 13.5-8.261 3.142-16.594 5.976-25 8.5v-141c8.3333-37 31-59.667 68-68z" fill="#ff5b49" opacity=".99"/>
<path d="m544.5 31.5c30.816-2.8753 59.15 3.958 85 20.5 20.623 16.081 30.957 37.247 31 63.5h-56c-1.538-15.916-9.871-26.416-25-31.5-13.249-4.0364-26.582-4.3698-40-1-22.259 6.6855-29.426 20.852-21.5 42.5 5.398 6.06 11.898 10.56 19.5 13.5 18.794 5.759 37.794 10.759 57 15 17.511 4.588 33.177 12.588 47 24 21.925 22.537 28.425 49.037 19.5 79.5-9.7 25.365-27.534 42.198-53.5 50.5-34.426 10.028-68.759 9.694-103-1-38.732-14.282-58.066-42.115-58-83.5h57c2.124 23.293 14.791 36.793 38 40.5 18.574 3.777 35.907 0.777 52-9 15.808-14.894 15.808-29.561 0-44-8.484-4.831-17.484-8.497-27-11-19.886-4.555-39.552-9.888-59-16-49.482-19.085-64.982-53.585-46.5-103.5 13.633-22.922 33.466-37.755 59.5-44.5 8.08-1.8438 16.08-3.3438 24-4.5z" opacity=".98"/>
<path d="m707.5 35.5h59c-0.478 62.699 0.022 125.36 1.5 188 8.162 26.43 26.162 39.43 54 39 27.935 0.036 45.935-13.297 54-40 1.474-62.305 1.974-124.64 1.5-187h59c0.167 62.668 0 125.33-0.5 188-5.346 45.019-29.846 73.852-73.5 86.5-31.395 7.84-62.395 6.507-93-4-35.758-14.676-56.258-41.176-61.5-79.5-0.5-63.666-0.667-127.33-0.5-191z" opacity=".984"/>
<path d="m987.5 35.5c42-0.1667 84 0 126 0.5 59.09 9.1149 86.26 43.615 81.5 103.5-3.96 30.286-19.79 51.786-47.5 64.5 19.21 35.58 38.54 71.08 58 106.5-21.66 1.166-43.33 1.333-65 0.5-17.29-32.087-34.46-64.254-51.5-96.5-14.09-0.99-28.25-1.324-42.5-1v98h-59v-276zm59 48c16-0.1666 32 1e-4 48 0.5 26.17 1.6636 39.5 15.497 40 41.5 0.79 20.712-8.88 33.546-29 38.5-19.6 2.206-39.26 3.039-59 2.5v-83z" opacity=".983"/>
<path d="m1240.5 35.5h183v49h-124v64h112v49h-112v114h-59v-276z" opacity=".981"/>
<path d="m1466.5 35.5h186v49h-127v64h117v49h-117v65h127v49h-186v-276z" opacity=".984"/>
<path d="m1919.5 308.5v3c-21.68 0.333-43.34 0-65-1-17-32-34-64-51-96-13.98-0.999-27.98-1.333-42-1v98h-59v-276c44.03-0.4625 88.03 0.0375 132 1.5 49.16 8.9975 74.5 38.498 76 88.5-0.1 36.404-16.1 62.904-48 79.5 18.64 34.787 37.64 69.287 57 103.5zm-158-225c15.67-0.1666 31.34 1e-4 47 0.5 25.98 1.814 39.65 15.647 41 41.5-0.47 23.124-12.14 36.291-35 39.5-17.64 1.283-35.31 1.783-53 1.5v-83z" opacity=".984"/>
<path d="m216.5 96.5c8.803-0.4087 17.47 0.4246 26 2.5 4.021 1.868 6.187 5.035 6.5 9.5 0.667 43.333 0.667 86.667 0 130-0.994 6.584-4.827 10.084-11.5 10.5-10.061 0.895-20.061 0.562-30-1-4.444-2.111-6.944-5.611-7.5-10.5-0.667-42.667-0.667-85.333 0-128 1.837-9 7.337-13.333 16.5-13z" fill="#ff5b49" opacity=".986"/>
<path d="m110.5 138.5c9.052-0.307 18.052 0.193 27 1.5 3.833 1.167 6.333 3.667 7.5 7.5 1.626 29.293 1.959 58.626 1 88-0.256 7.586-4.089 12.086-11.5 13.5-10.061 0.895-20.061 0.562-30-1-4.27-1.27-6.7703-4.104-7.5-8.5-0.6667-30-0.6667-60 0-90 2.0222-6.867 6.522-10.534 13.5-11z" fill="#ff5b49" opacity=".981"/>
<path d="m274.5 347.5h-203c-38.966-6.817-62.965-29.483-72-68v-35c11.994-3.165 23.827-6.831 35.5-11 0.3333 11.667 0.6667 23.333 1 35 1.9785 20.642 12.812 34.142 32.5 40.5 34.796 1.15 69.629 1.65 104.5 1.5 34.871 0.15 69.704-0.35 104.5-1.5 16.679-5.346 27.179-16.512 31.5-33.5 0.333-35.667 0.667-71.333 1-107-0.612-9.274 2.888-16.441 10.5-21.5 8.519-3.34 17.185-6.173 26-8.5 0.167 46.335 0 92.668-0.5 139-5.206 30.568-22.039 52.068-50.5 64.5-7.009 2.334-14.009 4.167-21 5.5z" fill="#ff5b49" opacity=".976"/>
<style>.9862e46432066fd0689118626b62bd2e{height:35px}</style>
</svg>
