<?xml version="1.0" encoding="UTF-8"?>
<svg version="1.1" viewBox="0 0 597.86 138.27" xmlns="http://www.w3.org/2000/svg">
<defs>
<style>.cls-1{fill:#fff;}.cls-2{fill:#178a9e;}</style>
</defs>
<g data-name="Layer 2">
<g data-name="Layer 1">
<path class="cls-1" d="M69.75.05v0c-6.84,0-13.68-.2-20.5,0-14.82.53-27.18,10-30.42,24.32Q10.4,61.64,3.05,99.09A172.22,172.22,0,0,0,0,125.3c-.32,7.54,5.42,13,12.93,13,3.75,0,7.82-.25,11.21-1.67q18.66-7.78,36.91-16.52c11.06-5.32,22.74-9.7,31.82-18.47s16.69-18.81,16.5-32.4c-.22-16.49-.57-33-1.3-49.45C107.5,6.71,100.4.26,87.24.06,81.41,0,75.58.05,69.75.05ZM199.13,47.54c-3.06-4.56-5.07-9-8.34-12.16-10-9.64-29.85-9.16-39.65,1a25.85,25.85,0,0,0-6.35,11.53c-2.85,12.36,4.75,22.46,18.44,25.6,4.54,1,9.19,1.69,13.63,3s7.81,4.88,7.25,9.56a12.11,12.11,0,0,1-5.31,8.08c-8.79,4.78-19.88,0-23.35-9.28-.39-1-.89-2-1.4-3.19l-12.43,3.43c1.17,12.82,11.71,22.06,25.87,23.29,15.33,1.33,27.54-5.49,30.9-17.24,3.46-12.07-3.53-24.19-16.6-28.28-4.43-1.38-9.1-2-13.65-3-6.71-1.43-9.92-4.69-9.46-9.56s5.09-8.6,11-9c7.78-.54,13,3.06,15.64,10.47Zm363,61C556.08,99.86,551,92,545.31,84.73c-3.24-4.13-3.09-6.76.73-10.29,5.15-4.76,9.75-10.12,15.15-15.82-9.81-1.14-18.17-2.07-24,6.94-2.49,3.86-6.29,6.87-9.5,10.27l-1.18-.58V28.64H513.3c0,26.15,0,51.58.11,77a3.77,3.77,0,0,0,2.47,2.73c3.39.33,6.84.13,10.32.13,1.26-6.93-2.29-14.85,6.29-18.51.19.1.59.18.75.42,3.44,4.9,6.74,9.9,10.33,14.69,1.07,1.44,2.84,3.1,4.44,3.27C552.25,108.83,556.57,108.53,562.16,108.53Zm-187-79.89v79.3c12.58,2.17,12.81,2,12.81-9.82,0-.66,0-1.33,0-2,.15-6.49-.08-13,.56-19.45.51-5.22,4.89-8.24,9.88-7.85s8,3.53,8.41,8.84c.17,2.32.08,4.66.08,7,0,7.78,0,15.56,0,23.49h12.81c0-12.35.5-24.33-.18-36.24-.44-7.66-5.64-12.65-13.31-13.31-5.87-.51-11.88.63-18.47,1.08v-31H375.17Zm62.66,47.42c.71-1.33,1.19-2.37,1.8-3.32,2.85-4.38,9.9-6,14.11-2.9a7.38,7.38,0,0,1,2.65,4.87c.06.8-2.43,2.3-3.94,2.62-4.71,1-9.57,1.29-14.26,2.35-8.64,2-13.17,7.79-12.49,15.48a14.75,14.75,0,0,0,15.13,13.14c5.56-.06,11.1-1.88,16.79-2.93,1.06,3.75,2.72,4.28,11.79,2.48,0-11.69.46-23.49-.17-35.22-.37-6.9-5.1-11.92-11.83-13.23a47.42,47.42,0,0,0-17.17-.22,15.64,15.64,0,0,0-13,14.71ZM204.76,58.21c0,11.35-.41,22.19.11,33,.52,10.61,8.26,17.58,18.84,17.21,4.6-.17,9.15-1.83,13.83-2.83,1.12,3.51,4,4.24,12.49,2.06v-4.76c0-13.17-.18-26.34.09-39.49.1-4.45-1.3-6.19-5.66-5.48a4.72,4.72,0,0,1-1.5,0c-4.68-.78-6.47.91-6.21,5.88.41,7.81.19,15.66.07,23.49-.08,5.63-2.62,8.29-8,8.88-5.6.61-9.25-1.68-10.44-6.91a32.07,32.07,0,0,1-.58-6.93c-.07-7.95,0-15.89,0-24.11ZM326,70.39V58.19l-10.42-.59c-1.68-13.52,0-16.4,10.46-18.25V29.2c-15.37-2.49-24.13,4.84-24.19,20,0,2.76,0,5.52,0,8.38l-7.82.77V70.17l7.89.61V108.2h13.18V70.39Zm42.55,1a22,22,0,0,0-.79-3.18c-3.61-8.31-14.47-12.39-24.87-9.38-7.69,2.22-12.43,8-12.33,15,.09,6.71,4.45,11.58,12.36,13.67,3.22.85,6.68,1.08,9.65,2.42,1.73.78,3.9,3.4,3.68,4.86s-2.83,3.58-4.72,4c-5.64,1.28-9.58-1.46-11.62-6.87l-11.52,2.74c2.05,3.24,3.24,6,5.21,8.05,5.93,6.08,13.57,6.65,21.37,5.42,8.72-1.38,14.29-7.33,14.41-14.75.11-7.08-4.73-12.42-13.34-14.56-3.22-.8-6.63-1.09-9.7-2.28-1.52-.59-3.44-2.71-3.41-4.1s1.88-3.65,3.42-4.23A8.36,8.36,0,0,1,356.6,71c.86,1.09,2.45,2.4,3.6,2.31C363,73.08,365.63,72.08,368.55,71.35ZM258.25,58.18v49.95h12.93V89.85c0-15.42,1.53-17.3,17-20.09,0-2.48-.17-5.1,0-7.7.26-3.34-1.22-4.93-4.33-4-4.43,1.3-8.7,3.12-13,4.69-.14-1-.4-2.72-.67-4.55Zm219.78,0v50.07h11.88c.32-.58.6-.86.6-1.14q.15-9.73.22-19.45c.11-12.74,3.26-16.23,15.71-17.42.28,0,.54-.34.95-.62V58.32c-6.68-1.22-11.89,1.06-16.53,5.74L490,58.18Zm92.42-15.77a13.71,13.71,0,1,0,27.41,0,13.71,13.71,0,1,0-27.41,0Z"/>
<path class="cls-2" d="M69.75.05c5.83,0,11.66-.08,17.49,0,13.16.2,20.26,6.65,20.84,19.7.73,16.47,1.08,33,1.3,49.45.19,13.59-7.29,23.5-16.5,32.4s-20.76,13.15-31.82,18.47q-18.23,8.76-36.91,16.52c-3.39,1.42-7.46,1.68-11.21,1.67-7.51,0-13.25-5.43-12.93-13a172.22,172.22,0,0,1,3-26.21q7.43-37.41,15.78-74.65C22.07,10.14,34.43.65,49.25.12c6.82-.24,13.66,0,20.5,0ZM83.91,32.47c0-7.74-1-8.73-8.67-8.12C60.06,25.56,46.91,39.19,46.29,54.51c-.19,4.66-.07,9.33-.07,14,0,11.22-4.45,16.42-15.6,18-3.37.48-5.17,2-5.2,5.44,0,2-.05,4,0,6,.12,3.64,1.87,5.21,5.69,5.27,16.42.22,31.29-13.75,31.89-30.26.23-6.31,0-12.68.64-18.95.72-6.93,5.93-11.81,12.68-12.87C83.88,39.94,83.91,39.91,83.91,32.47Z"/>
<path d="m199.13 47.54-13.77 4.29c-2.67-7.41-7.86-11-15.64-10.47-5.95 0.41-10.59 4.21-11 9s2.75 8.13 9.46 9.56c4.55 1 9.22 1.59 13.65 3 13.07 4.09 20.06 16.21 16.6 28.28-3.36 11.75-15.57 18.57-30.9 17.24-14.16-1.23-24.7-10.47-25.87-23.29l12.43-3.43c0.51 1.16 1 2.15 1.4 3.19 3.43 9.29 14.51 14.09 23.31 9.26a12.11 12.11 0 0 0 5.31-8.08c0.56-4.68-2.68-8.2-7.25-9.56s-9.09-2-13.63-3c-13.69-3.14-21.29-13.24-18.44-25.6a25.85 25.85 0 0 1 6.35-11.53c9.8-10.17 29.64-10.65 39.65-1 3.27 3.13 5.28 7.6 8.34 12.14z"/>
<path d="M562.16,108.53c-5.59,0-9.91.3-14.15-.15-1.6-.17-3.37-1.83-4.44-3.27-3.59-4.79-6.89-9.79-10.33-14.69-.16-.24-.56-.32-.75-.42-8.58,3.66-5,11.58-6.29,18.51-3.48,0-6.93.2-10.32-.13a3.77,3.77,0,0,1-2.47-2.73c-.14-25.43-.11-50.86-.11-77h13.22V75.25l1.18.58c3.21-3.4,7-6.41,9.5-10.27,5.82-9,14.18-8.08,24-6.94-5.4,5.7-10,11.06-15.15,15.82-3.82,3.53-4,6.16-.73,10.29C551,92,556.08,99.86,562.16,108.53Z"/>
<path d="m375.17 28.64h12.59v31c6.59-0.45 12.6-1.59 18.47-1.08 7.67 0.66 12.87 5.65 13.31 13.31 0.68 11.91 0.18 23.89 0.18 36.24h-12.81v-23.49c0-2.34 0.09-4.68-0.08-7-0.39-5.31-3.46-8.47-8.41-8.84s-9.37 2.63-9.88 7.85c-0.64 6.44-0.41 13-0.56 19.45v2c0 11.81-0.23 12-12.81 9.82z"/>
<path d="M437.83,76.06l-10.56-2.17a15.64,15.64,0,0,1,13-14.71,47.42,47.42,0,0,1,17.17.22c6.73,1.31,11.46,6.33,11.83,13.23.63,11.73.17,23.53.17,35.22-9.07,1.8-10.73,1.27-11.79-2.48-5.69,1-11.23,2.87-16.79,2.93A14.75,14.75,0,0,1,425.7,95.16c-.68-7.69,3.85-13.51,12.49-15.48,4.69-1.06,9.55-1.37,14.26-2.35,1.51-.32,4-1.82,3.94-2.62a7.38,7.38,0,0,0-2.65-4.87c-4.21-3.1-11.26-1.48-14.11,2.9C439,73.69,438.54,74.73,437.83,76.06ZM456.23,85c-4.69.87-9.26,1.16-13.33,2.73-1.82.7-3.86,4.12-3.6,6s3,4.47,5.09,4.89C453,100.36,457.46,95.36,456.23,85Z"/>
<path d="m204.76 58.21h13v24.11a32.07 32.07 0 0 0 0.58 6.93c1.19 5.23 4.84 7.52 10.44 6.91 5.43-0.59 8-3.25 8-8.88 0.12-7.83 0.34-15.68-0.07-23.49-0.26-5 1.53-6.66 6.21-5.88a4.72 4.72 0 0 0 1.5 0c4.36-0.71 5.76 1 5.66 5.48-0.27 13.15-0.09 26.32-0.09 39.49v4.76c-8.49 2.18-11.37 1.45-12.49-2.06-4.68 1-9.23 2.66-13.83 2.83-10.58 0.37-18.32-6.6-18.84-17.21-0.48-10.8-0.07-21.64-0.07-32.99z"/>
<path d="m326 70.39h-10.91v37.81h-13.18v-37.42l-7.91-0.61v-11.86l7.82-0.77v-8.38c0.06-15.12 8.82-22.45 24.19-20v10.19c-10.47 1.85-12.14 4.73-10.46 18.25l10.42 0.59z"/>
<path d="M368.55,71.35c-2.92.73-5.6,1.73-8.35,2-1.15.09-2.74-1.22-3.6-2.31a8.36,8.36,0,0,0-10.25-2.81c-1.54.58-3.39,2.75-3.42,4.23s1.89,3.51,3.41,4.1c3.07,1.19,6.48,1.48,9.7,2.28,8.61,2.14,13.45,7.48,13.34,14.56-.12,7.42-5.69,13.37-14.41,14.75-7.8,1.23-15.44.66-21.37-5.42-2-2-3.16-4.81-5.21-8.05l11.52-2.74c2,5.41,6,8.15,11.62,6.87,1.89-.43,4.49-2.42,4.72-4s-1.95-4.08-3.68-4.86c-3-1.34-6.43-1.57-9.65-2.42-7.91-2.09-12.27-7-12.36-13.67-.1-7,4.64-12.79,12.33-15,10.4-3,21.26,1.07,24.87,9.38A22,22,0,0,1,368.55,71.35Z"/>
<path d="M258.25,58.18h12c.27,1.83.53,3.57.67,4.55,4.27-1.57,8.54-3.39,13-4.69,3.11-.91,4.59.68,4.33,4-.21,2.6,0,5.22,0,7.7-15.45,2.79-17,4.67-17,20.09v18.28H258.25Z"/>
<path d="M478,58.18H490l.91,5.88c4.64-4.68,9.85-7,16.53-5.74v11.3c-.41.28-.67.59-.95.62-12.45,1.19-15.6,4.68-15.71,17.42q-.08,9.72-.22,19.45c0,.28-.28.56-.6,1.14H478Z"/>
<path d="M570.45,42.41a13.71,13.71,0,1,1,27.41,0,13.71,13.71,0,1,1-27.41,0Zm24.45.28c.12-6.41-4.47-11.31-10.64-11.38a10.73,10.73,0,0,0-11,11.09,10.8,10.8,0,1,0,21.59.29Z"/>
<path class="cls-1" d="M83.91,32.47c0,7.44,0,7.47-7.58,8.65-6.75,1.06-12,5.94-12.68,12.87C63,60.26,63.24,66.63,63,72.94c-.6,16.51-15.47,30.48-31.89,30.26-3.82-.06-5.57-1.63-5.69-5.27-.06-2,0-4,0-6,0-3.43,1.83-5,5.2-5.44,11.15-1.57,15.58-6.77,15.6-18,0-4.66-.12-9.33.07-14,.62-15.32,13.77-28.95,28.95-30.16C82.86,23.74,83.91,24.73,83.91,32.47Z"/>
<path class="cls-1" d="m456.23 85c1.23 10.37-3.28 15.37-11.84 13.63-2.05-0.42-4.83-3-5.09-4.89s1.78-5.31 3.6-6c4.1-1.59 8.64-1.88 13.33-2.74z"/>
<path d="M590.3,49.06h-2.75a1.17,1.17,0,0,1-1.1-.57l-2.18-3.81a1.08,1.08,0,0,0-.34-.36,1.15,1.15,0,0,0-.54-.11h-.77v4.85h-3V36h4.27a8.61,8.61,0,0,1,2.43.29,4.37,4.37,0,0,1,1.63.81,3,3,0,0,1,.93,1.24,4.1,4.1,0,0,1,.29,1.54,4,4,0,0,1-.18,1.21,3.63,3.63,0,0,1-.5,1.05,3.92,3.92,0,0,1-.82.86,4.55,4.55,0,0,1-1.13.62,3.26,3.26,0,0,1,.56.38,2.74,2.74,0,0,1,.46.55Zm-6.46-7A3,3,0,0,0,584.9,42a1.85,1.85,0,0,0,.71-.43,1.79,1.79,0,0,0,.41-.65,2.64,2.64,0,0,0,.12-.81,1.66,1.66,0,0,0-.56-1.35,2.56,2.56,0,0,0-1.74-.49h-1.22v3.89Z"/>
</g>
</g>
<style>.d932fe6a3c64e56926c9b8b213ac4d2b{height:26px}</style>
</svg>
