<?xml version="1.0" encoding="UTF-8"?>
<svg enable-background="new 0 0 835.1 171" version="1.1" viewBox="0 0 835.1 171" xml:space="preserve" xmlns="http://www.w3.org/2000/svg"> <style type="text/css"> .st0{opacity:0;fill:#FFFFFF;} .st1{fill:#424242;stroke:#424242;stroke-miterlimit:10;} .st2{fill:#FF7100;} .st3{fill:#424242;} .st4{fill:#333333;} </style>  <rect class="st0" width="835.1" height="171"/>    <polygon class="st1" points="41.2 128.9 2.8 138.5 16.3 108.9"/> <polygon class="st2" points="213.6 20.4 170.3 69.5 256.9 69.5"/> <path class="st3" d="m97.1 67h-0.1v0.5c0 16.3-13.2 29.5-29.5 29.5s-29.5-13.1-29.5-29.4 13.2-29.6 29.4-29.6c6.1 0 12.1 1.9 17.1 5.4 3.7-12.3 10.2-23.6 19-33-31.5-19.9-73.2-10.4-93.1 21.1s-10.4 73.2 21.1 93.1 73.2 10.4 93.1-21.1c6.8-10.8 10.4-23.3 10.4-36 0-18.3-6.7-34.8-18.5-47-11.6 12.1-19.3 28.4-19.4 46.5z"/> <path class="st2" d="m213.6 21.2-25.4 28.8c9.7 13.1 6.9 31.6-6.2 41.2-10.3 7.6-24.4 7.7-34.8 0.2-3.7 12.3-10.3 23.6-19.1 33 31.4 20.1 73.1 11 93.2-20.4 16.8-26.1 13.6-60.2-7.7-82.8z"/> <path class="st3" d="m135 68v-0.5c0-16.3 13.2-29.5 29.5-29.5 3.7 0 7.5 0.7 10.9 2.1l25.8-29.2c-31.2-20.3-73-11.4-93.3 19.8-17 26.2-13.8 60.7 7.8 83.4 12.1-12.3 19-28.8 19.3-46.1z"/> <path class="st4" d="M365.6,36.2h-28.7v80.7h-17.7V36.2h-28.7V21.6h75.2V36.2z"/> <path class="st4" d="m359.4 58.7c7.6-7.1 17.7-10.9 28.1-10.7 3.6 0 7.2 0.6 10.6 2 3 1.2 5.7 3.1 7.9 5.4 2.2 2.4 3.9 5.2 4.9 8.3 1.2 3.4 1.7 7 1.7 10.5v42.8h-7.4c-1.2 0.1-2.4-0.2-3.6-0.7-1-0.7-1.7-1.7-2-2.8l-1.5-4.9c-1.6 1.4-3.3 2.8-5 4-1.6 1.2-3.3 2.1-5.1 2.9s-3.7 1.4-5.6 1.8c-2.2 0.4-4.4 0.6-6.6 0.6-2.7 0-5.3-0.4-7.9-1.2-2.3-0.7-4.4-1.9-6.3-3.5-1.8-1.6-3.2-3.5-4.1-5.7-1-2.5-1.5-5.3-1.5-8 0-1.7 0.3-3.5 0.8-5.1 0.6-1.8 1.6-3.4 2.8-4.8 1.5-1.7 3.1-3.1 5-4.3 2.4-1.5 5-2.7 7.7-3.6 3.4-1.1 6.9-1.9 10.5-2.5 4.5-0.7 9.1-1.1 13.7-1.2v-4c0-4.5-1-7.9-2.9-10s-4.7-3.3-8.3-3.3c-2.2-0.1-4.4 0.3-6.6 0.9-1.6 0.5-3.1 1.2-4.6 2.1l-3.6 2.1c-1.1 0.6-2.3 0.9-3.6 0.9-1 0-2.1-0.3-2.9-0.9s-1.4-1.3-1.9-2.1l-2.7-5zm37.3 29.4c-4 0.1-7.9 0.5-11.9 1.2-2.7 0.4-5.2 1.2-7.7 2.3-1.6 0.7-3.1 1.8-4.2 3.2-0.8 1.2-1.3 2.6-1.2 4 0 2.8 0.8 4.9 2.5 6.1 2 1.3 4.3 1.9 6.6 1.8 3 0.1 6-0.5 8.7-1.8 2.7-1.4 5.1-3.3 7.2-5.5v-11.3z"/> <path class="st4" d="M444.4,19v97.9h-16.3V19H444.4z"/> <path class="st4" d="m476.9 19v56.1h3c0.9 0 1.8-0.1 2.6-0.4 0.8-0.4 1.5-1 2-1.8l16.8-20.8c0.6-0.9 1.4-1.6 2.3-2.1 1-0.5 2.2-0.8 3.3-0.7h14.9l-21 25.1c-1.3 1.8-3 3.4-4.9 4.5 0.9 0.7 1.8 1.4 2.5 2.3s1.4 1.8 2 2.8l22.5 32.8h-14.7c-1.1 0-2.3-0.2-3.3-0.6-1-0.5-1.8-1.3-2.3-2.3l-17.2-25.6c-0.4-0.8-1.1-1.5-1.9-2-1-0.4-2-0.5-3-0.5h-3.7v31h-16.2v-97.8h16.3z"/> <path class="st4" d="m546.5 61.1c1.8-3.7 4.4-6.9 7.5-9.5 2.9-2.3 6.6-3.5 10.3-3.5 2.7-0.1 5.3 0.6 7.5 2l-1 12.2c-0.1 0.7-0.5 1.2-1 1.7-0.5 0.4-1.1 0.5-1.7 0.5-1 0-2-0.1-2.9-0.3-1.3-0.2-2.5-0.3-3.8-0.3-1.6 0-3.3 0.2-4.8 0.8-1.4 0.5-2.7 1.3-3.8 2.3-1.2 1-2.2 2.2-3 3.6-0.9 1.5-1.7 3.1-2.4 4.8v41.7h-16.3v-67.8h9.6c2.1-0.5 4.2 0.8 4.7 3 0.1 0.4 0.1 0.7 0.1 1.1l1 7.7z"/> <path class="st4" d="m608.3 48.3c4.7-0.1 9.3 0.8 13.7 2.4 4 1.5 7.6 3.9 10.6 6.9 3 3.1 5.3 6.9 6.8 10.9 3.2 9.4 3.2 19.5 0 28.9-1.5 4.1-3.8 7.9-6.8 11s-6.6 5.5-10.5 7c-4.4 1.7-9 2.5-13.7 2.4-4.7 0.1-9.4-0.8-13.8-2.4-4-1.5-7.6-3.9-10.6-7-3-3.2-5.3-6.9-6.8-11-3.2-9.4-3.2-19.6 0-28.9 1.5-4.1 3.8-7.8 6.8-10.9 3-3 6.6-5.4 10.6-6.9 4.3-1.7 9-2.5 13.7-2.4zm0 57.1c5.6 0 9.8-1.9 12.5-5.7s4-9.3 4-16.6-1.3-12.8-4-16.7-6.8-5.7-12.5-5.7-9.9 1.9-12.7 5.8-4.1 9.4-4.1 16.6c0 7.3 1.4 12.8 4.1 16.6 2.8 3.8 7 5.7 12.7 5.7z"/> <path class="st4" d="m712.3 49.3v67.6h-10c-1.9 0.2-3.7-1.1-4.1-3l-1.1-5.4c-2.7 2.7-5.8 5-9.2 6.8-3.7 1.8-7.7 2.7-11.8 2.6-3.4 0.1-6.7-0.6-9.8-1.9-2.8-1.2-5.2-3-7.2-5.3-2-2.4-3.5-5.2-4.4-8.1-1-3.4-1.5-6.9-1.5-10.4v-43h16.3v43c0 4.1 1 7.3 2.9 9.6s4.8 3.4 8.6 3.4c2.7 0 5.5-0.6 7.9-1.9 2.6-1.3 5-3.1 7-5.2v-48.8h16.4z"/> <path class="st4" d="m751 118c-5.9 0-10.4-1.7-13.5-5s-4.7-7.9-4.7-13.7v-37.8h-6.9c-0.8 0-1.6-0.3-2.2-0.9-0.7-0.7-1-1.6-0.9-2.6v-6.5l10.9-1.8 3.4-18.5c0.2-0.8 0.6-1.5 1.2-2 0.7-0.5 1.5-0.8 2.4-0.7h8.4v21.2h18.1v11.6h-18.2v36.6c-0.1 1.8 0.4 3.5 1.5 4.9 1.1 1.2 2.6 1.9 4.2 1.8 0.9 0 1.7-0.1 2.5-0.4 0.6-0.2 1.2-0.5 1.8-0.8 0.5-0.3 1-0.5 1.3-0.8 0.4-0.2 0.8-0.4 1.2-0.4s0.8 0.1 1.2 0.4 0.7 0.7 1 1.1l4.9 7.9c-2.4 2-5.2 3.6-8.2 4.5-3 1.4-6.2 1.9-9.4 1.9z"/> <path class="st4" d="m789.4 85.2c0.2 3.1 0.8 6.1 1.8 9 0.8 2.3 2.1 4.5 3.8 6.3 1.6 1.6 3.5 2.9 5.6 3.7 2.3 0.8 4.8 1.3 7.2 1.2 2.3 0 4.6-0.3 6.8-0.9 1.7-0.5 3.4-1.2 5-2 1.4-0.8 2.7-1.4 3.8-2 0.9-0.6 2-0.9 3.1-0.9 1.2-0.1 2.3 0.5 3 1.5l4.7 5.9c-1.7 2.1-3.8 3.8-6.1 5.3-2.2 1.4-4.5 2.6-7 3.4-2.4 0.9-4.9 1.5-7.4 1.8-2.4 0.3-4.9 0.5-7.3 0.5-4.5 0-8.9-0.8-13.1-2.3-4-1.5-7.6-3.9-10.6-6.9-3.1-3.3-5.5-7.1-7-11.3-1.8-5-2.7-10.3-2.6-15.7 0-4.4 0.7-8.8 2.2-13 1.4-3.9 3.6-7.5 6.4-10.6 2.9-3.1 6.3-5.5 10.2-7.2 4.3-1.8 8.9-2.7 13.6-2.6 4-0.1 8 0.6 11.8 2 3.5 1.3 6.7 3.4 9.3 6 2.7 2.8 4.8 6 6.1 9.6 1.5 4.2 2.3 8.6 2.2 13 0 2.5-0.3 4.1-0.8 5-0.7 0.9-1.8 1.4-3 1.3l-41.7-0.1zm31-9.8c0-2-0.3-4.1-0.9-6-0.6-1.8-1.5-3.5-2.7-4.9s-2.8-2.6-4.5-3.3c-2-0.9-4.2-1.3-6.4-1.2-4.7 0-8.4 1.3-11.1 4s-4.5 6.5-5.2 11.4h30.8z"/>  <style>.b0c08dcd87fa01412bf9ce4454e6b756{height:42px}</style>
</svg>
