<?xml version="1.0" encoding="UTF-8"?>
<svg enable-background="new 0 0 600 450" version="1.0" viewBox="66.6 152.5 465.32 145.8" xml:space="preserve" xmlns="http://www.w3.org/2000/svg">
<style type="text/css">
	.st0{fill:#080A12;}
	.st1{fill:#345DA8;}
	.st2{fill:#335EA9;}
	.st3{fill:#3EBEEF;}
	.st4{fill:#4675BA;}
</style>
<path class="st0" d="m272.9 264.5v-66.1h-22.9v-11.4h59.7v11.4h-23.1v66.1h-13.7zm74 0v-77.5h26.5c13.8 0 24.5 3.4 31.8 10.2 7.3 6.7 10.8 16.1 10.8 28.2s-3.6 21.6-10.7 28.7c-7.1 7-18.1 10.5-33 10.5h-25.4zm13.8-11.7h13.6c8.8 0 15.6-2.3 20.6-6.9 5-4.5 7.3-11.4 7.3-20s-2.5-15.3-7.3-20.2-12.2-7-22-7h-12.2v54.1zm130.9 12.5c-5.3 0.1-10.5-0.8-15.5-2.8-4.9-2-9.4-4.9-13.2-8.6-15.5-15.8-15.5-41.2 0-57 3.8-3.8 8.3-6.7 13.2-8.7s10.2-2.9 15.5-2.8c10.7-0.2 21 3.9 28.7 11.4 15.5 15.8 15.5 41.2 0 57-3.8 3.7-8.3 6.7-13.2 8.6-4.9 2.1-10.2 3-15.5 2.9zm0-68.6c-3.5-0.1-7.1 0.7-10.3 2.1-3.2 1.5-6.1 3.6-8.4 6.3-5 5.5-7.7 12.7-7.6 20.2-0.2 7.4 2.5 14.6 7.6 20 2.4 2.7 5.3 4.8 8.5 6.2 3.2 1.5 6.7 2.2 10.3 2.2 3.5 0 7-0.8 10.3-2.2 3.2-1.5 6.1-3.6 8.5-6.2 4.9-5.5 7.6-12.7 7.6-20.1s-2.7-14.6-7.6-20.1c-2.3-2.7-5.2-4.9-8.5-6.3s-6.8-2.1-10.4-2.1zm-173.7 6.4c0-3.8 1.3-7.6 3.8-10.5s5.9-4.8 9.7-5.4h0.2v61.2c0 3.8-1.3 7.6-3.8 10.5s-5.9 4.8-9.7 5.4h-0.2v-61.2zm109.1 0c0-3.8 1.3-7.6 3.8-10.5s5.9-4.8 9.7-5.4h0.2v61.2c0 3.8-1.3 7.6-3.8 10.5s-5.9 4.8-9.7 5.4h-0.2v-61.2z"/>
<path class="st1" d="m160.6 152.5c-12.2 0-24 4.3-33.3 12.1s-15.6 18.7-17.7 30.8c-12 2.1-22.9 8.4-30.8 17.7s-12.2 21.2-12.2 33.4v51.7h51.8c12.1 0 23.7-4.2 33-11.9s15.6-18.4 17.9-30.2h-11.3 54.3v-51.9c0-28.5-23.2-51.6-51.7-51.7zm-51.8 51.9z"/>
<path class="st2" d="m118.6 194.8c-3 0-6 0.3-8.9 0.8-0.5 2.9-0.8 5.9-0.8 8.9 0 6.8 1.3 13.4 3.9 19.7 2.6 6.2 6.4 11.9 11.1 16.7 4.8 4.8 10.4 8.6 16.7 11.1 6.2 2.6 12.9 3.9 19.7 3.9h8.8c0.6-3.2 0.9-6.4 0.9-9.7 0-6.8-1.3-13.4-3.9-19.7s-6.4-11.9-11.1-16.7c-4.8-4.8-10.4-8.6-16.7-11.1-6.2-2.6-12.9-3.9-19.7-3.9z"/>
<path class="st3" d="m161.3 255.9c-6.8 0-13.6-1.3-20-3.9-6.3-2.6-12.1-6.4-16.9-11.3-4.8-4.8-8.7-10.6-11.3-16.9s-4-13.1-4-19.9c0-3 0.3-6 0.8-9-12.1 2.1-23.1 8.4-31 17.8s-12.2 21.3-12.2 33.6v52h52.2c12.1 0 23.9-4.2 33.3-12 9.4-7.7 15.7-18.5 18-30.4h-8.9z"/>
<path class="st4" d="m160.2 152.5c-12.3 0-24.2 4.3-33.5 12.1-9.4 7.8-15.7 18.7-17.8 30.7 3-0.5 6-0.8 9-0.8 7.7 0 15.2 1.7 22.2 4.9 6.9 3.2 13.1 8 18 13.8 4.9 5.9 8.4 12.7 10.3 20.1s2.1 15.1 0.7 22.5h43.2v-51.8c0-28.4-23.3-51.4-52.1-51.5z"/>
<style>.4d7f023367d8e6ea3e234bb8279ca28f{height:78px}</style>
</svg>
