<?xml version="1.0" encoding="UTF-8"?>
<svg viewBox="200.3 .7 2693.2 3080.2" xmlns="http://www.w3.org/2000/svg">
<defs>
<style>.cls-1 {
        fill: url(#c);
      }
      .cls-1, .cls-2, .cls-3, .cls-4, .cls-5, .cls-6, .cls-7, .cls-8, .cls-9, .cls-10, .cls-11 {
        stroke-width: 0px;
      }
      .cls-2 {
        fill: url(#a);
      }
      .cls-12 {
        fill: none;
        stroke: #e73648;
        stroke-miterlimit: 10;
        stroke-width: 4px;
      }
      .cls-3 {
        fill: #c52835;
      }
      .cls-3, .cls-4, .cls-5 {
        fill-rule: evenodd;
      }
      .cls-4, .cls-10 {
        fill: #fff;
      }
      .cls-5 {
        fill: #e73548;
      }
      .cls-6 {
        fill: url(#b);
      }
      .cls-13 {
        isolation: isolate;
      }
      .cls-7 {
        fill: #595a5a;
      }
      .cls-8 {
        fill: #1c1e20;
      }
      .cls-9 {
        fill: #a0283f;
      }
      .cls-11 {
        fill: #e63748;
      }</style>
<radialGradient id="a" cx="1988.2" cy="-401.99" r="1389.3" gradientTransform="translate(0 2053.4) scale(1 1.28)" gradientUnits="userSpaceOnUse">
<stop stop-color="#373737" offset=".07"/>
<stop stop-color="#2e2e2e" offset=".43"/>
<stop stop-color="#171717" offset=".8"/>
<stop stop-color="#101010" offset=".89"/>
</radialGradient>
<linearGradient id="c" x1="812.62" x2="1082.9" y1="-940.59" y2="-940.59" gradientTransform="translate(0 2481.3)" gradientUnits="userSpaceOnUse">
<stop stop-color="#595a5a" offset="0"/>
<stop stop-color="#101010" offset="1"/>
</linearGradient>
<linearGradient id="b" x1="609.61" x2="677.42" y1="-65.7" y2="187.36" gradientTransform="translate(0 3081.3) scale(1 -1)" gradientUnits="userSpaceOnUse">
<stop stop-color="#fff" stop-opacity="0" offset="0"/>
<stop stop-color="#f6f6f6" stop-opacity=".04" offset=".09"/>
<stop stop-color="#dedede" stop-opacity=".12" offset=".23"/>
<stop stop-color="#b6b6b6" stop-opacity=".21" offset=".42"/>
<stop stop-color="#7f7f7f" stop-opacity=".32" offset=".63"/>
<stop stop-color="#393939" stop-opacity=".44" offset=".87"/>
<stop stop-color="#101010" stop-opacity=".5" offset="1"/>
</linearGradient>
</defs>
<polygon class="cls-2" points="2893.4 2985 1082.9 3080.8 1082.9 0.7 2893.4 93.1" data-name="Front Base"/>
<path class="cls-7" d="m1694.62,1540.5L2893.12,337.3l.3.3v-.7l-1206,1201.2-2.4,2.4,2.4,2.4,1206,1210.9v-19.3l-1198.8-1194"/>
<path class="cls-7" d="m1837.32,1540.5L2893.12,480l.3.3v-.7l-1063.3,1058.5-2.4,2.4,2.4,2.4,1063.3,1068.1v-19.3l-1056.1-1051.2"/>
<path class="cls-7" d="m1980.02,1540.5l913.1-917.8.3.3v-.7l-920.6,915.8-2.4,2.4,2.4,2.4,920.6,925.4v-19.3l-913.4-908.5"/>
<path class="cls-7" d="m2122.82,1540.5l770.4-775.1.3.3v-.7l-777.9,773.1-2.5,2.4,2.5,2.4,777.9,782.7v-19.3l-770.7-765.8"/>
<path class="cls-7" d="m2265.42,1540.5l627.7-632.4.3.3v-.7l-635.2,630.4-2.4,2.4,2.4,2.4,635.2,640v-19.2l-628-623.2"/>
<path class="cls-7" d="m2408.22,1540.5l485-489.7.3.3v-.7l-492.5,487.8-2.4,2.4,2.4,2.5,492.5,497.3v-19.2l-485.3-480.7"/>
<path class="cls-7" d="m2550.82,1540.5l342.3-347,.2.2v-.7l-349.8,345.1-2.4,2.4,2.4,2.5,349.8,354.6v-19.1l-342.5-338"/>
<path class="cls-7" d="m2693.62,1540.5l199.6-204.2.2.2v-.8l-207.1,202.5-2.4,2.4,2.4,2.5,207.1,211.8v-19l-199.8-195.4"/>
<path class="cls-7" d="m2836.3 1540.4 57.1-61.1v-1.3l-64.4 60.2-2.4 2.3 2.4 2.6 64.4 68.9v-18.3l-57.1-53.3"/>
<g data-name="Compatible With">
<g class="cls-13">
<path class="cls-10" d="m1351.5 2607.1c-0.42 3.63-1.76 6.47-4.01 8.52-2.25 2.06-5.24 3.16-8.97 3.32-4.05 0.17-7.29-1.14-9.73-3.93s-3.66-6.61-3.66-11.45v-3.28c0-3.17 0.57-5.98 1.71-8.44 1.14-2.45 2.75-4.37 4.84-5.75 2.08-1.38 4.5-2.12 7.24-2.24 3.64-0.15 6.56 0.74 8.75 2.67s3.47 4.68 3.83 8.24l-4.54 0.19c-0.39-2.71-1.24-4.65-2.55-5.82s-3.14-1.7-5.49-1.6c-2.88 0.12-5.15 1.28-6.79 3.47-1.64 2.2-2.46 5.26-2.46 9.18v3.31c0 3.71 0.78 6.62 2.33 8.75 1.55 2.12 3.72 3.13 6.52 3.01 2.51-0.11 4.43-0.75 5.78-1.94 1.34-1.19 2.23-3.2 2.67-6.03l4.54-0.19z"/>
<path class="cls-10" d="m1355.8 2604.8c0-2.48 0.49-4.74 1.47-6.76s2.35-3.61 4.09-4.76 3.74-1.77 5.99-1.87c3.47-0.14 6.27 0.93 8.41 3.23s3.21 5.44 3.21 9.4v0.3c0 2.47-0.47 4.7-1.42 6.7s-2.31 3.58-4.07 4.75c-1.77 1.17-3.79 1.8-6.08 1.89-3.45 0.14-6.24-0.93-8.38-3.23s-3.21-5.42-3.21-9.36v-0.3zm4.38 0.33c0 2.81 0.65 5.04 1.96 6.69s3.06 2.43 5.26 2.33c2.21-0.09 3.97-1.03 5.27-2.81s1.95-4.23 1.95-7.33c0-2.78-0.66-5.01-1.99-6.68s-3.09-2.46-5.28-2.37c-2.15 0.09-3.88 1.01-5.2 2.77s-1.98 4.22-1.98 7.4z"/>
<path class="cls-10" d="m1388.5 2591 0.12 2.81c1.87-2.27 4.38-3.46 7.55-3.6 3.56-0.15 5.98 1.11 7.27 3.77 0.85-1.25 1.95-2.28 3.31-3.09s2.96-1.25 4.81-1.33c5.58-0.23 8.42 2.59 8.52 8.48v16.99l-4.35 0.18v-16.73c0-1.81-0.42-3.15-1.25-4.01s-2.23-1.25-4.19-1.17c-1.62 0.07-2.96 0.6-4.02 1.61-1.07 1.01-1.69 2.33-1.86 3.96v16.83l-4.38 0.18v-16.62c0-3.69-1.81-5.46-5.43-5.3-2.86 0.12-4.81 1.41-5.86 3.88v18.52l-4.35 0.18v-25.36l4.12-0.17z"/>
<path class="cls-10" d="m1448.1 2601.4c0 3.86-0.89 7-2.66 9.44-1.77 2.43-4.17 3.71-7.2 3.84-3.09 0.13-5.52-0.75-7.29-2.62v12.21l-4.35 0.18v-35.11l3.98-0.17 0.21 2.8c1.77-2.26 4.23-3.46 7.39-3.59 3.06-0.13 5.48 0.92 7.26 3.14s2.67 5.38 2.67 9.47v0.4zm-4.35-0.31c0-2.86-0.61-5.09-1.84-6.7-1.22-1.61-2.9-2.36-5.04-2.27-2.63 0.11-4.61 1.36-5.93 3.74v12.12c1.3 2.26 3.29 3.33 5.97 3.22 2.08-0.09 3.74-0.98 4.97-2.68s1.85-4.17 1.85-7.42z"/>
<path class="cls-10" d="m1469.39,2612.96c-.25-.49-.46-1.37-.61-2.65-2.02,2.18-4.44,3.33-7.25,3.44-2.51.11-4.57-.52-6.17-1.86-1.61-1.35-2.41-3.11-2.41-5.28,0-2.64,1.01-4.73,3.02-6.28,2.02-1.54,4.85-2.39,8.5-2.55l4.23-.18v-1.99c0-1.52-.46-2.7-1.37-3.56-.91-.86-2.25-1.25-4.02-1.18-1.55.07-2.86.51-3.91,1.34s-1.57,1.79-1.57,2.9l-4.38.18c0-1.27.45-2.51,1.35-3.72.9-1.22,2.12-2.2,3.67-2.95,1.54-.75,3.24-1.17,5.09-1.25,2.93-.12,5.23.51,6.89,1.9s2.53,3.37,2.59,5.93v11.67c0,2.33.3,4.17.89,5.52v.38l-4.56.19Zm-7.22-3c1.36-.06,2.66-.46,3.88-1.22,1.22-.75,2.11-1.71,2.66-2.85v-5.2l-3.41.14c-5.33.22-8,1.89-8,5,0,1.36.46,2.4,1.37,3.13s2.08,1.06,3.51,1Z"/>
<path class="cls-10" d="m1485.78,2580.77v6.14l4.75-.2v3.35l-4.75.2v15.75c0,1.02.21,1.77.63,2.26.42.49,1.14.71,2.16.67.5-.02,1.19-.14,2.07-.37v3.5c-1.14.36-2.26.56-3.34.61-1.95.08-3.41-.44-4.4-1.57-.99-1.13-1.48-2.77-1.48-4.93v-15.73l-4.63.19v-3.35l4.63-.19v-6.14l4.35-.18Z"/>
<path class="cls-10" d="m1495.6 2579.8c0-0.7 0.22-1.31 0.65-1.81s1.07-0.77 1.92-0.81 1.49 0.18 1.93 0.65 0.66 1.05 0.66 1.75-0.22 1.3-0.66 1.79-1.08 0.75-1.93 0.78c-0.85 0.04-1.49-0.17-1.92-0.62s-0.65-1.03-0.65-1.73zm4.71 31.89-4.35 0.18v-25.36l4.35-0.18v25.36z"/>
<path class="cls-10" d="m1528.86,2598.07c0,3.88-.89,7.03-2.68,9.45-1.79,2.43-4.19,3.7-7.2,3.83-3.21.13-5.7-.89-7.46-3.09l-.21,2.94-4,.17v-36l4.35-.18v13.43c1.76-2.25,4.18-3.43,7.27-3.56,3.09-.13,5.52.93,7.28,3.19,1.76,2.25,2.64,5.41,2.64,9.45v.38Zm-4.35-.31c0-2.95-.57-5.21-1.72-6.77s-2.79-2.3-4.94-2.21c-2.87.12-4.93,1.54-6.19,4.24v10.97c1.33,2.6,3.41,3.84,6.23,3.72,2.08-.09,3.71-.96,4.87-2.62s1.74-4.1,1.74-7.34Z"/>
<path class="cls-10" d="m1539.1 2610-4.35 0.18v-36l4.35-0.18v36z"/>
<path class="cls-10" d="m1556.6 2609.8c-3.45 0.14-6.26-0.87-8.42-3.04s-3.25-5.14-3.25-8.92v-0.8c0-2.52 0.48-4.78 1.45-6.8 0.96-2.02 2.31-3.62 4.04-4.81s3.61-1.83 5.63-1.91c3.31-0.14 5.88 0.84 7.71 2.93 1.84 2.1 2.75 5.17 2.75 9.21v1.8l-17.24 0.72c0.06 2.5 0.79 4.49 2.2 5.97s3.19 2.17 5.35 2.08c1.54-0.06 2.84-0.43 3.91-1.1s2-1.54 2.8-2.6l2.66 1.95c-2.13 3.36-5.33 5.12-9.6 5.3zm-0.54-22.71c-1.76 0.07-3.23 0.77-4.42 2.09s-1.93 3.14-2.21 5.45l12.75-0.53v-0.33c-0.13-2.2-0.72-3.88-1.79-5.05s-2.51-1.71-4.33-1.63z"/>
<path class="cls-10" d="m1606.02,2601.26l4.89-19.59,4.35-.18-7.41,25.67-3.53.15-6.19-18.96-6.02,19.47-3.53.15-7.38-25.05,4.33-.18,5.01,18.77,5.93-19.23,3.51-.15,6.05,19.13Z"/>
<path class="cls-10" d="m1619.71,2574.58c0-.7.21-1.31.65-1.81.43-.5,1.07-.77,1.92-.81s1.49.18,1.93.65c.44.47.66,1.05.66,1.75s-.22,1.3-.66,1.79c-.44.49-1.08.75-1.93.78s-1.49-.17-1.92-.62c-.43-.45-.65-1.03-.65-1.73Zm4.71,31.89l-4.35.18v-25.36l4.35-.18v25.36Z"/>
<path class="cls-10" d="m1637.28,2574.43v6.14l4.75-.2v3.35l-4.75.2v15.75c0,1.02.21,1.77.63,2.26s1.14.71,2.16.67c.5-.02,1.19-.14,2.07-.37v3.5c-1.15.36-2.26.56-3.34.61-1.94.08-3.41-.44-4.4-1.57-.99-1.13-1.48-2.77-1.48-4.93v-15.73l-4.63.19v-3.35l4.63-.19v-6.14l4.35-.18Z"/>
<path class="cls-10" d="m1651.5 2583c1.93-2.44 4.44-3.72 7.53-3.85 5.38-0.23 8.09 2.68 8.14 8.73v16.76l-4.35 0.18v-16.78c-0.02-1.83-0.44-3.16-1.26-4s-2.11-1.22-3.85-1.15c-1.41 0.06-2.65 0.49-3.72 1.28s-1.9 1.81-2.49 3.06v18.07l-4.35 0.18v-36l4.35-0.18v13.71z"/>
</g>
</g>
<g class="cls-13">
<path class="cls-11" d="m2429.1 2572.9c-0.42 3.63-1.74 6.46-3.97 8.51s-5.19 3.15-8.88 3.3c-4 0.16-7.21-1.16-9.62-3.95s-3.62-6.61-3.62-11.46v-3.28c0-3.17 0.56-5.98 1.69-8.43s2.72-4.36 4.78-5.73 4.45-2.11 7.17-2.22c3.6-0.14 6.48 0.75 8.66 2.69 2.17 1.94 3.44 4.69 3.79 8.25l-4.49 0.18c-0.39-2.71-1.23-4.65-2.53-5.82-1.29-1.17-3.11-1.71-5.43-1.62-2.86 0.11-5.09 1.27-6.71 3.46s-2.43 5.25-2.43 9.17v3.31c0 3.71 0.77 6.62 2.3 8.75 1.54 2.13 3.68 3.14 6.45 3.03 2.48-0.1 4.39-0.74 5.71-1.93 1.33-1.19 2.21-3.19 2.64-6.02l4.49-0.18z"/>
<path class="cls-11" d="m2446.68,2561.52c-.65-.08-1.36-.11-2.12-.08-2.82.11-4.74,1.4-5.75,3.86v18l-4.31.17v-25.36l4.19-.17.07,2.93c1.41-2.32,3.41-3.54,6-3.64.84-.03,1.47.05,1.91.25v4.03Z"/>
<path class="cls-11" d="m2449 2570c0-2.48 0.48-4.74 1.45-6.76s2.32-3.61 4.05-4.76 3.7-1.76 5.92-1.85c3.43-0.14 6.2 0.95 8.32 3.25 2.12 2.31 3.18 5.44 3.18 9.41v0.3c0 2.47-0.47 4.7-1.41 6.7s-2.28 3.58-4.03 4.74c-1.74 1.16-3.75 1.79-6.02 1.88-3.41 0.14-6.18-0.95-8.3-3.25-2.12-2.31-3.18-5.43-3.18-9.37v-0.3zm4.33 0.34c0 2.81 0.65 5.04 1.94 6.7s3.03 2.43 5.2 2.35c2.19-0.09 3.93-1.02 5.21-2.8 1.29-1.78 1.93-4.22 1.93-7.33 0-2.78-0.65-5.01-1.96-6.68s-3.05-2.47-5.23-2.38c-2.12 0.08-3.84 1-5.14 2.76-1.3 1.75-1.96 4.22-1.96 7.39z"/>
<path class="cls-11" d="m2492.02,2574.45c0-1.17-.44-2.07-1.31-2.68-.88-.61-2.41-1.11-4.59-1.49s-3.91-.88-5.19-1.48c-1.28-.61-2.23-1.35-2.84-2.23-.61-.88-.92-1.95-.92-3.2,0-2.08.87-3.87,2.62-5.38,1.74-1.51,3.97-2.31,6.69-2.42,2.85-.11,5.17.54,6.95,1.95,1.78,1.41,2.67,3.28,2.67,5.59l-4.33.17c0-1.19-.5-2.19-1.5-3.01s-2.26-1.2-3.78-1.14c-1.57.06-2.79.46-3.68,1.18s-1.33,1.64-1.33,2.75c0,1.05.41,1.82,1.23,2.32s2.31.95,4.46,1.35,3.89.91,5.22,1.53c1.33.62,2.32,1.39,2.97,2.31.64.92.96,2.06.96,3.42,0,2.27-.9,4.12-2.7,5.56-1.8,1.44-4.13,2.22-7.01,2.33-2.02.08-3.8-.21-5.35-.86-1.55-.66-2.76-1.61-3.64-2.87-.88-1.25-1.31-2.63-1.31-4.13l4.31-.17c.08,1.45.65,2.58,1.73,3.39s2.5,1.18,4.27,1.11c1.63-.06,2.94-.45,3.92-1.15.98-.7,1.48-1.61,1.48-2.72Z"/>
<path class="cls-11" d="m2516.59,2573.47c0-1.17-.44-2.06-1.31-2.68s-2.41-1.11-4.59-1.49-3.91-.88-5.19-1.48c-1.28-.6-2.23-1.35-2.84-2.23s-.92-1.95-.92-3.2c0-2.08.88-3.87,2.62-5.38,1.75-1.51,3.98-2.32,6.69-2.42,2.85-.11,5.17.54,6.95,1.95,1.78,1.41,2.66,3.28,2.66,5.59l-4.33.17c0-1.19-.5-2.19-1.5-3.01-1-.82-2.26-1.2-3.78-1.14-1.57.06-2.79.46-3.68,1.18-.88.72-1.33,1.64-1.33,2.75,0,1.05.41,1.82,1.23,2.32.82.5,2.31.95,4.46,1.34,2.15.4,3.89.91,5.23,1.53,1.33.62,2.32,1.39,2.97,2.31.64.92.97,2.06.97,3.42,0,2.27-.9,4.12-2.7,5.56-1.8,1.44-4.13,2.22-7,2.33-2.02.08-3.8-.21-5.35-.86-1.55-.66-2.77-1.61-3.64-2.87-.88-1.25-1.31-2.63-1.31-4.13l4.3-.17c.08,1.45.66,2.58,1.73,3.39s2.5,1.18,4.27,1.11c1.63-.07,2.94-.45,3.92-1.15.99-.7,1.48-1.61,1.48-2.72Z"/>
<path class="cls-11" d="m2559.6 2566.1c0 3.86-0.88 7-2.63 9.43s-4.13 3.7-7.12 3.82c-3.06 0.12-5.46-0.76-7.21-2.64v12.21l-4.31 0.17v-35.11l3.93-0.16 0.21 2.8c1.75-2.26 4.19-3.45 7.31-3.57 3.03-0.12 5.42 0.93 7.18 3.16s2.64 5.39 2.64 9.48v0.4zm-4.31-0.32c0-2.86-0.61-5.09-1.81-6.7-1.21-1.61-2.87-2.37-4.98-2.29-2.61 0.1-4.56 1.35-5.87 3.73v12.12c1.29 2.26 3.26 3.34 5.91 3.23 2.06-0.08 3.7-0.97 4.92-2.67s1.83-4.17 1.83-7.42z"/>
<path class="cls-11" d="m2569.7 2578.1-4.31 0.17v-36l4.31-0.17v36z"/>
<path class="cls-11" d="m2592.2 2577.2c-0.25-0.49-0.45-1.37-0.61-2.65-2 2.17-4.39 3.32-7.17 3.43-2.48 0.1-4.52-0.53-6.11-1.88s-2.38-3.11-2.38-5.28c0-2.64 1-4.73 2.99-6.27s4.8-2.38 8.41-2.53l4.19-0.17v-1.99c0-1.52-0.45-2.7-1.35-3.57-0.9-0.86-2.23-1.26-3.98-1.19-1.54 0.06-2.82 0.5-3.86 1.33-1.04 0.82-1.56 1.79-1.56 2.9l-4.33 0.17c0-1.27 0.45-2.51 1.34-3.72 0.89-1.22 2.1-2.2 3.63-2.95s3.21-1.16 5.04-1.23c2.9-0.12 5.18 0.52 6.82 1.92s2.5 3.37 2.56 5.93v11.67c0 2.33 0.29 4.17 0.89 5.52v0.38l-4.52 0.18zm-7.15-3.02c1.35-0.05 2.63-0.46 3.84-1.21s2.09-1.7 2.63-2.85v-5.2l-3.37 0.13c-5.28 0.21-7.91 1.87-7.91 4.98 0 1.36 0.45 2.4 1.35 3.13s2.05 1.07 3.47 1.01z"/>
<path class="cls-11" d="m2608.38,2545.03v6.14l4.7-.19v3.35l-4.7.19v15.75c0,1.02.21,1.77.63,2.26.42.49,1.13.72,2.14.68.5-.02,1.18-.14,2.05-.36v3.5c-1.13.36-2.23.55-3.3.6-1.93.08-3.38-.45-4.35-1.58-.98-1.13-1.46-2.78-1.46-4.93v-15.73l-4.59.18v-3.35l4.59-.18v-6.14l4.3-.17Z"/>
<path class="cls-11" d="m2620.23,2576.06v-22.01l-3.98.16v-3.35l3.98-.16v-2.6c0-2.72.72-4.85,2.17-6.39,1.44-1.54,3.48-2.37,6.12-2.47.99-.04,1.98.05,2.96.28l-.23,3.5c-.73-.11-1.5-.15-2.33-.12-1.4.06-2.47.51-3.23,1.36-.76.85-1.14,2.05-1.14,3.58v2.68l5.38-.21v3.35l-5.38.21v22.01l-4.31.17Z"/>
<path class="cls-11" d="m2633.5 2562.6c0-2.48 0.49-4.74 1.46-6.76s2.32-3.61 4.05-4.76 3.7-1.76 5.92-1.85c3.43-0.14 6.2 0.95 8.32 3.25 2.12 2.31 3.18 5.44 3.18 9.41v0.3c0 2.47-0.47 4.7-1.41 6.7s-2.28 3.58-4.03 4.74c-1.74 1.16-3.75 1.79-6.02 1.88-3.41 0.14-6.18-0.95-8.3-3.25-2.12-2.31-3.18-5.43-3.18-9.37v-0.3zm4.33 0.34c0 2.81 0.65 5.04 1.94 6.7 1.29 1.65 3.03 2.43 5.2 2.35 2.19-0.09 3.93-1.02 5.21-2.8 1.29-1.78 1.93-4.22 1.93-7.33 0-2.78-0.65-5.01-1.96-6.68s-3.05-2.47-5.23-2.38c-2.12 0.08-3.84 1-5.14 2.76-1.3 1.75-1.96 4.22-1.96 7.39z"/>
<path class="cls-11" d="m2674.01,2552.44c-.65-.08-1.36-.11-2.12-.08-2.82.11-4.74,1.4-5.75,3.86v18l-4.31.17v-25.36l4.19-.17.07,2.93c1.41-2.32,3.41-3.54,6-3.64.84-.03,1.47.05,1.91.25v4.03Z"/>
<path class="cls-11" d="m2682 2548.2 0.12 2.81c1.85-2.26 4.34-3.45 7.47-3.58 3.52-0.14 5.92 1.12 7.19 3.79 0.84-1.25 1.93-2.28 3.27-3.08s2.93-1.24 4.76-1.32c5.52-0.22 8.33 2.61 8.42 8.5v16.99l-4.3 0.17v-16.73c0-1.81-0.41-3.15-1.23-4.02s-2.21-1.26-4.14-1.18c-1.6 0.06-2.92 0.6-3.98 1.6s-1.67 2.32-1.84 3.95v16.83l-4.33 0.17v-16.62c0-3.69-1.79-5.46-5.38-5.32-2.83 0.11-4.76 1.4-5.8 3.86v18.52l-4.3 0.17v-25.36l4.07-0.16z"/>
</g>
<path class="cls-11" d="m1082.9 2965.5 1064.9-49.6s89.8 4 139.4-130 52.3-138.1 213.1-143.4c160.9-5.4 393-14.7 393-14.7v357.3l-1810.4 95.8v-115.4z"/>
<ellipse class="cls-12" transform="translate(-1709.1 2940.9) rotate(-66)" cx="1410" cy="2786.4" rx="89" ry="84.6" data-name="Android Circle"/>
<path class="cls-10" d="m1372.92,2768.9c-1.8.1-3.3.8-4.5,2.1-1.3,1.3-1.9,2.9-1.9,4.7l-.1,27.7c0,1.8.6,3.4,1.9,4.6,1.2,1.2,2.8,1.8,4.5,1.8,1.8-.1,3.3-.8,4.5-2.1,1.2-1.3,1.8-2.9,1.9-4.8l.1-27.7c0-1.8-.6-3.3-1.9-4.6-1.3-1.2-2.8-1.8-4.5-1.7Z"/>
<path class="cls-10" d="m1435.12,2751.8c-2.6-4.1-6.2-7.3-10.6-9.5l4.4-8.6c.3-.6.2-1-.3-1.3-.5-.2-1-.1-1.2.4l-4.5,8.6c-3.9-1.7-8.1-2.4-12.5-2.3-4.4.2-8.6,1.2-12.5,3.1l-4.5-8.3c-.3-.5-.7-.6-1.2-.3s-.6.7-.3,1.3l4.4,8.3c-4.5,2.5-8.1,5.9-10.7,10.3-2.7,4.3-4,9-4,14l57.6-2c-.1-5-1.4-9.6-4.1-13.7Zm-36.2,3.6c-.5.5-1,.8-1.7.8s-1.2-.2-1.7-.7-.7-1-.7-1.7.2-1.3.7-1.8c.4-.5,1-.8,1.7-.8s1.2.2,1.7.7.7,1.1.7,1.7c0,.7-.2,1.3-.7,1.8Zm26.3-.9c-.5.5-1,.8-1.7.8s-1.2-.2-1.7-.7-.7-1-.7-1.7.2-1.3.7-1.8,1-.8,1.7-.8,1.2.2,1.7.7c.4.5.7,1.1.7,1.7s-.3,1.3-.7,1.8Z"/>
<path class="cls-10" d="m1381.52,2812.7c0,2,.6,3.6,2,5,1.3,1.3,2.9,2,4.8,1.9l4.6-.2v14.6c0,1.8.6,3.4,1.9,4.6,1.2,1.2,2.7,1.8,4.5,1.8,1.8-.1,3.3-.8,4.6-2.1,1.2-1.3,1.9-2.9,1.9-4.8l.1-14.6,8.6-.3-.1,14.6c0,1.8.6,3.4,1.9,4.6,1.2,1.2,2.8,1.8,4.5,1.8,1.8-.1,3.3-.8,4.5-2.1,1.3-1.3,1.9-2.9,1.9-4.8l.1-14.6,4.7-.2c1.9-.1,3.5-.8,4.8-2.2,1.3-1.4,2-3.1,2-5.1l.2-42.9-57.2,2-.3,43Z"/>
<path class="cls-10" d="m1452.22,2768c-1.2-1.2-2.8-1.8-4.5-1.7s-3.2.7-4.5,2.1c-1.3,1.3-1.9,2.9-1.9,4.7l-.1,27.7c0,1.8.6,3.4,1.9,4.6,1.2,1.2,2.7,1.8,4.5,1.8,1.8-.1,3.3-.8,4.6-2.1,1.3-1.3,1.9-2.9,1.9-4.8l.1-27.7c-.1-1.8-.7-3.3-2-4.6Z"/>
<ellipse class="cls-12" transform="translate(-1565.5 3146.1) rotate(-66)" cx="1639.8" cy="2778.5" rx="89" ry="84.6" data-name="Windows Circle"/>
<path class="cls-10" d="m1599.22,2811.8l33.2,3.6.1-32.8-33.2,1.2-.1,28Z"/>
<path class="cls-10" d="m1599.3 2779.6 33.2-1.2 0.1-33.2-33.3 5.9v28.5z"/>
<path class="cls-10" d="m1636 2815.8 44.2 4.8 0.1-39.6-44.2 1.5-0.1 33.3z"/>
<path class="cls-10" d="m1636.32,2744.6l-.1,33.7,44.2-1.5.1-40-44.2,7.8Z"/>
<ellipse class="cls-12" transform="translate(-1422.1 3351.1) rotate(-66)" cx="1869.3" cy="2770.6" rx="89" ry="84.6" data-name="Apple Circle"/>
<path class="cls-10" d="m1835.12,2753.9c-8,14.5-3,36,5.7,48.8,4.4,6.4,8.8,12.1,14.9,11.9h.3c2.9-.2,4.9-1.2,6.9-2.1,2.2-1.1,4.6-2.2,8.2-2.3,3.5-.1,5.7.8,7.8,1.7,2.1.9,4.3,1.8,7.5,1.6,6.9-.4,11.1-6.9,14.8-12.6,3.9-6,5.9-11.7,6.5-13.9v-.1c.1-.4,0-.8-.4-1h-.1c-1.2-.5-11.8-5-11.8-18.2-.1-10.7,8-16.7,9.6-17.8l.1-.1c.2-.1.3-.3.3-.5s0-.4-.1-.6c-5.5-8.2-14-9.2-17.5-9.2h-1.5c-4,.1-7.9,1.8-11,3.2-2.1.9-4,1.8-5.3,1.8-1.4,0-3.3-.6-5.4-1.5-2.9-1.1-6.1-2.3-9.6-2.2h-.2c-7.9.4-15.5,5.4-19.7,13.1h0Z"/>
<path class="cls-10" d="m1888.02,2716.4c-4.9.4-10.7,3.7-14.2,8-3,3.6-5.9,9.7-5.1,15.6,0,.4.3.6.7.7h1c4.8-.2,9.9-3.1,13.4-7.6,3.7-4.7,5.6-10.7,5-16,0-.5-.4-.8-.8-.7h0Z" data-name="Apple Leaf"/>
<g data-name="Shield Front">
<path class="cls-5" d="m1786.5 260.7v128.3c-34.5 0-62.4 27.8-62.4 62.2 0 21.5 10.9 40.3 27.6 51.5v60.8h34.9v162.5c-220.6-82.8-227.4-367.5-227.4-367.5l227.3-97.8z"/>
<path class="cls-3" d="m1786.5 260.7v128.3c34.5 0 62.4 27.8 62.4 62.2 0 21.5-10.9 40.3-27.6 51.5v60.8h-34.9v162.5c220.6-82.8 227.4-367.4 227.4-367.4l-227.3-97.9z"/>
</g>
<path class="cls-4" d="m1796.32,856h-.9c-3.4,14.4-7.2,31.1-11,44.9l-.7,2.2-2.7,10.4,28,.5-2.3-10.5c-3.5-14.3-6.9-32.5-10.4-47.5Zm280-11.5h-.9c-4.7,16.2-9.5,31.7-15,47.3l-1.3,3.9-7.7,23.2,46.5.9-6.8-23.5c-5.5-17.1-10.2-34.1-14.8-51.8Zm-546,8.3c-18.2-.3-29.7,15.1-30.2,42.3-.5,27.1,10.3,44.4,28.5,44.8,18.2.3,29.7-16.5,30.2-43.6.6-27.3-10.3-43.2-28.5-43.5Zm-78.6-32.9l-.6,33.1-40.2-.8-2.2,116.5-40-.8,2.2-116.5-40.2-.8.6-33.1,120.4,2.4Zm281.2,5.3l-.6,33.1-40.2-.8-2.2,116.5-40-.8,2.2-116.5-40.2-.8.6-33.1,120.4,2.4Zm88.7,1.7l43.4,150.5-42.4-.8-6.8-31.9-42.4-.8-8,31.6-41.1-.8,48.9-148.7,48.4.9Zm100.7,1.9l-2.2,116.5,57.4,1.1-.6,33.1-97.4-1.9,2.8-149.7,40,.9h0Zm165.4,0l49.4,153.8-21-.4-13.8-46.9-56.4-1.1-15.7,46.3-20.1-.4,55.3-151.8,22.3.5Zm80.2,1.6l23.2,83c5.3,18.3,8.5,32.8,14.1,50.9h.9c6-17.8,10-32.2,15.8-50.3l26.3-82,20.1.4-52,151.9-22.8-.4-46.8-153.9,21.2.4Zm-636.9-11.7c41.9.8,69.9,29.2,69,78.2-.9,49.2-30,77.7-71.9,76.9-41.9-.8-69.9-30.3-68.9-79.6.8-49.2,29.8-76.2,71.8-75.5Z" data-name="Total AV Front"/>
<path class="cls-8" d="m2491.6 2798.1c0 1.6-1.3 2.9-2.9 3s-2.9-1.2-2.9-2.8 1.3-2.9 2.9-3c1.6 0 2.9 1.3 2.9 2.8z"/>
<path class="cls-8" d="m2653.2 2792.8c0 1.6-1.3 2.9-2.9 3s-2.9-1.2-2.9-2.8 1.3-2.9 2.9-3 2.9 1.2 2.9 2.8z"/>
<path class="cls-8" d="m2756.6 2776.3c0 1.6-1.3 2.9-2.9 3s-2.9-1.2-2.9-2.8 1.3-2.9 2.9-3c1.6 0 2.9 1.2 2.9 2.8z"/>
<path class="cls-8" d="m2548.52,2704.2l-119.5,4c-10.8.4-19.6,9.5-19.6,20.3v73.5c0,10.8,8.8,19.4,19.6,19l37.2-1.2-8.1,14.1c-1.2,2.1-1.2,4.6,0,6.7,1.2,2.1,3.4,3.3,5.8,3.2l49.8-1.7c2.4-.1,4.6-1.4,5.8-3.6,1.2-2.1,1.2-4.6,0-6.7l-8.1-13.5,37.2-1.2c10.8-.4,19.6-9.5,19.6-20.3v-73.5c-.1-11-8.9-19.5-19.7-19.1Zm-33.2,130c.5.9.2,1.7,0,2s-.7,1-1.7,1.1l-49.8,1.7c-1.1,0-1.6-.7-1.7-1-.2-.3-.5-1.1,0-2l9.5-16.5,34.2-1.1,9.5,15.8Zm48.1-37.4c0,8.2-6.7,15.2-14.9,15.4l-119.5,4c-8.2.3-14.9-6.2-14.9-14.4v-73.5c0-8.2,6.7-15.2,14.9-15.4l119.5-4c8.2-.3,14.9,6.2,14.9,14.4v73.5Z"/>
<path class="cls-8" d="m2672.22,2697.4l-43.7,1.5c-9.2.3-16.6,8-16.6,17.2v84.8c0,9.2,7.4,16.4,16.6,16.1l43.7-1.5c9.2-.3,16.6-8,16.6-17.2v-84.8c0-9.1-7.5-16.4-16.6-16.1Zm11.9,101c0,6.6-5.3,12.1-11.9,12.3l-43.7,1.5c-6.6.2-11.9-5-11.9-11.5v-84.8c0-6.6,5.3-12.1,11.9-12.3l43.7-1.5c6.6-.2,11.9,5,11.9,11.5v84.8Z"/>
<path class="cls-8" d="m2761.02,2714l-14.7.5c-7.6.3-13.8,6.6-13.8,14.3v51.3c0,7.6,6.2,13.6,13.8,13.3l14.7-.5c7.6-.3,13.8-6.6,13.8-14.3v-51.3c0-7.5-6.1-13.5-13.8-13.3Zm9.1,64.9c0,5-4.1,9.2-9.1,9.4l-14.7.5c-5,.2-9.1-3.8-9.1-8.8v-51.3c0-5,4.1-9.2,9.1-9.4l14.7-.5c5-.2,9.1,3.8,9.1,8.8v51.3Z"/>
<polygon class="cls-1" points="1082.9 3080.8 812.62 2947.3 812.62 130.7 1082.9 0.7" data-name="Side Base"/>
<polygon class="cls-9" points="1082.9 2965.5 812.62 2849.4 812.62 2947.3 1082.9 3080.8" data-name="Side Tab"/>
<path class="cls-4" d="m960.82 1020.9v-0.5c-4.5-0.7-9.6-1.4-13.8-2.4l-0.7-0.1-3.2-0.7v15.3l3.2-2.1c4.4-3.1 10-6.4 14.5-9.5zm5.3 151.4v-0.5c-5-1.3-9.7-2.6-14.6-4.3l-1.2-0.4-7.1-2.4v25.4l7.1-5.5c5.1-4.4 10.3-8.4 15.8-12.3zm-5.8-296.4c0-9.9-4.7-15-13.2-13-8.3 1.8-13.6 9.2-13.6 19.1s5.3 14.9 13.6 13c8.5-2 13.2-9.1 13.2-19.1zm9.6-45.4-10.1 2.2v-21.8l-35.7 8v-21.8l35.7-8v-21.8l10.1-2.2v65.4zm0 153.5-10.1 2.2v-21.8l-35.7 8v-21.8l35.7-8v-21.9l10.1-2.2v65.5zm0 48.4-45.9 35.5v-23.2l9.7-6.3v-23.2l-9.7-1.8v-22.4l45.9 14.9v26.5zm0 54.9-35.7 8v31.3l-10.1 2.2v-53.1l45.9-10.3v21.8l-0.1 0.1zm1 90-46.8 39.1v-11.4l14.3-11.2v-30.8l-14.3-4.9v-10.9l46.8 18v12.1zm0 43.8-25.3 19.2c-5.5 4.3-10 7.2-15.5 11.7v0.5c5.5 1.8 9.9 2.9 15.5 4.6l25.3 7.9v10.9l-46.8-16.3v-12.5l46.8-37.5v11.5zm-0.1-347.4c0 22.9-8.6 40.4-23.6 43.7-15.1 3.4-23.9-10.1-23.9-33s8.9-40.4 23.9-43.8c15.1-3.5 23.6 10.2 23.6 33.1z" data-name="Total AV Side"/>
<g data-name="Shield Side Rotated">
<path class="cls-5" d="m990.22 525.1-25.9 13.2c0-18.8-5.7-31.2-12.5-27.6-4.3 2.2-8.2 10.1-10.4 20.4l-12.2 6.3v19.1l-32.8 16.7c16.7-129 74.1-161.9 74.1-161.9l19.7 113.8z"/>
<path class="cls-3" d="m990.22 525.1-25.9 13.2c0 18.8-5.7 37-12.5 40.4-4.3 2.2-8.2-1.8-10.4-9.7l-12.2 6.3v-19.1l-32.8 16.7c16.7 111.8 74.1 86.2 74.1 86.2l19.7-134z"/>
</g>
<g data-name="Shield Side">
<path class="cls-5" d="m939.72 2546.2v32.8c-3.5-1.3-6.4 4.7-6.4 13.5 0 5.5 1.1 10.7 2.8 14.2v15.5l3.6 1.3v41.6c-22.5-29.7-23.2-102.7-23.2-102.7l23.2-16.2z"/>
<path class="cls-3" d="m939.72 2546.2v32.8c3.5 1.3 6.4 9.5 6.4 18.3 0 5.5-1.1 9.9-2.8 12.1v15.5l-3.6-1.3v41.6c22.5-12.7 23.2-85.3 23.2-85.3l-23.2-33.7z"/>
</g>
<g data-name="Antivirus Pro">
<g class="cls-13">
<path class="cls-10" d="m1347.4 2071.7h-18.17l-4.08 11.35h-5.9l16.56-43.37h5l16.59 43.37h-5.87l-4.14-11.35zm-16.44-4.68h14.74l-7.39-20.28-7.36 20.28z"/>
<path class="cls-10" d="m1390 2075.4 6.2-24.63h5.51l-9.38 32.23h-4.47l-7.83-24.42-7.62 24.42h-4.47l-9.35-32.23h5.48l6.34 24.13 7.51-24.13h4.44l7.65 24.63z"/>
<path class="cls-10" d="m1427.2 2083c-0.32-0.64-0.58-1.77-0.77-3.4-2.56 2.66-5.62 3.99-9.17 3.99-3.18 0-5.78-0.9-7.82-2.7s-3.05-4.08-3.05-6.84c0-3.36 1.28-5.96 3.83-7.82s6.14-2.79 10.77-2.79h5.36v-2.53c0-1.93-0.58-3.46-1.73-4.6s-2.85-1.71-5.09-1.71c-1.97 0-3.61 0.5-4.94 1.49s-2 2.19-2 3.6h-5.54c0-1.61 0.57-3.16 1.71-4.66s2.69-2.69 4.65-3.56 4.11-1.31 6.45-1.31c3.71 0 6.62 0.93 8.73 2.79 2.1 1.86 3.2 4.41 3.28 7.67v14.83c0 2.96 0.38 5.31 1.13 7.06v0.48h-5.78zm-9.14-4.2c1.73 0 3.37-0.45 4.92-1.34s2.67-2.06 3.37-3.49v-6.61h-4.32c-6.75 0-10.13 1.98-10.13 5.93 0 1.73 0.58 3.08 1.73 4.05s2.63 1.46 4.44 1.46z"/>
<path class="cls-10" d="m1456.01,2055.74c-.83-.14-1.74-.21-2.71-.21-3.61,0-6.07,1.54-7.36,4.62v22.88h-5.51v-32.23h5.36l.09,3.72c1.81-2.88,4.37-4.32,7.68-4.32,1.07,0,1.89.14,2.44.42v5.12Z"/>
<path class="cls-10" d="m1459.7 2066.6c0-4.94 1.17-8.92 3.51-11.93s5.41-4.51 9.2-4.51 6.76 1.29 8.97 3.87v-16.8h5.51v45.75h-5.06l-0.27-3.46c-2.2 2.7-5.27 4.05-9.2 4.05s-6.78-1.53-9.13-4.59-3.53-7.05-3.53-11.97v-0.42zm5.51 0.63c0 3.65 0.75 6.51 2.26 8.58 1.51 2.06 3.59 3.1 6.25 3.1 3.5 0 6.05-1.57 7.66-4.71v-14.8c-1.65-3.04-4.18-4.56-7.6-4.56-2.7 0-4.81 1.04-6.31 3.13s-2.26 5.17-2.26 9.26z"/>
<path class="cls-10" d="m1506.9 2066.8h-14.54v-4.5h14.54v4.5z"/>
<path class="cls-10" d="m1540.8 2075.4 6.2-24.63h5.51l-9.38 32.23h-4.47l-7.83-24.42-7.62 24.42h-4.47l-9.35-32.23h5.48l6.34 24.13 7.51-24.13h4.44l7.65 24.63z"/>
<path class="cls-10" d="m1558.17,2042.25c0-.89.27-1.65.82-2.26.55-.62,1.36-.92,2.43-.92s1.89.31,2.44.92c.56.62.83,1.37.83,2.26s-.28,1.64-.83,2.23c-.56.6-1.37.89-2.44.89s-1.88-.3-2.43-.89-.82-1.34-.82-2.23Zm5.96,40.78h-5.51v-32.23h5.51v32.23Z"/>
<path class="cls-10" d="m1578.2 2050.8 0.18 4.05c2.46-3.1 5.68-4.65 9.65-4.65 6.81 0 10.25 3.84 10.31 11.53v21.3h-5.51v-21.33c-0.02-2.32-0.55-4.04-1.59-5.15s-2.67-1.67-4.87-1.67c-1.79 0-3.36 0.48-4.71 1.43s-2.4 2.2-3.16 3.75v22.96h-5.51v-32.23h5.21z"/>
<path class="cls-10" d="m1611.8 2050.8 0.18 4.05c2.46-3.1 5.68-4.65 9.65-4.65 6.81 0 10.25 3.84 10.31 11.53v21.3h-5.51v-21.33c-0.02-2.32-0.55-4.04-1.59-5.15s-2.67-1.67-4.87-1.67c-1.79 0-3.36 0.48-4.71 1.43s-2.4 2.2-3.16 3.75v22.96h-5.51v-32.23h5.21z"/>
<path class="cls-10" d="m1640.29,2042.25c0-.89.27-1.65.82-2.26.55-.62,1.36-.92,2.43-.92s1.89.31,2.44.92c.56.62.83,1.37.83,2.26s-.28,1.64-.83,2.23-1.37.89-2.44.89-1.88-.3-2.43-.89c-.55-.6-.82-1.34-.82-2.23Zm5.96,40.78h-5.51v-32.23h5.51v32.23Z"/>
<path class="cls-10" d="m1660.3 2050.8 0.18 4.05c2.46-3.1 5.68-4.65 9.65-4.65 6.81 0 10.25 3.84 10.31 11.53v21.3h-5.51v-21.33c-0.02-2.32-0.55-4.04-1.59-5.15s-2.67-1.67-4.87-1.67c-1.79 0-3.36 0.48-4.71 1.43s-2.4 2.2-3.16 3.75v22.96h-5.51v-32.23h5.21z"/>
<path class="cls-10" d="m1687.4 2066.6c0-5.02 1.16-9.02 3.48-11.99s5.4-4.45 9.23-4.45 7 1.39 9.2 4.17l0.27-3.57h5.03v31.45c0 4.17-1.24 7.46-3.71 9.86s-5.79 3.6-9.96 3.6c-2.32 0-4.6-0.5-6.82-1.49s-3.92-2.35-5.09-4.08l2.86-3.31c2.36 2.92 5.25 4.38 8.67 4.38 2.68 0 4.77-0.75 6.27-2.26s2.25-3.63 2.25-6.38v-2.77c-2.2 2.54-5.21 3.81-9.03 3.81s-6.83-1.52-9.16-4.56-3.5-7.18-3.5-12.42zm5.54 0.63c0 3.63 0.74 6.49 2.23 8.56 1.49 2.08 3.57 3.11 6.25 3.11 3.47 0 6.03-1.58 7.66-4.74v-14.71c-1.69-3.08-4.22-4.62-7.6-4.62-2.68 0-4.78 1.04-6.28 3.13-1.51 2.08-2.26 5.17-2.26 9.26z"/>
<path class="cls-10" d="m1762.9 2071.7h-18.17l-4.08 11.35h-5.9l16.56-43.37h5l16.59 43.37h-5.87l-4.14-11.35zm-16.44-4.68h14.74l-7.39-20.28-7.36 20.28z"/>
<path class="cls-10" d="m1783 2050.8 0.18 4.05c2.46-3.1 5.68-4.65 9.65-4.65 6.81 0 10.25 3.84 10.31 11.53v21.3h-5.51v-21.33c-0.02-2.32-0.55-4.04-1.59-5.15s-2.67-1.67-4.87-1.67c-1.79 0-3.36 0.48-4.71 1.43s-2.4 2.2-3.16 3.75v22.96h-5.51v-32.23h5.21z"/>
<path class="cls-10" d="m1818.97,2043v7.8h6.02v4.26h-6.02v20.01c0,1.29.27,2.26.8,2.91.54.65,1.45.97,2.74.97.64,0,1.51-.12,2.62-.36v4.44c-1.45.39-2.86.59-4.23.59-2.46,0-4.32-.74-5.57-2.23-1.25-1.49-1.88-3.6-1.88-6.34v-19.99h-5.87v-4.26h5.87v-7.8h5.51Z"/>
<path class="cls-10" d="m1831.45,2042.25c0-.89.27-1.65.82-2.26.55-.62,1.36-.92,2.43-.92s1.89.31,2.44.92c.56.62.83,1.37.83,2.26s-.28,1.64-.83,2.23-1.37.89-2.44.89-1.88-.3-2.43-.89-.82-1.34-.82-2.23Zm5.96,40.78h-5.51v-32.23h5.51v32.23Z"/>
<path class="cls-10" d="m1856.9 2075.6 7.98-24.75h5.63l-11.56 32.23h-4.2l-11.68-32.23h5.63l8.19 24.75z"/>
<path class="cls-10" d="m1875.8,2042.25c0-.89.27-1.65.82-2.26.55-.62,1.36-.92,2.43-.92s1.89.31,2.44.92c.56.62.83,1.37.83,2.26s-.28,1.64-.83,2.23-1.37.89-2.44.89-1.88-.3-2.43-.89-.82-1.34-.82-2.23Zm5.96,40.78h-5.51v-32.23h5.51v32.23Z"/>
<path class="cls-10" d="m1906.16,2055.74c-.83-.14-1.74-.21-2.71-.21-3.61,0-6.07,1.54-7.36,4.62v22.88h-5.51v-32.23h5.36l.09,3.72c1.81-2.88,4.37-4.32,7.68-4.32,1.07,0,1.89.14,2.44.42v5.12Z"/>
<path class="cls-10" d="m1931.1 2079.8c-2.14 2.52-5.29 3.78-9.44 3.78-3.44 0-6.05-1-7.85-2.99-1.8-2-2.71-4.95-2.73-8.86v-20.97h5.51v20.82c0 4.88 1.99 7.33 5.96 7.33 4.21 0 7.01-1.57 8.4-4.71v-23.44h5.51v32.23h-5.24l-0.12-3.19z"/>
<path class="cls-10" d="m1963.6 2074.5c0-1.49-0.56-2.65-1.68-3.47s-3.08-1.53-5.87-2.13-5-1.31-6.64-2.14-2.85-1.83-3.63-2.98c-0.79-1.15-1.18-2.52-1.18-4.11 0-2.64 1.12-4.88 3.35-6.7 2.23-1.83 5.09-2.74 8.56-2.74 3.65 0 6.62 0.94 8.89 2.83s3.41 4.3 3.41 7.24h-5.54c0-1.51-0.64-2.81-1.92-3.9s-2.89-1.64-4.84-1.64-3.57 0.44-4.71 1.31-1.7 2.02-1.7 3.42c0 1.33 0.53 2.33 1.58 3.01s2.95 1.32 5.7 1.94 4.98 1.35 6.69 2.2 2.97 1.88 3.8 3.08c0.82 1.2 1.24 2.67 1.24 4.39 0 2.88-1.15 5.19-3.46 6.92-2.3 1.74-5.29 2.61-8.97 2.61-2.58 0-4.87-0.46-6.85-1.37s-3.54-2.19-4.66-3.83-1.68-3.41-1.68-5.32h5.51c0.1 1.85 0.84 3.31 2.22 4.39s3.2 1.62 5.47 1.62c2.08 0 3.76-0.42 5.02-1.27 1.26-0.84 1.89-1.97 1.89-3.38z"/>
<path class="cls-10" d="m1998 2066v16.98h-5.72v-43.37h16c4.75 0 8.46 1.21 11.15 3.63s4.04 5.63 4.04 9.62c0 4.21-1.32 7.45-3.95 9.73-2.63 2.27-6.4 3.41-11.3 3.41h-10.22zm0-4.68h10.28c3.06 0 5.4-0.72 7.03-2.16s2.44-3.53 2.44-6.25-0.81-4.65-2.44-6.21-3.86-2.36-6.7-2.42h-10.6v17.04z"/>
<path class="cls-10" d="m2045.46,2055.74c-.83-.14-1.74-.21-2.71-.21-3.61,0-6.07,1.54-7.36,4.62v22.88h-5.51v-32.23h5.36l.09,3.72c1.81-2.88,4.37-4.32,7.68-4.32,1.07,0,1.89.14,2.44.42v5.12Z"/>
<path class="cls-10" d="m2048.5 2066.6c0-3.16 0.62-6 1.86-8.52s2.97-4.47 5.18-5.84 4.74-2.06 7.58-2.06c4.39 0 7.94 1.52 10.65 4.56s4.07 7.08 4.07 12.12v0.39c0 3.14-0.6 5.95-1.8 8.44s-2.92 4.43-5.15 5.82-4.8 2.08-7.7 2.08c-4.37 0-7.91-1.52-10.62-4.56s-4.07-7.06-4.07-12.06v-0.39zm5.54 0.66c0 3.57 0.83 6.44 2.49 8.61s3.88 3.25 6.66 3.25 5.02-1.1 6.67-3.29 2.47-5.27 2.47-9.22c0-3.53-0.84-6.4-2.52-8.59s-3.91-3.29-6.69-3.29-4.92 1.08-6.58 3.25c-1.67 2.16-2.5 5.26-2.5 9.29z"/>
<path class="cls-10" d="m2092.19,2043v7.8h6.02v4.26h-6.02v20.01c0,1.29.27,2.26.8,2.91.54.65,1.45.97,2.74.97.64,0,1.51-.12,2.62-.36v4.44c-1.45.39-2.86.59-4.23.59-2.46,0-4.32-.74-5.57-2.23-1.25-1.49-1.88-3.6-1.88-6.34v-19.99h-5.87v-4.26h5.87v-7.8h5.51Z"/>
<path class="cls-10" d="m2118 2083.6c-4.37 0-7.92-1.43-10.66-4.3s-4.11-6.71-4.11-11.51v-1.01c0-3.2 0.61-6.05 1.83-8.56s2.93-4.48 5.12-5.9 4.57-2.13 7.13-2.13c4.19 0 7.45 1.38 9.77 4.14s3.49 6.71 3.49 11.86v2.29h-21.83c0.08 3.18 1.01 5.74 2.79 7.7s4.04 2.93 6.78 2.93c1.95 0 3.59-0.4 4.94-1.19s2.53-1.85 3.54-3.16l3.37 2.62c-2.7 4.15-6.75 6.22-12.15 6.22zm-0.68-28.89c-2.22 0-4.09 0.81-5.6 2.43s-2.44 3.89-2.8 6.81h16.14v-0.42c-0.16-2.8-0.91-4.97-2.26-6.51s-3.18-2.31-5.48-2.31z"/>
<path class="cls-10" d="m2149.9 2079.1c1.97 0 3.68-0.6 5.15-1.79s2.28-2.68 2.44-4.47h5.21c-0.1 1.85-0.73 3.6-1.91 5.27s-2.74 3-4.69 3.99-4.03 1.49-6.21 1.49c-4.39 0-7.88-1.46-10.47-4.39s-3.89-6.93-3.89-12.02v-0.92c0-3.14 0.58-5.93 1.73-8.37s2.8-4.34 4.96-5.69 4.7-2.03 7.64-2.03c3.61 0 6.62 1.08 9.01 3.25 2.39 2.16 3.67 4.97 3.83 8.43h-5.21c-0.16-2.08-0.95-3.8-2.37-5.14s-3.17-2.01-5.26-2.01c-2.8 0-4.97 1.01-6.51 3.02s-2.31 4.93-2.31 8.74v1.04c0 3.71 0.76 6.57 2.29 8.58s3.71 3.01 6.55 3.01z"/>
<path class="cls-10" d="m2176.36,2043v7.8h6.02v4.26h-6.02v20.01c0,1.29.27,2.26.8,2.91.54.65,1.45.97,2.74.97.64,0,1.51-.12,2.62-.36v4.44c-1.45.39-2.86.59-4.23.59-2.46,0-4.32-.74-5.57-2.23-1.25-1.49-1.88-3.6-1.88-6.34v-19.99h-5.87v-4.26h5.87v-7.8h5.51Z"/>
<path class="cls-10" d="m2188.84,2042.25c0-.89.27-1.65.82-2.26.55-.62,1.36-.92,2.43-.92s1.89.31,2.44.92c.56.62.83,1.37.83,2.26s-.28,1.64-.83,2.23-1.37.89-2.44.89-1.88-.3-2.43-.89-.82-1.34-.82-2.23Zm5.96,40.78h-5.51v-32.23h5.51v32.23Z"/>
<path class="cls-10" d="m2202.2 2066.6c0-3.16 0.62-6 1.86-8.52s2.97-4.47 5.18-5.84 4.74-2.06 7.58-2.06c4.39 0 7.94 1.52 10.65 4.56s4.07 7.08 4.07 12.12v0.39c0 3.14-0.6 5.95-1.8 8.44s-2.92 4.43-5.15 5.82-4.8 2.08-7.7 2.08c-4.37 0-7.91-1.52-10.62-4.56s-4.07-7.06-4.07-12.06v-0.39zm5.54 0.66c0 3.57 0.83 6.44 2.49 8.61s3.88 3.25 6.66 3.25 5.02-1.1 6.67-3.29 2.47-5.27 2.47-9.22c0-3.53-0.84-6.4-2.52-8.59s-3.91-3.29-6.69-3.29-4.92 1.08-6.58 3.25c-1.67 2.16-2.5 5.26-2.5 9.29z"/>
<path class="cls-10" d="m2243.6 2050.8 0.18 4.05c2.46-3.1 5.68-4.65 9.65-4.65 6.81 0 10.25 3.84 10.31 11.53v21.3h-5.51v-21.33c-0.02-2.32-0.55-4.04-1.59-5.15s-2.67-1.67-4.87-1.67c-1.79 0-3.36 0.48-4.71 1.43s-2.4 2.2-3.16 3.75v22.96h-5.51v-32.23h5.21z"/>
<path class="cls-10" d="m1351.1 2172.4 6.2-24.63h5.51l-9.38 32.23h-4.47l-7.83-24.42-7.62 24.42h-4.47l-9.35-32.23h5.48l6.34 24.13 7.51-24.13h4.44l7.66 24.63z"/>
<path class="cls-10" d="m1368.47,2139.25c0-.89.27-1.65.82-2.26.55-.62,1.36-.92,2.43-.92s1.89.31,2.44.92c.56.62.83,1.37.83,2.26s-.28,1.64-.83,2.23-1.37.89-2.44.89-1.88-.3-2.43-.89c-.55-.6-.82-1.34-.82-2.23Zm5.96,40.78h-5.51v-32.23h5.51v32.23Z"/>
<path class="cls-10" d="m1390.72,2140v7.8h6.02v4.26h-6.02v20.01c0,1.29.27,2.26.8,2.91.54.65,1.45.97,2.74.97.63,0,1.51-.12,2.62-.36v4.44c-1.45.39-2.86.59-4.23.59-2.46,0-4.32-.74-5.57-2.23-1.25-1.49-1.88-3.6-1.88-6.34v-19.99h-5.87v-4.26h5.87v-7.8h5.51Z"/>
<path class="cls-10" d="m1408.7 2151.7c2.44-3 5.62-4.5 9.53-4.5 6.81 0 10.25 3.84 10.31 11.53v21.3h-5.51v-21.33c-0.02-2.32-0.55-4.04-1.59-5.15s-2.67-1.67-4.87-1.67c-1.79 0-3.36 0.48-4.71 1.43s-2.4 2.2-3.16 3.75v22.96h-5.51v-45.75h5.51v17.42z"/>
<path class="cls-10" d="m1465.5 2160.7c-4.91-1.41-8.47-3.14-10.71-5.2-2.23-2.05-3.35-4.59-3.35-7.61 0-3.42 1.37-6.24 4.1-8.47s6.28-3.35 10.65-3.35c2.98 0 5.63 0.58 7.97 1.73s4.14 2.74 5.42 4.77 1.92 4.24 1.92 6.64h-5.75c0-2.63-0.83-4.7-2.5-6.2s-4.02-2.26-7.06-2.26c-2.82 0-5.02 0.62-6.6 1.87-1.58 1.24-2.37 2.97-2.37 5.18 0 1.77 0.75 3.27 2.25 4.49s4.05 2.34 7.65 3.36c3.6 1.01 6.42 2.13 8.46 3.35s3.54 2.65 4.53 4.27c0.98 1.63 1.47 3.54 1.47 5.75 0 3.51-1.37 6.33-4.11 8.44s-6.4 3.17-10.99 3.17c-2.98 0-5.76-0.57-8.34-1.71s-4.57-2.71-5.97-4.69c-1.4-1.99-2.1-4.24-2.1-6.76h5.75c0 2.62 0.97 4.69 2.9 6.21 1.94 1.52 4.52 2.28 7.76 2.28 3.02 0 5.33-0.62 6.94-1.85s2.41-2.91 2.41-5.03-0.74-3.77-2.23-4.93-4.19-2.31-8.1-3.44z"/>
<path class="cls-10" d="m1498.6 2172 7.51-24.16h5.9l-12.96 37.2c-2.01 5.36-5.19 8.04-9.56 8.04l-1.04-0.09-2.06-0.39v-4.47l1.49 0.12c1.87 0 3.32-0.38 4.36-1.13s1.9-2.13 2.58-4.14l1.22-3.28-11.5-31.87h6.02l8.04 24.16z"/>
<path class="cls-10" d="m1535.7 2171.5c0-1.49-0.56-2.65-1.68-3.47s-3.08-1.53-5.87-2.13-5-1.31-6.64-2.14-2.85-1.83-3.63-2.98c-0.79-1.15-1.18-2.52-1.18-4.11 0-2.64 1.12-4.88 3.35-6.7 2.23-1.83 5.09-2.74 8.56-2.74 3.65 0 6.62 0.94 8.89 2.83s3.41 4.3 3.41 7.24h-5.54c0-1.51-0.64-2.81-1.92-3.9s-2.89-1.64-4.84-1.64-3.57 0.44-4.71 1.31-1.7 2.02-1.7 3.42c0 1.33 0.53 2.33 1.58 3.01 1.05 0.67 2.95 1.32 5.7 1.94s4.98 1.35 6.69 2.2 2.97 1.88 3.8 3.08c0.82 1.2 1.24 2.67 1.24 4.39 0 2.88-1.15 5.19-3.46 6.92-2.3 1.74-5.29 2.61-8.96 2.61-2.58 0-4.87-0.46-6.85-1.37-1.99-0.91-3.54-2.19-4.66-3.83s-1.68-3.41-1.68-5.32h5.51c0.1 1.85 0.84 3.31 2.22 4.39s3.2 1.62 5.47 1.62c2.08 0 3.76-0.42 5.02-1.27 1.26-0.84 1.89-1.97 1.89-3.38z"/>
<path class="cls-10" d="m1555.85,2140v7.8h6.02v4.26h-6.02v20.01c0,1.29.27,2.26.8,2.91.54.65,1.45.97,2.74.97.63,0,1.51-.12,2.62-.36v4.44c-1.45.39-2.86.59-4.23.59-2.46,0-4.32-.74-5.57-2.23-1.25-1.49-1.88-3.6-1.88-6.34v-19.99h-5.87v-4.26h5.87v-7.8h5.51Z"/>
<path class="cls-10" d="m1581.7 2180.6c-4.37 0-7.92-1.43-10.66-4.3s-4.11-6.71-4.11-11.51v-1.01c0-3.2 0.61-6.05 1.83-8.56s2.93-4.48 5.12-5.9 4.57-2.13 7.13-2.13c4.19 0 7.45 1.38 9.77 4.14s3.49 6.71 3.49 11.86v2.29h-21.83c0.08 3.18 1.01 5.74 2.79 7.7s4.04 2.93 6.78 2.93c1.95 0 3.59-0.4 4.94-1.19s2.53-1.85 3.54-3.16l3.37 2.62c-2.7 4.15-6.75 6.22-12.15 6.22zm-0.69-28.89c-2.22 0-4.09 0.81-5.6 2.43s-2.44 3.89-2.8 6.81h16.14v-0.42c-0.16-2.8-0.91-4.97-2.26-6.51s-3.18-2.31-5.48-2.31z"/>
<path class="cls-10" d="m1605.8 2147.8 0.15 3.57c2.36-2.78 5.55-4.17 9.56-4.17 4.51 0 7.58 1.73 9.2 5.18 1.07-1.55 2.47-2.8 4.19-3.75s3.75-1.43 6.09-1.43c7.07 0 10.66 3.74 10.78 11.23v21.59h-5.51v-21.27c0-2.3-0.53-4.03-1.58-5.17s-2.82-1.71-5.3-1.71c-2.05 0-3.74 0.61-5.09 1.83s-2.13 2.86-2.35 4.93v21.39h-5.54v-21.12c0-4.69-2.29-7.03-6.88-7.03-3.61 0-6.09 1.54-7.42 4.62v23.53h-5.51v-32.23h5.21z"/>
<path class="cls-10" d="m1698.8 2141.3h-13.94v38.69h-5.69v-38.69h-13.91v-4.68h33.54v4.68z"/>
<path class="cls-10" d="m1721.5 2176.8c-2.14 2.52-5.29 3.78-9.44 3.78-3.44 0-6.05-1-7.85-2.99-1.8-2-2.71-4.95-2.73-8.86v-20.97h5.51v20.82c0 4.88 1.99 7.33 5.96 7.33 4.21 0 7.01-1.57 8.4-4.71v-23.44h5.51v32.23h-5.24l-0.12-3.19z"/>
<path class="cls-10" d="m1740.4 2147.8 0.18 4.05c2.46-3.1 5.68-4.65 9.65-4.65 6.81 0 10.25 3.84 10.31 11.53v21.3h-5.51v-21.33c-0.02-2.32-0.55-4.04-1.59-5.15s-2.67-1.67-4.87-1.67c-1.79 0-3.36 0.48-4.71 1.43s-2.4 2.2-3.16 3.75v22.96h-5.51v-32.23h5.21z"/>
<path class="cls-10" d="m1782.2 2180.6c-4.37 0-7.92-1.43-10.66-4.3s-4.11-6.71-4.11-11.51v-1.01c0-3.2 0.61-6.05 1.83-8.56s2.93-4.48 5.12-5.9 4.57-2.13 7.13-2.13c4.19 0 7.45 1.38 9.77 4.14s3.49 6.71 3.49 11.86v2.29h-21.83c0.08 3.18 1.01 5.74 2.79 7.7s4.04 2.93 6.78 2.93c1.95 0 3.59-0.4 4.94-1.19s2.53-1.85 3.54-3.16l3.37 2.62c-2.7 4.15-6.75 6.22-12.15 6.22zm-0.68-28.89c-2.22 0-4.09 0.81-5.6 2.43s-2.44 3.89-2.8 6.81h16.14v-0.42c-0.16-2.8-0.91-4.97-2.26-6.51s-3.18-2.31-5.48-2.31z"/>
<path class="cls-10" d="m1812.6 2163.8h-14.54v-4.5h14.54v4.5z"/>
<path class="cls-10" d="m1837.9 2176.8c-2.14 2.52-5.29 3.78-9.44 3.78-3.44 0-6.05-1-7.85-2.99-1.8-2-2.71-4.95-2.73-8.86v-20.97h5.51v20.82c0 4.88 1.99 7.33 5.96 7.33 4.21 0 7.01-1.57 8.4-4.71v-23.44h5.51v32.23h-5.24l-0.12-3.19z"/>
<path class="cls-10" d="m1878.84,2164.27c0,4.9-1.12,8.86-3.37,11.85-2.24,3-5.28,4.5-9.11,4.5s-6.99-1.24-9.23-3.72v15.52h-5.51v-44.62h5.03l.27,3.57c2.24-2.78,5.36-4.17,9.35-4.17s6.93,1.46,9.19,4.38c2.25,2.92,3.38,6.98,3.38,12.18v.51Zm-5.51-.63c0-3.63-.77-6.5-2.32-8.61-1.55-2.1-3.67-3.16-6.38-3.16-3.34,0-5.84,1.48-7.51,4.44v15.4c1.65,2.94,4.17,4.41,7.57,4.41,2.64,0,4.74-1.05,6.3-3.14s2.34-5.21,2.34-9.34Z"/>
<path class="cls-10" d="m1899.8 2168.4c0-2.08 0.58-4 1.74-5.75s3.38-3.78 6.66-6.11c-1.93-2.34-3.22-4.23-3.87-5.66s-0.98-2.85-0.98-4.26c0-3.3 0.97-5.88 2.92-7.74s4.59-2.8 7.92-2.8c2.98 0 5.44 0.87 7.39 2.61s2.92 3.93 2.92 6.57c0 1.75-0.44 3.36-1.33 4.84-0.88 1.48-2.43 3.03-4.63 4.66l-3.19 2.35 9.65 11.53c1.35-2.58 2.03-5.45 2.03-8.61h4.97c0 5.06-1.22 9.26-3.66 12.6l6.2 7.42h-6.61l-2.89-3.43c-1.47 1.31-3.19 2.31-5.17 2.99s-3.99 1.03-6.03 1.03c-4.23 0-7.62-1.12-10.19-3.37-2.56-2.24-3.84-5.2-3.84-8.88zm14.03 7.74c2.92 0 5.59-1.11 8.01-3.34l-10.57-12.66-0.98 0.71c-3.32 2.44-4.97 4.95-4.97 7.54 0 2.34 0.76 4.22 2.28 5.63s3.6 2.11 6.24 2.11zm-4.97-29.7c0 1.91 1.17 4.29 3.52 7.15l3.51-2.47c1.35-0.95 2.27-1.86 2.77-2.72s0.75-1.91 0.75-3.14c0-1.33-0.5-2.44-1.49-3.32s-2.24-1.33-3.75-1.33c-1.63 0-2.92 0.55-3.87 1.65s-1.43 2.5-1.43 4.18z"/>
<path class="cls-10" d="m1988.2 2159.7c0 4.25-0.71 7.96-2.14 11.12-1.43 3.17-3.46 5.58-6.08 7.25s-5.68 2.5-9.17 2.5-6.44-0.84-9.08-2.52-4.69-4.07-6.15-7.18-2.21-6.71-2.25-10.8v-3.13c0-4.17 0.72-7.85 2.17-11.05s3.5-5.64 6.15-7.34 5.68-2.55 9.1-2.55 6.54 0.84 9.19 2.52 4.69 4.11 6.12 7.3 2.14 6.89 2.14 11.12v2.74zm-5.69-2.8c0-5.14-1.03-9.09-3.1-11.84s-4.95-4.13-8.67-4.13-6.46 1.38-8.53 4.13-3.14 6.57-3.2 11.45v3.19c0 4.98 1.05 8.9 3.14 11.75s4.98 4.27 8.65 4.27 6.55-1.34 8.58-4.04 3.07-6.55 3.13-11.57v-3.22z"/>
<path class="cls-10" d="m2023.12,2164.27c0,4.9-1.12,8.86-3.37,11.85-2.24,3-5.28,4.5-9.11,4.5s-6.99-1.24-9.23-3.72v15.52h-5.51v-44.62h5.03l.27,3.57c2.24-2.78,5.36-4.17,9.35-4.17s6.93,1.46,9.19,4.38c2.25,2.92,3.38,6.98,3.38,12.18v.51Zm-5.51-.63c0-3.63-.77-6.5-2.32-8.61-1.55-2.1-3.67-3.16-6.38-3.16-3.34,0-5.84,1.48-7.51,4.44v15.4c1.65,2.94,4.17,4.41,7.57,4.41,2.64,0,4.74-1.05,6.3-3.14s2.34-5.21,2.34-9.34Z"/>
<path class="cls-10" d="m2037.59,2140v7.8h6.02v4.26h-6.02v20.01c0,1.29.27,2.26.8,2.91.54.65,1.45.97,2.74.97.64,0,1.51-.12,2.62-.36v4.44c-1.45.39-2.86.59-4.23.59-2.46,0-4.32-.74-5.57-2.23-1.25-1.49-1.88-3.6-1.88-6.34v-19.99h-5.87v-4.26h5.87v-7.8h5.51Z"/>
<path class="cls-10" d="m2050.07,2139.25c0-.89.27-1.65.82-2.26.55-.62,1.36-.92,2.43-.92s1.89.31,2.44.92c.56.62.83,1.37.83,2.26s-.28,1.64-.83,2.23-1.37.89-2.44.89-1.88-.3-2.43-.89-.82-1.34-.82-2.23Zm5.96,40.78h-5.51v-32.23h5.51v32.23Z"/>
<path class="cls-10" d="m2070 2147.8 0.15 3.57c2.36-2.78 5.55-4.17 9.56-4.17 4.51 0 7.58 1.73 9.2 5.18 1.07-1.55 2.47-2.8 4.19-3.75s3.75-1.43 6.09-1.43c7.07 0 10.66 3.74 10.78 11.23v21.59h-5.51v-21.27c0-2.3-0.53-4.03-1.58-5.17s-2.82-1.71-5.3-1.71c-2.04 0-3.74 0.61-5.09 1.83s-2.13 2.86-2.35 4.93v21.39h-5.54v-21.12c0-4.69-2.29-7.03-6.88-7.03-3.61 0-6.09 1.54-7.42 4.62v23.53h-5.51v-32.23h5.21z"/>
<path class="cls-10" d="m2118.34,2139.25c0-.89.27-1.65.82-2.26.55-.62,1.36-.92,2.43-.92s1.89.31,2.44.92c.56.62.83,1.37.83,2.26s-.28,1.64-.83,2.23-1.37.89-2.44.89-1.88-.3-2.43-.89-.82-1.34-.82-2.23Zm5.96,40.78h-5.51v-32.23h5.51v32.23Z"/>
<path class="cls-10" d="m2138.3 2175.5h18.85v4.5h-25.59v-4.05l17.78-23.62h-17.51v-4.56h24.42v3.9l-17.96 23.83z"/>
<path class="cls-10" d="m2183.2 2180c-0.32-0.64-0.58-1.77-0.77-3.4-2.56 2.66-5.62 3.99-9.17 3.99-3.18 0-5.78-0.9-7.82-2.7s-3.05-4.08-3.05-6.84c0-3.36 1.28-5.96 3.83-7.82s6.14-2.79 10.77-2.79h5.36v-2.53c0-1.93-0.58-3.46-1.73-4.6s-2.85-1.71-5.09-1.71c-1.97 0-3.61 0.5-4.94 1.49s-2 2.19-2 3.6h-5.54c0-1.61 0.57-3.16 1.71-4.66s2.69-2.69 4.65-3.56 4.11-1.31 6.45-1.31c3.71 0 6.62 0.93 8.73 2.79s3.2 4.41 3.28 7.67v14.83c0 2.96 0.38 5.31 1.13 7.06v0.48h-5.78zm-9.14-4.2c1.73 0 3.37-0.45 4.92-1.34s2.67-2.06 3.37-3.49v-6.61h-4.32c-6.75 0-10.13 1.98-10.13 5.93 0 1.73 0.58 3.08 1.73 4.05s2.63 1.46 4.44 1.46z"/>
<path class="cls-10" d="m2204,2140v7.8h6.02v4.26h-6.02v20.01c0,1.29.27,2.26.8,2.91.54.65,1.45.97,2.74.97.64,0,1.51-.12,2.62-.36v4.44c-1.45.39-2.86.59-4.23.59-2.46,0-4.32-.74-5.57-2.23-1.25-1.49-1.88-3.6-1.88-6.34v-19.99h-5.87v-4.26h5.87v-7.8h5.51Z"/>
<path class="cls-10" d="m2216.48,2139.25c0-.89.27-1.65.82-2.26.55-.62,1.36-.92,2.43-.92s1.89.31,2.44.92c.56.62.83,1.37.83,2.26s-.28,1.64-.83,2.23-1.37.89-2.44.89-1.88-.3-2.43-.89-.82-1.34-.82-2.23Zm5.96,40.78h-5.51v-32.23h5.51v32.23Z"/>
<path class="cls-10" d="m2229.8 2163.6c0-3.16 0.62-6 1.86-8.52s2.97-4.47 5.18-5.84 4.74-2.06 7.58-2.06c4.39 0 7.94 1.52 10.65 4.56s4.07 7.08 4.07 12.12v0.39c0 3.14-0.6 5.95-1.8 8.44s-2.92 4.43-5.15 5.82-4.8 2.08-7.7 2.08c-4.37 0-7.91-1.52-10.62-4.56s-4.07-7.06-4.07-12.06v-0.39zm5.54 0.66c0 3.57 0.83 6.44 2.49 8.61s3.88 3.25 6.66 3.25 5.02-1.1 6.67-3.29 2.47-5.27 2.47-9.22c0-3.53-0.84-6.4-2.52-8.59s-3.91-3.29-6.69-3.29-4.92 1.08-6.58 3.25c-1.67 2.16-2.5 5.26-2.5 9.29z"/>
<path class="cls-10" d="m2271.3 2147.8 0.18 4.05c2.46-3.1 5.68-4.65 9.65-4.65 6.81 0 10.25 3.84 10.31 11.53v21.3h-5.51v-21.33c-0.02-2.32-0.55-4.04-1.59-5.15s-2.67-1.67-4.87-1.67c-1.79 0-3.36 0.48-4.71 1.43s-2.4 2.2-3.16 3.75v22.96h-5.51v-32.23h5.21z"/>
</g>
<g class="cls-13">
<path class="cls-10" d="m1416.7 1612.5h-56.5l-10.74 32.23h-34.27l58.22-156.41h29.86l58.54 156.41h-34.27l-10.85-32.23zm-47.8-26.1h39.1l-19.66-58.55-19.44 58.55z"/>
<path class="cls-10" d="m1497.8 1528.5 0.97 13.43c8.31-10.38 19.44-15.58 33.41-15.58 12.32 0 21.48 3.62 27.5 10.85s9.09 18.05 9.24 32.44v75.09h-31.04v-74.34c0-6.59-1.43-11.37-4.3-14.34s-7.63-4.46-14.29-4.46c-8.74 0-15.29 3.72-19.66 11.17v81.96h-31.04v-116.23h29.22z"/>
<path class="cls-10" d="m1629.6 1499.9v28.57h19.87v22.77h-19.87v58.01c0 4.3 0.82 7.38 2.47 9.24s4.8 2.79 9.45 2.79c3.44 0 6.48-0.25 9.13-0.75v23.53c-6.09 1.86-12.35 2.79-18.8 2.79-21.77 0-32.87-10.99-33.3-32.98v-62.63h-16.97v-22.77h16.97v-28.57h31.04z"/>
<path class="cls-10" d="m1666.6 1498.4c0-4.65 1.56-8.49 4.67-11.49s7.36-4.51 12.73-4.51 9.52 1.5 12.68 4.51c3.15 3.01 4.73 6.84 4.73 11.49s-1.59 8.59-4.78 11.6-7.4 4.51-12.62 4.51-9.44-1.5-12.62-4.51c-3.19-3.01-4.78-6.88-4.78-11.6zm32.98 146.31h-31.15v-116.23h31.15v116.23z"/>
<path class="cls-10" d="m1768.6 1606.8 21.59-78.31h32.44l-39.21 116.23h-29.65l-39.21-116.23h32.44l21.59 78.31z"/>
<path class="cls-10" d="m1836.1 1498.4c0-4.65 1.56-8.49 4.67-11.49s7.36-4.51 12.73-4.51 9.52 1.5 12.68 4.51c3.15 3.01 4.73 6.84 4.73 11.49s-1.59 8.59-4.78 11.6-7.4 4.51-12.62 4.51-9.44-1.5-12.62-4.51c-3.19-3.01-4.78-6.88-4.78-11.6zm32.98 146.31h-31.15v-116.23h31.15v116.23z"/>
<path class="cls-10" d="m1959.93,1557.57c-4.23-.57-7.95-.86-11.17-.86-11.75,0-19.44,3.97-23.1,11.92v76.05h-31.04v-116.23h29.33l.86,13.86c6.23-10.67,14.86-16.01,25.89-16.01,3.44,0,6.66.47,9.67,1.4l-.43,29.86Z"/>
<path class="cls-10" d="m2044.5 1632.9c-7.66 9.31-18.26 13.96-31.8 13.96-12.46 0-21.97-3.58-28.52-10.74s-9.9-17.65-10.04-31.47v-76.16h31.04v75.18c0 12.12 5.51 18.17 16.54 18.17s17.76-3.66 21.7-10.97v-82.38h31.15v116.23h-29.22l-0.86-11.82z"/>
<path class="cls-10" d="m2160.9 1612.6c0-3.79-1.88-6.78-5.64-8.97-3.76-2.18-9.79-4.14-18.1-5.85-27.64-5.8-41.46-17.54-41.46-35.23 0-10.31 4.28-18.92 12.84-25.84 8.56-6.91 19.75-10.37 33.57-10.37 14.75 0 26.55 3.47 35.4 10.42 8.84 6.95 13.27 15.97 13.27 27.07h-31.04c0-4.44-1.43-8.11-4.3-11.01s-7.34-4.35-13.43-4.35c-5.23 0-9.28 1.18-12.14 3.54-2.87 2.36-4.3 5.37-4.3 9.02 0 3.44 1.63 6.21 4.89 8.33 3.26 2.11 8.75 3.94 16.49 5.48 7.73 1.54 14.25 3.28 19.55 5.21 16.4 6.02 24.6 16.44 24.6 31.26 0 10.6-4.55 19.17-13.64 25.73-9.1 6.55-20.84 9.83-35.23 9.83-9.74 0-18.39-1.74-25.94-5.21-7.56-3.47-13.48-8.23-17.78-14.29-4.3-6.05-6.45-12.58-6.45-19.6h29.43c0.29 5.52 2.33 9.74 6.12 12.68s8.88 4.4 15.25 4.4c5.94 0 10.44-1.13 13.48-3.38 3.04-2.26 4.57-5.21 4.57-8.86z"/>
<path class="cls-10" d="m2300.1 1589.6v55.11h-32.23v-156.41h61.02c11.74 0 22.08 2.15 30.99 6.45s15.77 10.4 20.57 18.32c4.8 7.91 7.2 16.92 7.2 27.02 0 15.33-5.25 27.41-15.74 36.26s-25.01 13.27-43.56 13.27h-28.25zm0-26.1h28.79c8.52 0 15.02-2 19.5-6.02 4.47-4.01 6.71-9.74 6.71-17.19s-2.26-13.86-6.77-18.58-10.74-7.16-18.69-7.3h-29.54v49.09z"/>
<path class="cls-10" d="m2473.09,1557.57c-4.23-.57-7.95-.86-11.17-.86-11.75,0-19.44,3.97-23.1,11.92v76.05h-31.04v-116.23h29.33l.86,13.86c6.23-10.67,14.86-16.01,25.89-16.01,3.44,0,6.66.47,9.67,1.4l-.43,29.86Z"/>
<path class="cls-10" d="m2479.3 1585.5c0-11.53 2.22-21.81 6.66-30.83s10.83-16.01 19.17-20.95 18.03-7.41 29.06-7.41c15.68 0 28.48 4.8 38.4 14.39 9.92 9.6 15.45 22.63 16.6 39.1l0.21 7.95c0 17.83-4.98 32.14-14.93 42.92-9.96 10.78-23.31 16.17-40.07 16.17s-30.13-5.37-40.12-16.11-14.99-25.35-14.99-43.83v-1.4zm31.04 2.2c0 11.05 2.08 19.49 6.23 25.34s10.1 8.77 17.83 8.77 13.39-2.89 17.62-8.66c4.22-5.77 6.34-15.01 6.34-27.7 0-10.83-2.11-19.22-6.34-25.17s-10.17-8.93-17.83-8.93-13.46 2.96-17.62 8.88c-4.15 5.92-6.23 15.08-6.23 27.49z"/>
</g>
</g>
<polygon class="cls-6" points="1090.1 3080.8 384.6 3080.8 200.3 2947.5 819.8 2947.3"/>
<style>.b99b2ceb3d4eca2c58908a89207f6670{height:39px}</style>
<style>.7a5a71e42e517f4c3f39264f3a4d7a69{height:17px}</style>
<style>.f924d5cb73dbcb71e05fced8e6898213{height:91px}</style>
</svg>
