<?xml version="1.0" encoding="UTF-8"?>
<svg version="1.1" viewBox="0 40 2925.9 380" xmlns="http://www.w3.org/2000/svg">
<defs>
<linearGradient id="c" x1="84.324%" x2="1.4965%" y1="16.334%" y2="100%">
<stop stop-color="#AC222A" offset="0"/>
<stop stop-color="#951C23" offset="1"/>
</linearGradient>
<linearGradient id="b" x2="91.526%" y2="76.949%">
<stop stop-color="#AC222A" offset="0"/>
<stop stop-color="#C42B34" offset="1"/>
</linearGradient>
<linearGradient id="a" x1="83.053%" x2="0%" y1="13.451%" y2="100%">
<stop stop-color="#E63748" offset="0"/>
<stop stop-color="#C42B34" offset="1"/>
</linearGradient>
</defs>
<g fill="none" fill-rule="evenodd">
<g transform="translate(0 40)">
<circle cx="280" cy="150" r="150" fill="url(#c)"/>
<path d="m375 380c57.99 0 105-47.01 105-105s-47.01-105-105-105-105 47.01-105 105v105h105z" fill="url(#b)"/>
<path d="m135 380h135v-135c0-74.558-60.442-135-135-135-74.558 0-135 60.442-135 135s60.442 135 135 135z" fill="url(#a)"/>
</g>
<g transform="translate(553.12 80)" fill="#1D2023">
<path d="m0 69.502h92.769v245.49h72.783v-245.49h92.62v-59.957h-258.17v59.957zm561.06 92.769c0-100.97-63.834-156.9-145.86-156.9-82.329 0-145.72 55.93-145.72 156.9 0 100.52 63.387 156.9 145.72 156.9 82.03 0 145.86-55.93 145.86-156.9zm-75.468 0c0 59.808-26.25 92.172-70.397 92.172-43.998 0-70.397-32.365-70.397-92.172s26.399-92.172 70.397-92.172c44.147 0 70.397 32.365 70.397 92.172zm344.95-152.73v59.957h-92.62v245.49h-72.783v-245.49h-92.769v-59.957h258.17zm178.5 0 103.06 305.45h-79.346l-20.135-64.133h-105.45l-20.135 64.133h-79.346l103.06-305.45h98.287zm-48.025 76.959h-2.3863l-33.856 108.28h70.248l-34.005-108.28zm176.41 228.49h200.9v-59.957h-127.07v-245.49h-73.827v305.45zm390.69 0c93.067 0 145.57-57.869 145.57-153.32 0-94.857-52.499-152.13-141.39-152.13h-98.436v305.45h94.26zm-57.272-32.812v-239.83h59.062c71.59 0 107.98 45.34 107.98 119.32 0 74.573-36.392 120.51-112.16 120.51h-54.886zm252.48 32.812h35.198v-144.97c0-31.022 24.46-53.693 57.869-53.693 9.3962 0 19.091 1.7898 21.477 2.3863v-35.795c-4.0269-0.29829-13.274-0.59658-18.494-0.59658-27.443 0-51.306 15.511-59.658 38.181h-2.3863v-34.602h-34.005v229.09zm148.67 0h35.198v-229.09h-35.198v229.09zm17.898-267.27c13.721 0 25.057-10.739 25.057-23.863s-11.335-23.863-25.057-23.863c-13.721 0-25.057 10.739-25.057 23.863s11.335 23.863 25.057 23.863zm261.42 38.181h-38.181l-63.238 182.55h-2.3863l-63.238-182.55h-38.181l84.715 229.09h35.795l84.715-229.09zm126.6 233.86c46.534 0 80.539-23.267 91.277-57.869l-34.005-9.5453c-8.9488 23.863-29.68 35.795-57.272 35.795-41.313 0-69.8-26.697-71.441-75.766h166.3v-14.915c0-85.312-50.71-114.54-98.436-114.54-62.045 0-103.21 48.92-103.21 119.32 0 70.397 40.568 117.53 106.79 117.53zm-71.441-137.81c2.3863-35.646 27.592-67.414 67.861-67.414 38.181 0 62.641 28.636 62.641 67.414h-130.5z"/>
</g>
</g>
<style>.75e5383ae86073dbf30d3e91ade40812{height:28px}</style>
</svg>
