<?xml version="1.0" encoding="UTF-8"?>
<svg version="1.1" viewBox="88.85 2.97 462.3 134.05" xmlns="http://www.w3.org/2000/svg">
<path d="M129.28,63.56c-10.75,0-19.49-8.74-19.49-19.49,0-7.54,3.97-15.6,13.08-18.39,.49-.15,.98,.23,.98,.74v5.04c0,.47-.28,.88-.7,1.09-4.1,2.07-6.51,6.19-6.74,10.8-.34,6.85,4.88,12.95,11.71,13.55,.39,.03,.77,.04,1.16,.04v-18.56h-2.28c-.47,0-.85-.38-.85-.85v-15.94c0-.47,.38-.85,.85-.85h4.56s.06,.01,.09,.02c.19-6.75-2.47-17.62-2.47-17.62l-40.33,17.41s1.23,50.8,40.44,65.57c3.51-10.17,3.22-17.81,2.22-22.69-.73,.08-1.47,.13-2.22,.13Z" fill="#e73848"/>
<g fill="#2c3035">
<path d="M254.14,108.25h-6.94v-5.83h20.89v5.83h-6.94v20.52h-6.94l-.07-20.52Z"/>
<path d="M269.65,115.48c0-8.7,4.96-13.54,12.23-13.54s12.23,4.96,12.23,13.54-4.96,13.79-12.23,13.79-12.23-5.09-12.23-13.79Zm17.34,0c0-4.76-1.98-7.55-5.1-7.55s-5.09,2.81-5.09,7.55,1.98,7.8,5.09,7.8,5.12-3.04,5.12-7.8h-.03Z"/>
<path d="M303.06,108.25h-6.94v-5.83h20.94v5.83h-6.94v20.52h-6.94l-.12-20.52Z"/>
<path d="M331.8,123.19h-7.39l-1.31,5.58h-7.14l8.04-26.35h8.46l8.04,26.35h-7.38l-1.31-5.58Zm-1.31-5.41l-.42-1.8c-.65-2.55-1.31-5.75-1.98-8.38h-.16c-.57,2.71-1.23,5.83-1.89,8.38l-.36,1.8h4.81Z"/>
<path d="m342.96 102.43h6.94v20.53h10.01v5.82h-16.96v-26.35z"/>
<path d="M381.62,120.57h-9.85l-2.62,8.21h-3.45l9.11-26.9h3.85l9.12,26.92h-3.61l-2.55-8.23Zm-.9-2.79l-1.23-4.07c-.99-3.04-1.89-5.95-2.72-9.11h-.16c-.82,3.11-1.72,6.07-2.62,9.11l-1.31,4.1,8.03-.03Z"/>
<path d="M389,101.87h3.7l4.35,14.52c.99,3.2,1.56,5.75,2.62,8.92h.16c.99-3.2,1.64-5.75,2.62-8.92l4.37-14.52h3.53l-8.53,26.92h-4.02l-8.78-26.92Z"/>
</g>
<path d="M129.28,2.97V20.74h2.28c.47,0,.85,.38,.85,.85v15.94c0,.47-.38,.85-.85,.85h-2.28v18.56c7.1,0,12.89-5.77,12.89-12.87,0-4.96-2.46-9.78-6.84-11.97-.38-.19-.64-.57-.64-1v-5.11c0-.39,.38-.67,.75-.55,9.15,3.05,13.34,10.97,13.34,18.62,0,10.75-8.74,19.49-19.49,19.49v9.13l.11-.13v13.37c39.21-14.75,40.33-65.55,40.33-65.55L129.28,2.97Z" fill="#c42b34"/>
<g fill="#2c3035">
<path d="M201.97,32.32h-13.84v-11.63h41.67v11.63h-13.84v40.93h-13.84l-.14-40.93Z"/>
<path d="M232.92,46.74c0-17.36,9.89-27.01,24.4-27.01s24.4,9.89,24.4,27.01-9.89,27.51-24.4,27.51-24.4-10.14-24.4-27.51Zm34.59,0c0-9.49-3.96-15.07-10.16-15.07s-10.14,5.6-10.14,15.07,3.96,15.56,10.14,15.56,10.22-6.07,10.22-15.56h-.06Z"/>
<path d="M299.57,32.32h-13.84v-11.63h41.77v11.63h-13.84v40.93h-13.84l-.24-40.93Z"/>
<path d="M356.89,62.12h-14.75l-2.61,11.13h-14.24l16.04-52.56h16.87l16.04,52.56h-14.73l-2.61-11.13Zm-2.61-10.8l-.83-3.6c-1.31-5.08-2.61-11.47-3.96-16.71h-.32c-1.15,5.4-2.45,11.63-3.78,16.71l-.71,3.6h9.59Z"/>
<path d="M379.16,20.69h13.84V61.65h19.97v11.61h-33.84l.02-52.56Z"/>
<path d="M417.52,19.59h7.38l8.68,28.97c1.98,6.39,3.1,11.47,5.22,17.8h.32c1.98-6.39,3.26-11.47,5.22-17.8l8.72-28.97h7.04l-17.03,53.71h-8.03l-17.52-53.71Z"/>
</g>
<g fill="#2c3035">
<path d="m466.29 74.45v-54.85h18.46c4.35 0 7.55 0.35 9.62 1.05 2.83 0.95 5.08 2.71 6.77 5.28 1.68 2.57 2.53 5.73 2.53 9.47 0 4.94-1.37 8.97-4.12 12.09s-7.49 4.68-14.22 4.68h-12.55v22.3h-6.48zm6.48-28.77h12.67c3.99 0 6.92-0.83 8.76-2.49s2.77-4.16 2.77-7.5c0-2.17-0.46-4.03-1.37-5.58s-2.01-2.61-3.3-3.18-3.62-0.86-6.99-0.86h-12.55v19.61z"/>
<path d="M510.07,74.45V19.6h7.07l27.42,43.15V19.6h6.59v54.85h-7.07l-27.38-43.16v43.16h-6.64Z"/>
</g>
<g fill="#2c3035">
<path d="m200.86 128.28h-3.11v-29.76h3.36v10.62c0.71-0.97 1.52-1.7 2.42-2.18s1.91-0.72 3.01-0.72c1.55 0 2.95 0.41 4.21 1.24s2.28 2.08 3.03 3.76c0.76 1.68 1.14 3.71 1.14 6.11 0 3.65-0.86 6.47-2.57 8.45s-3.72 2.97-6.01 2.97c-1.15 0-2.19-0.27-3.11-0.8s-1.71-1.33-2.38-2.39v2.7zm-0.05-10.94c0 2.23 0.23 3.9 0.68 5.01 0.46 1.11 1.1 1.96 1.94 2.54 0.83 0.58 1.76 0.87 2.78 0.87 1.38 0 2.61-0.69 3.68-2.08s1.61-3.46 1.61-6.22-0.52-4.9-1.55-6.23-2.3-1.99-3.8-1.99c-1.38 0-2.62 0.69-3.7 2.08-1.09 1.39-1.63 3.39-1.63 6.02z"/>
<path d="M218.96,136.59l-.36-3.43c.74,.22,1.38,.32,1.91,.32,.71,0,1.3-.13,1.76-.39,.46-.26,.85-.66,1.15-1.2,.11-.19,.55-1.38,1.32-3.58l-7.53-21.59h3.61l4.14,12.48c.52,1.56,.99,3.22,1.43,4.99,.38-1.68,.83-3.31,1.36-4.91l4.23-12.56h3.36l-7.51,21.92c-.99,2.84-1.76,4.74-2.33,5.69-.57,.95-1.21,1.64-1.93,2.06s-1.54,.63-2.45,.63c-.64,0-1.36-.15-2.16-.45Z"/>
</g>
<style>.0d5a3cdf26a3f4864fc9ea402eafcd85{height:28px}</style>
<style>.0b02790ac7641e67e9413c5a0ab6401d{height:17px}</style>
</svg>
