<?xml version="1.0" encoding="UTF-8"?>
<svg version="1.1" viewBox="0 0 362 47" xmlns="http://www.w3.org/2000/svg">
<g fill="none" fill-rule="evenodd">
<g transform="translate(.64)">
<g transform="translate(50.36 8)" fill="#1D2023">
<path d="m117.38 1.4526h-7.966v29.806h19.362v-6.6018h-11.396v-23.204zm-20.009 0 9.1727 29.806h-8.4309l-1.4816-6.3277h-8.4309l-1.4836 6.3277h-8.1539l9.1727-29.806h9.6356zm-17.6 0v6.6037h-7.9699v23.202h-7.966v-23.202h-7.9699v-6.6037h23.906zm12.69 5.871h-0.184c-0.64883 3.0239-1.3906 6.6018-2.1324 9.445l-0.50938 2.0639h5.5586l-0.50938-2.0639c-0.3363-1.2924-0.673-2.7453-1.0099-4.2259l-0.40439-1.7814c-0.26965-1.185-0.53939-2.3537-0.80914-3.4377zm-52.807-6.4191c8.3398 0 13.989 5.5465 13.989 15.314 0 9.8142-5.6496 15.59-13.989 15.59-8.3379 0-13.989-5.7758-13.989-15.59 0-9.8123 5.6516-15.314 13.989-15.314zm0 6.7844c-3.6121 0-5.8356 3.1192-5.8356 8.5296s2.2234 8.8036 5.8356 8.8036c3.6141 0 5.8375-3.3932 5.8375-8.8036s-2.2234-8.5296-5.8375-8.5296zm-39.65 0.3673h7.968v23.202h7.966v-23.202h7.968v-6.6037h-23.902v6.6037zm142.01 11.384v11.632h-3.9259v-29.001h11.1c3.0955 0 5.5002 0.79674 7.2141 2.3902 1.7138 1.5935 2.5708 3.6916 2.5708 6.2943 0 2.6425-0.85692 4.7506-2.5708 6.3241s-4.1185 2.3603-7.2141 2.3603h-7.1742zm0-3.0675h7.1742c1.9663 0 3.4343-0.52784 4.4042-1.5835s1.4548-2.3869 1.4548-3.9937-0.48824-2.9479-1.4647-4.0235-2.4412-1.6134-4.3942-1.6134h-7.1742v11.214zm34.168 14.7c-0.13286-0.65067-0.23582-1.225-0.30889-1.723-0.073071-0.49796-0.11625-0.99925-0.12953-1.5038-0.73071 1.0358-1.6839 1.9022-2.8597 2.5994-1.1758 0.69715-2.4412 1.0457-3.7964 1.0457-2.2453 0-3.9558-0.57432-5.1316-1.723-1.1758-1.1486-1.7637-2.7322-1.7637-4.7506 0-2.0582 0.83367-3.6683 2.501-4.8302 1.6673-1.1619 3.9292-1.7429 6.7856-1.7429h4.2647v-2.1313c0-1.2615-0.38528-2.2608-1.1558-2.9977-0.77056-0.73699-1.86-1.1055-3.2682-1.1055-1.2621 0-2.2884 0.32202-3.0789 0.96605s-1.1857 1.4175-1.1857 2.3205h-3.7465l-0.039857-0.11951c-0.079713-1.5669 0.66096-3.0011 2.222-4.3024 1.5611-1.3013 3.5771-1.952 6.0483-1.952 2.4445 0 4.4108 0.62079 5.8988 1.8624 1.488 1.2416 2.232 3.0309 2.232 5.368v10.378c0 0.77018 0.039857 1.5138 0.11957 2.2309 0.079714 0.71707 0.22586 1.4209 0.43842 2.1114h-4.0455zm-6.5166-2.8683c1.4216 0 2.7036-0.36517 3.8462-1.0955 1.1426-0.73035 1.8866-1.5669 2.232-2.5097v-3.5057h-4.4042c-1.581 0-2.8464 0.39837-3.7964 1.1951s-1.4249 1.7329-1.4249 2.8085c0 0.95609 0.29892 1.713 0.89678 2.2707 0.59785 0.55772 1.4813 0.83658 2.6505 0.83658zm27.891-2.8483c0-0.86314-0.32882-1.5736-0.98645-2.1313-0.65764-0.55772-1.9032-1.0424-3.7366-1.4541-2.6173-0.571-4.5868-1.3445-5.9088-2.3205-1.3219-0.97601-1.9829-2.3072-1.9829-3.9937 0-1.7528 0.74399-3.2467 2.232-4.4817 1.488-1.2349 3.4277-1.8524 5.8191-1.8524 2.511 0 4.5071 0.64403 5.9885 1.9321 1.4813 1.2881 2.1888 2.855 2.1224 4.7008l-0.039856 0.11951h-3.7465c0-0.94281-0.39525-1.7893-1.1857-2.5396s-1.8367-1.1254-3.1387-1.1254c-1.395 0-2.4313 0.30542-3.1088 0.91625s-1.0163 1.3478-1.0163 2.211c0 0.84986 0.29892 1.5204 0.89678 2.0118 0.59785 0.49132 1.8135 0.92953 3.6469 1.3146 2.7235 0.58428 4.7496 1.3777 6.0781 2.3803 1.3286 1.0026 1.9928 2.3471 1.9928 4.0335 0 1.9122-0.77388 3.4592-2.3217 4.641-1.5478 1.1818-3.5705 1.7727-6.0682 1.7727-2.7501 0-4.9157-0.69715-6.4966-2.0914-1.581-1.3943-2.3316-3.021-2.2519-4.88l0.039857-0.11951h3.7465c0.066428 1.3943 0.58456 2.4135 1.5544 3.0575 0.96985 0.64403 2.1058 0.96605 3.4077 0.96605 1.395 0 2.4877-0.28218 3.2782-0.84654 0.79049-0.56436 1.1857-1.3047 1.1857-2.2209zm20.995 0c0-0.86314-0.32882-1.5736-0.98645-2.1313-0.65764-0.55772-1.9032-1.0424-3.7366-1.4541-2.6173-0.571-4.5868-1.3445-5.9088-2.3205-1.3219-0.97601-1.9829-2.3072-1.9829-3.9937 0-1.7528 0.74399-3.2467 2.232-4.4817 1.488-1.2349 3.4277-1.8524 5.8191-1.8524 2.511 0 4.5071 0.64403 5.9885 1.9321 1.4813 1.2881 2.1888 2.855 2.1224 4.7008l-0.039857 0.11951h-3.7465c0-0.94281-0.39524-1.7893-1.1857-2.5396-0.79049-0.75026-1.8367-1.1254-3.1387-1.1254-1.395 0-2.4313 0.30542-3.1088 0.91625s-1.0163 1.3478-1.0163 2.211c0 0.84986 0.29893 1.5204 0.89678 2.0118 0.59785 0.49132 1.8135 0.92953 3.6469 1.3146 2.7235 0.58428 4.7496 1.3777 6.0781 2.3803 1.3286 1.0026 1.9928 2.3471 1.9928 4.0335 0 1.9122-0.77388 3.4592-2.3217 4.641-1.5478 1.1818-3.5705 1.7727-6.0682 1.7727-2.7501 0-4.9157-0.69715-6.4966-2.0914-1.581-1.3943-2.3316-3.021-2.2519-4.88l0.039857-0.11951h3.7465c0.066427 1.3943 0.58456 2.4135 1.5544 3.0575 0.96985 0.64403 2.1058 0.96605 3.4077 0.96605 1.395 0 2.4877-0.28218 3.2782-0.84654 0.79049-0.56436 1.1857-1.3047 1.1857-2.2209zm13.981-2.1313 0.45835 2.6093h0.11957l0.55799-2.6093 4.3045-13.704h3.1487l4.3245 13.704 0.61778 2.9081h0.11957l0.57792-2.9081 3.3878-13.704h3.906l-6.2575 21.552h-3.1686l-4.165-13.126-0.89678-3.665-0.11957 0.019918-0.85692 3.6451-4.1052 13.126h-3.1686l-6.2575-21.552h3.906l3.5672 13.704zm24.104-3.1272c0-3.187 0.86356-5.8129 2.5907-7.8778 1.7271-2.0649 4.072-3.0973 7.0347-3.0973 2.9893 0 5.3508 1.0291 7.0845 3.0874 1.7338 2.0582 2.6006 4.6875 2.6006 7.8877v0.43821c0 3.2135-0.86356 5.8428-2.5907 7.8877-1.7271 2.045-4.0787 3.0675-7.0546 3.0675s-5.3308-1.0258-7.0646-3.0774-2.6006-4.6775-2.6006-7.8778v-0.43821zm3.9259 0.43821c0 2.284 0.4816 4.1696 1.4448 5.6569 0.9632 1.4872 2.3947 2.2309 4.2946 2.2309 1.8733 0 3.2948-0.74362 4.2647-2.2309 0.96985-1.4872 1.4548-3.3729 1.4548-5.6569v-0.43821c0-2.2574-0.48824-4.1364-1.4647-5.6369-0.97649-1.5005-2.408-2.2508-4.2946-2.2508-1.8733 0-3.2915 0.75026-4.2547 2.2508-0.9632 1.5005-1.4448 3.3795-1.4448 5.6369v0.43821zm30.043-7.5491-2.0128-0.11951c-1.0363 0-1.9098 0.24566-2.6206 0.73699-0.71078 0.49132-1.2588 1.1818-1.6441 2.0715v15.397h-3.9259v-21.552h3.5074l0.37864 3.1471c0.61114-1.1154 1.3651-1.9852 2.2619-2.6093 0.89678-0.62411 1.9297-0.93617 3.0989-0.93617 0.29228 0 0.57128 0.023238 0.83699 0.069715s0.48492 0.096273 0.65764 0.14939l-0.53807 3.6451zm2.1631 7.7085c0-3.4658 0.74067-6.2611 2.222-8.3857 1.4813-2.1246 3.5572-3.187 6.2276-3.187 1.2621 0 2.3814 0.23238 3.3579 0.69715 0.97649 0.46477 1.8102 1.142 2.501 2.0317v-11.852h3.9259v31.073h-3.2085l-0.45835-2.6492c-0.70414 1.0092-1.5677 1.7727-2.5907 2.2906-1.023 0.51788-2.212 0.77682-3.5672 0.77682-2.6305 0-4.6898-0.95277-6.1778-2.8583-1.488-1.9055-2.232-4.412-2.232-7.5192v-0.41829zm3.9259 0.41829c0 2.1778 0.44507 3.9206 1.3352 5.2286s2.2718 1.962 4.1451 1.962c1.1691 0 2.1523-0.26558 2.9494-0.79674s1.4481-1.2748 1.953-2.2309v-10.059c-0.50485-0.88969-1.1592-1.5968-1.9629-2.1213s-1.7703-0.78678-2.8996-0.78678c-1.8866 0-3.2782 0.77682-4.175 2.3305-0.89678 1.5536-1.3452 3.5721-1.3452 6.0552v0.41829z"/>
</g>
<path d="m17.86 0v5.5294c-5.1915 0-9.4 4.2085-9.4 9.4v1.6586h9.4v7.3728c-2.5957 0-4.7 2.0647-4.7 4.6116 0 1.5088 0.73852 2.8485 1.8802 3.6898l-2.26e-4 4.6006 2.82-7.451e-4v10.136l-0.25541-0.0014864c-8.7942-0.15168-15.881-5.5739-17.605-15.137v-11.446c8.9679e-16 -1.7646 1.195-3.2502 2.8198-3.6916l1.5417e-4 -1.6817c0-8.3064 6.7336-15.04 15.04-15.04z" fill="#E63748"/>
<path d="m17.86 0c8.3064-1.5259e-15 15.04 6.7336 15.04 15.04l0.0011561 1.6819c1.6244 0.44172 2.8188 1.927 2.8188 3.6913v11.312c-1.5289 9.8771-8.8544 15.282-17.753 15.275l-0.10695-0.0017772v-10.136l2.82 7.451e-4 7.653e-4 -4.6013c1.1411-0.84138 1.8792-2.1806 1.8792-3.6891 0-2.5469-2.1043-4.6116-4.7-4.6116v-7.3728h9.399l1e-3 -1.6586c0-5.1004-4.0622-9.252-9.1277-9.3961l-0.27231-0.0038686v-5.5294z" fill="#C42B34"/>
</g>
</g>
<style>.1a16f7a6c37af7d35e6ab8253c0b991a{height:31px}</style>
</svg>
