<?xml version="1.0" encoding="UTF-8"?>
<svg version="1.1" viewBox="0 0 299 41" xmlns="http://www.w3.org/2000/svg">
<g fill="none" fill-rule="evenodd">
<g transform="translate(-112 -41)">
<g transform="translate(.16)">
<g transform="translate(111.84 30)">
<g transform="translate(-0 11)">
<g transform="translate(49 7)" fill="#2C3035">
<path d="m159.45-1.3946e-14v27.422h-2.8301l-0.4043-2.3379-0.19055 0.26068c-0.5843 0.76254-1.2825 1.3495-2.0946 1.7608-0.90234 0.45703-1.9512 0.68555-3.1465 0.68555-2.3203 0-4.1367-0.84082-5.4492-2.5225s-1.9688-3.8936-1.9688-6.6357v-0.36914l0.004444-0.43292c0.059258-2.8593 0.7111-5.1818 1.9555-6.9675 1.3066-1.875 3.1377-2.8125 5.4932-2.8125 1.1133 0 2.1006 0.20508 2.9619 0.61523s1.5967 1.0078 2.2061 1.793v-10.459h3.4629zm8.6309 0v10.652l0.20454-0.27387c0.55961-0.71065 1.2326-1.2639 2.0191-1.6597 0.88476-0.44531 1.9189-0.66797 3.1025-0.66797 2.3438 0 4.1719 0.9375 5.4844 2.8125s1.9688 4.3418 1.9688 7.4004v0.36914l-0.004944 0.40735c-0.062622 2.5547-0.72015 4.6308-1.9726 6.2284-1.3184 1.6816-3.1318 2.5225-5.4404 2.5225-1.2539 0-2.3438-0.24316-3.2695-0.72949-0.92578-0.48633-1.6934-1.2041-2.3027-2.1533l-0.42188 2.5137h-2.8301v-27.422h3.4629zm33.75 8.0508c2.6367 0 4.7197 0.9082 6.249 2.7246s2.2939 4.1367 2.2939 6.9609v0.38672l-0.004721 0.38352c-0.066099 2.6623-0.82624 4.8548-2.2804 6.5774-1.5234 1.8047-3.5977 2.707-6.2227 2.707s-4.7021-0.90527-6.2314-2.7158-2.2939-4.1279-2.2939-6.9521v-0.38672l0.005182-0.39842c0.06909-2.6337 0.82908-4.8182 2.28-6.5537 1.5234-1.8223 3.5918-2.7334 6.2051-2.7334zm20.514 0c2.2266 0 4.0459 0.65625 5.458 1.9687 1.4121 1.3125 2.0947 2.9238 2.0479 4.834l-0.035156 0.10547h-3.1289l-0.006277-0.24596c-0.054409-1.0544-0.46247-1.9597-1.2242-2.716-0.82031-0.81445-1.8574-1.2217-3.1113-1.2217-1.8164 0-3.1143 0.65332-3.8936 1.96-0.7793 1.3066-1.1689 2.9092-1.1689 4.8076v0.73828l0.005156 0.38473c0.048125 1.7752 0.43312 3.267 1.155 4.4756 0.77344 1.2949 2.0742 1.9424 3.9023 1.9424 1.1484 0 2.1592-0.35449 3.0322-1.0635s1.3096-1.5791 1.3096-2.6104h3.1113l0.035156 0.10547 0.002702 0.25751c-0.02308 1.5359-0.75347 2.9061-2.1912 4.1107-1.5176 1.2715-3.2842 1.9072-5.2998 1.9072-2.7656 0-4.8809-0.90234-6.3457-2.707-1.4648-1.8047-2.1973-4.0723-2.1973-6.8027v-0.73828l0.005515-0.40269c0.069858-2.5291 0.80337-4.6537 2.2005-6.3737 1.4707-1.8105 3.583-2.7158 6.3369-2.7158zm-187.76-7.4628c7.2752 0 12.204 4.8384 12.204 13.359 0 8.5613-4.9284 13.6-12.204 13.6-7.2735 0-12.204-5.0385-12.204-13.6 0-8.5596 4.9301-13.359 12.204-13.359zm96.968 1.2401 9.7383 25.594h-3.5332l-2.3906-6.5918h-10.723l-2.4258 6.5918h-3.5332l9.8965-25.594h2.9707zm57.27-1.8281v27.422h-3.4629v-27.422h3.4629zm48.375 0v15.891h2.2148l5.2031-7.4883h4.1484l-6.5039 8.6484 7.4355 10.371h-4.0781l-6.1699-8.7715h-2.25v8.7715h-3.4629v-27.422h3.4629zm-134.81 1.0661v20.242h9.9413v5.759h-16.89v-26.001h6.9491zm-17.455 0 8.0017 26.001h-7.3546l-1.2925-5.5199h-7.3546l-1.2942 5.5199h-7.113l8.0017-26.001h8.4055zm-15.353 0v5.7607h-6.9525v20.24h-6.9491v-20.24h-6.9525v-5.7607h20.854zm-48.733 0v5.7607h-6.9508v20.24h-6.9491v-20.24h-6.9508v-5.7607h20.851zm180.98 9.7093c-1.6523 0-2.9033 0.66211-3.7529 1.9863-0.84961 1.3242-1.2744 2.9824-1.2744 4.9746v0.38672l0.005664 0.39844c0.052865 1.8375 0.47578 3.3688 1.2688 4.5938 0.84961 1.3125 2.1123 1.9688 3.7881 1.9688 1.6523 0 2.9062-0.65625 3.7617-1.9688 0.85547-1.3125 1.2832-2.9766 1.2832-4.9922v-0.38672l-0.005742-0.39398c-0.053594-1.8178-0.48234-3.3447-1.2862-4.5806-0.86133-1.3242-2.124-1.9863-3.7881-1.9863zm-50.133 0.087891c-1.6641 0-2.8916 0.68555-3.6826 2.0566-0.79102 1.3711-1.1865 3.1523-1.1865 5.3438v0.36914l0.005234 0.37926c0.048854 1.746 0.43969 3.1577 1.1725 4.235 0.78516 1.1543 2.0039 1.7314 3.6562 1.7314 1.0312 0 1.8984-0.23438 2.6016-0.70312s1.2773-1.125 1.7227-1.9688v-8.877l-0.15332-0.25575c-0.42188-0.66609-0.94792-1.2049-1.5781-1.6163-0.70898-0.46289-1.5615-0.69434-2.5576-0.69434zm20.83 0c-1.0664 0-1.9658 0.26074-2.6982 0.78223s-1.3154 1.2217-1.749 2.1006v8.2441l0.15354 0.3049c0.42303 0.79282 0.95486 1.4236 1.5955 1.8924 0.7207 0.52734 1.6318 0.79102 2.7334 0.79102 1.6289 0 2.8418-0.58008 3.6387-1.7402 0.79688-1.1602 1.1953-2.6953 1.1953-4.6055v-0.36914l-0.004704-0.40399c-0.047035-1.9964-0.44683-3.6401-1.1994-4.931-0.80273-1.377-2.0244-2.0654-3.665-2.0654zm-137.94-4.3569c-3.151 0-5.0906 2.721-5.0906 7.4407 0 4.7198 1.9396 7.6798 5.0906 7.6798 3.1527 0 5.0923-2.96 5.0923-7.6798 0-4.7197-1.9396-7.4407-5.0923-7.4407zm95.526-0.23096h-0.10547l-4.2891 11.654h8.6133l-4.2188-11.654zm-49.461-0.087758h-0.16051c-0.5094 2.3741-1.0845 5.1396-1.6661 7.477l-0.19405 0.76217-0.44435 1.8004h4.849l-0.44435-1.8004c-0.64541-2.4802-1.2925-5.6386-1.9396-8.2392z"/>
</g>
<path d="m20.5 0s1.087 6.8539 1.4733 16.045l-1.473 1.4461-6.3671-6.253-3.4729 3.4108 6.367 6.2522-6.367 6.2538 3.4729 3.4108 6.3671-6.2546 1.5596 1.5313c-0.13702 5.0299-0.58641 10.26-1.5596 15.158-19.649-7.2968-20.5-32.381-20.5-32.381z" fill="#E63748"/>
<path d="m20.5 2.4562e-13 20.5 8.6186s-0.61056 25.085-20.5 32.381v-16.689l6.3671 6.2546 3.4729-3.4108-6.368-6.2538 6.368-6.2522-3.4729-3.4108-6.3671 6.253v-17.491z" fill="#C42B34"/>
</g>
</g>
</g>
</g>
</g>
<style>.c70609892e5f881ac30858d17a05010d{height:64px}</style>
<style>.918502d58e9c42cf2ccd295586226772{height:49px}</style>
</svg>
