<?xml version="1.0" encoding="UTF-8"?>
<svg version="1.1" viewBox="0 0 640 140" xmlns="http://www.w3.org/2000/svg">
<path d="M161.24,48.54H139.9V30.72h64V48.54H182.57v62.75H161.24Z" fill="#504847"/>
<path d="m208.68 70.63c0-26.61 15.06-41.42 37.4-41.42s37.4 15.06 37.4 41.42c0 26.6-15.06 42.17-37.4 42.17s-37.4-15.57-37.4-42.17zm53 0c0-14.56-6-23.1-15.56-23.1-9.79 0-15.56 8.54-15.56 23.1s6 23.84 15.56 23.84 15.52-9.28 15.52-23.84z" fill="#504847"/>
<path d="M310.84,48.54H289.5V30.72h64V48.54H332.17v62.75H310.84Z" fill="#504847"/>
<path d="M398.69,94.22H376.1l-4,17.07H350.25l24.59-80.57H400.7l24.6,80.57H402.71Zm-4-16.56-1.25-5.53c-2-7.78-4-17.57-6-25.6h-.51c-1.75,8.28-3.76,17.82-5.77,25.6l-1.26,5.53Z" fill="#504847"/>
<path d="m432.83 30.72h21.33v62.75h30.63v17.82h-52z" fill="#504847"/>
<path d="M551.05,86.19H520.93l-8,25.1H502.36L530.22,29H542l27.87,82.33h-11Zm-2.76-8.53-3.77-12.55c-3-9.29-5.77-18.33-8.28-27.87h-.5c-2.51,9.54-5.27,18.58-8,27.87l-4,12.55Z" fill="#504847"/>
<path d="M573.64,29h11.3l13.3,44.43c3,9.79,4.77,17.57,8,27.36h.5c3-9.79,5-17.57,8-27.36L628.11,29H638.9l-26.1,82.33H600.5Z" fill="#504847"/>
<path d="M58.83,88H50V72.38a15.75,15.75,0,0,1,8.79-28.86c8,0,0-32.63,0-32.63L1.1,35.74s1.75,72.54,57.73,93.62C68.12,102.51,58.83,88,58.83,88Z" fill="#e73848"/>
<path d="M58.83,10.64V43.27A15.75,15.75,0,0,1,74.64,59.08a15.4,15.4,0,0,1-7,13V87.7H58.83v41.41c56-21.08,57.73-93.62,57.73-93.62Z" fill="#c52a34"/>
<style>.03d2f2ff4b072579b324c4d512574e61{height:85px}</style>
</svg>
