<?xml version="1.0" encoding="UTF-8"?>
<svg version="1.1" viewBox="41.83 65.54 428.55 124.83" xmlns="http://www.w3.org/2000/svg">
<path transform="translate(261,77)" d="m0 0c13.025 10.088 21.266 22.877 25 39 0.25021 4.1394 0.28424 7.4399-1.5625 11.188-0.29004 0.63293-0.58008 1.2659-0.87891 1.918-2.7715 3.3688-6.3959 5.5266-10.684 6.2561-2.4111 0.12817-4.7923 0.13365-7.2064 0.092537-0.9081 5.8411e-4 -1.8162 0.0011682-2.7518 0.00177-2.9816-0.0027719-5.9623-0.033821-8.9437-0.065247-2.0751-0.0074656-4.1502-0.013157-6.2252-0.017151-5.4466-0.015231-10.893-0.054492-16.339-0.098816-5.5637-0.041007-11.127-0.059207-16.691-0.079346-10.906-0.042827-21.811-0.11105-32.717-0.19531 0.75734 2.0573 1.5234 4.1113 2.293 6.1641 0.42563 1.1442 0.85126 2.2884 1.2898 3.4673 4.9672 11.807 13.308 19.421 24.902 24.423 9.8529 3.7025 22.524 3.3847 32.168-0.80469 7.204-3.8358 12.172-9.0069 17.465-15.176 2.7303-3.0079 3.5738-3.0493 7.7578-3.3867 2.9859 0.05419 3.9709 0.21371 6.5625 1.875 2.1229 3.3117 2.5625 5.4957 2.5625 9.4375-4.0576 10.241-14.191 18.479-24 23-17.453 6.9112-34.751 8.5818-52.5 1.6289-15.447-7.0628-26.725-18.986-33.434-34.641-6.1372-17.198-5.1292-34.388 2.3594-51.074 8.1463-15.08 20.705-25.833 36.949-31.352 18.404-4.7132 38.84-2.4329 54.625 8.4375zm-70 23c-4.1169 5.5715-6.0714 10.25-8 17h84c-1.7471-10.483-7.7404-18.405-16-25-20.731-12.755-43.42-10.037-60 8z" fill="#00B2D5"/>
<path transform="translate(444.69 77.269)" d="m0 0c15.03 12.295 23.675 27.77 25.665 47.157 0.45042 16.768-5.1415 32.731-15.977 45.512-11.783 11.963-27.15 19.445-44.062 20.129-15.742-0.31557-28.916-4.3118-41.312-14.066-0.6123-0.43699-1.2246-0.87398-1.8555-1.3242-10.868-8.2815-17.985-22.598-20.457-35.738-2.4495-18.159 1.6042-35.147 12.52-49.926 21.255-24.531 58.416-32.102 85.48-11.743zm-71.378 23.723c-7.3066 9.9985-9.6721 21.82-8.3086 34.008 1.7135 7.9709 4.9401 14.635 10 21 0.47824 0.61488 0.95648 1.2298 1.4492 1.8633 6.4787 7.36 17.482 12.745 27.238 13.375 12.85 0.33167 23.418-1.3869 33.312-10.238l2.625-2.3125c9.2856-10.507 12.942-20.783 12.645-34.77-0.7945-11.549-6.1136-21.138-14.508-29.02-20.217-16.411-47.453-13.929-64.453 6.0938z" fill="#00B2D5"/>
<path transform="translate(58,69)" d="m0 0c3.7138 3.1742 7.1136 6.6472 10.527 10.137 0.99803 1.0055 1.9969 2.0101 2.9967 3.0139 2.6146 2.6298 5.217 5.2714 7.8169 7.9157 2.6609 2.702 5.3333 5.3925 8.0048 8.0841 5.2294 5.2721 10.446 10.557 15.654 15.85 5.7581-4.7644 10.973-9.9175 16.188-15.266 1.7676-1.7949 3.5359-3.5891 5.3047-5.3828 2.7643-2.8076 5.5245-5.6187 8.2744-8.4404 2.6705-2.7371 5.3567-5.458 8.0459-8.1768 0.81686-0.84581 1.6337-1.6916 2.4753-2.563 4.3698-4.3901 7.4707-7.3351 13.712-8.1713 3.0521 0.69366 4.5359 1.5679 6.8125 3.6875 1.7865 3.479 1.8338 5.4346 1.1875 9.3125-4.5771 6.4669-10.833 11.965-16.434 17.531-1.3169 1.3148-1.3169 1.3148-2.6604 2.6561-2.7788 2.7733-5.5611 5.543-8.3435 8.3126-1.8957 1.8901-3.7906 3.781-5.6855 5.6719-4.623 4.612-9.2489 9.2212-13.877 13.828 1.4902 3.4744 3.466 5.7037 6.1426 8.3538 0.85429 0.85091 1.7086 1.7018 2.5887 2.5785 0.92398 0.91052 1.848 1.821 2.7999 2.7591 0.95693 0.95065 1.9133 1.9018 2.8693 2.8535 2.5136 2.5003 5.0327 4.995 7.5534 7.4881 4.0357 3.9925 8.0646 7.9918 12.09 11.994 1.4057 1.3955 2.815 2.7875 4.2244 4.1794 0.85429 0.84775 1.7086 1.6955 2.5887 2.569 0.75342 0.74516 1.5068 1.4903 2.2831 2.2581 3.4387 3.6362 4.2462 6.0194 4.1173 11.029-0.35944 2.7012-1.2725 4.0992-3.2578 5.9375-3.8991 1.2997-5.8725 1.6552-10 1-2.2455-1.7066-2.2455-1.7066-4.6655-3.9646-0.88105-0.81959-1.7621-1.6392-2.6699-2.4836-4.0359-3.865-8.0154-7.7789-11.954-11.743-0.8293-0.83072-1.6586-1.6614-2.513-2.5173-2.61-2.6156-5.2165-5.2346-7.8229-7.8538-1.7849-1.7899-3.5701-3.5797-5.3555-5.3691-4.3425-4.3535-8.6822-8.7098-13.02-13.068-5.6851 4.7192-10.889 9.7878-16.074 15.047-1.7362 1.7488-3.4725 3.4975-5.209 5.2461-2.7142 2.7392-5.4269 5.4799-8.137 8.2231-2.6303 2.6605-5.2668 5.3147-7.9041 7.9683-0.81047 0.82393-1.6209 1.6479-2.456 2.4968-0.75791 0.76129-1.5158 1.5226-2.2967 2.3069-0.66283 0.67029-1.3257 1.3406-2.0086 2.0312-2.8629 2.5133-5.0741 3.5734-8.852 4.0557-3.7993-0.46522-5.3489-1.7389-8.0625-4.375-1.4105-2.8211-1.2786-5.3118-0.88211-8.3891 1.9158-5.6703 6.8154-9.5033 11.042-13.552 1.0316-1.0167 2.0615-2.0352 3.0897-3.0554 2.6969-2.6665 5.4169-5.3081 8.1427-7.945 2.7828-2.7006 5.5427-5.4243 8.3047-8.1461 5.4123-5.3268 10.849-10.627 16.303-15.912-1.4973-3.5214-3.511-5.7174-6.2502-8.3662-0.87753-0.85479-1.7551-1.7096-2.6592-2.5903-0.94899-0.9167-1.898-1.8334-2.8757-2.7779-0.98218-0.96065-1.9634-1.9223-2.9437-2.8848-4.1558-4.0796-8.3179-8.1525-12.507-12.198-2.5657-2.4792-5.1137-4.9755-7.6514-7.4833-1.435-1.4085-2.8887-2.798-4.3425-4.187-7.2322-7.1744-7.2322-7.1744-7.9402-11.974 0.18809-3.922 0.52565-5.6382 3.1697-8.5381 4.9993-2.7269 8.369-1.8951 13 1z" fill="#00B3D6"/>
<path transform="translate(349.5 69.938)" d="m0 0c2.5501 3.5064 3.0122 5.7088 2.5 10.062-2.5964 3.2636-4.1618 4.8077-8.2695 5.75-1.1692 0.0825-2.3384 0.165-3.543 0.25-6.0667 0.69315-10.765 1.589-15.188 6-3.9035 6.7996-4.1478 14.097-4.1418 21.784-0.0034744 0.74402-0.0069489 1.488-0.010529 2.2546-0.0073078 1.603-0.012679 3.2061-0.016291 4.8091-0.0072158 2.5392-0.022917 5.0782-0.041342 7.6173-0.052254 7.2149-0.10049 14.43-0.11592 21.645-0.010081 4.4238-0.039396 8.8472-0.08132 13.271-0.0123 1.6816-0.017433 3.3634-0.015202 5.0451 0.0023533 2.3505-0.019809 4.6996-0.047522 7.0499 0.0066014 0.69103 0.013203 1.3821 0.020004 2.094-0.091178 4.7144-1.1813 7.1475-4.55 10.431-3.8016 1.3223-5.4798 1.2001-9.25-0.25-2.75-1.75-2.75-1.75-4.75-4.75-0.25448-2.0575-0.25448-2.0575-0.2607-4.4652-0.0070848-0.91404-0.01417-1.8281-0.021469-2.7698 0.0024774-1.0006 0.0049548-2.0012 0.0075073-3.0321-0.0051109-1.0555-0.010222-2.1111-0.015488-3.1986-0.01393-3.4985-0.012937-6.9967-0.010635-10.495-0.0038853-2.4275-0.0082196-4.8551-0.012985-7.2826-0.0074697-5.0927-0.0071657-10.185-0.0019074-15.278 0.0057929-6.5294-0.011129-13.058-0.034345-19.588-0.014726-5.0151-0.015611-10.03-0.01249-15.045-5.1388e-4 -2.4074-0.005764-4.8147-0.015812-7.2221-0.012323-3.366-0.0055967-6.7314 0.0060062-10.097-0.0076437-0.99654-0.015287-1.9931-0.023163-3.0198 0.065179-8.546 0.065179-8.546 3.3955-12.506 3.1491-1.5746 5.5201-1.348 9-1 2.3347 1.4547 4.0117 3.0602 6 5l3.375-1.875c7.6345-3.7836 18.78-6.8798 26.125-1.1875z" fill="#00B2D5"/>
<style>.cbc558eba39efa5aba4caf370ceb8d3f{height:71px}</style>
<style>.53138aae3e67a6624d53c63dad80ddab{height:40px}</style>
</svg>
